<svg xmlns="http://www.w3.org/2000/svg" width="24.756" height="24.756" viewBox="0 0 24.756 24.756"><defs><style>.a{fill:#382a57;}</style></defs><path class="a" d="M22.987,2.25H1.763A1.776,1.776,0,0,0,0,4.035V25.221a1.776,1.776,0,0,0,1.763,1.785H22.987a1.781,1.781,0,0,0,1.768-1.785V4.035A1.781,1.781,0,0,0,22.987,2.25ZM7.482,23.469H3.813V11.655H7.487V23.469ZM5.647,10.041A2.127,2.127,0,1,1,7.775,7.914,2.128,2.128,0,0,1,5.647,10.041ZM21.236,23.469H17.566V17.722c0-1.37-.028-3.133-1.906-3.133-1.912,0-2.2,1.492-2.2,3.034v5.846H9.786V11.655h3.52v1.614h.05a3.865,3.865,0,0,1,3.476-1.906c3.713,0,4.4,2.448,4.4,5.631Z" transform="translate(0 -2.25)"/></svg>