<svg xmlns="http://www.w3.org/2000/svg" xmlns:xlink="http://www.w3.org/1999/xlink" width="426.96" height="366.772" viewBox="0 0 426.96 366.772"><defs><style>.a{fill:#efefef;}.b{fill:#d3d1d1;}.c{fill:#f1b696;}.d{fill:#ff316c;}.e{fill:#1d2247;}.f{fill:#fbcbab;}.g{fill:#0ea9b4;}.h{fill:url(#a);}.i{fill:#00979b;}.j{fill:#ff527c;}.k{fill:#e2e2e2;}.l{fill:#e53b6c;}.m{fill:#4ccfd8;}.n{fill:#fff;}.o{fill:#56bbff;}.p,.v{fill:#f09dd3;}.p,.u{opacity:0.4;mix-blend-mode:color-burn;isolation:isolate;}.q{fill:#ce8463;}.r{fill:#dbf76f;}.s{fill:none;stroke:#2b4e78;stroke-miterlimit:10;stroke-width:1.451px;}.t{fill:#badd27;}</style><linearGradient id="a" y1="0.5" x2="1" y2="0.5" gradientUnits="objectBoundingBox"><stop offset="0" stop-color="#00a4af"/><stop offset="1" stop-color="#4ccfd8"/></linearGradient></defs><g transform="translate(-616.89 -170.171)"><path class="a" d="M619.939,462.308c15.222-61.5,84.792-115.271,148.54-78.111,19.647,11.453,37.312,21.692,59.952,9.594,54.04-28.876,152.631-49.5,199.659,11.55S1013.24,619.025,891.134,587.674s-84.154-25.576-149.745-8.25c-29.553,7.806-61.827-4.824-85.951-21.548C619.836,533.192,611.464,496.55,619.939,462.308Z" transform="translate(0 -84.407)"/><path class="b" d="M825.248,515.081s17.369,6.589,25.656,6.393c11.523-2.418,32.427-26.776,44.965-34.652l-3.3-8.25L856.739,501.61l-12.175-4Z" transform="translate(-89.919 -133.094)"/><path class="c" d="M946.117,474.476s2.377-.888,10.425-4.591c7.635-3.514,2.263-9.357,1.689-9.949l-.047-.049c1.066-1.105,8.729-4.331,5.591-6.843-2.063-1.65-17.551,9.3-17.446,10.5.273,3.135-2.92,4.969-2.92,4.969l1.8,3.961Z" transform="translate(-140.913 -122.004)"/><path class="d" d="M843.459,468.8s8.7,14.218,12.829,24.53c0,0-2.475,4.951-9.488,9.488Z" transform="translate(-97.778 -128.877)"/><path class="e" d="M938.157,783.92c-.755,4.946.994,8.737-.4,9.653-.755.491-3.065.309-5.313-1.1-2.578-1.621-5.078-4.86-5.058-10.556.042-10.663,3.251-14.748,3.251-14.748a17.439,17.439,0,0,1,5.478-1.658,14.094,14.094,0,0,1,2.455-.095c.2.009,4.134,1.613,4.134,1.613s-2.017,8.349-3.977,14.45A15.233,15.233,0,0,0,938.157,783.92Z" transform="translate(-133.998 -256.876)"/><path class="f" d="M947.956,767.028s-2.017,8.349-3.977,14.45a15.239,15.239,0,0,0-.569,2.442c-5.726-5.227-3.865-13.538-2.042-18.411a14.093,14.093,0,0,1,2.454-.095C944.025,765.423,947.956,767.028,947.956,767.028Z" transform="translate(-139.251 -256.876)"/><path class="e" d="M1027,789.606c-2.611,2.438-7.041,4.3-13.5,2.561-12.091-3.255-15.762-8.126-15.762-8.126a19.817,19.817,0,0,1,.4-9.529c.07-.223.148-.45.235-.677a5.05,5.05,0,0,1,1.9-2.359c3.382-2.376,9.446-1.923,9.446-1.923s.367,5.553,6.7,9.612a19.439,19.439,0,0,0,5.544,2.4c4.1,1.105,7.393.829,7.892,2.339C1030.183,784.911,1029.279,787.477,1027,789.606Z" transform="translate(-164.183 -258.655)"/><path class="f" d="M1024.184,781.566c-12.313,5.507-18.9-4.043-21.694-10.09,3.382-2.376,9.446-1.923,9.446-1.923s.367,5.553,6.7,9.612A19.439,19.439,0,0,0,1024.184,781.566Z" transform="translate(-166.41 -258.655)"/><path class="g" d="M837.868,594.672s57.34,21.038,66,24.339c9.076,2.063-13.2,75.9-13.2,75.9s-7.013,3.3-13.2,0l.825-52.39s-67.653-12.375-72.191-14.85S826.317,593.847,837.868,594.672Z" transform="translate(-81.42 -183.191)"/><path class="h" d="M741.933,604.058c7.426,21.038,45.377,29.289,66.828,36.3s27.639,9.075,27.639,9.075l50.327,52.8s9.488,1.238,14.026-6.6c0,0-37.952-63.94-40.014-66.415s-51.977-36.714-51.977-36.714Z" transform="translate(-53.964 -182.264)"/><path class="i" d="M1104.938,457.837H985.823c-1.027,0-7.311-8.662-7.311-8.662l29.9-159.852a1.686,1.686,0,0,1,1.668-1.443l114.46-7.425s6.878,8.34,6.727,9.357L1106.606,456.4A1.685,1.685,0,0,1,1104.938,457.837Z" transform="translate(-156.062 -47.594)"/><path class="j" d="M768.6,445.715s-32.382,11.664-40.22,58.691c-3.3,23.1,7.013,38.777,7.013,38.777s24.751,11.138,52.39,0c15.675-7.425,14.85-14.026,14.85-14.026s-9.076-15.263-5.775-25.576,8.337-31.416-7.382-50.36Z" transform="translate(-47.832 -118.914)"/><path class="j" d="M770.477,462.606c9.076,4.951,8.25,29.7,16.5,35.889,0,0-8.663,17.738-32.589,11.138,0,0-8.25-6.188,0-33.827" transform="translate(-57.757 -126.204)"/><path class="k" d="M760.075,534.818s12.788,10.725,21.038,14.026c12.376,2.475,47.028,4.538,62.7,2.063l2.476-9.488-49.5-6.6-10.313-9.075Z" transform="translate(-61.793 -153.451)"/><path class="c" d="M904.835,560.294c3.868,1.965,6.783,2.378,8.916-.573s4-5.164,4.914-5.332,8.1.669,8.809.594,1.236-3.288-10.593-5.858c-3.626-.339-5.517,4.239-9.03,3.6Z" transform="translate(-124.266 -163.534)"/><path class="l" d="M934.21,319.643H896.868a3.805,3.805,0,0,0-3.632,2.67L885.3,347.7a3.805,3.805,0,0,0,3.632,4.94h37.024a3.8,3.8,0,0,0,3.619-2.629l8.252-25.391A3.805,3.805,0,0,0,934.21,319.643Zm-33.745,20.419a4.022,4.022,0,1,1,4.022-4.022A4.022,4.022,0,0,1,900.465,340.062Zm11.138,0a4.022,4.022,0,1,1,4.022-4.022A4.022,4.022,0,0,1,911.6,340.062Zm11.138,0a4.022,4.022,0,1,1,4.022-4.022A4.022,4.022,0,0,1,922.741,340.062Z" transform="translate(-115.76 -64.506)"/><path class="h" d="M1125.383,282.385l-9.3,62.835-15.362,103.753a1.687,1.687,0,0,1-1.671,1.44H979.933a1.684,1.684,0,0,1-1.667-1.926l15.04-103.266,9.22-63.321a1.683,1.683,0,0,1,1.667-1.444h119.523A1.687,1.687,0,0,1,1125.383,282.385Z" transform="translate(-155.948 -47.594)"/><path class="m" d="M1074.108,320.27a18.77,18.77,0,1,1-18.77-18.77A18.677,18.677,0,0,1,1074.108,320.27Z" transform="translate(-181.117 -56.677)"/><path class="n" d="M1073.572,345.649a18.77,18.77,0,0,1-31.516.326,18.565,18.565,0,0,1,31.516-.326Z" transform="translate(-183.485 -72.023)"/><circle class="n" cx="6.394" cy="6.394" r="6.394" transform="translate(867.827 252.249)"/><g transform="translate(900.622 247.505)"><path class="n" d="M1157.9,309.1h-40.427a1.444,1.444,0,1,1,0-2.888H1157.9a1.444,1.444,0,1,1,0,2.888Z" transform="translate(-1116.033 -306.217)"/></g><g transform="translate(900.829 260.706)"><path class="n" d="M1138.053,332.328H1117.84a1.444,1.444,0,1,1,0-2.888h20.213a1.444,1.444,0,1,1,0,2.888Z" transform="translate(-1116.396 -329.44)"/></g><g transform="translate(900.829 273.494)"><path class="n" d="M1138.053,354.824H1117.84a1.444,1.444,0,1,1,0-2.887h20.213a1.444,1.444,0,1,1,0,2.887Z" transform="translate(-1116.396 -351.937)"/></g><path class="m" d="M1116.08,394.39l-15.362,103.753a1.687,1.687,0,0,1-1.671,1.44H979.933a1.684,1.684,0,0,1-1.667-1.926l15.04-103.266Z" transform="translate(-155.948 -96.764)"/><g transform="translate(845.345 316.396)"><path class="n" d="M1104.8,430.3h-84.566a1.444,1.444,0,0,1,0-2.888H1104.8a1.444,1.444,0,1,1,0,2.888Z" transform="translate(-1018.789 -427.41)"/></g><g transform="translate(842.457 341.147)"><path class="n" d="M1066.924,473.84h-51.771a1.444,1.444,0,1,1,0-2.888h51.771a1.444,1.444,0,1,1,0,2.888Z" transform="translate(-1013.709 -470.952)"/></g><g transform="translate(843.901 328.771)"><path class="n" d="M1041.825,452.069h-24.132a1.444,1.444,0,1,1,0-2.888h24.132a1.444,1.444,0,0,1,0,2.888Z" transform="translate(-1016.249 -449.181)"/></g><g transform="translate(850.708 364.247)"><path class="n" d="M1114.233,514.479h-84.566a1.444,1.444,0,1,1,0-2.888h84.566a1.444,1.444,0,0,1,0,2.888Z" transform="translate(-1028.223 -511.591)"/></g><g transform="translate(886.39 388.999)"><path class="n" d="M1144.211,558.022H1092.44a1.444,1.444,0,0,1,0-2.888h51.771a1.444,1.444,0,0,1,0,2.888Z" transform="translate(-1090.996 -555.134)"/></g><g transform="translate(912.586 376.623)"><path class="n" d="M1162.655,536.25h-24.132a1.444,1.444,0,0,1,0-2.888h24.132a1.444,1.444,0,1,1,0,2.888Z" transform="translate(-1137.079 -533.362)"/></g><path class="e" d="M739.379,261.737c.071-.065-6.962-1.38-7.844-1.366-2.351.039-4.7.413-7-.3-8.9-2.753-12.869-14.006-7.756-21.605,6.009-8.93,17.713-9.7,26.722-5.194,18.976,9.488,57.753-13.613,31.352-46.2-18.893-23.321-53.72-19.86-76.978-5.57-14,8.6-24.491,22.138-30.613,37.281-5.7,14.105-9.313,32.819-4.575,47.659a48.8,48.8,0,0,0,2.362,6.134,42.881,42.881,0,0,0,2.962,5.25c18.563,26.814,49.915-7.425,56.927-2.887Z" transform="translate(-18.821 0)"/><path class="c" d="M813.437,451.094c-11.613-1.567-13.811-17.263-13.811-17.263l.314-25.423.479-1.436.462-1.39c5.338.627,20.4,21.971,20.4,21.971l-.714,7.611-.227,2.433S825.049,452.661,813.437,451.094Z" transform="translate(-78.862 -101.594)"/><path class="o" d="M795.994,333.461s-6.377-10-18.639,1.727-1.318,19.878-1.318,19.878Z" transform="translate(-66.742 -68.754)"/><path class="p" d="M821.885,427.552l-.714,7.611c-13.341-5.264-18.427-20.663-20.151-28.192l.462-1.39C806.82,406.208,821.885,427.552,821.885,427.552Z" transform="translate(-79.463 -101.594)"/><path class="f" d="M841.958,371.524s1.7,14.2,3.977,23.864-6.106,21.935-20.739,19.887c-14.2-1.989-21.022-23.3-21.022-23.3s-1.989-8.523,1.42-13.636S841.958,371.524,841.958,371.524Z" transform="translate(-80.575 -86.896)"/><path class="e" d="M826.746,353.272s-2.154,12.4-16.5,9.488a15.028,15.028,0,0,0,2.062-3.712s-18.976,1.65-21.635,16.293c0,0-3.012-4.108-4.108-.821v16.7a29.407,29.407,0,0,1-16.431-16.978c-4.656-12.871-.548-31.492,14.24-39.981s32.5-4.633,40.529,7.394,3.906,25.227,3.906,25.227Z" transform="translate(-65.349 -68.846)"/><circle class="c" cx="6.188" cy="6.188" r="6.188" transform="translate(716.846 297.213)"/><path class="q" d="M803.953,403.558a5.072,5.072,0,0,0-.523-1.46,4.085,4.085,0,0,0-1.011-1.2,3,3,0,0,0-1.419-.618,8.319,8.319,0,0,1,1.046,1.009c.113.139.22.281.323.425a1.658,1.658,0,0,0-.347-.011,1.855,1.855,0,0,0-.689.182,2.124,2.124,0,0,0-.3.19,1.641,1.641,0,0,0-.26.268,1.887,1.887,0,0,0,.361.055,2.729,2.729,0,0,0,.329.013c.213,0,.412-.011.606-.022l.577-.044.127-.007c.019.033.039.065.058.1a13.637,13.637,0,0,1,.607,1.279c.187.444.358.9.543,1.378A4.136,4.136,0,0,0,803.953,403.558Z" transform="translate(-79.356 -99.304)"/><g transform="translate(921.243 405.087)"><path class="r" d="M1183.562,653.247c-21.974,34.452-44.171,20.394-22.2-14.058s44.756-59.235,50.885-55.353S1205.535,618.794,1183.562,653.247Z" transform="translate(-1152.309 -583.436)"/><line class="s" y1="57.553" x2="35.892" transform="translate(13.541 14.414)"/></g><g transform="translate(916.391 374.84)"><path class="t" d="M1176.492,618.888c-11.657,46.854-41.739,39.37-30.081-7.485s27.843-83.161,36.149-81.095S1188.15,572.034,1176.492,618.888Z" transform="translate(-1143.774 -530.225)"/><line class="s" y1="77.966" x2="18.563" transform="translate(13.726 19.728)"/></g><g transform="translate(886.383 397.187)"><path class="t" d="M1112.265,642.412c17.12,37.1,41.012,26.174,23.893-10.931s-36.347-64.736-42.944-61.718S1095.145,605.308,1112.265,642.412Z" transform="translate(-1090.983 -569.538)"/><line class="s" x1="27.791" y1="61.873" transform="translate(10.75 15.53)"/></g><g transform="translate(906.136 373.507)"><path class="r" d="M1157.97,613.913c3.6,48.148-27.31,50.461-30.912,2.313s.4-87.7,8.934-88.337S1154.368,565.765,1157.97,613.913Z" transform="translate(-1125.734 -527.881)"/><line class="s" x1="6.788" y1="79.857" transform="translate(10.24 20.698)"/></g><path class="e" d="M1173.242,701.608l-1.073,5.663-.6,3.16-.05.26-1.807,9.5-.623,3.292v0l-.161.837-.689,3.635-.214,1.134-.693,3.651-1.1,5.783-.574,3.016-.763,4v.008l-.359,1.868-1.345,7.1c-.148.775-1.3,1.361-2.677,1.361h-25.048c-1.37,0-2.521-.582-2.677-1.354l-.107-.528-1.844-9.212-.066-.334-.656-3.28-.342-1.708-.788-3.923-1.46-7.289-.1-.528-.281-1.394-.355-1.754-1.395-6.951-.045-.218-1.271-6.361-.573-2.85-.061-.31-.512-2.553-.747-3.729a.471.471,0,0,1,.462-.561h50.138A.472.472,0,0,1,1173.242,701.608Z" transform="translate(-218.06 -229.107)"/><g class="u" transform="translate(905.441 471.944)"><g transform="translate(0)"><path class="v" d="M1145.878,701.051l-19.524,16.365-1.271-6.361-.573-2.851,8.535-7.153Z" transform="translate(-1124.509 -701.051)"/></g></g><g class="u" transform="translate(909.079 471.944)"><path class="v" d="M1173.915,701.051l-41.161,34.5-1.46-7.289-.1-.528-.28-1.394,30.167-25.287Z" transform="translate(-1130.91 -701.051)"/></g><g class="u" transform="translate(912.775 481.584)"><g transform="translate(0)"><path class="v" d="M1178.095,718.011l-1.807,9.5-.623,3.292v0l-36.409,30.514-1.844-9.212Z" transform="translate(-1137.412 -718.011)"/></g></g><g class="u" transform="translate(921.665 503.642)"><g transform="translate(0 0)"><path class="v" d="M1180.657,756.814l-1.1,5.784-.573,3.016-.763,4-12.33,10.338h-12.838Z" transform="translate(-1153.051 -756.814)"/></g></g></g></svg>