<svg xmlns="http://www.w3.org/2000/svg" xmlns:xlink="http://www.w3.org/1999/xlink" width="389.464" height="344.533" viewBox="0 0 389.464 344.533"><defs><style>.a{fill:none;}.ae,.af,.b,.d,.f,.g{opacity:0.369;}.b{fill:url(#a);}.c,.e{opacity:0.977;}.c{fill:url(#b);}.d{fill:url(#c);}.e{fill:url(#d);}.f{fill:url(#g);}.g{fill:url(#i);}.h{fill:#efefef;}.aa,.ac,.ad,.i,.j,.l,.z{opacity:0.277;}.i{fill:url(#o);}.j{fill:url(#p);}.k{fill:#d3d1d1;}.l{fill:url(#q);}.m{fill:#d84166;}.n{opacity:0.871;mix-blend-mode:overlay;fill:url(#r);}.af,.n,.q{isolation:isolate;}.o{fill:#315add;}.p{fill:#620038;}.q{opacity:0.578;fill:url(#s);}.af,.q{mix-blend-mode:screen;}.r{fill:#cecfd8;}.s{fill:url(#t);}.t{fill:#ff7745;}.u{fill:#cc5f3e;}.v{fill:#42375b;}.w{fill:url(#u);}.x{fill:#c1bcbc;}.y{fill:#bfbaba;}.z{fill:url(#v);}.aa{fill:url(#w);}.ab{fill:#e5e3e3;}.ac{fill:url(#x);}.ad{fill:url(#y);}.ae{fill:url(#z);}.af{fill:url(#ab);}.ag{fill:#249eba;}.ah{fill:#382a57;}.ai{fill:#aab5ba;}.aj{fill:#dfe5ea;}.ak{fill:#635388;}.al{fill:#b4c5d1;}.am{fill:#2fbcc6;}.an{fill:#0ea9b4;}.ao{fill:#4ccfd8;}.ap{clip-path:url(#ae);}.aq{fill:#fff;}</style><radialGradient id="a" cx="0.398" cy="0.294" r="0.918" gradientTransform="translate(0)" gradientUnits="objectBoundingBox"><stop offset="0" stop-color="#efefef"/><stop offset="0.129" stop-color="#efefef" stop-opacity="0.8"/><stop offset="0.301" stop-color="#efefef" stop-opacity="0.557"/><stop offset="0.468" stop-color="#efefef" stop-opacity="0.357"/><stop offset="0.625" stop-color="#efefef" stop-opacity="0.204"/><stop offset="0.771" stop-color="#efefef" stop-opacity="0.09"/><stop offset="0.9" stop-color="#efefef" stop-opacity="0.024"/><stop offset="1" stop-color="#efefef" stop-opacity="0"/></radialGradient><linearGradient id="b" x1="0.24" y1="0.952" x2="0.731" y2="0.098" gradientUnits="objectBoundingBox"><stop offset="0" stop-color="#ff45a9"/><stop offset="0.143" stop-color="#ff52a9"/><stop offset="0.475" stop-color="#ff6da9"/><stop offset="0.771" stop-color="#ff7da9"/><stop offset="1" stop-color="#ff83a9"/></linearGradient><radialGradient id="c" cx="0.398" cy="0.294" r="0.918" gradientTransform="matrix(1, 0, 0, 1, 0, 0)" xlink:href="#a"/><linearGradient id="d" x1="0.24" y1="0.952" x2="0.731" y2="0.098" xlink:href="#b"/><radialGradient id="g" cx="0.398" cy="0.294" r="0.918" xlink:href="#a"/><radialGradient id="i" cx="0.398" cy="0.294" r="0.918" xlink:href="#a"/><linearGradient id="o" x1="0.918" y1="0.576" x2="-0.05" y2="0.317" gradientUnits="objectBoundingBox"><stop offset="0"/><stop offset="0.731" stop-opacity="0"/><stop offset="1" stop-opacity="0"/></linearGradient><linearGradient id="p" x1="0.164" y1="0.506" x2="0.951" y2="0.495" xlink:href="#o"/><linearGradient id="q" x1="0.837" y1="0.729" x2="0.11" y2="0.129" xlink:href="#o"/><linearGradient id="r" x1="0.528" y1="-0.229" x2="0.498" y2="1.088" gradientUnits="objectBoundingBox"><stop offset="0" stop-color="#efefef"/><stop offset="0.176" stop-color="#efefef" stop-opacity="0.816"/><stop offset="0.749" stop-color="#efefef" stop-opacity="0.235"/><stop offset="1" stop-color="#efefef" stop-opacity="0"/></linearGradient><linearGradient id="s" x1="0.494" y1="0.61" x2="0.5" y2="-0.016" gradientTransform="matrix(1, 0, 0, 1, 0, 0)" xlink:href="#a"/><linearGradient id="t" y1="0.5" x2="1" y2="0.5" gradientUnits="objectBoundingBox"><stop offset="0" stop-color="#00828b"/><stop offset="1" stop-color="#4ccfd8"/></linearGradient><linearGradient id="u" y1="0.5" x2="1" y2="0.5" gradientUnits="objectBoundingBox"><stop offset="0" stop-color="#00a4af"/><stop offset="1" stop-color="#4ccfd8"/></linearGradient><linearGradient id="v" x1="0.931" y1="0.888" x2="0.049" y2="0.005" xlink:href="#o"/><linearGradient id="w" x1="0.774" y1="-0.218" x2="0.29" y2="0.82" xlink:href="#o"/><linearGradient id="x" x1="0.786" y1="-0.743" x2="0.306" y2="0.806" xlink:href="#o"/><linearGradient id="y" x1="0.859" y1="0.688" x2="-0.023" y2="0.258" xlink:href="#o"/><radialGradient id="z" cx="0.398" cy="0.294" r="0.918" xlink:href="#a"/><radialGradient id="ab" cx="0.5" cy="0.5" r="0.5" xlink:href="#a"/><clipPath id="ae"><rect class="a" width="31.291" height="26.756"/></clipPath></defs><g transform="translate(-1159.445 -403.592)"><g transform="translate(1545.33 557.094)"><circle class="b" cx="1.789" cy="1.789" r="1.789"/><circle class="c" cx="1.265" cy="1.265" r="1.265" transform="translate(0.524 0.524)"/></g><g transform="translate(1479.097 557.119)"><circle class="d" cx="1.536" cy="1.536" r="1.536"/><circle class="e" cx="1.086" cy="1.086" r="1.086" transform="translate(0.45 0.45)"/></g><g transform="translate(1470.126 527.497)"><circle class="d" cx="1.536" cy="1.536" r="1.536"/><circle class="e" cx="1.086" cy="1.086" r="1.086" transform="translate(0.45 0.45)"/></g><g transform="translate(1261.959 433.901)"><circle class="f" cx="2.276" cy="2.276" r="2.276"/><circle class="e" cx="1.609" cy="1.609" r="1.609" transform="translate(0.667 0.667)"/></g><g transform="translate(1162.421 534.897)"><circle class="g" cx="2.276" cy="2.276" r="2.276"/><circle class="e" cx="1.609" cy="1.609" r="1.609" transform="translate(0.667 0.667)"/></g><g transform="translate(1189.193 577.82)"><circle class="g" cx="2.276" cy="2.276" r="2.276" transform="translate(0 0)"/><circle class="c" cx="1.609" cy="1.609" r="1.609" transform="translate(0.667 0.667)"/></g><g transform="translate(1217.954 439.309)"><circle class="f" cx="2.276" cy="2.276" r="2.276" transform="translate(0)"/><circle class="e" cx="1.609" cy="1.609" r="1.609" transform="translate(0.667 0.667)"/></g><path class="h" d="M1517.452,684.808a39.234,39.234,0,0,1-66.6,28.13,55.465,55.465,0,0,1-57.383,26.539c-13.814,13.555-34.737,11.619-55.622,11.619-27.662,0-49.9-4.376-63.362-26.368a45.847,45.847,0,1,1,0-79.85,76.572,76.572,0,0,1,118.984-14.739,55.9,55.9,0,0,1,9.543-.839,55.578,55.578,0,0,1,47.839,27.378,39.222,39.222,0,0,1,53.052-1.53,38.554,38.554,0,0,1,3.691,3.639,39.032,39.032,0,0,1,9.483,20.652A37.954,37.954,0,0,1,1517.452,684.808Z" transform="translate(-9.458 -41.472)"/><path class="i" d="M1227.967,680.847s4.538-7.9,18.8-7.9,19.45,2.594,19.45,2.594-13.244-6.442-15.05-7.111,15.05,3.436,25.424,2.356,15.572-24.432,24.637-1.3,50.571,33.066,3.242,39.118S1227.967,680.847,1227.967,680.847Z" transform="translate(-13.888 -51.825)"/><path class="j" d="M1560.261,691.181c-36.7,9.881-111.247,26.219-131.751,2.412-27.525-31.967,13.26-23.8,26.279-22.717s25.45,13.183,33.126,7.633,23.012-8.7,23.012-8.7l-11.549,8.61c.8-.537,6.2-3.735,29.7-10.789a37.779,37.779,0,0,1,18.007-.743,38.583,38.583,0,0,1,3.691,3.639A39.032,39.032,0,0,1,1560.261,691.181Z" transform="translate(-52.639 -53.214)"/><path class="k" d="M1315.116,719.945a19.617,19.617,0,0,1-33.3,14.065c-.129.216-.259.432-.4.639a27.677,27.677,0,0,1-23.523,13.045,27.988,27.988,0,0,1-4.771-.415,38.284,38.284,0,0,1-59.492-7.374,22.926,22.926,0,1,1,0-39.92,38.284,38.284,0,0,1,59.492-7.374,27.988,27.988,0,0,1,4.771-.415,27.833,27.833,0,0,1,23.92,13.684,19.616,19.616,0,0,1,33.3,14.065Z" transform="translate(0 -56.355)"/><path class="l" d="M1281.607,739.293a27.677,27.677,0,0,1-23.523,13.045,27.983,27.983,0,0,1-4.771-.415,38.283,38.283,0,0,1-59.492-7.374,22.913,22.913,0,0,1-33.454-14.2c6.12,3.233,15.336,7.556,22.563,8.609,11.886,1.729,15.128-1.3,15.128-1.3s-18.586-1.409-22.156-4.6c-3.112-2.783-3.51-3.13-3.553-3.173.458.147,13.312,4.487,24.49,1.937,11.376-2.594,16.563-2.922,21.534,1.236,4.348,3.648,4.892,4.1,4.962,4.158-.191-.372-5.274-9.941-10.149-10.581-4.971-.649-6.915,0-6.915,0s11.453-6.043,18.37-2.049-3.9-3.908,3.674-13.728,13.4-7.78,25.069,3.458C1259.909,720.6,1275.547,729.55,1281.607,739.293Z" transform="translate(-0.187 -60.999)"/><path class="m" d="M1451.135,589.805c-22.114-21.588-46.049-55.812-85.939-56.075,0,0-29.106,6.319-41.48,14.216s-55.548,68.975-58.444,78.452,27.379,17.9,53.179,18.955,86.876,11.584,115.572-11.056S1473.249,611.393,1451.135,589.805Zm-39.341,14.132-5.308-22.051,22.6,18.765-12.437,7.846-4.771-4.212Z" transform="translate(-21.409 -26.376)"/><path class="n" d="M1320.707,567.711c6.547-8.087,12.205-14.312,15.4-16.352,10.833-6.918,36.1-12.768,39.726-13.576,24.418.325,42.725,14.321,58.524,29.928h5.714c-17.026-17.3-37.011-33.8-64.658-33.981,0,0-29.1,6.319-41.482,14.216-3.863,2.466-10.73,10.118-18.436,19.766Z" transform="translate(-31.628 -26.376)"/><path class="o" d="M1447.738,616.178c-.516-2.085-3.286-13.248-5.308-22.051Z" transform="translate(-57.354 -38.617)"/><path class="p" d="M1475.911,611.584c.79,1.579-39.226,17.913-39.226,17.913l9.972-15.8,4.771,4.212,12.437-7.846-22.6-18.765c-1.305-5.666-2.306-10.362-2.211-11.036C1439.318,578.423,1475.122,610,1475.911,611.584Z" transform="translate(-56.19 -35.792)"/><path class="p" d="M1316.42,616.525s4.475-21.324,3.949-22.378-27.116,34.224-26.326,36.857,18.428,3.685,18.428,3.685Z" transform="translate(-27.276 -38.616)"/><path class="q" d="M1434.312,615.481l7.314-60.3-150.754,2.537,14.378,111.464,72.762-17.4Z" transform="translate(-26.637 -30.723)"/><path class="r" d="M1426.652,676.362c-.557,3.349-1,6.182-1.274,8.235a29.217,29.217,0,0,0-.326,3.181c0,5.792-25.094,13.511-31.412,14.564-5.919.99-76.988-6.471-87.151-12.242-.695-.4.369-7.987.274-8.292a87.543,87.543,0,0,1-1.6-8.867c-2.569-17.007-6.823-51.683-6.823-51.683s135.906-4.686,137.486-3.633C1437.046,618.434,1429.938,656.48,1426.652,676.362Z" transform="translate(-28.15 -43.347)"/><path class="s" d="M1452.637,735.75a65.37,65.37,0,0,1-10.32.789c-25.958.073-81.053-3.591-89.509-.769s-15.227,19.618-19.429,17.744.21-17.9.21-17.9c12.9.631,48.377-22.493,65.574-32.613a41.509,41.509,0,0,1,11.594-4.707,37.824,37.824,0,0,1,21.082.769l1.116-8.035c22.146-5.223,41.848,2.348,44.375,15.27C1479.533,717.617,1474.51,732.243,1452.637,735.75Z" transform="translate(-34.885 -57.918)"/><path class="t" d="M1397.864,530.242c-.526,1.758-3.686,6.5-8.077,5.97s-8.066-3.517-8.245-5.444a45.048,45.048,0,0,1,.4-5.413c.474-4.306,1.179-9.509,1.179-9.509l7.835-1.147,5.328-.78s.01.042.021.116c.053.379.232,1.663.453,3.359C1397.348,521.817,1398.222,529.041,1397.864,530.242Z" transform="translate(-45.011 -22.361)"/><path class="u" d="M1396.863,517.395a9.509,9.509,0,0,1-6.276,6.35,28.019,28.019,0,0,1-8.54,1.611c.474-4.306,1.179-9.509,1.179-9.509l7.835-1.147,5.349-.663.938-.116A10.326,10.326,0,0,1,1396.863,517.395Z" transform="translate(-45.116 -22.361)"/><path class="t" d="M1408.143,482.778c-2.106,4.612-9.614,1.98-9.614,1.98-1.843,28.695-29.222,25.01-37.91,15.532-2.738-2.98-4.581-7.972-5.823-13.416-8.635,2.107-14.69-8.4-12.342-14.353,1.822-4.592,7.245-3.065,10.088-1.885-.379-5.549-.347-9.573-.347-9.573l6.371-1.274,1.79-.706,31.328-5.918,7.108,16.585C1410.9,463.433,1410.249,478.176,1408.143,482.778Z" transform="translate(-36.988 -10.047)"/><path class="v" d="M1401.426,438.333c-1.975-8.161-13.163-3.291-13.163-3.291s-7.767-9.214-23.563-8.161-38.83-8.425-40.542-9.215,2.238,25.291,9.872,34.882c.7.88,2.37,1.536,4.7,2.012,1.339,3.578,5.372,13.266,10.87,16.521a143.934,143.934,0,0,1-1.084-15.548c14.518.545,35.091-1.275,39.742-2.327l4.87,15.137,3.29-6.137,2.874-1.13S1403.4,446.494,1401.426,438.333Z" transform="translate(-33.303 -2.849)"/><path class="w" d="M1407.516,749.027c-3.159.263-8.688-9.214-13.426-14.743s-58.971,8.161-102.145,4.738-50.02-28.432-38.174-41.595c6.76-7.519,19.282-9.857,28.77-10.478a89.317,89.317,0,0,1,12.541.032l3.265,13.637c1.411-.389,2.9-.737,4.5-1.042.116-.032.168-.042.168-.042a112.447,112.447,0,0,1,21.84-1.58c25.284.253,47.124,25.8,64.5,25.273,4.506-.136,13.163-3.422,14.743.264S1410.675,748.764,1407.516,749.027Z" transform="translate(-18.07 -57.389)"/><path class="x" d="M1408.8,747.41c.207-.078.406-.164.613-.242C1408.9,747.678,1408.7,747.73,1408.8,747.41Z" transform="translate(-50.533 -69.634)"/><path class="y" d="M1589.955,701.339a14.236,14.236,0,0,1-21.24,12.4,23.775,23.775,0,0,1-36.955,4.581,17.69,17.69,0,0,1-2.965.26,17.209,17.209,0,0,1-14.86-8.507,12.193,12.193,0,1,1,0-17.47,17.353,17.353,0,0,1,5.593-5.8,17.119,17.119,0,0,1,9.267-2.706,17.677,17.677,0,0,1,2.965.259,23.775,23.775,0,0,1,36.955,4.582,14.236,14.236,0,0,1,21.024,9.923v.009A13.727,13.727,0,0,1,1589.955,701.339Z" transform="translate(-67.653 -55.523)"/><path class="z" d="M1589.955,703.693a14.236,14.236,0,0,1-21.24,12.4,23.775,23.775,0,0,1-36.955,4.581,17.683,17.683,0,0,1-2.965.26,17.209,17.209,0,0,1-14.86-8.507,12.193,12.193,0,1,1,0-17.47,17.353,17.353,0,0,1,5.593-5.8c3.8-.009,6.509.864,11.454,4.469a195.724,195.724,0,0,1,17.28,14.687c-.069-.026-.605-.25-4.884-2.04-4.6-1.919-13.494-6.795-14.583-7.4a85.21,85.21,0,0,1,8.818,7.331c6.915,6.25,12.967,10.469,21.326,5,8.125-5.325,7.252-7.391,7.209-7.495.25.19,4.322,3.181,13.537,3.457,9.285.285,10.019-5.653,10.054-5.938A13.727,13.727,0,0,1,1589.955,703.693Z" transform="translate(-67.653 -57.876)"/><path class="k" d="M1554.264,754.859a32.07,32.07,0,0,1-47.848,27.94,53.591,53.591,0,0,1-83.265,10.321,39.545,39.545,0,0,1-6.682.579,38.812,38.812,0,0,1-33.481-19.156,27.464,27.464,0,1,1,0-39.367,38.757,38.757,0,0,1,40.163-18.568,53.581,53.581,0,0,1,83.265,10.313,32.083,32.083,0,0,1,47.848,27.939Z" transform="translate(-35.862 -60.33)"/><path class="aa" d="M1550.677,776.259a32.07,32.07,0,0,1-44.26,13.183,53.591,53.591,0,0,1-83.265,10.321,39.545,39.545,0,0,1-6.682.579,38.812,38.812,0,0,1-33.481-19.156,27.46,27.46,0,1,1-19.139-47.147c27.473,4.53,8.083,22.632,25.432,27.464s17.41,3.164,30.593,3.476,20.246,3.146,37.69,7.183,33.272-10.659,33.272-10.659-1.158,8.93-12.059,15.863-30.014,5.749-30.014,5.749c9.794,8.645,36.886,5.758,46.1-2.887s10.953-19.589,30.55-7.486C1532.4,777.054,1541.66,777.486,1550.677,776.259Z" transform="translate(-35.862 -66.973)"/><path class="ab" d="M1348.185,761.644a19.683,19.683,0,0,1-29.357,17.142,32.87,32.87,0,0,1-51.081,6.328,23.746,23.746,0,0,1-24.637-11.394,16.848,16.848,0,1,1,0-24.153,23.869,23.869,0,0,1,20.539-11.748,24.561,24.561,0,0,1,4.1.354,32.77,32.77,0,0,1,23.021-9.405c1.011,0,2.014.043,3,.139a32.864,32.864,0,0,1,25.061,15.6,19.671,19.671,0,0,1,29.357,17.134Z" transform="translate(-11.163 -65.905)"/><path class="ac" d="M1345.28,780.3a19.686,19.686,0,0,1-26.452,6.847,32.87,32.87,0,0,1-51.081,6.328,23.746,23.746,0,0,1-24.637-11.394A16.835,16.835,0,0,1,1214.523,770s6.976,9.734,16.191,8.87,9.284-3.051,10.978-4.4,4.581,4.607,8.039,7.382,5.1,2.5,5.1,2.5-4.807-4.876-4.807-8.2V772.82s4.322,11.237,25.355,16.139,39.186-2.965,42.073-7.106C1317.454,781.853,1336.23,791.716,1345.28,780.3Z" transform="translate(-11.163 -74.262)"/><path class="ad" d="M1338.972,744.546s-3.467,3.674-4.763,4.755-8.377-14.48-18.128-18.8a4.924,4.924,0,0,1-2.17-1.556A32.863,32.863,0,0,1,1338.972,744.546Z" transform="translate(-31.306 -65.941)"/><g transform="translate(1402.149 403.592)"><g transform="translate(16.048 9.672)"><circle class="ae" cx="1.536" cy="1.536" r="1.536"/><circle class="c" cx="1.086" cy="1.086" r="1.086" transform="translate(0.45 0.45)"/></g><circle class="af" cx="44.794" cy="44.794" r="44.794" transform="translate(12.84)"/><path class="ag" d="M1522.516,505.635c-.068.065-.132.12-.2.176-5.333,4.644-52.648-8.375-56.526-13.054-2.4-2.889,1.823-19.946,5.4-32.559,2.219-7.818,3.291-11.08,3.291-11.08s13.657,1.888,14.361,2.67,2.75,5.773,4.018,6.829,35.033,8.786,37.769,10.438c.517.316.731,1.635.7,3.615,0,.183,0,.379-.014.58C1531.052,482,1526.7,501.52,1522.516,505.635Z" transform="translate(-1464.095 -412.819)"/><g transform="translate(22.303 34.25)"><path class="ah" d="M1507.538,463.273c-.9.873-15.679.466-15.679.466-.038-.61-.076-3.633,0-6.943.083-4.353.368-9.209,1.1-9.745,1.3-.938,13.233-.345,14.713.033.707.181.915,3.7.84,7.413C1508.421,458.545,1508.006,462.809,1507.538,463.273Z" transform="translate(-1491.815 -446.548)"/><path class="ai" d="M1508.517,454.5a3.79,3.79,0,0,0-1.755-.643c-.762.141-1.7,1.574-2.454,1.794s-3.465-2.834-4.653-3.383c-.895-.407-5.571,2.9-7.79,4.532.083-4.353.368-9.209,1.1-9.745,1.3-.938,13.233-.345,14.713.033C1508.385,447.264,1508.592,450.783,1508.517,454.5Z" transform="translate(-1491.825 -446.548)"/><circle class="aj" cx="1.027" cy="1.027" r="1.027" transform="translate(10.893 3.743)"/></g><g transform="translate(34.788 30.933)"><path class="ak" d="M1531.972,472.877c-1.707,1.035-24.5-4.851-24.5-4.851.156-.959,1.174-5.667,2.46-10.777,1.677-6.726,3.846-14.163,5.172-14.735,2.347-.993,20.661,4.168,22.824,5.281,1.033.533.1,6.068-1.332,11.8C1535.024,465.853,1532.865,472.323,1531.972,472.877Z" transform="translate(-1507.473 -442.388)"/><path class="al" d="M1537.221,459.6a6.025,6.025,0,0,0-2.5-1.622c-1.232-.052-3.195,1.839-4.447,1.911-1.268.068-4.37-5.629-6.019-6.9-1.244-.95-9.679,2.526-13.7,4.266,1.677-6.726,3.846-14.163,5.172-14.735,2.347-.993,20.661,4.168,22.824,5.281C1539.587,448.327,1538.658,453.862,1537.221,459.6Z" transform="translate(-1508.098 -442.388)"/><circle class="aj" cx="1.636" cy="1.636" r="1.636" transform="translate(21.211 8.947)"/></g><path class="am" d="M1465.3,494.737c.025.09.051.171.077.252,2.166,6.732,49.4,20.027,55.142,18.025,3.547-1.233,8.743-18.02,12.193-30.669,2.138-7.84,2.907-11.188,2.907-11.188s-12.669-5.439-13.676-5.132-5.337,3.522-6.968,3.771-34.534-10.576-37.73-10.575c-.605,0-1.471,1.023-2.472,2.732-.092.159-.194.325-.288.5C1470.2,470.093,1463.843,489.055,1465.3,494.737Z" transform="translate(-1464.094 -414.867)"/><path class="an" d="M1519.271,519.069c-5.733,2.007-52.974-11.29-55.143-18.024-.027-.083-.049-.153-.073-.246a16.417,16.417,0,0,1,.169-6.056,9.411,9.411,0,0,0,.2,2.618c.024.092.046.163.073.246,2.169,6.733,49.4,20.027,55.143,18.024,3.543-1.227,8.744-18.016,12.195-30.661.957-3.515,1.644-6.126,2.095-7.941.278.124.435.19.435.19s-.766,3.348-2.9,11.19C1528.016,501.054,1522.815,517.842,1519.271,519.069Z" transform="translate(-1463.843 -418.476)"/><path class="ao" d="M1520.98,509.573c-5.741,2-52.974-11.291-55.142-18.024-.028-.083-.049-.154-.073-.246a9.383,9.383,0,0,1-.2-2.618l0-.009c1.315-8.088,5.754-20.419,9.008-26.218.094-.177.2-.347.291-.506,1-1.7,1.865-2.73,2.469-2.727,3.2,0,36.091,10.823,37.732,10.576s5.958-3.474,6.966-3.776c.766-.232,8.582,2.24,12.172,3.543a1.6,1.6,0,0,1,1,1.915c-.514,1.93-1.279,4.673-2.029,7.43C1529.724,491.557,1524.524,508.346,1520.98,509.573Z" transform="translate(-1464.189 -414.867)"/></g><g transform="translate(1527.789 514.039)"><circle class="b" cx="1.789" cy="1.789" r="1.789"/><circle class="c" cx="1.265" cy="1.265" r="1.265" transform="translate(0.524 0.524)"/></g><g class="ap" transform="translate(1322.766 600.343) rotate(-3)"><path class="aq" d="M11.333,21.983h-5.7L8.164,6.8a2.421,2.421,0,0,1,2.4-2.024H25.636L24.91,9.242h4.841L31.291,0H10.562A7.174,7.174,0,0,0,3.477,6.007L0,26.736H10.54Z" transform="translate(0 0)"/><path class="aq" d="M75.3,73.009l-3.829-5.765-.858-1.364-.22,1.254-.968,5.831H65.9L68.211,59.3h2.729L75.1,65.659l.616,1.078.154-.946,1.1-6.447h3.521L78.179,73.009Z" transform="translate(-51.399 -46.251)"/></g></g></svg>