<svg xmlns="http://www.w3.org/2000/svg" xmlns:xlink="http://www.w3.org/1999/xlink" width="728.068" height="683.315" viewBox="0 0 728.068 683.315"><defs><style>.a{fill:#f1f8e7;}.b{fill:#1533a0;opacity:0.1;}.c{opacity:0.35;fill:url(#a);}.d{fill:#42375b;}.e{fill:#ededef;}.f{fill:#4ccfd8;}.g{fill:#00c951;}.h{opacity:0.08;}.i{fill:#2b2f42;}.j{fill:#c9cdd3;}.k{fill:#30303f;}.l{fill:#191923;}.m{fill:#db7767;}.n{fill:#4b2a57;}.o{fill:#fff;}.p{fill:#b75046;}</style><radialGradient id="a" cx="0.5" cy="0.5" r="0.378" gradientUnits="objectBoundingBox"><stop offset="0" stop-color="#294454"/><stop offset="1" stop-color="#294454" stop-opacity="0"/></radialGradient></defs><ellipse class="a" cx="22.219" cy="22.306" rx="22.219" ry="22.306" transform="translate(683.63 606.557)"/><path class="a" d="M31.741,0A31.866,31.866,0,1,1,0,31.865,31.8,31.8,0,0,1,31.741,0Z" transform="translate(479.201 21.244)"/><ellipse class="b" cx="109.915" cy="6.633" rx="109.915" ry="6.633" transform="translate(438.088 670.05)"/><g transform="translate(48.451)"><path class="c" d="M304.079,0C472.017,0,608.158,136.672,608.158,305.265S472.017,610.531,304.079,610.531,0,473.859,0,305.265,136.141,0,304.079,0Z"/><rect class="d" width="464.28" height="302.399" rx="10.847" transform="translate(139.576 128.876)"/><rect class="e" width="95.224" height="27.617" rx="13" transform="translate(264.637 176.322)"/><rect class="f" width="105.805" height="27.617" rx="13" transform="translate(191.631 224.12)"/><rect class="g" width="317.415" height="27.617" rx="13" transform="translate(191.631 269.793)"/><rect class="f" width="105.805" height="27.617" rx="13" transform="translate(249.824 318.653)"/><rect class="e" width="158.707" height="27.617" rx="13" transform="translate(384.196 318.653)"/><rect class="g" width="52.902" height="27.617" rx="13" transform="translate(191.631 176.322)"/><ellipse class="e" cx="4.509" cy="4.527" rx="4.509" ry="4.527" transform="translate(153.49 139.272)"/><ellipse class="e" cx="4.509" cy="4.527" rx="4.509" ry="4.527" transform="translate(168.908 139.272)"/><ellipse class="e" cx="4.509" cy="4.527" rx="4.509" ry="4.527" transform="translate(184.326 139.272)"/><g class="h" transform="translate(207.406 376.81)"><g transform="translate(166.813)"><path class="i" d="M487.905,874.992l2.9-293.044-2.332-.2-2.906,293.24Z" transform="translate(-485.571 -581.753)"/></g><g transform="translate(0 276.949)"><path class="i" d="M516.586,844.826h-188.5l-.172-2.336h188.5Z" transform="translate(-327.91 -842.489)"/></g><g transform="translate(0.468 229.833)"><path class="i" d="M517.028,800.468h-188.5l-.172-2.336h188.5Z" transform="translate(-328.352 -798.131)"/></g><g transform="translate(0.934 182.718)"><path class="i" d="M517.469,756.111h-188.5l-.172-2.336H517.3Z" transform="translate(-328.792 -753.774)"/></g><g transform="translate(1.4 135.603)"><path class="i" d="M517.909,711.754H329.4l-.172-2.336h188.5Z" transform="translate(-329.233 -709.418)"/></g><g transform="translate(1.868 88.487)"><path class="i" d="M518.351,667.4h-188.5l-.172-2.336h188.5Z" transform="translate(-329.675 -665.06)"/></g><g transform="translate(2.334 41.372)"><path class="i" d="M518.792,623.039h-188.5l-.172-2.336h188.5Z" transform="translate(-330.116 -620.703)"/></g><g transform="translate(15.835)"><path class="i" d="M345.21,874.992l2.9-293.044-2.332-.2-2.906,293.24Z" transform="translate(-342.876 -581.753)"/></g></g><g transform="translate(183.098 359.965)"><g transform="translate(0 0)"><g transform="translate(164.284)"><rect class="f" width="311.025" height="2.226" transform="translate(0 309.952) rotate(-85.236)"/></g><g transform="translate(0 276.946)"><rect class="f" width="188.505" height="2.336"/></g><g transform="translate(3.929 229.831)"><rect class="f" width="188.505" height="2.336"/></g><g transform="translate(7.859 182.716)"><rect class="f" width="188.505" height="2.336"/></g><g transform="translate(11.789 135.6)"><rect class="f" width="188.505" height="2.336"/></g><g transform="translate(15.719 88.485)"><rect class="f" width="188.505" height="2.336"/></g><g transform="translate(19.65 41.369)"><rect class="f" width="188.505" height="2.336"/></g></g><g transform="translate(13.306 0)"><rect class="f" width="311.025" height="2.226" transform="translate(0 309.952) rotate(-85.236)"/></g></g><path class="e" d="M412.164,503.14l-.023.023a.04.04,0,0,1,.012-.023Z" transform="translate(-115.614 -209.83)"/></g><g transform="translate(434.411 309.634)"><rect class="j" width="76.997" height="50.746" transform="matrix(0.977, -0.215, 0.215, 0.977, 51.83, 122.16)"/><path class="k" d="M670.46,873.294l6.982-17.814s-45.963-66.293-46.545-68.922-15.709-48.186-15.709-48.186c-2.036,19.566-14.545,53.15-14.545,53.15,9.4,18.738,9.891,33.141,7.564,43.468a46.62,46.62,0,0,1-9.31,19.029c-3.49,4.673,0,28.619,0,28.619H576.545l12.753-7.008s-.582-9.929-6.69-50.23c-3.27-21.576-5.294-39.892-5.888-55.791v-.035c-.5-13.785.058-25.746,1.816-36.458,1.605-9.824,4.433-24.2,7.156-37.475,1.967-9.66,3.886-18.749,5.225-25.057.244-1.167.477-2.231.675-3.189.745-3.469,1.2-5.537,1.2-5.537A119.062,119.062,0,0,1,603.8,646.778c11.275-13.06,28.4-25.664,37.281,3.691.826,2.722,1.606,5.549,2.351,8.458,11.915,46.351,14.231,113.322,14.231,113.322s9.891,4.965,17.163,25.407a78.3,78.3,0,0,1,4.2,26.692v.023a75.976,75.976,0,0,1-1.291,13.878l8.727,14.894Z" transform="translate(-492.031 -511.418)"/><path class="l" d="M598.349,666.91,585.189,693.6c1.967-9.66,3.886-18.748,5.225-25.057.244-1.167.477-2.231.675-3.189Z" transform="translate(-491.529 -509.378)"/><path class="m" d="M573.018,537.668s.97,16.549,8.728,21.221,10.472,3.31,10.472,3.31,2.134,11.681,2.716,11.681,4.848-4.477,6.012-5.451-1.552-20.831-1.552-20.831,6.013.584,5.818-7.594-7.758,1.363-7.758,1.363l-4.266-1.947Z" transform="translate(-492.235 -517.378)"/><path class="n" d="M593.967,540.55A31.991,31.991,0,0,1,567.2,542.3c-14.932-5.646-5.623-19.664,8.34-22.584s21.332,0,26.763,2.92c0,0,8.533-5.451,12.024,1.753s6.174,26.476-13.2,32.026l-.954-7.689s4.5-.284,5.547-4.572-3.608-6.04-6.614-1.464C599.106,542.693,596.585,543.666,593.967,540.55Z" transform="translate(-493.015 -518.509)"/><path class="m" d="M523.05,612.92s-9.495-1.969-13.486-7.519,10.276-2.507,13.486,1.611S523.05,612.92,523.05,612.92Z" transform="translate(-495.959 -513.294)"/><path class="o" d="M650.3,662.164s-1.4.316-3.758.865c-7.611,1.74-25.25,5.771-38.458,8.679-6.121,1.344-11.286,2.454-14.056,2.978-1,.187-1.688.3-2,.327-3.688.292-1.71-4.38-1.71-4.38l-7.215-29.5-60.217-25.992v-3.212l10.473,2.044S545,609.013,557.8,612.962s18.619,5.1,20.654-3.073,13.381-32.416,19.4-37.871l6-5.444A114.488,114.488,0,0,1,626.158,583.9l.012.012c9.879,10.21,12.206,13.423,12.788,15.759s-3.2,16.331-3.2,16.331,8.145,33.9,11.054,39.156A52.672,52.672,0,0,1,650.3,662.164Z" transform="translate(-495.145 -515.52)"/><path class="j" d="M0,0,31.162.026l.026,31.248L.026,31.248Z" transform="translate(12.051 55.385) rotate(22.681)"/><path class="m" d="M565.264,670.606s4.278-5.77,9.173-2.653,1.942,9.781,1.942,9.781-8.56,1.6-11.061,1.387S565.264,670.606,565.264,670.606Z" transform="translate(-492.748 -509.274)"/><path class="e" d="M598.662,670.438c-6.12,1.344-5.165,1.11-7.935,1.635-1,.187-1.688.3-2,.327-3.688.292-1.71-4.38-1.71-4.38l-7.215-29.5,10.182,3.212s10.182-29.788,10.764-33c.361-1.963,1.792,21.19,2.863,39.53C604.177,658.207,598.535,668.089,598.662,670.438Z" transform="translate(-491.842 -512.906)"/><path class="e" d="M630.092,614.985l-9.6-32.1.012.012c9.879,10.21,12.206,13.423,12.788,15.759S630.092,614.985,630.092,614.985Z" transform="translate(-489.48 -514.506)"/><path class="l" d="M599.573,786.486c9.4,18.738,9.891,33.141,7.564,43.468,2.424-20.4-14.255-46.1-11.927-49.892s11.636-66.5,11.636-66.5l7.272,19.777C612.082,752.9,599.573,786.486,599.573,786.486Z" transform="translate(-490.96 -506.381)"/><path class="p" d="M591.164,560.805l4.266-1.7-2.308,11.216Z" transform="translate(-491.182 -515.985)"/></g><g transform="translate(272.475 184.878)"><path class="k" d="M474.293,740.451s-20.945,4.965-21.527,3.5-2.618-18.4-2.618-18.4a23.268,23.268,0,0,1-4.5-3.878,40.5,40.5,0,0,1-9.169-16.565c-4.364-14.894-4.945-37.089-4.945-37.089-18.037-4.965-38.109-20.443-38.109-20.443s-3.491,32.709-6.981,45.418c-.885,3.213-2.432,8.961-4.295,15.829v.023c-5.481,20.267-13.6,50.3-14.906,53.794-1.745,4.673-1.454,17.522-1.454,17.522l8.436,4.673-17.455,4.088s.873-7.885,1.746-15.478-7.272-20.734-8.436-36.5a37,37,0,0,1,.931-10.841,64.231,64.231,0,0,1,9.25-20.7S349.5,683.5,348.041,660.14s2.619-56.948,2.619-56.948l4.654-6.132,48.72-2.3,6.982-.327s23.26,32.58,36.094,51.831l.023.023c4.771,7.149,8.088,12.452,8.251,13.562.582,4.088.582,56.948.582,60.16s3.491,16.354,3.491,16.354Z" transform="translate(-343.377 -389.032)"/><path class="l" d="M410.457,604.643l-30.54-7.091L403.19,589.9Z" transform="translate(-341.508 -389.314)"/><path class="l" d="M444.151,646.263,398.713,597.27l2.362-2.511,6.982-.327S431.317,627.012,444.151,646.263Z" transform="translate(-340.417 -389.032)"/><path class="o" d="M481.514,416.979c0,8.469-6.982,60.743-8.437,64.248-.675,1.635-11.915,12.978-24.1,25.641-.07.059-.14.129-.21.2a.846.846,0,0,0-.093.105c-13.94,14.473-29.02,30.559-30.871,35.675-3.491,9.637-1.454,63.956-1.454,63.956l-14.44,1.67L350.9,614.4l3.491-20.735s-10.473-4.965-10.764-7.592c-.116-1.052.8-7.453,2.3-15.5,2.28-12.172,5.922-28.105,9.425-35.021,5.818-11.483,27.519-19.274,27.519-19.274l3.515-5.257,6.934.841,9.157,1.109a15.135,15.135,0,0,0,13.638-4.275.04.04,0,0,1,.012-.023h.012c.361-.351.722-.724,1.081-1.132,6.691-7.57,24.437-19.883,31.418-26.307s11.055-13.434,12.509-29.2,12.508-22.779,14.836-26.284S481.514,408.509,481.514,416.979Z" transform="translate(-343.616 -400.235)"/><path class="m" d="M408.718,488.177c-3.781,13.831-11.823,13.3-12.963,13.165l-.128-.023s4.271,8.084,5.038,8.667c.326.245-2.559.818-6.236,1.414-5.166.865-11.892,1.776-13.371,1.893l-1.139-13.434-5.038-36.41,23.947-1.262S412.791,473.283,408.718,488.177Z" transform="translate(-341.801 -397.255)"/><path class="p" d="M393.829,509.108a23.487,23.487,0,0,1-2.921-2.523,37.63,37.63,0,0,1-5.679-7.558h9.8s4.271,8.084,5.038,8.667C400.391,507.94,397.506,508.512,393.829,509.108Z" transform="translate(-341.2 -394.964)"/><path class="n" d="M391.561,476.388S406.882,468.017,403,457.7c0,0,4.654-4.283-.969-11.1s-38.205,11.292-35.1,22.39c0,0-8.486,5.208-4.412,19.81s13.972,17.439,21.309,16.024,12.58-2.444,10.254-20.063c0,0-.323,1.575-3.231,2.062s-7.023-4.957-6.441-9.047S389.137,472.105,391.561,476.388Z" transform="translate(-342.583 -398.317)"/><path class="e" d="M414.682,537.408c-3.491,9.637-1.454,63.956-1.454,63.956l-14.44,1.67c-.7-10.968-2.793-48.793.185-59.494,3.48-12.51,38.947-34.04,46.58-41.807C431.613,516.206,416.533,532.292,414.682,537.408Z" transform="translate(-340.492 -394.796)"/><path class="l" d="M391.812,645.182s-3.491,32.709-6.981,45.418c-.885,3.213-2.432,8.961-4.295,15.829,2.665-19.952-8.215-77.015-4.142-73.219S391.812,645.182,391.812,645.182Z" transform="translate(-341.767 -386.632)"/><path class="l" d="M441.047,717.371a40.5,40.5,0,0,1-9.169-16.565c-4.364-14.894-4.945-37.089-4.945-37.089s7.08,2.594,9.267,2.594-.735,15.318,1.01,31.088C438.41,708.239,441.024,714.578,441.047,717.371Z" transform="translate(-338.779 -384.724)"/><path class="l" d="M364.827,706.118s-10.147,7.078-13.986,13.468c0,.012-.012.012-.012.023a64.232,64.232,0,0,1,9.251-20.7Z" transform="translate(-343.197 -382.536)"/><path class="e" d="M360.5,545.767l-6.109,39.717s-10.473-4.965-10.764-7.592c-.116-1.052.8-7.453,2.3-15.5l.012-.035Z" transform="translate(-343.616 -392.058)"/><path class="e" d="M413.173,503.217c-.943,1-9.891,10.2-16.489,7.523a15.438,15.438,0,0,1-3.328-1.893c3.677-.6,6.562-1.169,6.236-1.414A15.131,15.131,0,0,0,413.173,503.217Z" transform="translate(-340.728 -394.704)"/><path class="m" d="M474.3,417.8s2.618-9.346,1.454-15.186-4.072,6.62-4.072,6.62-3.879-.39-3.879,2.726S474.3,417.8,474.3,417.8Z" transform="translate(-336.406 -401.056)"/></g><ellipse class="a" cx="14.813" cy="14.87" rx="14.813" ry="14.87" transform="translate(0 267.337)"/></svg>