<svg xmlns="http://www.w3.org/2000/svg" xmlns:xlink="http://www.w3.org/1999/xlink" width="680.195" height="602.696" viewBox="0 0 680.195 602.696"><defs><style>.a{fill:#f1f8e7;}.b{fill:url(#a);}.c{fill:#be6f72;}.d{fill:#3f3d56;}.e{fill:#65617d;}.f,.h,.j,.p{opacity:0.1;}.g{fill:#e3e8f4;}.i,.p{fill:#00d857;}.j{fill:#fff;}.k{fill:url(#b);}.l{fill:#f86d70;}.m{fill:#fbbebe;}.n{fill:#444053;}.o{fill:#e8e8f0;}</style><linearGradient id="a" x1="0.5" y1="1" x2="0.5" gradientUnits="objectBoundingBox"><stop offset="0" stop-color="gray" stop-opacity="0.251"/><stop offset="0.54" stop-color="gray" stop-opacity="0.122"/><stop offset="1" stop-color="gray" stop-opacity="0.102"/></linearGradient><linearGradient id="b" x1="0" y1="0.5" x2="1" y2="0.5" xlink:href="#a"/></defs><g transform="translate(54.811 75.424)"><path class="a" d="M459.355,359.351C400.575,366.2,337.27,387.539,283.936,412.9c-34.411,16.364-69.247,37.678-92.207,68.845-35.176,47.749-21.638,103.311,17.7,143.683C260.122,677.454,335.724,703.362,406.2,712.8c45.231,6.06,91.417,6.175,136.551-.815,47.178-7.305,98.827-14.761,132.6-51.905,29.83-32.806,46.976-76.528,60.374-118.164,12.175-37.833,18.255-82.071-2.423-118.167-17.393-30.362-49.8-47.428-82.367-56.895C589.532,349.005,522.165,352.025,459.355,359.351Z" transform="translate(415.204 919.203) rotate(-150)"/><path class="b" d="M827.969,345.632a4.93,4.93,0,0,0-2.3-1.175c-.883-.236-1.785-.384-2.683-.549l-11.628-1.949a11.818,11.818,0,0,0-3.561-.22,4.356,4.356,0,0,0-3.1,1.867,3.1,3.1,0,0,0-.538,1.757,5.161,5.161,0,0,0,.529,1.823,6.686,6.686,0,0,1,.288.807q.167.931.416,1.839a1.617,1.617,0,0,0,.2.362.681.681,0,0,1,0,.093c-.128.758.283,1.548.1,2.278-.161.626-.685,1-1.015,1.526a2.609,2.609,0,0,0-.047,2.531c.354.637,1,1.071,1.181,1.8a3.268,3.268,0,0,1-.992,2.63,40.424,40.424,0,0,0-2.957,4.332,2.926,2.926,0,0,0-.472,1.29c-.052.955.737,1.8.6,2.745a2.843,2.843,0,0,1-1.28,1.647,9.485,9.485,0,0,0-3.779,6.8,25.861,25.861,0,0,0-4.572-12.078,8.916,8.916,0,0,1-1.7-3.091c-.1-.478-.123-.988-.265-1.449-.472-1.455-1.974-2.081-2.631-3.42-.472-.944-.472-2.158-1.058-2.987s-1.507-1.016-2.012-1.817a12.677,12.677,0,0,1-.642-1.691,3.625,3.625,0,0,0-.874-1.219,2.583,2.583,0,0,0-.217-.181.941.941,0,0,0,.25-.648c0-.642-.548-1.065-1.025-1.384-.614-.406-1.214-.845-1.8-1.3a4.413,4.413,0,0,0,1.611-1.532,5.71,5.71,0,0,0,.614-3.294,4.558,4.558,0,0,0-.845-2.52c-.3-.368-.671-.631-.982-.977a8.642,8.642,0,0,1-1.417-3.525c-.444-1.647-1.138-3.376-2.432-4.249-.623-.423-1.351-.62-1.96-1.065a2.1,2.1,0,0,1-.907-2.092,5.187,5.187,0,0,1,.878-1.395,3.074,3.074,0,0,0-.6-3.843c-.349-.258-.779-.483-.85-.955a1.661,1.661,0,0,1-1.1-1.351,6.035,6.035,0,0,1,0-1.955q.184-1.532.364-3.053a1.491,1.491,0,0,0,1.313,0,13.416,13.416,0,0,0,1.417,2.152,22.579,22.579,0,0,1,3.306,6.671,4.149,4.149,0,0,0,1.242,2.328c.241.159.515.242.751.412a3.094,3.094,0,0,1,.737.878c.567.873,1.133,1.74,1.7,2.613l.028.132a.846.846,0,0,0,.076.22.6.6,0,0,0,.406.242c1.738.467,3.689.895,5.2-.209,1.36-.988,1.955-2.943,3.108-4.249.817-.928,1.974-1.647,2.206-2.954a7.649,7.649,0,0,1-.812-.346c.236-.274.472-.593.793-.955a11.4,11.4,0,0,0,1.256-1.74,12.2,12.2,0,0,0,.945-2.46q1.365-4.524,2.739-9.053c.435-1.427.869-2.866,1.417-4.255.567-1.5,1.237-2.948,1.856-4.425a65.283,65.283,0,0,0,3.675-12.024,5.079,5.079,0,0,0,.146-1.751,4.736,4.736,0,0,0-1.341-2.372,10.347,10.347,0,0,0-2.012-1.938,2.919,2.919,0,0,0-2.522-.472c-1.209.412-1.97,1.85-2.248,3.294a40.083,40.083,0,0,0-.293,4.392c-.17,2.114-.794,4.156-.945,6.275-.08,1.224,0,2.465-.128,3.689a14.92,14.92,0,0,1-1.417,4.546,29.028,29.028,0,0,1-6.107,8.751c-.288.28-.586.549-.869.851a6.069,6.069,0,0,1,.061-.714,3.38,3.38,0,0,0-.6.247,2.416,2.416,0,0,0-.071-.824c-.378-1.312-2.059-1.647-2.362-2.981a7.061,7.061,0,0,1-.08-1c-.1-1.169-.784-2.158-1.02-3.294a16.149,16.149,0,0,0-.472-3.168,8.576,8.576,0,0,0-1.256-1.647,6.86,6.86,0,0,1-1.195-2.619c-.061-.269-.118-.549-.184-.818a4.316,4.316,0,0,0-.17-1.806c-.43-1.241-1.54-2.037-1.941-3.294-.312-.977-.175-2.2-.765-2.954a2.723,2.723,0,0,0-1.119-.785,22.056,22.056,0,0,0-6.74-1.85c-1.294-.137-2.721-.214-3.646-1.274-1.082-1.23-1.134-3.442-2.4-4.392-1.115-.84-2.692-.22-3.556.961a5.236,5.236,0,0,0-.359.549,6.807,6.807,0,0,1-.1-2.251c0-.187.033-.379.047-.549a9.833,9.833,0,0,0,5.12-4.7v.033l.057.17c.137.4.354.785.675.829h0a.869.869,0,0,0,.586-.247,5.148,5.148,0,0,0,.784-.791q.179-.231.34-.478a6.507,6.507,0,0,0,.557-1.1,7.334,7.334,0,0,0,.472-1.839c.085-.637.095-1.29.189-1.927a13.388,13.388,0,0,1,.345-1.455c.047-.159.094-.318.137-.478s.1-.373.151-.549a14.63,14.63,0,0,0,.472-3.481v-.593a6.245,6.245,0,0,0-1.587-4.09c-.812-.774-1.889-1.1-2.484-2.147a11.406,11.406,0,0,1-.7-2.432,5.053,5.053,0,0,0-3.712-3.882,3.724,3.724,0,0,0-2.938.939h0l-.066.06h0a5.3,5.3,0,0,0-1.171,1.515,3.8,3.8,0,0,1-1.663-1.1c-.472-.511-.836-1.153-1.313-1.647a3.034,3.034,0,0,0-3.363-.824,4.522,4.522,0,0,0-2.4,3.2c-.26,1.131-.213,2.432-.756,3.376-.42.736-1.11,1.1-1.592,1.768a3.585,3.585,0,0,0-.6,1.466h0a4.59,4.59,0,0,0-.08.917h0a1.932,1.932,0,0,0,.028.406v.066a3.322,3.322,0,0,0,.08.445h0a4.065,4.065,0,0,0,.7,1.5,3.172,3.172,0,0,0,1.138.955,4.164,4.164,0,0,0,.548.2l.562.148.2.055a12.551,12.551,0,0,0-.265,9.668c0,.154-.033.307-.047.461a44.09,44.09,0,0,0,.246,6.473,3.963,3.963,0,0,1-.345,2.465,4.3,4.3,0,0,1-.685.708c.255-.384.515-.763.779-1.142a3.033,3.033,0,0,0-2.664-.8,11.134,11.134,0,0,0-5.2,1.845c-1.058.708-2.144,1.647-3.353,1.482-.713-.093-1.417-.549-2.111-.329a4.2,4.2,0,0,0-1.082.747,1.327,1.327,0,0,1-.888.318,20.1,20.1,0,0,0-2.777-2.641,24.363,24.363,0,0,1-2.763-3.442c-1.53-2.147-3.056-4.3-4.558-6.467-1.266-1.823-2.565-3.794-2.787-6.127a6.974,6.974,0,0,1-.033-.7A20.491,20.491,0,0,1,721,262.11a1.9,1.9,0,0,0,0-.8,1.4,1.4,0,0,0-1.152-.873h0c.061-.423.1-.857.128-1.268.264-4.722-.024-9.52.836-14.143a10.358,10.358,0,0,1,1.96-4.87c1.724-2.026,4.61-2.514,5.932-4.914a6.316,6.316,0,0,0-.723-6.588,6.619,6.619,0,0,0-5.564-2.394,2.574,2.574,0,0,0-1.62.505,4.105,4.105,0,0,0-.982,1.735l-2.026,5.726a38.347,38.347,0,0,0-1.483,4.6c-.567,2.4-.694,4.941-1.143,7.368,0,1.867-1.034,4.195-1.6,5.913-.633,1.933-1.318,3.843-1.889,5.814-.142.494-.638,1.96-.945,3.294a1.777,1.777,0,0,0-.321.28,10.174,10.174,0,0,0-.671,1.158c-.43.659-1.129,1.01-1.6,1.647s-.571,1.806.085,2.125a1.7,1.7,0,0,0,.411.1,1.394,1.394,0,0,1,.255.049c.708.231.987,1.268.883,2.125s-.472,1.647-.534,2.5a7.428,7.428,0,0,0,1.374,4.2,36.39,36.39,0,0,0,2.522,3.947c.666.867,1.417,1.647,2.088,2.482,2.555,3.053,4.586,6.621,6.882,9.937a21,21,0,0,0,2.8,3.415,21.3,21.3,0,0,0,2.121,1.7l3.949,2.91a4.091,4.091,0,0,0,1.492.818,1.709,1.709,0,0,0,.529,0c.023.137.042.269.071.406a27.221,27.221,0,0,1,1.058,4.211c.076,1.466-.038,2.965.052,4.447.085,1.367.345,2.745.411,4.09a30.272,30.272,0,0,1-.945,7.686c-.8,3.711-1.28,7.5-2.834,10.865a7.051,7.051,0,0,0-.945,2.932,1.761,1.761,0,0,0,.028.384h0l-.708.467c-.208.137-.416.275-.6.417a5.551,5.551,0,0,0-2.224,2.608c-.3.95-.161,2.037-.52,2.959-.017.041-.036.082-.057.121-.378.856-1.129,1.493-1.3,2.432h0c-.128.719.118,1.482,0,2.2v.027a9.016,9.016,0,0,0-.255,1.1,1.526,1.526,0,0,0,.028.362,2.169,2.169,0,0,0,.567,1.071,3.946,3.946,0,0,0,.553.511q.3.231.623.428l.123.077c.179.11.359.214.543.313l.123.06c.213.11.43.209.647.3l.151.055c.17.066.345.126.519.176l.118.044.109.027.472.115.175.038q.312.06.638.1h.189c.161,0,.316.027.472.033h.864a4.572,4.572,0,0,0,.666-.071h.071c.2-.033.4-.071.6-.121l.151-.038c.184-.049.368-.1.553-.165l.1-.033c.222-.077.444-.159.661-.258a16.514,16.514,0,0,0,2.182-1.257c.472-.3.945-.609,1.417-.889a10.283,10.283,0,0,1,1.077-.549,5.329,5.329,0,0,1,2.834-.549,9.744,9.744,0,0,1,1.417.335q0,.091,0,.181.576,3.953,1.138,7.906a13.617,13.617,0,0,1,1.955-1.367,5.753,5.753,0,0,0-.25,1.235,5.688,5.688,0,0,0,0,.983,2.449,2.449,0,0,1-.132,1.51c-.165.253-.472.4-.562.681a2.692,2.692,0,0,0-.047.895,1.344,1.344,0,0,1-1.124,1.329,2.273,2.273,0,0,1-.713,2.449,2.5,2.5,0,0,0-.548.417,2.063,2.063,0,0,0-.316.829,15.239,15.239,0,0,1-3.7,7.066,12.966,12.966,0,0,0-1.828,2.075,10.1,10.1,0,0,0-.827,1.894q-1.889,5.369-3.835,10.744a26.754,26.754,0,0,0-1.644,6.2c-.567,5.918-5.1,10.936-4.251,16.811a8.972,8.972,0,0,0,1.474,4.013,8.6,8.6,0,0,0,3.778,2.7,61.236,61.236,0,0,0,11.307,3.453l6.008,1.433a22.9,22.9,0,0,0,3.58.659,20.235,20.235,0,0,1,4.35.384,12.03,12.03,0,0,0,2.612.807c.775.049,1.729-.143,2.187.593s.1,1.707.538,2.361c.7,1.038,2.4,0,3.165.977a4.944,4.944,0,0,1,.472,1.213,2.175,2.175,0,0,0,.472.692,5.386,5.386,0,0,1,.057.939,18.49,18.49,0,0,1-.68,3.744q-.85,3.344-1.7,6.693a16.886,16.886,0,0,0-.472,2.416,6.746,6.746,0,0,0,0,1.2,3.314,3.314,0,0,0,1.7,2.86,2.727,2.727,0,0,0,2.3-.329,10.208,10.208,0,0,0,1.889-1.482,14.233,14.233,0,0,0,2.725-3.261c2.362-4.107,1.6-9.663,3.254-14.2,1.1-3.031,3.245-5.49,3.958-8.685a4.019,4.019,0,0,0,.057-1.878,3.513,3.513,0,0,0-2.243-2.119h-.042a17.327,17.327,0,0,0-2.362-.785c-.2-.049-.4-.088-.6-.126a4.3,4.3,0,0,1-1.044-1.581,4.156,4.156,0,0,0-.222-.95.83.83,0,0,0-.68-.439c-.472-.055-1.105.143-1.62.1-1.053-.088-1.752-1.29-2.7-1.845a4.791,4.791,0,0,0-2.976-.335,2.381,2.381,0,0,1-1.077-.077,4.09,4.09,0,0,1-1.134-.906,4.24,4.24,0,0,0-4.161-.972,4.009,4.009,0,0,1-1.417.373c-.921-.06-1.573-1.016-2.253-1.74-1.861-1.982-4.511-2.5-6.768-3.8a1.637,1.637,0,0,1-.812-.813c-.26-.747.326-1.493.855-2l3.882-3.75c4.251-4.107,9.564-7.2,11.539-13.22a8.224,8.224,0,0,1,.945-2.256,2.822,2.822,0,0,1,.524-.549,3.519,3.519,0,0,1,2.9-.659,9.177,9.177,0,0,1,3.419,1.735q2.536,1.784,4.936,3.843a45.809,45.809,0,0,1,4.511,4.3c2.48,2.745,4.544,6,6.853,8.96s4.95,5.721,8.157,7.137,7.085,1.356,9.838-1.021c3.179-2.745,4.2-7.653,5-12.155,1.771-1.987,2.3-5.013,3.169-7.686.543-1.7,1.237-3.294,1.823-4.985.7-1.987,1.247-4.041,1.795-6.089a33.347,33.347,0,0,0,1.256-6.352c.227-3.42-.562-7.06.265-10.272a29.959,29.959,0,0,0,3.155-1.411,13.531,13.531,0,0,1,5-.5h.109a2.3,2.3,0,0,0,1.663-.456,3.4,3.4,0,0,0,.685-2.339C829.438,349.354,829.324,346.993,827.969,345.632ZM759.536,251.98a3.033,3.033,0,0,1-1.195.1Z" transform="translate(-386.71 -169.973)"/><path class="c" d="M801.781,323.254a5.005,5.005,0,0,1-1.965,1.213l-3.349,1.395c-1.818.758-3.717,1.521-5.635,1.246-1.072-.154-5.668-.939-6.362-1.911-1.058-1.5,2.65-3.717,3.915-4.985a5.706,5.706,0,0,0,.793-.813,3.772,3.772,0,0,0,.345-2.454,43.983,43.983,0,0,1-.246-6.462,15.032,15.032,0,0,1,.189-1.532c.472-2.525,2.494-1.6,4.09-.933a29.847,29.847,0,0,1,5.55,2.795,4.207,4.207,0,0,1,1.37,1.351c.7,1.23.42,2.844.307,4.392a4.659,4.659,0,0,0,.553,3.228,7.942,7.942,0,0,1,.893,1.1A2.3,2.3,0,0,1,801.781,323.254Z" transform="translate(-427.094 -206.516)"/><path class="c" d="M718.181,248.014c.472-2.432.576-4.941,1.143-7.351a38.077,38.077,0,0,1,1.483-4.584l2.083-5.649a4.085,4.085,0,0,1,.982-1.729,2.607,2.607,0,0,1,1.62-.505,6.676,6.676,0,0,1,5.564,2.388,6.245,6.245,0,0,1,.723,6.55c-1.322,2.4-4.208,2.882-5.932,4.9a10.341,10.341,0,0,0-1.96,4.859c-.86,4.612-.571,9.394-.836,14.1-.085,1.466-.331,3.14-1.417,3.9a3.643,3.643,0,0,1-2.116.478l-3.1.06c-.519,0-2.4.379-2.749-.077-.6-.8.775-4.76,1.025-5.644.557-1.96,1.242-3.871,1.889-5.8C717.147,252.2,718.181,249.875,718.181,248.014Z" transform="translate(-389.752 -170.844)"/><path class="d" d="M841.138,574.393c-.713,3.173-2.857,5.644-3.958,8.669-1.658,4.529-.912,10.069-3.254,14.165a14.208,14.208,0,0,1-2.725,3.267,10.175,10.175,0,0,1-1.889,1.477,2.727,2.727,0,0,1-2.3.329,3.312,3.312,0,0,1-1.7-2.855,6.7,6.7,0,0,1,0-1.191,16.833,16.833,0,0,1,.472-2.41q.85-3.333,1.7-6.676a18.453,18.453,0,0,0,.68-3.733c.061-1.384-.694-3.184-.373-4.475a8.324,8.324,0,0,1,.945-1.587,10.052,10.052,0,0,0,.812-2.245,15.4,15.4,0,0,1,1.464-4.458,9.719,9.719,0,0,1,1.842-2,4.749,4.749,0,0,1,1.757-1.147,3.72,3.72,0,0,1,1.889.1,16.58,16.58,0,0,1,2.362.78h.043a3.469,3.469,0,0,1,2.243,2.114A3.992,3.992,0,0,1,841.138,574.393Z" transform="translate(-448.735 -324.743)"/><path class="d" d="M937.056,447.548a3.358,3.358,0,0,1-.685,2.333,2.3,2.3,0,0,1-1.662.456h-.128a13.778,13.778,0,0,0-5,.5c-1.214.467-2.328,1.323-3.594,1.493-1.743.231-3.382-.878-4.926-1.845a46.341,46.341,0,0,0-4.473-2.471c-1-.478-3.046-.785-3.528-2.059q-.248-.9-.416-1.834a6.661,6.661,0,0,0-.288-.807,5.165,5.165,0,0,1-.529-1.817,3.1,3.1,0,0,1,.538-1.757,4.36,4.36,0,0,1,3.094-1.85,11.818,11.818,0,0,1,3.561.22l11.628,1.944a23.816,23.816,0,0,1,2.683.549,4.93,4.93,0,0,1,2.3,1.175C937.014,443.117,937.127,445.473,937.056,447.548Z" transform="translate(-494.399 -265.394)"/><path class="e" d="M839.578,454.947c-1.417,3.475-.4,7.587-.652,11.431a33.176,33.176,0,0,1-1.256,6.336c-.548,2.042-1.1,4.09-1.795,6.072-.586,1.647-1.28,3.294-1.823,4.974-.864,2.679-1.417,5.693-3.169,7.686-.8,4.491-1.823,9.4-5,12.122a9.228,9.228,0,0,1-9.838,1.021c-3.226-1.433-5.847-4.178-8.157-7.137s-4.374-6.182-6.853-8.938a45.07,45.07,0,0,0-4.52-4.3q-2.4-2.026-4.936-3.81a9.243,9.243,0,0,0-3.42-1.729,3.518,3.518,0,0,0-2.9.659,2.821,2.821,0,0,0-.524.549,8.123,8.123,0,0,0-.945,2.251c-1.984,6.006-7.307,9.092-11.557,13.187l-3.882,3.739c-.529.511-1.115,1.257-.855,2a1.637,1.637,0,0,0,.812.813c2.258,1.3,4.907,1.817,6.768,3.794.68.725,1.332,1.68,2.253,1.735a4,4,0,0,0,1.417-.368A4.251,4.251,0,0,1,782.9,508a4.088,4.088,0,0,0,1.134.906,2.38,2.38,0,0,0,1.077.077,5,5,0,0,1,2.975.335c.9.522,1.644,1.751,2.7,1.839.515.044,1.129-.154,1.62-.1a.83.83,0,0,1,.68.439,4.113,4.113,0,0,1,.222.944c.194.774.845,1.246,1.271,1.883a5.887,5.887,0,0,1,.68,3.541,16.2,16.2,0,0,1-4.137,10.113,4.978,4.978,0,0,1-2.546,1.647,2.251,2.251,0,0,1-2.522-1.3,4.9,4.9,0,0,0-.472-1.208c-.76-.972-2.466.06-3.165-.977-.434-.648-.123-1.685-.538-2.355s-1.417-.549-2.187-.587a12.341,12.341,0,0,1-2.612-.807,20.259,20.259,0,0,0-4.35-.384,22.9,22.9,0,0,1-3.58-.659l-6.008-1.427a63.371,63.371,0,0,1-11.307-3.442,7.54,7.54,0,0,1-5.252-6.7c-.855-5.858,3.679-10.865,4.251-16.767a26.39,26.39,0,0,1,1.644-6.182q1.922-5.358,3.835-10.722a10.266,10.266,0,0,1,.8-1.9,12.929,12.929,0,0,1,1.828-2.07,15.182,15.182,0,0,0,3.7-7.049,2.061,2.061,0,0,1,.317-.829,2.646,2.646,0,0,1,.548-.412,2.272,2.272,0,0,0,.713-2.443,1.344,1.344,0,0,0,1.124-1.329,2.659,2.659,0,0,1,.047-.889c.113-.286.4-.428.562-.681a2.434,2.434,0,0,0,.132-1.5,5.694,5.694,0,0,1,0-.983,5.412,5.412,0,0,1,1.266-3.069c1.129-1.29,2.735-.955,4.293-1.263A22.213,22.213,0,0,0,776.175,450a39.413,39.413,0,0,1,12.8-3.442,24.475,24.475,0,0,1,12.932,2.394,7.159,7.159,0,0,1,1.667,1.1,3.6,3.6,0,0,1,.874,1.213,12.31,12.31,0,0,0,.642,1.686c.505.8,1.459,1.06,2.012,1.817s.6,2.037,1.058,2.976c.657,1.34,2.177,1.96,2.631,3.415.142.461.161.966.265,1.444a8.523,8.523,0,0,0,1.7,3.085,25.746,25.746,0,0,1,4.572,12.078,9.409,9.409,0,0,1,3.778-6.786,2.682,2.682,0,0,0,1.28-1.614c.137-.944-.652-1.784-.6-2.745a2.93,2.93,0,0,1,.472-1.285,40.285,40.285,0,0,1,2.957-4.321,3.237,3.237,0,0,0,.992-2.624c-.184-.73-.826-1.158-1.181-1.8a2.6,2.6,0,0,1,.047-2.526c.331-.522.855-.9,1.016-1.521.184-.73-.227-1.521-.1-2.273a2.8,2.8,0,0,1,.973-1.466,8.1,8.1,0,0,1,2.111-1.614,6.974,6.974,0,0,1,3.958-.132c2.21.357,4.69.906,5.937,3.058A5.918,5.918,0,0,1,839.578,454.947Z" transform="translate(-407.142 -269.28)"/><path class="f" d="M937.04,447.548a3.358,3.358,0,0,1-.685,2.333,2.3,2.3,0,0,1-1.662.456h-.128c.194-1.142,1.389-1.8,1.6-2.954a2.911,2.911,0,0,0-.519-1.993,8.468,8.468,0,0,0-4.251-3.107,24.432,24.432,0,0,0-14.2-1.235,12.878,12.878,0,0,0-3.731,1.334,12.35,12.35,0,0,0-1.134.933,5.163,5.163,0,0,1-.529-1.817,3.1,3.1,0,0,1,.538-1.757,4.36,4.36,0,0,1,3.094-1.85,11.818,11.818,0,0,1,3.561.22l11.628,1.944a23.812,23.812,0,0,1,2.683.549,4.93,4.93,0,0,1,2.3,1.175C937,443.117,937.111,445.473,937.04,447.548Z" transform="translate(-494.384 -265.394)"/><path class="f" d="M841.138,575.195c-.713,3.173-2.857,5.644-3.958,8.669-1.658,4.529-.912,10.069-3.254,14.165A14.206,14.206,0,0,1,831.2,601.3a10.173,10.173,0,0,1-1.889,1.477,2.727,2.727,0,0,1-2.3.329,3.312,3.312,0,0,1-1.7-2.855,6.7,6.7,0,0,1,0-1.191l.028.088c.411,1.153,1.082,2.361,2.14,2.564a2.664,2.664,0,0,0,2.182-.895c1.559-1.455,2.465-3.624,3.33-5.715a26.2,26.2,0,0,0,1.6-4.738c.189-.933.279-1.889.472-2.822.9-4.535,3.953-8.235,4.629-12.831a3.638,3.638,0,0,0,.038-.961,5.343,5.343,0,0,0-.406-1.2,6.645,6.645,0,0,1-.359-1.329,3.468,3.468,0,0,1,2.243,2.114,3.992,3.992,0,0,1-.076,1.861Z" transform="translate(-448.735 -325.545)"/><path class="f" d="M810.483,537.76a8,8,0,0,1-2.13,3.382,9.72,9.72,0,0,1-4.586,2.306,3.949,3.949,0,0,1-2.362-.033c-1.048-.423-1.8-1.565-2.876-1.894a16.976,16.976,0,0,0-2.361-.159c-1.393-.225-2.475-1.46-3.6-2.449-3.443-3.009-7.963-3.98-11.406-6.989a1.17,1.17,0,0,1-.368-.445,1.523,1.523,0,0,1-.071-.62,14.356,14.356,0,0,1,1.034-5.276,18.7,18.7,0,0,1,1.946-3.223,94.022,94.022,0,0,1,9.876-12.523,14.787,14.787,0,0,1,5.2-3.706c1.086-.39,3.231-.758,4.553-.1a2.824,2.824,0,0,0-.524.549,8.12,8.12,0,0,0-.945,2.251c-1.988,6.012-7.311,9.1-11.562,13.193l-3.882,3.739c-.529.51-1.115,1.257-.855,2a1.637,1.637,0,0,0,.812.813c2.258,1.3,4.907,1.817,6.768,3.794.68.725,1.332,1.68,2.253,1.735a4,4,0,0,0,1.417-.368,4.251,4.251,0,0,1,4.161.966,4.089,4.089,0,0,0,1.134.906,2.381,2.381,0,0,0,1.077.077,5,5,0,0,1,2.976.335c.9.522,1.644,1.751,2.7,1.839C809.378,537.9,809.992,537.694,810.483,537.76Z" transform="translate(-425.212 -295.983)"/><path class="d" d="M746.891,411.907a5.5,5.5,0,0,0-2.22,2.591c-.3.95-.161,2.037-.524,2.959s-1.181,1.565-1.36,2.553c-.128.719.123,1.477,0,2.2a10.737,10.737,0,0,0-.26,1.142,2.444,2.444,0,0,0,1.148,1.938,8.451,8.451,0,0,0,8.582,1.1,37.052,37.052,0,0,0,3.608-2.147,6.358,6.358,0,0,1,3.887-1.1c.779.1,1.526.428,2.3.549a2.2,2.2,0,0,0,2.159-.747,3.418,3.418,0,0,0,.472-1.3,22.511,22.511,0,0,0-.265-9.24c-.623-3.031-1.568-5.946-2.234-8.96a46.367,46.367,0,0,0-1.625-6.638c-.789-2.114-2.116-4.079-3.972-4.886a.649.649,0,0,0-.472-.071.823.823,0,0,0-.307.264,17.626,17.626,0,0,0-3.24,6.336c-.742,2.63-.945,5.419-1.625,8.06a8.873,8.873,0,0,1-1.417,3.409A16.159,16.159,0,0,1,746.891,411.907Z" transform="translate(-405.059 -244.643)"/><path class="f" d="M764.713,421.593a3.476,3.476,0,0,1-.5,1.3,2.182,2.182,0,0,1-2.158.741c-.775-.11-1.521-.445-2.3-.549a6.345,6.345,0,0,0-3.887,1.1c-1.209.7-2.362,1.576-3.613,2.141a8.284,8.284,0,0,1-5.729.379,8.652,8.652,0,0,1-2.834-1.449,2.391,2.391,0,0,1-1.148-1.938,10.635,10.635,0,0,1,.26-1.136c.123-.719-.123-1.477,0-2.2.18-.988,1-1.647,1.36-2.558s.222-2,.52-2.954a5.525,5.525,0,0,1,2.225-2.6,16.92,16.92,0,0,0,2.683-2.009,3.122,3.122,0,0,0,.25-.406,10.776,10.776,0,0,0,1.124-3.025c.694-2.646.883-5.43,1.62-8.065a17.655,17.655,0,0,1,3.245-6.33.735.735,0,0,1,.3-.264.661.661,0,0,1,.472.066c1.851.813,3.179,2.778,3.972,4.892a48.787,48.787,0,0,1,1.625,6.632c.661,3.014,1.611,5.94,2.234,8.965A22.611,22.611,0,0,1,764.713,421.593Z" transform="translate(-405.069 -244.611)"/><path class="f" d="M806.365,316.553c-4.6,1.7-9.56-.905-11.505-6.039a15.029,15.029,0,0,1,.189-1.532c.472-2.526,2.494-1.6,4.09-.933a29.855,29.855,0,0,1,5.55,2.794,4.209,4.209,0,0,1,1.37,1.351C806.757,313.408,806.479,315.022,806.365,316.553Z" transform="translate(-432.675 -206.53)"/><ellipse class="c" cx="9.446" cy="10.98" rx="9.446" ry="10.98" transform="translate(361.391 88.03)"/><path class="f" d="M825.525,450.358c0,.911-1.063,1.2-1.851,1.153-2.834-.192-5.606-1.1-8.412-.824-3.547.373-6.806,2.652-10.362,2.86a27.048,27.048,0,0,0-4.114.137c-1.748.379-3.306,1.614-5.087,1.79-1.544.154-3.07-.522-4.615-.45A6.654,6.654,0,0,0,788,456.046a5.412,5.412,0,0,1,1.266-3.069c1.129-1.29,2.735-.955,4.293-1.263a22.212,22.212,0,0,0,4.534-1.685,39.415,39.415,0,0,1,12.8-3.442,24.47,24.47,0,0,1,12.927,2.377,7.158,7.158,0,0,1,1.667,1.1.99.99,0,0,1,.033.3Z" transform="translate(-429.056 -269.291)"/><path class="g" d="M786.769,336.281l-3.826-1.647-1.615-.692a6.966,6.966,0,0,0-2.059-.637c-1.851-.165-3.594,1.268-4.581,3.1a18.714,18.714,0,0,0-1.677,6.133q-.652,4.359-1.105,8.751a66.287,66.287,0,0,0-.5,7.983,108.832,108.832,0,0,0,2.706,20.116,81.048,81.048,0,0,1,1.507,8.922c.113,1.241.165,2.487.279,3.733.123,1.4.321,2.784.52,4.173l1.138,7.889a8.338,8.338,0,0,1,4.77-2.256c1.545-.066,3.075.6,4.615.45,1.771-.17,3.339-1.406,5.087-1.784a26.387,26.387,0,0,1,4.119-.137c3.552-.209,6.815-2.493,10.358-2.86,2.81-.3,5.6.626,8.417.818.784.055,1.847-.236,1.847-1.153,0-.637-.548-1.06-1.025-1.378a51.427,51.427,0,0,1-6.4-5.309,23.633,23.633,0,0,1-5.03-5.787c-3.084-5.573-2.026-13.111-4.657-18.991-2.14-4.776,0-11.035,0-16.421a39.374,39.374,0,0,0-.543-8.01A37.862,37.862,0,0,0,797.85,337l-1.837-5.408a.917.917,0,0,0-.217-.412.653.653,0,0,0-.42-.148,4.035,4.035,0,0,0-3.051,1.137c-.864.818-1.417,1.993-2.267,2.844C789.126,335.952,787.927,336.775,786.769,336.281Z" transform="translate(-420.301 -217.221)"/><path class="d" d="M811.723,330.331a10.664,10.664,0,0,1,1.492-4.244c.864-1.175,2.442-1.8,3.557-.955,1.266.955,1.318,3.162,2.4,4.392.945,1.054,2.362,1.136,3.646,1.274a21.9,21.9,0,0,1,6.74,1.845,2.711,2.711,0,0,1,1.119.78c.59.78.472,1.976.765,2.948.4,1.252,1.511,2.048,1.941,3.294.472,1.384,0,2.932-.4,4.354-.713,2.553-1.162,5.2-1.856,7.769a18.28,18.28,0,0,1-3.306,7.022c-.718.856-1.785,1.647-2.73,1.136l-.364,3.047a6,6,0,0,0,0,1.949,1.661,1.661,0,0,0,1.1,1.351c.071.472.5.7.85.955a2.814,2.814,0,0,1,.991,1.776,3.1,3.1,0,0,1-.391,2.067,5.07,5.07,0,0,0-.879,1.389,2.081,2.081,0,0,0,.907,2.086c.614.439,1.337.642,1.96,1.065,1.294.867,1.988,2.575,2.432,4.233a8.46,8.46,0,0,0,1.417,3.519c.312.346.685.609.982.972a4.57,4.57,0,0,1,.845,2.52,5.671,5.671,0,0,1-.614,3.294c-.945,1.57-2.706,2.037-4.251,2.745-2.508,1.2-4.572,3.338-6.782,5.161a6.846,6.846,0,0,1-3.094,1.691c-1.53.236-3.037-.549-4.577-.62a9.876,9.876,0,0,0-2.73.417l-2.834.714c.151-2.553-1.058-5.111-1.733-7.543a43.313,43.313,0,0,1-1.209-14.275,128.692,128.692,0,0,1,1.974-14.242c.581-3.294.524-6.736,1.417-9.937.836-3.08,2.031-6.039,2.47-9.245C813.7,339.845,810.713,335.448,811.723,330.331Z" transform="translate(-439.082 -214.389)"/><path class="d" d="M854.464,352.77a6.709,6.709,0,0,1,.543,1.784,6.838,6.838,0,0,0,1.2,2.613,8.721,8.721,0,0,1,1.256,1.647,14.136,14.136,0,0,1,.472,3.162c.236,1.136.921,2.125,1.02,3.294a6.98,6.98,0,0,0,.08,1c.307,1.329,1.989,1.647,2.362,2.976.25.862-.18,1.8-.1,2.707a2.763,2.763,0,0,1,.043.856,1.728,1.728,0,0,1-.538.8,13.277,13.277,0,0,0-3.108,6.429,42.329,42.329,0,0,0-.713,7.428l-1.847-2.838a3.092,3.092,0,0,0-.737-.878c-.236-.165-.51-.247-.751-.412a4.1,4.1,0,0,1-1.242-2.317,22.469,22.469,0,0,0-3.306-6.654,7.542,7.542,0,0,1-1.79-3.393,7.25,7.25,0,0,1,.085-1.834c.472-3.6.978-7.28,2.484-10.47.7-1.493,1.615-2.844,2.291-4.359C852.617,353.308,853.255,350.694,854.464,352.77Z" transform="translate(-460.337 -226.676)"/><path class="d" d="M734.239,328a2.833,2.833,0,0,1-.293,1.318,1.372,1.372,0,0,1-1.492.549,4.078,4.078,0,0,1-1.492-.813q-1.974-1.449-3.948-2.9a22.054,22.054,0,0,1-2.121-1.691,20.964,20.964,0,0,1-2.8-3.409c-2.3-3.294-4.326-6.868-6.882-9.882-.694-.824-1.417-1.614-2.088-2.476a36.3,36.3,0,0,1-2.522-3.942,7.381,7.381,0,0,1-1.374-4.189c.076-.857.43-1.647.534-2.5s-.175-1.889-.883-2.119a1.4,1.4,0,0,0-.255-.049,1.7,1.7,0,0,1-.411-.1c-.657-.318-.557-1.5-.085-2.119s1.171-.966,1.6-1.647a10.148,10.148,0,0,1,.671-1.158,2.44,2.44,0,0,1,1.1-.642,14.742,14.742,0,0,1,8.384-.368,1.419,1.419,0,0,1,1.152.873,1.864,1.864,0,0,1,0,.791,20.408,20.408,0,0,0-.359,3.294,6.742,6.742,0,0,0,.033.692c.222,2.328,1.521,4.3,2.787,6.116,1.5,2.163,3.028,4.31,4.558,6.451a24.273,24.273,0,0,0,2.763,3.431,16.594,16.594,0,0,1,2.9,2.816c.6.944.406,2.234.472,3.371A86.951,86.951,0,0,1,734.239,328Z" transform="translate(-386.705 -198.458)"/><path class="c" d="M882.054,368.212a11.277,11.277,0,0,0,1.256-1.729,12.4,12.4,0,0,0,.945-2.454L886.994,355c.434-1.427.869-2.86,1.417-4.249.567-1.5,1.237-2.943,1.856-4.392a65.078,65.078,0,0,0,3.67-11.941,5.11,5.11,0,0,0,.146-1.751,4.719,4.719,0,0,0-1.341-2.366,10.318,10.318,0,0,0-2.012-1.933,2.918,2.918,0,0,0-2.522-.472c-1.209.412-1.97,1.85-2.248,3.294a39.842,39.842,0,0,0-.293,4.392c-.17,2.108-.793,4.145-.945,6.259-.08,1.224,0,2.46-.128,3.678a14.886,14.886,0,0,1-1.417,4.54,29.06,29.06,0,0,1-6.107,8.729,10.671,10.671,0,0,0-1.833,2.048,7.335,7.335,0,0,0-.883,2.558,6.761,6.761,0,0,0,.383,4.156,5.18,5.18,0,0,0,3.66,2.536C880.306,370.545,880.746,369.787,882.054,368.212Z" transform="translate(-474.537 -215.76)"/><path class="d" d="M800.265,271.862a4.3,4.3,0,0,1,4.279-2.7,5.052,5.052,0,0,1,3.712,3.876,11.177,11.177,0,0,0,.7,2.427c.586,1.06,1.672,1.367,2.484,2.136a6.232,6.232,0,0,1,1.587,4.085,14.2,14.2,0,0,1-.628,4.617,16.554,16.554,0,0,0-.472,1.933c-.094.637-.1,1.285-.189,1.922a6.485,6.485,0,0,1-2.168,4.156.868.868,0,0,1-.586.247c-.368-.049-.6-.549-.732-1-.751-2.52-.571-5.6-1.955-7.609a7.351,7.351,0,0,0-2.239-1.938,2.654,2.654,0,0,0-1.143-.5,2.765,2.765,0,0,0-1.653.7,9.641,9.641,0,0,1-3.268,1.68,3.587,3.587,0,0,1-3.377-.845A17.647,17.647,0,0,0,792.765,283a12.851,12.851,0,0,0-2.191-.8,3.657,3.657,0,0,1-1.866-2.5,4.265,4.265,0,0,1,.553-3.25c.472-.659,1.171-1.032,1.592-1.762.543-.944.5-2.24.756-3.371a4.486,4.486,0,0,1,2.4-3.19,3.033,3.033,0,0,1,3.363.818c.472.494.85,1.131,1.313,1.647a3.426,3.426,0,0,0,3.5,1.1" transform="translate(-429.371 -188.762)"/><path class="f" d="M829.054,420.669a2.369,2.369,0,0,0-.5,2.328c.1.258,4.978-.834,5.493-.917,1.285-.214,3.538-.11,4.4-1.477,1.54-2.421-3.231-1.883-4.1-1.8C832.681,418.973,830.32,419.236,829.054,420.669Z" transform="translate(-450.395 -256.76)"/><path class="d" d="M721.06,291.544a20.406,20.406,0,0,0-.359,3.294,7.227,7.227,0,0,1-4.251-.763l-3.906-1.548a1.014,1.014,0,0,0-1.493.324,37.134,37.134,0,0,1-2.362,3.047,1.7,1.7,0,0,1-.411-.1c-.656-.318-.557-1.5-.085-2.119s1.171-.966,1.6-1.647a10.179,10.179,0,0,1,.671-1.158,2.441,2.441,0,0,1,1.1-.642,14.742,14.742,0,0,1,8.383-.368,1.419,1.419,0,0,1,1.152.873A1.86,1.86,0,0,1,721.06,291.544Z" transform="translate(-386.742 -198.458)"/><path class="f" d="M721.06,291.544a20.406,20.406,0,0,0-.359,3.294,7.227,7.227,0,0,1-4.251-.763l-3.906-1.548a1.014,1.014,0,0,0-1.493.324,37.134,37.134,0,0,1-2.362,3.047,1.7,1.7,0,0,1-.411-.1c-.656-.318-.557-1.5-.085-2.119s1.171-.966,1.6-1.647a10.179,10.179,0,0,1,.671-1.158,2.441,2.441,0,0,1,1.1-.642,14.742,14.742,0,0,1,8.383-.368,1.419,1.419,0,0,1,1.152.873A1.86,1.86,0,0,1,721.06,291.544Z" transform="translate(-386.742 -198.458)"/><path class="f" d="M801.048,481.374a2.435,2.435,0,0,1,1.648,1.438l-5.469-1.614-2.834-.84c-.5-.148-2.3-.318-2.626-.774-.472-.67,1.2-.209,1.507-.159.916.159,1.833.324,2.744.516C797.737,480.3,799.39,480.886,801.048,481.374Z" transform="translate(-430.999 -284.057)"/><path class="f" d="M803.244,489.753c-.472-.368-1.828-.324-2.409-.483-.85-.236-1.686-.549-2.522-.851-1.7-.642-3.377-1.373-5.12-1.845-.321-.082-1.417-.1-1.365-.576s1.1-.637,1.356-.659c1.544-.132,3.471.708,4.907,1.307A20.739,20.739,0,0,1,803.244,489.753Z" transform="translate(-431.074 -286.808)"/><path class="f" d="M801.051,471.217c-1.733-.549-3.306-1.8-5.091-2.042a1.544,1.544,0,0,1-1.719-1.34,7.833,7.833,0,0,1,3.67,1.071,11.108,11.108,0,0,1,1.719,1.065C800.026,470.251,800.621,471.058,801.051,471.217Z" transform="translate(-432.348 -278.918)"/><path class="d" d="M872.079,384.46c-.606,4.718,1.86,9.238,5.791,10.612-.231,1.3-1.389,2.02-2.206,2.948-1.152,1.3-1.748,3.25-3.108,4.238-1.516,1.1-3.467.67-5.2.209a.61.61,0,0,1-.406-.247.738.738,0,0,1-.076-.214,16.327,16.327,0,0,1-.359-7.467,26.033,26.033,0,0,1,2.513-5.677C869.94,387.029,870.025,385.064,872.079,384.46Z" transform="translate(-470.334 -241.32)"/><path class="d" d="M764.611,327.105a11.076,11.076,0,0,0-5.2,1.839c-1.058.7-2.144,1.647-3.353,1.477-.713-.093-1.417-.549-2.111-.329a4.065,4.065,0,0,0-1.081.747,1.089,1.089,0,0,1-1.19.22l-.472,7.6a32.315,32.315,0,0,0,.241,8.653,27.325,27.325,0,0,1,1.058,4.205c.076,1.46-.038,2.959.052,4.436.085,1.367.345,2.712.411,4.079a29.889,29.889,0,0,1-.945,7.648c-.8,3.7-1.28,7.483-2.834,10.832a7.053,7.053,0,0,0-.945,2.926,1.73,1.73,0,0,0,.028.384c-.472.3-.912.587-1.313.884a5.524,5.524,0,0,0-2.225,2.6c-.3.95-.161,2.037-.52,2.954s-1.181,1.57-1.36,2.558c-.128.719.118,1.477,0,2.2a10.623,10.623,0,0,0-.26,1.136,2.415,2.415,0,0,0,1.148,1.938,8.652,8.652,0,0,0,2.834,1.449l2.82-13.012h0a114.569,114.569,0,0,0,6.39-17.278,41.1,41.1,0,0,1,1.847-5.688,28.6,28.6,0,0,0,1.417-3.228,27.884,27.884,0,0,0,.68-4.343,34.452,34.452,0,0,1,1.11-5.013,24.367,24.367,0,0,0,1.2-5.369c.156-2.646-.671-5.441.208-7.889a10.756,10.756,0,0,1,1.441-2.52c1.219-1.735,2.328-3.552,3.547-5.287A2.955,2.955,0,0,0,764.611,327.105Z" transform="translate(-405.095 -215.446)"/><g class="h" transform="translate(359.242 81.293)"><path d="M816.656,271.81l-.59.049-.066.055A3.028,3.028,0,0,0,816.656,271.81Z" transform="translate(-803.073 -271.81)"/><path d="M813.021,289.652a16.876,16.876,0,0,1-.6,3.206,16.579,16.579,0,0,0-.472,1.933c-.094.637-.1,1.285-.189,1.922a6.486,6.486,0,0,1-2.168,4.156.868.868,0,0,1-.586.247c-.368-.049-.6-.549-.732-1-.751-2.52-.572-5.6-1.955-7.609a7.353,7.353,0,0,0-2.239-1.938,2.653,2.653,0,0,0-1.143-.5,2.765,2.765,0,0,0-1.653.7,9.641,9.641,0,0,1-3.268,1.68,3.587,3.587,0,0,1-3.377-.845,17.659,17.659,0,0,0-1.852-2.053,12.852,12.852,0,0,0-2.191-.8,3.629,3.629,0,0,1-1.842-2.449,1.811,1.811,0,0,1-.038-.209,4.451,4.451,0,0,0,.038,1.856,3.629,3.629,0,0,0,1.842,2.449,14.35,14.35,0,0,1,2.192.8,19.388,19.388,0,0,1,1.852,2.053,3.587,3.587,0,0,0,3.377.845,9.642,9.642,0,0,0,3.268-1.68,2.765,2.765,0,0,1,1.653-.7,2.654,2.654,0,0,1,1.143.5,7.387,7.387,0,0,1,2.206,1.954c1.384,2.009,1.2,5.089,1.955,7.609.137.456.364.95.732,1a.87.87,0,0,0,.619-.264,6.487,6.487,0,0,0,2.173-4.173c.085-.637.095-1.285.189-1.922a16.543,16.543,0,0,1,.472-1.933,14.2,14.2,0,0,0,.628-4.617C813.039,289.806,813.03,289.729,813.021,289.652Z" transform="translate(-788.631 -278.255)"/></g><path class="i" d="M703.925,372.81l-.321,5.013a117.525,117.525,0,0,1-9.423,35.829c-7.085,16.245-20.871,37.4-46.9,49.3q-3.046,1.4-6.324,2.613l-2.437-8.894a83.623,83.623,0,0,0,17.579-8.938c13.267-8.905,23.582-21.615,30.776-37.97a113.67,113.67,0,0,0,8.076-27.616H665.338V372.81Z" transform="translate(-350.176 -236.066)"/><path class="j" d="M646.584,462.962c26.024-11.892,39.816-33.045,46.9-49.291a117.29,117.29,0,0,0,9.423-35.829l.321-5.013h3.306l-.321,5.013a117.364,117.364,0,0,1-9.423,35.829c-7.085,16.245-20.871,37.4-46.9,49.291q-3.046,1.4-6.329,2.619l-.321-1.169Q644.95,463.7,646.584,462.962Z" transform="translate(-352.667 -236.075)"/><path class="i" d="M466.925,456.667l-2.437,8.894q-3.283-1.219-6.329-2.619c-26.024-11.892-39.816-33.045-46.9-49.291a117.287,117.287,0,0,1-9.423-35.829l-.321-5.013h38.569v9.333H410.47a113.709,113.709,0,0,0,8.1,27.616c7.193,16.355,17.5,29.065,30.771,37.965a83.435,83.435,0,0,0,17.584,8.943Z" transform="translate(-225.114 -236.066)"/><path class="j" d="M461.206,462.962c-26.024-11.892-39.816-33.045-46.9-49.291a117.287,117.287,0,0,1-9.423-35.829l-.321-5.013H401.26l.321,5.013A117.363,117.363,0,0,0,411,413.671c7.085,16.245,20.871,37.4,46.9,49.291q3.046,1.4,6.329,2.619l.321-1.169Q462.844,463.7,461.206,462.962Z" transform="translate(-224.976 -236.075)"/><path class="i" d="M584.031,628.934v50.329H494.92V628.934l2.834-4.392c28.877-11.914,34.729-42.983,35.9-55.275q.26-2.548.3-5.117h11.019q.037,2.566.3,5.117c1.186,12.292,7.037,43.372,35.9,55.275Z" transform="translate(-274.4 -322.357)"/><rect class="f" width="89.111" height="6.314" transform="translate(220.52 306.578)"/><path class="j" d="M502.477,624.542c28.877-11.914,34.729-42.983,35.9-55.275q.26-2.548.3-5.117h-4.723q-.037,2.566-.3,5.117c-1.186,12.293-7.037,43.373-35.9,55.275l-2.834,4.392v50.329h4.723V628.934Z" transform="translate(-274.4 -322.357)"/><path class="f" d="M466.26,372.81h7.991v9.333h-7.283Q466.539,377.532,466.26,372.81Z" transform="translate(-259.276 -236.066)"/><path class="f" d="M520.354,518.2l-2.437,8.894q-3.282-1.219-6.329-2.619a100.675,100.675,0,0,1-8.818-15.219,83.429,83.429,0,0,0,17.584,8.943Z" transform="translate(-278.542 -297.602)"/><path class="f" d="M638.51,518.208a83.623,83.623,0,0,0,17.579-8.938,101.077,101.077,0,0,1-8.818,15.224q-3.046,1.4-6.324,2.613Z" transform="translate(-350.171 -297.607)"/><path class="f" d="M703.317,372.81q-.279,4.722-.708,9.333H695.33V372.81Z" transform="translate(-380.154 -236.066)"/><path class="f" d="M588.574,569.267a26.349,26.349,0,0,1-11.614,0q.26-2.548.3-5.117h11.019Q588.313,566.716,588.574,569.267Z" transform="translate(-317.692 -322.357)"/><path class="i" d="M468.26,344.65c.2,69.209,25.708,125.176,57.149,125.176s56.942-55.967,57.149-125.176Z" transform="translate(-260.332 -223.366)"/><path class="j" d="M478.415,344.65H468.26c.2,69.209,25.708,125.176,57.149,125.176a26.671,26.671,0,0,0,5.077-.5C501.421,463.683,478.608,410.093,478.415,344.65Z" transform="translate(-260.332 -223.366)"/><rect class="d" width="60.611" height="18.118" transform="translate(234.77 325.843)"/><path class="j" d="M499.924,595.971H557.7V593.5H497.09v18.118h2.834Z" transform="translate(-262.32 -267.657)"/><path class="k" d="M283.075,392c-1.091-.423-7.514-6.33-8-9s3.4-27.583,3.4-27.583a7.525,7.525,0,0,1-.945-.082v-.4l.8-32.721s3.273-21.961-2.909-20.682-2.3,20.682-2.3,20.682-.7,9.849-1.2,12.8c-.472,2.849-2.635,14.456-1.162,18.063q.081.192.179.373h0s.246,12.38-2.423,14.071c-2.546,1.609-3.6,9.707-3.693,10.431l-.137-.066h0a7.95,7.95,0,0,1-1.97-2.092c-.057-.082-.1-.17-.151-.258a13.553,13.553,0,0,0-.279-16.4,10.718,10.718,0,0,0-2.924-2.482,8.848,8.848,0,0,0-.628-3.031c-1.228-3.053-8.029-7.044-12.861-7.137-2.229-.077-4.057.659-4.723,2.685a17.869,17.869,0,0,0-.378,3.261,8.455,8.455,0,0,1-3.056,5.282,20.824,20.824,0,0,0-2.036-2.278,49.929,49.929,0,0,1-4.723-6.039s-9.819-11.82-10.547-15.06-10.537-22.691-12.719-19.3,7.514,18.151,7.514,18.151,1.842,5.364,3.259,7.176,12.28,20.149,12.28,20.149l.52,1.252c-2.3,1.405-4.392,3.2-5.134,5.984-1.086,4.107,1.289,8.235,2.933,12.078,3.2,7.5,3.66,17.063-.472,23.915-3.7,6.05-10.126,8.927-16.139,11.442a14.492,14.492,0,0,0,10.2,3.936c-1.389,4.678-6.31,6.226-10.5,7.093,2.2,2.46,5.351,3.354,8.374,3.9a21.674,21.674,0,0,0,4.482.412h.368l.368-.033a11.133,11.133,0,0,0,1.526-.225,8.054,8.054,0,0,0,5.417-4.14c.945-1.916,1.275-4.529,2.99-5.49a3.388,3.388,0,0,1,1.417-.39H238l7.146.082h.912c2.017-.055,4.171-.461,5.2-2.4a7.537,7.537,0,0,0,.647-3.047c.151-2.63,0-5.336.061-7.988.609,4.826,1.247,12.347-.269,15.125a24.774,24.774,0,0,1-4.43,5.584,9.374,9.374,0,0,0-1.171,1.394c-.231.192-.368.3-.368.3l-.146.511a10.542,10.542,0,0,0-1.152,3.107,2.488,2.488,0,0,0-.09.884c.165.39-1.181,2-.789,2.674-3.363,4.584-4,11.529-4,11.529l-6.14,10.838c-3.155,9.635-7.878,10.624-7.878,10.624s-11.095-8.652-11.4-9.075a40.556,40.556,0,0,0-4.544-2.536,5.164,5.164,0,0,0-2.182-2.317c-1.455-.7-1.578-3.294-1.578-3.294-.179-6.122-3.273-6.588-3.273-6.588a8.866,8.866,0,0,0-5.861,1.213l-.444.038c-2.144.2-4.723.428-7.557.648-7.883.6-9.758,6.539-9.758,6.539a2.031,2.031,0,0,0,.3,2.641c1.271,1.373,9.4,0,9.748-.033a4.567,4.567,0,0,1-1.851-.148c1.28-.055,3.042-.11,4.544-.11h.364a26.52,26.52,0,0,0-.137,2.789c0,1.757,4.18,2.882,4.18,2.882l12.729,13.176s8,4.156,13.092,10.135,9.593.818,9.593.818c5.389-1.548,20.895-23.339,20.909-23.361h0c0,.637.326,21.829.945,26.084h0a3.207,3.207,0,0,0,.137.631c.727,1.828-.246,6.824-.666,8.933a28.775,28.775,0,0,0-.307,5.347s-5.814,25.8-5.332,28.071-3.15,12.8-3.15,12.8v8.784l.633-.038q-.123.212-.227.439l-.043.093a23.282,23.282,0,0,0,6.485.7c2.607-.28,7.085,2.333,7.085,2.333s1.516.834,6.183,1.186,4.666-2.394,4.666-2.394c-.534-3.739-7.906-4.991-8.133-5.029-.6-.434-1.152-.906-1.611-1.312l-.094-.088a2.63,2.63,0,0,0,.08-.253c.789-3.733-3.575-5.353-3.575-5.353V542.9c2.834-1.691,3.4-13.3,3.4-13.3s4.251-14.351,4.846-16.745a18.35,18.35,0,0,0,0-5.979l.425-3.1a16.661,16.661,0,0,0,.912-2.531,6.849,6.849,0,0,1,1.03-2.954c.666-.917-.727-3.1-.727-3.1l1.214-3.656v-4.013l2.834-14.56s2.971-16.959,1.941-22.51,1.214-8.373,1.214-8.373a5.6,5.6,0,0,1-.623.329,23.255,23.255,0,0,0,.732-2.339l6.376.917v.11h2.3s-.727-10.431-.727-14.637,2.451-19.3,2.451-19.3S284.166,392.421,283.075,392ZM254.77,379.821c0,.412-.033.84-.057,1.279l-.128.225-.236-.231-.288.522-.085.049c-.623-.373-.945-2.509-1.393-2.048l-.061.06c-.1-.132-.2-.17-.3-.06l-.094.093v-.489a9.231,9.231,0,0,0,2.645.39C254.774,379.684,254.77,379.755,254.77,379.821ZM275.976,428.4h.137l-.227.692C275.915,428.86,275.943,428.635,275.976,428.4ZM252.7,552.9l-.869-.252.472-.093.439.335.052.044Zm8.879-1.477c-.288-.176-.581-.379-.864-.588C260.806,550.9,261.179,551.121,261.576,551.423Z" transform="translate(-107.472 -203.894)"/><path class="l" d="M352.581,390.03l-5.72,17.327h1.389l-5.38,4.985,9.711,1.405Z" transform="translate(-180.94 -175.896)"/><path class="f" d="M352.581,390.03l-5.72,17.327-1.441-.45-2.55,5.435,9.711,1.405Z" transform="translate(-180.94 -175.896)"/><path class="l" d="M344.44,384.356h8.969L356.7,352.87H344.44Z" transform="translate(-181.768 -159.138)"/><path class="f" d="M344.44,384.356h8.969L356.7,352.87H344.44Z" transform="translate(-181.768 -159.138)"/><path class="m" d="M334.33,461.91l1.936-.379,4.449-.878s13.362-3.5,16.12-3.788a15.432,15.432,0,0,0,4.836-1.6c.723-.362,1.181-.637,1.181-.637l-4.813-10.217-7.467-6.435s-4.723-1.169-6.721-4.365a5.839,5.839,0,0,1-.619-4.875c1.219-4.392-7.278,4.2-7.278,4.2s.08,2.059,0,4.683c0,.516-.043,1.054-.076,1.6,0,.362-.042.725-.076,1.1a19.988,19.988,0,0,1-1.474,6.9C332.275,451.133,334.33,461.91,334.33,461.91Z" transform="translate(-189.176 -260.722)"/><path class="f" d="M338.79,438.016h.189c.34,0,.614-.84.945-.878,2.659-.3,5.087-.944,6.773-3.135a5.845,5.845,0,0,1-.619-4.87c1.219-4.392-7.278,4.194-7.278,4.194S338.889,435.391,338.79,438.016Z" transform="translate(-192.012 -260.902)"/><path class="m" d="M316.89,413.776c0,6.648,4.634,12.038,10.353,12.035a6.208,6.208,0,0,0,1.011-.055c5.559-.634,9.684-6.28,9.32-12.76s-5.084-11.456-10.667-11.245S316.891,407.283,316.89,413.776Z" transform="translate(-180.455 -249.115)"/><path class="d" d="M277.981,388.19a17.075,17.075,0,0,0-.373,3.245c-.505,3.9-3.92,6.242-7.009,7.878s-6.575,3.574-7.557,7.346c-1.077,4.079,1.275,8.169,2.909,12,3.183,7.456,3.637,16.965-.472,23.783-3.651,6.039-10.013,8.905-16,11.42a14.4,14.4,0,0,0,10.131,3.92c-1.374,4.65-6.263,6.193-10.429,7.049,2.187,2.449,5.318,3.338,8.317,3.876a16.271,16.271,0,0,0,6.612.143,7.985,7.985,0,0,0,5.375-4.118c.945-1.905,1.266-4.5,2.971-5.463a4.7,4.7,0,0,1,2.423-.412l7.085.088c2.206,0,4.818-.2,5.956-2.388a7.462,7.462,0,0,0,.642-3.031c.307-5.4-.586-11.112,1.327-16.042.576-1.488-3.122-3.843-2.735-5.419a58.392,58.392,0,0,0,1.653-15.323c0-4.365,2.442-8.125,4.459-11.809s3.7-8.334,2.111-12.287C293.582,388.234,280.1,381.827,277.981,388.19Z" transform="translate(-144.725 -241.794)"/><path class="m" d="M330.13,754.259l1.8,1.389.279.214.052.039,2.14,1.647,5,.977,4.392-.351s1.266-3.074-.723-3a3.719,3.719,0,0,1-1.814-.609l-.274-.159h0c-.288-.176-.576-.373-.86-.582h0c-.59-.434-1.148-.906-1.6-1.307-.661-.593-1.1-1.043-1.1-1.043Z" transform="translate(-187.442 -406.834)"/><path class="f" d="M334,758.187l.279.214.052.038,2.14,1.647,5,.977,4.393-.351s1.266-3.075-.723-3a3.718,3.718,0,0,1-1.814-.609,1.854,1.854,0,0,1,.671.955c.08.785-3.25,2.2-3.25,2.2l-4.695-1.444s-.8-.263-1.889-.593l-.1-.033Z" transform="translate(-189.484 -409.374)"/><path class="d" d="M317,758.9a23.035,23.035,0,0,0,6.438.7c2.588-.28,7.047,2.311,7.047,2.311s1.507.824,6.14,1.175,4.633-2.383,4.633-2.383c-.529-3.717-7.85-4.941-8.077-5h0a8.785,8.785,0,0,1,.86.582h0c.52.4,1.082.911,1.124,1.329.08.78-3.25,2.2-3.25,2.2l-4.695-1.438s-.8-.269-1.889-.6h-.1a35.4,35.4,0,0,0-4.921-1.18c-2.022-.252-3.056,1.746-3.268,2.2a.72.72,0,0,0-.038.11Z" transform="translate(-180.513 -408.742)"/><path class="m" d="M188.54,576.535l2.045,1.823s.6-.033,1.483-.066h.283c1.271-.055,3.023-.11,4.511-.11a12.346,12.346,0,0,1,2.876.187c1.02.417,2.834-6.786,2.834-6.786l-2.05-.549-.68-.187-.472-.132-1.667-.456-5.054.67-3.552,2.657Z" transform="translate(-112.726 -325.112)"/><path class="f" d="M188.54,576.535l2.045,1.823s.6-.033,1.483-.066a1.914,1.914,0,0,1-.945-.983c-1.322-4.266,5.238-6.089,5.238-6.089l3.056-.154.6-.033h.472l-.68-.187-.472-.132-1.667-.456-5.054.67-3.552,2.657Z" transform="translate(-112.726 -325.112)"/><path class="d" d="M179.269,576.667c1.237,1.329,9.342,0,9.682-.033a4.411,4.411,0,0,1-1.837-.148,2.07,2.07,0,0,1-1.417-1.18c-1.322-4.271,5.238-6.089,5.238-6.089l3.056-.154.59-.033,7.429-.373.359-2.377s-2.413.263-6.2.615c-2.13.2-4.723.428-7.524.642-7.826.6-9.687,6.506-9.687,6.506A2.03,2.03,0,0,0,179.269,576.667Z" transform="translate(-107.488 -323.317)"/><path class="m" d="M371.886,355.331a2.569,2.569,0,0,0,.179.373l1.8,3.074,4.695.549.052-2.163.789-32.546s3.249-21.829-2.891-20.572-2.286,20.572-2.286,20.572-.7,9.794-1.19,12.737C372.561,340.2,370.422,351.762,371.886,355.331Z" transform="translate(-209.21 -205.031)"/><path class="m" d="M350.14,542.936l1.337,2.657,2.99,5.946s5.422,2.311,6.811.549c.76-.961,1.582-4.315,2.158-7.137.472-2.284.789-4.211.789-4.211Z" transform="translate(-198.001 -311.799)"/><path class="f" d="M350.14,542.959l1.337,2.657a1.746,1.746,0,0,0,.227-.28c1.511-2.24,8.166-.478,11.732-.335.472-2.284.789-4.211.789-4.211Z" transform="translate(-198.001 -311.822)"/><path class="f" d="M206.16,576.376a12.349,12.349,0,0,1,2.876.187c1.02.417,2.834-6.786,2.834-6.786l-2.73-.747,7.429-.373.359-2.377s-2.414.263-6.2.615a8.205,8.205,0,0,0-2.064,2l-.113.165A15.869,15.869,0,0,0,206.16,576.376Z" transform="translate(-122.024 -323.317)"/><path class="f" d="M330.13,754.241l2.083,1.6c3.108-.653,5.946-1.68,6.282-3.294a.647.647,0,0,0,0-.077c-.661-.593-1.1-1.043-1.1-1.043Z" transform="translate(-187.442 -406.816)"/><path class="f" d="M317.09,759.514a62.42,62.42,0,0,0,8.19-1.021,35.418,35.418,0,0,0-4.926-1.191C318.337,757.049,317.3,759.048,317.09,759.514Z" transform="translate(-180.561 -409.455)"/><path class="d" d="M206.64,567.626c0,1.751,4.152,2.871,4.152,2.871l12.644,13.083s7.944,4.129,13,10.074,9.512.84,9.512.84c5.356-1.537,20.782-23.229,20.782-23.229s.359,24.772,1.082,26.589-.241,6.786-.661,8.889a28.656,28.656,0,0,0-.3,5.315s-5.776,25.678-5.295,27.918-3.131,12.737-3.131,12.737v8.746s14.146-.631,14.925-4.337-3.547-5.32-3.547-5.32v-.911c2.834-1.68,3.368-13.22,3.368-13.22s4.218-14.275,4.818-16.652a18.05,18.05,0,0,0,0-5.951l.42-3.074a16.8,16.8,0,0,0,.9-2.52,6.817,6.817,0,0,1,1.025-2.937c.661-.911-.723-3.08-.723-3.08l1.2-3.64v-3.986l2.834-14.483s2.952-16.866,1.927-22.395,1.2-8.323,1.2-8.323c-4.832,2.943-7.269-3.607-8.067-6.424-.2-.725-.3-1.208-.3-1.208s-6.636-2.844-12.814-2.163a13,13,0,0,0-3.679.906c-6.863,2.871-7.944,14.763-7.944,14.763l-6.079,10.777c-3.131,9.586-7.826,10.563-7.826,10.563s-11.014-8.6-11.335-9.026a41.749,41.749,0,0,0-4.515-2.52,5.125,5.125,0,0,0-2.168-2.306c-1.445-.7-1.563-3.294-1.563-3.294-.179-6.089-3.249-6.588-3.249-6.588C206.579,553.077,206.64,565.88,206.64,567.626Z" transform="translate(-122.277 -311.794)"/><rect class="l" width="6.499" height="23.438" transform="translate(152.139 221.622) rotate(180)"/><rect class="f" width="6.499" height="23.438" transform="translate(152.139 221.622) rotate(180)"/><path class="f" d="M372.439,397.41a.393.393,0,0,0,0,.049,2.57,2.57,0,0,0,.18.373l1.8,3.074,4.695.549.052-2.163C377.705,399.161,374.371,398.695,372.439,397.41Z" transform="translate(-209.768 -247.16)"/><path class="l" d="M366.028,398.18s.241,12.309-2.409,13.989S359.94,422.6,359.94,422.6s8.029,6.138,9.819,8.839,5.9,9.136,5.054,10.673,2.05,8.537,2.05,8.537-5.3,12.595-4.095,17.354,1.322,17.349,1.322,17.349h2.291s-.723-10.354-.723-14.555,2.4-19.172,2.4-19.172,1.086-14.692,0-15.109-7.462-6.3-7.944-8.96,3.372-27.451,3.372-27.451S368.555,399.86,366.028,398.18Z" transform="translate(-203.172 -247.507)"/><path class="f" d="M336.12,463.474a13.209,13.209,0,0,0,1.573,4.8l4.449-.878s13.362-3.5,16.12-3.788A15.432,15.432,0,0,0,363.1,462a25.754,25.754,0,0,0-5.975-11.392l-1.7-1.828a28.29,28.29,0,0,0-8.549-6.352c.2.192,14.217,14.1,11.147,16.833s-11.335-3.915-11.335-3.915l-9.4-9.388-.34-.34-.543.983a7.455,7.455,0,0,1,.808.45,15.837,15.837,0,0,1,6.612,9.553C345.76,464.155,336.12,463.474,336.12,463.474Z" transform="translate(-190.603 -267.463)"/><path class="n" d="M330,542.793s8.908,5.737,11.071,2.52a3.4,3.4,0,0,1,2.711-1.1c-.2-.725-.3-1.208-.3-1.208s-6.636-2.844-12.814-2.163C330.26,542.029,330,542.793,330,542.793Z" transform="translate(-187.373 -311.798)"/><path class="o" d="M334.1,445.644l9.739,9.74s8.232,6.665,11.335,3.915-11.151-16.838-11.151-16.838h0a28.678,28.678,0,0,1,8.544,6.336l1.7,1.828c4.459,4.8,5.465,4.8,5.616,11.864a11.267,11.267,0,0,1-.864,4.689c-1.445,1.647-2.456,13.61-2.234,15.01s-2.692,13.484-1.748,16.844-11.808-1.68-13.966,1.543S330,498.054,330,498.054s4.936-14.7,6.14-15.674,2.65-8.537,0-12.035a14.166,14.166,0,0,1-2.886-6.857s9.635.692,7.7-6.857a15.39,15.39,0,0,0-7.406-10Z" transform="translate(-187.373 -267.477)"/><path class="f" d="M354.905,493.38s-3.736,8.186-8.568,10.311c-.156.066-.307.126-.472.181C340.821,505.656,355.283,495.916,354.905,493.38Z" transform="translate(-195.181 -290.441)"/><path class="m" d="M246.878,346.333s1.8,5.32,3.249,7.137,12.157,20.012,12.157,20.012l.907,2.2.779,1.872,6.863-.84.472-3.217-.264-.373a35.959,35.959,0,0,0-3.83-4.667,49.821,49.821,0,0,1-4.695-6.012s-9.748-11.76-10.471-14.977-10.476-22.51-12.639-19.172S246.878,346.333,246.878,346.333Z" transform="translate(-139.401 -215.815)"/><g class="h" transform="translate(115.318 143.723)"><path d="M284.252,519.081a4.7,4.7,0,0,0-2.423.406c-1.7.961-2.021,3.558-2.966,5.463a7.983,7.983,0,0,1-5.38,4.118,10.44,10.44,0,0,1-1.3.209,12.768,12.768,0,0,0,4.137-.209,7.983,7.983,0,0,0,5.38-4.118c.945-1.905,1.266-4.5,2.966-5.463a3.349,3.349,0,0,1,1.417-.384Z" transform="translate(-272.18 -445.744)"/><path d="M323.772,416.743c0-4.365,2.442-8.125,4.454-11.809s3.7-8.334,2.111-12.287c-1.36-3.376-9.56-7.906-14.292-7.011,4.633.7,10.344,4.244,11.458,7.011,1.592,3.953-.1,8.6-2.111,12.287s-4.463,7.445-4.454,11.809a59.13,59.13,0,0,1-1.658,15.323c-.383,1.565,3.306,3.931,2.739,5.413-1.918,4.941-1.02,10.64-1.327,16.042a7.553,7.553,0,0,1-.647,3.031c-.945,1.806-2.881,2.273-4.766,2.372h1.648c2.2,0,4.813-.2,5.951-2.388a7.554,7.554,0,0,0,.647-3.031c.307-5.4-.59-11.107,1.327-16.042.576-1.482-3.122-3.843-2.739-5.413A58.42,58.42,0,0,0,323.772,416.743Z" transform="translate(-294.923 -385.521)"/></g><path class="f" d="M290.12,412.8l.779,1.872,6.863-.84.472-3.217-.264-.373C297.238,410.657,291.754,413.726,290.12,412.8Z" transform="translate(-166.329 -252.946)"/><path class="f" d="M315.9,434.149s-1.686-3.074-2.65-2.24-1.337-2.52-1.889-1.96-2.163,2.119-2.834-.06c-.524-1.735-6.23-12.71-8.544-17.124-.6-1.142-.968-1.845-.968-1.845s-6.5,3.777-8.062,2.52V416.1l1.322.143,7.085,15.372s2.229,4.123,2.078,5.562,2.857,7.736,3.339,8.153,5.668,7.417,5.668,7.417,2.65,15.114.359,19.314a26.769,26.769,0,0,1-6.258,7.275s-1.195,4.057-1.02,4.48-1.389,2.24-.666,2.8,1.686,4.475,1.686,4.475,3.372-6.3,5.2-7.275,4.156-13.857,4.156-13.857.666-7.587.718-12.485S314.452,434.149,315.9,434.149Z" transform="translate(-166.767 -253.253)"/><path class="l" d="M315.127,434.149s-1.681-3.074-2.645-2.24-1.341-2.52-1.889-1.96-2.158,2.119-2.834-.06c-.529-1.735-6.234-12.71-8.544-17.124l-.968-1.845s-6.5,3.777-8.067,2.52V416.1l1.327.143,7.085,15.372s2.234,4.123,2.078,5.562,2.834,7.736,3.339,8.153,5.668,7.417,5.668,7.417,2.65,15.114.364,19.314a24.825,24.825,0,0,1-4.359,5.611,10.124,10.124,0,0,0-2.834,5.282,2.406,2.406,0,0,0-.085.878c.175.417-1.389,2.24-.666,2.8s1.7,4.491,1.7,4.491,3.372-6.3,5.2-7.275,4.161-13.857,4.161-13.857.661-7.587.718-12.485S313.71,434.149,315.127,434.149Z" transform="translate(-166.361 -253.253)"/><path class="f" d="M307.389,569.21s5.058,1.1,7.085,2.795-7.7-2.657-7.7-2.657Z" transform="translate(-175.115 -324.639)"/><path class="f" d="M333.83,596.35s5.276,5.111,4.331,9.729-3.382,16.234-3.382,16.234Z" transform="translate(-189.394 -336.878)"/><path class="f" d="M228.347,578.45s-7.434.944-6.952,2.064,6.952-1.032,6.952-1.032Z" transform="translate(-130.052 -328.806)"/><path class="f" d="M352.83,653.529s.472.7-2.286,0-.723-2.849-.723-2.849Z" transform="translate(-197.451 -361.38)"/><path class="f" d="M348.141,673.205s-3.779.7-5.8,0S348.141,673.205,348.141,673.205Z" transform="translate(-193.706 -371.399)"/><path class="f" d="M327.779,742.092s-.661-.84-3.972.7-4.633,1.609-5.6,1.1S327.779,742.092,327.779,742.092Z" transform="translate(-181.119 -402.502)"/><path class="f" d="M341.075,576.28l-4.695,7.593S338.907,577.224,341.075,576.28Z" transform="translate(-190.74 -327.827)"/><path class="f" d="M319.364,449.15a4.347,4.347,0,0,1-3.231,3.5c-3.027.983-3.6,1.779-3.6,1.779" transform="translate(-178.154 -270.494)"/><path class="f" d="M301.216,415.88s-4,3.294-8.166,2.6" transform="translate(-167.875 -255.49)"/><path class="f" d="M316.78,541.991s1.167.851,3.967-2.871" transform="translate(-180.397 -311.068)"/><path class="f" d="M374.412,468.775a2.586,2.586,0,0,0-.675-1.845l-.784-1.1a4.008,4.008,0,0,0-.515-.615c-.472-.423-1.077-.549-1.568-.928" transform="translate(-208.94 -277.322)"/><path class="p" d="M875.661,123.8s-39.764-2.789-35.088,29.6c0,0-.945,5.726,3.533,8.323,0,0,.071-2.4,4.081-1.581a16.09,16.09,0,0,0,4.322.242,8.392,8.392,0,0,0,5.28-2.536h0s11.18-5.369,15.525-26.605c0,0,3.216-4.634,3.089-5.825l-6.712,3.333s2.3,5.627.472,10.305c0,0-.217-10.1-1.507-9.882-.26.049-3.486,1.949-3.486,1.949s3.944,9.8.968,16.926c0,0,1.129-12.078-2.2-16.218l-4.723,3.206s4.61,10.124,1.483,18.387c0,0,.8-12.671-2.48-17.607l-4.279,3.882s4.331,9.981,1.691,16.833c0,0-.345-14.752-2.617-15.867,0,0-3.745,3.843-4.317,5.413,0,0,2.966,7.247,1.124,11.068,0,0-1.129-9.827-2.054-9.882,0,0-3.731,6.511-4.119,10.98,0,0,.161-6.638,3.216-11.6a10.674,10.674,0,0,0-5.715,3.437s.581-4.6,6.636-5c0,0,3.084-4.941,3.906-5.243,0,0-6.017-.582-9.668,1.3,0,0,3.212-4.343,10.773-2.366l4.227-4.013s-7.925-1.257-11.288.132c0,0,3.868-3.843,12.426-1.043l4.6-3.2s-6.759-1.691-10.783-1.1c0,0,4.251-2.663,12.134.225l3.306-1.718s-4.95-1.131-6.4-1.312-1.526-.642-1.526-.642a14.96,14.96,0,0,1,9.3,1.2S875.784,124.311,875.661,123.8Z" transform="translate(-456.596 -123.74)"/><path class="p" d="M793.555,138.838s-17.948-1.263-15.846,13.374c0,0-.42,2.591,1.592,3.766,0,0,.033-1.1,1.847-.719a7.13,7.13,0,0,0,1.951.11,3.774,3.774,0,0,0,2.385-1.147h0s5.054-2.421,7.019-12.018c0,0,1.45-2.1,1.393-2.635l-3.032,1.5a7.253,7.253,0,0,1,.222,4.661s-.1-4.568-.68-4.458c-.118,0-1.578.878-1.578.878s1.785,4.431.439,7.653c0,0,.51-5.457-1-7.329l-2.135,1.449s2.088,4.573.671,8.307c0,0,.364-5.726-1.119-7.955l-1.932,1.773s1.955,4.513.765,7.6c0,0-.156-6.665-1.185-7.165a13.168,13.168,0,0,0-1.951,2.449s1.341,3.294.51,5c0,0-.51-4.442-.945-4.458a16.135,16.135,0,0,0-1.861,4.941,11.974,11.974,0,0,1,1.455-5.243,4.883,4.883,0,0,0-2.584,1.554s.265-2.075,3-2.262a14.627,14.627,0,0,1,1.766-2.366,9.606,9.606,0,0,0-4.369.587s1.45-1.965,4.87-1.1l1.889-1.812s-3.58-.549-5.1.06c0,0,1.748-1.735,5.616-.472l2.078-1.444a16.173,16.173,0,0,0-4.874-.489s1.922-1.208,5.484.1l1.488-.774s-2.239-.516-2.9-.593-.69-.291-.69-.291a6.747,6.747,0,0,1,4.2.549S793.611,139.068,793.555,138.838Z" transform="translate(-423.535 -130.536)"/><ellipse class="i" cx="18.992" cy="3.733" rx="18.992" ry="3.733" transform="translate(413.723 349.813)"/><path class="i" d="M941.2,748.222a6.544,6.544,0,0,0,1.809-3.179,3.007,3.007,0,0,0-1.266-3.234c-1.162-.516-2.4.423-3.344,1.367s-2.021,2.026-3.249,1.823a6.351,6.351,0,0,0,1.53-5.386,2.449,2.449,0,0,0-.425-1.1c-.647-.8-1.814-.461-2.588.17-2.456,2.009-3.141,5.891-3.155,9.377a20.474,20.474,0,0,1-.043-3.843c0-1.274-.312-2.745-1.252-3.42a3.32,3.32,0,0,0-1.889-.516,3.554,3.554,0,0,0-3.084,1.021c-.945,1.164-.694,3.118.118,4.392a12.549,12.549,0,0,0,3.2,2.976,7.684,7.684,0,0,1,2.281,2.531,2.494,2.494,0,0,1,.17.456h6.924A19.486,19.486,0,0,0,941.2,748.222Z" transform="translate(-500.629 -400.781)"/></g></svg>