<svg xmlns="http://www.w3.org/2000/svg" xmlns:xlink="http://www.w3.org/1999/xlink" width="437.673" height="391.017" viewBox="0 0 437.673 391.017"><defs><style>.a{fill:#3f3d56;}.b,.k{fill:#00d857;}.b{opacity:0.04;}.c{opacity:0.7;}.d{fill:url(#a);}.e{fill:#3ad29f;}.f{fill:#4d8af0;}.f,.g,.h,.i{opacity:0.5;}.g{fill:#f55f44;}.h,.j{fill:#47e6b1;}.l{fill:#ffb9b9;}.m{fill:#575a89;}.n{opacity:0.1;}.o{fill:#2f2e41;}</style><linearGradient id="a" y1="0.5" x2="1" y2="0.5" gradientUnits="objectBoundingBox"><stop offset="0" stop-color="gray" stop-opacity="0.251"/><stop offset="0.535" stop-color="gray" stop-opacity="0.122"/><stop offset="1" stop-color="gray" stop-opacity="0.102"/></linearGradient></defs><g transform="translate(-0.004)"><path class="a" d="M469.351,76.854,332,161.38S332,335.714,469.351,430.8C606.705,335.714,606.705,161.38,606.705,161.38Z" transform="translate(-249.646 -71.382)"/><path class="b" d="M601.047,76.854,598.7,78.3V429.156c.78.551,1.559,1.1,2.348,1.649C738.4,335.714,738.4,161.38,738.4,161.38Z" transform="translate(-380.522 -71.382)"/><g class="c" transform="translate(175.664 154.185)"><path class="d" d="M355.71,325.32,381.6,349.056l32.1-46.306,12.947,10.789L381.6,370.634l-36.682-41Z" transform="translate(-344.921 -302.75)"/></g><path class="e" d="M369.673,326.256l21,19.254,29.756-43.759,10.5,8.752-40.259,52.511-29.756-33.257Z" transform="translate(-177.109 -148.075)"/><path class="f" d="M329.562,110.726a1.871,1.871,0,0,1-1.043-2.262.9.9,0,0,0,.041-.208h0a.938.938,0,0,0-1.686-.622h0a.9.9,0,0,0-.1.184,1.871,1.871,0,0,1-2.262,1.043.9.9,0,0,0-.208-.041h0a.938.938,0,0,0-.622,1.686h0a.9.9,0,0,0,.184.1,1.871,1.871,0,0,1,1.043,2.262.9.9,0,0,0-.041.208h0a.938.938,0,0,0,1.686.622h0a.9.9,0,0,0,.1-.184,1.871,1.871,0,0,1,2.262-1.043.9.9,0,0,0,.208.041h0a.938.938,0,0,0,.622-1.686h0a.9.9,0,0,0-.184-.1Z" transform="translate(-245.381 -86.303)"/><path class="f" d="M183.561,435.726a1.871,1.871,0,0,1-1.043-2.262.9.9,0,0,0,.041-.208h0a.938.938,0,0,0-1.686-.622h0a.9.9,0,0,0-.1.184,1.871,1.871,0,0,1-2.262,1.043.9.9,0,0,0-.208-.041h0a.938.938,0,0,0-.622,1.686h0a.9.9,0,0,0,.184.1,1.871,1.871,0,0,1,1.043,2.262.9.9,0,0,0-.041.208h0a.938.938,0,0,0,1.686.622h0a.9.9,0,0,0,.1-.184,1.871,1.871,0,0,1,2.262-1.043.9.9,0,0,0,.208.041h0a.938.938,0,0,0,.622-1.686h0A.9.9,0,0,0,183.561,435.726Z" transform="translate(-173.735 -245.787)"/><circle class="g" cx="3.056" cy="3.056" r="3.056" transform="translate(378.091 126.301)"/><circle class="g" cx="3.056" cy="3.056" r="3.056" transform="translate(58.773 344.783)"/><circle class="g" cx="3.056" cy="3.056" r="3.056" transform="translate(430.038 243.945)"/><path class="f" d="M868.562,139.726a1.871,1.871,0,0,1-1.043-2.262.9.9,0,0,0,.041-.208h0a.938.938,0,0,0-1.686-.622h0a.9.9,0,0,0-.1.184,1.871,1.871,0,0,1-2.262,1.043.9.9,0,0,0-.208-.041h0a.938.938,0,0,0-.622,1.686h0a.9.9,0,0,0,.184.1,1.871,1.871,0,0,1,1.043,2.262.9.9,0,0,0-.041.208h0a.938.938,0,0,0,1.686.622h0a.9.9,0,0,0,.1-.184,1.871,1.871,0,0,1,2.262-1.043.9.9,0,0,0,.208.041h0a.938.938,0,0,0,.622-1.686h0a.9.9,0,0,0-.184-.1Z" transform="translate(-509.879 -100.534)"/><path class="f" d="M968.562,767.726a1.872,1.872,0,0,1-1.043-2.262.9.9,0,0,0,.041-.208h0a.938.938,0,0,0-1.686-.622h0a.9.9,0,0,0-.1.184,1.871,1.871,0,0,1-2.262,1.043.9.9,0,0,0-.208-.041h0a.938.938,0,0,0-.622,1.686h0a.9.9,0,0,0,.184.1,1.871,1.871,0,0,1,1.043,2.262.9.9,0,0,0-.041.208h0a.938.938,0,0,0,1.686.622h0a.9.9,0,0,0,.1-.184,1.871,1.871,0,0,1,2.262-1.043.9.9,0,0,0,.208.041h0a.938.938,0,0,0,.622-1.686h0A.9.9,0,0,0,968.562,767.726Z" transform="translate(-558.95 -408.706)"/><path class="f" d="M176.561,245.726a1.871,1.871,0,0,1-1.043-2.262.9.9,0,0,0,.041-.208h0a.938.938,0,0,0-1.686-.622h0a.9.9,0,0,0-.1.184,1.871,1.871,0,0,1-2.262,1.043.9.9,0,0,0-.208-.041h0a.938.938,0,0,0-.622,1.686h0a.9.9,0,0,0,.184.1,1.871,1.871,0,0,1,1.043,2.262.9.9,0,0,0-.041.208h0a.938.938,0,0,0,1.686.622h0a.9.9,0,0,0,.1-.184,1.871,1.871,0,0,1,2.262-1.043.9.9,0,0,0,.208.041h0a.938.938,0,0,0,.622-1.686h0A.9.9,0,0,0,176.561,245.726Z" transform="translate(-170.3 -152.55)"/><circle class="h" cx="3.056" cy="3.056" r="3.056" transform="translate(37.383 141.58)"/><circle class="h" cx="3.056" cy="3.056" r="3.056" transform="translate(431.566 166.025)"/><g class="i" transform="translate(293.551)"><rect class="j" width="1.528" height="8.658" transform="translate(3.565)"/><rect class="j" width="1.528" height="8.658" transform="translate(8.658 3.565) rotate(90)"/></g><g class="i" transform="translate(299.153 339.181)"><rect class="j" width="1.528" height="8.658" transform="translate(3.565)"/><rect class="j" width="1.528" height="8.658" transform="translate(8.658 3.565) rotate(90)"/></g><g class="i" transform="translate(9.882 357.515)"><rect class="j" width="1.528" height="8.658" transform="translate(3.565)"/><rect class="j" width="1.528" height="8.658" transform="translate(8.658 3.565) rotate(90)"/></g><g class="i" transform="translate(357.72 201.675)"><rect class="j" width="1.528" height="8.658" transform="translate(3.565)"/><rect class="j" width="1.528" height="8.658" transform="translate(8.658 3.565) rotate(90)"/></g><path class="h" d="M794.288,119.329l3.281,3.008,4.649-6.837,1.641,1.367-6.29,8.2-4.649-5.2Z" transform="translate(-389.1 -56.678)"/><rect class="k" width="11.328" height="14.564" transform="translate(300.195 122.295) rotate(-2.221)"/><path class="l" d="M666.845,401.938s-15.675-7.489-15.424-1.021,15.8,10.723,15.8,10.723Z" transform="translate(-406.392 -229.114)"/><path class="k" d="M684.854,504.578s-7.4,18.1-10.128,31.162-6.894,31.037-1.541,43.785,20.571,50.215,20.727,54.257-1.3,8.148,1.931,8.022,20.833-5.666,21.547-8.123-6-8.674-6-8.674L694.8,573.019l17.31-33.87,12.486,50.528,2.445,63.063s12-3.7,13.745-.533c0,0,5.377-7.5,6.06-10.761s-2.539-65.489-2.539-65.489,11.017-70.873,2.123-70.528S702.7,484.453,684.854,504.578Z" transform="translate(-415.801 -277.026)"/><path class="m" d="M707.829,770.651s-8.2,18.132-8.981,18.972-6.123,9.144-2.081,8.988,13.588-4.576,20.614-11.326,16.289-18.445,15.449-19.223-6.593-2.983-6.593-2.983Z" transform="translate(-427.912 -409.107)"/><path class="m" d="M781.553,794.371s-.5,8.116-1.987,11.413-1.3,8.148,2.739,7.991,14.49-2.181,14.49-2.181.62-4.882-.219-5.66-4.419-9.545-2.9-12.034S781.553,794.371,781.553,794.371Z" transform="translate(-468.857 -422.762)"/><path class="l" d="M784.731,278.6s8.618,13.431,11.977,16.54-6.092,9.953-6.092,9.953L773.7,307.368s.213-15.393-.658-16.979S784.731,278.6,784.731,278.6Z" transform="translate(-466.054 -170.382)"/><path class="k" d="M749.84,309.543s3.485,6.343,6.719,6.217,19.962-7.252,20.676-9.709,5.541,17.6,5.541,17.6l-40.932,72.033-9.984-6.9L736.7,346.49l3.973-22.826Z" transform="translate(-445.867 -183.751)"/><path class="m" d="M758.935,369.321a22.65,22.65,0,0,0-2.511,10.624c.006.162.013.323.027.485.387,7.483,3.144,16.137,4.133,22.431.718,4.515.513,7.81-2.129,8.585-6.405,1.868.934,3.2-23.848,11.451s-29.106,1.129-29.169-.488,3.51-13.9,2.67-14.678S696.357,417.9,693.06,416.41s-.376-9.7-.376-9.7,7.427-17.292,7.27-21.335,11.25-23.108,11.25-23.108l7.758-50.5s2.983-6.593,6.994-7.559a9.936,9.936,0,0,1,7.339,1.335l-6.712,14.835L719.5,346.559l1.185,9.671s8.235-17.323,13.644-24.011S751.271,309.7,751.271,309.7s2.692-9.084.66-11.8,8.478-3.13,12.959,8.032c2.375,5.916,6.231,14.738,8.647,22.952,2.153,7.277,3.17,14.08,1.037,17.968C771.314,352.793,763.115,360.6,758.935,369.321Z" transform="translate(-426.057 -179.062)"/><path class="n" d="M836.424,376.324c-3.26,5.94-11.459,13.748-15.639,22.469-1.092-3.933-2.424-8-2.424-8s-5.109-27.332,10-34.4a10.113,10.113,0,0,1,7.023,1.962C837.54,365.633,838.557,372.435,836.424,376.324Z" transform="translate(-487.907 -208.534)"/><path class="m" d="M705.6,392.191l-12.811,3.736-17.787.69-1.83,15.456,29.232,2.105S709.7,393.651,705.6,392.191Z" transform="translate(-417.066 -226.123)"/><path class="l" d="M764.557,494.231s-17.138,2.843-13.227,8,19.094-.265,19.094-.265Z" transform="translate(-455.136 -276.196)"/><path class="n" d="M794.753,461.5c.387,7.483,3.144,16.137,4.133,22.431-5.459,5.167-10.651,9.725-12.608,9.8-4.043.157-10.542-.4-12.936.5s-3.8-14.428-3.8-14.428,1.429-4.914,7.8-7.59A88.78,88.78,0,0,0,794.753,461.5Z" transform="translate(-464.359 -260.137)"/><path class="m" d="M804.446,346.861s13.682-2.15,12.943,20.551,1.442,37.191-4.06,41.453-23.377,23.579-27.42,23.735-10.542-.4-12.936.5-3.8-14.428-3.8-14.428,1.429-4.914,7.8-7.59,21.391-12.166,21.265-15.4-3.8-14.428-3.8-14.428S789.335,353.925,804.446,346.861Z" transform="translate(-464.177 -203.852)"/><circle class="l" cx="17.8" cy="17.8" r="17.8" transform="translate(288.811 92.505)"/><path class="o" d="M739.682,229.138a3.438,3.438,0,0,1-1.5.751,1.068,1.068,0,0,1-1.238-.857,4.438,4.438,0,0,1-1.7,2.178c-.831.433-2.117.07-2.237-.86a3.924,3.924,0,0,1-.9,1.907,1.353,1.353,0,0,1-1.9.064,48.86,48.86,0,0,1,.254,6.056,7.711,7.711,0,0,0,2.179,5.489c2.225,1.937,5.572,1.459,8.5,1.092a2.58,2.58,0,0,1,1.332.073c1.1.467,1.046,1.993,1.061,3.184a8.848,8.848,0,0,0,7.747,8.4,4.435,4.435,0,0,0,3.3-.8c.831-.7,1.256-1.853,2.208-2.382,1.549-.861,3.428.395,4.561,1.758s2.249,3.04,4,3.29c2.321.33,4.088-2.035,4.956-4.213a24.559,24.559,0,0,0-.488-19.083C764.971,224.619,748.417,222.949,739.682,229.138Z" transform="translate(-445.055 -144.346)"/></g></svg>