<svg xmlns="http://www.w3.org/2000/svg" xmlns:xlink="http://www.w3.org/1999/xlink" width="414.1" height="390.79" viewBox="0 0 414.1 390.79"><defs><style>.a{opacity:0.5;}.b{fill:url(#a);}.c{fill:#f5f5f5;}.d{fill:#fda57d;}.e{fill:#333;}.f{opacity:0.1;}.g{fill:#fdd835;}.h{fill:url(#b);}.i{fill:#be7c5e;}.j{fill:#3ad29f;}.k{fill:url(#c);}.l{fill:#4d8af0;}.m{fill:url(#d);}.n{fill:#f55f44;}.o{fill:#00d857;}</style><linearGradient id="a" x1="0.5" y1="1" x2="0.5" gradientUnits="objectBoundingBox"><stop offset="0" stop-color="gray" stop-opacity="0.251"/><stop offset="0.54" stop-color="gray" stop-opacity="0.122"/><stop offset="1" stop-color="gray" stop-opacity="0.102"/></linearGradient><linearGradient id="b" x1="-4.017" y1="1" x2="-4.017" y2="0" xlink:href="#a"/><linearGradient id="c" x1="0.5" y1="1" x2="0.5" y2="0" xlink:href="#a"/><linearGradient id="d" x1="0.5" y1="1" x2="0.5" y2="0" xlink:href="#a"/></defs><g transform="translate(-237.899 -1796.95)"><g class="a" transform="translate(237.899 1882.166)"><path class="b" d="M256.823,262.447a26.768,26.768,0,1,0-41.7,22.218v.12a9.163,9.163,0,0,0,3.034,1.93l.037-.12c1.25,1.078,6.532,2.8,12.594,2.783h.131a24.546,24.546,0,0,0,11.674-2.662s.031-.068.084-.2a9.534,9.534,0,0,0,2.526-1.726l.042-.3A26.737,26.737,0,0,0,256.823,262.447Z" transform="translate(-203.285 -235.678)"/></g><circle class="c" cx="25.962" cy="25.962" r="25.962" transform="translate(238.43 1882.033)"/><path class="d" d="M229.659,304.6s-6.187.523-4.55,11.778a8.889,8.889,0,0,0,2.95,1.872l3.478-11.778Z" transform="translate(24.336 1613.09)"/><path class="d" d="M270.732,304.6s6.187.523,4.55,11.778a8.891,8.891,0,0,1-2.945,1.872l-3.478-11.778Z" transform="translate(3.336 1613.09)"/><path class="e" d="M230.42,269.28s-2.945,8.567-4.55,7.762c0,0,15.5,13.384,29.174,0a40.8,40.8,0,0,0-5.889-7.762Z" transform="translate(23.841 1630.309)"/><circle class="e" cx="11.512" cy="11.512" r="11.512" transform="translate(252.682 1887.479)"/><path class="f" d="M251.815,304.6H231.741l-1.872,8.028s-1.1,3.719.267,5.356,14.158,5.356,23.536.267a10.46,10.46,0,0,0,.267-6.689c-1.046-3.745-.267-.267-.267-.267Z" transform="translate(22.133 1613.074)"/><path class="f" d="M252.325,304.6H232.251l-1.872,8.028s-1.1,3.719.267,5.356,14.158,5.356,23.536.267a10.46,10.46,0,0,0,.267-6.689c-1.046-3.745-.267-.267-.267-.267Z" transform="translate(21.89 1613.074)"/><path class="g" d="M252.045,304.6H231.971l-1.872,8.028s-1.1,3.719.267,5.356,14.158,5.356,23.536.267a10.46,10.46,0,0,0,.267-6.689c-1.046-3.745-.267-.267-.267-.267Z" transform="translate(22.024 1613.074)"/><path class="f" d="M42.53,222.86h8.034v6.92a3.52,3.52,0,0,1-3.52,3.52H46.05a3.52,3.52,0,0,1-3.52-3.52Z" transform="translate(217.616 1688.321)"/><path class="d" d="M42.53,222.29h8.034v6.92a3.52,3.52,0,0,1-3.52,3.52H46.05a3.52,3.52,0,0,1-3.52-3.52Z" transform="translate(217.616 1688.599)"/><path class="f" d="M245.85,292.6a11.559,11.559,0,0,0,8.028,0v-.988H245.85Z" transform="translate(14.311 1619.494)"/><circle class="d" cx="11.512" cy="11.512" r="11.512" transform="translate(252.682 1889.923)"/><path class="e" d="M232.52,256.577h21.967s-1.893-8.865-10.209-8.3S232.52,256.577,232.52,256.577Z" transform="translate(20.67 1640.588)"/><ellipse class="d" cx="1.072" cy="2.008" rx="1.072" ry="2.008" transform="translate(251.851 1898.857)"/><ellipse class="d" cx="1.072" cy="2.008" rx="1.072" ry="2.008" transform="translate(274.335 1898.857)"/><path class="f" d="M232.52,257.141h21.967s-1.893-8.86-10.209-8.3S232.52,257.141,232.52,257.141Z" transform="translate(20.67 1640.31)"/><g class="a" transform="translate(238.273 1796.95)"><path class="h" d="M204,95.767a26.768,26.768,0,1,1,41.7,22.218v.12a9.164,9.164,0,0,1-3.033,1.93l-.037-.12c-1.25,1.077-6.533,2.8-12.594,2.782H229.9a24.547,24.547,0,0,1-11.674-2.662s-.031-.068-.084-.2a9.535,9.535,0,0,1-2.526-1.726l-.042-.3A26.736,26.736,0,0,1,204,95.767Z" transform="translate(-204 -68.998)"/></g><circle class="c" cx="25.962" cy="25.962" r="25.962" transform="translate(239.094 1797.756)"/><path class="i" d="M231.339,139.09s-6.187.523-4.55,11.778a8.892,8.892,0,0,0,2.945,1.872l3.478-11.778Z" transform="translate(23.535 1694.519)"/><path class="i" d="M272.422,139.09s6.187.523,4.55,11.778a8.893,8.893,0,0,1-2.945,1.872l-3.478-11.778Z" transform="translate(2.53 1694.519)"/><path class="e" d="M234.723,103.78s-.476,1.386-1.151,2.992c-1.475,3.509.209,16.982,3.729,18.415a20.044,20.044,0,0,0,14.556.675c4.707-1.71,6.14-17.045,2.824-20.785-.387-.439-.795-.873-1.219-1.3Z" transform="translate(20.423 1711.361)"/><circle class="e" cx="11.512" cy="11.512" r="11.512" transform="translate(253.566 1802.824)"/><path class="f" d="M253.5,139.09H233.431l-1.872,8.028s-1.1,3.719.267,5.356,14.158,5.356,23.536.267a10.46,10.46,0,0,0,.288-6.689c-1.046-3.745-.267-.267-.267-.267Z" transform="translate(21.327 1694.519)"/><path class="f" d="M254,139.09H233.911l-1.872,8.028s-1.1,3.719.267,5.356,14.158,5.356,23.536.267a10.46,10.46,0,0,0,.267-6.689c-1.046-3.745-.267-.267-.267-.267Z" transform="translate(21.098 1694.519)"/><path class="j" d="M253.73,139.09H233.651l-1.872,8.028s-1.1,3.719.267,5.356,14.158,5.356,23.536.267a10.46,10.46,0,0,0,.267-6.689c-1.046-3.745-.267-.267-.267-.267Z" transform="translate(21.222 1694.519)"/><path class="f" d="M44.22,57.35h8.034v6.925a3.52,3.52,0,0,1-3.52,3.52H47.74a3.52,3.52,0,0,1-3.52-3.52Z" transform="translate(216.81 1769.595)"/><path class="i" d="M44.22,56.78h8.034v6.914a3.52,3.52,0,0,1-3.52,3.52H47.74a3.52,3.52,0,0,1-3.52-3.52Z" transform="translate(216.81 1769.867)"/><path class="f" d="M247.54,127.1a11.558,11.558,0,0,0,8.028,0v-.988H247.54Z" transform="translate(13.505 1700.71)"/><circle class="i" cx="11.512" cy="11.512" r="11.512" transform="translate(253.566 1805.324)"/><path class="e" d="M234.21,91.067h21.967S254.3,82.2,246,82.766,234.21,91.067,234.21,91.067Z" transform="translate(19.863 1721.396)"/><ellipse class="i" cx="1.072" cy="2.008" rx="1.072" ry="2.008" transform="translate(252.729 1814.335)"/><ellipse class="i" cx="1.072" cy="2.008" rx="1.072" ry="2.008" transform="translate(275.214 1814.335)"/><path class="f" d="M234.21,91.637h21.967S254.3,82.772,246,83.336,234.21,91.637,234.21,91.637Z" transform="translate(19.863 1721.125)"/><g class="a" transform="translate(237.899 2134.04)"><path class="k" d="M256.823,755.1a26.768,26.768,0,1,0-41.7,22.223v.12a9.169,9.169,0,0,0,3.034,1.93l.037-.12c1.25,1.077,6.532,2.8,12.594,2.782h.131a24.548,24.548,0,0,0,11.674-2.662s.031-.068.084-.2a9.54,9.54,0,0,0,2.526-1.726l.042-.3A26.737,26.737,0,0,0,256.823,755.1Z" transform="translate(-203.285 -728.338)"/></g><circle class="c" cx="25.962" cy="25.962" r="25.962" transform="translate(238.707 2134.846)"/><path class="l" d="M228.6,798.93s-6.187.523-4.55,11.778a8.9,8.9,0,0,0,2.945,1.873l3.478-11.779Z" transform="translate(24.842 1372.031)"/><path class="l" d="M269.672,798.93s6.187.523,4.55,11.778a8.9,8.9,0,0,1-2.945,1.873L267.8,800.8Z" transform="translate(3.841 1372.031)"/><circle class="e" cx="11.512" cy="11.512" r="11.512" transform="translate(252.128 2140.176)"/><path class="l" d="M250.755,798.93H230.681l-1.872,8.028s-1.1,3.719.267,5.356,14.158,5.356,23.536.267a10.462,10.462,0,0,0,.267-6.69c-1.046-3.745-.267-.267-.267-.267Z" transform="translate(22.639 1372.031)"/><path class="l" d="M251.27,798.93H231.191l-1.872,8.028s-1.1,3.719.267,5.356,14.158,5.356,23.536.267a10.461,10.461,0,0,0,.267-6.69c-1.046-3.745-.267-.267-.267-.267Z" transform="translate(22.396 1372.031)"/><path class="l" d="M250.985,798.93H230.911l-1.872,8.028s-1.1,3.719.267,5.356,14.158,5.35,23.572.251a10.459,10.459,0,0,0,.267-6.689c-1.046-3.745-.267-.267-.267-.267Z" transform="translate(22.529 1372.031)"/><path class="f" d="M41.475,717.19H49.5v6.92a3.52,3.52,0,0,1-3.52,3.52H44.99a3.52,3.52,0,0,1-3.52-3.52v-6.92Z" transform="translate(218.121 1447.107)"/><path class="d" d="M41.475,716.62H49.5v6.92a3.52,3.52,0,0,1-3.52,3.52H44.99a3.52,3.52,0,0,1-3.52-3.52v-6.92Z" transform="translate(218.121 1447.379)"/><path class="f" d="M244.8,786.957a11.561,11.561,0,0,0,8.028,0V786H244.8Z" transform="translate(14.812 1378.198)"/><circle class="d" cx="11.512" cy="11.512" r="11.512" transform="translate(252.128 2142.671)"/><path class="f" d="M231.46,751.471h21.967s-1.888-8.86-10.178-8.3S231.46,751.471,231.46,751.471Z" transform="translate(21.175 1398.637)"/><path class="e" d="M231.46,750.9h21.967s-1.872-8.865-10.173-8.3S231.46,750.9,231.46,750.9Z" transform="translate(21.175 1398.913)"/><ellipse class="d" cx="1.072" cy="2.008" rx="1.072" ry="2.008" transform="translate(251.296 2151.688)"/><ellipse class="d" cx="1.072" cy="2.008" rx="1.072" ry="2.008" transform="translate(273.781 2151.688)"/><g class="a" transform="translate(237.899 2050.951)"><path class="m" d="M256.823,592.587a26.768,26.768,0,1,0-41.7,22.217v.121a9.162,9.162,0,0,0,3.034,1.93l.037-.12c1.25,1.078,6.532,2.8,12.594,2.783h.131a24.547,24.547,0,0,0,11.674-2.662s.031-.068.084-.2a9.549,9.549,0,0,0,2.526-1.726l.042-.3A26.737,26.737,0,0,0,256.823,592.587Z" transform="translate(-203.285 -565.818)"/></g><circle class="c" cx="25.962" cy="25.962" r="25.962" transform="translate(238.43 2050.823)"/><path class="i" d="M229.659,634.71s-6.187.523-4.55,11.778a8.888,8.888,0,0,0,2.945,1.873l3.478-11.778Z" transform="translate(24.336 1452.154)"/><path class="i" d="M270.732,634.71s6.187.523,4.55,11.778a8.889,8.889,0,0,1-2.945,1.873l-3.478-11.778Z" transform="translate(3.336 1452.154)"/><path class="e" d="M230.42,599.4s-2.945,15.167-4.55,14.341c0,0,15.5,13.384,29.174,0,0,0-2.411-10.858-5.889-14.341Z" transform="translate(23.841 1469.271)"/><circle class="e" cx="11.512" cy="11.512" r="11.512" transform="translate(252.682 2056.567)"/><path class="f" d="M251.815,634.71H231.741l-1.872,8.029s-1.1,3.719.267,5.356,14.158,5.355,23.536.267a10.461,10.461,0,0,0,.267-6.689c-1.046-3.745-.267-.267-.267-.267Z" transform="translate(22.133 1452.114)"/><path class="f" d="M252.325,634.71H232.251l-1.872,8.029s-1.1,3.719.267,5.356,14.158,5.355,23.536.267a10.46,10.46,0,0,0,.267-6.689c-1.046-3.745-.267-.267-.267-.267Z" transform="translate(21.89 1452.114)"/><path class="n" d="M252.045,634.71H231.971l-1.872,8.029s-1.1,3.719.267,5.356,14.158,5.355,23.536.267a10.46,10.46,0,0,0,.267-6.689c-1.046-3.745-.267-.267-.267-.267Z" transform="translate(22.024 1452.114)"/><path class="f" d="M42.53,553h8.034v6.92a3.52,3.52,0,0,1-3.52,3.52H46.05a3.52,3.52,0,0,1-3.52-3.52Z" transform="translate(217.616 1527.399)"/><path class="i" d="M42.53,552.41h8.034v6.919a3.52,3.52,0,0,1-3.52,3.52H46.05a3.52,3.52,0,0,1-3.52-3.52Z" transform="translate(217.616 1527.687)"/><path class="f" d="M245.85,622.719a11.56,11.56,0,0,0,8.028,0v-.989H245.85Z" transform="translate(14.311 1458.658)"/><circle class="i" cx="11.512" cy="11.512" r="11.512" transform="translate(252.682 2059.015)"/><path class="e" d="M232.52,586.691h21.967s-1.893-8.86-10.209-8.295S232.52,586.691,232.52,586.691Z" transform="translate(20.67 1479.694)"/><ellipse class="i" cx="1.072" cy="2.008" rx="1.072" ry="2.008" transform="translate(251.851 2068.115)"/><ellipse class="i" cx="1.072" cy="2.008" rx="1.072" ry="2.008" transform="translate(274.335 2068.115)"/><path class="f" d="M232.52,587.265h21.967s-1.893-8.865-10.209-8.29S232.52,587.265,232.52,587.265Z" transform="translate(20.67 1479.413)"/><g class="a" transform="translate(237.899 1966.129)"><path class="b" d="M256.823,426.677a26.768,26.768,0,1,0-41.7,22.218v.12a9.164,9.164,0,0,0,3.034,1.93l.037-.12c1.25,1.077,6.532,2.8,12.594,2.782h.131a24.547,24.547,0,0,0,11.674-2.662s.031-.068.084-.2a9.536,9.536,0,0,0,2.526-1.726l.042-.3A26.736,26.736,0,0,0,256.823,426.677Z" transform="translate(-203.285 -399.908)"/></g><circle class="c" cx="25.962" cy="25.962" r="25.962" transform="translate(238.707 1966.937)"/><path class="l" d="M228.6,470.5s-6.187.523-4.55,11.778a8.893,8.893,0,0,0,2.945,1.872l3.478-11.778Z" transform="translate(24.842 1532.21)"/><path class="l" d="M269.672,470.5s6.187.523,4.55,11.778a8.892,8.892,0,0,1-2.945,1.872L267.8,472.372Z" transform="translate(3.841 1532.21)"/><circle class="e" cx="11.512" cy="11.512" r="11.512" transform="translate(252.128 1972.461)"/><path class="l" d="M250.755,470.5H230.681l-1.872,8.028s-1.1,3.719.267,5.356,14.158,5.356,23.536.267a10.461,10.461,0,0,0,.267-6.689c-1.046-3.745-.267-.267-.267-.267Z" transform="translate(22.639 1532.182)"/><path class="l" d="M251.27,470.5H231.191l-1.872,8.028s-1.1,3.719.267,5.356,14.158,5.356,23.536.267a10.46,10.46,0,0,0,.267-6.689c-1.046-3.745-.267-.267-.267-.267Z" transform="translate(22.396 1532.182)"/><path class="l" d="M250.985,470.5H230.911l-1.872,8.028s-1.1,3.719.267,5.356,14.158,5.356,23.536.267a10.46,10.46,0,0,0,.267-6.689c-1.046-3.745-.267-.267-.267-.267Z" transform="translate(22.529 1532.182)"/><path class="f" d="M41.48,388.77h8.028v6.919a3.52,3.52,0,0,1-3.52,3.52h-.994a3.52,3.52,0,0,1-3.515-3.52Z" transform="translate(218.116 1607.451)"/><path class="i" d="M41.475,388.2H49.5v6.919a3.52,3.52,0,0,1-3.52,3.52H44.99a3.52,3.52,0,0,1-3.52-3.52V388.2Z" transform="translate(218.121 1607.728)"/><path class="f" d="M244.8,458.509a11.559,11.559,0,0,0,8.028,0v-.988H244.8Z" transform="translate(14.812 1538.661)"/><circle class="i" cx="11.512" cy="11.512" r="11.512" transform="translate(252.128 1974.904)"/><path class="f" d="M231.46,423.052h21.967s-1.888-8.86-10.178-8.3S231.46,423.052,231.46,423.052Z" transform="translate(21.175 1559.449)"/><path class="e" d="M231.46,422.477h21.967s-1.872-8.865-10.173-8.3S231.46,422.477,231.46,422.477Z" transform="translate(21.175 1559.732)"/><ellipse class="i" cx="1.072" cy="2.008" rx="1.072" ry="2.008" transform="translate(251.296 1983.919)"/><ellipse class="i" cx="1.072" cy="2.008" rx="1.072" ry="2.008" transform="translate(273.781 1983.919)"/><path class="e" d="M233.571,411.69a6.942,6.942,0,0,1,1.721-2.8c2.364-2.338,6.24-2.829,8.227-5.491a1.569,1.569,0,0,1-.711,2.191c1.9,0,4.111-.178,5.188-1.747a3.562,3.562,0,0,1-.6,3.76c1.689.078,3.488,1.224,3.6,2.908a3.358,3.358,0,0,1-1.569,2.829,8.641,8.641,0,0,1-3.138,1.182C243.089,415.22,231.473,418.2,233.571,411.69Z" transform="translate(20.288 1564.934)"/><g transform="translate(346.621 1816.757)"><rect class="c" width="305.378" height="5"/><rect class="j" width="215.921" height="5"/></g><g transform="translate(346.621 1902.633)"><rect class="c" width="305.378" height="5"/><rect class="o" width="295.922" height="5"/></g><g transform="translate(346.621 2077.125)"><rect class="c" width="305.378" height="5"/><rect class="o" width="266.922" height="5"/></g><g transform="translate(346.621 1989.879)"><rect class="c" width="305.378" height="5"/><rect class="n" width="46.921" height="5"/></g><g transform="translate(346.621 2164.003)"><rect class="c" width="305.378" height="5"/><rect class="j" width="88.921" height="5"/></g></g></svg>