<svg xmlns="http://www.w3.org/2000/svg" xmlns:xlink="http://www.w3.org/1999/xlink" width="475.491" height="387.895" viewBox="0 0 475.491 387.895"><defs><style>.a{opacity:0.5;}.b{fill:url(#a);}.c{fill:#f5f5f5;}.d{fill:#00d857;}.e{fill:#e0e0e0;}.f{fill:#fff;}.g,.h,.i{fill:none;stroke:#535461;stroke-miterlimit:10;}.h{stroke-dasharray:12.58 12.58;}.i{stroke-dasharray:12.44 12.44;}.j{fill:#fdd835;}.k{opacity:0.1;}.l{fill:#fdb797;}.m{fill:#333;}</style><linearGradient id="a" x1="0.5" y1="1" x2="0.5" gradientUnits="objectBoundingBox"><stop offset="0" stop-color="gray" stop-opacity="0.251"/><stop offset="0.54" stop-color="gray" stop-opacity="0.122"/><stop offset="1" stop-color="gray" stop-opacity="0.102"/></linearGradient></defs><g class="a" transform="translate(0 10.69)"><rect class="b" width="256.892" height="237.017" rx="4.5"/></g><rect class="c" width="250.968" height="231.269" rx="4.5" transform="translate(3.133 12.527)"/><rect class="d" width="42.325" height="38.094" rx="4.5" transform="translate(22.478 50.622)"/><rect class="e" width="168.253" height="4.231" rx="2.115" transform="translate(77.496 50.622)"/><rect class="e" width="168.253" height="4.231" rx="2.115" transform="translate(77.496 63.32)"/><rect class="e" width="227.507" height="4.231" rx="2.115" transform="translate(18.242 109.407)"/><rect class="e" width="227.507" height="4.231" rx="2.115" transform="translate(18.242 122.1)"/><rect class="e" width="227.507" height="4.231" rx="2.115" transform="translate(18.242 139.034)"/><rect class="e" width="131.207" height="4.231" rx="2.115" transform="translate(18.242 151.727)"/><rect class="e" width="227.507" height="4.231" rx="2.115" transform="translate(18.242 168.617)"/><rect class="e" width="227.507" height="4.231" rx="2.115" transform="translate(18.242 181.315)"/><rect class="e" width="227.507" height="4.231" rx="2.115" transform="translate(18.242 198.244)"/><rect class="e" width="131.207" height="4.231" rx="2.115" transform="translate(18.242 210.942)"/><g class="a" transform="translate(38.773 65.46)"><rect class="b" width="256.892" height="237.017" rx="4.5"/></g><rect class="f" width="250.968" height="231.269" rx="4.5" transform="translate(41.906 67.297)"/><rect class="d" width="42.325" height="38.094" rx="4.5" transform="translate(61.246 105.391)"/><rect class="e" width="168.253" height="4.231" rx="2.115" transform="translate(116.269 105.391)"/><rect class="e" width="168.253" height="4.231" rx="2.115" transform="translate(116.269 118.089)"/><rect class="e" width="227.507" height="4.231" rx="2.115" transform="translate(57.015 164.177)"/><rect class="e" width="227.507" height="4.231" rx="2.115" transform="translate(57.015 176.875)"/><rect class="e" width="227.507" height="4.231" rx="2.115" transform="translate(57.015 193.804)"/><rect class="e" width="131.207" height="4.231" rx="2.115" transform="translate(57.015 206.502)"/><rect class="e" width="227.507" height="4.231" rx="2.115" transform="translate(57.015 223.387)"/><rect class="e" width="227.507" height="4.231" rx="2.115" transform="translate(57.015 236.085)"/><rect class="e" width="227.507" height="4.231" rx="2.115" transform="translate(57.015 253.014)"/><rect class="e" width="131.207" height="4.231" rx="2.115" transform="translate(57.015 265.712)"/><line class="g" y1="2.273" x2="2.405" transform="translate(295.665 150.381)"/><line class="h" y1="83.492" x2="88.231" transform="translate(303.112 62.117)"/><line class="g" y1="2.273" x2="2.4" transform="translate(393.863 57.456)"/><line class="g" x2="2.466" y2="2.212" transform="translate(296.564 236.085)"/><line class="i" x2="89.378" y2="80.238" transform="translate(304.138 242.881)"/><line class="g" x2="2.46" y2="2.206" transform="translate(396.069 325.413)"/><g class="a" transform="translate(331.525 245.258)"><circle class="b" cx="71.318" cy="71.318" r="71.318"/></g><circle class="c" cx="69.812" cy="69.812" r="69.812" transform="translate(333.031 246.373)"/><path class="j" d="M908.382,651.492c0,25.711-16.78,54.334-37.471,54.334S833.44,677.2,833.44,651.492s16.78-38.762,37.471-38.762S908.382,625.776,908.382,651.492Z" transform="translate(-466.926 -329.019)"/><path class="d" d="M867.08,777.125a69.5,69.5,0,0,0,38.376-11.485c-2.57-14.061-12.362-14.86-12.362-14.86H839.135s-9.24.761-12.135,13.691a69.5,69.5,0,0,0,40.08,12.654Z" transform="translate(-464.038 -390.918)"/><path class="k" d="M709.61,621.29H731.2v18.391a9.675,9.675,0,0,1-9.675,9.675h-2.24a9.675,9.675,0,0,1-9.675-9.675V621.29Z" transform="translate(-318.18 -278.578)"/><path class="l" d="M711.5,619.84h17.9a1.848,1.848,0,0,1,1.848,1.848v16.548a9.675,9.675,0,0,1-9.675,9.675h-2.24a9.675,9.675,0,0,1-9.675-9.675V621.688a1.848,1.848,0,0,1,1.842-1.848Z" transform="translate(-318.202 -277.928)"/><path class="k" d="M878.68,732.373a31.072,31.072,0,0,0,21.59.061V729.78H878.68Z" transform="translate(-487.211 -381.502)"/><circle class="l" cx="30.946" cy="30.946" r="30.946" transform="translate(371.363 290.419)"/><ellipse class="l" cx="2.879" cy="5.4" rx="2.879" ry="5.4" transform="translate(369.118 314.646)"/><ellipse class="l" cx="2.879" cy="5.4" rx="2.879" ry="5.4" transform="translate(429.574 314.646)"/><path class="k" d="M848.61,636.446s17.519,23.962,57.622,15.771c0,0,4.479-5.45-6.426-22.191S858.539,616.009,848.61,636.446Z" transform="translate(-473.728 -331.867)"/><path class="j" d="M848.61,635.745s17.519,23.946,57.622,15.771c0,0,4.479-5.45-6.426-22.191S858.539,615.3,848.61,635.745Z" transform="translate(-473.728 -331.552)"/><g class="a" transform="translate(332.855 0)"><circle class="b" cx="71.318" cy="71.318" r="71.318"/></g><circle class="c" cx="69.812" cy="69.812" r="69.812" transform="translate(334.504 1.048)"/><path class="d" d="M869.472,332.505a69.5,69.5,0,0,0,38.376-11.485c-2.571-14.061-12.362-14.86-12.362-14.86H841.505s-9.24.761-12.135,13.691A69.5,69.5,0,0,0,869.472,332.505Z" transform="translate(-465.101 -191.557)"/><circle class="m" cx="33.698" cy="33.698" r="33.698" transform="translate(369.94 35.689)"/><path class="k" d="M712,176.67h21.59v18.385a9.675,9.675,0,0,1-9.675,9.675h-2.24A9.675,9.675,0,0,1,712,195.055Z" transform="translate(-319.251 -79.216)"/><path class="l" d="M713.859,175.22h17.9a1.848,1.848,0,0,1,1.848,1.848v16.548a9.675,9.675,0,0,1-9.675,9.675h-2.24A9.675,9.675,0,0,1,712,193.616V177.068a1.848,1.848,0,0,1,1.859-1.848Z" transform="translate(-319.251 -78.566)"/><path class="k" d="M881.1,287.753a31.072,31.072,0,0,0,21.59.061V285.16H881.1Z" transform="translate(-488.296 -182.141)"/><circle class="l" cx="30.946" cy="30.946" r="30.946" transform="translate(372.692 45.161)"/><path class="k" d="M860.78,179.013s13.04,26.477,49.833,11.1l-8.567-13.432-15.186-5.45Z" transform="translate(-479.185 -131.056)"/><path class="m" d="M860.78,178.309s13.04,26.477,49.833,11.1l-8.567-13.437-15.186-5.45Z" transform="translate(-479.185 -130.738)"/><path class="m" d="M860.045,164.028a17.877,17.877,0,0,1,4.413-7.21c6.068-6.018,16.068-7.287,21.188-14.149a4,4,0,0,1-1.837,5.649c4.9-.033,10.585-.463,13.36-4.5a9.173,9.173,0,0,1-1.545,9.686c4.347.2,8.986,3.15,9.267,7.491.188,2.89-1.627,5.632-4,7.292a22.2,22.2,0,0,1-8.087,3.045C884.553,173.158,854.65,180.8,860.045,164.028Z" transform="translate(-478.565 -118.25)"/><ellipse class="l" cx="2.879" cy="5.4" rx="2.879" ry="5.4" transform="translate(369.796 70.678)"/><ellipse class="l" cx="2.879" cy="5.4" rx="2.879" ry="5.4" transform="translate(431.704 70.678)"/></svg>