<svg xmlns="http://www.w3.org/2000/svg" xmlns:xlink="http://www.w3.org/1999/xlink" width="377.742" height="251.289" viewBox="0 0 377.742 251.289"><defs><style>.a{fill:#3f3d56;}.b{fill:#f2f2f2;}.c{fill:url(#a);}.d{fill:#00d857;}.e{fill:#f55f44;}.f{fill:#fda57d;}.g{opacity:0.05;}.ac,.ad,.g,.j,.p,.y{isolation:isolate;}.h{opacity:0.7;}.i{fill:url(#b);}.j,.p{opacity:0.1;}.k{fill:#e0e0e0;}.l{fill:url(#c);}.m,.p{fill:#535461;}.n{fill:#fff;}.o{fill:#eee;}.q{opacity:0.5;}.r{fill:url(#d);}.s{fill:#f5f5f5;}.t{fill:url(#e);}.u{fill:url(#f);}.v,.y{opacity:0.6;}.w{fill:#bdbdbd;}.x{fill:url(#g);}.y{fill:#3ad29f;}.z{fill:url(#h);}.aa{fill:url(#i);}.ab{fill:#69f0ae;}.ac{fill:none;stroke:#000;stroke-linecap:round;stroke-miterlimit:10;stroke-width:2px;}.ac,.ad{opacity:0.111;}</style><linearGradient id="a" x1="-3.136" y1="2.28" x2="-3.136" y2="2.286" gradientUnits="objectBoundingBox"><stop offset="0" stop-color="gray" stop-opacity="0.251"/><stop offset="0.535" stop-color="gray" stop-opacity="0.122"/><stop offset="1" stop-color="gray" stop-opacity="0.102"/></linearGradient><linearGradient id="b" x1="-15.292" y1="7.651" x2="-15.292" y2="7.688" xlink:href="#a"/><linearGradient id="c" x1="-2.577" y1="3.64" x2="-2.577" y2="3.655" xlink:href="#a"/><linearGradient id="d" x1="-9.608" y1="9.829" x2="-9.608" y2="9.853" xlink:href="#a"/><linearGradient id="e" x1="-9.759" y1="9.598" x2="-9.759" y2="9.622" xlink:href="#a"/><linearGradient id="f" x1="-20.114" y1="16.34" x2="-20.114" y2="16.382" xlink:href="#a"/><linearGradient id="g" x1="-9.987" y1="6.527" x2="-9.987" y2="6.543" xlink:href="#a"/><linearGradient id="h" x1="-15.735" y1="12.484" x2="-15.735" y2="12.522" xlink:href="#a"/><linearGradient id="i" x1="-12.225" y1="10.407" x2="-12.225" y2="10.438" xlink:href="#a"/></defs><g transform="translate(-231.995 -171.99)"><path class="a" d="M278.148,393.342c0,8.266-4.914,11.152-10.975,11.152-.141,0-.281,0-.421,0-.281-.006-.559-.018-.834-.038-5.471-.387-9.721-3.422-9.721-11.108,0-7.954,10.163-17.992,10.93-18.737h0l.044-.043S278.148,385.079,278.148,393.342Z"/><path class="b" d="M266.772,403.232l4.015-5.609-4.024,6.224-.011.644c-.281-.006-.559-.018-.834-.038l.432-8.269v-.064l.008-.012.04-.781-4.034-6.24,4.047,5.654.01.166.327-6.248-3.454-6.448,3.5,5.35.34-12.953v0l-.056,10.214,3.438-4.05-3.452,4.929-.091,5.594,3.211-5.369-3.224,6.192-.05,3.11,4.661-7.473-4.678,8.558Z"/><path class="c" d="M417.588,345.55c-2.932-10.644-19.214-18.489-31.918-20.514v-5.113q.352-.132.7-.27a11.3,11.3,0,0,0-.61-3,30.85,30.85,0,0,0,13.509-10.685,34.742,34.742,0,0,0-6.86-53.559,6.816,6.816,0,0,0-3.048-12.557A13.3,13.3,0,0,0,368.648,224.4,13.3,13.3,0,0,1,388.2,236.142c0,.117-.007.232-.01.348a13.3,13.3,0,1,0-25.788,4.976,6.653,6.653,0,0,0-4.4,9.744,34.743,34.743,0,0,0-8.473,55.257,30.837,30.837,0,0,0,12.53,9.93v8.522c-12.839,1.834-29.746,9.825-32.7,20.731-2.574,9.5-5.323,19.942-6.69,26.07,11.72,8.235,36.312,13.071,51.724,13.071,14.643,0,38.577-4.364,49.952-11.863C423.109,366.2,420.276,355.3,417.588,345.55Zm-23.477-98.318c0,.121-.005.241-.011.361a6.653,6.653,0,0,0-5.524-6.179q.193-.327.369-.666A6.652,6.652,0,0,1,394.111,247.232Z"/><path class="d" d="M374.365,382.467c14.226,0,37.478-4.24,48.529-11.525-1.2-6.542-3.951-17.127-6.561-26.6-3.324-12.065-24.3-20.429-36.817-20.429H367.457c-12.553,0-33.562,8.413-36.844,20.529-2.5,9.233-5.171,19.374-6.5,25.328C335.5,377.769,359.392,382.467,374.365,382.467Z"/><circle class="e" cx="33.75" cy="33.75" r="33.75" transform="translate(340.386 248.823)"/><path class="f" d="M365.023,306.032h17.658a2.642,2.642,0,0,1,2.642,2.642v18.055a10.848,10.848,0,0,1-10.848,10.848h-1.246a10.848,10.848,0,0,1-10.848-10.848V308.674A2.642,2.642,0,0,1,365.023,306.032Z"/><path class="g" d="M374.912,321.318A29.764,29.764,0,0,0,386,319.181,10.992,10.992,0,0,0,375.039,308.9h-.94A11,11,0,0,0,363.148,318.9a29.77,29.77,0,0,0,11.764,2.413Z"/><circle class="f" cx="29.858" cy="29.858" r="29.858" transform="translate(344.337 258.733)"/><circle class="e" cx="6.463" cy="6.463" r="6.463" transform="translate(357.62 243.078)"/><circle class="e" cx="6.463" cy="6.463" r="6.463" transform="translate(380.599 243.078)"/><circle class="e" cx="12.926" cy="12.926" r="12.926" transform="translate(361.928 225.844)"/><path class="e" d="M388.5,241.642a6.43,6.43,0,0,0-3.607,1.1,6.46,6.46,0,0,1,5.777,11.444,6.459,6.459,0,0,0-2.17-12.544Z"/><path class="e" d="M377.008,223.69a12.865,12.865,0,0,0-8.22,2.951,12.925,12.925,0,0,1,14.286,21.386,12.924,12.924,0,0,0-6.066-24.337Z"/><path class="e" d="M352.593,261.748s3.59,23.7,48.83,10.771l-22.26-19.388Z"/><rect class="d" width="31.107" height="13.237" rx="6.618" transform="translate(251.795 397.456)"/><g class="h"><path class="i" d="M492.537,389v-4.772H468.688v22.06a4.65,4.65,0,0,0,4.649,4.651h14.549a4.651,4.651,0,0,0,4.651-4.649V401.4a6.2,6.2,0,1,0,0-12.4Zm0,10.016v-7.632a3.816,3.816,0,1,1,0,7.632Z"/></g><path class="d" d="M491.769,389.744a5.661,5.661,0,1,0,5.661,5.661,5.66,5.66,0,0,0-5.661-5.661Zm0,9.146a3.484,3.484,0,1,1,3.484-3.484,3.484,3.484,0,0,1-3.484,3.484h0Z"/><path class="j" d="M491.769,389.744a5.661,5.661,0,1,0,5.661,5.661,5.66,5.66,0,0,0-5.661-5.661Zm0,9.146a3.484,3.484,0,1,1,3.484-3.484,3.484,3.484,0,0,1-3.484,3.484h0Z"/><path class="d" d="M469.994,385.392h21.775v20.119a4.268,4.268,0,0,1-4.268,4.268H474.263a4.268,4.268,0,0,1-4.268-4.268h0Z"/><rect class="k" width="282.638" height="9.581" transform="translate(231.995 409.779)"/><g class="h"><rect class="l" width="120.197" height="69.215" rx="14.5" transform="translate(313.215 340.565)"/></g><rect class="m" width="115.842" height="67.938" rx="26.835" transform="translate(315.393 341.842)"/><circle class="n" cx="3.919" cy="3.919" r="3.919" transform="translate(369.395 371.891)"/><rect class="k" width="258.686" height="3.919" transform="translate(243.971 419.36)"/><rect class="j" width="258.686" height="1.306" transform="translate(243.971 419.36)"/><path class="j" d="M487.85,385.392v20.145a4.246,4.246,0,0,1-4.246,4.246h2.178a4.246,4.246,0,0,0,4.246-4.246V385.392Z"/><path class="o" d="M474.3,369.157a1.27,1.27,0,0,0-.962.488c-.286.518.232,1.1.7,1.457a9.351,9.351,0,0,1,2.385,2.22,2.784,2.784,0,0,1,.131,3.077c-.847,1.148-2.867,1.4-3.062,2.808-.125.907.659,1.681,1.453,2.136,1.961,1.124,4.49,1.423,5.911,3.181a4.578,4.578,0,0,1,3.213-2.2c1.31-.3,2.672-.276,4-.478a1.385,1.385,0,0,0,1.1-.585c.371-.755-.687-1.659-.322-2.414.278-.576,1.1-.531,1.691-.763a2.2,2.2,0,0,0,1.1-2.63,4.957,4.957,0,0,0-1.873-2.432,21,21,0,0,0-7.543-3.487,19.293,19.293,0,0,0-4.01-.927A19.936,19.936,0,0,0,474.3,369.157Z"/><rect class="p" width="190.208" height="130.315" transform="translate(419.529 171.99)"/><g class="q"><rect class="r" width="44.775" height="41.311" rx="4.5" transform="translate(436.872 184.824)"/></g><rect class="s" width="43.742" height="40.309" rx="4.5" transform="translate(437.419 185.144)"/><path class="d" d="M444.11,191.784h.737a3.32,3.32,0,0,1,3.32,3.319h0a3.321,3.321,0,0,1-3.32,3.32h-.737a3.32,3.32,0,0,1-3.32-3.32h0A3.319,3.319,0,0,1,444.11,191.784Z"/><path class="k" d="M450.749,191.784h28.587a.369.369,0,0,1,.369.369h0a.369.369,0,0,1-.369.369H450.749a.369.369,0,0,1-.369-.369h0A.369.369,0,0,1,450.749,191.784Z"/><path class="k" d="M450.749,194h28.587a.369.369,0,0,1,.369.369h0a.369.369,0,0,1-.369.369H450.749a.369.369,0,0,1-.369-.369h0A.369.369,0,0,1,450.749,194Z"/><path class="k" d="M440.421,202.029h38.915a.369.369,0,0,1,.369.369h0a.369.369,0,0,1-.369.369H440.421a.369.369,0,0,1-.369-.369h0A.369.369,0,0,1,440.421,202.029Z"/><path class="k" d="M440.421,204.242h38.915a.369.369,0,0,1,.369.369h0a.369.369,0,0,1-.369.369H440.421a.369.369,0,0,1-.369-.369h0A.369.369,0,0,1,440.421,204.242Z"/><path class="k" d="M440.421,207.193h38.915a.369.369,0,0,1,.369.369h0a.369.369,0,0,1-.369.369H440.421a.369.369,0,0,1-.369-.369h0A.369.369,0,0,1,440.421,207.193Z"/><path class="k" d="M440.421,209.406h22.13a.369.369,0,0,1,.369.369h0a.369.369,0,0,1-.369.369h-22.13a.369.369,0,0,1-.369-.369h0A.369.369,0,0,1,440.421,209.406Z"/><path class="k" d="M440.421,212.35h38.915a.369.369,0,0,1,.369.369h0a.369.369,0,0,1-.369.369H440.421a.369.369,0,0,1-.369-.369h0A.369.369,0,0,1,440.421,212.35Z"/><path class="k" d="M440.421,214.563h38.915a.369.369,0,0,1,.369.369h0a.369.369,0,0,1-.369.369H440.421a.369.369,0,0,1-.369-.369h0A.369.369,0,0,1,440.421,214.563Z"/><path class="k" d="M440.421,217.514h38.915a.369.369,0,0,1,.369.369h0a.369.369,0,0,1-.369.369H440.421a.369.369,0,0,1-.369-.369h0A.369.369,0,0,1,440.421,217.514Z"/><path class="k" d="M440.421,219.727h22.13a.369.369,0,0,1,.369.369h0a.369.369,0,0,1-.369.369h-22.13a.369.369,0,0,1-.369-.369h0A.369.369,0,0,1,440.421,219.727Z"/><g class="q"><rect class="t" width="44.775" height="41.311" rx="4.5" transform="translate(443.63 194.37)"/></g><rect class="n" width="43.742" height="40.309" rx="4.5" transform="translate(444.176 194.691)"/><path class="d" d="M450.867,201.33h.737a3.32,3.32,0,0,1,3.32,3.319h0a3.321,3.321,0,0,1-3.32,3.32h-.737a3.32,3.32,0,0,1-3.32-3.32h0A3.319,3.319,0,0,1,450.867,201.33Z"/><path class="k" d="M457.506,201.33h28.587a.369.369,0,0,1,.369.369h0a.369.369,0,0,1-.369.369H457.506a.369.369,0,0,1-.369-.369h0A.369.369,0,0,1,457.506,201.33Z"/><path class="k" d="M457.506,203.543h28.587a.369.369,0,0,1,.369.369h0a.369.369,0,0,1-.369.369H457.506a.369.369,0,0,1-.369-.369h0A.369.369,0,0,1,457.506,203.543Z"/><path class="k" d="M447.178,211.575h38.915a.369.369,0,0,1,.369.369h0a.369.369,0,0,1-.369.369H447.178a.369.369,0,0,1-.369-.369h0A.369.369,0,0,1,447.178,211.575Z"/><path class="k" d="M447.178,213.789h38.915a.369.369,0,0,1,.369.369h0a.369.369,0,0,1-.369.369H447.178a.369.369,0,0,1-.369-.369h0A.369.369,0,0,1,447.178,213.789Z"/><path class="k" d="M447.178,216.739h38.915a.369.369,0,0,1,.369.369h0a.369.369,0,0,1-.369.369H447.178a.369.369,0,0,1-.369-.369h0A.369.369,0,0,1,447.178,216.739Z"/><path class="k" d="M447.178,218.952h22.13a.369.369,0,0,1,.369.369h0a.369.369,0,0,1-.369.369h-22.13a.369.369,0,0,1-.369-.369h0A.369.369,0,0,1,447.178,218.952Z"/><path class="k" d="M447.178,221.9h38.915a.369.369,0,0,1,.369.369h0a.369.369,0,0,1-.369.369H447.178a.369.369,0,0,1-.369-.369h0A.369.369,0,0,1,447.178,221.9Z"/><path class="k" d="M447.178,224.109h38.915a.369.369,0,0,1,.369.369h0a.369.369,0,0,1-.369.369H447.178a.369.369,0,0,1-.369-.369h0A.369.369,0,0,1,447.178,224.109Z"/><path class="k" d="M447.178,227.06h38.915a.369.369,0,0,1,.369.369h0a.369.369,0,0,1-.369.369H447.178a.369.369,0,0,1-.369-.369h0A.369.369,0,0,1,447.178,227.06Z"/><path class="k" d="M447.178,229.273h22.13a.369.369,0,0,1,.369.369h0a.369.369,0,0,1-.369.369h-22.13a.369.369,0,0,1-.369-.369h0A.369.369,0,0,1,447.178,229.273Z"/><rect class="u" width="24.661" height="23.694" transform="translate(506.91 200.62)"/><rect class="s" width="23.887" height="22.63" transform="translate(507.297 201.2)"/><g class="v"><rect class="d" width="8.607" height="1.161" transform="translate(515.13 214.643)"/></g><rect class="w" width="14.7" height="1.161" transform="translate(511.89 216.77)"/><g class="q"><rect class="x" width="53.776" height="63.183" transform="translate(542.866 179.888)"/></g><rect class="n" width="50.979" height="60.768" transform="translate(544.519 180.905)"/><rect class="k" width="35.85" height="1.526" transform="translate(552.146 207.566)"/><rect class="k" width="35.85" height="1.526" transform="translate(552.146 217.609)"/><rect class="k" width="35.85" height="1.526" transform="translate(552.146 220.279)"/><rect class="k" width="15.128" height="1.526" transform="translate(552.146 214.94)"/><rect class="y" width="11.314" height="1.526" transform="translate(576.682 214.94)"/><rect class="d" width="11.314" height="1.526" transform="translate(564.732 226.508)"/><g class="q"><rect class="z" width="31.952" height="26.244" transform="translate(511.49 260.841)"/></g><rect class="b" width="31.146" height="25.314" transform="translate(511.862 261.338)"/><rect class="d" width="31.146" height="5.646" transform="translate(511.862 261.338)"/><rect class="j" width="31.146" height="5.646" transform="translate(511.862 261.338)"/><rect class="k" width="26.182" height="3.288" transform="translate(514.344 269.031)"/><rect class="k" width="19.109" height="1.117" transform="translate(514.344 274.801)"/><rect class="k" width="12.409" height="1.117" transform="translate(514.344 276.724)"/><rect class="k" width="16.379" height="1.117" transform="translate(514.344 278.648)"/><rect class="k" width="19.109" height="1.117" transform="translate(514.344 280.571)"/><rect class="k" width="6.39" height="1.117" transform="translate(514.344 282.494)"/><g class="q"><rect class="aa" width="39.604" height="32.529" transform="translate(491.483 251.216)"/></g><rect class="n" width="38.604" height="31.376" transform="translate(491.944 251.831)"/><rect class="d" width="38.604" height="6.998" transform="translate(491.944 251.831)"/><rect class="s" width="32.452" height="4.076" transform="translate(495.02 261.367)"/><rect class="k" width="23.686" height="1.384" transform="translate(495.02 268.518)"/><rect class="k" width="15.38" height="1.384" transform="translate(495.02 270.902)"/><rect class="k" width="20.302" height="1.384" transform="translate(495.02 273.286)"/><rect class="k" width="23.686" height="1.384" transform="translate(495.02 275.67)"/><rect class="k" width="7.921" height="1.384" transform="translate(495.02 278.054)"/><rect class="ab" width="9.228" height="1.23" transform="translate(496.712 262.751)"/><circle class="p" cx="5.347" cy="5.347" r="5.347" transform="translate(432.133 326.904)"/><circle class="p" cx="5.347" cy="5.347" r="5.347" transform="translate(442.064 309.717)"/><path class="ac" d="M359.323,287.44a8.053,8.053,0,0,0,8.3,0"/><path class="ac" d="M380.769,287.44a8.052,8.052,0,0,0,8.3,0"/><path class="ad" d="M384.942,309.239c-2.2-2.726-6.355-4.564-11.115-4.564a14.945,14.945,0,0,0-10.379,3.756"/></g></svg>