<svg xmlns="http://www.w3.org/2000/svg" width="344.562" height="376.724" viewBox="0 0 344.562 376.724"><defs><style>.a{fill:#f5f5f5;}.b{fill:#00d857;}.c{fill:#3f3d56;}.d{fill:#a0616a;}.e{fill:#2f2e41;}.f{fill:#575a89;}.g{opacity:0.1;}.h{fill:#ffb8b8;}.i{fill:#d0cde1;}.j{fill:#f2f2f2;}</style></defs><path class="a" d="M659.681,70.708v288.31a12.961,12.961,0,0,1-12.957,12.948H529.679a12.934,12.934,0,0,1-12.957-12.948V70.708A12.956,12.956,0,0,1,529.68,57.752h17.515V60a10.669,10.669,0,0,0,10.667,10.67h59.529a10.581,10.581,0,0,0,6.325-2.082,9.911,9.911,0,0,0,1.05-.881A10.638,10.638,0,0,0,628.057,60V57.752h18.668a12.953,12.953,0,0,1,12.957,12.957Z" transform="translate(-381.482 -43.856)"/><circle class="b" cx="25.353" cy="25.353" r="25.353" transform="translate(184.676 168.763)"/><path class="c" d="M639.758,371.665H504.289a16.038,16.038,0,0,1-8.619-2.482,14.474,14.474,0,0,1-6.821-12.149V41.152c0-8.073,6.927-14.641,15.441-14.641h31.837v2.906c0,6.2,5.338,11.246,11.9,11.246h44.882a12.226,12.226,0,0,0,7.065-2.2,11.2,11.2,0,0,0,4.835-9.046V26.511h34.95c8.514,0,15.441,6.568,15.441,14.641V357.035a14.3,14.3,0,0,1-5.437,11.14A15.912,15.912,0,0,1,639.758,371.665ZM504.289,27.4c-8.024,0-14.551,6.169-14.551,13.751V357.035a13.588,13.588,0,0,0,6.41,11.4,15.146,15.146,0,0,0,8.141,2.342H639.758a15.02,15.02,0,0,0,9.444-3.292,13.417,13.417,0,0,0,5.107-10.449V41.152c0-7.582-6.528-13.751-14.551-13.751H605.7v2.016a12.088,12.088,0,0,1-5.218,9.777,13.106,13.106,0,0,1-7.572,2.359H548.027c-7.052,0-12.79-5.444-12.79-12.136V27.4Z" transform="translate(-366.006 -26.511)"/><path class="c" d="M674.171,453.161H595.943V368.936h78.228Zm-77.225-1h76.222v-82.22H596.946Z" transform="translate(-425.466 -216.63)"/><rect class="c" width="51.358" height="1.003" transform="translate(180.291 79.794)"/><rect class="c" width="51.358" height="1.003" transform="translate(180.291 93.446)"/><rect class="c" width="51.358" height="1.003" transform="translate(180.291 107.098)"/><path class="c" d="M260.52,758.479l-.477-.179c-.1-.04-10.545-4.039-15.436-13.109s-2.5-19.991-2.471-20.1l.113-.5.477.179c.1.04,10.545,4.04,15.436,13.109s2.5,19.991,2.471,20.1Zm-15.13-13.711c4.135,7.669,12.385,11.6,14.476,12.5.4-2.24,1.644-11.3-2.487-18.962s-12.384-11.6-14.476-12.5C242.5,728.049,241.259,737.108,245.39,744.769Z" transform="translate(-228.69 -414.096)"/><path class="b" d="M232.319,759.129c8.789,5.288,12.174,15.791,12.174,15.791s-10.865,1.93-19.654-3.358-12.174-15.791-12.174-15.791S223.53,753.841,232.319,759.129Z" transform="translate(-212.665 -431.215)"/><path class="d" d="M707.75,769.189l.815,13.44,4.48,4.887,9.367-6.923L716.3,766.745Z" transform="translate(-392.953 -425.707)"/><path class="e" d="M926.836,816.85s.181-2.715.5-7.874c0,0,13.757-2.715,12.942,6.652s-7.738,12.625-7.738,12.625-3.258-.407-2.851,2.851-11.811,10.182-17.512,3.665L915.68,814.2s3.825,2.647,5.047,1.425S926.836,816.85,926.836,816.85Z" transform="translate(-601.042 -460.744)"/><path class="d" d="M664.455,201.334l11.4,24.029-20.5,5.6-3.934-21.886Z" transform="translate(-361.679 -111.783)"/><circle class="d" cx="15.883" cy="15.883" r="15.883" transform="translate(275.082 71.224)"/><path class="e" d="M850.034,198.954a22.709,22.709,0,0,0-4.283.592,10.84,10.84,0,0,1-11.586-8.082,6.2,6.2,0,0,0-.593-1.931c-.789-1.288-2.585-1.533-4.065-1.237a31.389,31.389,0,0,1-4.392,1.068,6.725,6.725,0,0,1-5.8-3.285,11.139,11.139,0,0,1-1.425-6.728L819,180.523a5.669,5.669,0,0,0,.505-3.081,3.575,3.575,0,0,1,3.386.867c.984.1.241-1.825.972-2.492a1.692,1.692,0,0,1,1.19-.223c2.094.02,3.787-1.581,5.437-2.87a23.1,23.1,0,0,1,9.758-4.451,12.838,12.838,0,0,1,7.12.345,15.209,15.209,0,0,1,4.808,3.411c3.51,3.375,6.618,7.341,8.079,11.986a20.177,20.177,0,0,1,.1,11.7c-.588,1.986-2.362,8.787-4.958,8.946C852.135,204.86,854.094,199.2,850.034,198.954Z" transform="translate(-548.67 -105.033)"/><path class="d" d="M614.349,769.189l-.814,13.44-4.48,4.887-9.367-6.923,6.109-13.847Z" transform="translate(-332.955 -425.707)"/><path class="f" d="M838.812,262.447s2.036-15.069,21.585-10.182,21.585,9.367,21.585,9.367.407,4.073,1.629,4.48,4.48,2.444,2.851,3.665,7.331,13.44,7.331,13.44,5.294,3.258,2.036,18.734-6.924,37.876-6.924,37.876,1.222,7.331-.407,11.4,1.629,6.924,1.629,8.553-.815,9.774-.815,9.774-55.388-2.036-63.126,0S838.812,262.447,838.812,262.447Z" transform="translate(-552.327 -151.312)"/><path class="e" d="M880.764,506.921s3.258,7.738,0,20.363-4.073,44.392-4.073,44.392,0,61.5-2.851,64.755-2.036,8.553-2.036,8.553H859.586s.407-6.516-1.222-10.182-1.222-43.17-1.222-43.17l-6.923-55.388-13.847,52.537s-5.294,39.1-7.331,40.727,0,8.145,0,8.145a20.059,20.059,0,0,1-12.218-2.036V629.1s-6.109-2.444-4.073-11.4,1.222-106.3,7.331-110.776S880.764,506.921,880.764,506.921Z" transform="translate(-545.61 -292.136)"/><path class="e" d="M803.774,816.85s-.181-2.715-.5-7.874c0,0-13.757-2.715-12.942,6.652s7.738,12.625,7.738,12.625,3.258-.407,2.851,2.851,11.811,10.182,17.512,3.665L814.93,814.2s-3.825,2.647-5.047,1.425S803.774,816.85,803.774,816.85Z" transform="translate(-533.376 -460.744)"/><path class="d" d="M797.588,512.611l-1.222,5.7s-14.662,23.214-2.444,25.658,11.4-22.4,11.4-22.4l1.222-5.294Z" transform="translate(-532.688 -296.401)"/><path class="f" d="M820.911,281.4s8.553-5.7,12.625,1.222,8.145,22.807,8.145,22.807l-5.294,38.69-19.549,44.8-11.811-4.48s2.036-5.7,1.222-8.145,3.258-8.553,3.258-8.553l4.073-31.767S815.21,281.809,820.911,281.4Z" transform="translate(-541.553 -166.804)"/><path class="g" d="M638.008,396.366l-13.44,48.465-6.109-2.444Z" transform="translate(-343.377 -220.068)"/><path class="g" d="M896.008,291.65a39.945,39.945,0,0,0,9.831-1.184l-.2-.789c-7.606,1.925-16.208,1.451-25.564-1.409-8.325-2.545-16.189-6.621-23.794-10.563l-.375.723c7.637,3.959,15.535,8.052,23.931,10.619A55.448,55.448,0,0,0,896.008,291.65Z" transform="translate(-569.802 -165.977)"/><rect class="b" width="77.393" height="83.175" transform="translate(118.847 223.027)"/><path class="e" d="M378.013,208.862c-5.215-12.3-18.488-14.627-18.488-14.627s-12.781-3.41-23.454,12.829c-9.949,15.135-22.778,29.316-6.508,35.357l4.3-9.026.516,10.388a66.244,66.244,0,0,0,7.163,1.087c18.047,1.833,35.059,4.882,35.374-1.64C377.331,234.559,383.03,220.7,378.013,208.862Z" transform="translate(-273.258 -119.468)"/><path class="h" d="M315.231,449.015l-1.161,29.612s-12.193,23.806-2.322,23.225,8.709-23.225,8.709-23.225l3.484-27.87Z" transform="translate(-265.536 -261.091)"/><path class="h" d="M460.746,437.267l3.484,29.612s10.451,15.677,2.322,20.9-8.129-18.58-8.129-18.58l-8.709-30.193Z" transform="translate(-344.278 -254.568)"/><path class="h" d="M405.79,554.033l-10.451,40.644s-4.645,16.258-11.032,24.386l-2.323,4.645-9.29-1.161,6.387-26.128,4.064-48.192Z" transform="translate(-301.515 -316.175)"/><path class="g" d="M405.79,554.033l-10.451,40.644s-4.645,16.258-11.032,24.386l-2.323,4.645-9.29-1.161,6.387-26.128,4.064-48.192Z" transform="translate(-301.515 -316.175)"/><path class="e" d="M344.3,700.746l15.879,3.677-6.544,15.427s2.66,9.236.126,14.127-2.168,13.765-2.168,13.765l-3.441-.542s-8.355,15.73-18.228,11.236.628-15.184.628-15.184,8.536-16.877,9.62-23.76S344.3,700.746,344.3,700.746Z" transform="translate(-275.42 -400.856)"/><path class="g" d="M344.3,700.746l15.879,3.677-6.544,15.427s2.66,9.236.126,14.127-2.168,13.765-2.168,13.765l-3.441-.542s-8.355,15.73-18.228,11.236.628-15.184.628-15.184,8.536-16.877,9.62-23.76S344.3,700.746,344.3,700.746Z" transform="translate(-275.42 -400.856)"/><path class="h" d="M337.448,541.7l8.709,43.547s-2.9,21.483.581,34.838l3.484,12.774h11.613V585.828s.581-38.322-1.161-41.225S337.448,541.7,337.448,541.7Z" transform="translate(-281.946 -312.551)"/><path class="e" d="M377.2,736.207l-16.258,1.161,4.064,16.258s-4.064,8.709-2.323,13.935,0,13.935,0,13.935h3.484s5.806,16.838,16.258,13.935,1.742-15.1,1.742-15.1-5.806-18-5.806-24.967S377.2,736.207,377.2,736.207Z" transform="translate(-294.992 -420.544)"/><circle class="h" cx="15.677" cy="15.677" r="15.677" transform="translate(70.598 83.411)"/><path class="h" d="M379.109,262.994s1.161,19.741-2.322,20.9,18,0,18,0-2.9-12.193,0-15.677S379.109,262.994,379.109,262.994Z" transform="translate(-303.575 -157.81)"/><path class="i" d="M382.145,302.165s-15.1-1.161-18,0-11.032,6.968-11.032,6.968l4.064,36.58,33.1,6.968,5.226-7.548,5.226-11.032L398.4,320.164l-.581-8.129Z" transform="translate(-290.644 -179.271)"/><path class="i" d="M332.815,323.7s-7.548,1.742-8.129,7.548-.581,20.322,0,22.645,0,3.484-.581,4.064-1.742-.581-.581,1.161,1.161,1.742.581,3.484-2.323-.581-1.161,2.322,1.742,3.484,1.161,4.064-2.323,13.935-2.323,13.935l9.871,1.742,9.871-34.257Z" transform="translate(-273.249 -191.512)"/><path class="i" d="M443.335,323.7a6.188,6.188,0,0,1,5.226,3.484c1.742,3.484,6.387,26.128,5.806,27.87s-1.742-.581-.581,2.9,0,2.9.581,5.226-2.323,0,0,2.323,3.484,2.9,2.323,4.064-2.9-1.161-1.161,1.161a11.08,11.08,0,0,1,1.742,5.806l-13.935,2.9-4.064-32.515Z" transform="translate(-338.479 -191.512)"/><path class="e" d="M327.373,319.518l2.852-1.426a2.442,2.442,0,0,1,3.285,1.111l13.1,26.786,14.516,9.29,10.451-4.645s7.548-11.613,5.226-17.419c-1.575-3.937-3.419-9.994-4.444-13.486a1.043,1.043,0,0,1,1.581-1.159l1.979,1.319a2.9,2.9,0,0,1,1.229,1.823l4.3,20.793L375.642,354.7v11.613l4.064,62.708s-15.1-2.323-30.193-5.226-34.257-5.226-34.257-5.226,9.871-51.1,18-59.8c0,0,0-6.387,1.161-6.968s2.323-4.645,2.323-4.645l-10.517-24.485a2.442,2.442,0,0,1,1.152-3.148Z" transform="translate(-269.625 -188.258)"/><path class="e" d="M184.607,182.234l-13.3-6.968-18.371,2.851-3.8,16.787,9.461-.364,2.643-6.167v6.066l4.366-.168,2.534-9.819L169.72,194.9l15.52-.317Z" transform="translate(-82.801 -97.31)"/><ellipse class="h" cx="1.742" cy="3.048" rx="1.742" ry="3.048" transform="translate(68.566 96.039)"/><path class="e" d="M468,421.08H455.343V408.425h-.487V421.08H442.2v.487h12.655v12.655h.487V421.568H468Z" transform="translate(-245.516 -226.763)"/><rect class="j" width="51.358" height="1.003" transform="translate(131.81 247.923)"/><rect class="j" width="51.358" height="1.003" transform="translate(131.81 261.575)"/><rect class="j" width="51.358" height="1.003" transform="translate(131.81 275.227)"/></svg>