<svg xmlns="http://www.w3.org/2000/svg" width="43.291" height="43.292" viewBox="0 0 43.291 43.292"><defs><style>.a{fill:#54ab3d;}.b{fill:#2f2a4a;}</style></defs><g transform="translate(5.123 0.497)"><path class="a" d="M1010.388,506.97a8.592,8.592,0,1,0,8.593,8.592A8.592,8.592,0,0,0,1010.388,506.97Zm-1.2,14.017-4.541-4.542,2.319-2.318,2.222,2.224,4.616-4.617,2.319,2.318Z" transform="translate(-993.518 -506.97)"/><path class="a" d="M989.907,551.47h2.379l-2.728,10.915h4.956l.9-10.915h2.428l-3.572-3.965Z" transform="translate(-989.558 -520.085)"/><path class="a" d="M1030.753,547.519h2.4l-4.67-4.053-3.261,4.053h2.852l1.112,13.559h4.956Z" transform="translate(-1001.097 -518.778)"/></g><g transform="translate(8.302 0.497)"><path class="b" d="M1012.087,535.778l-3.966,3.965h2.168l-.515,18.847h4.627l-.515-18.847h2.167Z" transform="translate(-998.743 -516.291)"/><path class="b" d="M997.727,509.778l1.157-1.127-1.6-.233-.715-1.448-.715,1.448-1.6.233,1.156,1.127-.272,1.592,1.429-.751,1.43.751Z" transform="translate(-994.257 -506.97)"/><path class="b" d="M1000.959,530.722l-.715-1.449-.715,1.449-1.6.233,1.157,1.127-.273,1.592,1.43-.752,1.43.752-.272-1.592,1.156-1.127Z" transform="translate(-995.446 -514.187)"/><path class="b" d="M1034.3,518.428l-1.6-.232-.716-1.449-.715,1.449-1.6.232,1.156,1.128-.274,1.592,1.43-.752,1.431.752-.273-1.592Z" transform="translate(-1005.718 -510.134)"/></g><path class="b" d="M991.194,517.975a.5.5,0,0,0-.6.361L982,552.705a.5.5,0,0,0,.361.6.486.486,0,0,0,.12.014.5.5,0,0,0,.481-.375l8.593-34.369A.5.5,0,0,0,991.194,517.975Z" transform="translate(-981.985 -510.029)"/><path class="b" d="M985.046,524.4a.5.5,0,0,0,.6-.361l4.3-17.184a.5.5,0,1,0-.962-.24l-4.3,17.184A.5.5,0,0,0,985.046,524.4Z" transform="translate(-982.854 -506.235)"/><path class="b" d="M982.361,541.635a.487.487,0,0,0,.12.015.5.5,0,0,0,.481-.375l.9-3.612a.5.5,0,0,0-.962-.24l-.9,3.612A.5.5,0,0,0,982.361,541.635Z" transform="translate(-981.985 -516.204)"/><path class="b" d="M1037.062,535.421a.5.5,0,0,0-.962.24l5.7,22.812a.5.5,0,0,0,.481.375.481.481,0,0,0,.12-.014.5.5,0,0,0,.361-.6Z" transform="translate(-999.489 -515.557)"/><path class="b" d="M1034.562,525.418a.5.5,0,1,0-.962.241l.686,2.742a.5.5,0,0,0,.479.376.52.52,0,0,0,.12-.014.5.5,0,0,0,.361-.6Z" transform="translate(-998.68 -512.321)"/><path class="b" d="M1042.177,533.585a.5.5,0,0,0,.481.375.488.488,0,0,0,.12-.015.5.5,0,0,0,.361-.6l-4.923-19.688a.5.5,0,1,0-.962.24Z" transform="translate(-999.863 -508.515)"/><path class="b" d="M1021.092,533.757a.5.5,0,0,0-.453.534l1.943,23.686a.5.5,0,0,0,.493.455h.042a.5.5,0,0,0,.453-.534l-1.943-23.686A.488.488,0,0,0,1021.092,533.757Z" transform="translate(-994.491 -515.14)"/><path class="b" d="M1005.736,533.757a.491.491,0,0,0-.535.453l-1.391,16.959a.5.5,0,0,0,.453.534l.041,0a.5.5,0,0,0,.492-.455l1.393-16.959A.5.5,0,0,0,1005.736,533.757Z" transform="translate(-989.046 -515.14)"/><path class="b" d="M1003.766,564.488a.49.49,0,0,0-.535.453l-.236,2.9a.494.494,0,0,0,.453.534h.041a.5.5,0,0,0,.493-.455l.237-2.9A.5.5,0,0,0,1003.766,564.488Z" transform="translate(-988.782 -525.083)"/><path class="b" d="M1010.151,506.237a9.088,9.088,0,1,0,9.088,9.088A9.1,9.1,0,0,0,1010.151,506.237Zm0,17.184a8.1,8.1,0,1,1,8.1-8.1A8.105,8.105,0,0,1,1010.151,523.421Z" transform="translate(-988.158 -506.236)"/><path class="b" d="M1014.585,513.426l-4.265,4.266-1.873-1.872a.5.5,0,0,0-.7,0l-2.318,2.319a.5.5,0,0,0,0,.7l4.541,4.542a.5.5,0,0,0,.7,0l6.935-6.935a.5.5,0,0,0,0-.7l-2.319-2.318A.5.5,0,0,0,1014.585,513.426Zm-4.265,8.9-3.841-3.841,1.617-1.617,1.872,1.872a.5.5,0,0,0,.7,0l4.266-4.266,1.617,1.617Z" transform="translate(-989.523 -508.515)"/></svg>