<svg xmlns="http://www.w3.org/2000/svg" width="43.291" height="43.292" viewBox="0 0 43.291 43.292"><defs><style>.a{fill:#2f2a4a;}.b{fill:#54ab3d;}</style></defs><g transform="translate(13.948 3.139)"><path class="a" d="M424.924,533.61l-9.914,19.828,21.15-25.777Z" transform="translate(-407.313 -517.747)"/><path class="a" d="M417.95,540.365H406.678l5.636,11.272Z" transform="translate(-404.617 -521.858)"/><path class="a" d="M416.6,515.649l2.424-1.322-2.424-1.322H406.055l-2.424,1.322,2.424,1.322Z" transform="translate(-403.631 -513.005)"/></g><g transform="translate(15.547 4.461)"><path class="b" d="M431.073,514.959l-7.27,3.966,3.966,10.575,11.236-5.948Z" transform="translate(-411.756 -514.959)"/><path class="b" d="M407.977,524.73l-1.983,5.288h12.2l-1.983-5.288Z" transform="translate(-405.994 -518.121)"/></g><path class="a" d="M426.19,521.732a.5.5,0,0,0-.018-.651l-7.932-8.592a.51.51,0,0,0-.126-.1l-7.272-3.966a.5.5,0,0,0-.237-.06h-11.9a.5.5,0,0,0-.237.06L391.2,512.39a.51.51,0,0,0-.126.1l-7.931,8.592a.5.5,0,0,0-.019.651l21.15,25.777a.5.5,0,0,0,.766,0Zm-34.65-8.286,6.553,3.575-3.617,9.644-10.168-5.384Zm26.234,0,7.232,7.835-10.168,5.384-3.618-9.644Zm-3.918,13.425h-18.4l3.594-9.584h11.209Zm-.087.992-9.112,18.223-9.112-18.223Zm-28.314-4.853,8.916,4.722,7.868,15.733Zm21.621,20.454,7.868-15.733,8.915-4.722Zm-8.24-34.109h11.642l6.363,3.47-6.363,3.47H398.835l-6.363-3.47Z" transform="translate(-383.011 -508.364)"/><path class="a" d="M444.7,536.546l-2,2.44a.5.5,0,1,0,.766.629l2-2.439a.5.5,0,0,0-.766-.629Z" transform="translate(-402.287 -517.424)"/><path class="a" d="M432.994,544.029a.5.5,0,0,0-.7.07l-14.976,18.251a.5.5,0,1,0,.766.629l14.976-18.251A.5.5,0,0,0,432.994,544.029Z" transform="translate(-394.076 -519.868)"/><path class="a" d="M441.647,546.074l-8.384,10.218a.5.5,0,0,0,.766.629l8.384-10.219a.5.5,0,1,0-.766-.628Z" transform="translate(-399.234 -520.506)"/><path class="a" d="M429.291,565.127l-1.528,1.864a.5.5,0,0,0,.766.629l1.529-1.864a.5.5,0,0,0-.767-.629Z" transform="translate(-397.455 -526.672)"/></svg>