<svg xmlns="http://www.w3.org/2000/svg" width="43.291" height="43.292" viewBox="0 0 43.291 43.292"><defs><style>.a{fill:#54ab3d;}.b{fill:#2f2a4a;}</style></defs><g transform="translate(4.479 31.222)"><path class="a" d="M531.931,558.344l-2.968-2.968-6.475,6.476,2.967,2.968a2.063,2.063,0,0,0,2.918,0l3.557-3.557A2.063,2.063,0,0,0,531.931,558.344Z" transform="translate(-494.226 -553.852)"/><path class="a" d="M483.486,553.122l-2.778,2.778,1.016,3.8,3.8,1.017,2.778-2.778-1.017-3.8Z" transform="translate(-480.708 -553.122)"/></g><g transform="translate(2.458 2.467)"><path class="b" d="M486.2,511.925H486.2l-4.187-1.313-1.259,3.022-3.031,1.264,1.317,4.193,4.833-2.339Z" transform="translate(-477.719 -510.613)"/><path class="b" d="M485.565,536.317a13.821,13.821,0,0,0,1.2,5.629c.254.023.509.05.762.1l5.24-5.24-6.039-6.038A13.809,13.809,0,0,0,485.565,536.317Z" transform="translate(-480.258 -517.134)"/><path class="b" d="M503.425,518.456a13.8,13.8,0,0,0-5.552,1.163l6.039,6.038,5.247-5.245c-.047-.249-.074-.5-.1-.752A13.812,13.812,0,0,0,503.425,518.456Z" transform="translate(-484.24 -513.151)"/><path class="b" d="M497.614,554.079c.047.252.075.507.1.762a13.812,13.812,0,0,0,11.184.036l-6.041-6.039Z" transform="translate(-484.156 -522.981)"/><path class="b" d="M521.947,530.592a7.46,7.46,0,0,1-.752-.1l-5.244,5.245,6.039,6.038a13.816,13.816,0,0,0-.044-11.186Z" transform="translate(-490.09 -517.046)"/></g><path class="b" d="M487.173,553.424l-3.8-1.017a.5.5,0,0,0-.478.129l-2.78,2.779a.5.5,0,0,0-.128.479l1.017,3.8a.5.5,0,0,0,.35.35l3.8,1.017a.5.5,0,0,0,.13.017.5.5,0,0,0,.35-.145l2.779-2.78a.493.493,0,0,0,.128-.479l-1.017-3.8A.5.5,0,0,0,487.173,553.424Zm-2.039,6.5-3.242-.869-.869-3.243,2.374-2.374,3.242.869.869,3.243Z" transform="translate(-475.991 -521.664)"/><path class="b" d="M514.955,521.092a8.22,8.22,0,0,0,1.963-8.546.494.494,0,0,0-.356-.321.483.483,0,0,0-.461.133l-5.441,5.439-3.242-.869-.869-3.243,5.439-5.44a.5.5,0,0,0-.189-.819,8.266,8.266,0,0,0-10.868,9.1l-4.714,4.713L485.37,510.4a.487.487,0,0,0-.2-.122L474.73,507a.5.5,0,0,0-.621.621l3.28,10.444a.506.506,0,0,0,.122.2L488.352,529.1l-4.707,4.707a8.274,8.274,0,1,0,6.889,6.889l4.709-4.709,10.893,10.889a.5.5,0,0,0,.35.145h0a.5.5,0,0,0,.352-.146l7.153-7.174a.5.5,0,0,0,0-.7l-10.883-10.879,4.711-4.713A8.29,8.29,0,0,0,514.955,521.092Zm-29.788-9.5,10.349,10.345-2.882,2.881-9.343-9.344Zm-5-1.85-.973,2.333-2.341.975-1.515-4.824ZM477.153,514l2.612-1.089a.494.494,0,0,0,.267-.267l1.086-2.6,3.212,1.008-2.007,4.153-4.16,2.013Zm1.55,4.053,3.884-1.881,9.347,9.346-2.881,2.882Zm27.781,27.773-10.54-10.538,2.88-2.881,10.536,10.536Zm6.454-6.472-2.878,2.886-10.536-10.534,2.882-2.881ZM507.3,522.532l-17.648,17.649a.493.493,0,0,0-.136.442,7.284,7.284,0,1,1-7.155-5.921,7.382,7.382,0,0,1,1.362.127.5.5,0,0,0,.442-.137l17.648-17.649a.5.5,0,0,0,.136-.442,7.276,7.276,0,0,1,8.742-8.462l-5.047,5.046a.5.5,0,0,0-.129.479l1.017,3.8a.5.5,0,0,0,.35.35l3.8,1.017a.5.5,0,0,0,.478-.128l5.047-5.047a7.276,7.276,0,0,1-8.462,8.742A.49.49,0,0,0,507.3,522.532Z" transform="translate(-474.086 -506.966)"/><path class="b" d="M514.4,526.221l-1.982,1.983a.5.5,0,1,0,.7.7l1.983-1.983a.5.5,0,0,0-.7-.7Z" transform="translate(-486.441 -513.149)"/><path class="b" d="M504.379,532.418l-9.973,9.974a.5.5,0,1,0,.7.7l9.975-9.974a.5.5,0,0,0-.7-.7Z" transform="translate(-480.613 -515.154)"/><path class="b" d="M474.582,532.924a.5.5,0,0,0,.5-.5V522.176a.5.5,0,1,0-.99,0v10.253A.5.5,0,0,0,474.582,532.924Z" transform="translate(-474.086 -511.727)"/><path class="b" d="M474.582,545.7a.5.5,0,0,0,.5-.5v-2.983a.5.5,0,1,0-.99,0V545.2A.5.5,0,0,0,474.582,545.7Z" transform="translate(-474.086 -518.212)"/></svg>