<svg xmlns="http://www.w3.org/2000/svg" width="40.057" height="40.057" viewBox="0 0 40.057 40.057"><defs><style>.a{fill:none;stroke:#2f2a4a;stroke-linejoin:round;stroke-width:1.5px;}.b{fill:#54ab3d;}.c{fill:#2f2a4a;}</style></defs><g transform="translate(0.75 0.75)"><rect class="a" width="38.557" height="38.557"/><g transform="translate(5.563 5.946)"><path class="b" d="M802.982,532.527l-8.592-4.3-8.592,4.3,8.592,4.3Z" transform="translate(-780.674 -523.874)"/><path class="c" d="M794.39,538.878l-8.592-4.3v8.592l8.592,4.3Z" transform="translate(-780.674 -525.929)"/><path class="c" d="M785.339,541.326l8.592,4.3a.5.5,0,0,0,.443,0l8.592-4.3a.5.5,0,0,0,.275-.444V532.29a.5.5,0,0,0-.275-.443l-8.592-4.3a.5.5,0,0,0-.443,0l-8.592,4.3a.5.5,0,0,0-.275.443v8.592A.5.5,0,0,0,785.339,541.326Zm16.91-.75-7.6,3.8v-7.483l7.6-3.8Zm-8.1-12.027,7.484,3.741-7.484,3.741-7.484-3.741Zm-8.1,4.544,7.6,3.8v7.483l-7.6-3.8Z" transform="translate(-780.437 -523.637)"/><path class="c" d="M778.719,544.984h1.322a.5.5,0,1,0,0-.992h-.826V530.444h.826a.5.5,0,1,0,0-.992h-1.322a.5.5,0,0,0-.5.5v14.541A.5.5,0,0,0,778.719,544.984Z" transform="translate(-778.224 -524.269)"/><path class="c" d="M802.056,557.79a.5.5,0,0,0-.5.5v.826H788.01v-.826a.5.5,0,1,0-.991,0v1.322a.5.5,0,0,0,.5.5h14.541a.5.5,0,0,0,.5-.5v-1.322A.5.5,0,0,0,802.056,557.79Z" transform="translate(-781.07 -533.438)"/><path class="c" d="M787.514,524.1a.5.5,0,0,0,.5-.5v-.826H801.56v.826a.5.5,0,1,0,.992,0v-1.322a.5.5,0,0,0-.5-.5H787.514a.5.5,0,0,0-.5.5v1.322A.5.5,0,0,0,787.514,524.1Z" transform="translate(-781.07 -521.79)"/><path class="c" d="M817.174,529.452h-1.322a.5.5,0,1,0,0,.992h.826v13.549h-.826a.5.5,0,1,0,0,.992h1.322a.5.5,0,0,0,.5-.5V529.948A.5.5,0,0,0,817.174,529.452Z" transform="translate(-790.238 -524.269)"/></g></g></svg>