<svg xmlns="http://www.w3.org/2000/svg" width="43.292" height="43.292" viewBox="0 0 43.292 43.292"><defs><style>.a{fill:#2f2a4a;}.b{fill:#54ab3d;}.c{fill:#fff;}</style></defs><ellipse class="a" cx="5.75" cy="5.75" rx="5.75" ry="5.75" transform="translate(15.656 15.857)"/><g transform="translate(0.497 0.495)"><path class="b" d="M586.539,507.29a5.949,5.949,0,1,0,5.948,5.949A5.948,5.948,0,0,0,586.539,507.29Zm0,6.279a1.652,1.652,0,1,1,1.652-1.653A1.653,1.653,0,0,1,586.539,513.569Z" transform="translate(-580.59 -507.29)"/><path class="b" d="M631.485,552.237a5.949,5.949,0,1,0,5.949,5.949A5.949,5.949,0,0,0,631.485,552.237Zm0,6.279a1.652,1.652,0,1,1,1.652-1.652A1.652,1.652,0,0,1,631.485,558.516Z" transform="translate(-595.133 -521.833)"/><path class="c" d="M608.926,540.3l5.288-3.3-5.288-3.3Z" transform="translate(-589.758 -515.833)"/></g><g transform="translate(0.497 0.495)"><path class="c" d="M586.539,552.237a5.949,5.949,0,1,0,5.948,5.949A5.948,5.948,0,0,0,586.539,552.237Zm0,6.279a1.652,1.652,0,1,1,1.652-1.652A1.652,1.652,0,0,1,586.539,558.516Z" transform="translate(-580.59 -521.833)"/><path class="c" d="M631.485,507.29a5.949,5.949,0,1,0,5.949,5.949A5.949,5.949,0,0,0,631.485,507.29Zm0,6.279a1.652,1.652,0,1,1,1.652-1.653A1.652,1.652,0,0,1,631.485,513.569Z" transform="translate(-595.133 -507.29)"/></g><path class="a" d="M588.356,515.251a2.148,2.148,0,1,0-2.148-2.148A2.152,2.152,0,0,0,588.356,515.251Zm0-3.305A1.157,1.157,0,1,1,587.2,513.1,1.158,1.158,0,0,1,588.356,511.946Z" transform="translate(-581.911 -507.98)"/><path class="a" d="M588.356,555.9a2.148,2.148,0,1,0,2.149,2.148A2.15,2.15,0,0,0,588.356,555.9Zm0,3.3a1.156,1.156,0,1,1,1.156-1.157A1.158,1.158,0,0,1,588.356,559.206Z" transform="translate(-581.911 -522.524)"/><path class="a" d="M633.3,555.9a2.148,2.148,0,1,0,2.148,2.148A2.151,2.151,0,0,0,633.3,555.9Zm0,3.3a1.156,1.156,0,1,1,1.157-1.157A1.158,1.158,0,0,1,633.3,559.206Z" transform="translate(-596.454 -522.524)"/><path class="a" d="M633.3,515.251a2.148,2.148,0,1,0-2.148-2.148A2.151,2.151,0,0,0,633.3,515.251Zm0-3.305a1.157,1.157,0,1,1-1.157,1.157A1.159,1.159,0,0,1,633.3,511.946Z" transform="translate(-596.454 -507.98)"/><path class="a" d="M603.685,524.451a.5.5,0,0,0-.459-.306H597.94a.5.5,0,0,0-.5.5v5.288a.5.5,0,0,0,.846.35l.892-.89.972.971a.5.5,0,0,0,.7-.7l-1.323-1.322a.5.5,0,0,0-.7,0l-.4.4v-3.6h3.6l-.4.4a.494.494,0,0,0,0,.7l1.322,1.322a.5.5,0,0,0,.7-.7l-.971-.972.892-.891A.5.5,0,0,0,603.685,524.451Z" transform="translate(-585.547 -512.248)"/><path class="a" d="M616.986,549.622a.5.5,0,0,0,.458.306h5.288a.5.5,0,0,0,.5-.5v-5.288a.5.5,0,0,0-.846-.35l-.891.891-.975-.975a.5.5,0,0,0-.7.7l1.326,1.326a.495.495,0,0,0,.7,0l.4-.4v3.595h-3.6l.4-.4a.5.5,0,0,0,0-.7l-1.323-1.323a.5.5,0,0,0-.7.7l.973.973-.892.891A.5.5,0,0,0,616.986,549.622Z" transform="translate(-591.831 -518.532)"/><path class="a" d="M603.659,546.519a.5.5,0,0,0-.7,0l-1.322,1.322a.5.5,0,0,0,0,.7l.4.4h-3.6v-3.595l.4.4a.494.494,0,0,0,.7,0l1.323-1.322a.5.5,0,0,0-.7-.7l-.971.971-.891-.891a.5.5,0,0,0-.846.35v5.288a.5.5,0,0,0,.5.5h5.288a.5.5,0,0,0,.351-.846l-.892-.891.973-.973A.5.5,0,0,0,603.659,546.519Z" transform="translate(-585.547 -518.534)"/><path class="a" d="M623.226,524.64a.5.5,0,0,0-.5-.5h-5.288a.5.5,0,0,0-.351.846l.891.891-.975.976a.5.5,0,0,0,.7.7l1.326-1.326a.5.5,0,0,0,0-.7l-.4-.4h3.6v3.595l-.4-.395a.5.5,0,0,0-.7,0l-1.324,1.323a.5.5,0,1,0,.7.7l.973-.972.891.89a.5.5,0,0,0,.846-.35Z" transform="translate(-591.83 -512.248)"/><path class="a" d="M615.73,556.528h-9.645v-1.262a.5.5,0,0,0-.846-.35l-3.739,3.739a.495.495,0,0,0,0,.7l3.739,3.739a.5.5,0,0,0,.35.144.5.5,0,0,0,.19-.036.5.5,0,0,0,.306-.459v-1.26h8.323a.5.5,0,1,0,0-.992h-8.819a.5.5,0,0,0-.5.5v.559l-2.542-2.541,2.542-2.543v.559a.5.5,0,0,0,.5.5H615.73a.5.5,0,1,0,0-.99Z" transform="translate(-586.812 -522.158)"/><path class="a" d="M600.873,516.535h9.645V517.8a.494.494,0,0,0,.307.457.477.477,0,0,0,.19.038.5.5,0,0,0,.35-.145l3.738-3.739a.494.494,0,0,0,0-.7l-3.738-3.739a.5.5,0,0,0-.847.35v1.26h-8.324a.5.5,0,0,0,0,.992h8.82a.5.5,0,0,0,.5-.5v-.559l2.543,2.541-2.543,2.543v-.559a.5.5,0,0,0-.5-.5H600.873a.5.5,0,1,0,0,.99Z" transform="translate(-586.496 -507.614)"/><path class="a" d="M588.846,532.291v10.141a.5.5,0,0,0,.991,0v-9.645h1.26a.5.5,0,0,0,.351-.846l-3.74-3.739a.51.51,0,0,0-.7,0l-3.739,3.739a.5.5,0,0,0,.35.846h1.261v8.324a.5.5,0,0,0,.992,0v-8.819a.5.5,0,0,0-.5-.5h-.559l2.542-2.542L589.9,531.8h-.56A.5.5,0,0,0,588.846,532.291Z" transform="translate(-580.913 -513.516)"/><path class="a" d="M630.82,537.713v-10.14a.5.5,0,0,0-.992,0v9.645h-1.26a.5.5,0,0,0-.351.846l3.739,3.739a.5.5,0,0,0,.7,0l3.738-3.739a.5.5,0,0,0-.351-.846h-1.26v-8.324a.5.5,0,0,0-.992,0v8.819a.5.5,0,0,0,.5.5h.559l-2.542,2.541-2.543-2.541h.56A.5.5,0,0,0,630.82,537.713Z" transform="translate(-595.457 -513.197)"/><path class="a" d="M615.219,535.476a6.444,6.444,0,1,0-6.445,6.444A6.452,6.452,0,0,0,615.219,535.476Zm-11.9,0a5.452,5.452,0,1,1,5.452,5.453A5.46,5.46,0,0,1,603.322,535.476Z" transform="translate(-587.128 -513.83)"/><path class="a" d="M586.3,519.447A6.444,6.444,0,1,0,579.856,513,6.452,6.452,0,0,0,586.3,519.447Zm0-11.9a5.447,5.447,0,0,1,3.8,9.355v-1.351a2.97,2.97,0,0,0-.67-1.875.5.5,0,0,0-.766.629,1.94,1.94,0,0,1,.445,1.246v2.113a5.4,5.4,0,0,1-5.619,0v-2.113a1.939,1.939,0,0,1,.446-1.246.5.5,0,0,0-.767-.629,2.968,2.968,0,0,0-.67,1.875V516.9a5.447,5.447,0,0,1,3.8-9.355Z" transform="translate(-579.856 -506.558)"/><path class="a" d="M586.3,551.5a6.444,6.444,0,1,0,6.444,6.445A6.453,6.453,0,0,0,586.3,551.5Zm3.8,10.347V560.5a2.963,2.963,0,0,0-.67-1.874.5.5,0,1,0-.766.628,1.943,1.943,0,0,1,.445,1.246v2.113a5.4,5.4,0,0,1-5.619,0V560.5a1.942,1.942,0,0,1,.446-1.246.5.5,0,1,0-.767-.628,2.961,2.961,0,0,0-.67,1.874v1.351a5.453,5.453,0,1,1,7.6,0Z" transform="translate(-579.856 -521.101)"/><path class="a" d="M631.248,551.5a6.444,6.444,0,1,0,6.444,6.445A6.452,6.452,0,0,0,631.248,551.5Zm3.8,10.347V560.5a2.959,2.959,0,0,0-.67-1.874.5.5,0,0,0-.767.628,1.943,1.943,0,0,1,.445,1.246v2.113a5.4,5.4,0,0,1-5.618,0V560.5a1.945,1.945,0,0,1,.446-1.246.5.5,0,1,0-.767-.628,2.96,2.96,0,0,0-.67,1.874v1.351a5.454,5.454,0,1,1,7.6,0Z" transform="translate(-594.399 -521.101)"/><path class="a" d="M631.248,519.447A6.444,6.444,0,1,0,624.8,513,6.452,6.452,0,0,0,631.248,519.447Zm0-11.9a5.447,5.447,0,0,1,3.8,9.355v-1.351a2.966,2.966,0,0,0-.67-1.875.5.5,0,0,0-.767.629,1.94,1.94,0,0,1,.445,1.246v2.113a5.4,5.4,0,0,1-5.618,0v-2.113a1.942,1.942,0,0,1,.446-1.246.5.5,0,0,0-.767-.629,2.967,2.967,0,0,0-.67,1.875V516.9a5.447,5.447,0,0,1,3.8-9.355Z" transform="translate(-594.399 -506.558)"/></svg>