<svg xmlns="http://www.w3.org/2000/svg" width="43.292" height="43.547" viewBox="0 0 43.292 43.547"><defs><style>.a{fill:#54ab3d;}.b{fill:#2f2a4a;}.c{fill:none;stroke:#2f2a4a;stroke-miterlimit:10;stroke-width:1.5px;}</style></defs><g transform="translate(0 0.75)"><g transform="translate(4.726 23.316)"><path class="a" d="M719.951,542.158v14.284a5.086,5.086,0,0,1,6.8,2.242,2.254,2.254,0,0,0,2.266-2.242V542.158Z" transform="translate(-695.165 -542.158)"/><path class="a" d="M683.31,556.443a5.087,5.087,0,0,1,6.8,2.242,2.254,2.254,0,0,0,2.265-2.242V542.158H683.31Z" transform="translate(-683.31 -542.158)"/><path class="a" d="M701.626,558.9a5.088,5.088,0,0,1,6.8,2.241,2.253,2.253,0,0,0,2.265-2.241V542.158h-9.062Z" transform="translate(-689.236 -542.158)"/></g><g transform="translate(0 6.985)"><path class="b" d="M687.6,557.769a2.766,2.766,0,0,0,5.027-1.563V541.921a.5.5,0,0,0-.5-.5h-9.062a.5.5,0,0,0-.5.5v14.284a2.765,2.765,0,0,0,5.026,1.563Zm-4.035-1.563V542.417h8.071v13.789a1.77,1.77,0,0,1-3.54,0V545.834a.5.5,0,0,0-.991,0v10.371a1.77,1.77,0,0,1-3.54,0Z" transform="translate(-678.347 -525.591)"/><path class="b" d="M710.451,541.426H701.39a.5.5,0,0,0-.5.5v16.744a22.156,22.156,0,0,1,7.291,2.738,2.753,2.753,0,0,0,2.761-2.738V541.921A.5.5,0,0,0,710.451,541.426Zm-.5,17.239a1.77,1.77,0,0,1-3.539,0V545.834a.5.5,0,0,0-.992,0v12.831a1.769,1.769,0,0,1-3.539,0V542.417h8.069Z" transform="translate(-684.274 -525.591)"/><path class="b" d="M677.8,532.66h3.563a.5.5,0,0,0,.5-.5v-8.149a.5.5,0,1,0-.991,0v7.654h-2.572V523.4a3.07,3.07,0,0,1,3.067-3.066h1.133l3.219,1.286a.494.494,0,0,0,.368,0l3.214-1.286h.8a4.023,4.023,0,0,0-.4,1.745v10.089a.5.5,0,0,0,.5.5h3.563a.5.5,0,0,0,.5-.5v-9.472a.5.5,0,0,0-.992,0v8.976h-2.572v-9.594a3.071,3.071,0,0,1,3.068-3.067h1.132l2.905,1.161v.325a.5.5,0,1,0,.992,0v-.324l2.9-1.163h1.133a3.07,3.07,0,0,1,3.067,3.067v9.594h-2.572v-8.976a.5.5,0,0,0-.991,0v9.472a.5.5,0,0,0,.5.5h3.563a.5.5,0,0,0,.5-.5V522.075a4.025,4.025,0,0,0-.4-1.745h.8l2.9,1.16v12.361h-4.032a.5.5,0,0,0-.5.5v14.284a22.183,22.183,0,0,1,7.292,2.737,2.752,2.752,0,0,0,2.76-2.737V534.347a.5.5,0,0,0-.5-.5h-4.038V521.492l2.905-1.162h1.133a3.07,3.07,0,0,1,3.067,3.066v8.272h-2.571v-7.654a.5.5,0,1,0-.992,0v8.149a.5.5,0,0,0,.5.5h3.563a.5.5,0,0,0,.5-.5V523.4a4.064,4.064,0,0,0-4.059-4.059h-1.229a.49.49,0,0,0-.184.036l-3.118,1.249-3.124-1.249a.487.487,0,0,0-.184-.036h-1.228c-.109,0-.216.01-.323.02a4.045,4.045,0,0,0-3.006-1.342h-1.228a.5.5,0,0,0-.184.035l-3.119,1.249-3.123-1.249a.5.5,0,0,0-.184-.035H693.75a4.046,4.046,0,0,0-3.011,1.347c-.1-.009-.206-.026-.312-.026H689.2a.487.487,0,0,0-.184.036l-3.119,1.249-3.123-1.249a.491.491,0,0,0-.184-.036h-1.228A4.064,4.064,0,0,0,677.3,523.4v8.767A.5.5,0,0,0,677.8,532.66Zm36.92,2.183v13.789a1.77,1.77,0,0,1-3.539,0V538.26a.5.5,0,0,0-.991,0v10.371a1.77,1.77,0,0,1-3.539,0V534.842Z" transform="translate(-676.64 -518.016)"/><path class="b" d="M689.765,533.623a.5.5,0,1,0,.5.5A.493.493,0,0,0,689.765,533.623Z" transform="translate(-680.515 -523.066)"/><path class="b" d="M689.765,525.825a.5.5,0,1,0,.5.5A.494.494,0,0,0,689.765,525.825Z" transform="translate(-680.515 -520.543)"/><path class="b" d="M689.765,529.724a.5.5,0,1,0,.5.5A.493.493,0,0,0,689.765,529.724Z" transform="translate(-680.515 -521.804)"/><path class="b" d="M689.765,537.521a.5.5,0,1,0,.5.5A.493.493,0,0,0,689.765,537.521Z" transform="translate(-680.515 -524.327)"/><path class="b" d="M708.578,531.214a.5.5,0,0,0-.992,0v.661a.5.5,0,1,0,.992,0Z" transform="translate(-686.439 -522.126)"/><path class="b" d="M708.083,536.092a.5.5,0,0,0-.5.5v.66a.5.5,0,0,0,.992,0v-.66A.5.5,0,0,0,708.083,536.092Z" transform="translate(-686.439 -523.865)"/><path class="b" d="M708.578,525.841a.5.5,0,1,0-.992,0v.66a.5.5,0,1,0,.992,0Z" transform="translate(-686.439 -520.387)"/><path class="b" d="M679.037,569.492H676.82a.5.5,0,0,0,0,.992h2.217a.5.5,0,1,0,0-.992Z" transform="translate(-676.324 -534.671)"/><path class="b" d="M693.72,569.492h-8.735a.5.5,0,0,0,0,.992h8.735a.5.5,0,0,0,0-.992Z" transform="translate(-678.966 -534.671)"/><path class="b" d="M732.534,569.492H718.277a.5.5,0,0,0,0,.992h14.257a.5.5,0,0,0,0-.992Z" transform="translate(-689.738 -534.671)"/></g><g transform="translate(1.157)"><path class="c" d="M725.144,509.644a3.31,3.31,0,1,0,3.139,3.3A3.226,3.226,0,0,0,725.144,509.644Z" transform="translate(-692.261 -508.322)"/><path class="c" d="M688.5,509.644a3.309,3.309,0,1,0,3.14,3.3A3.225,3.225,0,0,0,688.5,509.644Z" transform="translate(-680.405 -508.322)"/><path class="c" d="M706.818,507.69A3.309,3.309,0,1,0,709.958,511,3.226,3.226,0,0,0,706.818,507.69Z" transform="translate(-686.332 -507.69)"/><path class="b" d="M733.348,539.664v1.487a1.781,1.781,0,1,0,3.562,0v-1.487Z" transform="translate(-695.931 -518.035)"/><path class="b" d="M678.034,541.151a1.781,1.781,0,1,0,3.563,0v-1.487h-3.563Z" transform="translate(-678.034 -518.035)"/><path class="b" d="M696.351,539.664v1.487a1.781,1.781,0,1,0,3.562,0v-1.487Z" transform="translate(-683.961 -518.035)"/><path class="b" d="M715.022,541.151a1.781,1.781,0,1,0,3.563,0v-1.487h-3.563Z" transform="translate(-690.002 -518.035)"/></g></g></svg>