<svg xmlns="http://www.w3.org/2000/svg" width="43.292" height="43.293" viewBox="0 0 43.292 43.293"><defs><style>.a{fill:#fff;}.b{fill:#54ab3d;}.c{fill:#2f2a4a;}</style></defs><g transform="translate(5.122 0.497)"><path class="a" d="M912.87,523.523v-6.844h-6.844l-4.839-4.839-4.84,4.839H889.5v6.844l-4.839,4.84,4.839,4.84v6.844h6.845l4.84,4.839,4.839-4.839h6.844V533.2l4.841-4.84Zm-11.683,15.038-10.575-10.576,3.068-4.532h15.014l3.068,4.532Z" transform="translate(-884.663 -511.84)"/></g><g transform="translate(12.392 28.704)"><path class="b" d="M910.612,563.005l-5.948-1.983-5.948,1.983v-9.466h-3.305v14.094l9.253-3.3,9.254,3.3V553.539h-3.306Z" transform="translate(-895.411 -553.539)"/></g><path class="c" d="M902.188,529.742h4.582l.856,3.541h-6.294Zm-4.953,0h3.933l-.856,3.541h-5.473Zm-2.135,4.532h5.253l2.917,8.171Zm9.38,8.606-3.073-8.606h6.146Zm1.209-.435,2.917-8.171h5.252Zm2.958-9.162-.856-3.541h3.934l2.4,3.541Z" transform="translate(-882.833 -517.136)"/><path class="c" d="M913.13,523.081v-6.639a.5.5,0,0,0-.5-.5h-6.64l-4.694-4.7a.5.5,0,0,0-.7,0l-4.694,4.7h-6.641a.5.5,0,0,0-.5.5v6.639l-4.695,4.694a.5.5,0,0,0,0,.7l4.695,4.694v6.639a.5.5,0,0,0,.5.5H891.2v13.6a.5.5,0,0,0,.664.467l9.086-3.246,9.085,3.246a.51.51,0,0,0,.168.028.495.495,0,0,0,.5-.5v-13.6h1.935a.5.5,0,0,0,.5-.5v-6.639l4.695-4.694a.5.5,0,0,0,0-.7ZM909.707,553.2l-8.59-3.068a.485.485,0,0,0-.166-.029.48.48,0,0,0-.166.029l-8.592,3.068V540.306h2.313v8.97a.5.5,0,0,0,.653.471l5.792-1.931,5.792,1.931a.492.492,0,0,0,.156.025.5.5,0,0,0,.5-.5v-8.97h2.312ZM895.5,548.588v-8.282h.409L900.6,545a.494.494,0,0,0,.7,0l4.694-4.694h.408v8.282l-5.3-1.765a.507.507,0,0,0-.315,0Zm16.786-15.973a.5.5,0,0,0-.145.35v6.349H905.79a.5.5,0,0,0-.35.145l-4.489,4.488-4.49-4.488a.494.494,0,0,0-.35-.145h-6.348v-6.349a.5.5,0,0,0-.145-.35l-4.49-4.489,4.49-4.489a.5.5,0,0,0,.145-.351v-6.348h6.348a.5.5,0,0,0,.35-.145l4.49-4.49,4.489,4.49a.5.5,0,0,0,.35.145h6.348v6.348a.5.5,0,0,0,.145.351l4.489,4.489Z" transform="translate(-879.304 -511.106)"/><path class="c" d="M883.534,567.636h-5.451V555.577a.5.5,0,0,0-.992,0v12.555a.5.5,0,0,0,.5.5h5.948a.5.5,0,1,0,0-.991Z" transform="translate(-877.091 -525.335)"/><path class="c" d="M877.586,548.845a.5.5,0,0,0,.5-.5v-3.525a.5.5,0,1,0-.992,0v3.525A.5.5,0,0,0,877.586,548.845Z" transform="translate(-877.091 -521.856)"/><path class="c" d="M940.12,536.511a.5.5,0,0,0-.5.5v3.525a.5.5,0,0,0,.992,0v-3.525A.5.5,0,0,0,940.12,536.511Z" transform="translate(-897.324 -519.326)"/><path class="c" d="M938.118,511.106h-4.186a.5.5,0,0,0,0,.992h3.69v13.055a.5.5,0,0,0,.992,0V511.6A.5.5,0,0,0,938.118,511.106Z" transform="translate(-895.322 -511.106)"/><path class="c" d="M908.854,523.4a.5.5,0,0,0,.5-.5V520.92a.5.5,0,0,0-.991,0V522.9A.5.5,0,0,0,908.854,523.4Z" transform="translate(-887.208 -514.121)"/><path class="c" d="M904.96,525.056a.5.5,0,0,0,.7-.7l-1.4-1.4a.5.5,0,0,0-.7.7Z" transform="translate(-885.607 -514.892)"/><path class="c" d="M911.725,525.2a.5.5,0,0,0,.351-.145l1.4-1.4a.5.5,0,0,0-.7-.7l-1.4,1.4a.5.5,0,0,0,.35.846Z" transform="translate(-888.137 -514.892)"/></svg>