<svg xmlns="http://www.w3.org/2000/svg" width="547.184" height="443.079" viewBox="0 0 547.184 443.079"><defs><style>.a{fill:#f1f8e7;}</style></defs><path class="a" d="M408.3,358.329c-48.357,5.638-100.436,23.19-144.313,44.055-28.309,13.462-56.968,31-75.856,56.637-28.939,39.282-17.8,84.992,14.562,118.2,41.7,42.8,103.9,64.113,161.875,71.879a393.843,393.843,0,0,0,112.337-.67c38.812-6.01,81.3-12.144,109.089-42.7,24.541-26.989,38.646-62.957,49.668-97.21C645.677,477.4,650.68,441,633.668,411.309c-14.309-24.978-40.969-39.018-67.761-46.806C515.394,349.818,459.972,352.3,408.3,358.329Z" transform="translate(-282.029 -111.717) rotate(-20)"/></svg>