<svg xmlns="http://www.w3.org/2000/svg" width="55.515" height="55.515" viewBox="0 0 55.515 55.515"><defs><style>.a{fill:#54ab3d;}.b{fill:#2f2a4a;}</style></defs><g transform="translate(6.569 0.637)"><path class="a" d="M1012.814,506.97a11.018,11.018,0,1,0,11.019,11.018A11.019,11.019,0,0,0,1012.814,506.97Zm-1.535,17.975-5.823-5.824,2.974-2.973,2.85,2.851,5.919-5.92,2.974,2.973Z" transform="translate(-991.181 -506.97)"/><path class="a" d="M990.005,552.59h3.051l-3.5,14h6.355l1.149-14h3.114l-4.581-5.085Z" transform="translate(-989.558 -512.344)"/><path class="a" d="M1032.314,548.663h3.078l-5.989-5.2-4.181,5.2h3.658l1.427,17.388h6.355Z" transform="translate(-994.286 -511.808)"/></g><g transform="translate(10.646 0.638)"><path class="b" d="M1013.207,535.778l-5.086,5.085h2.78l-.661,24.169h5.933l-.661-24.169h2.779Z" transform="translate(-996.095 -510.789)"/><path class="b" d="M998.706,510.57l1.484-1.445-2.05-.3-.917-1.857-.917,1.857-2.05.3,1.482,1.445-.349,2.042,1.833-.963,1.833.963Z" transform="translate(-994.257 -506.97)"/><path class="b" d="M1001.814,531.131l-.917-1.858-.917,1.858-2.05.3,1.484,1.445-.351,2.041,1.833-.964,1.833.964-.349-2.041,1.482-1.445Z" transform="translate(-994.744 -509.927)"/><path class="b" d="M1035.61,518.9l-2.048-.3-.918-1.858-.917,1.858-2.048.3,1.482,1.446-.351,2.041,1.833-.964,1.835.964-.351-2.041Z" transform="translate(-998.953 -508.267)"/></g><path class="b" d="M993.794,517.98a.635.635,0,0,0-.77.463L982,562.516a.636.636,0,0,0,.463.771.621.621,0,0,0,.153.018.637.637,0,0,0,.617-.481l11.019-44.072A.636.636,0,0,0,993.794,517.98Z" transform="translate(-981.985 -507.79)"/><path class="b" d="M985.152,529.525a.635.635,0,0,0,.771-.463l5.509-22.035a.636.636,0,1,0-1.234-.308l-5.509,22.036A.636.636,0,0,0,985.152,529.525Z" transform="translate(-982.341 -506.235)"/><path class="b" d="M982.467,542.931a.625.625,0,0,0,.153.019.637.637,0,0,0,.617-.482l1.157-4.632a.636.636,0,0,0-1.233-.308L982,542.159A.636.636,0,0,0,982.467,542.931Z" transform="translate(-981.985 -510.32)"/><path class="b" d="M1037.338,535.527a.636.636,0,0,0-1.234.308l7.314,29.253a.637.637,0,0,0,.617.482.617.617,0,0,0,.153-.018.636.636,0,0,0,.464-.771Z" transform="translate(-989.157 -510.055)"/><path class="b" d="M1034.837,525.524a.636.636,0,1,0-1.234.309l.88,3.517a.634.634,0,0,0,.615.482.666.666,0,0,0,.154-.018.635.635,0,0,0,.463-.771Z" transform="translate(-988.825 -508.729)"/><path class="b" d="M1043.571,539.318a.636.636,0,0,0,.617.481.623.623,0,0,0,.154-.019.636.636,0,0,0,.463-.771l-6.313-25.247a.636.636,0,1,0-1.234.308Z" transform="translate(-989.31 -507.169)"/><path class="b" d="M1021.221,533.758a.635.635,0,0,0-.581.685l2.492,30.373a.635.635,0,0,0,.632.583c.018,0,.035,0,.054,0a.636.636,0,0,0,.581-.685l-2.492-30.373A.626.626,0,0,0,1021.221,533.758Z" transform="translate(-987.109 -509.884)"/><path class="b" d="M1006.28,533.758a.629.629,0,0,0-.686.581l-1.784,21.747a.636.636,0,0,0,.581.685l.053,0a.635.635,0,0,0,.631-.584l1.786-21.747A.636.636,0,0,0,1006.28,533.758Z" transform="translate(-984.878 -509.884)"/><path class="b" d="M1003.984,564.489a.628.628,0,0,0-.686.58l-.3,3.717a.634.634,0,0,0,.581.685c.016,0,.035,0,.052,0a.636.636,0,0,0,.632-.583l.3-3.716A.635.635,0,0,0,1003.984,564.489Z" transform="translate(-984.77 -513.958)"/><path class="b" d="M1012.717,506.237a11.653,11.653,0,1,0,11.654,11.654A11.665,11.665,0,0,0,1012.717,506.237Zm0,22.035a10.382,10.382,0,1,1,10.383-10.382A10.394,10.394,0,0,1,1012.717,528.272Z" transform="translate(-984.514 -506.236)"/><path class="b" d="M1017.212,513.467l-5.469,5.47-2.4-2.4a.636.636,0,0,0-.9,0l-2.973,2.974a.634.634,0,0,0,0,.9l5.823,5.824a.64.64,0,0,0,.9,0l8.893-8.893a.638.638,0,0,0,0-.9l-2.974-2.973A.637.637,0,0,0,1017.212,513.467Zm-5.469,11.416-4.925-4.925,2.074-2.073,2.4,2.4a.637.637,0,0,0,.9,0l5.47-5.47,2.074,2.074Z" transform="translate(-985.073 -507.169)"/></svg>