<svg xmlns="http://www.w3.org/2000/svg" width="55.516" height="55.516" viewBox="0 0 55.516 55.516"><defs><style>.a{fill:#2f2a4a;}.b{fill:#54ab3d;}.c{fill:#fff;}</style></defs><ellipse class="a" cx="7.373" cy="7.373" rx="7.373" ry="7.373" transform="translate(20.076 20.334)"/><g transform="translate(0.637 0.635)"><path class="b" d="M588.218,507.29a7.628,7.628,0,1,0,7.627,7.628A7.628,7.628,0,0,0,588.218,507.29Zm0,8.052a2.119,2.119,0,1,1,2.118-2.119A2.12,2.12,0,0,1,588.218,515.342Z" transform="translate(-580.59 -507.29)"/><path class="b" d="M633.164,552.237a7.628,7.628,0,1,0,7.628,7.628A7.629,7.629,0,0,0,633.164,552.237Zm0,8.052a2.119,2.119,0,1,1,2.118-2.118A2.118,2.118,0,0,1,633.164,560.289Z" transform="translate(-586.548 -513.249)"/><path class="c" d="M608.926,542.168l6.781-4.238-6.781-4.238Z" transform="translate(-584.346 -510.79)"/></g><g transform="translate(0.637 0.635)"><path class="c" d="M588.218,552.237a7.628,7.628,0,1,0,7.627,7.628A7.627,7.627,0,0,0,588.218,552.237Zm0,8.052a2.119,2.119,0,1,1,2.118-2.118A2.119,2.119,0,0,1,588.218,560.289Z" transform="translate(-580.59 -513.249)"/><path class="c" d="M633.164,507.29a7.628,7.628,0,1,0,7.628,7.628A7.629,7.629,0,0,0,633.164,507.29Zm0,8.052a2.119,2.119,0,1,1,2.118-2.119A2.119,2.119,0,0,1,633.164,515.342Z" transform="translate(-586.548 -507.29)"/></g><path class="a" d="M588.963,516.464a2.755,2.755,0,1,0-2.755-2.755A2.759,2.759,0,0,0,588.963,516.464Zm0-4.238a1.483,1.483,0,1,1-1.484,1.483A1.485,1.485,0,0,1,588.963,512.226Z" transform="translate(-580.698 -507.141)"/><path class="a" d="M588.963,555.9a2.754,2.754,0,1,0,2.755,2.754A2.758,2.758,0,0,0,588.963,555.9Zm0,4.237a1.483,1.483,0,1,1,1.483-1.483A1.485,1.485,0,0,1,588.963,560.139Z" transform="translate(-580.698 -513.099)"/><path class="a" d="M633.909,555.9a2.754,2.754,0,1,0,2.754,2.754A2.758,2.758,0,0,0,633.909,555.9Zm0,4.237a1.483,1.483,0,1,1,1.483-1.483A1.485,1.485,0,0,1,633.909,560.139Z" transform="translate(-586.656 -513.099)"/><path class="a" d="M633.909,516.464a2.755,2.755,0,1,0-2.755-2.755A2.758,2.758,0,0,0,633.909,516.464Zm0-4.238a1.483,1.483,0,1,1-1.483,1.483A1.486,1.486,0,0,1,633.909,512.226Z" transform="translate(-586.656 -507.141)"/><path class="a" d="M605.448,524.537a.637.637,0,0,0-.588-.392h-6.78a.635.635,0,0,0-.636.635v6.782a.635.635,0,0,0,1.084.448l1.144-1.142,1.247,1.246a.635.635,0,0,0,.9-.9l-1.7-1.7a.634.634,0,0,0-.9,0l-.508.507v-4.61h4.611l-.507.507a.634.634,0,0,0,0,.9l1.7,1.695a.635.635,0,0,0,.9-.9l-1.246-1.246,1.143-1.142A.637.637,0,0,0,605.448,524.537Z" transform="translate(-582.188 -508.889)"/><path class="a" d="M617.02,551.332a.637.637,0,0,0,.587.392h6.781a.635.635,0,0,0,.635-.635v-6.782a.635.635,0,0,0-1.085-.448L622.8,545l-1.25-1.25a.636.636,0,0,0-.9.9l1.7,1.7a.634.634,0,0,0,.9,0l.507-.507v4.61h-4.611l.507-.508a.635.635,0,0,0,0-.9l-1.7-1.7a.636.636,0,0,0-.9.9L618.3,549.5l-1.143,1.142A.638.638,0,0,0,617.02,551.332Z" transform="translate(-584.762 -511.464)"/><path class="a" d="M605.414,547.351a.637.637,0,0,0-.9,0l-1.7,1.7a.634.634,0,0,0,0,.9l.508.507h-4.611v-4.61l.507.507a.633.633,0,0,0,.9,0l1.7-1.695a.636.636,0,0,0-.9-.9L599.672,545l-1.143-1.142a.635.635,0,0,0-1.085.448v6.782a.635.635,0,0,0,.636.635h6.781a.636.636,0,0,0,.45-1.085l-1.144-1.142,1.247-1.247A.637.637,0,0,0,605.414,547.351Z" transform="translate(-582.188 -511.465)"/><path class="a" d="M625.023,524.78a.635.635,0,0,0-.635-.635h-6.781a.636.636,0,0,0-.45,1.085l1.143,1.142-1.25,1.252a.635.635,0,0,0,.9.9l1.7-1.7a.637.637,0,0,0,0-.9l-.508-.507h4.611v4.609l-.507-.506a.634.634,0,0,0-.9,0l-1.7,1.7a.635.635,0,1,0,.9.9l1.247-1.246,1.142,1.142a.636.636,0,0,0,1.085-.448Z" transform="translate(-584.762 -508.889)"/><path class="a" d="M619.789,557.024H607.42v-1.618a.635.635,0,0,0-1.084-.448l-4.8,4.794a.634.634,0,0,0,0,.9l4.8,4.8a.635.635,0,0,0,.448.185.648.648,0,0,0,.244-.047.637.637,0,0,0,.392-.588V563.38h10.673a.636.636,0,1,0,0-1.272H606.784a.635.635,0,0,0-.635.635v.717l-3.26-3.258,3.26-3.261v.717a.635.635,0,0,0,.635.635h13a.635.635,0,1,0,0-1.27Z" transform="translate(-582.706 -512.95)"/><path class="a" d="M601.013,518.43h12.368v1.618a.633.633,0,0,0,.393.586.612.612,0,0,0,.244.049.635.635,0,0,0,.449-.187l4.793-4.794a.634.634,0,0,0,0-.9l-4.793-4.8a.636.636,0,0,0-1.086.449v1.616H602.707a.636.636,0,0,0,0,1.272h11.31a.635.635,0,0,0,.635-.635v-.717l3.261,3.259-3.261,3.261V517.8a.635.635,0,0,0-.635-.635h-13a.635.635,0,1,0,0,1.27Z" transform="translate(-582.576 -506.991)"/><path class="a" d="M590.461,533.485v13a.635.635,0,0,0,1.271,0V534.12h1.616a.635.635,0,0,0,.45-1.085l-4.8-4.794a.654.654,0,0,0-.9,0l-4.794,4.794a.635.635,0,0,0,.448,1.085h1.617v10.674a.636.636,0,0,0,1.272,0V533.485a.637.637,0,0,0-.637-.636h-.717l3.26-3.26,3.261,3.26H591.1A.636.636,0,0,0,590.461,533.485Z" transform="translate(-580.289 -509.409)"/><path class="a" d="M631.6,540.716v-13a.636.636,0,0,0-1.273,0v12.369h-1.615a.636.636,0,0,0-.45,1.085l4.794,4.794a.636.636,0,0,0,.9,0l4.793-4.794a.636.636,0,0,0-.45-1.085H636.68V529.407a.636.636,0,0,0-1.272,0v11.309a.637.637,0,0,0,.636.637h.717l-3.26,3.259-3.26-3.259h.717A.637.637,0,0,0,631.6,540.716Z" transform="translate(-586.248 -509.278)"/><path class="a" d="M618.858,537.3a8.264,8.264,0,1,0-8.265,8.263A8.274,8.274,0,0,0,618.858,537.3Zm-15.256,0a6.992,6.992,0,1,1,6.992,6.992A7,7,0,0,1,603.6,537.3Z" transform="translate(-582.835 -509.537)"/><path class="a" d="M588.121,523.086a8.264,8.264,0,1,0-8.265-8.265A8.274,8.274,0,0,0,588.121,523.086Zm0-15.256a6.985,6.985,0,0,1,4.872,12v-1.732a3.808,3.808,0,0,0-.859-2.4.636.636,0,0,0-.983.807,2.488,2.488,0,0,1,.571,1.6v2.71a6.926,6.926,0,0,1-7.2,0v-2.71a2.486,2.486,0,0,1,.573-1.6.636.636,0,0,0-.984-.807,3.806,3.806,0,0,0-.86,2.4v1.732a6.985,6.985,0,0,1,4.874-12Z" transform="translate(-579.856 -506.558)"/><path class="a" d="M588.121,551.5a8.264,8.264,0,1,0,8.263,8.265A8.275,8.275,0,0,0,588.121,551.5Zm4.872,13.268V563.04a3.8,3.8,0,0,0-.859-2.4.635.635,0,1,0-.983.8,2.492,2.492,0,0,1,.571,1.6v2.71a6.927,6.927,0,0,1-7.2,0v-2.71a2.49,2.49,0,0,1,.573-1.6.636.636,0,1,0-.984-.8,3.8,3.8,0,0,0-.86,2.4v1.732a6.992,6.992,0,1,1,9.747,0Z" transform="translate(-579.856 -512.516)"/><path class="a" d="M633.067,551.5a8.264,8.264,0,1,0,8.263,8.265A8.274,8.274,0,0,0,633.067,551.5Zm4.873,13.268V563.04a3.794,3.794,0,0,0-.859-2.4.636.636,0,0,0-.984.8,2.492,2.492,0,0,1,.571,1.6v2.71a6.925,6.925,0,0,1-7.2,0v-2.71a2.494,2.494,0,0,1,.572-1.6.636.636,0,0,0-.984-.8,3.8,3.8,0,0,0-.859,2.4v1.732a6.993,6.993,0,1,1,9.747,0Z" transform="translate(-585.815 -512.516)"/><path class="a" d="M633.067,523.086a8.264,8.264,0,1,0-8.263-8.265A8.274,8.274,0,0,0,633.067,523.086Zm0-15.256a6.985,6.985,0,0,1,4.873,12v-1.732a3.8,3.8,0,0,0-.859-2.4.636.636,0,0,0-.984.807,2.488,2.488,0,0,1,.571,1.6v2.71a6.924,6.924,0,0,1-7.2,0v-2.71a2.49,2.49,0,0,1,.572-1.6.636.636,0,0,0-.984-.807,3.8,3.8,0,0,0-.859,2.4v1.732a6.985,6.985,0,0,1,4.873-12Z" transform="translate(-585.815 -506.558)"/></svg>