<svg xmlns="http://www.w3.org/2000/svg" width="55.514" height="55.516" viewBox="0 0 55.514 55.516"><defs><style>.a{fill:#2f2a4a;}.b{fill:#54ab3d;}</style></defs><g transform="translate(17.887 4.026)"><path class="a" d="M427.723,535.29,415.01,560.716l27.122-33.055Z" transform="translate(-405.14 -514.948)"/><path class="a" d="M421.133,540.365H406.678l7.228,14.455Z" transform="translate(-404.035 -516.632)"/><path class="a" d="M420.264,516.4l3.108-1.7-3.108-1.7H406.739l-3.108,1.7,3.108,1.7Z" transform="translate(-403.631 -513.005)"/></g><g transform="translate(19.936 5.721)"><path class="b" d="M433.126,514.959l-9.323,5.085,5.086,13.561,14.408-7.628Z" transform="translate(-408.355 -514.959)"/><path class="b" d="M408.537,524.73l-2.543,6.781h15.641l-2.543-6.781Z" transform="translate(-405.994 -516.255)"/></g><path class="a" d="M438.381,525.506a.636.636,0,0,0-.023-.834l-10.172-11.018a.654.654,0,0,0-.162-.127l-9.325-5.086a.642.642,0,0,0-.3-.077H403.141a.645.645,0,0,0-.3.077l-9.325,5.086a.655.655,0,0,0-.162.127l-10.171,11.018a.637.637,0,0,0-.024.834l27.122,33.055a.636.636,0,0,0,.982,0ZM393.948,514.88l8.4,4.584-4.638,12.367-13.039-6.9Zm33.641,0,9.274,10.047-13.039,6.9-4.639-12.367ZM422.564,532.1H398.973l4.609-12.29h14.373Zm-.111,1.272-11.685,23.369-11.685-23.369Zm-36.309-6.223,11.433,6.055,10.089,20.175Zm27.726,26.229L423.959,533.2l11.433-6.055ZM403.3,509.635h14.928l8.16,4.45-8.159,4.45H403.3l-8.159-4.45Z" transform="translate(-383.011 -508.364)"/><path class="a" d="M445.3,536.6l-2.567,3.129a.635.635,0,1,0,.982.806l2.567-3.128a.635.635,0,0,0-.982-.807Z" transform="translate(-390.909 -512.076)"/><path class="a" d="M437.451,544.06a.637.637,0,0,0-.894.089l-19.2,23.4a.636.636,0,1,0,.983.807l19.2-23.4A.637.637,0,0,0,437.451,544.06Z" transform="translate(-387.544 -513.077)"/><path class="a" d="M444.046,546.125l-10.751,13.1a.635.635,0,0,0,.982.807l10.751-13.1a.635.635,0,1,0-.982-.8Z" transform="translate(-389.658 -513.339)"/><path class="a" d="M429.754,565.178l-1.96,2.39a.636.636,0,0,0,.983.807l1.96-2.39a.636.636,0,0,0-.984-.807Z" transform="translate(-388.929 -515.865)"/></svg>