<svg xmlns="http://www.w3.org/2000/svg" width="55.514" height="55.515" viewBox="0 0 55.514 55.515"><defs><style>.a{fill:#54ab3d;}.b{fill:#2f2a4a;}</style></defs><g transform="translate(5.744 40.037)"><path class="a" d="M534.6,559.182l-3.806-3.806-8.3,8.3,3.805,3.805a2.645,2.645,0,0,0,3.742,0l4.561-4.562A2.646,2.646,0,0,0,534.6,559.182Z" transform="translate(-486.247 -553.421)"/><path class="a" d="M484.27,553.122l-3.563,3.563,1.3,4.868,4.869,1.3,3.563-3.563-1.3-4.867Z" transform="translate(-480.708 -553.122)"/></g><g transform="translate(3.152 3.164)"><path class="b" d="M488.6,512.3l-.009,0-5.369-1.684-1.615,3.876-3.887,1.62,1.689,5.377,6.2-3Z" transform="translate(-477.719 -510.613)"/><path class="b" d="M485.565,537.884A17.723,17.723,0,0,0,487.1,545.1c.326.03.653.064.977.126l6.72-6.719-7.744-7.743A17.708,17.708,0,0,0,485.565,537.884Z" transform="translate(-478.759 -513.285)"/><path class="b" d="M504.993,518.456a17.7,17.7,0,0,0-7.119,1.492l7.744,7.743,6.728-6.726c-.061-.319-.095-.641-.123-.964A17.713,17.713,0,0,0,504.993,518.456Z" transform="translate(-480.391 -511.653)"/><path class="b" d="M497.614,555.559c.061.324.1.651.125.978a17.713,17.713,0,0,0,14.342.046l-7.746-7.744Z" transform="translate(-480.357 -515.681)"/><path class="b" d="M523.64,530.619a9.566,9.566,0,0,1-.964-.124l-6.724,6.725,7.744,7.743a17.717,17.717,0,0,0-.056-14.344Z" transform="translate(-482.788 -513.249)"/></g><path class="b" d="M489.205,553.716l-4.867-1.3a.642.642,0,0,0-.613.165l-3.565,3.563a.637.637,0,0,0-.164.614l1.3,4.868a.637.637,0,0,0,.448.449l4.867,1.3a.65.65,0,0,0,.167.022.64.64,0,0,0,.448-.186l3.563-3.564a.633.633,0,0,0,.164-.614l-1.3-4.867A.636.636,0,0,0,489.205,553.716Zm-2.614,8.336-4.158-1.115-1.115-4.159,3.045-3.044,4.158,1.114,1.115,4.158Z" transform="translate(-474.867 -512.988)"/><path class="b" d="M526.494,525.081a10.54,10.54,0,0,0,2.517-10.959.634.634,0,0,0-.457-.412.619.619,0,0,0-.592.17l-6.977,6.975-4.158-1.114-1.115-4.158,6.975-6.976a.636.636,0,0,0-.242-1.05,10.6,10.6,0,0,0-13.937,11.669l-6.045,6.044-13.907-13.9a.624.624,0,0,0-.259-.157l-13.385-4.2a.635.635,0,0,0-.8.8l4.206,13.392a.649.649,0,0,0,.156.258l13.9,13.9-6.036,6.036a10.61,10.61,0,1,0,8.834,8.834l6.038-6.038,13.968,13.964a.634.634,0,0,0,.449.186h0a.636.636,0,0,0,.451-.187l9.172-9.2a.636.636,0,0,0,0-.9L511.3,534.1l6.042-6.043A10.631,10.631,0,0,0,526.494,525.081ZM488.3,512.9l13.271,13.266-3.7,3.694L485.89,517.88Zm-6.41-2.372-1.247,2.992-3,1.251-1.943-6.187Zm-3.866,5.46,3.349-1.4a.634.634,0,0,0,.343-.343l1.392-3.34,4.119,1.292-2.574,5.325-5.335,2.581Zm1.987,5.2,4.981-2.411,11.986,11.985-3.694,3.7ZM515.632,556.8l-13.516-13.514,3.694-3.694L519.32,553.1Zm8.276-8.3-3.69,3.7-13.511-13.508L510.4,535Zm-7.231-21.576-22.631,22.632a.632.632,0,0,0-.174.567,9.341,9.341,0,1,1-9.176-7.593,9.462,9.462,0,0,1,1.747.163.639.639,0,0,0,.567-.175l22.631-22.632a.638.638,0,0,0,.174-.567,9.33,9.33,0,0,1,11.211-10.852l-6.472,6.471a.638.638,0,0,0-.165.614l1.3,4.868a.639.639,0,0,0,.449.449l4.867,1.3a.637.637,0,0,0,.613-.164l6.472-6.472a9.33,9.33,0,0,1-10.852,11.211A.629.629,0,0,0,516.677,526.927Z" transform="translate(-474.086 -506.966)"/><path class="b" d="M515,526.261l-2.542,2.542a.635.635,0,1,0,.9.9l2.543-2.542a.636.636,0,1,0-.9-.9Z" transform="translate(-479.148 -509.499)"/><path class="b" d="M507.236,532.459l-12.789,12.79a.635.635,0,1,0,.9.9l12.791-12.79a.636.636,0,0,0-.9-.9Z" transform="translate(-476.76 -510.321)"/><path class="b" d="M474.722,536.1a.635.635,0,0,0,.635-.635V522.316a.635.635,0,1,0-1.27,0v13.148A.635.635,0,0,0,474.722,536.1Z" transform="translate(-474.086 -508.917)"/><path class="b" d="M474.722,546.818a.635.635,0,0,0,.635-.636v-3.825a.635.635,0,1,0-1.27,0v3.825A.636.636,0,0,0,474.722,546.818Z" transform="translate(-474.086 -511.574)"/></svg>