<svg xmlns="http://www.w3.org/2000/svg" width="50.944" height="50.944" viewBox="0 0 50.944 50.944"><defs><style>.a{fill:none;stroke:#2f2a4a;stroke-linejoin:round;stroke-width:1.5px;}.b{fill:#54ab3d;}.c{fill:#2f2a4a;}</style></defs><g transform="translate(0.75 0.75)"><rect class="a" width="49.444" height="49.444"/><g transform="translate(7.134 7.625)"><path class="b" d="M807.834,533.74l-11.018-5.51L785.8,533.74l11.018,5.51Z" transform="translate(-779.228 -522.644)"/><path class="c" d="M796.816,540.092l-11.018-5.51V545.6l11.018,5.51Z" transform="translate(-779.228 -523.486)"/><path class="c" d="M785.417,545.23l11.018,5.509a.636.636,0,0,0,.568,0l11.018-5.509a.634.634,0,0,0,.352-.569V533.643a.635.635,0,0,0-.352-.568L797,527.565a.64.64,0,0,0-.568,0l-11.018,5.51a.636.636,0,0,0-.353.568v11.018A.635.635,0,0,0,785.417,545.23Zm21.685-.962-9.748,4.873v-9.6l9.748-4.873Zm-10.383-15.423,9.6,4.8-9.6,4.8-9.6-4.8Zm-10.383,5.827,9.748,4.874v9.6l-9.748-4.873Z" transform="translate(-779.131 -522.547)"/><path class="c" d="M778.859,549.37h1.695a.636.636,0,1,0,0-1.272h-1.059V530.724h1.059a.636.636,0,1,0,0-1.272h-1.695a.636.636,0,0,0-.635.637v18.646A.635.635,0,0,0,778.859,549.37Z" transform="translate(-778.224 -522.806)"/><path class="c" d="M806.3,557.79a.635.635,0,0,0-.635.636v1.059H788.29v-1.059a.635.635,0,1,0-1.271,0v1.7a.636.636,0,0,0,.636.635H806.3a.636.636,0,0,0,.636-.635v-1.7A.636.636,0,0,0,806.3,557.79Z" transform="translate(-779.39 -526.562)"/><path class="c" d="M787.654,524.757a.635.635,0,0,0,.635-.636v-1.059h17.376v1.059a.636.636,0,1,0,1.272,0v-1.7a.637.637,0,0,0-.637-.635H787.654a.635.635,0,0,0-.635.635v1.7A.635.635,0,0,0,787.654,524.757Z" transform="translate(-779.39 -521.79)"/><path class="c" d="M817.688,529.452h-1.695a.636.636,0,1,0,0,1.272h1.059V548.1h-1.059a.636.636,0,1,0,0,1.272h1.695a.635.635,0,0,0,.635-.635V530.089A.636.636,0,0,0,817.688,529.452Z" transform="translate(-783.146 -522.806)"/></g></g></svg>