<svg xmlns="http://www.w3.org/2000/svg" width="122" height="122" viewBox="0 0 122 122"><defs><style>.a{fill:#fff;}.b{fill:#2f2a4a;}.c{fill:#00d857;}</style></defs><g transform="translate(-126 -2988)"><circle class="a" cx="61" cy="61" r="61" transform="translate(126 2988)"/><g transform="translate(148 3010)"><ellipse class="b" cx="10.377" cy="10.377" rx="10.377" ry="10.377" transform="translate(28.255 28.619)"/><g transform="translate(0.896 0.894)"><path class="c" d="M591.326,507.29a10.736,10.736,0,1,0,10.735,10.736A10.736,10.736,0,0,0,591.326,507.29Zm0,11.333a2.982,2.982,0,1,1,2.981-2.982A2.983,2.983,0,0,1,591.326,518.623Z" transform="translate(-580.59 -507.29)"/><path class="c" d="M636.272,552.237a10.736,10.736,0,1,0,10.736,10.736A10.737,10.737,0,0,0,636.272,552.237Zm0,11.332a2.982,2.982,0,1,1,2.981-2.981A2.981,2.981,0,0,1,636.272,563.569Z" transform="translate(-570.664 -497.364)"/><path class="a" d="M608.926,545.621l9.544-5.965-9.544-5.965Z" transform="translate(-574.333 -501.46)"/></g><g transform="translate(0.896 0.894)"><path class="a" d="M591.326,552.237a10.736,10.736,0,1,0,10.735,10.736A10.735,10.735,0,0,0,591.326,552.237Zm0,11.332a2.982,2.982,0,1,1,2.981-2.981A2.982,2.982,0,0,1,591.326,563.569Z" transform="translate(-580.59 -497.364)"/><path class="a" d="M636.272,507.29a10.736,10.736,0,1,0,10.736,10.736A10.737,10.737,0,0,0,636.272,507.29Zm0,11.333a2.982,2.982,0,1,1,2.981-2.982A2.982,2.982,0,0,1,636.272,518.623Z" transform="translate(-570.664 -507.29)"/></g><path class="b" d="M590.085,518.709a3.878,3.878,0,1,0-3.877-3.878A3.883,3.883,0,0,0,590.085,518.709Zm0-5.965A2.088,2.088,0,1,1,588,514.831,2.09,2.09,0,0,1,590.085,512.744Z" transform="translate(-578.453 -505.587)"/><path class="b" d="M590.085,555.9a3.876,3.876,0,1,0,3.878,3.876A3.881,3.881,0,0,0,590.085,555.9Zm0,5.964a2.087,2.087,0,1,1,2.087-2.088A2.09,2.09,0,0,1,590.085,561.866Z" transform="translate(-578.453 -495.661)"/><path class="b" d="M635.031,555.9a3.876,3.876,0,1,0,3.876,3.876A3.882,3.882,0,0,0,635.031,555.9Zm0,5.964a2.087,2.087,0,1,1,2.087-2.088A2.09,2.09,0,0,1,635.031,561.866Z" transform="translate(-568.528 -495.661)"/><path class="b" d="M635.031,518.709a3.878,3.878,0,1,0-3.877-3.878A3.881,3.881,0,0,0,635.031,518.709Zm0-5.965a2.088,2.088,0,1,1-2.087,2.088A2.091,2.091,0,0,1,635.031,512.744Z" transform="translate(-568.528 -505.587)"/><path class="b" d="M608.709,524.7a.9.9,0,0,0-.828-.552h-9.542a.894.894,0,0,0-.895.894v9.545a.894.894,0,0,0,1.526.631l1.61-1.607,1.755,1.753A.894.894,0,0,0,603.6,534.1l-2.387-2.387a.893.893,0,0,0-1.263,0l-.715.714v-6.489h6.49l-.714.714a.892.892,0,0,0,0,1.265l2.387,2.386a.894.894,0,0,0,1.264-1.265l-1.753-1.754,1.609-1.608A.9.9,0,0,0,608.709,524.7Z" transform="translate(-575.972 -502.674)"/><path class="b" d="M617.083,554.5a.9.9,0,0,0,.827.552h9.543a.894.894,0,0,0,.893-.894V544.61a.894.894,0,0,0-1.527-.631l-1.608,1.608-1.759-1.759a.895.895,0,0,0-1.266,1.265l2.393,2.393a.893.893,0,0,0,1.265,0l.714-.714v6.488h-6.49l.714-.714a.9.9,0,0,0,0-1.265l-2.388-2.388a.895.895,0,0,0-1.266,1.265l1.757,1.757-1.609,1.608A.9.9,0,0,0,617.083,554.5Z" transform="translate(-571.683 -498.385)"/><path class="b" d="M608.661,548.892a.9.9,0,0,0-1.266,0l-2.387,2.387a.892.892,0,0,0,0,1.265l.715.714h-6.49V546.77l.714.714a.891.891,0,0,0,1.263,0L603.6,545.1a.895.895,0,0,0-1.265-1.266l-1.753,1.753-1.609-1.608a.894.894,0,0,0-1.527.631v9.545a.894.894,0,0,0,.895.893h9.543a.9.9,0,0,0,.634-1.527l-1.61-1.608,1.755-1.756A.9.9,0,0,0,608.661,548.892Z" transform="translate(-575.972 -498.385)"/><path class="b" d="M628.347,525.039a.894.894,0,0,0-.894-.894H617.91a.9.9,0,0,0-.634,1.527l1.609,1.608-1.759,1.762a.894.894,0,0,0,1.265,1.265l2.393-2.393a.9.9,0,0,0,0-1.265l-.715-.714h6.49v6.488l-.714-.713a.893.893,0,0,0-1.264,0l-2.389,2.388a.894.894,0,1,0,1.265,1.265l1.756-1.754,1.608,1.607a.895.895,0,0,0,1.527-.631Z" transform="translate(-571.683 -502.674)"/><path class="b" d="M627.3,557.941H609.891v-2.277a.894.894,0,0,0-1.526-.631l-6.749,6.748a.893.893,0,0,0,0,1.265l6.749,6.749a.893.893,0,0,0,.631.26.913.913,0,0,0,.343-.066.9.9,0,0,0,.552-.828v-2.273h15.021a.895.895,0,1,0,0-1.79H609a.894.894,0,0,0-.894.893V567l-4.588-4.585,4.588-4.589v1.009a.894.894,0,0,0,.894.894h18.3a.894.894,0,1,0,0-1.787Z" transform="translate(-575.108 -495.911)"/><path class="b" d="M601.272,521.937h17.407v2.277a.892.892,0,0,0,.553.825.861.861,0,0,0,.343.068.893.893,0,0,0,.632-.263l6.746-6.747a.892.892,0,0,0,0-1.265l-6.746-6.749a.895.895,0,0,0-1.529.632v2.274H603.656a.895.895,0,0,0,0,1.79h15.918a.894.894,0,0,0,.894-.894v-1.009l4.589,4.587-4.589,4.589v-1.01a.894.894,0,0,0-.894-.894h-18.3a.894.894,0,1,0,0,1.787Z" transform="translate(-575.324 -505.837)"/><path class="b" d="M593.451,535.694V554a.894.894,0,0,0,1.789,0V536.588h2.275a.894.894,0,0,0,.633-1.527l-6.75-6.748a.921.921,0,0,0-1.264,0l-6.747,6.748a.894.894,0,0,0,.631,1.527h2.276v15.023a.895.895,0,0,0,1.79,0V535.694a.9.9,0,0,0-.9-.895h-1.009l4.588-4.588,4.589,4.588h-1.011A.9.9,0,0,0,593.451,535.694Z" transform="translate(-579.134 -501.809)"/><path class="b" d="M633.031,546.272v-18.3a.9.9,0,0,0-1.791,0v17.408h-2.273a.9.9,0,0,0-.634,1.527l6.747,6.748a.9.9,0,0,0,1.267,0l6.746-6.748a.894.894,0,0,0-.634-1.527h-2.273V530.356a.895.895,0,0,0-1.79,0v15.916a.9.9,0,0,0,.895.9h1.01l-4.588,4.587-4.589-4.587h1.01A.9.9,0,0,0,633.031,546.272Z" transform="translate(-569.208 -502.027)"/><path class="b" d="M625.592,540.661a11.631,11.631,0,1,0-11.632,11.63A11.644,11.644,0,0,0,625.592,540.661Zm-21.472,0a9.841,9.841,0,1,1,9.84,9.841A9.854,9.854,0,0,1,604.12,540.661Z" transform="translate(-574.893 -501.595)"/><path class="b" d="M591.488,529.82a11.631,11.631,0,1,0-11.632-11.632A11.645,11.645,0,0,0,591.488,529.82Zm0-21.472a9.831,9.831,0,0,1,6.857,16.884v-2.438a5.36,5.36,0,0,0-1.209-3.384.895.895,0,0,0-1.383,1.135,3.5,3.5,0,0,1,.8,2.249v3.814a9.748,9.748,0,0,1-10.14,0v-3.814a3.5,3.5,0,0,1,.806-2.249.9.9,0,0,0-1.384-1.135,5.356,5.356,0,0,0-1.21,3.384v2.438a9.831,9.831,0,0,1,6.86-16.884Z" transform="translate(-579.856 -506.558)"/><path class="b" d="M591.488,551.5a11.631,11.631,0,1,0,11.63,11.632A11.646,11.646,0,0,0,591.488,551.5Zm6.857,18.674V567.74a5.348,5.348,0,0,0-1.209-3.382.894.894,0,1,0-1.383,1.133,3.507,3.507,0,0,1,.8,2.249v3.814a9.749,9.749,0,0,1-10.14,0V567.74a3.5,3.5,0,0,1,.806-2.249.894.894,0,1,0-1.384-1.133,5.344,5.344,0,0,0-1.21,3.382v2.438a9.841,9.841,0,1,1,13.717,0Z" transform="translate(-579.856 -496.633)"/><path class="b" d="M636.433,551.5a11.631,11.631,0,1,0,11.63,11.632A11.644,11.644,0,0,0,636.433,551.5Zm6.859,18.674V567.74a5.34,5.34,0,0,0-1.209-3.382.894.894,0,0,0-1.384,1.133,3.507,3.507,0,0,1,.8,2.249v3.814a9.746,9.746,0,0,1-10.139,0V567.74a3.51,3.51,0,0,1,.8-2.249.894.894,0,0,0-1.384-1.133,5.343,5.343,0,0,0-1.209,3.382v2.438a9.843,9.843,0,1,1,13.717,0Z" transform="translate(-569.93 -496.633)"/><path class="b" d="M636.433,529.82a11.631,11.631,0,1,0-11.63-11.632A11.644,11.644,0,0,0,636.433,529.82Zm0-21.472a9.83,9.83,0,0,1,6.859,16.884v-2.438a5.352,5.352,0,0,0-1.209-3.384.9.9,0,0,0-1.384,1.135,3.5,3.5,0,0,1,.8,2.249v3.814a9.745,9.745,0,0,1-10.139,0v-3.814a3.5,3.5,0,0,1,.8-2.249.9.9,0,0,0-1.384-1.135,5.355,5.355,0,0,0-1.209,3.384v2.438a9.831,9.831,0,0,1,6.859-16.884Z" transform="translate(-569.93 -506.558)"/></g></g></svg>