<svg xmlns="http://www.w3.org/2000/svg" xmlns:xlink="http://www.w3.org/1999/xlink" width="256.549" height="188.581" viewBox="0 0 256.549 188.581"><defs><style>.a,.d{fill:#00d857;}.a,.e{opacity:0.1;}.b,.i{fill:#3a3768;}.c{fill:#e6e8ec;}.f{fill:#ffd037;}.g{fill:#a8a8a8;}.h{opacity:0.2;}.i{opacity:0.3;}.j{fill:#fff;}.k{fill:#514e7f;}.l{fill:#464353;}.m{fill:#a1616a;}.n{fill:#fbbebe;}.o{opacity:0.05;}.p{fill:#3f3d56;}.q{fill:url(#a);}.r{fill:#2d293d;}.s{fill:#ffcdd3;}.t{fill:#dce6f2;}.u{fill:#575988;}</style><linearGradient id="a" x1="0.501" y1="1" x2="0.501" gradientUnits="objectBoundingBox"><stop offset="0" stop-color="gray" stop-opacity="0.251"/><stop offset="0.54" stop-color="gray" stop-opacity="0.122"/><stop offset="1" stop-color="gray" stop-opacity="0.102"/></linearGradient></defs><g transform="translate(-868.71 -2759.37)"><path class="a" d="M244.277,75.083c-15.143-.526-29.566-5.414-43.338-10.763s-27.413-11.275-42.2-14.109c-9.5-1.823-20.37-2.08-28.031,3.014-7.37,4.914-9.752,13.372-11.032,21.227-.964,5.913-1.53,12.132,1.109,17.665,1.834,3.842,5.087,7.071,7.338,10.763,7.831,12.8,2.3,28.592-6.189,41.094-3.978,5.864-8.6,11.465-11.671,17.7s-4.492,13.4-1.8,19.762c2.663,6.317,9.011,11.053,15.887,14.39,13.966,6.771,30.417,8.711,46.471,9.808,35.525,2.431,71.237,1.378,106.856.325,13.182-.391,26.421-.786,39.388-2.824,7.2-1.132,14.635-2.929,19.863-7.253,6.638-5.506,8.283-14.83,3.835-21.732-7.459-11.58-28.077-14.458-33.3-26.884-2.869-6.839.077-14.46,4.249-20.8,8.947-13.611,23.943-25.548,24.732-41.105.543-10.683-6.666-21.383-17.813-26.44-11.683-5.3-27.886-4.633-36.5,4.139C273.246,72.072,257.649,75.547,244.277,75.083Z" transform="translate(774.605 2710.353)"/><rect class="b" width="2.073" height="17.085" rx="1.037" transform="translate(1034.445 2817.58)"/><rect class="b" width="1.163" height="5.625" rx="0.581" transform="translate(965.552 2804.196)"/><rect class="b" width="1.31" height="9.79" rx="0.655" transform="translate(965.51 2814.494)"/><rect class="b" width="1.247" height="9.874" rx="0.624" transform="translate(965.531 2827.709)"/><rect class="b" width="69.351" height="140.947" rx="10" transform="translate(966.212 2785.609)"/><rect class="c" width="9.684" height="1.965" rx="0.983" transform="translate(994.196 2789.816)"/><circle class="c" cx="1.116" cy="1.116" r="1.116" transform="translate(1005.345 2789.685)"/><ellipse class="a" cx="46.789" cy="4.768" rx="46.789" ry="4.768" transform="translate(877.618 2925.03)"/><ellipse class="a" cx="21.919" cy="2.235" rx="21.919" ry="2.235" transform="translate(1006.524 2943.482)"/><ellipse class="a" cx="21.919" cy="2.235" rx="21.919" ry="2.235" transform="translate(1081.421 2932.223)"/><path class="d" d="M542.058,176.84h-7.932v.957a4.535,4.535,0,0,1-4.535,4.535H504.28a4.535,4.535,0,0,1-4.535-4.535v-.957H492.3a5.506,5.506,0,0,0-5.505,5.508V304.937a5.506,5.506,0,0,0,5.505,5.508h49.763a5.508,5.508,0,0,0,5.508-5.508V182.348A5.508,5.508,0,0,0,542.058,176.84Z" transform="translate(483.706 2612.438)"/><path class="d" d="M809.974,134.646s-19.7-1.189-17.378,12.616a3.355,3.355,0,0,0,1.75,3.547s.035-1.022,2.019-.676a8.995,8.995,0,0,0,2.141.1,4.446,4.446,0,0,0,2.618-1.079h0s5.536-2.288,7.691-11.339c0,0,1.593-1.975,1.53-2.483l-3.325,1.42a5.942,5.942,0,0,1,.234,4.392s-.108-4.305-.746-4.212c-.131.019-1.729.831-1.729.831s1.956,4.177.468,7.214c0,0,.559-5.148-1.09-6.912l-2.34,1.366s2.284,4.315.737,7.836c0,0,.4-5.4-1.228-7.5l-2.12,1.654s2.146,4.251.838,7.171c0,0-.173-6.285-1.3-6.76a13.033,13.033,0,0,0-2.139,2.307s1.469,3.089.559,4.717c0,0-.559-4.188-1.018-4.212,0,0-1.848,2.775-2.04,4.68a10.1,10.1,0,0,1,1.591-4.942,5.567,5.567,0,0,0-2.829,1.465s.288-1.961,3.276-2.134a12.794,12.794,0,0,1,1.937-2.232,12.139,12.139,0,0,0-4.792.552s1.591-1.851,5.339-1.008l2.092-1.71s-3.926-.536-5.592.056c0,0,1.919-1.638,6.158-.445l2.279-1.362a20.805,20.805,0,0,0-5.344-.468s2.106-1.135,6.011.1l1.638-.732s-2.454-.482-3.173-.559-.756-.274-.756-.274a8.505,8.505,0,0,1,4.64.529S810.033,134.864,809.974,134.646Z" transform="translate(249.598 2644.779)"/><path class="d" d="M755.146,108.452s-8.891-.536-7.852,5.7a1.522,1.522,0,0,0,.791,1.6s.016-.468.913-.307a4.1,4.1,0,0,0,.966.047,2.017,2.017,0,0,0,1.184-.487h0s2.5-1.034,3.475-5.124c0,0,.721-.891.7-1.121l-1.5.641a2.692,2.692,0,0,1,.108,1.984s-.047-1.944-.337-1.9c-.058,0-.779.377-.779.377a4.438,4.438,0,0,1,.215,3.259s.253-2.326-.491-3.124l-1.058.618a4.668,4.668,0,0,1,.332,3.54s.18-2.44-.555-3.39l-.959.749s.971,1.921.379,3.241c0,0-.077-2.841-.585-3.056a5.782,5.782,0,0,0-.966,1.044s.662,1.4.25,2.132c0,0-.253-1.893-.468-1.9a6.3,6.3,0,0,0-.922,2.106,4.554,4.554,0,0,1,.718-2.232,2.506,2.506,0,0,0-1.277.662s.129-.887,1.483-.964a5.84,5.84,0,0,1,.875-1.011,5.486,5.486,0,0,0-2.164.25,2.451,2.451,0,0,1,2.412-.468l.936-.772a8.074,8.074,0,0,0-2.527.026s.868-.739,2.782-.2l1.029-.615a9.353,9.353,0,0,0-2.412-.208,3.7,3.7,0,0,1,2.714.042l.737-.33s-1.107-.218-1.432-.253-.342-.124-.342-.124a3.828,3.828,0,0,1,2.08.234A9.432,9.432,0,0,0,755.146,108.452Z" transform="translate(284.219 2664.833)"/><ellipse class="d" cx="9.408" cy="1.591" rx="9.408" ry="1.591" transform="translate(868.71 2916.551)"/><path class="d" d="M80.093,702.266a2.722,2.722,0,0,0,.9-1.352,1.213,1.213,0,0,0-.627-1.378c-.576-.222-1.191.178-1.657.58a2.213,2.213,0,0,1-1.612.777,2.45,2.45,0,0,0,.751-2.3.936.936,0,0,0-.211-.468c-.318-.342-.9-.194-1.282.075-1.217.856-1.556,2.508-1.561,4a7.371,7.371,0,0,1-.023-1.638,1.688,1.688,0,0,0-.618-1.455,1.872,1.872,0,0,0-.936-.222,1.957,1.957,0,0,0-1.53.435,1.5,1.5,0,0,0,.061,1.872,6.122,6.122,0,0,0,1.582,1.268,3.49,3.49,0,0,1,1.132,1.079,1.034,1.034,0,0,1,.084.192h3.428A9.542,9.542,0,0,0,80.093,702.266Z" transform="translate(801.914 2213.272)"/><path class="d" d="M864.106,632.54s2.024,2.649-.936,6.645-5.4,7.37-4.411,9.862c0,0,4.464-7.422,8.1-7.527S868.1,637,864.106,632.54Z" transform="translate(198.94 2263.362)"/><path class="e" d="M864.484,632.54a3.336,3.336,0,0,1,.414.831c3.545,4.165,5.433,8.054,2.024,8.15-3.173.091-6.982,5.768-7.892,7.2a2.675,2.675,0,0,0,.108.328s4.464-7.422,8.1-7.527S868.48,637,864.484,632.54Z" transform="translate(198.562 2263.362)"/><path class="f" d="M896.888,645.046c0,.936-.105,1.687-.234,1.687s-.234-.756-.234-1.687.131-.491.26-.491S896.888,644.11,896.888,645.046Z" transform="translate(169.921 2254.24)"/><path class="f" d="M898.709,649.626c-.819.445-1.53.716-1.593.6s.552-.566,1.371-1.013.494-.119.557,0S899.528,649.179,898.709,649.626Z" transform="translate(169.392 2250.764)"/><path class="d" d="M821.771,632.54s-2.024,2.649.936,6.645,5.4,7.37,4.413,9.862c0,0-4.464-7.422-8.1-7.527S817.775,637,821.771,632.54Z" transform="translate(230.582 2263.362)"/><path class="e" d="M821.766,632.54a3.241,3.241,0,0,0-.414.831c-3.545,4.165-5.433,8.054-2.026,8.15,3.175.091,6.982,5.768,7.894,7.2a3.15,3.15,0,0,1-.108.328s-4.464-7.422-8.1-7.527S817.769,637,821.766,632.54Z" transform="translate(230.588 2263.362)"/><path class="f" d="M820.55,645.046c0,.936.105,1.687.234,1.687s.234-.756.234-1.687-.131-.491-.26-.491S820.55,644.11,820.55,645.046Z" transform="translate(228.039 2254.24)"/><path class="f" d="M813.381,649.626c.817.445,1.53.716,1.591.6s-.55-.566-1.369-1.013-.5-.119-.557,0S812.572,649.179,813.381,649.626Z" transform="translate(233.909 2250.764)"/><path class="g" d="M823.31,691.6s5.66-.175,7.366-1.39,8.706-2.665,9.125-.716,8.505,9.689,2.106,9.741-14.848-1-16.549-2.033S823.31,691.6,823.31,691.6Z" transform="translate(225.925 2220.468)"/><path class="h" d="M842.035,708.543c-6.39.051-14.848-1-16.549-2.033-1.3-.789-1.813-3.622-1.987-4.93h-.19s.358,4.565,2.061,5.6,10.159,2.085,16.549,2.033c1.844-.016,2.483-.671,2.447-1.638C844.111,708.164,843.409,708.531,842.035,708.543Z" transform="translate(225.925 2210.476)"/><rect class="i" width="18.257" height="18.257" transform="translate(1005.478 2873.522)"/><rect class="i" width="18.257" height="18.257" transform="translate(978.571 2849.422)"/><rect class="i" width="18.257" height="18.257" transform="translate(980.325 2897.21)"/><rect class="j" width="18.257" height="18.257" transform="translate(976.252 2804.594)"/><rect class="j" width="18.257" height="18.257" transform="matrix(0.742, -0.671, 0.671, 0.742, 1006.536, 2879.191)"/><rect class="j" width="18.257" height="18.257" transform="translate(1005.176 2826.595)"/><rect class="j" width="18.257" height="18.257" transform="translate(982.097 2846.951)"/><path class="d" d="M1022.086,773.413a7.115,7.115,0,0,0,3.182-.108c.157-.049.337-.157.316-.318a.374.374,0,0,0-.072-.154,9.915,9.915,0,0,1-.966-1.832.151.151,0,0,0-.059-.082.143.143,0,0,0-.1,0c-.468.122-.875.426-1.343.555a1.916,1.916,0,0,1-.73.056c-.211-.023-.5-.2-.69-.178C1021.737,772.046,1022,772.7,1022.086,773.413Z" transform="translate(74.015 2157.369)"/><path class="d" d="M1105.725,762.1a5.435,5.435,0,0,0,1.841-1.729.284.284,0,0,0,.049-.147.3.3,0,0,0-.058-.145,5.993,5.993,0,0,0-1.5-1.615,4.422,4.422,0,0,0-.835.77c-.176.185-.662.489-.667.765,0,.166.185.346.271.468.117.173.234.351.335.529A8.8,8.8,0,0,1,1105.725,762.1Z" transform="translate(10.481 2166.905)"/><path class="k" d="M1005.9,779.243a.7.7,0,0,1-.126.468.626.626,0,0,1-.269.157c-1.488.531-3.2-.133-4.68.393-.307.108-.594.262-.9.365a4.877,4.877,0,0,1-1.116.2c-.526.052-1.053.082-1.579.1a3.82,3.82,0,0,1-1.189-.1,1.439,1.439,0,0,1-.913-.723.7.7,0,0,1-.044-.515.582.582,0,0,1,.1-.166,1.423,1.423,0,0,1,.351-.283l.547-.353a3.658,3.658,0,0,1,.828-.44c.215-.07.447-.1.665-.164a4.59,4.59,0,0,0,1.9-1.42l.744-.793a.729.729,0,0,1,.257-.206.7.7,0,0,1,.318-.033,4.3,4.3,0,0,1,2.029.683,2.924,2.924,0,0,0,.5.295,1.787,1.787,0,0,0,1.4-.175c.192-.1.15-.164.234-.344s.276-.3.445-.131a.487.487,0,0,1,.105.2,5.582,5.582,0,0,1,.1,1.654.733.733,0,0,0,.033.257,1.563,1.563,0,0,0,.145.234.378.378,0,0,1,.031.061A1.624,1.624,0,0,1,1005.9,779.243Z" transform="translate(94.365 2153.687)"/><path class="l" d="M1005.9,788.224a.7.7,0,0,1-.126.468.627.627,0,0,1-.269.157c-1.488.531-3.2-.133-4.68.393-.307.108-.594.262-.9.365a4.877,4.877,0,0,1-1.116.2c-.526.051-1.053.082-1.579.1a3.82,3.82,0,0,1-1.189-.1,1.439,1.439,0,0,1-.913-.723.7.7,0,0,1-.044-.515.583.583,0,0,1,.1-.166c.089.183.152.421.206.508a1.039,1.039,0,0,0,.7.5,1.783,1.783,0,0,0,.634-.082,32.3,32.3,0,0,0,4.071-.845,9.73,9.73,0,0,1,1.334-.512,10.592,10.592,0,0,1,1.441-.117c.76-.061,1.5-.29,2.246-.409a1.625,1.625,0,0,1,.087.784Z" transform="translate(94.365 2144.706)"/><path class="k" d="M1096.528,765.139a2.7,2.7,0,0,1-.821,1.462,9.387,9.387,0,0,0-1.146,1.257,10.338,10.338,0,0,1-1.06,1.816,2.866,2.866,0,0,1-.636.468,4.4,4.4,0,0,1-.826.379,6.323,6.323,0,0,1-2.34.129,2.078,2.078,0,0,1-.74-.145,2.142,2.142,0,0,1-.313-.189,1.488,1.488,0,0,1-.468-.484.487.487,0,0,1-.044-.349.8.8,0,0,1,.234-.342,5.3,5.3,0,0,1,.564-.508,3.343,3.343,0,0,0,.735-.646,2.1,2.1,0,0,0,.283-.646,5.8,5.8,0,0,0,.206-1.228,3.86,3.86,0,0,1,.087-.821c.119-.421.433-.8.4-1.24a.318.318,0,0,1,.016-.187.292.292,0,0,1,.147-.091,2.663,2.663,0,0,1,.767-.176.885.885,0,0,1,.7.278c.11.131.18.314.341.372a.567.567,0,0,0,.234,0,1.99,1.99,0,0,0,1.114-.344,1.4,1.4,0,0,0,.468-1.023c0-.145-.066-.3.157-.328.171-.023.3.154.391.271a3.816,3.816,0,0,1,.751,1.369.379.379,0,0,1,.143-.028.61.61,0,0,1,.51.262A1.01,1.01,0,0,1,1096.528,765.139Z" transform="translate(23.076 2163.771)"/><path class="l" d="M1096.72,770.469a2.7,2.7,0,0,1-.821,1.462,9.363,9.363,0,0,0-1.146,1.256,10.32,10.32,0,0,1-1.06,1.816,2.868,2.868,0,0,1-.636.468,4.4,4.4,0,0,1-.826.379,6.324,6.324,0,0,1-2.34.129,2.079,2.079,0,0,1-.739-.145,2.148,2.148,0,0,1-.314-.19,1.486,1.486,0,0,1-.468-.484,1.138,1.138,0,0,1,.482-.115c.349.019.6.346.936.447.468.143.936-.192,1.425-.306.314-.073.646-.052.952-.152a2.35,2.35,0,0,0,.7-.426,3.57,3.57,0,0,0,.751-.725,4.623,4.623,0,0,0,.442-.88,12.554,12.554,0,0,1,.892-1.706,1.13,1.13,0,0,1,.182-.234c.073-.068.164-.117.234-.178a1.861,1.861,0,0,0,.566-1.032,1.727,1.727,0,0,1,.126-.344.611.611,0,0,1,.51.262A1.011,1.011,0,0,1,1096.72,770.469Z" transform="translate(22.883 2158.441)"/><path class="m" d="M978.344,546.993a3.4,3.4,0,0,1,.955,1.116,22.7,22.7,0,0,1,1.444,4.345c.421-.426,2.092-.5,2.51-.92.178-.178,1.14-1.067,1.282-1.273s1.214-.648,1.331-.859c.438-.784-3.1-3.744-2.651-4.53a.191.191,0,0,0,.037-.122.186.186,0,0,0-.058-.094,5.631,5.631,0,0,0-1.025-.7,1.638,1.638,0,0,1-.781-.936,3.361,3.361,0,0,0-.906.613q-.971.831-1.914,1.7c-.248.234-.721.531-.835.857S978.108,546.8,978.344,546.993Z" transform="translate(107.646 2331.936)"/><path class="k" d="M990.274,554.61a10.257,10.257,0,0,0-1.516,1.24,3.035,3.035,0,0,0-.966,1.547c-.044.234-.037.482-.075.723-.157,1.048-1.067,1.818-1.467,2.808a4.8,4.8,0,0,0-.257.936,11.036,11.036,0,0,0-.183,1.839c0,.6.576,1.011.791,1.57a9.513,9.513,0,0,1,.381,1.7,20.724,20.724,0,0,0,.957,3.159c.791,2.183,3.353,8.22,4.144,10.405,2.422-.608,8.87-2.005,11.013-3.276.716-.426-4.96-5.236-4.2-5.569a.386.386,0,0,0,.213-.161.37.37,0,0,0,0-.234c-.763-3.344-3.156-6.083-4.24-9.359a28.263,28.263,0,0,0-1.568-3.17c-.468-.973-.714-2.047-1.268-2.972a1.984,1.984,0,0,0-.4-.508,2.481,2.481,0,0,0-.449-.269C990.878,554.856,990.583,554.764,990.274,554.61Z" transform="translate(101.446 2323.058)"/><circle class="m" cx="3.79" cy="3.79" r="3.79" transform="translate(1082.328 2870.967)"/><path class="l" d="M997.43,548.681a1.27,1.27,0,0,1,1.425-.2.7.7,0,0,1,.424.683l1.872.028a3.914,3.914,0,0,1,.891.082,1.3,1.3,0,0,1,.744.468.162.162,0,0,0,.087.073.15.15,0,0,0,.087-.031,1.649,1.649,0,0,1,.936-.168,5.058,5.058,0,0,1,2.752,1.21.892.892,0,0,1,.328.4c.065.213,0,.487.154.632a22.521,22.521,0,0,0,1.011,5.131,2.275,2.275,0,0,0,.569.817,3.276,3.276,0,0,1,.608.908c.342.891-.131,1.937.2,2.833a4.564,4.564,0,0,0,.646,1.018,2.623,2.623,0,0,1,.55,1.315c.014.215-.014.431,0,.648a3.947,3.947,0,0,0,.154.852c.136.517.281,1.034.43,1.549a3.485,3.485,0,0,0,1.308,2.178,10.7,10.7,0,0,1-5.424-.021,2.809,2.809,0,0,1-.676-.339,3.894,3.894,0,0,1-1.186-1.914,8.995,8.995,0,0,1-.664-2.471,2.824,2.824,0,0,0-.112-.807,2.256,2.256,0,0,0-1.065-1,5.126,5.126,0,0,1-1.28-1,1.989,1.989,0,0,1-.519-1.5c.033-.264.136-.519.147-.786a.629.629,0,0,0-.365-.648c-1.313-.4-1.94-1.951-2.232-3.292a10.5,10.5,0,0,1-.168-2.106l-.016-1.355a1.8,1.8,0,0,1-.59-1.3,1.451,1.451,0,0,0,0-.428,1.2,1.2,0,0,0-.3-.468,3.954,3.954,0,0,1-.728-.992Z" transform="translate(92.545 2327.857)"/><path class="l" d="M979.307,564.593a10.016,10.016,0,0,1-.042,1.273c-.037.159-.1.311-.147.468a2.762,2.762,0,0,0,.175,1.783,9.9,9.9,0,0,0,.91,1.579,2.41,2.41,0,0,1,.292.545,2.825,2.825,0,0,1,.112.625,19.018,19.018,0,0,0,.447,2.513,4.937,4.937,0,0,0,.884,2.019.613.613,0,0,0,.365.248.66.66,0,0,0,.311-.066l.969-.367a.678.678,0,0,0,.234-.122.588.588,0,0,0,.136-.379,5.571,5.571,0,0,0-.426-2.3,58.617,58.617,0,0,1-2.34-6.692,4.806,4.806,0,0,0-.688-2.141c-.194-.211-.129-.122-.36,0a2.938,2.938,0,0,0-.339.18A1.111,1.111,0,0,0,979.307,564.593Z" transform="translate(106.63 2316.28)"/><path class="l" d="M1059.24,627.68" transform="translate(45.197 2267.085)"/><path class="d" d="M991.884,564.908q.386,2.043.788,4.088l3.762-.987a2.637,2.637,0,0,0-.325-1.125c-.344-.861-.351-1.818-.629-2.7-.211-.674-.576-1.294-.772-1.972-.115-.393-.171-.8-.283-1.2a9.2,9.2,0,0,0-.442-1.144,7.293,7.293,0,0,0-.821-1.523,2.4,2.4,0,0,0-1.268.821,1.743,1.743,0,0,0-.234.81c-.066.847.234,1.7.138,2.534A7.487,7.487,0,0,0,991.884,564.908Z" transform="translate(96.973 2320.201)"/><path class="l" d="M1005.524,637.457a4.528,4.528,0,0,1-.344,2.438,18.936,18.936,0,0,0-.767,3.671,3.04,3.04,0,0,1-.19.936,8.75,8.75,0,0,1-.456.749,3.751,3.751,0,0,0-.288,2.253c.054.505.136,1.008.234,1.507a3.8,3.8,0,0,1,.1,1.834c.3-.065.5.318.489.625s-.119.634.026.9c.37.133.374.641.363,1.032a8.693,8.693,0,0,0,.255,2.022q.838,4.022,1.778,8.023c1.355.421,2.936.859,4.228.276a.83.83,0,0,0,.536-.538.968.968,0,0,0-.051-.414l-.613-2.227a4.1,4.1,0,0,1-.22-1.638c.061-.414.234-.859.037-1.221a3.519,3.519,0,0,0-.257-.342c-.323-.468-.154-1.1-.126-1.668a1.307,1.307,0,0,0-.028-.381,2,2,0,0,0-.18-.419,6.4,6.4,0,0,1-.7-3.182.781.781,0,0,0-.056-.417.965.965,0,0,1-.1-.168.452.452,0,0,1,.033-.307,2.665,2.665,0,0,1-.494-.468.7.7,0,0,0,.117-1.081.36.36,0,0,0,.173-.62c-.08-.056-.182-.08-.234-.159-.087-.117-.016-.283.054-.409l.374-.676c.278-.5.342-1.121.641-1.61a12.075,12.075,0,0,0,.987-2.253l1.067-2.972.725.629a2.271,2.271,0,0,1,.6.681,2.873,2.873,0,0,1,.192.814c.267,1.615,1.284,3.014,1.661,4.607a3.108,3.108,0,0,0,.342,1.03,2.215,2.215,0,0,1,.2.295,1.553,1.553,0,0,1,.082.489,2.279,2.279,0,0,0,.962,1.638c.356.234.807.414.994.8a1.591,1.591,0,0,0,.164.342c.173.208.547.234.622.494.04.147-.037.32.047.449a.41.41,0,0,0,.175.131l1.046.524c1.17.583,1.76,1.919,2.623,2.9a6.015,6.015,0,0,1,.784,1.039c.372.665.545,1.5,1.17,1.928a1.824,1.824,0,0,1,.454.337c.2.26.126.625.143.952s.269.716.58.618a2.256,2.256,0,0,0,0,1.21,6.1,6.1,0,0,0,3.7-1.5,1.458,1.458,0,0,0,.6-1.008.39.39,0,0,0-.044-.2.547.547,0,0,0-.234-.178c-.976-.529-1.271-1.755-1.76-2.752a23.008,23.008,0,0,0-1.61-2.452c-1.17-1.755-1.951-3.877-3.709-5.038a2.512,2.512,0,0,1-1.027-.9,7.237,7.237,0,0,1-.206-.749.629.629,0,0,0-.55-.468,3.34,3.34,0,0,0,.126-1.17,1.456,1.456,0,0,0-.059-.5,2.386,2.386,0,0,0-.257-.5,4.808,4.808,0,0,1-.662-2.574,4.143,4.143,0,0,0-.044-1.383c-.07-.234-.192-.428-.278-.646a4.027,4.027,0,0,1-.2-1.2l-.1-1.542a7.371,7.371,0,0,0-.2-1.523c-.325-1.2-.636-6.205-1.738-6.769s-2.983,3.29-4.212,3.367a5.616,5.616,0,0,0-1.61.309,7.8,7.8,0,0,0-2.183,1.448l-2.274,1.909a8.291,8.291,0,0,1-1.411,1.018Z" transform="translate(87.946 2265.806)"/><path class="l" d="M962.532,520.656a2.859,2.859,0,0,1,2.206-1.076,5.147,5.147,0,0,1,2.438.613,3.147,3.147,0,0,0,.7.292c.4.082.847-.028,1.21.164a1.45,1.45,0,0,1,.531,1.448,2.635,2.635,0,0,0,.145,1.6,4.443,4.443,0,0,1,.278.416,1.39,1.39,0,0,1-.026.891,7.149,7.149,0,0,1-.468-.587.545.545,0,0,0-.662-.173c-.206.138-.206.393-.215.62s-.07.5-.286.576a.468.468,0,0,1-.468-.187c-.367-.449-.22-1.17-.583-1.619-.208-.257-.552-.381-.744-.65-.15-.211-.187-.484-.318-.7s-.437-.4-.643-.234a.874.874,0,0,0-.171.234.985.985,0,0,1-1.17.351,2.053,2.053,0,0,0-.508-.218.625.625,0,0,0-.578.314,1.246,1.246,0,0,0-.152.669,1.555,1.555,0,0,1-.126.92.949.949,0,0,1-.271.234.8.8,0,0,1-.889.091.669.669,0,0,1-.2-.622,5.131,5.131,0,0,1,.19-.658c.14-.5-.042-1.055.112-1.523A4.794,4.794,0,0,1,962.532,520.656Z" transform="translate(120.028 2349.892)"/><path class="d" d="M974.38,550.178a.586.586,0,0,0,.035.349.566.566,0,0,0,.19.183,3.927,3.927,0,0,0,1.788.578.538.538,0,0,1,.234.063.442.442,0,0,1,.105.5,1.326,1.326,0,0,0-.112.529c.047.335.442.487.779.529a1.807,1.807,0,0,0,1.355-.262,2.09,2.09,0,0,0,.559-.84c.92-2.106,1.242-4.446,2.174-6.551a1.333,1.333,0,0,0,.14-.438.435.435,0,0,0-.173-.4c-.173-.108-.442-.047-.559-.213-.058-.087-.052-.2-.1-.29-.108-.192-.388-.168-.583-.271-.15-.082-.255-.234-.421-.278a.538.538,0,0,0-.44.19,5.655,5.655,0,0,0-1.137,1.916,22.758,22.758,0,0,1-1.638,3.021,1.746,1.746,0,0,0-.51-1c-.285-.058-.655.445-.81.634A4.018,4.018,0,0,0,974.38,550.178Z" transform="translate(110.211 2331.678)"/><rect class="j" width="18.257" height="18.257" transform="translate(1086.505 2884.851)"/><path class="m" d="M1055.862,625.27a7.386,7.386,0,0,0-.866.908,1.808,1.808,0,0,0-.4,1.17.6.6,0,0,0,.112.342.292.292,0,0,0,.325.1.467.467,0,0,0,.159-.143,7.462,7.462,0,0,1,.538-.585c.07-.068.159-.14.252-.115a.266.266,0,0,1,.11.073.744.744,0,0,1,.234.353.838.838,0,0,1-.248.681,1.76,1.76,0,0,0-.419.62.263.263,0,0,0,0,.2.323.323,0,0,0,.124.108,1.806,1.806,0,0,0,1.514.1c.325-.129.606-.353.936-.468a2.243,2.243,0,0,0,.414-.154.852.852,0,0,0,.367-.548,2.338,2.338,0,0,0,.026-.676,7.718,7.718,0,0,0-.564-2.55.3.3,0,0,0-.091-.136.322.322,0,0,0-.154-.044,3.834,3.834,0,0,0-1.479-.1,1.012,1.012,0,0,0-.349.311C1056.316,624.795,1055.862,625.162,1055.862,625.27Z" transform="translate(48.753 2269.638)"/><path class="l" d="M1040.584,577.681c0-.393-.487-1.336.283-1.4,0-.416-.592-.678-.484-1.118.037-.15.157-.269.176-.419.049-.428-.723-.66-.6-1.072.047-.157.218-.253.255-.412.087-.37-.576-.536-.587-.915,0-.129.07-.25.066-.377,0-.161-.141-.283-.218-.421-.2-.358-.1-.912-.468-1.1.234.019.325-.339.222-.559s-.3-.409-.3-.653a1.034,1.034,0,0,0,0-.269c-.068-.234-.452-.25-.515-.484a2.514,2.514,0,0,1,0-.264c-.023-.182-.211-.295-.386-.349a1.534,1.534,0,0,1-.515-.182c-.112-.087-.234-.234-.363-.152-.045.026-.068.077-.1.117-.143.166-.416.094-.6-.03a2.477,2.477,0,0,1-.917-1.652c-.117-.636-.11-1.294-.25-1.926a4.378,4.378,0,0,0-.171-.576,2.988,2.988,0,0,1-.271-.576c-.028-.367.735-.117,1.025-.08a4.546,4.546,0,0,1,.833.157,8.788,8.788,0,0,1,.849.372c1.17.512,2.555.576,3.486,1.434a2.9,2.9,0,0,0,.959.779,4.908,4.908,0,0,1,.538.14c.442.208.51.793.751,1.217a2.615,2.615,0,0,1,.2.351,1.377,1.377,0,0,1,.063.449l.033,1.111a41.055,41.055,0,0,1-.089,5.578,4.605,4.605,0,0,0,.021,1.825c.047.159.115.311.155.468a3.191,3.191,0,0,1,.061.578l.026.718a.173.173,0,0,1-.229.213c-1-.089-2.015-.655-2.962-.313" transform="translate(63.891 2316.865)"/><path class="m" d="M978.779,613.36a.31.31,0,0,0-.112.094.8.8,0,0,0,0,.95.32.32,0,0,1,.056.094.276.276,0,0,1-.028.159.527.527,0,0,0,.073.59c.073.061.171.091.218.171.082.136-.033.309-.014.468.023.208.269.311.468.337a.5.5,0,0,0,.456-.122.379.379,0,0,0,0-.414,1.108,1.108,0,0,0-.309-.309.468.468,0,0,0,.442-.428.664.664,0,0,0-.267-.583c-.042-.035-.094-.07-.105-.126s.044-.133.1-.187c.234-.234.414-.807-.026-.936a1.084,1.084,0,0,0-.468.021c-.112.035-.112.1-.2.15S978.877,613.311,978.779,613.36Z" transform="translate(107.038 2278.253)"/><path class="e" d="M993.488,545.14a.772.772,0,0,0-.594.3,1.709,1.709,0,0,0-.248.8,6.975,6.975,0,0,1-.936,2.541" transform="translate(96.927 2330.312)"/><path class="e" d="M997.072,547.88a.908.908,0,0,0-.777.468,2.6,2.6,0,0,0-.2.793,4.311,4.311,0,0,1-.779,1.664" transform="translate(94.162 2328.213)"/><path class="n" d="M320.877,603.5c.136,1.479-.98,2.911-.655,4.357.07.309.2.6.253.912a3.525,3.525,0,0,1-.868,2.391l-4.2,6.163a3.993,3.993,0,0,1-.6.742c-.8.7-2.008.639-3.063.852a5.253,5.253,0,0,0-2.05.908.133.133,0,0,0-.028.185,1.767,1.767,0,0,0,1.526.716c.11.145,0,.358-.152.468-.234.157-.536.2-.58.58a.627.627,0,0,0,.077.384,1.186,1.186,0,0,0,.735.51,4.343,4.343,0,0,0,4.111-1.4c1.086-1.069,1.872-2.4,2.939-3.486.592-.6,1.263-1.111,1.872-1.692a21.531,21.531,0,0,0,3.072-3.978,4.414,4.414,0,0,0,.664-1.352c.112-.482.061-.99.192-1.467a5.294,5.294,0,0,1,1.006-1.638,5.437,5.437,0,0,0,1.144-3.545,3.394,3.394,0,0,0-2.073-2.941,1.855,1.855,0,0,0-1.17-.073,2.823,2.823,0,0,0-1.184.936l-.8.922a2.125,2.125,0,0,0-.468.7.737.737,0,0,0,.164.784" transform="translate(619.405 2287.496)"/><path class="o" d="M320.877,603.5c.136,1.479-.98,2.911-.655,4.357.07.309.2.6.253.912a3.525,3.525,0,0,1-.868,2.391l-4.2,6.163a3.993,3.993,0,0,1-.6.742c-.8.7-2.008.639-3.063.852a5.253,5.253,0,0,0-2.05.908.133.133,0,0,0-.028.185,1.767,1.767,0,0,0,1.526.716c.11.145,0,.358-.152.468-.234.157-.536.2-.58.58a.627.627,0,0,0,.077.384,1.186,1.186,0,0,0,.735.51,4.343,4.343,0,0,0,4.111-1.4c1.086-1.069,1.872-2.4,2.939-3.486.592-.6,1.263-1.111,1.872-1.692a21.531,21.531,0,0,0,3.072-3.978,4.414,4.414,0,0,0,.664-1.352c.112-.482.061-.99.192-1.467a5.294,5.294,0,0,1,1.006-1.638,5.437,5.437,0,0,0,1.144-3.545,3.394,3.394,0,0,0-2.073-2.941,1.855,1.855,0,0,0-1.17-.073,2.823,2.823,0,0,0-1.184.936l-.8.922a2.125,2.125,0,0,0-.468.7.737.737,0,0,0,.164.784" transform="translate(619.405 2287.496)"/><path class="m" d="M213.773,607.5c.234.739.468,1.479.751,2.2a18.61,18.61,0,0,0,1.944,3.547,25.563,25.563,0,0,0,1.607,2.106,7.078,7.078,0,0,1,1.769,2.773,14.045,14.045,0,0,1,.159,1.912,2.334,2.334,0,0,0,.784,1.694,2.913,2.913,0,0,0,1.292.426c.323.051.728.068.9-.213a.8.8,0,0,0,.089-.37l.08-.936c.016-.2.087-.468.288-.468s.3.26.468.379a.508.508,0,0,0,.7-.234,1.17,1.17,0,0,0,.019-.819,3.889,3.889,0,0,0-2-2.473,6,6,0,0,1-.973-.508,3.31,3.31,0,0,1-.765-.964,60.5,60.5,0,0,1-4.8-9.01,6.665,6.665,0,0,1-.494-1.776,11.465,11.465,0,0,1,.077-1.872,10.714,10.714,0,0,0-.309-3.341,2.628,2.628,0,0,0-.321-.812,1.817,1.817,0,0,0-2.485-.358,2.56,2.56,0,0,0-.987,1.806,5.158,5.158,0,0,0,.494,1.872Q212.923,604.781,213.773,607.5Z" transform="translate(694.534 2289.781)"/><path class="o" d="M213.773,607.5c.234.739.468,1.479.751,2.2a18.61,18.61,0,0,0,1.944,3.547,25.563,25.563,0,0,0,1.607,2.106,7.078,7.078,0,0,1,1.769,2.773,14.045,14.045,0,0,1,.159,1.912,2.334,2.334,0,0,0,.784,1.694,2.913,2.913,0,0,0,1.292.426c.323.051.728.068.9-.213a.8.8,0,0,0,.089-.37l.08-.936c.016-.2.087-.468.288-.468s.3.26.468.379a.508.508,0,0,0,.7-.234,1.17,1.17,0,0,0,.019-.819,3.889,3.889,0,0,0-2-2.473,6,6,0,0,1-.973-.508,3.31,3.31,0,0,1-.765-.964,60.5,60.5,0,0,1-4.8-9.01,6.665,6.665,0,0,1-.494-1.776,11.465,11.465,0,0,1,.077-1.872,10.714,10.714,0,0,0-.309-3.341,2.628,2.628,0,0,0-.321-.812,1.817,1.817,0,0,0-2.485-.358,2.56,2.56,0,0,0-.987,1.806,5.158,5.158,0,0,0,.494,1.872Q212.923,604.781,213.773,607.5Z" transform="translate(694.534 2289.781)"/><path class="p" d="M360.734,751.6a4.9,4.9,0,0,1-3.126.468c-.171-.021-.374-.035-.484.1-.159.192.028.468.222.632a4.651,4.651,0,0,0,2.148.882,14.649,14.649,0,0,0,2.106.14,35.6,35.6,0,0,0,5.74-.213.76.76,0,0,0,.314-.091.594.594,0,0,0,.234-.36,1.434,1.434,0,0,0-.5-1.366,4.213,4.213,0,0,0-1.338-.718l-1.666-.648a4.286,4.286,0,0,0-1.444-.524C362.152,749.955,361.4,751.216,360.734,751.6Z" transform="translate(583.078 2173.46)"/><path class="p" d="M379.433,766.576a4.092,4.092,0,0,1-2.8,1.044c-.262,0-.627.049-.627.311a.411.411,0,0,0,.075.218,2.573,2.573,0,0,0,1.446,1.133,5.147,5.147,0,0,0,1.746.11l1.708-.089c.323-.016.648-.033.969-.073s.669-.105,1-.157a13.392,13.392,0,0,1,2.487-.117.723.723,0,0,0,.613-.164c.152-.192.063-.468.014-.7-.1-.494,0-1.013-.1-1.511a2.657,2.657,0,0,0-1.743-1.855c-.767-.292-2.129-.627-2.857-.14A18.4,18.4,0,0,0,379.433,766.576Z" transform="translate(568.566 2162.404)"/><path class="l" d="M372.081,648.47a4.439,4.439,0,0,0-1.24,3.133,7.065,7.065,0,0,0,.69,1.729,12.189,12.189,0,0,1,.7,2.429c.26,1.21.519,2.422.681,3.648a22.786,22.786,0,0,1,.152,4.188,1.413,1.413,0,0,1-.293.936c-.094.094-.215.171-.255.3a.5.5,0,0,0,.054.351,3.886,3.886,0,0,0,2.082,1.916,7.976,7.976,0,0,0,2.831.529.8.8,0,0,0,.379-.049.729.729,0,0,0,.292-.335c.7-1.334.311-2.943.323-4.446,0-1.256.3-2.5.25-3.758-.044-1.006-.314-1.989-.412-2.993a17.71,17.71,0,0,1,.442-4.925c.234-1.245.468-2.492.76-3.725a7.1,7.1,0,0,1,.8-2.162c.328-.517.772-.95,1.147-1.437a6.521,6.521,0,0,0,1.282-4.766,11.606,11.606,0,0,0-2.616.7,8.109,8.109,0,0,0-2.34,1.5,19.373,19.373,0,0,0-1.469,1.816q-1.025,1.247-2.017,2.508Q373.181,647,372.081,648.47Z" transform="translate(572.543 2258.408)"/><path class="o" d="M372.081,648.47a4.439,4.439,0,0,0-1.24,3.133,7.065,7.065,0,0,0,.69,1.729,12.189,12.189,0,0,1,.7,2.429c.26,1.21.519,2.422.681,3.648a22.786,22.786,0,0,1,.152,4.188,1.413,1.413,0,0,1-.293.936c-.094.094-.215.171-.255.3a.5.5,0,0,0,.054.351,3.886,3.886,0,0,0,2.082,1.916,7.976,7.976,0,0,0,2.831.529.8.8,0,0,0,.379-.049.729.729,0,0,0,.292-.335c.7-1.334.311-2.943.323-4.446,0-1.256.3-2.5.25-3.758-.044-1.006-.314-1.989-.412-2.993a17.71,17.71,0,0,1,.442-4.925c.234-1.245.468-2.492.76-3.725a7.1,7.1,0,0,1,.8-2.162c.328-.517.772-.95,1.147-1.437a6.521,6.521,0,0,0,1.282-4.766,11.606,11.606,0,0,0-2.616.7,8.109,8.109,0,0,0-2.34,1.5,19.373,19.373,0,0,0-1.469,1.816q-1.025,1.247-2.017,2.508Q373.181,647,372.081,648.47Z" transform="translate(572.543 2258.408)"/><path class="l" d="M386.655,637.406c.15.716.845,1.264.863,2a3.132,3.132,0,0,1-.7,1.579,10.6,10.6,0,0,0-.716,1.624,24.757,24.757,0,0,1-2.106,4.181,3.329,3.329,0,0,0-.756,2.073,3.061,3.061,0,0,0,.363.99l1.2,2.389a6.854,6.854,0,0,1,.613,1.509c.105.454.115.936.175,1.385.19,1.465.875,2.939.468,4.359-.035.122-.164.269-.26.185a4.552,4.552,0,0,1,.686,2.34,3.257,3.257,0,0,0,.014,1.313,1.432,1.432,0,0,1,.183.5c0,.119-.056.234-.068.353a.782.782,0,0,0,.6.728c.323.108.674.1,1,.2a6.226,6.226,0,0,1,1.61,1.1,3.382,3.382,0,0,0,1.846.6.468.468,0,0,0,.271-.054.445.445,0,0,0,.152-.33,1.834,1.834,0,0,0-.662-1.593.738.738,0,0,1-.234-.257.625.625,0,0,1-.023-.288,21.338,21.338,0,0,0-.07-3.943,6.085,6.085,0,0,1-.061-1.254,5.126,5.126,0,0,0,.1-1.046,5.34,5.34,0,0,0-.321-1,7,7,0,0,1-.152-1.872,16.409,16.409,0,0,0-.529-3.2,2.431,2.431,0,0,0-.5-1.156c-.25-.262-.655-.51-.559-.859a.993.993,0,0,1,.234-.342,1.371,1.371,0,0,0,.288-1.046.468.468,0,0,0,.538-.253,8.423,8.423,0,0,0,4.23-4.811,1.564,1.564,0,0,1,.19-.428,1.952,1.952,0,0,1,.775-.5,5.874,5.874,0,0,0,2.033-2.073,4.823,4.823,0,0,0,.786-1.5,4.955,4.955,0,0,0,.108-1.086l.049-1.872a1.074,1.074,0,0,0-.035-.367.935.935,0,0,0-.2-.3,3.634,3.634,0,0,0-2-1.076c-.512-.091-1.037-.075-1.556-.117a19.586,19.586,0,0,0-3.009-.323,4.841,4.841,0,0,0-3.744,2.614C387.493,636.969,387.217,637.39,386.655,637.406Z" transform="translate(563.038 2262.363)"/><path class="k" d="M172.33,753.655a2.547,2.547,0,0,0,1.076.129c.026-.3.426-.363.723-.349a.831.831,0,0,1,.426.094c.075.047.131.117.2.166a.876.876,0,0,0,.421.108l1.549.131a4.637,4.637,0,0,0,2.054-.136.671.671,0,0,0,.33-.22c.176-.25,0-.611-.234-.793s-.555-.267-.8-.454c-.538-.409-.611-1.17-.9-1.788a5.157,5.157,0,0,0-.739-1.074,4.108,4.108,0,0,0-.732-.749,3.83,3.83,0,0,0-2.064-.5,1.383,1.383,0,0,0-1.369.379c-.456.566-.274,1.708-.246,2.384a17.065,17.065,0,0,0,.295,2.674Z" transform="translate(724.86 2174.77)"/><path class="o" d="M172.33,753.655a2.547,2.547,0,0,0,1.076.129c.026-.3.426-.363.723-.349a.831.831,0,0,1,.426.094c.075.047.131.117.2.166a.876.876,0,0,0,.421.108l1.549.131a4.637,4.637,0,0,0,2.054-.136.671.671,0,0,0,.33-.22c.176-.25,0-.611-.234-.793s-.555-.267-.8-.454c-.538-.409-.611-1.17-.9-1.788a5.157,5.157,0,0,0-.739-1.074,4.108,4.108,0,0,0-.732-.749,3.83,3.83,0,0,0-2.064-.5,1.383,1.383,0,0,0-1.369.379c-.456.566-.274,1.708-.246,2.384a17.065,17.065,0,0,0,.295,2.674Z" transform="translate(724.86 2174.77)"/><path class="l" d="M164.285,638.754a1.085,1.085,0,0,0-.592,1.233,4.427,4.427,0,0,0,.625,1.345c.688,1.233.987,2.644,1.565,3.931.433.962,1.018,1.851,1.446,2.808a4.724,4.724,0,0,1,.433,3.075c-.126.5-.37.957-.533,1.444a8.188,8.188,0,0,0-.314,1.638,31.045,31.045,0,0,0-.112,5.653,1.717,1.717,0,0,0,.143.669c.1.187.264.384.183.578-.033.077-.1.133-.138.211-.1.215.1.44.281.592a.484.484,0,0,1-.3.234.718.718,0,0,1,.307.8c-.161.023-.171.269-.068.4s.26.211.332.356a.5.5,0,0,1-.274.627,1.282,1.282,0,0,1-.746.056,8.094,8.094,0,0,1-1.249-.274,1.125,1.125,0,0,1-.384-.175,1.139,1.139,0,0,1-.344-.758,13.7,13.7,0,0,1-.087-2.34c.068-3.781,0-7.567-.164-11.346a12.992,12.992,0,0,0-1.114-4.408,22.626,22.626,0,0,0-1.086-2.106,8.8,8.8,0,0,1-1.4-5.042c.021-.19.091-.419.278-.449a.405.405,0,0,1,.215.035,9.958,9.958,0,0,1,1.135.627A4.3,4.3,0,0,0,164.285,638.754Z" transform="translate(733.532 2259.563)"/><path class="o" d="M164.285,638.754a1.085,1.085,0,0,0-.592,1.233,4.427,4.427,0,0,0,.625,1.345c.688,1.233.987,2.644,1.565,3.931.433.962,1.018,1.851,1.446,2.808a4.724,4.724,0,0,1,.433,3.075c-.126.5-.37.957-.533,1.444a8.188,8.188,0,0,0-.314,1.638,31.045,31.045,0,0,0-.112,5.653,1.717,1.717,0,0,0,.143.669c.1.187.264.384.183.578-.033.077-.1.133-.138.211-.1.215.1.44.281.592a.484.484,0,0,1-.3.234.718.718,0,0,1,.307.8c-.161.023-.171.269-.068.4s.26.211.332.356a.5.5,0,0,1-.274.627,1.282,1.282,0,0,1-.746.056,8.094,8.094,0,0,1-1.249-.274,1.125,1.125,0,0,1-.384-.175,1.139,1.139,0,0,1-.344-.758,13.7,13.7,0,0,1-.087-2.34c.068-3.781,0-7.567-.164-11.346a12.992,12.992,0,0,0-1.114-4.408,22.626,22.626,0,0,0-1.086-2.106,8.8,8.8,0,0,1-1.4-5.042c.021-.19.091-.419.278-.449a.405.405,0,0,1,.215.035,9.958,9.958,0,0,1,1.135.627A4.3,4.3,0,0,0,164.285,638.754Z" transform="translate(733.532 2259.563)"/><path class="l" d="M136.09,622.36a1.248,1.248,0,0,0-1.72.185,9.4,9.4,0,0,0-.889.781,4.757,4.757,0,0,0-1.062,4.705,9.4,9.4,0,0,0,1.3,2.307l1.029,1.479c1.57,2.256,3.142,4.511,4.787,6.713a.253.253,0,0,0,.178.234c.061.016.133.014.171.063a.182.182,0,0,1,.021.1,1.529,1.529,0,0,1-.091.468.217.217,0,0,0-.019.161c.051.124.278.054.349.171a.186.186,0,0,1-.075.234.271.271,0,0,0-.129.234c.012.1.168.185.161.3,0,.065-.056.115-.1.166a.424.424,0,0,0,.051.541c.108,1.076-.468,2.094-.592,3.17-.185,1.692.58,3.344.674,5.042a1.35,1.35,0,0,0,.105.557c.159.292.566.468.552.8a3.06,3.06,0,0,1-.115.4,3.256,3.256,0,0,0,.061.578c0,.194-.164.426-.344.351q.2.674.36,1.359l3.6.3a3.237,3.237,0,0,0-.033-.973c-.075-.346-.234-.672-.314-1.018a1.2,1.2,0,0,1,.143-1.018.4.4,0,0,1-.4-.328,1.605,1.605,0,0,1,0-.559c.1-.936-.3-1.872-.288-2.808a13.524,13.524,0,0,1,.4-2.188c.281-1.563-.012-3.259.683-4.68.421-.861,1-1.816.531-2.649-.234-.412-.643-.7-.91-1.081a4.392,4.392,0,0,1-.489-1.17,39.517,39.517,0,0,0-2.242-4.942,5.2,5.2,0,0,1-.482-1.3,6.6,6.6,0,0,1-.058-1.2,18.365,18.365,0,0,0-.133-2.153,2.015,2.015,0,0,0-.262-.892,1.994,1.994,0,0,0-.562-.512A38.7,38.7,0,0,0,136.09,622.36Z" transform="translate(755.335 2271.36)"/><path class="k" d="M166.084,759.3a2.548,2.548,0,0,0,1.076.129c.028-.3.426-.363.723-.349a.831.831,0,0,1,.414.1c.075.047.131.117.206.166a.861.861,0,0,0,.421.108l1.547.131a4.65,4.65,0,0,0,2.057-.136.675.675,0,0,0,.328-.22c.175-.25,0-.611-.234-.793s-.555-.267-.8-.454c-.536-.409-.611-1.17-.9-1.788a5.154,5.154,0,0,0-.739-1.074,4.1,4.1,0,0,0-.73-.749,3.834,3.834,0,0,0-2.064-.5,1.38,1.38,0,0,0-1.369.379c-.468.566-.276,1.708-.248,2.384A17.382,17.382,0,0,0,166.084,759.3Z" transform="translate(729.658 2170.442)"/><rect class="j" width="18.257" height="18.257" transform="translate(915.279 2902.606)"/><circle class="m" cx="3.568" cy="3.568" r="3.568" transform="translate(908.14 2880.345)"/><path class="m" d="M198.614,583.565a3.405,3.405,0,0,1-1.916.543,11.98,11.98,0,0,0-4.123,1.193,1.472,1.472,0,0,0-.468.328,1.351,1.351,0,0,0-.234.51,3.374,3.374,0,0,0-.136,1.24,3.576,3.576,0,0,0,.344,1.17,6.28,6.28,0,0,0,2.213,2.522,1.608,1.608,0,0,0,.538.257,3.13,3.13,0,0,0,1.385-.3,2.27,2.27,0,0,1,1.28.042c.388.129.8.365,1.17.208a1.221,1.221,0,0,0,.533-.606,20.567,20.567,0,0,0,.973-2.132,8.082,8.082,0,0,1,.353-.828c.414-.789,1.13-1.4,1.486-2.213a.487.487,0,0,0,.033-.416.578.578,0,0,0-.262-.2,6.256,6.256,0,0,1-1.425-1.118c-.234-.234-.667-.833-1-.887C198.986,582.83,198.871,583.345,198.614,583.565Z" transform="translate(709.73 2301.406)"/><path class="k" d="M164.718,598.9a2.13,2.13,0,0,1-1.35.016,14.9,14.9,0,0,1-3.393-.987,1.816,1.816,0,0,1-.833-.639,2.043,2.043,0,0,1-.234-.8l-.2-1.327a8.043,8.043,0,0,1,.061-1.362.4.4,0,0,0-.077-.3.32.32,0,0,0-.234-.073c-.536,0-.859.569-1.235.95a2.281,2.281,0,0,1-.758.51c-.344.14-.767.234-.905.583-.059.143-.051.307-.11.449-.234.571-1.263.381-1.523.936-.075.159-.07.36-.194.487s-.351.122-.538.154c-.744.122-1.107.983-1.743,1.388a14.384,14.384,0,0,1-1.8.6,6.894,6.894,0,0,1-.936.468,4.425,4.425,0,0,1-1.086.054.293.293,0,0,0-.218.07.3.3,0,0,0-.035.234,6.568,6.568,0,0,0,4.06,5.084,1.435,1.435,0,0,1,.346.166c.325.234.381.765.749.936a.774.774,0,0,0,.781-.168,6.8,6.8,0,0,0,.564-.622,2.246,2.246,0,0,1,1.256-.66,2.769,2.769,0,0,0,1.294-.29,3.969,3.969,0,0,0,.407-.435,2.555,2.555,0,0,1,.936-.552,9.364,9.364,0,0,1,2.925-.618,10.287,10.287,0,0,0,2.794-.274,1.638,1.638,0,0,0,.622-.351,1.872,1.872,0,0,0,.417-.723A5.52,5.52,0,0,0,164.718,598.9Z" transform="translate(743.71 2293.318)"/><path class="k" d="M195.327,594.087c.264-.023.529,0,.793,0,.311,0,.618-.075.936-.077a2.307,2.307,0,0,1,2.176,1.657.421.421,0,0,1,.014.234.166.166,0,0,1-.18.122,3.953,3.953,0,0,0-.4-.8,2.271,2.271,0,0,0-1.2-.833,3.109,3.109,0,0,0-1.474-.054c-.2.037-.4.091-.6.147l-.971.262c-.175.047-.351.1-.522.159-.131.047-.358.234-.487.234-.175,0-.033-.152.044-.255a1.249,1.249,0,0,1,.622-.452A5.234,5.234,0,0,1,195.327,594.087Z" transform="translate(708.501 2292.877)"/><path class="m" d="M204.959,609.189c.234.739.468,1.479.751,2.2a18.613,18.613,0,0,0,1.947,3.547,25.562,25.562,0,0,0,1.607,2.106,7.078,7.078,0,0,1,1.769,2.773,14.045,14.045,0,0,1,.159,1.912,2.334,2.334,0,0,0,.784,1.694,2.913,2.913,0,0,0,1.292.426c.323.051.728.068.9-.213a.8.8,0,0,0,.089-.37l.077-.936c.019-.2.089-.468.29-.468s.3.26.468.379a.508.508,0,0,0,.7-.234,1.186,1.186,0,0,0,.019-.819,3.889,3.889,0,0,0-1.991-2.475,6,6,0,0,1-.973-.508,3.275,3.275,0,0,1-.765-.964,60.071,60.071,0,0,1-4.8-9.011,6.665,6.665,0,0,1-.494-1.776,11.464,11.464,0,0,1,.077-1.872,10.713,10.713,0,0,0-.3-3.346,2.627,2.627,0,0,0-.321-.812,1.817,1.817,0,0,0-2.485-.358,2.56,2.56,0,0,0-.987,1.806,5.158,5.158,0,0,0,.494,1.872Q204.112,606.468,204.959,609.189Z" transform="translate(701.275 2288.494)"/><path class="l" d="M216.433,560.541c.028-.3-.234-.566-.54-.756a7.552,7.552,0,0,1-.917-.562c-.271-.234-.419-.541-.69-.775a3.04,3.04,0,0,0-1.03-.512,7.815,7.815,0,0,0-2.461-.442,4.336,4.336,0,0,0-2.356.622,1.4,1.4,0,0,0-.4.372,1.637,1.637,0,0,0-.194.592,11.7,11.7,0,0,1-.615,1.872,4.343,4.343,0,0,1-1.17,1.891c-.667.557-1.689.877-2.129,1.549a.5.5,0,0,0-.1.433c.063.168.267.283.452.391a6.133,6.133,0,0,1,2.5,2.391,2.773,2.773,0,0,1-.22,2.983c-.25.328-.6.716-.351,1.046.372.5,1.657.215,1.951.744a1.057,1.057,0,0,1,.04.547c0,.555.536,1.051,1.186,1.306a6.618,6.618,0,0,0,2.134.351,1.844,1.844,0,0,0,.054-1.381.552.552,0,0,1-.054-.313.754.754,0,0,1,.234-.3,2.177,2.177,0,0,0,.147-2.7,15.254,15.254,0,0,1-1.472-2.606,1.324,1.324,0,0,1,.234-1.357,4.721,4.721,0,0,1,.672-.491,2.553,2.553,0,0,0,.936-1.17c.218-.608.185-1.341.826-1.743s1.472-.271,2.148-.531A2.3,2.3,0,0,0,216.433,560.541Z" transform="translate(700.467 2320.85)"/><circle class="n" cx="3.891" cy="3.891" r="3.891" transform="translate(933.017 2878.761)"/><path class="n" d="M346.041,572.767a5.044,5.044,0,0,0,3.229,2.258l-.292,1.062c-.505,1.83-1.076,3.767-2.49,5.035a2.354,2.354,0,0,0-.4-1.82,6.9,6.9,0,0,0-1.32-1.381l-2.239-1.949a.611.611,0,0,1-.168-.187.571.571,0,0,1,0-.426,5.21,5.21,0,0,1,1.759-2.043,6.2,6.2,0,0,0,.887-1.032C345.47,571.653,345.758,572.292,346.041,572.767Z" transform="translate(594.37 2309.721)"/><path class="p" d="M354.617,583.119a2.106,2.106,0,0,1-.115.859.6.6,0,0,1-.7.36c.082-.185-.133-.4-.335-.372a.63.63,0,0,0-.445.377,1.4,1.4,0,0,0-.129.87,3.563,3.563,0,0,1,.22,1.093c-.044.307-.271.613-.15.9a1.448,1.448,0,0,0,.29.346.983.983,0,0,1-.105,1.348l3.042.058a2.134,2.134,0,0,0,.377,1.476,9.3,9.3,0,0,0,6.93,4.525.6.6,0,0,0-.145.922.853.853,0,0,0,.973.056,7.387,7.387,0,0,0,.835-.625,2.553,2.553,0,0,1,1.713-.468c.381.035.749.157,1.13.178,1.123.061,2.089-.749,3.163-1.079a6.894,6.894,0,0,0,2.34-.735.928.928,0,0,0,.435-.9,1.472,1.472,0,0,0-.328-.529,9.42,9.42,0,0,1-.877-1.638,9.778,9.778,0,0,0-2.192-2.934,19.345,19.345,0,0,0-2.171-1.65,3.675,3.675,0,0,0-.59-.353,6.043,6.043,0,0,1-.8-.328,4.491,4.491,0,0,1-.835-.936,12.546,12.546,0,0,0-2.267-1.575,5.43,5.43,0,0,0-1.528-1.037c-.288-.087-.6-.094-.884-.18-.655-.2-1.132-.781-1.776-1.016a7.192,7.192,0,0,0-1.607-.206,3.745,3.745,0,0,1-1.652-.625,1.988,1.988,0,0,0-.533-.314c-.812-.234-.877,1.268-.955,1.792A15.026,15.026,0,0,0,354.617,583.119Z" transform="translate(586.29 2304.402)"/><path class="n" d="M326.9,610.341c.136,1.476-.98,2.908-.655,4.357.07.309.2.6.25.912a3.506,3.506,0,0,1-.866,2.389l-4.212,6.163a3.746,3.746,0,0,1-.6.742c-.8.714-2.008.639-3.063.854a5.242,5.242,0,0,0-2.052.908.133.133,0,0,0-.026.182,1.76,1.76,0,0,0,1.526.716c.11.145,0,.36-.152.468-.234.157-.536.2-.58.58a.651.651,0,0,0,.075.386,1.2,1.2,0,0,0,.737.51,4.351,4.351,0,0,0,4.111-1.4c1.088-1.067,1.872-2.4,2.939-3.486.592-.6,1.263-1.111,1.872-1.692a22.114,22.114,0,0,0,3.072-3.978,4.428,4.428,0,0,0,.664-1.355c.112-.48.061-.99.192-1.465a5.2,5.2,0,0,1,1.006-1.638,5.443,5.443,0,0,0,1.144-3.547A3.4,3.4,0,0,0,330.21,608a1.856,1.856,0,0,0-1.17-.07,2.788,2.788,0,0,0-1.184.936l-.8.922a2.191,2.191,0,0,0-.468.7.737.737,0,0,0,.164.784" transform="translate(614.8 2282.26)"/><path class="p" d="M363.908,592.336a2.354,2.354,0,0,0-1.551.468,2.166,2.166,0,0,0-.388.613,6.055,6.055,0,0,0-.774,2.436,10.981,10.981,0,0,0,.281,2.036,7.766,7.766,0,0,1-.175,1.71,11.676,11.676,0,0,0,2.209-.849,7.39,7.39,0,0,1,1.294-.671,3.839,3.839,0,0,1,2.389.468c.035-.44-.295-1.205-.26-1.638a1.8,1.8,0,0,1,.1-.545,3.248,3.248,0,0,1,.33-.526,2.155,2.155,0,0,0-.194-2.529,3.488,3.488,0,0,0-2.256-.957,9.871,9.871,0,0,0-1.577-.054" transform="translate(579.917 2294.198)"/><path class="l" d="M318.143,548.958l-.089-.732c.615.157,1.2-.363,1.591-.9s.756-1.17,1.352-1.4a2.826,2.826,0,0,1,2.192.524,6.862,6.862,0,0,0,2.515.833,1.78,1.78,0,0,1,.416.068,1.446,1.446,0,0,1,.732,1.242,4.874,4.874,0,0,0,.269,1.521c.171.346.468.606.636.936.468.92.016,2.178.519,3.082l-1.247-1.142c-.115-.105-.276-.215-.4-.126s-.108.234-.15.344a.653.653,0,0,1-.887.323,2.43,2.43,0,0,1-.793-.725,4.849,4.849,0,0,0-1.979-1.5,2.529,2.529,0,0,0-2.094.124c-.583.33-1.008,1.1-1.722,1.121-.978.037-1.385-1.783-1.837-2.5a.887.887,0,0,0,.257-1.1C317.5,548.914,318.129,548.846,318.143,548.958Z" transform="translate(613.638 2329.781)"/><path class="d" d="M663.592,358.028a4.293,4.293,0,0,1-1.221.335,2.141,2.141,0,0,0,.936-1.17,4.279,4.279,0,0,1-1.352.517,2.125,2.125,0,0,0-3.68,1.453,2.079,2.079,0,0,0,.054.487,6.025,6.025,0,0,1-4.385-2.227,2.136,2.136,0,0,0,.66,2.845,2.072,2.072,0,0,1-.966-.267v.026a2.132,2.132,0,0,0,1.708,2.09,2.212,2.212,0,0,1-.562.075,2.07,2.07,0,0,1-.4-.04,2.136,2.136,0,0,0,1.989,1.479,4.268,4.268,0,0,1-2.644.912,4.582,4.582,0,0,1-.508-.03,6.046,6.046,0,0,0,9.317-5.1v-.274A4.323,4.323,0,0,0,663.592,358.028Z" transform="translate(356.217 2474.407)"/><path class="d" d="M664.5,538.129l.7,1.762,4.584,4.86,1.535-1.446.966,1.022,1.022-.966.059-1.987,1.277-1.207.1-3.479-4.1-4.347Zm9.242-.973-.059,1.989-1.535,1.446-.058,1.989-.964-1.023-1.28,1.207-4.111-4.35,4.86-4.584Z" transform="translate(347.576 2340.117)"/><path class="d" d="M682.19,546.833l.767-.723,1.947,2.061-.767.721Zm-1.79,1.689.767-.725,1.944,2.064-.767.723Z" transform="translate(335.397 2329.569)"/><path class="d" d="M275.894,676h-7.506a.468.468,0,0,0-.468.468v7.508a.468.468,0,0,0,.468.468h3.744V681.1h-1.008V679.87h1.027v-.91a1.6,1.6,0,0,1,1.729-1.682c.468,0,.969.035,1.083.052v1.137h-.774c-.529,0-.632.25-.632.62v.784h1.261l-.164,1.231h-1.1v3.341h2.34a.468.468,0,0,0,.468-.468v-7.506A.468.468,0,0,0,275.894,676Z" transform="translate(651.365 2230.071)"/><path class="d" d="M562.931,444.7a1.762,1.762,0,0,1,1.757,1.757v3.51a1.762,1.762,0,0,1-1.757,1.757h-3.51a1.764,1.764,0,0,1-1.242-.515,1.743,1.743,0,0,1-.517-1.242v-3.51a1.762,1.762,0,0,1,1.76-1.757h3.51m0-.7h-3.51a2.469,2.469,0,0,0-2.461,2.461v3.51a2.469,2.469,0,0,0,2.461,2.461h3.51a2.468,2.468,0,0,0,2.462-2.452v-3.51A2.471,2.471,0,0,0,562.931,444Z" transform="translate(429.954 2407.788)"/><path class="d" d="M570.382,451.068a.529.529,0,1,1,.526-.526.524.524,0,0,1-.526.526Zm-2.277.344a1.4,1.4,0,1,1-1.4,1.4,1.4,1.4,0,0,1,1.4-1.4m0-.7a2.106,2.106,0,1,0,2.106,2.106A2.106,2.106,0,0,0,568.106,450.71Z" transform="translate(423.029 2403.184)"/><path class="d" d="M1010.058,607.782A1.71,1.71,0,0,0,1008.42,606c-1.219-.058-2.459-.08-3.727-.08h-.4c-1.266,0-2.511.021-3.727.08a1.711,1.711,0,0,0-1.624,1.788c-.056.784-.08,1.565-.077,2.34s.021,1.565.075,2.34a1.715,1.715,0,0,0,1.624,1.792c1.278.058,2.59.084,3.924.084s2.644-.023,3.926-.084a1.724,1.724,0,0,0,1.638-1.792c.051-.784.077-1.565.075-2.352s-.021-1.563-.073-2.34Zm-6.629,4.509v-4.319l3.187,2.157Z" transform="translate(91.443 2283.754)"/><path class="d" d="M533.768,260a4.914,4.914,0,0,0-1.975,9.432,4.384,4.384,0,0,1,.084-1.13c.1-.4.634-2.684.634-2.684a1.872,1.872,0,0,1-.159-.777c0-.73.424-1.275.95-1.275a.659.659,0,0,1,.664.739,10.608,10.608,0,0,1-.435,1.745.76.76,0,0,0,.777.948c.936,0,1.561-1.2,1.561-2.618a1.841,1.841,0,0,0-2.047-1.884,2.34,2.34,0,0,0-2.424,2.356,1.416,1.416,0,0,0,.325.966.234.234,0,0,1,.07.274c-.023.091-.077.309-.1.4a.171.171,0,0,1-.248.124,1.891,1.891,0,0,1-1.008-1.872,3.245,3.245,0,0,1,3.51-3.074,2.947,2.947,0,0,1,3.117,2.819c0,1.93-1.074,3.374-2.658,3.374a1.4,1.4,0,0,1-1.2-.613s-.288,1.132-.349,1.352a4.058,4.058,0,0,1-.494,1.055,4.987,4.987,0,0,0,1.4.2,4.928,4.928,0,1,0,0-9.855Z" transform="translate(451.518 2548.736)"/><path class="q" d="M661.652,617.09c-.19-.8-.3-1.5-.3-1.5a3.116,3.116,0,0,0-.349-1.528v-.22h0v-1.614a5.339,5.339,0,0,1,.407-.845,6.308,6.308,0,0,0,0-2.363,10.462,10.462,0,0,1-.817-4.279c.26-1.661-2.209-7.377-2.209-7.377a7.281,7.281,0,0,1,.234-1.638,1.187,1.187,0,0,0,.03-.342.256.256,0,0,0,0-.042v.014a12.719,12.719,0,0,0-.9-3.149l.117-3.912a11.521,11.521,0,0,0-.349-5.407c-.316-1.081-.517-1.944-.646-2.614-.014-.075-.028-.147-.04-.218,1.855-.283,3.276-.519,3.276-.519s-1.076-4.5-1.8-5.293a10.367,10.367,0,0,1-1.308-3.264s-.379-3.182.234-4.111a6.187,6.187,0,0,0,.7-2.534s1.4-1.013,1.57-1.465a7.418,7.418,0,0,0,.468-2c0-.536-.176-1.013-.117-1.3s-.407-1.35-.173-1.858a1.36,1.36,0,0,0,.091-.489.031.031,0,0,0,0-.014h0a6.952,6.952,0,0,0-.124-1.322,3.745,3.745,0,0,0-1.38-.739l-.03-.119-.08-.316a1.055,1.055,0,0,0-.138-.082v-.585l.218-1.029c.431-1.785-1.956-2.052-1.956-2.052a1.259,1.259,0,0,0-.676-.594c-.468-.168-.08,2.691.145,2.873a9.3,9.3,0,0,1,.936,1.474h0l.042.073a.944.944,0,0,0-.11.115l.091.62.014.1a2.548,2.548,0,0,0-.381.648,1.383,1.383,0,0,1,.349,1.016,3.182,3.182,0,0,0,.145,1.238c-.026-.03-.332-.363-.639-.281s-1.17.337-1.17.337-.641.112-.583.253-.435.76-.435.76l-1.72-1.638c-.019-.049-.035-.1-.051-.147a3.932,3.932,0,0,1-.147-.7,3.834,3.834,0,0,0,.547-.176,1.185,1.185,0,0,0,.468-.3,1.859,1.859,0,0,0,.276-.742,10.291,10.291,0,0,1,.639-1.423,4.628,4.628,0,0,0,.332-2.539,1.69,1.69,0,0,0-.262-.749c-.281-.386-.791-.543-1.17-.852s-.608-.777-1.041-1.008a2.052,2.052,0,0,0-1.306-.112,6.977,6.977,0,0,0-2.436.884,1.253,1.253,0,0,1-.817.269,1.1,1.1,0,0,1-.587-.43.114.114,0,0,1,0-.026l-.021-.021a3.081,3.081,0,0,0-.267,1.287v.276a.533.533,0,0,1,0,.061h0a.413.413,0,0,1-.014.091.663.663,0,0,1-.159.234,1.036,1.036,0,0,0-.14.192.207.207,0,0,1,.023-.07,1.015,1.015,0,0,0-.18.54.538.538,0,0,0,.131.388,1.878,1.878,0,0,0,.278.234,3.279,3.279,0,0,0-.049.571,3.327,3.327,0,0,0,1.619,2.838l.058.147a4.092,4.092,0,0,1,.311,1.872.315.315,0,0,1-.021.138l-.061.07h0s-2.84.028-3.51-.578-1.687,1.479-1.687,1.479-1.018.2-1.221,0-1.4-.028-1.4-.028a2.574,2.574,0,0,0-1.773-.646,5.216,5.216,0,0,0-1.3-.725h0l-.033-.012h0a1.455,1.455,0,0,0-.641-.08,12.657,12.657,0,0,1-1.8-1.774c-.4-.618-2.34-2.918-2.356-2.929v-.11l-.023-.335a1.316,1.316,0,0,1-.173.016.408.408,0,0,0-.04-.117,6.321,6.321,0,0,0-.412-.936s0-.421.124-.526a7.182,7.182,0,0,0-.051-1.654s-1.259-2.941-2.384-.746c0,0-2.132,1.42-.344,3.077,0,0,.7.344.814.618.068.178.309.676.468,1.006l.073.147-.021.016.028.276v.108c-.337.19-.564.379-.51.524a3.079,3.079,0,0,1,.2.76s2.473,3.1,2.794,4.42c0,0,6.631,3.94,8.812,4.223l-.377,1.97a15.6,15.6,0,0,0-.087,1.605c.028.421-.262,2.34-.262,2.34a15.505,15.505,0,0,1-.7,3.208,5.362,5.362,0,0,0-.262,2.085,14.077,14.077,0,0,1-.435,2.391,6.077,6.077,0,0,0-.087,2.394s-1.107,2.534,1.542.817c0,0,1.3-.08,2.808-.131v.77c-.019,1.451-.028,3.451.037,4.965.117,2.674.936,7.955.936,7.955v2.658a3.718,3.718,0,0,0-.075.76,4.927,4.927,0,0,0,.716,2.663l.2,1.774a7.347,7.347,0,0,1,.487,1.872.927.927,0,0,1-.021.169,1.257,1.257,0,0,0-.023.271,15.2,15.2,0,0,0,.468,2.733s.03,1.942.321,2.054c.248.1-.332,1.121-.505,1.4a.468.468,0,0,1-.012-.056c-.021.037-.035.059-.035.059a1.364,1.364,0,0,0-.091.491.7.7,0,0,0,.323.683c.552.339.849.62.381.732a4.645,4.645,0,0,0-.512.108c0-.021-.019-.044-.026-.066a.313.313,0,0,0-.182.325,1.438,1.438,0,0,0,.175.657,7.018,7.018,0,0,0,.786,1.437l.234-.026a1.1,1.1,0,0,1-.131.234.907.907,0,0,1-.328.29,1.049,1.049,0,0,1-.4.138,1.109,1.109,0,0,0-.824.4.86.86,0,0,0,.1,1.336l2.08.716s3.578.468,3.388-.337-.3-1.5-.3-1.5a3.175,3.175,0,0,0-.292-1.425,1.409,1.409,0,0,0-.126-.211l.126-.014a6.525,6.525,0,0,1,.611-2.106c.082-.077.1-.138.079-.185.037-.1-.054-.152-.171-.185l-.026.07a1.751,1.751,0,0,0-.346-.037s-.117-.936.26-1.268a.358.358,0,0,0,.075-.276,1.591,1.591,0,0,0-.04-.379l-.014.023a13.508,13.508,0,0,0-.835-2.183,2.7,2.7,0,0,1,.2-1.184,29.982,29.982,0,0,0-.028-4.588,13.911,13.911,0,0,0-.175-3.011,3.379,3.379,0,0,1,.321-2.085v-.075s-.014-.126-.035-.325v.021c-.058-.545-.169-1.53-.25-1.984-.117-.648.028-3.744.028-3.744l.524-1.322.936,2.279.987,3.042a2.585,2.585,0,0,1,.5,1.292v.1a1.53,1.53,0,0,0,0,.2,1.816,1.816,0,0,0,.3,1.083,4.716,4.716,0,0,0,.669,1.8,1.622,1.622,0,0,1,.407,1.069,17.836,17.836,0,0,0,.728,2.45,3.6,3.6,0,0,1,.2,1.4h0v.077s.068.744.065,1.371v.218a2.178,2.178,0,0,1-.061.505v-.075a5.206,5.206,0,0,0-.15,1.3,3.322,3.322,0,0,0,.555,2.155c.786.9,1.28.789,1.28.789s-.379,1.125-.845,1.352a.278.278,0,0,0-.049.03.13.13,0,0,0-.012-.065.549.549,0,0,0-.136.421,3.014,3.014,0,0,0,.576,1.668.923.923,0,0,0,.393.234l-.072.044a1.645,1.645,0,0,1-.161.077.762.762,0,0,1-.234.061,1.109,1.109,0,0,0-.824.4.86.86,0,0,0,.1,1.336l2.08.716S661.833,617.9,661.652,617.09Z" transform="translate(375.163 2327.943)"/><path class="r" d="M704.05,835.28l-2.015-.716a.875.875,0,0,1-.1-1.336,1.06,1.06,0,0,1,.8-.4.982.982,0,0,0,.386-.138.913.913,0,0,0,.318-.29,1.481,1.481,0,0,0,.234-.779s2.211-.646,2.808,0a1.654,1.654,0,0,1,.269.393,3.276,3.276,0,0,1,.281,1.425s.112.7.295,1.5S704.05,835.28,704.05,835.28Z" transform="translate(319.101 2111.083)"/><path class="r" d="M746.161,831.076l-2.012-.716a.871.871,0,0,1-.1-1.334,1.057,1.057,0,0,1,.8-.4.729.729,0,0,0,.234-.061,1.188,1.188,0,0,0,.154-.077,1.273,1.273,0,0,0,.55-1.069s2.209-.648,2.808,0a1.57,1.57,0,0,1,.211.288,3.215,3.215,0,0,1,.339,1.53s.112.7.295,1.5S746.161,831.076,746.161,831.076Z" transform="translate(286.843 2114.303)"/><path class="e" d="M712.264,831.618a1.65,1.65,0,0,1,.269.393h0l-3.313.384a1.481,1.481,0,0,0,.234-.779S711.66,830.973,712.264,831.618Z" transform="translate(313.32 2111.084)"/><path class="e" d="M753.04,827.649v.62c-.515.849-3.007.665-3.73.234a1.183,1.183,0,0,0,.154-.077,1.273,1.273,0,0,0,.55-1.069s2.209-.648,2.808,0A1.564,1.564,0,0,1,753.04,827.649Z" transform="translate(282.61 2114.349)"/><path class="l" d="M711.84,710.417a5.531,5.531,0,0,0-.4.845v2.225c-.562.936-3.491.62-3.884.112s-.817-1.83-.367-2.054.817-1.352.817-1.352-.468.112-1.238-.789-.533-2.9-.393-3.379a10.017,10.017,0,0,0,0-2.082,4.194,4.194,0,0,0-.2-1.493,18.594,18.594,0,0,1-.7-2.45,1.663,1.663,0,0,0-.393-1.069,4.851,4.851,0,0,1-.648-1.8,1.846,1.846,0,0,1-.281-1.21,2.462,2.462,0,0,0-.48-1.465l-.957-3.042-.9-2.281-.505,1.322s-.143,3.1-.028,3.744.281,2.363.281,2.363a3.467,3.467,0,0,0-.309,2.085,14.236,14.236,0,0,1,.169,3.011,30.947,30.947,0,0,1,.028,4.591,2.716,2.716,0,0,0-.2,1.17s1.154,2.478.786,2.808-.253,1.268-.253,1.268.789,0,.452.337a6.747,6.747,0,0,0-.592,2.106l-3.409.431a7.2,7.2,0,0,1-.763-1.437c-.449-1.041.084-.936.538-1.041s.166-.393-.37-.732-.234-1.1-.234-1.1.817-1.38.536-1.493-.311-2.054-.311-2.054a12.6,12.6,0,0,1-.421-2.927,5.617,5.617,0,0,0-.452-2.106l-.2-1.773a4.876,4.876,0,0,1-.608-3.355v-2.74s-.789-5.293-.9-7.955c-.07-1.713-.051-4.05-.028-5.51.014-.817.028-1.359.028-1.359l12.167-1.266a10.078,10.078,0,0,0,.222,1.806c.124.667.318,1.533.622,2.614a11.886,11.886,0,0,1,.339,5.4l-.112,3.912s1.069,2.618.845,3.51a7.429,7.429,0,0,0-.234,1.638s2.394,5.716,2.141,7.377a10.657,10.657,0,0,0,.791,4.268A6.548,6.548,0,0,1,711.84,710.417Z" transform="translate(324.205 2228.907)"/><path class="o" d="M737.22,753.824l3.692-.494S738.825,755.469,737.22,753.824Z" transform="translate(291.871 2170.835)"/><path class="e" d="M748.544,737.87s.129,1.308-.674,1.8C747.87,739.672,749.3,739.447,748.544,737.87Z" transform="translate(283.713 2182.677)"/><path class="e" d="M735.487,720.06s-3.093,2.548-4.212,2.34S735.487,720.06,735.487,720.06Z" transform="translate(296.544 2196.32)"/><path class="e" d="M709.673,760.55s-2.34.536-2.419,1.479S709.673,760.55,709.673,760.55Z" transform="translate(314.827 2165.304)"/><path class="o" d="M711.475,810.72s-3.32.62-2.377,1.044a16.1,16.1,0,0,0,2.492.758S712.659,812.578,711.475,810.72Z" transform="translate(313.542 2126.873)"/><path d="M705.387,816.422a.658.658,0,0,1-.3-.482l-.033.061s-.311.758.234,1.1c.061.037.119.077.173.115.1-.019.206-.033.307-.058C706.209,817.051,705.923,816.768,705.387,816.422Z" transform="translate(316.582 2122.874)"/><path d="M724.552,815.18c.091-.084.087-.3.033-.58a1.57,1.57,0,0,0-.19.817A.624.624,0,0,1,724.552,815.18Z" transform="translate(301.696 2123.9)"/><path d="M722.114,757.22a3.877,3.877,0,0,0-.234,1.034,4.089,4.089,0,0,1,.257-.7A2.089,2.089,0,0,0,722.114,757.22Z" transform="translate(303.622 2167.855)"/><path d="M755.191,749.889a1.343,1.343,0,0,0,.03-.309c-.042.211-.07.407-.091.578C755.149,750.069,755.167,749.98,755.191,749.889Z" transform="translate(278.152 2173.707)"/><path d="M722.287,797.955a1.77,1.77,0,0,0,.084-.625,2.063,2.063,0,0,0-.161.789.76.76,0,0,1,.077-.164Z" transform="translate(303.369 2137.129)"/><path d="M709.686,822.68a11.269,11.269,0,0,0-.386,1.729l-3.4.4a7.056,7.056,0,0,1-.763-1.437,2.5,2.5,0,0,1-.1-.248c-.2.094-.285.3-.016.936a6.972,6.972,0,0,0,.763,1.434l3.4-.4a6.716,6.716,0,0,1,.592-2.106C709.943,822.809,709.838,822.724,709.686,822.68Z" transform="translate(316.668 2117.711)"/><path d="M697.61,710.228s.028,1.944.309,2.057h0c.143-.321.234-.625.11-.676-.281-.112-.309-2.054-.309-2.054a12.48,12.48,0,0,1-.421-2.929,5.558,5.558,0,0,0-.451-2.106l-.2-1.774a4.885,4.885,0,0,1-.62-3.351v-2.735s-.789-5.293-.9-7.967c-.072-1.713-.051-4.05-.028-5.51v-.7h-.1s-.014.541-.028,1.359c-.023,1.458-.044,3.8.028,5.51.112,2.674.9,7.967.9,7.967v2.731a4.869,4.869,0,0,0,.634,3.379l.2,1.774a5.592,5.592,0,0,1,.449,2.106A12.431,12.431,0,0,0,697.61,710.228Z" transform="translate(324.246 2225.107)"/><path d="M746.93,824.128a3.276,3.276,0,0,1-.538-1.338c-.349.314.051,1.533.426,2.015s3.323.817,3.886-.115v-.536C749.941,824.91,747.3,824.608,746.93,824.128Z" transform="translate(284.948 2117.626)"/><path d="M766.133,814.826a5.628,5.628,0,0,0-.393.845v.4c.063-.145.154-.337.281-.564a1.707,1.707,0,0,0,.124-.7Z" transform="translate(270.024 2123.747)"/><path d="M744.595,803.19a5.416,5.416,0,0,0,.278-.669s-.468.112-1.24-.789a4.015,4.015,0,0,1-.505-2.7c-.14.48-.367,2.478.393,3.379A1.985,1.985,0,0,0,744.595,803.19Z" transform="translate(287.456 2135.827)"/><path d="M727.322,739.473a15.451,15.451,0,0,1,.056,1.668c.019-.11.04-.2.056-.262a9.871,9.871,0,0,0,0-2.082,4.19,4.19,0,0,0-.2-1.493,18.5,18.5,0,0,1-.7-2.45,1.663,1.663,0,0,0-.393-1.069,4.851,4.851,0,0,1-.648-1.8,1.846,1.846,0,0,1-.283-1.21,2.468,2.468,0,0,0-.468-1.465l-.957-3.042L722.874,724l-.508,1.322s0,.166-.016.428l.412-1.074.9,2.279L724.62,730a2.408,2.408,0,0,1,.468,1.462,1.851,1.851,0,0,0,.292,1.2,4.837,4.837,0,0,0,.646,1.8,1.671,1.671,0,0,1,.4,1.069,17.236,17.236,0,0,0,.7,2.45A4.01,4.01,0,0,1,727.322,739.473Z" transform="translate(303.262 2193.302)"/><path class="s" d="M744.629,560.139l-.211,1.03.012.468v.337l-1.17.122-.131-.234h0a9.953,9.953,0,0,0-.913-1.474c-.218-.183-.6-3.042-.14-2.871a1.226,1.226,0,0,1,.655.592S745.045,558.351,744.629,560.139Z" transform="translate(288.318 2320.838)"/><path class="e" d="M748.631,575.019l-1.17.122-.131-.234h0a1.034,1.034,0,0,1,1.3-.213Z" transform="translate(284.127 2307.781)"/><path class="t" d="M748.688,575.909l-1.547.36-.033-.234-.089-.62a1.065,1.065,0,0,1,1.5-.206l.077.316Z" transform="translate(284.364 2307.447)"/><path class="s" d="M634.631,553.065l-1.652.889-.15-.314c-.159-.33-.393-.826-.468-1-.1-.274-.789-.62-.789-.62-1.731-1.654.33-3.075.33-3.075,1.093-2.2,2.309.744,2.309.744a7.468,7.468,0,0,1,.049,1.654c-.119.1-.119.529-.119.529a6.421,6.421,0,0,1,.4.936C634.605,552.969,634.631,553.065,634.631,553.065Z" transform="translate(373.329 2328.024)"/><path class="e" d="M641.012,568.376l-1.652.889-.15-.313c.234-.194,1.06-.866,1.331-.835a1.931,1.931,0,0,0,.393,0C640.986,568.28,641.012,568.376,641.012,568.376Z" transform="translate(366.949 2312.713)"/><path class="t" d="M641.341,569.245l-1.858.915-.037-.4-.026-.274s1.076-.924,1.4-.889a1.725,1.725,0,0,0,.487,0l.021.335Z" transform="translate(366.788 2312.345)"/><path class="s" d="M712.262,577.369s-8.1.915-6.589.424a2.033,2.033,0,0,0,1.563-1.757,4.279,4.279,0,0,0-.3-1.872,8.128,8.128,0,0,0-.725-1.465s6.193-3.407,4.956-.309a4.857,4.857,0,0,0-.351,1.467,4.139,4.139,0,0,0,.157,1.483A4.425,4.425,0,0,0,712.262,577.369Z" transform="translate(316.181 2310.435)"/><path class="e" d="M713.536,572.389a4.86,4.86,0,0,0-.351,1.467,2.865,2.865,0,0,1-2.045.468,3.653,3.653,0,0,1-1.834-.15,8.141,8.141,0,0,0-.725-1.465S714.773,569.291,713.536,572.389Z" transform="translate(313.81 2310.434)"/><ellipse class="s" cx="3.351" cy="3.351" rx="3.351" ry="3.351" transform="translate(1021.489 2878.263)"/><path class="e" d="M712.262,590.141s-8.1.915-6.589.423a2.033,2.033,0,0,0,1.563-1.757,4.4,4.4,0,0,1,1.734-.92,2.418,2.418,0,0,1,1.467-.023,1.953,1.953,0,0,1,.533.234A4.424,4.424,0,0,0,712.262,590.141Z" transform="translate(316.181 2297.663)"/><path class="e" d="M748.979,577.485l-1.547.36-.033-.234a1.366,1.366,0,0,1,1.488-.51Z" transform="translate(284.073 2305.871)"/><path class="e" d="M641.425,570.344l-1.858.915-.037-.4a13.671,13.671,0,0,1,1.872-.828Z" transform="translate(366.704 2311.246)"/><path class="e" d="M707.513,679.276c-3.138.494-7.6,1.139-8.313.924a20.572,20.572,0,0,0-4.1-.105c.014-.817.028-1.359.028-1.359l12.167-1.266a10.076,10.076,0,0,0,.218,1.806Z" transform="translate(324.136 2228.945)"/><path class="p" d="M666.469,596.55s-10.333,1.773-11.442,1.434-6.8.03-6.8.03c-2.562,1.715-1.49-.817-1.49-.817a6.105,6.105,0,0,1,.084-2.394,14.649,14.649,0,0,0,.421-2.394,5.577,5.577,0,0,1,.253-2.082,16.092,16.092,0,0,0,.676-3.21s.283-1.914.255-2.34.084-1.6.084-1.6l.365-1.972c-2.106-.281-8.531-4.223-8.531-4.223-.309-1.322-2.7-4.42-2.7-4.42a3.262,3.262,0,0,0-.2-.76c-.168-.449,2.366-1.35,2.366-1.35s1.886,2.309,2.279,2.927a12.884,12.884,0,0,0,1.745,1.774,1.363,1.363,0,0,1,.62.082h.033a4.988,4.988,0,0,1,1.259.723,2.44,2.44,0,0,1,1.717.648s1.156-.168,1.352.028,1.17,0,1.17,0,.987-2.082,1.638-1.479,3.4.578,3.4.578a4.062,4.062,0,0,1,1.816-1.016,2.418,2.418,0,0,1,1.467-.023,1.814,1.814,0,0,1,.58.281l1.666,1.638s.468-.62.423-.76.564-.253.564-.253.817-.253,1.125-.339.594.253.618.281a3.3,3.3,0,0,1-.14-1.238,1.4,1.4,0,0,0-.337-1.013c.994-2.405,3.22-.37,3.22-.37a4.645,4.645,0,0,1,.028,1.83c-.225.508.234,1.577.168,1.858a12.679,12.679,0,0,0,.112,1.294,7.7,7.7,0,0,1-.449,2c-.171.449-1.521,1.462-1.521,1.462a6.349,6.349,0,0,1-.676,2.534c-.592.929-.234,4.111-.234,4.111a10.7,10.7,0,0,0,1.266,3.276C665.418,592.081,666.469,596.55,666.469,596.55Z" transform="translate(368.308 2310.924)"/><path class="e" d="M692.539,597.217s-.309-.936-.592-1.015a6.665,6.665,0,0,1-.817-.365l.182-.346s1.058.29,1.226.6A2.446,2.446,0,0,1,692.539,597.217Z" transform="translate(327.177 2291.743)"/><path class="e" d="M664.62,591.675c-.056.283-2.56.536-2.56.536l1.266-1.271h0l.033.012h0a4.992,4.992,0,0,1,1.261.723Z" transform="translate(349.445 2295.229)"/><circle class="u" cx="0.225" cy="0.225" r="0.225" transform="translate(1006.582 2882.816)"/><circle class="u" cx="0.225" cy="0.225" r="0.225" transform="translate(1006.87 2883.267)"/><circle class="u" cx="0.225" cy="0.225" r="0.225" transform="translate(1007.153 2883.681)"/><circle class="u" cx="0.225" cy="0.225" r="0.225" transform="translate(1007.448 2884.133)"/><ellipse class="u" cx="0.183" cy="0.183" rx="0.183" ry="0.183" transform="translate(1034.028 2884.149)"/><ellipse class="u" cx="0.183" cy="0.183" rx="0.183" ry="0.183" transform="translate(1034.056 2884.566)"/><ellipse class="u" cx="0.183" cy="0.183" rx="0.183" ry="0.183" transform="translate(1034.08 2884.98)"/><path class="e" d="M697.21,635.47c-.026-.033,6.317,7.981,11.247,3.351C708.457,638.82,700.67,639.875,697.21,635.47Z" transform="translate(322.52 2261.118)"/><path class="e" d="M681.63,653.28s3.8.1,4.2,1.2v1.137a.728.728,0,0,1-.7,0c-.384-.206-2.679-1.373-3.489-.812Z" transform="translate(334.454 2247.475)"/><path class="p" d="M681.93,653.28s3.631.1,4.013,1.139v1.086a.7.7,0,0,1-.676,0c-.367-.2-2.574-1.31-3.336-.774Z" transform="translate(334.225 2247.475)"/><path class="e" d="M690.49,618a12.234,12.234,0,0,0,1.472,2.525,9.861,9.861,0,0,0,2.307,2.227S690.553,618.531,690.49,618Z" transform="translate(327.667 2274.5)"/><path class="e" d="M685.18,599.18s.634,2.735,2.265,3.664Z" transform="translate(331.735 2288.917)"/><path class="e" d="M680.814,600.357c-.016-.051-.564,2.162,2.106,3.388C682.919,603.745,681.792,603.361,680.814,600.357Z" transform="translate(335.123 2288.015)"/><path class="e" d="M751.9,592.514a19.6,19.6,0,0,1,1.685,1.266S752.7,592.458,751.9,592.514Z" transform="translate(280.629 2294.024)"/><path class="r" d="M706.061,559.68a.713.713,0,0,0,.26.454.733.733,0,0,0,.316.07,6.843,6.843,0,0,0,3.042-.286,1.132,1.132,0,0,0,.468-.306,1.822,1.822,0,0,0,.248-.737,11.511,11.511,0,0,1,.62-1.423,4.779,4.779,0,0,0,.33-2.555,1.711,1.711,0,0,0-.255-.749c-.271-.386-.765-.543-1.123-.852s-.59-.779-1.006-1.011a1.956,1.956,0,0,0-1.263-.112,6.676,6.676,0,0,0-2.359.887,1.168,1.168,0,0,1-.789.269,1.084,1.084,0,0,1-.58-.445,3.116,3.116,0,0,0-.25,1.458.432.432,0,0,1-.157.454.852.852,0,0,0-.161,1.05c.11.129.276.2.381.33.19.234.124.573.119.875a.468.468,0,0,0,.075.3.435.435,0,0,0,.414.1,1.133,1.133,0,0,1,.44-.042.742.742,0,0,1,.384.295A5.349,5.349,0,0,1,706.061,559.68Z" transform="translate(317.873 2324.968)"/><path d="M710.154,568.511a1.107,1.107,0,0,1-.468.3,6.725,6.725,0,0,1-3.028.285.689.689,0,0,1-.316-.07.7.7,0,0,1-.262-.452,5.221,5.221,0,0,0-.854-1.982.73.73,0,0,0-.384-.295,1.133,1.133,0,0,0-.44.042.435.435,0,0,1-.414-.1.454.454,0,0,1-.073-.3c0-.3.068-.641-.122-.875-.105-.131-.271-.2-.381-.33a.66.66,0,0,1-.063-.674.771.771,0,0,0-.049.9c.11.129.276.2.381.33.19.234.124.573.119.875a.468.468,0,0,0,.075.3.432.432,0,0,0,.414.1,1.133,1.133,0,0,1,.44-.042.742.742,0,0,1,.384.295,5.311,5.311,0,0,1,.854,1.982.714.714,0,0,0,.26.454.732.732,0,0,0,.316.07,6.844,6.844,0,0,0,3.042-.285,1.148,1.148,0,0,0,.468-.306.889.889,0,0,0,.145-.271A.169.169,0,0,1,710.154,568.511Z" transform="translate(317.95 2315.812)"/><path class="e" d="M712.62,592.875s4.186.555,4.563-.075" transform="translate(310.715 2293.804)"/><path class="e" d="M747.4,585.72s2.323,0,2.836.875" transform="translate(284.073 2299.227)"/></g></svg>