<svg xmlns="http://www.w3.org/2000/svg" width="122" height="122" viewBox="0 0 122 122"><defs><style>.a{fill:#fff;}.b{fill:#54ab3d;}.c{fill:#2f2a4a;}</style></defs><g transform="translate(-126 -3793)"><circle class="a" cx="61" cy="61" r="61" transform="translate(126 3793)"/><g transform="translate(148 3815)"><path class="b" d="M1017.3,506.97a15.507,15.507,0,1,0,15.509,15.507A15.508,15.508,0,0,0,1017.3,506.97Zm-2.161,25.3-8.2-8.2,4.185-4.184,4.011,4.013,8.331-8.332,4.185,4.184Z" transform="translate(-977.609 -506.073)"/><path class="b" d="M990.188,554.661h4.294l-4.924,19.7H998.5l1.617-19.7h4.382l-6.447-7.157Z" transform="translate(-980.312 -497.122)"/><path class="b" d="M1035.2,550.781h4.333l-8.429-7.315-5.885,7.315h5.148l2.008,24.472h8.944Z" transform="translate(-972.436 -498.014)"/><path class="c" d="M1015.279,535.778l-7.158,7.157h3.913l-.93,34.015h8.35l-.93-34.015h3.911Z" transform="translate(-976.213 -499.711)"/><path class="c" d="M1000.519,512.037l2.089-2.034-2.885-.42-1.29-2.613-1.29,2.613-2.885.42,2.086,2.034-.491,2.873,2.58-1.356,2.58,1.356Z" transform="translate(-979.274 -506.073)"/><path class="c" d="M1003.4,531.888l-1.29-2.615-1.29,2.615-2.885.42,2.089,2.034-.493,2.873,2.58-1.357,2.58,1.357-.491-2.873,2.086-2.034Z" transform="translate(-978.463 -501.148)"/><path class="c" d="M1038.027,519.781l-2.883-.418-1.292-2.615-1.29,2.615-2.883.418,2.086,2.035-.493,2.873,2.58-1.357,2.582,1.357-.494-2.873Z" transform="translate(-971.452 -503.914)"/><path class="c" d="M998.606,517.988a.893.893,0,0,0-1.084.652l-15.509,62.028a.9.9,0,0,0,.652,1.085.872.872,0,0,0,.216.026.9.9,0,0,0,.868-.678l15.508-62.028A.9.9,0,0,0,998.606,517.988Z" transform="translate(-981.985 -503.646)"/><path class="c" d="M985.348,539.013a.894.894,0,0,0,1.085-.652l7.754-31.013a.895.895,0,1,0-1.736-.433L984.7,537.929A.9.9,0,0,0,985.348,539.013Z" transform="translate(-981.391 -506.235)"/><path class="c" d="M982.664,545.328a.876.876,0,0,0,.216.027.9.9,0,0,0,.868-.678l1.628-6.519a.894.894,0,0,0-1.736-.433l-1.629,6.518A.9.9,0,0,0,982.664,545.328Z" transform="translate(-981.985 -499.431)"/><path class="c" d="M1037.848,535.724a.895.895,0,0,0-1.736.433l10.294,41.171a.9.9,0,0,0,.868.678.866.866,0,0,0,.216-.026.9.9,0,0,0,.652-1.085Z" transform="translate(-970.037 -499.873)"/><path class="c" d="M1035.348,525.721a.895.895,0,1,0-1.736.435l1.238,4.949a.893.893,0,0,0,.865.679.942.942,0,0,0,.216-.026.894.894,0,0,0,.652-1.085Z" transform="translate(-970.59 -502.082)"/><path class="c" d="M1046.151,549.926a.9.9,0,0,0,.868.678.874.874,0,0,0,.216-.027.9.9,0,0,0,.652-1.085L1039,513.959a.895.895,0,1,0-1.736.433Z" transform="translate(-969.782 -504.68)"/><path class="c" d="M1021.458,533.759a.894.894,0,0,0-.818.965l3.508,42.747a.894.894,0,0,0,.89.821c.026,0,.05,0,.076,0a.9.9,0,0,0,.818-.964l-3.508-42.748A.881.881,0,0,0,1021.458,533.759Z" transform="translate(-973.449 -500.158)"/><path class="c" d="M1007.287,533.759a.885.885,0,0,0-.966.818l-2.512,30.608a.9.9,0,0,0,.818.965c.027,0,.05,0,.075,0a.893.893,0,0,0,.889-.822l2.514-30.607A.9.9,0,0,0,1007.287,533.759Z" transform="translate(-977.165 -500.158)"/><path class="c" d="M1004.388,564.49a.884.884,0,0,0-.966.817l-.426,5.231a.892.892,0,0,0,.818.964.729.729,0,0,0,.073,0,.9.9,0,0,0,.89-.82l.428-5.23A.893.893,0,0,0,1004.388,564.49Z" transform="translate(-977.345 -493.371)"/><path class="c" d="M1017.464,506.237a16.4,16.4,0,1,0,16.4,16.4A16.418,16.418,0,0,0,1017.464,506.237Zm0,31.013a14.612,14.612,0,1,1,14.613-14.611A14.628,14.628,0,0,1,1017.464,537.25Z" transform="translate(-977.771 -506.235)"/><path class="c" d="M1022.072,513.542l-7.7,7.7-3.38-3.379a.9.9,0,0,0-1.265,0l-4.184,4.185a.892.892,0,0,0,0,1.265l8.2,8.2a.9.9,0,0,0,1.266,0l12.516-12.516a.9.9,0,0,0,0-1.266l-4.185-4.184A.9.9,0,0,0,1022.072,513.542Zm-7.7,16.067-6.932-6.932,2.919-2.918,3.379,3.378a.9.9,0,0,0,1.266,0l7.7-7.7,2.919,2.919Z" transform="translate(-976.839 -504.68)"/></g></g></svg>