<svg xmlns="http://www.w3.org/2000/svg" width="122" height="122" viewBox="0 0 122 122"><defs><style>.a{fill:#fff;}.b{fill:rgba(66,55,91,0.17);}.c{fill:#00d857;}.d{fill:#2f2a4a;}.e{fill:none;stroke:#2f2a4a;stroke-miterlimit:10;stroke-width:1.5px;}</style></defs><g transform="translate(-126 -3377)"><circle class="a" cx="61" cy="61" r="61" transform="translate(126 3377)"/><g transform="translate(148 3399)"><g transform="translate(0 0)"><path class="b" d="M719.951,542.158v25.781a4.089,4.089,0,0,0,8.178,0,4.089,4.089,0,0,0,8.177,0V542.158Z" transform="translate(-666.689 -500.078)"/><path class="b" d="M683.31,567.938a4.089,4.089,0,0,0,8.177,0,4.088,4.088,0,0,0,8.176,0V542.158H683.31Z" transform="translate(-674.781 -500.078)"/><path class="c" d="M701.626,572.377a4.089,4.089,0,0,0,8.177,0,4.089,4.089,0,0,0,8.177,0V542.158H701.626Z" transform="translate(-670.736 -500.078)"/><path class="d" d="M691.648,570.921a4.992,4.992,0,0,0,9.073-2.821V542.32a.894.894,0,0,0-.895-.894H683.472a.894.894,0,0,0-.895.894V568.1a4.99,4.99,0,0,0,9.071,2.821Zm-7.282-2.821V543.214h14.566V568.1a3.195,3.195,0,0,1-6.389,0V549.382a.894.894,0,0,0-1.788,0V568.1a3.195,3.195,0,0,1-6.389,0Z" transform="translate(-674.943 -500.24)"/><path class="d" d="M718.142,541.426H701.789a.894.894,0,0,0-.9.894v30.219a4.99,4.99,0,0,0,9.071,2.821,4.99,4.99,0,0,0,9.071-2.821V542.32A.894.894,0,0,0,718.142,541.426Zm-.895,31.113a3.194,3.194,0,0,1-6.387,0V549.382a.895.895,0,0,0-1.79,0v23.157a3.193,3.193,0,0,1-6.386,0V543.214h14.563Z" transform="translate(-670.898 -500.24)"/><path class="d" d="M678.2,544.445h6.43a.9.9,0,0,0,.895-.895V528.842a.894.894,0,1,0-1.789,0v13.814h-4.642V527.726a5.54,5.54,0,0,1,5.535-5.534h2.045l5.81,2.321a.892.892,0,0,0,.664,0l5.8-2.321h1.439a7.26,7.26,0,0,0-.722,3.148V543.55a.9.9,0,0,0,.895.895h6.43a.9.9,0,0,0,.895-.895V526.456a.895.895,0,0,0-1.79,0v16.2h-4.642V525.341a5.542,5.542,0,0,1,5.536-5.535h2.044l5.243,2.1v.587a.895.895,0,1,0,1.79,0V521.9l5.242-2.1h2.045a5.541,5.541,0,0,1,5.535,5.535v17.315h-4.642v-16.2a.894.894,0,0,0-1.789,0V543.55a.9.9,0,0,0,.895.895h6.43a.9.9,0,0,0,.895-.895V525.341a7.262,7.262,0,0,0-.721-3.148H731.4l5.242,2.094V546.6h-7.276a.894.894,0,0,0-.895.894v25.78a4.991,4.991,0,0,0,9.072,2.821,4.99,4.99,0,0,0,9.071-2.821v-25.78a.894.894,0,0,0-.895-.894h-7.288V524.29l5.243-2.1h2.045a5.54,5.54,0,0,1,5.535,5.534v14.929h-4.64V528.842a.895.895,0,1,0-1.79,0V543.55a.9.9,0,0,0,.895.895h6.43a.9.9,0,0,0,.895-.895V527.726a7.334,7.334,0,0,0-7.325-7.325h-2.217a.882.882,0,0,0-.332.065l-5.628,2.254-5.638-2.254a.875.875,0,0,0-.332-.065h-2.216c-.2,0-.391.018-.583.037a7.3,7.3,0,0,0-5.425-2.422h-2.217a.909.909,0,0,0-.332.063l-5.629,2.254-5.637-2.254a.91.91,0,0,0-.332-.063h-2.217a7.3,7.3,0,0,0-5.434,2.432c-.188-.016-.372-.047-.563-.047h-2.218a.877.877,0,0,0-.332.065l-5.629,2.254-5.637-2.254a.885.885,0,0,0-.332-.065h-2.217a7.334,7.334,0,0,0-7.325,7.325V543.55A.9.9,0,0,0,678.2,544.445Zm66.633,3.94V573.27a3.194,3.194,0,0,1-6.387,0V554.552a.894.894,0,0,0-1.789,0V573.27a3.194,3.194,0,0,1-6.387,0V548.384Z" transform="translate(-676.108 -505.41)"/><path class="d" d="M690.159,533.623a.894.894,0,1,0,.895.894A.89.89,0,0,0,690.159,533.623Z" transform="translate(-673.464 -501.963)"/><path class="d" d="M690.159,525.825a.895.895,0,1,0,.895.895A.891.891,0,0,0,690.159,525.825Z" transform="translate(-673.464 -503.685)"/><path class="d" d="M690.159,529.724a.894.894,0,1,0,.895.895A.89.89,0,0,0,690.159,529.724Z" transform="translate(-673.464 -502.824)"/><path class="d" d="M690.159,537.521a.894.894,0,1,0,.895.895A.891.891,0,0,0,690.159,537.521Z" transform="translate(-673.464 -501.102)"/><path class="d" d="M709.377,531.613a.895.895,0,0,0-1.79,0v1.193a.895.895,0,1,0,1.79,0Z" transform="translate(-669.42 -502.605)"/><path class="d" d="M708.483,536.092a.9.9,0,0,0-.9.9v1.192a.895.895,0,0,0,1.79,0v-1.192A.9.9,0,0,0,708.483,536.092Z" transform="translate(-669.42 -501.418)"/><path class="d" d="M709.377,526.24a.895.895,0,1,0-1.79,0v1.192a.895.895,0,0,0,1.79,0Z" transform="translate(-669.42 -503.792)"/><path class="d" d="M681.221,569.492h-4a.895.895,0,1,0,0,1.79h4a.895.895,0,1,0,0-1.79Z" transform="translate(-676.324 -494.042)"/><path class="d" d="M701.148,569.492H685.384a.895.895,0,0,0,0,1.79h15.765a.895.895,0,0,0,0-1.79Z" transform="translate(-674.521 -494.042)"/><path class="d" d="M744.407,569.492H718.676a.895.895,0,0,0,0,1.79h25.731a.895.895,0,1,0,0-1.79Z" transform="translate(-667.169 -494.042)"/><path class="e" d="M727.671,509.644a5.973,5.973,0,1,0,5.665,5.964A5.822,5.822,0,0,0,727.671,509.644Z" transform="translate(-666.236 -507.259)"/><path class="e" d="M691.028,509.644a5.973,5.973,0,1,0,5.667,5.964A5.821,5.821,0,0,0,691.028,509.644Z" transform="translate(-674.328 -507.259)"/><path class="e" d="M709.345,507.69a5.972,5.972,0,1,0,5.666,5.965A5.822,5.822,0,0,0,709.345,507.69Z" transform="translate(-670.283 -507.69)"/><path class="d" d="M733.348,539.664v2.685a3.214,3.214,0,1,0,6.429,0v-2.685Z" transform="translate(-663.731 -500.629)"/><path class="d" d="M678.034,542.349a3.215,3.215,0,1,0,6.43,0v-2.685h-6.43Z" transform="translate(-675.946 -500.629)"/><path class="d" d="M696.351,539.664v2.685a3.214,3.214,0,1,0,6.429,0v-2.685Z" transform="translate(-671.901 -500.629)"/><path class="d" d="M715.022,542.349a3.215,3.215,0,1,0,6.43,0v-2.685h-6.43Z" transform="translate(-667.778 -500.629)"/></g></g></g></svg>