<svg xmlns="http://www.w3.org/2000/svg" width="122" height="122" viewBox="0 0 122 122"><defs><style>.a{fill:#fff;}.b{fill:#2f2a4a;}.c{fill:#00d857;}</style></defs><g transform="translate(-1453 -2984)"><path class="a" d="M61,0A61,61,0,1,1,0,61,61,61,0,0,1,61,0Z" transform="translate(1453 2984)"/><g transform="translate(7.399 -6.728)"><g transform="translate(1492.774 3018.394)"><path class="b" d="M432.9,538.4,415.01,574.183l38.171-46.522Z" transform="translate(-401.118 -509.769)"/><path class="b" d="M427.022,540.365H406.678l10.172,20.344Z" transform="translate(-402.958 -506.963)"/><path class="b" d="M427.04,517.777l4.374-2.386-4.374-2.386H408.005l-4.374,2.386,4.374,2.386Z" transform="translate(-403.631 -513.005)"/></g><g transform="translate(1495.659 3020.779)"><path class="c" d="M436.925,514.959,423.8,522.116l7.158,19.086,20.278-10.736Z" transform="translate(-402.062 -514.959)"/><path class="c" d="M409.573,524.73l-3.579,9.544h22.013l-3.579-9.544Z" transform="translate(-405.994 -512.802)"/></g><g transform="translate(1467.601 3012.728)"><path class="b" d="M460.939,532.49a.9.9,0,0,0-.033-1.174l-14.316-15.507a.919.919,0,0,0-.228-.178l-13.124-7.158a.9.9,0,0,0-.427-.109H411.343a.908.908,0,0,0-.429.109L397.79,515.63a.919.919,0,0,0-.228.178l-14.314,15.507a.9.9,0,0,0-.034,1.174l38.172,46.522a.9.9,0,0,0,1.382,0ZM398.4,517.535l11.827,6.452L403.7,541.393l-18.352-9.717Zm47.346,0L458.8,531.676l-18.352,9.717-6.529-17.406Zm-7.071,24.23h-33.2l6.486-17.3h20.229Zm-.156,1.79-16.446,32.889-16.446-32.889Zm-51.1-8.758,16.091,8.521,14.2,28.394Zm39.022,36.916,14.2-28.394,16.09-8.521Zm-14.871-61.56h21.01l11.484,6.263-11.483,6.263H411.57l-11.483-6.263Z" transform="translate(-383.011 -508.364)"/><path class="b" d="M446.4,536.691l-3.613,4.4a.894.894,0,1,0,1.382,1.134l3.612-4.4a.894.894,0,0,0-1.382-1.135Z" transform="translate(-369.855 -502.18)"/><path class="b" d="M445.7,544.118a.9.9,0,0,0-1.259.126l-27.028,32.939a.895.895,0,1,0,1.383,1.135l27.028-32.939A.9.9,0,0,0,445.7,544.118Z" transform="translate(-375.459 -500.513)"/><path class="b" d="M448.485,546.221l-15.131,18.44a.894.894,0,0,0,1.382,1.136l15.131-18.443a.893.893,0,1,0-1.382-1.133Z" transform="translate(-371.938 -500.077)"/><path class="b" d="M430.611,565.272l-2.758,3.363a.895.895,0,0,0,1.383,1.135L432,566.408a.9.9,0,0,0-1.384-1.135Z" transform="translate(-373.153 -495.869)"/></g></g></g></svg>