<svg xmlns="http://www.w3.org/2000/svg" width="122" height="122" viewBox="0 0 122 122"><defs><style>.a{fill:#fff;}.b{fill:none;stroke:#2f2a4a;stroke-linejoin:round;stroke-width:1.5px;}.c{fill:#00d857;}.d{fill:#2f2a4a;}</style></defs><g transform="translate(-1453 -3377)"><circle class="a" cx="61" cy="61" r="61" transform="translate(1453 3377)"/><g transform="translate(1479 3403)"><rect class="b" width="69.588" height="69.588" transform="translate(0)"/><path class="c" d="M816.812,535.985,801.3,528.23,785.8,535.985l15.507,7.754Z" transform="translate(-766.511 -509.636)"/><path class="d" d="M801.3,542.336,785.8,534.582v15.507l15.507,7.754Z" transform="translate(-766.511 -508.234)"/><path class="d" d="M785.561,552.454l15.507,7.753a.9.9,0,0,0,.8,0l15.507-7.753a.893.893,0,0,0,.5-.8V536.146a.893.893,0,0,0-.5-.8l-15.507-7.755a.9.9,0,0,0-.8,0l-15.507,7.755a.9.9,0,0,0-.5.8v15.507A.894.894,0,0,0,785.561,552.454Zm30.52-1.354-13.72,6.859V544.453l13.72-6.859Zm-14.613-21.706,13.507,6.752L801.467,542.9l-13.506-6.752Zm-14.613,8.2,13.72,6.86v13.5l-13.72-6.859Z" transform="translate(-766.673 -509.798)"/><path class="d" d="M779.117,557.485H781.5a.895.895,0,1,0,0-1.79h-1.491V531.242H781.5a.895.895,0,1,0,0-1.79h-2.385a.9.9,0,0,0-.894.9v26.243A.894.894,0,0,0,779.117,557.485Z" transform="translate(-768.184 -509.367)"/><path class="d" d="M814.157,557.79a.894.894,0,0,0-.894.895v1.491H788.807v-1.491a.894.894,0,1,0-1.789,0v2.387a.9.9,0,0,0,.895.894h26.243a.9.9,0,0,0,.895-.894v-2.387A.9.9,0,0,0,814.157,557.79Z" transform="translate(-766.241 -503.109)"/><path class="d" d="M787.913,525.965a.894.894,0,0,0,.894-.895V523.58h24.456v1.491a.895.895,0,1,0,1.79,0v-2.387a.9.9,0,0,0-.9-.894H787.913a.894.894,0,0,0-.894.894v2.387A.894.894,0,0,0,787.913,525.965Z" transform="translate(-766.241 -511.059)"/><path class="d" d="M818.637,529.452h-2.385a.895.895,0,1,0,0,1.79h1.49V555.7h-1.49a.895.895,0,1,0,0,1.79h2.385a.894.894,0,0,0,.894-.894V530.348A.9.9,0,0,0,818.637,529.452Z" transform="translate(-759.984 -509.367)"/></g></g></svg>