<svg xmlns="http://www.w3.org/2000/svg" width="122" height="122" viewBox="0 0 122 122"><defs><style>.a{fill:#fff;}.b{fill:#54ab3d;}.c{fill:#2f2a4a;}</style></defs><g transform="translate(-723 -3793)"><circle class="a" cx="61" cy="61" r="61" transform="translate(723 3793)"/><g transform="translate(745 3815)"><path class="b" d="M539.531,560.733l-5.356-5.357-11.686,11.687,5.356,5.356a3.723,3.723,0,0,0,5.267,0l6.419-6.42A3.723,3.723,0,0,0,539.531,560.733Z" transform="translate(-463.397 -496.276)"/><path class="b" d="M485.722,553.122l-5.014,5.014,1.834,6.852,6.853,1.835,5.014-5.014-1.836-6.851Z" transform="translate(-472.624 -496.774)"/><path class="c" d="M493.03,512.981l-.012,0-7.556-2.37-2.272,5.455-5.47,2.281,2.377,7.567,8.722-4.222Z" transform="translate(-473.284 -506.16)"/><path class="c" d="M485.565,540.784a24.945,24.945,0,0,0,2.166,10.159c.459.042.919.09,1.375.177l9.458-9.457-10.9-10.9A24.923,24.923,0,0,0,485.565,540.784Z" transform="translate(-471.551 -501.71)"/><path class="c" d="M507.893,518.456a24.906,24.906,0,0,0-10.019,2.1l10.9,10.9,9.469-9.466c-.086-.449-.133-.9-.174-1.356A24.929,24.929,0,0,0,507.893,518.456Z" transform="translate(-468.833 -504.428)"/><path class="c" d="M497.614,558.3c.085.455.136.916.176,1.376a24.929,24.929,0,0,0,20.185.065l-10.9-10.9Z" transform="translate(-468.89 -497.719)"/><path class="c" d="M526.772,530.67a13.481,13.481,0,0,1-1.356-.175l-9.464,9.465,10.9,10.9a24.935,24.935,0,0,0-.079-20.188Z" transform="translate(-464.841 -501.77)"/><path class="c" d="M492.966,554.255l-6.85-1.836a.9.9,0,0,0-.863.232l-5.018,5.015a.9.9,0,0,0-.231.864l1.836,6.851a.9.9,0,0,0,.631.632l6.85,1.835a.917.917,0,0,0,.234.03.9.9,0,0,0,.631-.261L495.2,562.6a.89.89,0,0,0,.231-.864l-1.836-6.85A.9.9,0,0,0,492.966,554.255Zm-3.68,11.732-5.851-1.569-1.569-5.853,4.285-4.284L492,555.85l1.569,5.853Z" transform="translate(-472.786 -496.935)"/><path class="c" d="M547.845,532.461a14.835,14.835,0,0,0,3.543-15.424.892.892,0,0,0-.643-.58.871.871,0,0,0-.833.239l-9.819,9.817-5.852-1.568-1.569-5.853,9.817-9.818a.9.9,0,0,0-.341-1.478,14.919,14.919,0,0,0-19.615,16.423l-8.508,8.507-19.573-19.569a.878.878,0,0,0-.365-.221l-18.839-5.91a.894.894,0,0,0-1.121,1.121L480.047,527a.913.913,0,0,0,.22.364l19.566,19.561-8.5,8.5a14.932,14.932,0,1,0,12.433,12.433l8.5-8.5L531.928,579a.893.893,0,0,0,.632.262h0a.9.9,0,0,0,.635-.264L546.1,566.055a.9.9,0,0,0,0-1.264l-19.641-19.635,8.5-8.505A14.962,14.962,0,0,0,547.845,532.461Zm-53.761-17.142,18.677,18.671-5.2,5.2L490.7,522.326Zm-9.022-3.339-1.756,4.211-4.225,1.76-2.735-8.707Zm-5.441,7.685,4.714-1.966a.893.893,0,0,0,.482-.482l1.959-4.7,5.8,1.819-3.622,7.495-7.508,3.633Zm2.8,7.315,7.01-3.394L506.3,540.455l-5.2,5.2Zm50.14,50.125-19.023-19.019,5.2-5.2L537.749,571.9Zm11.648-11.68-5.193,5.208L520,551.622l5.2-5.2ZM534.029,535.06l-31.851,31.853a.89.89,0,0,0-.245.8,13.147,13.147,0,1,1-12.914-10.686,13.321,13.321,0,0,1,2.459.229.9.9,0,0,0,.8-.247l31.852-31.853a.9.9,0,0,0,.245-.8,13.131,13.131,0,0,1,15.778-15.273l-9.109,9.108a.9.9,0,0,0-.232.865l1.836,6.851a.9.9,0,0,0,.632.632l6.85,1.835a.9.9,0,0,0,.863-.231l9.109-9.109a13.131,13.131,0,0,1-15.273,15.778A.885.885,0,0,0,534.029,535.06Z" transform="translate(-474.086 -506.966)"/><path class="c" d="M516.112,526.337l-3.577,3.578a.895.895,0,0,0,.633,1.527.883.883,0,0,0,.631-.262l3.58-3.578a.895.895,0,0,0-1.266-1.265Z" transform="translate(-465.653 -502.746)"/><path class="c" d="M512.522,532.535l-18,18a.894.894,0,1,0,1.264,1.265l18-18a.895.895,0,0,0-1.266-1.265Z" transform="translate(-469.631 -501.378)"/><path class="c" d="M474.981,541.972a.894.894,0,0,0,.894-.894v-18.5a.894.894,0,0,0-1.787,0v18.5A.894.894,0,0,0,474.981,541.972Z" transform="translate(-474.086 -503.717)"/><path class="c" d="M474.981,548.894a.894.894,0,0,0,.894-.895v-5.384a.894.894,0,0,0-1.787,0V548A.894.894,0,0,0,474.981,548.894Z" transform="translate(-474.086 -499.291)"/></g></g></svg>