<svg xmlns="http://www.w3.org/2000/svg" width="122" height="122" viewBox="0 0 122 122"><defs><style>.a{fill:#fff;}.b{fill:#54ab3d;}.c{fill:#2f2a4a;}</style></defs><g transform="translate(-1304 -3793)"><circle class="a" cx="61" cy="61" r="61" transform="translate(1304 3793)"/><g transform="translate(1326 3815)"><path class="a" d="M935.57,532.926V520.574H923.219l-8.734-8.734-8.735,8.734H893.4v12.352l-8.734,8.735L893.4,550.4v12.351H905.75l8.735,8.734,8.734-8.734H935.57V550.4l8.736-8.735Zm-21.085,27.14L895.4,540.98l5.536-8.18h27.1l5.536,8.18Z" transform="translate(-875.419 -510.944)"/><path class="b" d="M922.846,570.623l-10.735-3.579-10.735,3.579V553.539h-5.966v25.436l16.7-5.965,16.7,5.965V553.539h-5.966Z" transform="translate(-873.045 -501.735)"/><path class="c" d="M908.1,529.742h8.269l1.546,6.391h-11.36Zm-8.939,0h7.1l-1.546,6.391h-9.878Zm-3.854,8.18h9.481l5.264,14.746Zm16.928,15.531-5.546-15.531h11.093Zm2.182-.785,5.264-14.746h9.479Zm5.339-16.535-1.546-6.391h7.1l4.325,6.391Z" transform="translate(-873.172 -506.99)"/><path class="c" d="M936.628,532.718V520.736a.894.894,0,0,0-.894-.894H923.751l-8.472-8.474a.893.893,0,0,0-1.264,0l-8.471,8.474H893.558a.894.894,0,0,0-.893.894v11.983l-8.473,8.473a.9.9,0,0,0,0,1.265l8.473,8.472V562.91a.9.9,0,0,0,.893.9h3.493v24.54a.9.9,0,0,0,1.2.842l16.4-5.858,16.4,5.858a.924.924,0,0,0,.3.051.893.893,0,0,0,.895-.894v-24.54h3.493a.9.9,0,0,0,.894-.9V550.928l8.473-8.472a.9.9,0,0,0,0-1.265Zm-6.177,54.358-15.5-5.538a.874.874,0,0,0-.3-.052.865.865,0,0,0-.3.052l-15.507,5.538v-23.27h4.175v16.188a.9.9,0,0,0,1.178.849l10.454-3.484,10.453,3.484a.887.887,0,0,0,.282.045.894.894,0,0,0,.9-.895V563.806h4.173Zm-25.645-8.324V563.806h.737l8.471,8.471a.892.892,0,0,0,1.264,0l8.472-8.471h.736v14.947l-9.557-3.186a.915.915,0,0,0-.568,0ZM935.1,549.925a.9.9,0,0,0-.263.632v11.459H923.381a.894.894,0,0,0-.632.262l-8.1,8.1-8.1-8.1a.891.891,0,0,0-.632-.262H894.456V550.557a.9.9,0,0,0-.262-.632l-8.1-8.1,8.1-8.1a.9.9,0,0,0,.262-.634V521.631h11.456a.9.9,0,0,0,.632-.261l8.1-8.1,8.1,8.1a.9.9,0,0,0,.632.261h11.457v11.457a.9.9,0,0,0,.263.634l8.1,8.1Z" transform="translate(-875.58 -511.106)"/><path class="c" d="M888.719,577.74h-9.839V555.976a.895.895,0,0,0-1.79,0v22.659a.894.894,0,0,0,.894.894h10.735a.894.894,0,1,0,0-1.789Z" transform="translate(-877.091 -501.395)"/><path class="c" d="M877.984,552.479a.9.9,0,0,0,.9-.894v-6.362a.895.895,0,1,0-1.79,0v6.362A.894.894,0,0,0,877.984,552.479Z" transform="translate(-877.091 -503.769)"/><path class="c" d="M940.52,536.511a.9.9,0,0,0-.9.895v6.362a.9.9,0,0,0,1.791,0v-6.362A.9.9,0,0,0,940.52,536.511Z" transform="translate(-863.281 -505.496)"/><path class="c" d="M941.886,511.106h-7.556a.895.895,0,1,0,0,1.79h6.66v23.562a.9.9,0,0,0,1.791,0V512A.9.9,0,0,0,941.886,511.106Z" transform="translate(-864.648 -511.106)"/><path class="c" d="M909.253,525.792a.894.894,0,0,0,.894-.894v-3.579a.894.894,0,0,0-1.789,0V524.9A.9.9,0,0,0,909.253,525.792Z" transform="translate(-870.186 -509.048)"/><path class="c" d="M906.205,526.866a.894.894,0,1,0,1.263-1.266l-2.53-2.529a.894.894,0,0,0-1.264,1.265Z" transform="translate(-871.278 -508.522)"/><path class="c" d="M912.123,527.127a.9.9,0,0,0,.634-.261l2.53-2.531a.894.894,0,0,0-1.264-1.265l-2.532,2.529a.894.894,0,0,0,.632,1.527Z" transform="translate(-869.552 -508.522)"/></g></g></svg>