<svg xmlns="http://www.w3.org/2000/svg" xmlns:xlink="http://www.w3.org/1999/xlink" width="42.291" height="36.162" viewBox="0 0 42.291 36.162"><defs><style>.a{fill:none;}.b{clip-path:url(#a);}.c{fill:#00d857;}</style><clipPath id="a"><rect class="a" width="42.291" height="36.162"/></clipPath></defs><g transform="translate(21.379 18.28)"><g class="b" transform="translate(-21.379 -18.28)"><path class="c" d="M15.317,29.711h-7.7L11.034,9.19a3.271,3.271,0,0,1,3.242-2.736H34.648l-.981,6.037H40.21L42.291,0H14.276A9.7,9.7,0,0,0,4.7,8.119L0,36.135H14.246Z" transform="translate(0 0)"/><path class="c" d="M78.6,77.829l-5.175-7.792-1.16-1.844-.3,1.7-1.309,7.881H65.9L69.023,59.3h3.688l5.621,8.6.833,1.457.208-1.279,1.487-8.714h4.759L82.5,77.829Z" transform="translate(-46.301 -41.664)"/></g></g></svg>