<svg xmlns="http://www.w3.org/2000/svg" xmlns:xlink="http://www.w3.org/1999/xlink" width="158.949" height="158.396" viewBox="0 0 158.949 158.396"><defs><style>.a{fill:url(#a);}.b{fill:url(#b);}.c{fill:#00d857;}.d{fill:#fff;}.e{fill:url(#c);}</style><linearGradient id="a" x1="0.386" y1="0.407" x2="0.774" y2="0.724" gradientUnits="objectBoundingBox"><stop offset="0" stop-opacity="0.302"/><stop offset="1" stop-opacity="0"/></linearGradient><linearGradient id="b" x1="-0.193" y1="0.486" x2="0.809" y2="0.499" xlink:href="#a"/><linearGradient id="c" x1="0.32" y1="-0.067" x2="0.486" y2="0.581" xlink:href="#a"/></defs><g transform="translate(-1473.813 -1104.293)"><path class="a" d="M2349.274,1227c-7.621,13.82-31.739,53.274-67.035,70.32,0,0,4.594,13.074,1.766,17.314s-8.479,5.123-8.479,5.123,7.241-11.619-1.189-16.932.395,1.512.395,1.512-6.095,11.179-6.272,11.533-7.714,16.195-7.361,16.43,5.228-3.764,7.029-4c-1.1-1.771,18.5-3.788,21.793-11.5,1.413-2.532,2.3-11.66,3.406-9.319,6.774-1.36,19.294,5.693,20.184,4.446,1.178-1.649,29.681-26.265,29.681-26.618s-3.284-11.163-2.827-11.9-46.479,29.571-46.007,28.629c-2.052,1.6-2.695-.608.687-2.953,18.707-12.969,35.854-26.249,44.035-38.6C2351.212,1242.159,2349.274,1227,2349.274,1227Z" transform="translate(-724.572 -112.931)"/><path class="b" d="M1917.086,2269.343a169.812,169.812,0,0,1-29.658-2.5c1.761-11.844-7.246-14.692-10.966-15.359a.725.725,0,0,1-.455-1.3,12.2,12.2,0,0,1,11.378-2.679.846.846,0,0,0,1.073-.995c-1.664-7.356-9.261-8.312-12.713-8.359-1.049-.013-.417-1.238-.417-1.238l39.016-38.86,3.271,2.022-13.751,33.125c-2.709,0-3.567.874-2.162,1.5,8.6,3.81,8.18,14.562-1.312,20.029-1.634,1.413.346,2.538,1.065,2.63C1916.115,2259.236,1917.634,2269.341,1917.086,2269.343Z" transform="translate(-369.364 -1006.655)"/><path class="c" d="M1616.249,1159.743c19.055-22.791,17.78-51.13,14.758-54.337-4.1-4.351-35.845,5.254-33.087,8.232,14.611-5.556,28.4-5.426,29.362-4.462,1.447,1.447,1.323,31.361-17.665,50.349-10.883,10.883-31.863,24.425-38.862,28.831a3.837,3.837,0,0,0-2.14,3.348c.314,3.825.49,12.409-3.673,16.069-5.441,4.781-23.675,9.1-24.724,7.256s19.643-15.081,8.082-26.869-25.046,9.11-26.892,8.06,2.452-19.306,7.233-24.746c3.66-4.165,12.247-3.985,16.072-3.672a3.835,3.835,0,0,0,3.353-2.134c4.406-7,17.96-27.967,28.843-38.85a51.552,51.552,0,0,1,4.858-4.274,74.215,74.215,0,0,0-107.953,61.2c9.755,3.113,12.114,12.344,12.639,17.764.236,2.431.9,1.451,1.587.307,2.219-3.668,6.205-7.332,12.281-6.223,8.557,1.562,9.292,10.033,9.216,14.091-.025,1.352.942,1.863,1.682,1.509,8-3.834,29.823-19.7,29.823-19.7s2.19-1.835,3.939-.087-.106,3.92-.106,3.92-15.883,21.8-19.717,29.8c-.354.74.156,1.707,1.509,1.681,4.057-.076,12.529.659,14.091,9.217,1.109,6.076-2.555,10.062-6.223,12.281-1.144.692-2.124,1.351.307,1.587,5.433.525,14.7,2.9,17.786,12.709a73.919,73.919,0,0,0,39.352-14.383c6.86,1.645,37.935,8.9,39.886,5.812,1.631-2.582-12.022-20.453-19.127-29.445A74.386,74.386,0,0,0,1616.249,1159.743Z"/><path class="d" d="M2781.4,1432.474a14.6,14.6,0,1,0,14.595,14.6A14.6,14.6,0,0,0,2781.4,1432.474Z" transform="translate(-1190.016 -302.044)"/><path class="c" d="M2817.463,1511.958a9.987,9.987,0,1,0,9.987,9.988A9.988,9.988,0,0,0,2817.463,1511.958Z" transform="translate(-1227.445 -375.197)"/><path class="c" d="M3091.772,2671.907l-7.833,9.128,24.381,12.9A264.355,264.355,0,0,0,3091.772,2671.907Z" transform="translate(-1481.891 -1442.765)"/><path class="e" d="M2087.88,2033.643s7.067-16.254,10.865-17.844,16.165,4.151,15.194,5.123a4.144,4.144,0,0,1-1.916.541c-2.948.414-8.53.629-12.571,2.286C2094.063,2025.957,2087.615,2036.292,2087.88,2033.643Z" transform="translate(-565.153 -838.656)"/></g></svg>