<svg xmlns="http://www.w3.org/2000/svg" width="55.516" height="55.631" viewBox="0 0 55.516 55.631"><defs><style>.a{fill:#54ab3d;}.b{fill:#2f2a4a;}.c{fill:none;stroke:#2f2a4a;stroke-miterlimit:10;stroke-width:1.5px;}</style></defs><g transform="translate(0 0.75)"><g transform="translate(6.06 29.899)"><path class="a" d="M719.951,542.158v18.318a6.523,6.523,0,0,1,8.715,2.875,2.891,2.891,0,0,0,2.906-2.875V542.158Z" transform="translate(-688.167 -542.158)"/><path class="a" d="M683.31,560.476a6.524,6.524,0,0,1,8.715,2.875,2.89,2.89,0,0,0,2.9-2.875V542.158H683.31Z" transform="translate(-683.31 -542.158)"/><path class="a" d="M701.626,563.63a6.524,6.524,0,0,1,8.715,2.874,2.889,2.889,0,0,0,2.905-2.874V542.158h-11.62Z" transform="translate(-685.738 -542.158)"/></g><g transform="translate(0 8.957)"><path class="b" d="M689.022,562.383a3.547,3.547,0,0,0,6.447-2V542.061a.635.635,0,0,0-.636-.635h-11.62a.635.635,0,0,0-.636.635v18.318a3.546,3.546,0,0,0,6.445,2Zm-5.174-2V542.7H694.2v17.682a2.27,2.27,0,0,1-4.539,0v-13.3a.635.635,0,0,0-1.271,0v13.3a2.27,2.27,0,0,1-4.539,0Z" transform="translate(-677.153 -521.119)"/><path class="b" d="M713.149,541.426H701.53a.635.635,0,0,0-.636.635v21.471a28.407,28.407,0,0,1,9.35,3.511,3.53,3.53,0,0,0,3.54-3.511V542.061A.635.635,0,0,0,713.149,541.426Zm-.636,22.106a2.269,2.269,0,0,1-4.538,0V547.079a.636.636,0,0,0-1.272,0v16.453a2.269,2.269,0,0,1-4.538,0V542.7h10.348Z" transform="translate(-679.581 -521.119)"/><path class="b" d="M677.937,536.794h4.569a.636.636,0,0,0,.636-.636v-10.45a.635.635,0,1,0-1.271,0v9.815h-3.3V524.916a3.937,3.937,0,0,1,3.933-3.932h1.453l4.128,1.649a.634.634,0,0,0,.472,0l4.121-1.649H693.7a5.159,5.159,0,0,0-.513,2.237v12.938a.636.636,0,0,0,.636.636h4.569a.636.636,0,0,0,.636-.636V524.013a.636.636,0,0,0-1.272,0v11.511h-3.3v-12.3a3.938,3.938,0,0,1,3.934-3.933h1.452l3.726,1.489v.417a.636.636,0,1,0,1.272,0v-.415l3.725-1.491h1.453a3.937,3.937,0,0,1,3.933,3.933v12.3h-3.3V524.013a.635.635,0,0,0-1.271,0v12.146a.636.636,0,0,0,.636.636h4.569a.636.636,0,0,0,.636-.636V523.221a5.159,5.159,0,0,0-.513-2.237h1.03l3.725,1.488v15.851H714.3a.636.636,0,0,0-.636.635v18.318a28.446,28.446,0,0,1,9.351,3.51,3.529,3.529,0,0,0,3.54-3.51V538.958a.636.636,0,0,0-.636-.635h-5.179V522.474l3.726-1.49h1.453a3.937,3.937,0,0,1,3.933,3.932v10.608h-3.3v-9.815a.636.636,0,1,0-1.272,0v10.45a.636.636,0,0,0,.636.636h4.569a.636.636,0,0,0,.636-.636V524.916a5.211,5.211,0,0,0-5.2-5.2h-1.575a.627.627,0,0,0-.236.046l-4,1.6-4.006-1.6a.624.624,0,0,0-.236-.046h-1.574c-.14,0-.278.013-.415.026a5.187,5.187,0,0,0-3.855-1.721h-1.575a.646.646,0,0,0-.236.045l-4,1.6-4-1.6a.646.646,0,0,0-.236-.045h-1.575a5.189,5.189,0,0,0-3.861,1.728c-.134-.011-.265-.033-.4-.033h-1.576a.624.624,0,0,0-.236.046l-4,1.6-4-1.6a.63.63,0,0,0-.236-.046h-1.575a5.211,5.211,0,0,0-5.2,5.2v11.243A.636.636,0,0,0,677.937,536.794Zm47.344,2.8v17.682a2.269,2.269,0,0,1-4.538,0v-13.3a.635.635,0,0,0-1.271,0v13.3a2.269,2.269,0,0,1-4.538,0V539.593Z" transform="translate(-676.453 -518.016)"/><path class="b" d="M689.9,533.623a.635.635,0,1,0,.636.635A.632.632,0,0,0,689.9,533.623Z" transform="translate(-678.041 -520.085)"/><path class="b" d="M689.9,525.825a.636.636,0,1,0,.636.636A.633.633,0,0,0,689.9,525.825Z" transform="translate(-678.041 -519.051)"/><path class="b" d="M689.9,529.724a.635.635,0,1,0,.636.636A.633.633,0,0,0,689.9,529.724Z" transform="translate(-678.041 -519.568)"/><path class="b" d="M689.9,537.521a.635.635,0,1,0,.636.636A.633.633,0,0,0,689.9,537.521Z" transform="translate(-678.041 -520.602)"/><path class="b" d="M708.859,531.354a.636.636,0,0,0-1.272,0v.847a.636.636,0,1,0,1.272,0Z" transform="translate(-680.468 -519.7)"/><path class="b" d="M708.224,536.092a.638.638,0,0,0-.637.637v.847a.636.636,0,0,0,1.272,0v-.847A.637.637,0,0,0,708.224,536.092Z" transform="translate(-680.468 -520.412)"/><path class="b" d="M708.859,525.981a.636.636,0,1,0-1.272,0v.847a.636.636,0,1,0,1.272,0Z" transform="translate(-680.468 -518.987)"/><path class="b" d="M679.8,569.492H676.96a.636.636,0,1,0,0,1.272H679.8a.636.636,0,1,0,0-1.272Z" transform="translate(-676.324 -524.84)"/><path class="b" d="M696.326,569.492h-11.2a.636.636,0,1,0,0,1.272h11.2a.636.636,0,0,0,0-1.272Z" transform="translate(-677.406 -524.84)"/><path class="b" d="M736.7,569.492H718.417a.636.636,0,0,0,0,1.272H736.7a.636.636,0,1,0,0-1.272Z" transform="translate(-681.82 -524.84)"/></g><g transform="translate(1.483)"><path class="c" d="M726.031,509.644a4.244,4.244,0,1,0,4.025,4.237A4.136,4.136,0,0,0,726.031,509.644Z" transform="translate(-683.863 -507.949)"/><path class="c" d="M689.388,509.644a4.244,4.244,0,1,0,4.027,4.237A4.136,4.136,0,0,0,689.388,509.644Z" transform="translate(-679.006 -507.949)"/><path class="c" d="M707.7,507.69a4.243,4.243,0,1,0,4.026,4.238A4.136,4.136,0,0,0,707.7,507.69Z" transform="translate(-681.434 -507.69)"/><path class="b" d="M733.348,539.664v1.907a2.284,2.284,0,1,0,4.568,0v-1.907Z" transform="translate(-685.367 -511.929)"/><path class="b" d="M678.034,541.571a2.284,2.284,0,1,0,4.569,0v-1.907h-4.569Z" transform="translate(-678.034 -511.929)"/><path class="b" d="M696.351,539.664v1.907a2.284,2.284,0,1,0,4.568,0v-1.907Z" transform="translate(-680.462 -511.929)"/><path class="b" d="M715.022,541.571a2.284,2.284,0,1,0,4.569,0v-1.907h-4.569Z" transform="translate(-682.937 -511.929)"/></g></g></svg>