<svg xmlns="http://www.w3.org/2000/svg" xmlns:xlink="http://www.w3.org/1999/xlink" width="181.521" height="174.337" viewBox="0 0 181.521 174.337"><defs><style>.a{opacity:0.5;}.b{fill:url(#a);}.c{fill:#f5f5f5;}.d{fill:#fda57d;}.e{fill:#333;}.f{opacity:0.1;}.g{fill:#fdd835;}.h{fill:url(#b);}.i{fill:#be7c5e;}.j{fill:#3ad29f;}.k{fill:url(#c);}.l{fill:#4d8af0;}.m{fill:url(#d);}.n{fill:#f55f44;}.o{fill:#00d857;}</style><linearGradient id="a" x1="0.5" y1="1" x2="0.5" gradientUnits="objectBoundingBox"><stop offset="0" stop-color="gray" stop-opacity="0.251"/><stop offset="0.54" stop-color="gray" stop-opacity="0.122"/><stop offset="1" stop-color="gray" stop-opacity="0.102"/></linearGradient><linearGradient id="b" x1="-4.017" y1="1" x2="-4.017" y2="0" xlink:href="#a"/><linearGradient id="c" x1="0.5" y1="1" x2="0.5" y2="0" xlink:href="#a"/><linearGradient id="d" x1="0.5" y1="1" x2="0.5" y2="0" xlink:href="#a"/></defs><g transform="translate(0.005 0.002)"><g class="a" transform="translate(-0.005 38.132)"><path class="b" d="M226.7,247.388a11.709,11.709,0,1,0-18.241,9.719v.053a4.008,4.008,0,0,0,1.327.844l.016-.053a10.942,10.942,0,0,0,5.509,1.217h.057A10.737,10.737,0,0,0,220.479,258s.014-.03.037-.089a4.171,4.171,0,0,0,1.105-.755l.018-.133A11.7,11.7,0,0,0,226.7,247.388Z" transform="translate(-203.285 -235.678)"/></g><circle class="c" cx="11.357" cy="11.357" r="11.357" transform="translate(0.227 38.069)"/><path class="d" d="M226.944,304.6s-2.707.229-1.99,5.152a3.889,3.889,0,0,0,1.29.819l1.521-5.152Z" transform="translate(-219.908 -250.699)"/><path class="d" d="M269.679,304.6s2.707.229,1.99,5.152a3.889,3.889,0,0,1-1.288.819l-1.521-5.152Z" transform="translate(-253.863 -250.699)"/><path class="e" d="M227.86,269.28s-1.288,3.748-1.99,3.4c0,0,6.779,5.855,12.762,0a17.846,17.846,0,0,0-2.576-3.4Z" transform="translate(-220.708 -223.46)"/><circle class="e" cx="5.036" cy="5.036" r="5.036" transform="translate(6.461 40.434)"/><path class="f" d="M239.234,304.6h-8.781l-.819,3.512s-.48,1.627.117,2.343,6.193,2.343,10.3.117a4.576,4.576,0,0,0,.117-2.926c-.458-1.638-.117-.117-.117-.117Z" transform="translate(-223.47 -250.699)"/><path class="f" d="M239.744,304.6h-8.781l-.819,3.512s-.48,1.627.117,2.343,6.193,2.343,10.3.117a4.575,4.575,0,0,0,.117-2.926c-.458-1.638-.117-.117-.117-.117Z" transform="translate(-223.863 -250.699)"/><path class="g" d="M239.464,304.6h-8.781l-.819,3.512s-.48,1.627.117,2.343,6.193,2.343,10.3.117a4.576,4.576,0,0,0,.117-2.926c-.458-1.638-.117-.117-.117-.117Z" transform="translate(-223.647 -250.699)"/><path class="f" d="M42.53,222.86h3.514v3.027a1.54,1.54,0,0,1-1.54,1.54H44.07a1.54,1.54,0,0,1-1.54-1.54Z" transform="translate(-32.804 -171.874)"/><path class="d" d="M42.53,222.29h3.514v3.027a1.54,1.54,0,0,1-1.54,1.54H44.07a1.54,1.54,0,0,1-1.54-1.54Z" transform="translate(-32.804 -171.435)"/><path class="f" d="M245.85,292.042a5.056,5.056,0,0,0,3.512,0v-.432H245.85Z" transform="translate(-236.117 -240.681)"/><circle class="d" cx="5.036" cy="5.036" r="5.036" transform="translate(6.461 41.526)"/><path class="e" d="M232.52,251.893h9.609s-.828-3.878-4.466-3.631A6.47,6.47,0,0,0,232.52,251.893Z" transform="translate(-225.837 -207.242)"/><ellipse class="d" cx="0.469" cy="0.879" rx="0.469" ry="0.879" transform="translate(6.098 45.47)"/><ellipse class="d" cx="0.469" cy="0.879" rx="0.469" ry="0.879" transform="translate(15.933 45.47)"/><path class="f" d="M232.52,252.46h9.609s-.828-3.876-4.466-3.629A6.47,6.47,0,0,0,232.52,252.46Z" transform="translate(-225.837 -207.681)"/><g class="a" transform="translate(0.158 -0.002)"><path class="h" d="M204,80.708a11.709,11.709,0,1,1,18.241,9.719v.053a4.008,4.008,0,0,1-1.327.844l-.016-.053a10.943,10.943,0,0,1-5.509,1.217h-.057a10.738,10.738,0,0,1-5.107-1.165s-.014-.03-.037-.089a4.171,4.171,0,0,1-1.105-.755l-.018-.133A11.7,11.7,0,0,1,204,80.708Z" transform="translate(-204 -68.998)"/></g><circle class="c" cx="11.357" cy="11.357" r="11.357" transform="translate(0.518 0.351)"/><path class="i" d="M228.624,139.09s-2.707.229-1.99,5.152a3.889,3.889,0,0,0,1.288.819l1.521-5.152Z" transform="translate(-221.204 -123.056)"/><path class="i" d="M271.369,139.09s2.707.229,1.99,5.152a3.89,3.89,0,0,1-1.288.819l-1.521-5.152Z" transform="translate(-255.166 -123.056)"/><path class="e" d="M233.775,103.78s-.208.606-.5,1.309c-.645,1.535.092,7.429,1.631,8.056a8.768,8.768,0,0,0,6.367.3c2.059-.748,2.686-7.456,1.235-9.092-.169-.192-.348-.382-.533-.567Z" transform="translate(-226.236 -95.824)"/><circle class="e" cx="5.036" cy="5.036" r="5.036" transform="translate(6.848 2.568)"/><path class="f" d="M240.924,139.09h-8.781l-.819,3.512s-.48,1.627.117,2.343,6.193,2.343,10.3.117a4.576,4.576,0,0,0,.126-2.926c-.458-1.638-.117-.117-.117-.117Z" transform="translate(-224.773 -123.056)"/><path class="f" d="M241.411,139.09h-8.788L231.8,142.6s-.48,1.627.117,2.343,6.193,2.343,10.3.117a4.576,4.576,0,0,0,.117-2.926c-.458-1.638-.117-.117-.117-.117Z" transform="translate(-225.143 -123.056)"/><path class="j" d="M241.146,139.09h-8.783l-.819,3.512s-.48,1.627.117,2.343,6.193,2.343,10.3.117a4.576,4.576,0,0,0,.117-2.926c-.458-1.638-.117-.117-.117-.117Z" transform="translate(-224.943 -123.056)"/><path class="f" d="M44.22,57.35h3.514v3.029a1.54,1.54,0,0,1-1.54,1.54H45.76a1.54,1.54,0,0,1-1.54-1.54Z" transform="translate(-34.107 -44.23)"/><path class="i" d="M44.22,56.78h3.514V59.8a1.54,1.54,0,0,1-1.54,1.54H45.76a1.54,1.54,0,0,1-1.54-1.54Z" transform="translate(-34.107 -43.791)"/><path class="f" d="M247.54,126.542a5.056,5.056,0,0,0,3.512,0v-.432H247.54Z" transform="translate(-237.42 -113.045)"/><circle class="i" cx="5.036" cy="5.036" r="5.036" transform="translate(6.848 3.662)"/><path class="e" d="M234.21,86.383h9.609s-.819-3.878-4.45-3.631A6.526,6.526,0,0,0,234.21,86.383Z" transform="translate(-227.14 -79.598)"/><ellipse class="i" cx="0.469" cy="0.879" rx="0.469" ry="0.879" transform="translate(6.482 7.604)"/><ellipse class="i" cx="0.469" cy="0.879" rx="0.469" ry="0.879" transform="translate(16.318 7.604)"/><path class="f" d="M234.21,86.953h9.609s-.819-3.878-4.45-3.631A6.526,6.526,0,0,0,234.21,86.953Z" transform="translate(-227.14 -80.038)"/><g class="a" transform="translate(-0.005 150.846)"><path class="k" d="M226.7,740.045a11.709,11.709,0,1,0-18.241,9.721v.053a4.01,4.01,0,0,0,1.327.844l.016-.053a10.944,10.944,0,0,0,5.509,1.217h.057a10.738,10.738,0,0,0,5.106-1.164s.014-.03.037-.089a4.173,4.173,0,0,0,1.105-.755l.018-.133A11.7,11.7,0,0,0,226.7,740.045Z" transform="translate(-203.285 -728.338)"/></g><circle class="c" cx="11.357" cy="11.357" r="11.357" transform="translate(0.348 151.198)"/><path class="l" d="M225.884,798.93s-2.707.229-1.99,5.152a3.891,3.891,0,0,0,1.288.819l1.521-5.152Z" transform="translate(-219.091 -631.934)"/><path class="l" d="M268.619,798.93s2.707.229,1.99,5.152a3.89,3.89,0,0,1-1.288.819l-1.521-5.152Z" transform="translate(-253.045 -631.934)"/><circle class="e" cx="5.036" cy="5.036" r="5.036" transform="translate(6.219 153.53)"/><path class="l" d="M238.174,798.93h-8.781l-.819,3.512s-.48,1.627.117,2.343,6.193,2.343,10.3.117a4.576,4.576,0,0,0,.117-2.926c-.458-1.638-.117-.117-.117-.117Z" transform="translate(-222.652 -631.934)"/><path class="l" d="M238.686,798.93H229.9l-.819,3.512s-.48,1.627.117,2.343,6.193,2.343,10.3.117a4.576,4.576,0,0,0,.117-2.926c-.458-1.638-.117-.117-.117-.117Z" transform="translate(-223.046 -631.934)"/><path class="l" d="M238.4,798.93h-8.781l-.819,3.512s-.48,1.627.117,2.343,6.193,2.34,10.311.11a4.575,4.575,0,0,0,.117-2.926c-.458-1.638-.117-.117-.117-.117Z" transform="translate(-222.83 -631.934)"/><path class="f" d="M41.472,717.19h3.512v3.027a1.54,1.54,0,0,1-1.54,1.54H43.01a1.54,1.54,0,0,1-1.54-1.54V717.19Z" transform="translate(-31.986 -553.109)"/><path class="d" d="M41.472,716.62h3.512v3.027a1.54,1.54,0,0,1-1.54,1.54H43.01a1.54,1.54,0,0,1-1.54-1.54V716.62Z" transform="translate(-31.986 -552.669)"/><path class="f" d="M244.8,786.419a5.057,5.057,0,0,0,3.512,0V786H244.8Z" transform="translate(-235.307 -621.962)"/><circle class="d" cx="5.036" cy="5.036" r="5.036" transform="translate(6.219 154.621)"/><path class="f" d="M231.46,746.79h9.609s-.826-3.876-4.452-3.629A6.529,6.529,0,0,0,231.46,746.79Z" transform="translate(-225.019 -588.916)"/><path class="e" d="M231.46,746.213h9.609s-.819-3.878-4.45-3.631A6.526,6.526,0,0,0,231.46,746.213Z" transform="translate(-225.019 -588.469)"/><ellipse class="d" cx="0.469" cy="0.879" rx="0.469" ry="0.879" transform="translate(5.855 158.565)"/><ellipse class="d" cx="0.469" cy="0.879" rx="0.469" ry="0.879" transform="translate(15.691 158.565)"/><g class="a" transform="translate(-0.005 113.663)"><path class="m" d="M226.7,577.528a11.709,11.709,0,1,0-18.241,9.719v.053a4.008,4.008,0,0,0,1.327.844l.016-.053a10.943,10.943,0,0,0,5.509,1.217h.057a10.738,10.738,0,0,0,5.106-1.165s.014-.03.037-.089a4.176,4.176,0,0,0,1.105-.755l.018-.133A11.7,11.7,0,0,0,226.7,577.528Z" transform="translate(-203.285 -565.818)"/></g><circle class="c" cx="11.357" cy="11.357" r="11.357" transform="translate(0.227 113.593)"/><path class="i" d="M226.944,634.71s-2.707.229-1.99,5.152a3.888,3.888,0,0,0,1.288.819l1.521-5.152Z" transform="translate(-219.908 -505.285)"/><path class="i" d="M269.679,634.71s2.707.229,1.99,5.152a3.888,3.888,0,0,1-1.288.819l-1.521-5.152Z" transform="translate(-253.863 -505.285)"/><path class="e" d="M227.86,599.4s-1.288,6.635-1.99,6.273c0,0,6.779,5.855,12.762,0,0,0-1.055-4.75-2.576-6.273Z" transform="translate(-220.708 -478.054)"/><circle class="e" cx="5.036" cy="5.036" r="5.036" transform="translate(6.461 115.959)"/><path class="f" d="M239.234,634.71h-8.781l-.819,3.512s-.48,1.627.117,2.343,6.193,2.343,10.3.117a4.576,4.576,0,0,0,.117-2.926c-.458-1.638-.117-.117-.117-.117Z" transform="translate(-223.47 -505.285)"/><path class="f" d="M239.744,634.71h-8.781l-.819,3.512s-.48,1.627.117,2.343,6.193,2.343,10.3.117a4.575,4.575,0,0,0,.117-2.926c-.458-1.638-.117-.117-.117-.117Z" transform="translate(-223.863 -505.285)"/><path class="n" d="M239.464,634.71h-8.781l-.819,3.512s-.48,1.627.117,2.343,6.193,2.343,10.3.117a4.576,4.576,0,0,0,.117-2.926c-.458-1.638-.117-.117-.117-.117Z" transform="translate(-223.647 -505.285)"/><path class="f" d="M42.53,553h3.514v3.027a1.54,1.54,0,0,1-1.54,1.54H44.07a1.54,1.54,0,0,1-1.54-1.54Z" transform="translate(-32.804 -426.483)"/><path class="i" d="M42.53,552.41h3.514v3.027a1.54,1.54,0,0,1-1.54,1.54H44.07a1.54,1.54,0,0,1-1.54-1.54Z" transform="translate(-32.804 -426.028)"/><path class="f" d="M245.85,622.162a5.056,5.056,0,0,0,3.512,0v-.432H245.85Z" transform="translate(-236.117 -495.275)"/><circle class="i" cx="5.036" cy="5.036" r="5.036" transform="translate(6.461 117.052)"/><path class="e" d="M232.52,582.01h9.609s-.828-3.876-4.466-3.628A6.47,6.47,0,0,0,232.52,582.01Z" transform="translate(-225.837 -461.835)"/><ellipse class="i" cx="0.469" cy="0.879" rx="0.469" ry="0.879" transform="translate(6.098 120.994)"/><ellipse class="i" cx="0.469" cy="0.879" rx="0.469" ry="0.879" transform="translate(15.933 120.994)"/><path class="f" d="M232.52,582.587h9.609s-.828-3.878-4.466-3.626A6.479,6.479,0,0,0,232.52,582.587Z" transform="translate(-225.837 -462.281)"/><g class="a" transform="translate(-0.005 75.706)"><path class="b" d="M226.7,411.618a11.709,11.709,0,1,0-18.241,9.719v.053a4.008,4.008,0,0,0,1.327.844l.016-.053a10.943,10.943,0,0,0,5.509,1.217h.057a10.738,10.738,0,0,0,5.106-1.164s.014-.03.037-.089a4.171,4.171,0,0,0,1.105-.755l.018-.133A11.7,11.7,0,0,0,226.7,411.618Z" transform="translate(-203.285 -399.908)"/></g><circle class="c" cx="11.357" cy="11.357" r="11.357" transform="translate(0.348 76.058)"/><path class="l" d="M225.884,470.5s-2.707.229-1.99,5.152a3.889,3.889,0,0,0,1.288.819l1.521-5.152Z" transform="translate(-219.091 -378.644)"/><path class="l" d="M268.619,470.5s2.707.229,1.99,5.152a3.888,3.888,0,0,1-1.288.819l-1.521-5.152Z" transform="translate(-253.045 -378.644)"/><circle class="e" cx="5.036" cy="5.036" r="5.036" transform="translate(6.219 78.392)"/><path class="l" d="M238.174,470.5h-8.781l-.819,3.512s-.48,1.627.117,2.343,6.193,2.343,10.3.117a4.576,4.576,0,0,0,.117-2.926c-.458-1.638-.117-.117-.117-.117Z" transform="translate(-222.652 -378.644)"/><path class="l" d="M238.686,470.5H229.9l-.819,3.512s-.48,1.627.117,2.343,6.193,2.343,10.3.117a4.576,4.576,0,0,0,.117-2.926c-.458-1.638-.117-.117-.117-.117Z" transform="translate(-223.046 -378.644)"/><path class="l" d="M238.4,470.5h-8.781l-.819,3.512s-.48,1.627.117,2.343,6.193,2.343,10.3.117a4.576,4.576,0,0,0,.117-2.926c-.458-1.638-.117-.117-.117-.117Z" transform="translate(-222.83 -378.644)"/><path class="f" d="M41.48,388.77h3.512V391.8a1.54,1.54,0,0,1-1.54,1.54h-.435a1.54,1.54,0,0,1-1.537-1.54Z" transform="translate(-31.994 -299.826)"/><path class="i" d="M41.472,388.2h3.512v3.027a1.54,1.54,0,0,1-1.54,1.54H43.01a1.54,1.54,0,0,1-1.54-1.54V388.2Z" transform="translate(-31.986 -299.387)"/><path class="f" d="M244.8,457.952a5.056,5.056,0,0,0,3.512,0v-.432H244.8Z" transform="translate(-235.307 -368.634)"/><circle class="i" cx="5.036" cy="5.036" r="5.036" transform="translate(6.219 79.483)"/><path class="f" d="M231.46,418.37h9.609s-.826-3.876-4.452-3.629A6.529,6.529,0,0,0,231.46,418.37Z" transform="translate(-225.019 -335.634)"/><path class="e" d="M231.46,417.793h9.609s-.819-3.878-4.45-3.631A6.526,6.526,0,0,0,231.46,417.793Z" transform="translate(-225.019 -335.186)"/><ellipse class="i" cx="0.469" cy="0.879" rx="0.469" ry="0.879" transform="translate(5.855 83.425)"/><ellipse class="i" cx="0.469" cy="0.879" rx="0.469" ry="0.879" transform="translate(15.691 83.425)"/><path class="e" d="M233.429,407.026a3.037,3.037,0,0,1,.753-1.224c1.034-1.023,2.729-1.238,3.6-2.4a.686.686,0,0,1-.311.959,2.636,2.636,0,0,0,2.27-.764,1.558,1.558,0,0,1-.263,1.645,1.575,1.575,0,0,1,1.574,1.272,1.469,1.469,0,0,1-.686,1.238,3.779,3.779,0,0,1-1.373.517C237.593,408.571,232.512,409.872,233.429,407.026Z" transform="translate(-226.453 -326.896)"/><g class="a" transform="translate(46.991 8.118)"><rect class="b" width="134.526" height="7.25"/></g><rect class="c" width="133.583" height="5.98" transform="translate(47.554 8.663)"/><rect class="j" width="94.452" height="5.98" transform="translate(47.554 8.663)"/><g class="a" transform="translate(46.991 47.364)"><rect class="b" width="134.526" height="7.25"/></g><rect class="c" width="133.583" height="5.98" transform="translate(47.554 47.909)"/><rect class="o" width="130.954" height="5.98" transform="translate(47.554 47.909)"/><g class="a" transform="translate(46.991 83.826)"><rect class="b" width="134.526" height="7.25"/></g><rect class="c" width="133.583" height="5.98" transform="translate(47.554 84.37)"/><rect class="n" width="20.483" height="5.98" transform="translate(47.554 84.37)"/><g class="a" transform="translate(46.991 121.744)"><rect class="b" width="134.526" height="7.25"/></g><rect class="c" width="133.583" height="5.98" transform="translate(47.554 122.289)"/><rect class="o" width="121.22" height="5.98" transform="translate(47.554 122.289)"/><g class="a" transform="translate(46.991 158.963)"><rect class="b" width="134.526" height="7.25"/></g><rect class="c" width="133.583" height="5.98" transform="translate(47.554 159.508)"/><rect class="j" width="41.637" height="5.98" transform="translate(47.554 159.508)"/></g></svg>