<svg xmlns="http://www.w3.org/2000/svg" xmlns:xlink="http://www.w3.org/1999/xlink" width="281.688" height="166.402" viewBox="0 0 281.688 166.402"><defs><style>.a,.c{fill:#00d857;}.a,.e{opacity:0.2;}.b,.e{fill:#f5f5f5;}.d{fill:none;stroke:#535461;stroke-miterlimit:10;stroke-width:2px;}.f{fill:url(#a);}.g{fill:#535461;}.h{fill:#fff;}.i{fill:url(#c);}.j{fill:url(#d);}.k{fill:#f7c4a7;}.l{opacity:0.05;}.m{fill:#575988;}.n{opacity:0.1;}.o{fill:#f3b5b7;}.p{fill:#dddbe2;}.q{fill:#fc6681;}</style><linearGradient id="a" x1="0.5" y1="1" x2="0.5" gradientUnits="objectBoundingBox"><stop offset="0" stop-color="gray" stop-opacity="0.251"/><stop offset="0.54" stop-color="gray" stop-opacity="0.122"/><stop offset="1" stop-color="gray" stop-opacity="0.102"/></linearGradient><linearGradient id="c" x1="0.5" y1="1" x2="0.5" y2="0" xlink:href="#a"/><linearGradient id="d" x1="0.5" y1="1" x2="0.5" y2="0" xlink:href="#a"/></defs><g transform="translate(0)"><path class="a" d="M123.165,144.019a20.3,20.3,0,0,0-6.493.631,10.814,10.814,0,0,0-7.382,12.2c.862,4.859,4.407,9.092,8.086,12.961s7.665,7.695,9.682,12.32c1.006,2.308,1.476,4.894.454,7.2-1.577,3.554-6.333,5.539-10.9,5.952s-9.149-.392-13.731-.661a17.26,17.26,0,0,0-5.71.394,15.11,15.11,0,0,0-5.166,2.926c-5.941,4.726-10.7,11.172-9.927,17.945.87,7.676,8.63,13.742,17.13,17,2.814,1.088,5.791,1.952,8.268,3.491,6.526,4.059,7.991,11.673,7.341,18.391s-2.863,13.445-1.631,20.1c1.449,7.746,7.863,14.745,16.515,18.013,7.708,2.912,17.355,2.719,24.2-1.389a29.282,29.282,0,0,0,8.054-7.676,61.923,61.923,0,0,0,8.007-13.867c.954-2.308,1.852-4.791,4.078-6.4a14.014,14.014,0,0,1,4.864-1.969c5.253-1.294,10.786-1.648,16.088-2.8s10.637-3.309,13.519-7.143c4.078-5.438,2.175-12.4,2.194-18.8.033-14.59,10.634-27.649,14.547-41.872,1.278-4.647,1.754-9.788-1.1-13.935-1.939-2.814-5.21-4.845-8.646-6.414-7.562-3.45-16.156-4.987-24.61-6.482-11.749-2.077-26.015-2.346-35.121-9.068C147.037,148.622,135.082,144.019,123.165,144.019Z" transform="translate(-81.999 -144)"/><ellipse class="b" cx="126.433" cy="33.857" rx="126.433" ry="33.857" transform="translate(28.822 98.688)"/><path class="c" d="M1002.571,330.86a23.262,23.262,0,0,0-4.242,24.2c5.5,14.457-9.43,38.5-9.43,38.5s.16-.024.457-.076a28.368,28.368,0,0,0,18.826-43.42C1004.047,343.743,1000.651,336.336,1002.571,330.86Z" transform="translate(-742.315 -280.053)"/><path class="d" d="M1002.571,330.86s-5.5,11.942,0,21.684.943,37.084-13.671,41.013" transform="translate(-742.315 -280.053)"/><path class="c" d="M1013.276,475.464s-11.118-1.77-12.129,8.192S979.77,495,979.77,495l.381.253c16.814,11.036,32.9,7.031,30.453-7.613C1009.714,482.18,1009.788,476.707,1013.276,475.464Z" transform="translate(-735.667 -385.251)"/><path class="e" d="M1013.276,475.464s-11.118-1.77-12.129,8.192S979.77,495,979.77,495l.381.253c16.814,11.036,32.9,7.031,30.453-7.613C1009.714,482.18,1009.788,476.707,1013.276,475.464Z" transform="translate(-735.667 -385.251)"/><path class="d" d="M1013.276,475.79s-8.63,1.9-7.92,9.739-12.815,17.252-25.586,9.788" transform="translate(-735.667 -385.577)"/><path class="f" d="M518.846,328.277H501.379a5.825,5.825,0,0,0,.609-2.6V246.129a5.849,5.849,0,0,0-5.849-5.849H360.913a5.849,5.849,0,0,0-5.851,5.849v79.549a5.824,5.824,0,0,0,.609,2.6H337.587a1.547,1.547,0,0,0-1.547,1.547v1.248a8.652,8.652,0,0,0,8.652,8.644H511.741a8.652,8.652,0,0,0,8.652-8.652v-1.248A1.547,1.547,0,0,0,518.846,328.277ZM411.2,333.226l-1.49-1.7h37.174l-1.659,1.7Z" transform="translate(-266.966 -214.102)"/><rect class="g" width="143.595" height="89.18" rx="23.26" transform="translate(89.757 27.304)"/><rect class="h" width="137.246" height="72.855" transform="translate(92.778 40.304)"/><circle class="h" cx="1.21" cy="1.21" r="1.21" transform="translate(160.192 32.745)"/><path class="g" d="M455.16,560.73l-4.717,4.837H417.189l-4.261-4.837H345.242a1.512,1.512,0,0,0-1.512,1.512v1.218a8.456,8.456,0,0,0,8.456,8.456H515.448a8.456,8.456,0,0,0,8.456-8.456v-1.218a1.512,1.512,0,0,0-1.512-1.512Z" transform="translate(-272.566 -447.422)"/><path class="f" d="M411.156,301.65h-57.9a5.3,5.3,0,0,0-5.31,5.3v80.21a5.3,5.3,0,0,0,5.31,5.3h57.9a5.3,5.3,0,0,0,5.31-5.3v-80.21A5.3,5.3,0,0,0,411.156,301.65Z" transform="translate(-275.638 -258.785)"/><rect class="g" width="66.887" height="88.911" rx="20" transform="translate(73.125 43.953)"/><rect class="h" width="60.09" height="72.091" transform="translate(76.524 52.362)"/><circle class="h" cx="0.816" cy="0.816" r="0.816" transform="translate(105.481 47.215)"/><circle class="h" cx="2.447" cy="2.447" r="2.447" transform="translate(103.849 126.066)"/><path class="i" d="M330.621,401.65H300.895a2.939,2.939,0,0,0-2.945,2.934v65.1a2.939,2.939,0,0,0,2.945,2.934h29.727a2.939,2.939,0,0,0,2.945-2.934v-65.1A2.939,2.939,0,0,0,330.621,401.65Z" transform="translate(-239.233 -331.595)"/><rect class="g" width="35.075" height="70.15" rx="11" transform="translate(58.986 70.599)"/><rect class="h" width="29.909" height="57.099" transform="translate(61.569 77.124)"/><circle class="h" cx="0.272" cy="0.272" r="0.272" transform="translate(72.717 73.589)"/><rect class="h" width="5.982" height="0.544" rx="0.272" transform="translate(74.348 73.589)"/><circle class="h" cx="1.903" cy="1.903" r="1.903" transform="translate(74.484 135.039)"/><path class="d" d="M281.93,575.636s-3.605-12.235.677-21.246a19.33,19.33,0,0,0,1.572-12.129,32.513,32.513,0,0,0-1.716-5.691" transform="translate(-226.535 -429.831)"/><path class="c" d="M282.888,508.349c0,1.5-2.719,5.849-2.719,5.849s-2.719-4.35-2.719-5.849a2.719,2.719,0,0,1,5.438,0Z" transform="translate(-224.307 -407.303)"/><path class="c" d="M299.38,534.677c-.816,1.259-5.46,3.434-5.46,3.434s.084-5.128.9-6.387a2.719,2.719,0,1,1,4.56,2.953Z" transform="translate(-236.299 -425.322)"/><path class="c" d="M295.977,584.771c-1.34.674-6.447.209-6.447.209s2.662-4.383,4-5.057a2.719,2.719,0,0,1,2.447,4.851Z" transform="translate(-233.103 -461.22)"/><path class="c" d="M286.879,624.872c-1.207.892-6.319,1.294-6.319,1.294s1.882-4.769,3.089-5.661a2.719,2.719,0,0,1,3.23,4.367Z" transform="translate(-226.571 -490.611)"/><path class="c" d="M270.451,547.161c1.088,1.044,6.088,2.129,6.088,2.129s-1.226-4.978-2.3-6.023a2.719,2.719,0,1,0-3.785,3.9Z" transform="translate(-218.542 -434.081)"/><path class="c" d="M258.167,592.181c1.34.674,6.447.209,6.447.209s-2.662-4.383-4-5.057a2.719,2.719,0,1,0-2.447,4.851Z" transform="translate(-209.103 -466.54)"/><path class="c" d="M255.778,639.472c1.207.892,6.319,1.294,6.319,1.294s-1.882-4.769-3.089-5.661a2.719,2.719,0,0,0-3.23,4.367Z" transform="translate(-207.801 -501.241)"/><path class="j" d="M745.96,426.725c-3.01-3.652-6.656-7.847-6.145-12.706.413-3.934-.576-7.572-.381-11.52.272-5.609-.854-10-4.894-13.595-2.36-2.1-6.305-3.752-7.48-3.331-2.327.832-4.867.514-7.262,1.088a7.213,7.213,0,0,0-3.779,1.9c-1.509,1.359-1.534,3.263-.846,5.288a8.932,8.932,0,0,0,4.413,12.529c-1.678.7-3.127,2.317-3.692,5.6a38.257,38.257,0,0,1-1.776,6.61,10.74,10.74,0,0,1-1.088.438c.082.033.166.054.247.084-.177.068-.351.136-.544.2a5.768,5.768,0,0,0,.992.288,37.854,37.854,0,0,1-4.894,8.9s-5.071,1.12-7.042-.84c0,0,.321.375.756.938-1.928-.8-5.093-2.1-7.8-3.179-1.963-.78-2.466,0-2.447,1.088a3.623,3.623,0,0,0-1.359.457,13.233,13.233,0,0,0-1.819-.979c-1.126-.272-4.788-2.24-8.451,4.478-2.132,3.907-7.6,11.039-11.8,16.314-8.171,3.758-18.807,8.516-22.761,9.712H643.58c-.332-.544-.563-.886-.563-.886l-.2.131-.084-.131s-4.976,3.445-10.028,3.472a9.516,9.516,0,0,1-2.132-.272,20.522,20.522,0,0,0-5.128-.816,3,3,0,0,0-2.654.924h0a2.418,2.418,0,0,0-.177.256h0a3,3,0,0,0-.147.272h0c-.043.1-.087.2-.125.307a.631.631,0,0,0,.158.53,2.827,2.827,0,0,0,.22.272l.141.152a22.466,22.466,0,0,0,3.236,2.5c.416.272.856.571,1.316.867l.873.544.78.487.313.193.348.212.623.378.37.223.7.416.566.334c1.479.873,2.953,1.718,4.282,2.469l.93.555.09.049.6.334,1.033.574.71.392.332.182.356.2.071.038.62.337a.9.9,0,0,0,.723-.2c.179-.761.617-2.393,1.088-2.518s2.507-3.684,3.081-6.066h5.5a24.23,24.23,0,0,0,3.219-.495c-1.419,1.011-2.825,1.648-3.918,1.376-2.311-.574-4.5.835-4.72,2.224a.359.359,0,0,1-.027.087c-.008.03-.014.057-.019.084s-.016.068-.022.1a.465.465,0,0,0,0,.087v.375a.548.548,0,0,0,.027.111c.011.038,0,.049.019.071a1.352,1.352,0,0,0,.06.144l.014.035a1.462,1.462,0,0,0,.1.171l.044.057a1.142,1.142,0,0,0,.09.111l.063.063c.033.033.068.065.1.1l.076.063.122.09.09.06.147.087.1.052.185.087.092.041c.1.041.2.079.313.114.177.057.386.117.623.177l.237.057.345.079.182.041q.353.076.75.152l.367.068.3.054.688.12c.43.073.878.147,1.359.217l1.185.179,1.544.22.343.046.544.076.8.106.544.071h0l1.411.179.44.054.889.109c1.169.141,2.3.272,3.342.389l1.2.136.609.068.272.027.729.079.405.044.5.052.7.073h.076l.451.046h0a.411.411,0,0,0,.454-.4h0v-.046a.4.4,0,0,0,.065-.212,9.245,9.245,0,0,1,.253-1.99c.03-.111.065-.226.1-.34l.043-.13c.049-.139.1-.272.155-.421a3.031,3.031,0,0,0,.106-.31.382.382,0,0,1,.03-.1c.011-.035.027-.111.038-.169.566-1.933-.117-5.539-.313-6.955a7.551,7.551,0,0,0-.31-1.332.54.54,0,0,0,.106,0,3.2,3.2,0,0,0,.816-.443c4.155-1.482,7.657-3.176,8.763-4.872a7.589,7.589,0,0,1,5.351.56c2.151,1.069,18.421,6.379,26,8.831,1.359,1.172,2.425,1.857,3.015,1.805,0,0,9.644,1.561,13.522-1.485.345.239.563.367.563.367s5.634-2.8,6.479-6.439c.272-1.18.519-2.92.772-4.845a7.045,7.045,0,0,0,2.045-4.951c.177-6.112,2.545-13.095,4.3-19.3,2.132.169,2.956-.234,4.911-1.2l-.087-.111C745.716,426.839,745.838,426.785,745.96,426.725Zm-32.3,9.155-1.088-.362a8.973,8.973,0,0,0,.938-1.561Zm-6.061,2.572,6.526,3.915.057.8a5.71,5.71,0,0,0,.054,1.822c-2.877-2.556-6.243-5.658-6.64-6.536Zm-2.665-5.71c-.712-.294-1.3-.56-1.708-.78.544.038,1.06.071,1.512.1a3.384,3.384,0,0,1,.2.685Zm-17.478,6.381s1.126-2.518,3.662,1.68c.394.653,1.12,1.691,2.08,2.977l-7.385-.987a10.6,10.6,0,0,0,1.642-3.668Z" transform="translate(-475.421 -319.841)"/><path class="k" d="M890.426,534.489s-5.166-2.175-9.245-3.807-1.631,3.807-1.631,3.807,6.8,1.9,6.8,2.175,5.71.544,5.71.544Z" transform="translate(-662.167 -425.322)"/><path class="l" d="M890.426,534.489s-5.166-2.175-9.245-3.807-1.631,3.807-1.631,3.807,6.8,1.9,6.8,2.175,5.71.544,5.71.544Z" transform="translate(-662.167 -425.322)"/><path class="m" d="M936.971,463.131s-9.245-4.894-10.876,4.622a38.852,38.852,0,0,1-6.8,16.042s-4.894,1.088-6.8-.816c0,0,4.622,5.438,2.447,5.982,0,0,4.894,3.535,7.069,2.447s3.807-8.429,4.622-10.332S930.445,462.587,936.971,463.131Z" transform="translate(-686.688 -375.443)"/><path class="n" d="M936.971,463.131s-9.245-4.894-10.876,4.622a38.852,38.852,0,0,1-6.8,16.042s-4.894,1.088-6.8-.816c0,0,4.622,5.438,2.447,5.982,0,0,4.894,3.535,7.069,2.447s3.807-8.429,4.622-10.332S930.445,462.587,936.971,463.131Z" transform="translate(-686.688 -375.443)"/><path class="k" d="M983.5,435.468s5.71,6.526,5.982,11.964,6.526-5.71,7.069-5.982-5.438-9.516-5.982-12.507S983.5,435.468,983.5,435.468Z" transform="translate(-738.383 -351.043)"/><path class="k" d="M906.353,320.75l-3.6,3.263,1.7,6.865,4.622-4.35-.544-4.35Z" transform="translate(-657.293 -233.538)"/><path class="k" d="M622.754,498.5H616.5l2.447,5.982,5.982-1.631Z" transform="translate(-448.874 -362.958)"/><path class="n" d="M651.048,639.33s-6.477,4.511-12.01,3.108-7.037-.878-7.681.933c-.6,1.667,15.455,10.482,18.013,11.874a.294.294,0,0,0,.427-.19c.174-.74.6-2.325,1.047-2.447.587-.158,3.263-5.166,3.116-7.135S651.048,639.33,651.048,639.33Z" transform="translate(-481.975 -504.65)"/><path class="o" d="M650.048,639.33s-6.477,4.511-12.01,3.108-7.037-.878-7.681.933c-.6,1.667,15.455,10.482,18.013,11.874a.294.294,0,0,0,.427-.19c.174-.74.6-2.325,1.047-2.447.587-.158,3.263-5.166,3.116-7.135S650.048,639.33,650.048,639.33Z" transform="translate(-481.247 -504.65)"/><path class="m" d="M761.889,592.947,743.672,590.5s-29.637,14.139-33.172,14.411l.816,6.254h5.438c2.175,0,23.383-4.622,26.374-9.245a7.281,7.281,0,0,1,5.166.544c2.719,1.359,28.821,9.788,28.821,9.788Z" transform="translate(-539.611 -469.097)"/><path class="n" d="M761.889,592.947,743.672,590.5s-29.637,14.139-33.172,14.411l.816,6.254h5.438c2.175,0,23.383-4.622,26.374-9.245a7.281,7.281,0,0,1,5.166.544c2.719,1.359,28.821,9.788,28.821,9.788Z" transform="translate(-539.611 -469.097)"/><path class="k" d="M690.491,486.5l-2.991,3.807,2.991,1.631,4.35-3.263Z" transform="translate(-500.569 -354.221)"/><path class="m" d="M829.52,554.276s-9.788-8.38-10.465-9.9-16.724-11.852-17.812-12.124-4.622-2.175-8.157,4.35S776.5,558.9,776.5,558.9s4.078,5.71,5.438,5.438,16.586-13.051,17.673-19.3c0,0,1.088-2.447,3.535,1.631s18.217,23.655,21.208,23.383c0,0,11.692,1.9,14.139-2.719S829.52,554.276,829.52,554.276Z" transform="translate(-587.666 -426.348)"/><path class="p" d="M965.424,466.908s-3.4,1.5-3.671,7.749-6.254,16.858-6.254,16.858l.544,12.507s6.526,6.526,7.069,10.6,5.166,6.8,5.166,6.8,5.438-2.719,6.254-6.254,1.359-12.235,2.719-15.5.544-23.655.544-23.655l-4.078-7.069-2.175-2.447-5.71,6.526S962.705,468.811,965.424,466.908Z" transform="translate(-717.996 -378.813)"/><path class="n" d="M955.947,500.94s-.816-9.788,1.631-11.964l4.894-13.867s1.767-6.662,1.5-7.205-6.39,5.3-6.39,5.3L953.5,487.617l1.088,15.226Z" transform="translate(-716.54 -379.809)"/><path class="m" d="M954.947,500.578s-.816-9.788,1.631-11.964l4.894-13.867s1.9-6.8,1.631-7.341-6.526,5.438-6.526,5.438L952.5,487.255l1.088,15.226Z" transform="translate(-715.812 -379.447)"/><path class="k" d="M895.305,545.627s-13.595-4.35-14.411-5.438-9.516-8.157-12.507-3.263,11.148,6.254,11.148,6.254l14.411,8.7Z" transform="translate(-654.267 -428.846)"/><path class="n" d="M732.792,642.473l-4.024-.723s-6.591,8.443-10.025,7.586-6.594,2.839-2.966,4.024c3.276,1.071,17.426,2.569,20.121,2.847a.4.4,0,0,0,.438-.386,8.657,8.657,0,0,1,.625-3.064c.726-1.781,0-5.607-.2-7.069a7.023,7.023,0,0,0-.791-2.447Z" transform="translate(-542.28 -506.412)"/><path class="o" d="M732.559,643.443l-4.024-.723s-6.591,8.442-10.019,7.589-6.594,2.839-2.966,4.024c3.276,1.071,17.426,2.569,20.12,2.847a.4.4,0,0,0,.438-.386,8.657,8.657,0,0,1,.6-3.062c.726-1.781,0-5.607-.2-7.069a7.024,7.024,0,0,0-.791-2.447Z" transform="translate(-542.115 -507.119)"/><ellipse class="n" cx="9" cy="8.5" rx="9" ry="8.5" transform="translate(238 70.402)"/><circle class="k" cx="8.5" cy="8.5" r="8.5" transform="translate(238 70.402)"/><path class="m" d="M987.787,465.5s10.332,3.535,10.332,10.876-5.71,19.033-5.982,28.549-15.226,8.157-15.226,8.157-2.175-32.084,0-34.531S988.875,466.588,987.787,465.5Z" transform="translate(-732.882 -378.084)"/><path class="n" d="M971.517,502.426s-3.807,16.858-12.779,13.867c0,0-4.622,6.8-1.359,9.788,0,0,7.885,1.9,13.051-3.263s8.973-7.069,9.788-13.323,1.359-14.954-1.359-14.139S971.517,502.426,971.517,502.426Z" transform="translate(-718.515 -399.784)"/><path class="m" d="M972.517,501.426s-3.807,16.858-12.779,13.867c0,0-4.622,6.8-1.359,9.788,0,0,7.885,1.9,13.051-3.263s8.973-7.069,9.788-13.323,1.359-14.954-1.359-14.139S972.517,501.426,972.517,501.426Z" transform="translate(-719.243 -399.056)"/><path class="p" d="M797.331,680a.249.249,0,0,1-.024.076,7.958,7.958,0,0,0-.427,1.438c.065-.212.141-.43.228-.647A3.945,3.945,0,0,0,797.331,680Z" transform="translate(-602.505 -534.262)"/><path class="p" d="M715.746,678.207c-1.12-.367-1.591-.971-1.61-1.607-.462.886-.171,1.882,1.411,2.4,3.276,1.071,17.429,2.569,20.12,2.847a.4.4,0,0,0,.438-.389h0a.4.4,0,0,0-.356-.405C732.8,680.736,718.979,679.262,715.746,678.207Z" transform="translate(-542.114 -531.787)"/><path class="p" d="M630.754,650.886a3.351,3.351,0,0,1,.272-.576,2.651,2.651,0,0,0-.639,1.055c-.6,1.667,15.455,10.482,18.013,11.874a.294.294,0,0,0,.427-.193h0a.294.294,0,0,0-.144-.326C645.855,661.172,630.167,652.534,630.754,650.886Z" transform="translate(-481.269 -512.645)"/><path class="p" d="M702.319,686.017c-.144.038-.285.231-.419.495l.044-.016c.12-.033.324-.272.571-.625a.527.527,0,0,1-.2.147Z" transform="translate(-533.35 -538.536)"/><path class="n" d="M960.079,409.531c-.767,1.691-.927,3.6-1.49,5.37a11.808,11.808,0,0,1-7.279,7.548c2.825,1.126,6.159-.25,8.342-2.534s3.464-5.324,4.69-8.282c3.17,2.132,2.784,7.031,3.85,10.846a12.029,12.029,0,0,0,6.4,7.654,11.466,11.466,0,0,0,9.807-.2c-2.907-3.535-7.045-8.41-6.553-13.13.4-3.823-2.344-6.743-2.156-10.58.272-5.438-1.811-8.2-5.71-11.692-2.279-2.042,1.308-4.921-1.631-4.078-1.156.332-2.374-.905-3.507-.5-2.246.816-4.7.5-7.01,1.044C945.823,393.823,961.2,407.062,960.079,409.531Z" transform="translate(-714.945 -323.021)"/><path class="q" d="M961.079,408.308c-.767,1.691-.927,3.6-1.49,5.37a11.808,11.808,0,0,1-7.279,7.548c2.825,1.126,6.158-.25,8.342-2.534s3.464-5.324,4.69-8.282c3.17,2.132,2.784,7.031,3.85,10.846a12.029,12.029,0,0,0,6.4,7.654,11.466,11.466,0,0,0,9.807-.2c-2.907-3.535-6.773-7.594-6.281-12.314.4-3.823-.2-7.752,0-11.586a18.294,18.294,0,0,0-6.3-14.182,8.61,8.61,0,0,0-6.974-1.9c-2.246.816-4.7.5-7.01,1.044C946.823,392.6,962.2,405.839,961.079,408.308Z" transform="translate(-715.673 -322.07)"/></g></svg>