<svg xmlns="http://www.w3.org/2000/svg" xmlns:xlink="http://www.w3.org/1999/xlink" width="164.362" height="185.675" viewBox="0 0 164.362 185.675"><defs><style>.a{opacity:0.2;}.b{fill:#3f3d56;}.c{fill:#00d857;}.d,.r{opacity:0.1;}.e{fill:url(#a);}.f{opacity:0.9;}.g{fill:#e5e7eb;}.h{fill:#fff;}.i{fill:#ececf3;}.j{opacity:0.4;}.k{fill:#d6d8e0;}.l{fill:url(#b);}.m{opacity:0.5;}.n{fill:url(#c);}.o{fill:#a0616a;}.p{fill:#2d293d;}.q{fill:#f86d70;}</style><linearGradient id="a" x1="0.5" y1="1" x2="0.5" gradientUnits="objectBoundingBox"><stop offset="0" stop-color="gray" stop-opacity="0.251"/><stop offset="0.54" stop-color="gray" stop-opacity="0.122"/><stop offset="1" stop-color="gray" stop-opacity="0.102"/></linearGradient><linearGradient id="b" x1="0.5" y1="1" x2="0.5" y2="0" xlink:href="#a"/><linearGradient id="c" x1="-0.001" y1="0.5" x2="1" y2="0.5" xlink:href="#a"/></defs><g transform="translate(-0.093 -0.05)"><g class="a" transform="translate(116.5 96.514)"><path class="b" d="M747.3,750.067a5.627,5.627,0,0,1-.51.786q-2.541-1.787-5.169-3.508l.114-.225a4.964,4.964,0,0,1,1.758-1.915,2.936,2.936,0,0,1,2.954-.242,2.969,2.969,0,0,1,1.45,2.579A4.98,4.98,0,0,1,747.3,750.067Z" transform="translate(-741.62 -677.066)"/><ellipse class="b" cx="4.122" cy="3.148" rx="4.122" ry="3.148" transform="translate(0.544 69.27) rotate(-62.09)"/><ellipse class="b" cx="4.122" cy="3.148" rx="4.122" ry="3.148" transform="translate(2.903 64.819) rotate(-62.09)"/><ellipse class="b" cx="4.122" cy="3.148" rx="4.122" ry="3.148" transform="translate(5.261 60.367) rotate(-62.09)"/><ellipse class="b" cx="4.122" cy="3.148" rx="4.122" ry="3.148" transform="translate(7.617 55.918) rotate(-62.09)"/><path class="c" d="M760.8,482.79a14.914,14.914,0,0,1-.242-2.074l7.958,2.679-7.937-4.129a15.1,15.1,0,0,1,5.338-10.692l7.69,11.12-5.971-12.368a15.078,15.078,0,1,1,14.108,26.565,15.093,15.093,0,0,1,.242,3.237l-12.087-.1,11.913,1.963a15.077,15.077,0,0,1-8.773,11.362A15.078,15.078,0,1,1,752.1,499.263a15.083,15.083,0,0,1,8.727-16.475Z" transform="translate(-742.764 -465.029)"/><path class="d" d="M780.178,608.119a15.022,15.022,0,0,1-7.214,6.728,15.078,15.078,0,1,1-20.947-11.094C751.432,600.54,780.971,606.623,780.178,608.119Z" transform="translate(-742.703 -569.517)"/></g><g class="a" transform="translate(0.093 0.345)"><path class="b" d="M476.066,658.518a10.456,10.456,0,0,0,.578,1.7q5.587-2.139,11.3-4.11c-.034-.155-.068-.314-.106-.483a9.556,9.556,0,0,0-2.376-4.4,5.266,5.266,0,0,0-9.317,2.265A9.561,9.561,0,0,0,476.066,658.518Z" transform="translate(-423.629 -508.527)"/><ellipse class="b" cx="6.061" cy="7.932" rx="6.061" ry="7.932" transform="translate(48.264 132.852) rotate(-13.72)"/><ellipse class="b" cx="6.061" cy="7.932" rx="6.061" ry="7.932" transform="translate(45.962 123.433) rotate(-13.72)"/><ellipse class="b" cx="6.061" cy="7.932" rx="6.061" ry="7.932" transform="translate(43.663 114.013) rotate(-13.72)"/><ellipse class="b" cx="6.061" cy="7.932" rx="6.061" ry="7.932" transform="translate(41.364 104.597) rotate(-13.72)"/><path class="c" d="M315.522,108.265a28.694,28.694,0,0,0,1.4-3.762l-16.088,1.235,16.767-3.967a29.087,29.087,0,0,0-4.915-22.482l-19.61,17.13,16.985-20.266a29.026,29.026,0,1,0-38.875,42.922A28.852,28.852,0,0,0,269.23,125l22.625,5.531L268.7,128.571a29.043,29.043,0,0,0,11.009,25.383,29.026,29.026,0,1,0,44.329-10.818,29.029,29.029,0,0,0-8.512-34.872Z" transform="translate(-260.093 -67.221)"/><path class="d" d="M298.636,355.654a28.891,28.891,0,0,0,10.289,15.955,29.026,29.026,0,1,0,44.329-10.818C355.862,355.076,297.862,352.49,298.636,355.654Z" transform="translate(-289.313 -284.891)"/></g><path class="e" d="M534.464,106.676h-.539V77.6A11.7,11.7,0,0,0,522.138,66H456.11a11.7,11.7,0,0,0-11.788,11.6V89.655h-.157a.689.689,0,0,0-.694.682v5.8a.689.689,0,0,0,.694.682h.169v5.925h-.213a.687.687,0,0,0-.691.682v11.094a.689.689,0,0,0,.691.684h.213v4.351h-.184a.687.687,0,0,0-.694.682v11.2a.687.687,0,0,0,.694.682h.184V233.747a11.7,11.7,0,0,0,11.788,11.6h66.014a11.7,11.7,0,0,0,11.788-11.6V128.419h.542a.689.689,0,0,0,.694-.682V107.358A.689.689,0,0,0,534.464,106.676Z" transform="translate(-399.016 -65.95)"/><g class="f" transform="translate(45.72 1.259)"><rect class="g" width="2.604" height="21.472" rx="1.302" transform="translate(86.63 40.181)"/><rect class="g" width="1.463" height="7.069" rx="0.731" transform="translate(0.053 23.36)"/><rect class="g" width="1.649" height="12.302" rx="0.824" transform="translate(0 36.301)"/><rect class="g" width="1.569" height="12.409" rx="0.784" transform="translate(0.027 52.909)"/><rect class="h" width="87.154" height="177.13" rx="38.99" transform="translate(0.88)"/><rect class="g" width="12.172" height="2.471" rx="1.235" transform="translate(36.052 5.289)"/><circle class="g" cx="1.402" cy="1.402" r="1.402" transform="translate(50.061 5.123)"/></g><path class="i" d="M544.208,90.09h-9.977V91.3a5.7,5.7,0,0,1-5.7,5.7H496.722a5.7,5.7,0,0,1-5.7-5.7V90.09h-9.36a6.921,6.921,0,0,0-6.921,6.921v154.06a6.921,6.921,0,0,0,6.921,6.921h62.547a6.921,6.921,0,0,0,6.921-6.921V97.011A6.921,6.921,0,0,0,544.208,90.09Z" transform="translate(-422.757 -84.216)"/><ellipse class="c" cx="13.825" cy="2.338" rx="13.825" ry="2.338" transform="translate(7.34 179.868)"/><path class="c" d="M330.775,783.667a4.047,4.047,0,0,0,1.318-1.99,1.772,1.772,0,0,0-.921-2.026,2.584,2.584,0,0,0-2.434.853,3.256,3.256,0,0,1-2.369,1.143,3.6,3.6,0,0,0,1.114-3.384,1.4,1.4,0,0,0-.309-.684c-.469-.5-1.32-.288-1.883.109-1.787,1.257-2.287,3.687-2.3,5.874a11.064,11.064,0,0,1-.034-2.417,2.492,2.492,0,0,0-.907-2.142,2.753,2.753,0,0,0-1.388-.324,2.871,2.871,0,0,0-2.246.638,2.234,2.234,0,0,0,.087,2.761,8.684,8.684,0,0,0,2.328,1.864,5.155,5.155,0,0,1,1.661,1.586,1.429,1.429,0,0,1,.123.283h5.036A14.12,14.12,0,0,0,330.775,783.667Z" transform="translate(-303.892 -605.286)"/><g class="j" transform="translate(142.067 163.515)"><ellipse class="c" cx="7.891" cy="1.334" rx="7.891" ry="1.334" transform="translate(0 4.495)"/><path class="c" d="M870.606,745.832a2.306,2.306,0,0,0,.754-1.134,1.013,1.013,0,0,0-.527-1.158,1.487,1.487,0,0,0-1.39.484,1.872,1.872,0,0,1-1.351.653,2.052,2.052,0,0,0,.636-1.934.788.788,0,0,0-.177-.389c-.268-.288-.754-.164-1.073.06a4.023,4.023,0,0,0-1.313,3.353,6.41,6.41,0,0,1-.017-1.38,1.431,1.431,0,0,0-.52-1.223,1.576,1.576,0,0,0-.791-.184,1.647,1.647,0,0,0-1.284.363,1.277,1.277,0,0,0,.051,1.576,4.93,4.93,0,0,0,1.33,1.064,2.972,2.972,0,0,1,.948.9.821.821,0,0,1,.07.162h2.877A7.976,7.976,0,0,0,870.606,745.832Z" transform="translate(-859.454 -742.185)"/></g><g class="j" transform="translate(21.214 148.519)"><ellipse class="c" cx="7.891" cy="1.334" rx="7.891" ry="1.334" transform="translate(0 4.496)"/><path class="c" d="M370.7,683.8a2.28,2.28,0,0,0,.752-1.136,1.008,1.008,0,0,0-.527-1.156,1.481,1.481,0,0,0-1.388.484,1.871,1.871,0,0,1-1.351.653,2.065,2.065,0,0,0,.636-1.934.817.817,0,0,0-.176-.392c-.268-.285-.754-.162-1.076.063a4.01,4.01,0,0,0-1.31,3.351,6.262,6.262,0,0,1-.019-1.38,1.385,1.385,0,0,0-.517-1.209,1.561,1.561,0,0,0-.793-.186,1.633,1.633,0,0,0-1.281.365,1.277,1.277,0,0,0,.051,1.576,5,5,0,0,0,1.327,1.064,2.923,2.923,0,0,1,.948.9.992.992,0,0,1,.073.162h2.874A8.05,8.05,0,0,0,370.7,683.8Z" transform="translate(-359.542 -680.153)"/></g><rect class="k" width="12.351" height="12.351" transform="translate(57.843 18.664)"/><rect class="k" width="25.876" height="2.352" transform="translate(79.308 19.547)"/><rect class="k" width="42.637" height="2.352" transform="translate(79.308 23.664)"/><rect class="k" width="42.637" height="2.352" transform="translate(79.308 27.781)"/><rect class="k" width="12.351" height="12.351" transform="translate(57.937 41.306)"/><rect class="k" width="25.876" height="2.352" transform="translate(79.402 42.189)"/><rect class="k" width="42.637" height="2.352" transform="translate(79.402 46.306)"/><rect class="k" width="42.637" height="2.352" transform="translate(79.402 50.42)"/><rect class="k" width="12.351" height="12.351" transform="translate(58.032 63.948)"/><rect class="k" width="25.876" height="2.352" transform="translate(79.499 64.828)"/><rect class="k" width="42.637" height="2.352" transform="translate(79.499 68.945)"/><rect class="k" width="42.637" height="2.352" transform="translate(79.499 73.062)"/><rect class="k" width="12.351" height="12.351" transform="translate(58.126 86.588)"/><rect class="k" width="25.876" height="2.352" transform="translate(79.593 87.47)"/><rect class="k" width="42.637" height="2.352" transform="translate(79.593 91.587)"/><rect class="k" width="42.637" height="2.352" transform="translate(79.593 95.704)"/><rect class="k" width="12.351" height="12.351" transform="translate(58.223 109.23)"/><rect class="k" width="25.876" height="2.352" transform="translate(79.687 110.112)"/><rect class="k" width="42.637" height="2.352" transform="translate(79.687 114.229)"/><rect class="k" width="42.637" height="2.352" transform="translate(79.687 118.346)"/><rect class="k" width="12.351" height="12.351" transform="translate(58.317 131.872)"/><rect class="k" width="25.876" height="2.352" transform="translate(79.782 132.754)"/><rect class="k" width="42.637" height="2.352" transform="translate(79.782 136.871)"/><rect class="k" width="42.637" height="2.352" transform="translate(79.782 140.988)"/><rect class="k" width="12.351" height="12.351" transform="translate(58.411 154.514)"/><rect class="k" width="25.876" height="2.352" transform="translate(79.876 155.396)"/><rect class="k" width="42.637" height="2.352" transform="translate(79.876 159.513)"/><rect class="k" width="42.637" height="2.352" transform="translate(79.876 163.63)"/><rect class="l" width="105.268" height="26.169" transform="translate(37.544 55.905)"/><rect class="h" width="104.386" height="24.994" transform="translate(38.131 56.495)"/><rect class="c" width="12.351" height="12.351" transform="translate(58.273 62.817)"/><g class="m" transform="translate(79.74 63.699)"><rect class="c" width="25.876" height="2.352"/><rect class="c" width="42.637" height="2.352" transform="translate(0 4.117)"/><rect class="c" width="42.637" height="2.352" transform="translate(0 8.234)"/></g><path class="n" d="M454.079,386.323a2.151,2.151,0,0,0-2.541-.387,3.731,3.731,0,0,0-1.262,1.709,13.235,13.235,0,0,0-1.318,2.915c-.558,2.879-2.85,5.115-3.769,7.9a15.688,15.688,0,0,1-1,2.966,9.445,9.445,0,0,1-.822,1.131,31.862,31.862,0,0,0-3.143,4.794,3.857,3.857,0,0,0-1.431.89,4.939,4.939,0,0,1-1.934.916,1.824,1.824,0,0,0-.793.29c-.334.278-.38.778-.65,1.114a1.736,1.736,0,0,1-.725.483c0-.085-.012-.169-.015-.256-.012-.447-.019-.9-.019-1.347a5.062,5.062,0,0,0-.014-6.571,9.912,9.912,0,0,1,.278-2.077.922.922,0,0,0-.2-.952c-.133-.1-.3-.143-.447-.242a1.949,1.949,0,0,1-.483-.614,2.611,2.611,0,0,0-3.283-.839c-.873.459-1.4,1.378-2.176,2-.4.319-.853.558-1.25.88a5.19,5.19,0,0,0-1.617,2.63,15.066,15.066,0,0,0-.44,3.1,2.8,2.8,0,0,0,.036.943,2.491,2.491,0,0,0,.355.725,8.128,8.128,0,0,0,3,2.865,1.17,1.17,0,0,1,0,.186,1.337,1.337,0,0,1-.053.288l-.14-.039a5.549,5.549,0,0,1-1.54-.36c-.793-.445-1.032-1.53-1.791-2.028a1.368,1.368,0,0,0-.2-.109,13.567,13.567,0,0,0-.778-4.03,5.023,5.023,0,0,1-.462-1.91,4.694,4.694,0,0,1,.583-1.728,43.939,43.939,0,0,0,2.176-5.954q.6-1.9,1.209-3.807a6,6,0,0,0,1.061-1.01,5.388,5.388,0,0,0,1.23-2.642,3.742,3.742,0,0,0-.679-2.795,1.615,1.615,0,0,0-1.136-.7,1.477,1.477,0,0,0-1.061.483,4.719,4.719,0,0,0-.909,1.562,6.97,6.97,0,0,0-.759,2.923c.031.841.346,1.782-.145,2.466a58.987,58.987,0,0,0-4.1,7.269,13,13,0,0,0-.827,1.823,10.152,10.152,0,0,0-.433,3.143,42.137,42.137,0,0,0,.532,5.957,7.654,7.654,0,0,0,.7,2.611,10.952,10.952,0,0,0-.433,2.94,1.676,1.676,0,0,0,.106.674,2.786,2.786,0,0,0,.534.672,3.01,3.01,0,0,1,.725,2.379,6.748,6.748,0,0,0,.215,2.384c.484,2.147.967,4.291,1.354,6.455a4.128,4.128,0,0,1,.092,1.228,7.245,7.245,0,0,0-.329,1.728,6.539,6.539,0,0,1,.155.827,2.043,2.043,0,0,1-.145.619c-.551,1.6-2.033,5.277-2.016,6.974l.387-.092c-.389,2.2-1.3,4.308-1.779,6.5a21.756,21.756,0,0,0-.45,4.864,18.036,18.036,0,0,1-.039,2.2c-.075.65-.242,1.286-.334,1.934a17.526,17.526,0,0,0-.116,2.618,26.737,26.737,0,0,0,.242,4.11c.37,2.321-.278,4.627-.454,6.97a41.882,41.882,0,0,1-.556,4.888c-.133.682-.3,1.359-.392,2.048-.271,2.045.123,4.153-.3,6.172-.2.945-.558,2.007-.031,2.814.167.254.406.452.587.7a.885.885,0,0,1,.169.853c-.1.222-.346.367-.406.6-.1.372.293.677.641.836l.1.039a.9.9,0,0,0,.189.725,1.538,1.538,0,0,0,.742.387l4.564,1.383a6.089,6.089,0,0,0,3.143.363.791.791,0,0,0,.181.392,1.538,1.538,0,0,0,.742.387l4.53,1.373a5.29,5.29,0,0,0,3.563.222,2.024,2.024,0,0,0,.817-.616,2.156,2.156,0,0,0,.29-1.806,1.472,1.472,0,0,0-.44-.807,1.933,1.933,0,0,0-1.054-.346,2.129,2.129,0,0,1-.923-.242.664.664,0,0,1-.21-.22q.392-.387.759-.8c-.2-.068-.268-.353-.288-.561-.288-3.08.873-6.09,1.313-9.15a19.579,19.579,0,0,0,.116-4.637c-.053-.583-.133-1.163-.157-1.748-.114-3.046,1.342-5.976,1.291-9.024-.024-1.426.725-2.833,1.09-4.214a15.253,15.253,0,0,0,.336-3.771l.058-9.974a12.481,12.481,0,0,0-.43-4,5.076,5.076,0,0,1-.174-2.19c1.23-.544,2.4-1.349,3.711-1.209.35-.931-.065-4.032-.394-4.973a21.385,21.385,0,0,1-.725-11.517c.3-1.376-.111-2.838.22-4.209a2.545,2.545,0,0,1,.36-.9.967.967,0,0,1,.829-.438c0-.839-.017-1.692-.073-2.543a6.043,6.043,0,0,0,1.346-1.55,23.889,23.889,0,0,0,1.639-3.885c.887-2.321,2.1-4.5,3.116-6.769s1.117-4.753,1.934-7.1a5.338,5.338,0,0,1,2.6-2.993,4.146,4.146,0,0,0,1.349-.812,2.176,2.176,0,0,0,.469-1.153,3.049,3.049,0,0,0-.778-2.572ZM425.795,486.2c.1-.109.2-.218.288-.336-.3-.048-.677-.271-.684-.58a3.207,3.207,0,0,1,.2-.906,3.626,3.626,0,0,0,.068-1.61c-.068-.375-.193-.725-.271-1.107a10.338,10.338,0,0,1-.145-1.252,20.714,20.714,0,0,0-.88-4.438c-.438-1.4.162-2.816.317-4.274a8.425,8.425,0,0,1,.283-2.055c.143-.387.377-.725.52-1.117a5.112,5.112,0,0,0-.068-2.831c1.431-2.594,1.9-5.688,2.444-8.609l.909-4.915a4.789,4.789,0,0,1,.725-2.074,25.485,25.485,0,0,1,.551,6.609,9.81,9.81,0,0,0,.024,1.934c.111.7.4,1.368.573,2.06a25.108,25.108,0,0,1,.242,4.7c.031.633.114,1.267.14,1.9.118,2.8-.819,5.526-1.745,8.173a30.337,30.337,0,0,0-.967,5.166c-.256,1.627-.51,3.256-.641,4.9-.039.5-.07,1.015-.131,1.523a3.985,3.985,0,0,0-.471-.075,2.13,2.13,0,0,1-.923-.242A1.076,1.076,0,0,1,425.795,486.2Z" transform="translate(-379.023 -307.575)"/><path class="b" d="M466.931,814.39a1.961,1.961,0,0,1,1.054.343,1.468,1.468,0,0,1,.44.8,2.137,2.137,0,0,1-.29,1.8,2.006,2.006,0,0,1-.817.609,5.274,5.274,0,0,1-3.563-.218l-4.564-1.375a1.532,1.532,0,0,1-.742-.384,1.006,1.006,0,0,1-.019-1.172,2.289,2.289,0,0,1,.967-.771,10.867,10.867,0,0,1,4.593-.88c.58-.012,1.151-.138,1.545.309.208.242.172.5.484.7A2.1,2.1,0,0,0,466.931,814.39Z" transform="translate(-410.253 -632.453)"/><path class="b" d="M431.261,804.009a1.933,1.933,0,0,1,1.054.341,1.491,1.491,0,0,1,.44.8,2.134,2.134,0,0,1-.29,1.8,2.012,2.012,0,0,1-.817.612,5.275,5.275,0,0,1-3.563-.22l-4.564-1.376a1.512,1.512,0,0,1-.742-.384,1.006,1.006,0,0,1-.019-1.172,2.275,2.275,0,0,1,.967-.771,10.842,10.842,0,0,1,4.581-.88c.578,0,1.151-.138,1.545.309.208.242.172.5.483.7A2.129,2.129,0,0,0,431.261,804.009Z" transform="translate(-383.206 -624.584)"/><path class="b" d="M430.967,600.411a56.2,56.2,0,0,0-8.094-.227,1.587,1.587,0,0,0-.525.082c-.595.242-.687,1.02-.745,1.658-.227,2.579-1.366,4.985-1.934,7.516a21.457,21.457,0,0,0-.45,4.835,17.776,17.776,0,0,1-.039,2.176c-.075.648-.242,1.279-.334,1.934a17.293,17.293,0,0,0-.116,2.6,26.392,26.392,0,0,0,.242,4.078c.37,2.306-.278,4.593-.454,6.924a41.429,41.429,0,0,1-.556,4.857c-.133.677-.3,1.349-.392,2.033-.271,2.033.123,4.129-.3,6.133-.2.938-.558,1.992-.031,2.795.167.254.406.45.587.691a.878.878,0,0,1,.169.848c-.1.22-.346.365-.406.6-.1.37.292.674.641.832A6.679,6.679,0,0,0,426,648.854c-.3-.048-.677-.268-.684-.575a3.173,3.173,0,0,1,.2-.9,3.577,3.577,0,0,0,.068-1.6c-.068-.37-.193-.725-.271-1.1a10.182,10.182,0,0,1-.145-1.242,20.46,20.46,0,0,0-.88-4.409c-.438-1.39.162-2.8.317-4.247a8.324,8.324,0,0,1,.283-2.04c.143-.384.377-.725.52-1.11a5.043,5.043,0,0,0-.068-2.811c1.431-2.579,1.9-5.652,2.444-8.553l.909-4.883a4.717,4.717,0,0,1,.725-2.06,25.163,25.163,0,0,1,.551,6.568A9.672,9.672,0,0,0,430,621.8c.111.7.4,1.359.573,2.048a24.76,24.76,0,0,1,.242,4.666c.031.629.114,1.257.14,1.888.118,2.782-.82,5.49-1.745,8.118a29.99,29.99,0,0,0-.967,5.132c-.256,1.617-.51,3.235-.641,4.866-.118,1.5-.169,3.121-1.1,4.3a7.908,7.908,0,0,0,2.729,1.308,5.062,5.062,0,0,0,3.367-.65,10.637,10.637,0,0,0,2.659-2.263c-.2-.068-.268-.353-.288-.558-.288-3.058.873-6.044,1.313-9.09a19.334,19.334,0,0,0,.116-4.608c-.053-.578-.133-1.153-.157-1.733-.114-3.027,1.342-5.94,1.291-8.966-.024-1.417.725-2.816,1.09-4.187a15.02,15.02,0,0,0,.336-3.745l.058-9.912a12.331,12.331,0,0,0-.43-3.979c-.532-1.521.075-3.271.167-4.878A20.117,20.117,0,0,1,430.967,600.411Z" transform="translate(-378.948 -470.516)"/><path class="o" d="M510.034,414.388a31.611,31.611,0,0,1,3.7-5.845,9.535,9.535,0,0,0,.822-1.122,15.508,15.508,0,0,0,1-2.947c.919-2.766,3.21-4.987,3.769-7.847a13.282,13.282,0,0,1,1.318-2.9,3.659,3.659,0,0,1,1.262-1.692,2.151,2.151,0,0,1,2.541.387,3.012,3.012,0,0,1,.776,2.55,2.13,2.13,0,0,1-.469,1.146,4.2,4.2,0,0,1-1.349.81,5.294,5.294,0,0,0-2.6,2.971c-.807,2.335-.909,4.806-1.934,7.057s-2.229,4.414-3.116,6.718a23.158,23.158,0,0,1-1.639,3.868,4.761,4.761,0,0,1-3.278,2.4,8.236,8.236,0,0,0-.406-2.572C510.142,416.411,509.594,415.277,510.034,414.388Z" transform="translate(-449.393 -312.969)"/><path class="o" d="M432.844,413.012a13.4,13.4,0,0,0-.783-5.023,4.974,4.974,0,0,1-.462-1.9,4.636,4.636,0,0,1,.583-1.716,43.469,43.469,0,0,0,2.176-5.918l1.209-3.781a6.044,6.044,0,0,0,1.061-1,5.352,5.352,0,0,0,1.23-2.625,3.7,3.7,0,0,0-.679-2.778,1.605,1.605,0,0,0-1.136-.689,1.463,1.463,0,0,0-1.061.483,4.676,4.676,0,0,0-.909,1.552,6.886,6.886,0,0,0-.759,2.9c.031.836.346,1.77-.145,2.449a58.561,58.561,0,0,0-4.1,7.221,12.862,12.862,0,0,0-.827,1.811,10.036,10.036,0,0,0-.433,3.128,41.6,41.6,0,0,0,.532,5.918,5.288,5.288,0,0,0,1.327,3.384A19.79,19.79,0,0,1,432.844,413.012Z" transform="translate(-387.173 -309.789)"/><circle class="o" cx="5.016" cy="5.016" r="5.016" transform="translate(46.807 94.135)"/><path class="o" d="M456.819,487.679a6.693,6.693,0,0,1-1.081,2.5c-.288.483-.65,1-1.209,1.052a24.174,24.174,0,0,0,4.555,1.832,5.179,5.179,0,0,0,1.666.268,4.068,4.068,0,0,0,1.385-.355,6.878,6.878,0,0,0,3.9-4.593,9.055,9.055,0,0,1-1.861-.143,1.374,1.374,0,0,1-.914-.447,1.472,1.472,0,0,1-.189-.81q-.036-1.255,0-2.509a9.912,9.912,0,0,0-3.646.447c-.483.157-.967.348-1.463.471-.3.075-1.143,0-1.368.176C456.256,485.839,456.909,487.063,456.819,487.679Z" transform="translate(-407.433 -383.245)"/><path class="c" d="M441.3,487.871a3.155,3.155,0,0,0-2.4-2.8,5.544,5.544,0,0,1-1.54-.358c-.793-.442-1.032-1.521-1.791-2.016a2.118,2.118,0,0,0-2.5.409,5.4,5.4,0,0,0-1.269,2.388,12.026,12.026,0,0,0-.65,3.662,1.663,1.663,0,0,0,.106.672,2.819,2.819,0,0,0,.534.67,2.969,2.969,0,0,1,.725,2.359,6.68,6.68,0,0,0,.215,2.372c.483,2.13.967,4.262,1.354,6.411a4.081,4.081,0,0,1,.092,1.209,7.151,7.151,0,0,0-.329,1.714,6.5,6.5,0,0,1,.155.824,2,2,0,0,1-.145.612c-.551,1.6-2.033,5.246-2.016,6.931a41.935,41.935,0,0,1,9.027-.817,18.965,18.965,0,0,1,2.193.1c1.748.186,3.537.7,5.231.225,1.571-.437,2.966-1.692,4.593-1.533.35-.926-.065-4.008-.394-4.941a21.114,21.114,0,0,1-.725-11.442c.3-1.368-.111-2.819.22-4.18a2.5,2.5,0,0,1,.36-.9.967.967,0,0,1,.829-.435,30.8,30.8,0,0,0-.6-6.51c-.162-.761-.5-1.661-1.264-1.791-.691-.116-1.274.467-1.828.9a4.994,4.994,0,0,1-1.934.909,1.821,1.821,0,0,0-.793.288c-.334.276-.38.774-.65,1.11-.483.6-1.564.549-1.907,1.243a4.348,4.348,0,0,0-.184.636,2.326,2.326,0,0,1-.8,1.027A4.487,4.487,0,0,1,441.3,487.871Z" transform="translate(-389.698 -380.389)"/><path class="p" d="M459.822,444.789a.917.917,0,0,0-.2-.948c-.133-.1-.3-.143-.447-.242a1.934,1.934,0,0,1-.483-.612,2.625,2.625,0,0,0-3.29-.829c-.873.457-1.4,1.371-2.176,1.99-.4.319-.853.556-1.25.873a5.159,5.159,0,0,0-1.617,2.616,14.884,14.884,0,0,0-.438,3.087,2.773,2.773,0,0,0,.036.938,2.463,2.463,0,0,0,.355.713,8.043,8.043,0,0,0,3.167,2.93,4.912,4.912,0,0,0,4.221.075.752.752,0,0,0,.324-.261.909.909,0,0,0,.048-.558,3.832,3.832,0,0,1,.423-2.137c.242-.483.6-.9.8-1.4a4.98,4.98,0,0,0,.227-1.736A18.6,18.6,0,0,1,459.822,444.789Z" transform="translate(-403.923 -350.971)"/><rect class="c" width="12.351" height="12.351" transform="translate(58.223 62.964)"/><path class="o" d="M521.926,360.439a1.622,1.622,0,0,1-.836.759,2.077,2.077,0,0,1-.665.126,1.878,1.878,0,0,1-.725-.09,1.666,1.666,0,0,1-.766-.612,3.865,3.865,0,0,1-.445-.89.987.987,0,0,1-.089-.5.725.725,0,0,0,.483-.273.611.611,0,0,0,.012-.484c-.014-.048-.029-.094-.046-.138-.036-.106-.162-.307-.075-.4s.29-.087.37-.123a3.494,3.494,0,0,1,.752-.336,1.828,1.828,0,0,1,.713.046.244.244,0,0,1,.089.034.209.209,0,0,1,.065.1c.068.164.107.346.16.515a1.062,1.062,0,0,0,.266.471,1.335,1.335,0,0,0,.37.222l.324.147a.461.461,0,0,1,.152.1.4.4,0,0,1,.072.2A1.854,1.854,0,0,1,521.926,360.439Z" transform="translate(-455.858 -286.954)"/><path class="d" d="M522,358.2a1.68,1.68,0,0,1-2.028.3c-.015-.048-.029-.094-.046-.138-.036-.106-.162-.307-.075-.4s.29-.087.37-.123a3.49,3.49,0,0,1,.752-.336,1.828,1.828,0,0,1,.713.046.24.24,0,0,1,.089.034.208.208,0,0,1,.065.1C521.913,357.858,521.951,358.032,522,358.2Z" transform="translate(-456.943 -286.976)"/><circle class="o" cx="1.678" cy="1.678" r="1.678" transform="translate(62.175 68.312)"/><path class="q" d="M517.919,366.673h-7.9c-.242-.539-.459-1.081-.7-1.62h0a1.125,1.125,0,0,1,.143-.363.394.394,0,0,1,.324-.181c.07,0,.15.027.2-.024s.034-.092.07-.126a.3.3,0,0,1,.191-.029.438.438,0,0,0,.372-.186.6.6,0,0,1,.094-.123.539.539,0,0,1,.2-.053c.2-.043.312-.242.459-.365a.276.276,0,0,1,.29-.08.178.178,0,0,1,.06.051.548.548,0,0,1,.08.2,1.793,1.793,0,0,0,.631,1.018,1.431,1.431,0,0,0,2.161-.539,2.814,2.814,0,0,0,.2-.916V363.3a.691.691,0,0,1,.575.114,3.243,3.243,0,0,0,.513.322c.215.085.484.085.631.242.063.063.106.15.186.189a.556.556,0,0,0,.155.036.917.917,0,0,1,.607.532,4.138,4.138,0,0,1,.338,1.223Z" transform="translate(-448.977 -291.361)"/><path class="b" d="M514.994,343.073a1.27,1.27,0,0,0-.293.338,1.665,1.665,0,0,1-.585.575.726.726,0,0,0-.268.167.447.447,0,0,0-.07.189,3.535,3.535,0,0,0-.075.713.762.762,0,0,0,.058.353c.048.1.14.189.157.3a.876.876,0,0,1-.029.261.227.227,0,0,0,.089.242.611.611,0,0,0,.135.031c.242.053.324.338.36.573.082,0,.118-.1.138-.176l.242-1.124c.029-.121.073-.264.2-.3a.613.613,0,0,1,.256,0c.334.029.614-.23.94-.3a1.283,1.283,0,0,1,.319-.019c.256,0,.556.118.612.358a.12.12,0,0,0,.051.106.2.2,0,0,0,.114,0c.162-.017.259.167.307.317l.169.549c.027.082.07.181.16.191a.169.169,0,0,0,.167-.147.669.669,0,0,0-.034-.242,2.616,2.616,0,0,1,.119-1.085,1.189,1.189,0,0,0-.164-1.052c-.092-.1-.213-.174-.3-.28s-.123-.22-.206-.319a2.11,2.11,0,0,0-1.172-.512A2.4,2.4,0,0,0,514.994,343.073Z" transform="translate(-452.299 -275.805)"/><g class="r" transform="translate(61.404 68.59)"><path d="M518.586,351.984c-.089,0-.133-.109-.16-.191l-.169-.549c-.048-.15-.145-.334-.307-.319a.2.2,0,0,1-.114,0c-.036-.019-.041-.065-.051-.106-.056-.242-.355-.346-.612-.358a1.175,1.175,0,0,0-.319.022c-.326.07-.607.329-.94.3a.706.706,0,0,0-.256,0c-.123.043-.167.184-.2.307-.085.375-.167.749-.242,1.122-.019.077-.056.172-.138.176-.036-.242-.118-.52-.36-.573a.5.5,0,0,1-.135-.031.152.152,0,0,1-.07-.08.789.789,0,0,1-.019.1.227.227,0,0,0,.089.242.617.617,0,0,0,.135.031c.242.053.324.339.36.573.082,0,.118-.1.138-.176.085-.375.167-.749.242-1.124.029-.121.073-.263.2-.3a.612.612,0,0,1,.256,0c.334.029.614-.23.94-.3a1.28,1.28,0,0,1,.319-.019c.256,0,.556.118.612.358a.121.121,0,0,0,.051.106.2.2,0,0,0,.114,0c.162-.017.259.167.307.317l.169.549c.027.082.07.181.16.191a.169.169,0,0,0,.167-.147.483.483,0,0,0-.024-.193A.15.15,0,0,1,518.586,351.984Z" transform="translate(-514.302 -350.232)"/><path d="M513.926,352.267c-.017-.111-.109-.2-.157-.3a.613.613,0,0,1-.056-.218v.121a.762.762,0,0,0,.058.353c.039.082.106.155.14.242A.54.54,0,0,0,513.926,352.267Z" transform="translate(-513.711 -351.211)"/><path d="M532.037,349.8a3.143,3.143,0,0,0-.138.967,5.881,5.881,0,0,1,.138-.706,1.852,1.852,0,0,0,.041-.542A2.2,2.2,0,0,1,532.037,349.8Z" transform="translate(-527.502 -349.52)"/></g><path class="q" d="M508.933,371.611H507.05a5.922,5.922,0,0,1,.442-1.47.336.336,0,0,1,.08-.128.116.116,0,0,1,.027-.022c.056-.043.133-.06.193-.1s.068-.085.123-.1a1.671,1.671,0,0,1,.614.1.614.614,0,0,1,.162.041.546.546,0,0,1,.256.314A2.967,2.967,0,0,1,508.933,371.611Z" transform="translate(-447.256 -296.299)"/></g></svg>