<svg xmlns="http://www.w3.org/2000/svg" width="226.633" height="158.231" viewBox="0 0 226.633 158.231"><defs><style>.a{fill:#f2f2f2;}.b{fill:#3f3d56;}.c{fill:#00d857;}.d{fill:#a0616a;}.e{fill:#2f2e41;}.f{fill:#d0cde1;}.g{opacity:0.15;}.h{fill:#fff;}.h,.i{opacity:0.3;}</style></defs><path class="a" d="M482.7,151.17v29.157h55.6" transform="translate(-373.597 -117.005)"/><path class="b" d="M545.663,83.806H481.7V26.17h.452V83.354h63.513Z" transform="translate(-372.823 -20.258)"/><path class="b" d="M583.051,205.092l-.4-.2a18.673,18.673,0,0,1,14.774-10.053c1.069-.094,2.188-.1,3.271-.112,2.993-.025,6.087-.05,8.343-1.88,1.67-1.354,2.478-3.347,3.332-5.456a27.045,27.045,0,0,1,1.466-3.207,13.148,13.148,0,0,1,10.424-6.477c.165-.01.334-.015.5-.017a12.4,12.4,0,0,1,1.2-1.376,29.675,29.675,0,0,1,7.708-4.96l.642-.326c2.87-1.46,5.843-3.1,7.873-5.636a12.464,12.464,0,0,0,1.994-11.642l.427-.149a12.927,12.927,0,0,1-2.067,12.073c-2.086,2.608-5.106,4.274-8.021,5.757l-.643.326a29.337,29.337,0,0,0-7.594,4.878,11.933,11.933,0,0,0-.951,1.062,8.853,8.853,0,0,1,7.2,3.64,6.341,6.341,0,0,1,.742,5.065,4.737,4.737,0,0,1-6.836,3.191,6.541,6.541,0,0,1-3.589-4.165,9.028,9.028,0,0,1,1.594-7.279l-.149.008a12.686,12.686,0,0,0-10.058,6.249,26.693,26.693,0,0,0-1.439,3.154c-.839,2.07-1.706,4.209-3.467,5.637-2.379,1.929-5.554,1.956-8.624,1.981-1.074.009-2.185.018-3.235.11A18.213,18.213,0,0,0,583.051,205.092Zm41.94-26.954a8.706,8.706,0,0,0-1.715,7.176,6.08,6.08,0,0,0,3.339,3.867,4.287,4.287,0,0,0,6.212-2.9,5.964,5.964,0,0,0-.684-4.7A8.579,8.579,0,0,0,624.991,178.137Z" transform="translate(-473.252 -141.478)"/><circle class="c" cx="4.068" cy="4.068" r="4.068" transform="translate(136.224 39.589)"/><path class="b" d="M196.512,460.682H98.651v-46.55h97.861ZM99.1,460.23H196.06V414.584H99.1Z" transform="translate(-98.651 -343.125)"/><rect class="b" width="150.306" height="0.452" transform="translate(72.937 152.601)"/><path class="d" d="M919.157,332.46l-1.859,9.294s-2.39,5.311-1.328,9.028l.8,1.593,5.045-4.514,1.859-12.48Z" transform="translate(-731.026 -279.913)"/><path class="d" d="M776.529,613.14l-2.921,11.152,3.452,1.593,3.186-2.655,1.859-8.5Z" transform="translate(-598.754 -474.559)"/><path class="d" d="M959.817,588.3l1.46,16.065h7.435l-3.585-17.658Z" transform="translate(-742.876 -454.1)"/><path class="e" d="M905.524,393.22l1.5-7.355L889.591,381.8l-3.718,5.842s-6.373,10.09-7.966,40.893-2.124,30.537-2.124,30.537l13.011,1.328,6.638-43.017,16.463,39.3,12.48-3.452L908.71,405.966A18.837,18.837,0,0,0,905.524,393.22Z" transform="translate(-700.133 -318.103)"/><path class="e" d="M853.968,741.237l-1.859,1.859-1.062-1.062.58-3.9-2.97,1.778s-5.311-.8-4.78,4.78c0,0-.8,1.859,3.717,3.983s6.9,3.452,6.9,3.452,4.249-.266,4.249-1.593-1.339-10.343-1.339-10.343Z" transform="translate(-675.397 -593.894)"/><path class="e" d="M1045.464,741.237,1043.6,743.1l-1.062-1.062-1.115-3.9-1.275,1.778s-5.311-.8-4.78,4.78c0,0-.8,1.859,3.717,3.983s6.9,3.452,6.9,3.452,4.249-.266,4.249-1.593-1.339-10.343-1.339-10.343Z" transform="translate(-823.61 -593.894)"/><circle class="d" cx="7.701" cy="7.701" r="7.701" transform="translate(193.176 21.745)"/><path class="d" d="M878.167,145.223l.531,9.028h10.091l-2.921-12.215Z" transform="translate(-679.68 -109.937)"/><path class="f" d="M935.759,277.775l8.232-.531,8.763.531s7.435,3.983,3.452,14.87-6.9,14.339-6.9,14.339l-8.5-3.718h-2.655s-.8-.8-1.062-.8-5.311.8-5.311.8-1.328-5.576.531-6.107,2.921-3.452,2.921-3.452Z" transform="translate(-743.115 -237.177)"/><path class="f" d="M834.82,180.428l-1.593-.8-5.576,13.011,6.107,3.983Z" transform="translate(-640.582 -139.033)"/><path class="e" d="M935.417,185.671s-3.718-9.559,3.632-10.474c0,0,9.266-5.692,15.222,3.836l4.7,11.6-1.57-.312-.2,1.563-2,1.229-1.507-1.557.249,2.384-17.263,7.331s6.508-7.207,4-15.7l-1.019,2.08Z" transform="translate(-745.56 -156.889)"/><path class="c" d="M445.364,726.076a11.472,11.472,0,0,1-4.272,5.779,9.876,9.876,0,0,1,3.5-12.925A11.471,11.471,0,0,1,445.364,726.076Z" transform="translate(-362.865 -579.032)"/><path class="c" d="M423.792,726.076a11.472,11.472,0,0,0,4.273,5.779,9.877,9.877,0,0,0-3.5-12.925A11.471,11.471,0,0,0,423.792,726.076Z" transform="translate(-350.077 -579.032)"/><path class="b" d="M408.395,737.576a11.471,11.471,0,0,1,2.973,6.544,9.877,9.877,0,0,1-9.594-9.339A11.472,11.472,0,0,1,408.395,737.576Z" transform="translate(-333.261 -591.299)"/><path class="b" d="M447.194,737.576a11.471,11.471,0,0,0-2.973,6.544,9.877,9.877,0,0,0,9.594-9.339A11.472,11.472,0,0,0,447.194,737.576Z" transform="translate(-366.114 -591.299)"/><path class="c" d="M219.8,119.151a19.16,19.16,0,0,1,14.019-13.076,19.173,19.173,0,1,0-9.7,31.754A19.16,19.16,0,0,1,219.8,119.151Z" transform="translate(-177.573 -99.976)"/><path class="b" d="M336.818,129.456a19.077,19.077,0,0,0-9.919-.342,19.168,19.168,0,0,1-9.7,31.754,19.172,19.172,0,1,0,19.621-31.412Z" transform="translate(-267.8 -122.144)"/><ellipse class="f" cx="16.602" cy="9.586" rx="16.602" ry="9.586" transform="translate(38.598 35.42) rotate(-73.01)"/><circle class="c" cx="4.068" cy="4.068" r="4.068" transform="translate(167.641 9.302)"/><circle class="c" cx="4.068" cy="4.068" r="4.068" transform="translate(156.566 26.028)"/><rect class="a" width="74.378" height="32.854" transform="translate(1.966 81.549)"/><rect class="c" width="70.818" height="6.284" transform="translate(5.661 79.342)"/><rect class="b" width="61.818" height="1.698" transform="translate(10.161 81.634)"/><circle class="b" cx="2.378" cy="2.378" r="2.378" transform="translate(38.607 80.021)"/><rect class="c" width="37.023" height="17.662" transform="translate(22.474 90.55)"/><circle class="g" cx="3.397" cy="3.397" r="3.397" transform="translate(37.588 95.985)"/><circle class="h" cx="3.397" cy="3.397" r="3.397" transform="translate(49.476 95.985)"/><circle class="i" cx="3.397" cy="3.397" r="3.397" transform="translate(25.7 95.985)"/></svg>