<svg xmlns="http://www.w3.org/2000/svg" width="264.24" height="524.801" viewBox="0 0 264.24 524.801"><defs><style>.a{fill:#f0f0f0;}.b{fill:#294d68;}.c{fill:#97b1b0;}.d{fill:#725ae5;}.e{fill:#2c135d;}.f{fill:#fff;}.g{fill:#ea7180;}.h{fill:#4d3382;}.i{fill:#7743e7;}.j{fill:#a387ff;}.k{fill:#cae6eb;}.l{fill:#37136e;}.m{fill:#00d857;}</style></defs><g transform="translate(0)"><ellipse class="a" cx="128.527" cy="29.497" rx="128.527" ry="29.497" transform="translate(0 465.807)"/><g transform="translate(30.841 0)"><g transform="translate(213.808 56.003)"><g transform="translate(0 0.012)"><rect class="b" width="17.997" height="36.877" rx="1.052" transform="matrix(-1, 0.013, -0.013, -1, 18.464, 36.874)"/></g><g transform="translate(1.138 0)"><rect class="c" width="17.997" height="36.877" rx="1.052" transform="translate(18.453 36.874) rotate(179.289)"/></g><g transform="translate(8.043 5.141)"><path class="d" d="M281.842,94.481A2.18,2.18,0,1,0,284,92.275,2.181,2.181,0,0,0,281.842,94.481Z" transform="translate(-281.842 -92.275)"/><g transform="translate(0.42 0.42)"><path class="e" d="M281.97,94.183a1.76,1.76,0,1,0,1.74-1.78A1.758,1.758,0,0,0,281.97,94.183Z" transform="translate(-281.97 -92.403)"/></g><g transform="translate(1.085 3.936)"><path class="d" d="M282.15,94.626a1.132,1.132,0,1,0,1.118-1.15A1.134,1.134,0,0,0,282.15,94.626Z" transform="translate(-282.15 -93.476)"/></g><g transform="translate(1.613 4.464)"><path class="e" d="M282.311,94.253a.6.6,0,1,0,.6-.616A.606.606,0,0,0,282.311,94.253Z" transform="translate(-282.311 -93.637)"/></g><g transform="translate(2.128 1.148)"><path class="f" d="M282.277,92.893a.487.487,0,0,0,.22.646.479.479,0,0,0,.646-.22.484.484,0,0,0-.216-.646A.489.489,0,0,0,282.277,92.893Z" transform="translate(-282.229 -92.625)"/></g><g transform="translate(1.972 2.128)"><path class="f" d="M282.8,93.284a.209.209,0,0,0,.007-.3.215.215,0,0,0-.3,0,.21.21,0,0,0,.292.3Z" transform="translate(-282.442 -92.924)"/></g></g></g><g transform="translate(198.679 72.856)"><path class="g" d="M279.661,126.346s7.981-9.773,9.3-13.428-1.829-7.145,2.868-10.18a9.735,9.735,0,0,0,2.219-5.516c.341-3.569,3.622.6,2.746,3.563s-1.137,4.464-.485,4.674a113.959,113.959,0,0,0,13.7-.446c3.625-.429,5.254,1.491,3.8,3.192s-2.088,1.121-2.963,1.855-1.57,5.08-3.6,6.893-7.577,1.131-11.366,4.585c-1.186,1.082-7.761,9.682-7.9,14.742Z" transform="translate(-279.661 -95.849)"/></g><g transform="translate(95.033 85.581)"><path class="h" d="M331.015,105.142c5.041,4.87,31.532,44.77,34.9,58.994s-9.78,18.35-17.9,13.356c-11.242-6.912-41.24-45.675-44.777-56.385C297.68,104.3,317.666,92.262,331.015,105.142Z" transform="translate(-302.285 -99.731)"/></g><g transform="translate(136.772 95.266)"><path class="i" d="M363.2,117.369c-9.341,10.235-56.221,75.326-76.106,49.624-7.227-9.341,9.888-29.52,26.806-40.247,12.73-8.076,28.573-17.738,36.478-24.06C351.113,105.845,361.122,116.566,363.2,117.369Z" transform="translate(-285.391 -102.686)"/></g><g transform="translate(136.772 95.266)"><path class="h" d="M358.56,111.175c-3.759-.488-9.518-2.412-20.825,8.289-3.133,2.969-8.58,5.663-11.143,9.164-1.465,2-.406,10.53-19.553,12.733-12.028,1.39-22.723,24.03-11.855,30.487a15.2,15.2,0,0,1-6.057-4.854c-7.227-9.341,9.888-29.52,26.806-40.247,12.73-8.076,28.573-17.738,36.478-24.06C352.792,104.308,355.62,107.93,358.56,111.175Z" transform="translate(-287.427 -102.686)"/></g><g transform="translate(144.159 449.731)"><g transform="translate(0)"><path class="g" d="M318.383,241.775c-.111,4.818-12.91,3.743-13.421,1.2-1.291-6.43-4.29-32.135-4.29-32.135l20.337.446S318.544,234.709,318.383,241.775Z" transform="translate(-300.672 -210.839)"/></g></g><g transform="translate(123.291 326.617)"><path class="i" d="M348.641,187.965c7.073,35.685-7.207,131.888-7.207,131.888a43.387,43.387,0,0,1-30.929.02s-13.582-85.2-13.667-127.558C296.792,170.686,344.122,165.164,348.641,187.965Z" transform="translate(-296.838 -173.275)"/></g><g transform="translate(68.017 207.251)"><path class="i" d="M376.21,148.111c6.807,13.287,24.535,103.954,28.085,122.8,6.853,36.37-36.835,43.38-51.2,19.661-34.308-56.641-55.874-112.908-55.874-124.635C297.217,138.046,365.113,126.447,376.21,148.111Z" transform="translate(-297.217 -136.854)"/></g><g transform="translate(123.291 331.084)"><path class="h" d="M314.213,174.638c3.268,6.175,6.47,12.271,9.488,18.285,11.327,22.555,11.8,44.606,7.584,69.053-2.4,13.9-5.683,27.953-5.346,42.132.121,5.116.767,10.111,1.278,15.057a36.548,36.548,0,0,1-9.3-2.4s-13.582-85.2-13.667-127.558C304.236,182.851,308.33,177.9,314.213,174.638Z" transform="translate(-304.249 -174.638)"/></g><g transform="translate(68.017 212.188)"><path class="h" d="M328.24,138.361c.026,48.818,30.054,95.059,51.2,137.181a92.208,92.208,0,0,1,8.492,25.331c-10.36.649-21.379-3.887-27.344-13.732-34.308-56.641-55.874-112.908-55.874-124.635C304.718,151.651,315.019,143.277,328.24,138.361Z" transform="translate(-304.718 -138.361)"/></g><g transform="translate(145.174 476.538)"><g transform="translate(0 12.277)"><path class="h" d="M295.007,225.7s-3.936,1.747-2.048,4.3,12.6,2.53,12.6,2.53,11.573.692,14.912.472,14.4-2.429,17.236-5.768-1.114-4.47-1.114-4.47Z" transform="translate(-292.447 -222.764)"/></g><g transform="translate(0.871)"><path class="j" d="M294.827,222.263a10.8,10.8,0,0,0-.22,11.973s12.848,3.73,17.371,3.543,18.8.383,24.686-4.88c0,0,1.675-4.851-7.42-4.739s-19.455-9.141-19.455-9.141-1.377,2.992-5.8,5.044S294.827,222.263,294.827,222.263Z" transform="translate(-292.917 -219.018)"/></g></g><g transform="translate(19.409 448.768)"><path class="g" d="M349.01,246.089c-2.17,4.3-13.264-2.173-12.631-4.687,1.6-6.362,9.95-30.857,9.95-30.857l18.167,9.147S352.2,239.777,349.01,246.089Z" transform="translate(-336.353 -210.545)"/></g><g transform="translate(12.782 334.013)"><path class="i" d="M410.159,202.834C401.195,238.09,346.924,318.8,346.924,318.8a43.4,43.4,0,0,1-27.93-13.284s24.388-82.755,42.528-121.036C370.784,164.934,415.888,180.3,410.159,202.834Z" transform="translate(-318.993 -175.532)"/></g><g transform="translate(12.782 353.555)"><path class="h" d="M371.069,181.494a28.951,28.951,0,0,0,7.106,12.667,113.99,113.99,0,0,0-19.763,40.532c-2.681,10.4-2.147,22.441-6.66,32.132-4.5,9.662-12.844,16.764-17.734,25.925-.485-.5-.76-.816-.76-.816S353.7,222.59,371.069,181.494Z" transform="translate(-333.257 -181.494)"/></g><g transform="translate(20.84 207.772)"><path class="i" d="M400.046,155.26c4,14.381,3.143,106.763,2.835,125.936-.593,37-44.8,35.092-54.111,8.974-22.228-62.38-32.044-121.833-29.687-133.323C324.688,129.529,393.527,131.807,400.046,155.26Z" transform="translate(-318.741 -137.014)"/></g><g transform="translate(20.84 207.779)"><path class="h" d="M320.2,156.842c5.483-26.734,71.491-25.109,80.422-3.051-1.311,46.628-31.431,52.747-45.262,67.06-28.268,29.261,1.521,56.493,5.264,79.8a27.764,27.764,0,0,0,.944,3.936,28.269,28.269,0,0,1-11.681-14.418C327.663,227.786,317.846,168.333,320.2,156.842Z" transform="translate(-319.861 -137.016)"/></g><g transform="translate(16.776 477.596)"><g transform="translate(0 11.219)"><path class="h" d="M334.183,225.7s-3.936,1.747-2.048,4.3,12.6,2.53,12.6,2.53,11.573.692,14.912.472,14.4-2.429,17.236-5.768-1.114-4.47-1.114-4.47Z" transform="translate(-331.623 -222.764)"/></g><g transform="translate(0.871)"><path class="j" d="M334,221.527a10.8,10.8,0,0,0-.22,11.973s12.848,3.73,17.374,3.543,18.793.383,24.682-4.88c0,0,1.675-4.851-7.423-4.739s-18.18-8.082-18.18-8.082a45.856,45.856,0,0,1-7.076,3.985C338.732,225.378,334,221.527,334,221.527Z" transform="translate(-332.093 -219.341)"/></g></g><g transform="translate(69.157 105.003)"><path class="i" d="M315.662,111.166c-.275-5.991,14.549-11.337,18.858,8.148s1.4,19.035,5.66,13.234,20.392-27.76,23.8-25.463c6.319,4.264-.836,37.779-17.98,50.791s-19.661,31.241-28.17,15.109S316.94,139.208,315.662,111.166Z" transform="translate(-313.741 -105.657)"/></g><g transform="translate(18.999 78.078)"><path class="f" d="M347.518,98.77c14.621-3.314,34.98.275,43.305,3.133,15.8,5.427,26.849,30.189,29.477,43.754,3.815,19.7,22.477,116.716,22.477,116.716-59.489.619-92.034,34.646-140.616,27.232,1.095,25.538,1.35-153.217,15.63-175.019C325.854,102.28,340.078,100.458,347.518,98.77Z" transform="translate(-302.161 -97.442)"/></g><g transform="translate(104.639 81.625)"><path class="k" d="M323.1,228.157c-2.543-4.8-6-6.106-10.124-9.056-14.627-10.471,6.509-10.5,13.392-17.154,9.672-9.36-5.07-14.68-6.932-25.2-1.272-7.168-1.54-12.435-2.425-19.337-1.045-8.131-13.057-19.258-10.914-27.943,1.4-5.67,5.073-8.544,4.133-15.2-.869-6.145-5.323-10.426-8.072-15.742,1.118.308,2.147.613,3.022.914,15.8,5.427,26.849,30.189,29.477,43.754,3.815,19.7,22.477,116.716,22.477,116.716a160.047,160.047,0,0,0-32.312,3.69C328.292,253.331,327.7,236.806,323.1,228.157Z" transform="translate(-302.161 -98.524)"/></g><g transform="translate(103.99 81.441)"><path class="i" d="M301.111,98.468s7.9,7.761,13.982,36.668,5.588,92.611,15.7,130.849c0,0,15.46,1.639,29.389-4.208l-28.53-134.618S322.965,99.055,301.111,98.468Z" transform="translate(-301.111 -98.468)"/></g><g transform="translate(110.886 93.83)"><path class="h" d="M318.971,116.649c4.028,8.731,9.567,26.58,10.789,36.052.957,7.44-4.149,3.064-3.979,10.422.121,5.3,1.793,10.209.8,15.62-.439,2.373-1.435,4.638-1.98,7.01-1.8-23.322-3.2-45.311-6.129-59.227a142.877,142.877,0,0,0-7.086-24.279C314.369,105.45,316.965,112.3,318.971,116.649Z" transform="translate(-311.387 -102.248)"/></g><g transform="translate(124.999 188.574)"><path class="h" d="M323.3,166.139c8.1,13.2-6.411,1.229,2.425,25.439a66.444,66.444,0,0,1-10.1-.039c-4.467-16.892-6.86-38.753-8.669-60.384A213.889,213.889,0,0,0,323.3,166.139Z" transform="translate(-306.954 -131.156)"/></g><g transform="translate(81.934 34.145)"><path class="l" d="M342.866,93.731s-1.406-8.61-11.435-9.593-12.684,5.326-13,11.7,2.061,11.12,5.637,9.967S342.866,93.731,342.866,93.731Z" transform="translate(-318.397 -84.037)"/></g><g transform="translate(71.802 48.325)"><g transform="translate(0)"><path class="g" d="M333.9,89c0-2.714,8.669,4.172,8.669,4.172s-8.738,24.905,5.224,27.068l-6.214,8.574a140.7,140.7,0,0,1-20.891-10.242S333.9,113.027,333.9,89Z" transform="translate(-320.684 -88.364)"/></g></g><g transform="translate(102.886 37.5)"><path class="l" d="M325.852,85.35s-.895,10.17-3.641,14.191-6.83-11.684-5.149-13.441S325.852,85.35,325.852,85.35Z" transform="translate(-316.668 -85.061)"/></g><g transform="translate(83.02 36.907)"><path class="g" d="M320.423,91.157c1.6.134,1.757,1.95,1.757,1.95a11.113,11.113,0,0,1,4.746-7.233c4.074-2.553,13.66.131,15.729,4.457s-.547,15.214-8.351,23.9c-1.6,1.776-9.285-3.336-11.717-7.918s-2.016-7.145-2.016-7.145-1.449.495-2.37-1.652S317.477,90.911,320.423,91.157Z" transform="translate(-317.715 -84.88)"/></g><g transform="translate(83.368 29.914)"><path class="l" d="M349.92,86.547l-5.326,7.024a4.917,4.917,0,0,1-4.526,2.068c-6.729-1.023-17.325-8.158-20.382,1.275a26.844,26.844,0,0,1-2.635,5.791s-1.888-5.526-2.114-6.824c-2.016-11.5,7.5-17.016,25.682-10.078C345.849,87.8,345.777,84.925,349.92,86.547Z" transform="translate(-314.67 -82.746)"/></g><g transform="translate(12.5 81.278)"><path class="i" d="M352.037,102.5c6.316-2.871,21.618-10.534,30.975,7.577,6.145,11.9,23.84,139.741,24.666,166.009,0,0-73.733,12.749-87.252,7.423C320.426,283.508,327.525,113.641,352.037,102.5Z" transform="translate(-320.426 -98.418)"/></g><g transform="translate(12.5 118.109)"><path class="h" d="M348.63,109.99c.233.928.452,1.868.734,2.753,2.648,8.285,30.621-9.328,33.345-.58.787,2.54-20.723,30.185-17.947,42.99,5.286,24.4,9.144,19.3,5.319,28.94-2.383,6-1.462,12.1,1.432,17.8.846,1.668,6.188,7.207,6.126,8.777-.111,2.884-8.1,7.882-9.806,9.9-9.187,10.894-6.352,23.974,4.057,32.968a31.655,31.655,0,0,0,4.333,3.127c-18.98,2.271-38.513,3.74-44.842,1.245C331.381,257.915,335.913,162.056,348.63,109.99Z" transform="translate(-331.381 -109.656)"/></g><g transform="translate(68.184 75.204)"><path class="k" d="M347.089,110.18l-8.6,5.175L322.58,100.069l7.247-3.5c10.9,9.393,16.872,13.615,17.229,13.615Z" transform="translate(-322.58 -96.565)"/></g><g transform="translate(92.804 78.037)"><path class="k" d="M320.3,108.055l7.368,4.273L327.392,99.7l-4.626-2.266Z" transform="translate(-320.298 -97.429)"/></g><g transform="translate(89.202 90.51)"><g transform="translate(0 0.682)"><path class="k" d="M318.731,101.456l3.713,19.471c.646,3.248,1.373,6.48,2.334,9.662.242.793.5,1.583.806,2.36a10.06,10.06,0,0,1,.773,2.284,40.6,40.6,0,0,1,.311,4.9c.016,13.2-1.108,26.39-1.517,39.608a141.37,141.37,0,0,0,.918,19.812c.662,6.578,1.472,13.143,2.353,19.694,1.747,13.106,4.051,26.128,6.348,39.143l.066-.01c-2.13-13.048-3.956-26.134-5.778-39.218-.895-6.545-1.717-13.1-2.4-19.668-.633-6.575-1.363-13.143-1.15-19.747.144-13.218,1.494-26.38,1.652-39.618a40.515,40.515,0,0,0-.259-4.988,10.563,10.563,0,0,0-.777-2.406c-.285-.767-.564-1.537-.81-2.32-.986-3.136-1.753-6.355-2.435-9.577-1.232-6.43-2.674-12.956-4.087-19.4Z" transform="translate(-318.731 -101.443)"/></g><g transform="translate(6.178 0.682)"><path class="k" d="M316.791,101.456l3.576,19.081c.633,3.179,1.35,6.345,2.281,9.459.236.777.482,1.554.78,2.317a12.522,12.522,0,0,1,.8,2.238,34.891,34.891,0,0,1,.357,4.782c.059,12.926-1.01,25.853-1.478,38.785a135.278,135.278,0,0,0,.688,19.416c.593,6.45,1.331,12.884,2.16,19.3.81,6.424,1.813,12.825,2.946,19.2s2.383,12.739,4.117,18.976l.062-.013c-3.153-12.562-4.7-25.44-6.489-38.241-.842-6.414-1.593-12.838-2.2-19.278a146.286,146.286,0,0,1-.924-19.35c.206-12.939,1.5-25.83,1.612-38.8a35.147,35.147,0,0,0-.308-4.89,13.41,13.41,0,0,0-.8-2.337c-.279-.747-.544-1.508-.783-2.275-.957-3.074-1.714-6.221-2.383-9.38-1.2-6.3-2.583-12.7-3.953-19.006Z" transform="translate(-316.791 -101.443)"/></g><g transform="translate(9.672 47.575)"><path class="k" d="M322.346,117.242a1.212,1.212,0,1,1-.9-1.458A1.211,1.211,0,0,1,322.346,117.242Z" transform="translate(-319.954 -115.751)"/></g><g transform="translate(8.459 73.098)"><path class="k" d="M322.716,125.028a1.212,1.212,0,1,1-.9-1.458A1.215,1.215,0,0,1,322.716,125.028Z" transform="translate(-320.324 -123.538)"/></g><g transform="translate(9.912 100.385)"><path class="k" d="M322.3,133.254a1.214,1.214,0,1,1-1.026-1.377A1.218,1.218,0,0,1,322.3,133.254Z" transform="translate(-319.88 -131.864)"/></g><g transform="translate(13.077 128.371)"><path class="k" d="M321.339,141.7a1.214,1.214,0,1,1-1.124-1.3A1.214,1.214,0,0,1,321.339,141.7Z" transform="translate(-318.914 -140.403)"/></g><g transform="translate(16.646 151.123)"><path class="k" d="M320.25,148.646a1.214,1.214,0,1,1-1.124-1.3A1.217,1.217,0,0,1,320.25,148.646Z" transform="translate(-317.825 -147.345)"/></g><g transform="translate(7.27 24.212)"><path class="k" d="M323.082,110.112a1.213,1.213,0,1,1-.9-1.458A1.213,1.213,0,0,1,323.082,110.112Z" transform="translate(-320.686 -108.622)"/></g><g transform="translate(2.278)"><path class="k" d="M324.605,102.723a1.214,1.214,0,1,1-.9-1.455A1.214,1.214,0,0,1,324.605,102.723Z" transform="translate(-322.209 -101.235)"/></g></g><g transform="translate(33.369 87.244)"><path class="i" d="M345.748,102.3c6.371,3.415,40.958,40.345,48.5,53.36S390.2,176.248,380.8,173.488s-55.2-32.909-61.852-42.44C308.5,116.087,328.886,93.249,345.748,102.3Z" transform="translate(-316.095 -100.238)"/></g><g transform="translate(44.459 122.779)"><path class="h" d="M355.6,126.325c5.09,10.743,5.883,3.454,11.494,4.6.1.367.167.737.295,1.088,2.474,6.774,7.882,11.684,13.874,15.371.2.121.41.2.613.315a13.938,13.938,0,0,1-10.544,1.1c-7.5-2.2-38.136-21.818-53.612-34.508,1.154-3.2,14.057-5.985,21.159,1.95C341.228,118.855,352.777,120.366,355.6,126.325Z" transform="translate(-317.722 -111.081)"/></g><g transform="translate(153.155 66.53)"><path class="g" d="M300.277,115.136c-1.727-5.722,3.048-7.784,6.191-12.812.793-1.272,3.674,2.412-.361,6.647,0,0,12.389-16.577,14.29-14.939,2.678,2.311-8.069,10.439-7.125,13.179,0,0,5.254-6.335,8.154.878,2.281,5.667,2.494,10.183-3.405,12.54-6.765,2.7-13.038,10.989-14.132,12.743l-8-5.785S301.608,119.537,300.277,115.136Z" transform="translate(-295.886 -93.918)"/></g><g transform="translate(93.362 94.961)"><path class="i" d="M310.981,140.569c15.355-8.679,36.54-27.809,46.651-37.976l16.423,10.891S328.938,183.058,300.379,166C300.379,166,295.626,149.251,310.981,140.569Z" transform="translate(-299.684 -102.593)"/></g><g transform="translate(93.394 100.634)"><path class="h" d="M300.346,162.053a24.992,24.992,0,0,1-.662-5.526c5.395,3.382,11.864.9,15.194-3.733a13,13,0,0,0,8.308-.891c5.611-2.655,9.836-14.126,10.829-14.847,3.055-2.225,4.923-6.958,8.049-6.437,4.69.783,11.3-5.08,15.889-9.164,9.6-8.534,3.382-6.85,8.2-17.131l7.869,5.218S328.906,179.115,300.346,162.053Z" transform="translate(-299.684 -104.324)"/></g><g transform="translate(0)"><path class="m" d="M340.652,113.083h4.484l22.218,13.287-7.309-13.287h22.9a6.917,6.917,0,0,0,6.915-6.915V80.534a6.917,6.917,0,0,0-6.915-6.915h-42.3a6.915,6.915,0,0,0-6.915,6.915v25.633A6.915,6.915,0,0,0,340.652,113.083Z" transform="translate(-333.737 -73.619)"/><g transform="translate(13.179 16.515)"><g transform="translate(23.971)"><path class="f" d="M337.759,81.559a2.9,2.9,0,1,0,2.9-2.9A2.9,2.9,0,0,0,337.759,81.559Z" transform="translate(-337.759 -78.658)"/></g><g transform="translate(11.986)"><path class="f" d="M341.415,81.559a2.9,2.9,0,1,0,2.9-2.9A2.9,2.9,0,0,0,341.415,81.559Z" transform="translate(-341.415 -78.658)"/></g><g transform="translate(0)"><path class="f" d="M345.072,81.559a2.9,2.9,0,1,0,2.9-2.9A2.9,2.9,0,0,0,345.072,81.559Z" transform="translate(-345.072 -78.658)"/></g></g></g></g></g></svg>