<svg xmlns="http://www.w3.org/2000/svg" width="411.664" height="387.336" viewBox="0 0 411.664 387.336"><defs><style>.a{fill:#f0f0f0;}.b{fill:#ea7180;}.c{fill:#42375b;}.d{fill:#ff9393;}.e{fill:#231b3d;}.f{fill:#a387ff;}.g{fill:#ff5675;}.h{fill:#7743e7;}.i{fill:#693ed6;}.j{fill:#c9e5ea;}.k{fill:#352376;}.l{fill:#fff;}.m{fill:#00c951;}.n{fill:#1dafb2;}.o{fill:#4ccfd8;}.p{fill:#ffac00;}.q{fill:#d3485c;}.r{fill:#ffc4c4;}.s{fill:#ff8585;}</style></defs><g transform="translate(-641.958 -562.5)"><ellipse class="a" cx="96.97" cy="22.255" rx="96.97" ry="22.255" transform="translate(641.958 905.326)"/><ellipse class="a" cx="83.785" cy="22.255" rx="83.785" ry="22.255" transform="translate(886.052 905.326)"/><g transform="translate(688.387 562.5)"><g transform="translate(63.464 76.7)"><path class="b" d="M384.769,257.2c-1.545,8.694,13.627,59.4,16.694,66.408,4.673,10.68,22.292,10.284,25.318-.8s-11.127-64.338-12.945-69.506C409.026,239.624,387.192,243.548,384.769,257.2Z" transform="translate(-384.658 -244.795)"/></g><g transform="translate(61.006 74.222)"><path class="c" d="M405.087,243.968a19.848,19.848,0,0,0-18.654,7.9,15.993,15.993,0,0,0-2.633,6.367c-1.437,8.081,8.941,43.139,13.59,59.781,2.76-4.471,5.915-8.415,11.155-11.14,6.288-3.269,13.105-6.4,20.116-7.717-1.926-20.454-9.584-39.972-11.08-44.225C415.636,249.406,411.116,244.784,405.087,243.968Z" transform="translate(-383.664 -243.793)"/></g><g transform="translate(106.35 208.679)"><path class="b" d="M407.7,303.2c-.851-2.95-3.895-2.767-5.089-5.034a13.866,13.866,0,0,0-.544,4.829c.314,1.9,2.052,1.33,3.7,3.511s4.673,2.322,4.547,1.155S408.809,307.024,407.7,303.2Z" transform="translate(-402.002 -298.169)"/></g><g transform="translate(82.556 137.985)"><path class="b" d="M405.513,269.6c-5.6.314-14,3.395-13.061,18.323s12.74,34.539,14.493,50.565c.2,1.832,10.611,4.461,9.409-.529C412.516,322.035,426.183,268.441,405.513,269.6Z" transform="translate(-392.379 -269.58)"/></g><g transform="translate(97.046 203.146)"><path class="b" d="M398.258,299.182c.3,3.054,1.882,6.919,2.977,11.736.937,4.117,2.3,6.219,4.884,5.549,2.495-.65,3.766,2.159,5.915-.341,2.169-2.522-3.459-13.039-4.359-17.188C406.96,295.636,397.773,294.185,398.258,299.182Z" transform="translate(-398.24 -295.931)"/></g><g transform="translate(64.51 245.067)"><path class="b" d="M414.931,320.5c-15.858-16.486-27.022-2.1-29.438,4.911-4.471,12.965,29.015,98.64,26.4,107.715,1.677,1.526,12.5,2.431,11.656-1.234C417.9,407.366,428.536,334.643,414.931,320.5Z" transform="translate(-385.082 -312.885)"/><g transform="translate(24.33 110.023)"><g transform="translate(0 9.71)"><path class="c" d="M427.193,361.306l-30.432,2.638s-2.861,1.325-1.449,3.175,9.258,1.7,9.258,1.7,1.961-1.919,3.768-1.963,4.718,2.334,7.161,2.139,10.526-1.951,12.561-4.429S427.193,361.306,427.193,361.306Z" transform="translate(-394.921 -361.306)"/></g><g transform="translate(0.639)"><path class="d" d="M421.686,364.876c-6.664.188-13.548-7.5-13.548-7.5s-1.521,2.831-6.182,3.608-6.558-1.031-6.558-1.031c1.182,2.819-1.738,5.46.982,9.772,0,0,9.458,2.587,12.769,2.394s13.776.064,18.029-3.86C427.178,368.261,428.35,364.688,421.686,364.876Z" transform="translate(-395.179 -357.379)"/></g></g></g><g transform="translate(35.49 154.165)"><path class="c" d="M373.4,296.934c.594,6.976,23.105,92.807,28.644,103.21a104.649,104.649,0,0,0,22.425-2.831,128.238,128.238,0,0,0,22.01-7.957c-.418-22.01-15.865-99.149-18.894-104.911C420.025,270.05,371.438,274.4,373.4,296.934Z" transform="translate(-373.345 -276.123)"/><path class="e" d="M373.4,296.934c.594,6.976,12.154,52.892,22.185,84.474.559,1.813,1.137,3.6,1.686,5.294a1.353,1.353,0,0,1,.109.279c1.634,4.955,3.21,9.431,4.664,13.162a107.465,107.465,0,0,0,11.558-.833s-10.747-15.88-9.31-34.7c.438-5.754-13.212-15.042-11.392-20.563.559-1.694,5.494-6.565,5.569-8.333,1.086-25.58,9.312-29.3,27.588-32.969a36.148,36.148,0,0,1,6.58-.687c-2.134-9.129-4.033-15.677-5.052-17.613C420.025,270.05,371.438,274.4,373.4,296.934Z" transform="translate(-373.345 -276.123)"/><g transform="translate(22.063 93.903)"><path class="f" d="M382.448,325.48a.34.34,0,0,1-.18,0c.687,1.9,1.318,3.694,1.867,5.3a1.353,1.353,0,0,1,.109.279c8.922-.143,24.436-3.566,39.524-8.172,2.139-.65,6.362-1.986,8.459-2.7-.015-1.877-.69-4.09-.791-6.088C413.444,320.156,391.106,326.086,382.448,325.48Z" transform="translate(-382.268 -314.098)"/><g transform="translate(2.626 8.076)"><path class="d" d="M383.33,327.94c.72,2.008.759,2.139,1.358,3.825,8.9-.138,42.761-8.521,46.621-10.469.032-1.281-.4-2.594-.413-3.932C413.366,323.071,391.512,328.593,383.33,327.94Z" transform="translate(-383.33 -317.364)"/></g></g></g><g transform="translate(9.655 257.63)"><path class="b" d="M390.836,322.255c-3.118-6.55-22.715-4.921-26.28.336-7.228,10.66,11.733,81.585,8.145,93.331-.428,1.4,11.214,2.411,10.784,1.135C379.629,405.651,401.048,343.706,390.836,322.255Z" transform="translate(-362.897 -317.965)"/></g><g transform="translate(1.259 155.746)"><path class="b" d="M359.789,293.161c-1.271,9.28,1.533,61.625,11.407,92.693,6.288,19.782,26.614,12.413,29.042,4.74,10.776-34.077,17.356-90.964,15.4-99.152C411.6,274.494,363.129,268.767,359.789,293.161Z" transform="translate(-359.502 -276.762)"/></g><g transform="translate(1.072 155.742)"><g transform="translate(0.209 0.001)"><path class="c" d="M359.787,292.2c-1.044,7.109,1,97.616,3.991,109.149a102.23,102.23,0,0,0,22.566,1.669c12.517-.668,19.376-3.009,19.376-3.009,9.208-21.392,11.525-103.056,9.908-109.436C411.586,274.632,363.106,269.234,359.787,292.2Z" transform="translate(-359.511 -276.761)"/></g><path class="e" d="M359.912,292.2c-1.043,7.109-.423,55.431,2.038,89.083.124,1.929.272,3.833.415,5.643a1.453,1.453,0,0,1,.04.3c.448,5.294.942,10.094,1.5,14.122a104.494,104.494,0,0,0,11.486,1.489s-6.807-18.066-1.031-36.634c1.766-5.677-9.409-17.722-6.347-22.888.94-1.585,6.891-5.472,7.379-7.228,7.005-25.41,15.91-27.489,34.618-27.489a35.325,35.325,0,0,1,6.585.633c.04-9.572-.294-16.513-.838-18.659C411.711,274.63,363.231,269.234,359.912,292.2Z" transform="translate(-359.427 -276.761)"/><g transform="translate(2.347 103.611)"><path class="f" d="M360.552,319.569a.341.341,0,0,1-.176-.039c.23,2.04.428,3.966.591,5.682a1.449,1.449,0,0,1,.04.3c8.751,1.649,24.7,1.338,40.513-.247,2.243-.22,4.458-.462,6.672-.752.423-1.882.791-3.833,1.157-5.853C390.363,321.115,368.865,321.914,360.552,319.569Z" transform="translate(-360.376 -318.662)"/><g transform="translate(0.873 8.138)"><path class="d" d="M360.729,322.5c.235,2.156.242,2.295.438,4.1,8.724,1.652,24.676,1.34,40.513-.25,1.526-.141,3.027-.3,4.528-.487.331-1.273.66-2.569.962-3.912C388.715,324.149,368.572,324.794,360.729,322.5Z" transform="translate(-360.729 -321.953)"/></g></g></g><g transform="translate(61.153 32.571)"><path class="g" d="M383.892,228.556c-1.152,1.61,3.934,13.793,5.685,10.24s1.311-11.847,1.311-11.847S385.044,226.949,383.892,228.556Z" transform="translate(-383.724 -226.949)"/></g><g transform="translate(0 68.793)"><path class="h" d="M430.95,242.548a118.65,118.65,0,0,0-35.756.912c-26.213,4.27-30.672,29.389-32.415,44.5-2.01,17.443-3.786,84.7-3.786,84.7,15.924,7.124,83.208,7.124,99.107,0,0,0,.322-84.2-1.335-101.677C456.468,267.669,457.433,245.958,430.95,242.548Z" transform="translate(-358.993 -241.598)"/></g><g transform="translate(15.475 97.976)"><path class="i" d="M417.91,268.037c-13.1-4.839-57.805-20.14-52.17,3.865,5.381,22.922,35.481,28.108,49.173,37.687,15.022,10.509,15.776,24,14.782,29.93-2.082,12.448-18.563,15.984-28.832,18.152-4.723,1-9.626,1.931-14.614,2.708,24.51.913,53-.784,62.634-5.1,0,0,.321-84.2-1.335-101.677C447.3,250.824,443.708,277.562,417.91,268.037Z" transform="translate(-365.251 -253.4)"/></g><g transform="translate(0.084 180.606)"><path class="d" d="M359.076,286.816c-.027,2.475-.027,4.8-.049,6.887,10.432,2.868,29.942,4.3,49.477,4.3s39.044-1.434,49.482-4.3c-.027-2.087-.027-4.411-.049-6.887C441.493,293.072,375.619,293.072,359.076,286.816Z" transform="translate(-359.027 -286.816)"/><g transform="translate(0 9.011)"><path class="j" d="M359.076,290.46c-.027,2.475-.027,2.629-.049,4.713,10.432,2.871,29.942,4.305,49.477,4.305s39.044-1.434,49.482-4.305c-.027-2.084-.027-2.238-.049-4.713C441.493,296.716,375.619,296.716,359.076,290.46Z" transform="translate(-359.027 -290.46)"/></g></g><g transform="translate(37.091 50.775)"><path class="b" d="M410.572,253.574l-7.633-1.281c-6.362-9.523-3.289-17.982-3.289-17.982h-9.095s3.074,8.459-3.289,17.982l-13.274,1.758c7.332,3.326,18.914,16.592,26.963,16.592C409.059,270.643,413.366,254.973,410.572,253.574Z" transform="translate(-373.993 -234.311)"/></g><g transform="translate(48.085 34.078)"><path class="b" d="M391.676,227.659a48.663,48.663,0,0,0-6.241,0c-5.447.692-5.719,8.155-6.844,12.418-1.323,5.015,6.387,10.168,9.965,10.168s11.288-5.153,9.965-10.168C397.395,235.814,397.123,228.351,391.676,227.659Z" transform="translate(-378.439 -227.558)"/></g><g transform="translate(46.183 26.116)"><path class="k" d="M378.531,241.468c.413,1.132,1.041,4.055,1.041,4.055s1.382-5.964,2.075-8a17.4,17.4,0,0,1,1.318-3.022l16.372-.544a4.821,4.821,0,0,0,3.84-2.458l3.924-7.062C377.141,223.167,376.041,234.628,378.531,241.468Z" transform="translate(-377.67 -224.339)"/></g><g transform="translate(11.098 350.607)"><g transform="translate(0 5.63)"><path class="c" d="M363.708,365.862a5.718,5.718,0,0,0,2.923,6.711c2.465,1.456,8.857,2.047,11.827-.119,2.151-1.57,2.851-2.347,3.5-4.258.252-.742.151-4.3,1.357-2.742.455.594.747-2.557.992-3.9a4.775,4.775,0,0,0-1.078-3.714Z" transform="translate(-363.481 -357.843)"/></g><g transform="translate(0.2)"><path class="d" d="M371.841,355.566s-.917,8.153-6.521,11.444c-3.042,1.788-1.85,4.733,1.377,6.362,2.564,1.3,8.773,1.872,11.6-.44,6.189-5.057,4.787-12.013,4.612-16.271C382.911,356.661,375.968,357.715,371.841,355.566Z" transform="translate(-363.562 -355.566)"/></g></g><g transform="translate(93.497 9.448)"><path class="i" d="M433.935,217.6H402.021a5.219,5.219,0,0,0-5.218,5.22v19.339a5.216,5.216,0,0,0,5.218,5.215H419.3L413.787,257.4l16.76-10.027h3.388a5.214,5.214,0,0,0,5.215-5.215V222.818A5.217,5.217,0,0,0,433.935,217.6Z" transform="translate(-396.804 -217.598)"/><g transform="translate(9.943 12.46)"><path class="l" d="M403.013,222.637a2.187,2.187,0,1,0,2.186,2.188A2.189,2.189,0,0,0,403.013,222.637Z" transform="translate(-400.825 -222.637)"/><g transform="translate(9.045)"><path class="l" d="M406.666,222.637a2.187,2.187,0,1,0,2.188,2.188A2.187,2.187,0,0,0,406.666,222.637Z" transform="translate(-404.483 -222.637)"/></g><g transform="translate(18.086)"><path class="l" d="M410.327,222.637a2.187,2.187,0,1,0,2.186,2.188A2.189,2.189,0,0,0,410.327,222.637Z" transform="translate(-408.139 -222.637)"/></g></g></g><g transform="translate(190.074)"><path class="m" d="M485.531,246.778c1.689-2.49,4.008-7.181,4.008-11.345,0-11.961-12.017-21.656-26.839-21.656s-26.839,9.7-26.839,21.656c0,7.947,5.589,14.354,13.229,18.642,11.81,6.622,38.617,7.9,38.617,7.9-7.839-4.733-6.681-9.958-4.416-12.658C484.013,248.455,485.056,247.478,485.531,246.778Z" transform="translate(-435.861 -213.777)"/><g transform="translate(15.61 19.723)"><path class="l" d="M444.36,221.753a2.187,2.187,0,1,0,2.186,2.186A2.187,2.187,0,0,0,444.36,221.753Z" transform="translate(-442.174 -221.753)"/><g transform="translate(9.04)"><path class="l" d="M448.018,221.753a2.187,2.187,0,1,0,2.186,2.186A2.187,2.187,0,0,0,448.018,221.753Z" transform="translate(-445.83 -221.753)"/></g><g transform="translate(18.086)"><path class="l" d="M451.674,221.753a2.187,2.187,0,1,0,2.186,2.186A2.185,2.185,0,0,0,451.674,221.753Z" transform="translate(-449.488 -221.753)"/></g></g></g><g transform="translate(74.669 120.467)"><path class="b" d="M459.492,278.553c-4.837.979-68.967-29.757-70.1-8.622-.3,5.6-1.879,9.78,12.789,12.722s45.793,6.063,57.593,4.29C461.594,286.671,464.524,277.534,459.492,278.553Z" transform="translate(-389.19 -262.495)"/></g><g transform="translate(140.731 132.879)"><path class="b" d="M438.123,273.487a57.68,57.68,0,0,1-9.849-2.935c3.267.373,6.043-2.394,4.795-2.065-2.5.658-6.879-2.666-8.786.232s-6.862,2.715-6.862,2.715-3.514,7.47.158,7.925c3.615.45,3.5-.823,10.175,2.312a12.189,12.189,0,0,0,8.318,1.177c1.135-.252.91-1.39.954-2.5C437.137,277.58,441.395,274.014,438.123,273.487Z" transform="translate(-415.906 -267.514)"/></g><g transform="translate(20.396 87.367)"><path class="b" d="M384.557,249.5c-11.958-3.417-22.339,16.172-14.705,25.373,4.861,5.858,52.484,24.356,58.93,25.756s15.457-10.522,9.891-18.837S389.075,250.8,384.557,249.5Z" transform="translate(-367.241 -249.109)"/></g><g transform="translate(14.407 84.056)"><path class="h" d="M370.721,252.4a19.976,19.976,0,0,0-5.072,8.57,18.938,18.938,0,0,0-.015,11.041,24.266,24.266,0,0,0,4.533,7.265c6.409,7.028,46.779,22.321,55.1,24.478,1.174.311,9.982-12.574,13.516-25.655-.032-.176-39.969-27.02-50.788-29.752C382.306,246.914,375.041,248.1,370.721,252.4Z" transform="translate(-364.819 -247.77)"/></g><g transform="translate(242.229 166.696)"><path class="b" d="M461.268,284.711c-6.372,14.888-3.8,80.156-3.8,80.156l31.129,3.672s16.565-56.351,18.469-69.029S465.373,275.116,461.268,284.711Z" transform="translate(-456.953 -281.19)"/></g><g transform="translate(227.485 236.207)"><path class="b" d="M498.09,319.174c-1.677-7.22-19.873-11.889-26.008-9.011-15.338,7.2.962,110.217-7.164,118.921-1,1.068-5.737,9.629-8.274,11.325-1.306.87-5.818,1.669-5.65,2.73s12.73,2.141,22-8.7c.967-1.13,3.5-1.622,4.127-4.283.781-3.286-1.669-5.24-1.627-6.587C475.888,411.536,501.238,332.734,498.09,319.174Z" transform="translate(-450.99 -309.301)"/></g><g transform="translate(227.449 353.93)"><path class="c" d="M470.464,359.781c-2.2,1.634-3.516,6.471-5.878,7.982a24.565,24.565,0,0,1-8.365,3.585,5.613,5.613,0,0,1-2.426-.094c-1.439.551-2.643,1.246-2.779,1.771a1.356,1.356,0,0,0,.645,1.444c2.5,1.758,7.794.764,10.348-.217,3.118-1.2,9.161-8.385,11.842-9.218,7.03-2.191,3.417-7.418,3.125-8.123C474.759,357.011,472.3,358.411,470.464,359.781Z" transform="translate(-450.976 -356.91)"/></g><g transform="translate(248.495 359.107)"><path class="c" d="M459.487,372.319l1.8.082,4.053-13.4-5.034,3.443Z" transform="translate(-459.487 -359.003)"/></g><g transform="translate(341.399 317.268)"><path class="c" d="M497.358,348.174l7.982,5.863,1.013-1.488-9.295-10.466Z" transform="translate(-497.058 -342.083)"/></g><g transform="translate(225.477 135.157)"><path class="n" d="M476.169,268.436s-7.581,17.183-15.469,80.779c-4.721,38.065-6.446,54.346-10.521,75.391,0,0,20.719-5.433,28.585-2.24s21.775,8.345,31.448,4.26c0,0,17-114.384,14.211-133.97S476.169,268.436,476.169,268.436Z" transform="translate(-450.178 -268.436)"/></g><g transform="translate(259.185 147.499)"><path class="c" d="M495.861,273.427c-5.408,6.446-11.461,12.24-18.926,16.4a54.405,54.405,0,0,1-9.866,4.216c-.289.3-.564.616-.858.912,3.961,13.148,8.348,26.181,6.323,40.224a55.466,55.466,0,0,1-2.312,9.364l12.653,28-14.911-15.227c-3.049,8.336-5.843,9.96-2.918,19.658,4.2,13.907,10.66,27.282,5.378,41.923-.022.059-.049.1-.072.161,6.639,1.785,13.974,2.671,19.782.218,0,0,17-114.384,14.213-133.97C503.66,280.492,500.391,276.587,495.861,273.427Z" transform="translate(-463.81 -273.427)"/></g><g transform="translate(254.169 223.953)"><path class="b" d="M547.411,397.806c-2.272-2.5-5.267-1.58-6.355-2.376-9.713-7.114-37.267-85.015-54.094-90.653-7.03-2.357-22.514,5.438-24.873,11.793-5.9,15.882,74.951,79.086,77.543,90.707.321,1.429,4.711,10.173,4.676,13.224-.015,1.57-1.906,5.744-.935,6.2s8.954-9.3,5.242-23.076C548.227,402.195,549.248,399.826,547.411,397.806Z" transform="translate(-461.781 -304.346)"/></g><g transform="translate(335.541 315.783)"><path class="c" d="M501.2,348.649c2.161-7.037-4.191-7.008-4.941-7.166-1.167,1.892-1.4,4.711-1.308,7,.111,2.735,3.358,6.555,3.271,9.359a24.474,24.474,0,0,1-1.765,8.927,5.617,5.617,0,0,1-1.444,1.951c-.358,1.5-.465,2.888-.109,3.294a1.361,1.361,0,0,0,1.555.284c2.861-1.071,5.032-6,5.665-8.664C502.9,360.38,500.378,351.332,501.2,348.649Z" transform="translate(-494.689 -341.483)"/></g><g transform="translate(246.236 135.157)"><path class="o" d="M501.65,359.084l4.819-21.567c13.306-27.868,8.417-51.562,6.654-55.241s-6.38-13.711-6.38-13.711l-42.939-.129-2.586,7.97c1.1,3.613,8.175,9.841,8.175,11.434,0,17.233-11.6,62.884-10.779,75.663,1.024,16.018,36.265,63.977,36.265,63.977,2.337-2.453,2.752-9.51,12.408-12.124s8.321-8.593,12.774-11.694,14.78-4.053,14.78-4.053C526.343,381.87,501.65,359.084,501.65,359.084Z" transform="translate(-458.573 -268.436)"/></g><g transform="translate(276.657 137.944)"><path class="n" d="M483.531,357.424l4.819-21.567c13.306-27.868,8.417-51.562,6.654-55.241-1.184-2.475-3.657-7.814-5.153-11.053,2.856,16.639-4.154,47.944-18.976,56.314.509,6.849,1.412,26.537,1.906,33.661.779,11.251-3.029,32.1,3.158,42.049a68.524,68.524,0,0,1,6.807,15.366,15.987,15.987,0,0,1,6.422-3.257c.218-.059-5.8-28.968-5.8-28.968l14.705,22.383c1.11-1.9,1.956-3.773,3.872-5.109,4.453-3.1,14.78-4.053,14.78-4.053C508.224,380.211,483.531,357.424,483.531,357.424Z" transform="translate(-470.876 -269.563)"/></g><g transform="translate(273.48 29.349)"><path class="c" d="M512.911,264.856c1.283-7.712,1.432-24.628-9.574-28.31s-5.48-9.149-13.5-10.695c-8.642-1.664-12.035,7.29-13.877,8.9-12.8,11.184-3.269,15.573,2.339,23.647,10.91,15.707-.1,60.565,19.092,70.718,9.688,5.123,19.265,3.464,23.6-1.491,0,0-11.59,1.165-7.438-9.6,2.557-6.627,7.878-8.491,9.139-16.4C525.156,286.139,510.668,278.34,512.911,264.856Z" transform="translate(-469.591 -225.646)"/></g><g transform="translate(277.569 34.891)"><path class="p" d="M476.122,228.094c-1.882-.653-3.467.319-4.787,1.773a.337.337,0,0,0,.156.554,20.881,20.881,0,0,1,4.76,1.983,21.112,21.112,0,0,1,4.115,3.111.335.335,0,0,0,.556-.138c.591-1.874.631-3.736-.88-5.03A33.3,33.3,0,0,0,476.122,228.094Z" transform="translate(-471.245 -227.887)"/></g><g transform="translate(266.901 37.819)"><path class="c" d="M476.941,230.373c-1.63-1.259-5.934-3.173-9.231,3s4.535,13.556,10.875,8.771S479.026,231.986,476.941,230.373Z" transform="translate(-466.93 -229.072)"/></g><g transform="translate(265.065 40.222)"><path class="c" d="M466.848,235.159a7.11,7.11,0,0,0-.658,3.014,3.589,3.589,0,0,0,1.288,2.668,3.358,3.358,0,0,1-.853-2.656,6.453,6.453,0,0,1,1-2.629,18.7,18.7,0,0,1,3.813-4.243l-1.189-1.271A19.748,19.748,0,0,0,466.848,235.159Z" transform="translate(-466.188 -230.043)"/></g><g transform="translate(252.193 53.42)"><path class="b" d="M500.113,258.937c-3.786-.658-6.857-2.406-8.177-4.7-2.745-4.767-1.155-11.867.724-16.3-4.357-2.483-5.94-4.486-7.23.638s-2.418,10.037-5.994,12.863c-1.449,1.145-4.627,1.083-7.166.3-7.136-2.193-13.239,3.665-10.7,9.04,4.493,9.523,30.954,25.326,35.162,16.041C501.6,266.081,511.089,260.839,500.113,258.937Z" transform="translate(-460.982 -235.38)"/></g><g transform="translate(281.802 76.957)"><path class="b" d="M515.469,260.717c-7.9-5.6-22.415-13.86-32.625-15.573-9.584-1.615-12.6,5.077-7.275,11.135,7.117,8.086,17.537,10.071,31.344,16.582C515.857,277.076,524.319,267,515.469,260.717Z" transform="translate(-472.957 -244.899)"/></g><g transform="translate(228.105 70.322)"><path class="q" d="M476.55,243.85c-9.169,5.658-14.95,14.953-23.689,27.472-5.663,8.106,4.74,17.655,12.418,9.985,6.852-6.844,15.7-18.429,19.114-28.2C487.593,243.927,483.416,239.617,476.55,243.85Z" transform="translate(-451.241 -242.216)"/></g><g transform="translate(176.611 96.339)"><g transform="translate(13.311)"><path class="q" d="M480.76,252.867c-3.014.67-29.173,7.893-42.966,9.226-1.518.146-3.8,7.07.423,6.6,7.851-.873,36.6,6.038,48.258-1.652C494.046,262.046,487.105,251.448,480.76,252.867Z" transform="translate(-435.799 -252.738)"/></g><g transform="translate(0 6.545)"><path class="q" d="M441.985,256.051c-1.906-2.144-5.428,1.555-6.694,1.716-1.051.134,1.882,2.268,4.678.457a10.383,10.383,0,0,1-5.722,2.527c-2.72.341-2.549,3.655-3.674,5.762a1.321,1.321,0,0,0,1.081,1.939c1.751.131,4.261,1.009,6.291-.883,3.7-3.445,10.163-2.718,10.163-2.718l-.6-6.827S443.894,258.2,441.985,256.051Z" transform="translate(-430.416 -255.384)"/></g></g><g transform="translate(251.125 69.21)"><path class="r" d="M496.978,267.331c1.4-8.086.791-12.109,3.865-18.049a25.333,25.333,0,0,0-3.4-1.207c-20.22,8.964-23.555-5.435-23.842-5.586a8.2,8.2,0,0,0-2.9-.72c-1.57.168.035,9.73-4.827,15.21-4.582,5.163-5.064,9-2.357,14.493,3.195,6.479-3.43,33.746-2.94,38.152,3.67,2.46,27.247,4.184,43.278-1.79C498.756,293.458,494.122,283.812,496.978,267.331Z" transform="translate(-460.55 -241.766)"/></g><g transform="translate(252.467 75.52)"><path class="s" d="M496.179,263.573c1.4-8.086.791-12.109,3.865-18.049a25.334,25.334,0,0,0-3.4-1.207c-6.736,2.985-11.55,3.341-15.047,2.527.368.45,6.395,4.142,6.395,10.865,6.523,3.813,5.529,14.99-3.89,14.99-4.315,0-7.821-2.626-17.725-4.263-3.19-.527-4.508-3.247-5.044-5.386a9.138,9.138,0,0,1-.235-1.543,13.3,13.3,0,0,0,1.622,6.207,14.732,14.732,0,0,1,.863,6,13.7,13.7,0,0,1,9.8.856c7.554,3.568,24.616,13.274,21.629,22.329-1.167,3.538-12.22,6.535-10.658,8.123,1.7,1.724,12.042,1.538,18.7-.942C497.956,289.7,493.323,280.054,496.179,263.573Z" transform="translate(-461.093 -244.318)"/></g><g transform="translate(268.272 40.562)"><path class="b" d="M482.794,239.076s1.427-1.011,1.4-3.741-7.4-5.727-12.186-5.059-5.752,18.076-3.027,19.564c2.671,1.461,7.96-.4,9.352-.524,1.578-.146,4.251-2.569,4.592-3.576a1.612,1.612,0,0,0,2.025.277c1.189-.682,1.592-5.168.425-6.011A5.507,5.507,0,0,0,482.794,239.076Z" transform="translate(-467.485 -230.181)"/></g><g transform="translate(271.314 35.418)"><path class="c" d="M476.868,229.331c-3.749-3.8-9.443,2.126-7.89,5.3,2.151,4.392,4.374,8.941,11.943,9.3a1.912,1.912,0,0,1,2.376-.551c1.37.747.833,4.832-.349,5.583-.393.247-1.511-.326-1.778-.042-.106.111-.092,1.217.341,1.3,4.834.942,10.536-10.526,3.937-17.03C483.482,231.25,478.341,230.827,476.868,229.331Z" transform="translate(-468.715 -228.1)"/></g><g transform="translate(275.063 93.98)"><g transform="translate(13.93)"><path class="b" d="M499.5,253.174c-1.889,2.441-12.725,23.459-23.155,32.581-1.147,1-.287,7.576,3.227,5.185,5.932-4.033,28.011-16.478,34.915-32.131C514.484,258.81,503.476,248.031,499.5,253.174Z" transform="translate(-475.865 -251.784)"/></g><g transform="translate(0 32.461)"><path class="b" d="M485.436,265.7c-2.5,2.522-4.167-1.412-7.29-.707s-4.842,2.453-6.085,5.435c-.6,1.427-2.817,3.064-1.32,3.64,3.024,1.162,6.565-2.379,6.565-2.379a3.92,3.92,0,0,1,3.482,1.348c2.2,2.322,4.5,1.869,5.571.608.781-.92,2.433-2.653,2.433-2.653S487.935,263.182,485.436,265.7Z" transform="translate(-470.231 -264.911)"/></g><g transform="translate(10.064 29.249)"><path class="b" d="M474.585,267.136c1.194,1.976,1.481,1.929,3.489,1.7,0,0-2.154-3.489-1.941-4.795C476.37,262.578,473.391,265.16,474.585,267.136Z" transform="translate(-474.301 -263.612)"/></g></g><g transform="translate(269.108 54.625)"><path class="l" d="M467.875,235.868s-.448,3.66,1.276,4.3,3.123-2.846,3.123-2.846S470.533,237.933,467.875,235.868Z" transform="translate(-467.823 -235.868)"/></g></g></g></svg>