<svg xmlns="http://www.w3.org/2000/svg" width="331.238" height="574.801" viewBox="0 0 331.238 574.801"><defs><style>.a,.p{fill:#f0f0f0;}.b{fill:#ea7180;}.c{fill:#42375b;}.d{fill:#231b3d;}.e{fill:#ff9393;}.f{fill:#1d0443;}.g{fill:#ff394b;}.h{fill:#4ccfd8;}.i{fill:#1dafb2;}.j{fill:#37136e;}.k{fill:#fff;}.l{fill:#da0032;}.m{fill:#c8e4e9;}.n{fill:#b4002c;}.o{fill:#ffac00;}.p{mix-blend-mode:multiply;isolation:isolate;}</style></defs><g transform="translate(-545.668 -51.9)"><ellipse class="a" cx="141.114" cy="32.386" rx="141.114" ry="32.386" transform="translate(545.668 561.93)"/><g transform="translate(781.39 165.074)"><path class="b" d="M656.539,87.64c-.132,1.288-.4,3.613-3.768,3.5-4.478-.139-6.166,2.507-5.856,4.749.225,1.638-.591,7.725-.591,7.725s9.258,5.271,9.512,2.751c.049-.515.106-2.959.218-3.682.746-4.8,3.131-1.265,5.152-5.037,1.117-2.084-.317-5.823-2.259-9.892C658.019,85.81,656.764,85.513,656.539,87.64Z" transform="translate(-646.324 -86.167)"/></g><g transform="translate(736.806 407.949)"><path class="b" d="M634.712,170.9c-7.494,19.73,9.964,143.215,6.78,160.67-.357,1.952,14.294,2.494,13.74.39,0,0,17.881-119.261,23.489-166.826C679.923,154.932,638.7,160.395,634.712,170.9Z" transform="translate(-632.825 -159.705)"/></g><g transform="translate(734.883 416.145)"><path class="c" d="M634.348,167.637c-5.192,13.67.42,74.519,3.95,117.834l.228.069c8.845,1.635,18.7,1.011,27.99.528,6.107-46.855,17.174-92,17.174-121.024C683.69,165.044,638.341,157.134,634.348,167.637Z" transform="translate(-632.242 -162.187)"/></g><g transform="translate(761.96 416.486)"><path class="d" d="M649.844,175.646c-.056,13.383-.331,19.063-1.295,31.689-.568,7.461-5.04,11.044-4.055,18.512.971,7.342,6.2,24.516-.565,21.547-7.765-3.405-.383,25.394,1.308,38.562.8-.043,1.6-.086,2.4-.125,6.107-46.855,17.174-92,17.174-121.024,0,0-10.119-1.76-21.22-2.517C644.758,163.628,649.85,173.509,649.844,175.646Z" transform="translate(-640.441 -162.29)"/></g><g transform="translate(744.577 579.266)"><path class="b" d="M649.935,211.577l-13.789.218c-.769,3.432-4.753,18.188,11.877,26.422,14.248,7.055,11.9-1.625,10.787-5.476C658.252,230.812,649.793,224.068,649.935,211.577Z" transform="translate(-635.178 -211.577)"/></g><g transform="translate(609.115 412.096)"><path class="b" d="M667.241,162.243c-16.451,13.221-61.4,122.51-72.977,135.949-1.3,1.5,10.242,9.155,10.826,7.061,0,0,69.6-79.793,98.516-117.976C709.809,179.087,676,155.2,667.241,162.243Z" transform="translate(-594.162 -160.961)"/></g><g transform="translate(629.654 403.627)"><path class="c" d="M654.205,161.532c-10.46,8.227-35.167,55.7-53.824,94.054,7.8,7.609,17.874,13.769,27.251,18.931,28.35-33.169,66.731-74.189,67.712-92.109C696.087,168.841,667.439,151.122,654.205,161.532Z" transform="translate(-600.381 -158.397)"/></g><g transform="translate(641.877 411.941)"><path class="d" d="M677.1,160.914c-.172,1.344,1.856,23.1-4.485,28.958-3.907,3.61-10.126,19.681-14.7,23.482-15.836,13.174-21.913,5.793-23.449,24.083-1.163,13.819-18.178,18.128-30.382,22.168,4.914,3.359,10.064,6.384,15.027,9.115,28.35-33.169,66.731-74.189,67.712-92.109C687.109,171.377,683,165.531,677.1,160.914Z" transform="translate(-604.082 -160.914)"/></g><g transform="translate(587.812 546.256)"><path class="b" d="M591.8,214c-3.058,2.6-9.815,8.528,5.962,10.529,18.409,2.332,21.312-11.071,24.5-15.453l-10.965-7.5C604.506,212.071,593.327,212.709,591.8,214Z" transform="translate(-587.712 -201.582)"/></g><g transform="translate(587.669 556.058)"><path class="e" d="M596.6,209.692c-2.86-3,3.233-5.142,3.233-5.142-3.17,1-6.407,1.324-7.936,2.619-3.058,2.6-10.1,8.716,5.71,10.82,14.463,1.922,20.255-7.725,20.255-7.725S602.879,216.281,596.6,209.692Z" transform="translate(-587.668 -204.55)"/></g><g transform="translate(744.663 588.771)"><path class="e" d="M654.324,219.406s3.154,5.284-.888,6.206c-8.874,2.021-18.231-11.156-18.231-11.156s-.307,11.123,12.8,17.514c14.34,6.989,11.853-2,10.74-5.856C658.191,224.185,656.411,222,654.324,219.406Z" transform="translate(-635.204 -214.455)"/></g><g transform="translate(743.01 182.928)"><path class="d" d="M658.469,92.68c-6.873-5.156-23.456,8.973-23.76,16.117-.287,6.734,9.984,41.086,17.4,52.658,7.507,11.708,28.4,9.8,28.4-11.031C680.511,142.012,667.8,99.675,658.469,92.68Z" transform="translate(-634.703 -91.573)"/></g><g transform="translate(755.94 182.932)"><path class="f" d="M649.454,92.677c-2.659-2-6.774-1.087-10.836,1.172a19.548,19.548,0,0,1,12.689,12.593c1.678,4.974,2.206,10.536,4.31,15.338a40.991,40.991,0,0,0,2.457,3.607,12.865,12.865,0,0,1,1.952,3.346q2.983,6.742,1.559,3.782c4,9,2.725,19.45-6.516,24.853a17.553,17.553,0,0,1-13.287,1.84c.446.812.885,1.575,1.315,2.246,7.507,11.708,28.4,9.8,28.4-11.031C671.5,142.01,658.784,99.672,649.454,92.677Z" transform="translate(-638.618 -91.574)"/></g><g transform="translate(759.762 227.74)"><path class="g" d="M658.9,108.453c-16.186-11.137-24.037,8.571-15.836,18.442s17.818,7.084,21.084-.819C667.114,118.89,666.786,113.883,658.9,108.453Z" transform="translate(-639.776 -105.141)"/></g><g transform="translate(712.056 282.904)"><path class="c" d="M625.331,140.676c.228,43.863,25.652,130.523,25.652,130.523l47.4-3.4s15.107-114.65,5.245-137.647C697.277,115.338,625.232,121.24,625.331,140.676Z" transform="translate(-625.331 -121.844)"/></g><g transform="translate(712.056 282.904)"><path class="d" d="M625.331,140.676c.092,17.346,10.1,71.979,14.935,94.7,10.886,10.991,27.462,16.2,41.835,5.78,8.475-6.146-2.477,9.568,2.537,27.624l13.746-.981s15.107-114.65,5.245-137.647C697.277,115.338,625.232,121.24,625.331,140.676Z" transform="translate(-625.331 -121.844)"/></g><g transform="translate(667.514 282.904)"><path class="c" d="M615.206,130.154c-9.862,23,5.116,137.647,5.116,137.647l47.222,3.4s28.3-86.66,28.562-130.523C696.221,121.24,621.56,115.338,615.206,130.154Z" transform="translate(-611.844 -121.844)"/></g><g transform="translate(671.397 285.94)"><path class="d" d="M672.33,125.088c-1.169,1.077-59.31-5.364-59.31,32.489,0,19.341,5.747,26.6,5.747,45.96,0,32.2,52.916,25.6,36.759,64.875l9.31,2.269s28.3-86.656,28.562-130.516C693.438,133.391,681.511,116.649,672.33,125.088Z" transform="translate(-613.02 -122.763)"/></g><g transform="translate(704.675 151.814)"><path class="b" d="M653.187,82.152H642.764s4.211,16.887-.106,28.248c0,0-13.435.284-19.562,6.473,0,0,7.042,24.443,24.879,24.443s24.879-24.443,24.879-24.443c-6.127-6.189-19.565-6.473-19.565-6.473C648.973,99.039,653.187,82.152,653.187,82.152Z" transform="translate(-623.096 -82.152)"/></g><g transform="translate(655.239 119.027)"><path class="d" d="M635.531,78.487c-16.424-15.225-30.54.3-26.795,14.78,3.706,14.3,39.282,64.931,46.145,67.246,13.191,4.439,12.6-12.6,13.294-21.811C669.116,126.2,642.163,84.634,635.531,78.487Z" transform="translate(-608.128 -72.225)"/></g><g transform="translate(687.257 151.89)"><path class="f" d="M628.457,97.073c-2.384,1.242,2.794,6.721,4.148,9.046,3.256,5.6-.727,12.715-5.836,15.275a10.031,10.031,0,0,1-8.947.053c6.45,8.7,12.2,15.3,14.737,16.154,13.191,4.439,12.64-14.106,13.333-23.314.558-7.428-14.228-32.112-14.228-32.112C633.285,88.42,633.969,94.194,628.457,97.073Z" transform="translate(-617.822 -82.175)"/></g><g transform="translate(656.974 122.197)"><path class="f" d="M614.367,77.651C607.2,84,607.491,89.013,611.315,95.78c4.208,7.448,14.1,9.033,21.025-1.767S629.067,64.612,614.367,77.651Z" transform="translate(-608.653 -73.184)"/></g><g transform="translate(662.617 168.773)"><path class="h" d="M700.669,155.831c4.36-17.838,10.7-23.482,1.85-33.162-7-7.659.925-18.888.925-18.888-4.327-1.816-15.027-5.383-16.117-6.473-1.222-1.222-6.044-8.158-6.044-8.158h-8.026s-.925,4.657-4.072,4.657c-1.519,0-2.008-6.52-8-6.52,0,0-2.12,27.845-9.1,35.382-8.907,9.624-2.51,15.325,1.85,33.162,4.327,17.835-38.642,34.811-42.9,70.975-1.684,14.466.33,62.751.33,62.751l11.593-62.784S625.2,278,635.605,286.978c4.69,4.066,12.617,6.873,21.8,8.422a116.034,116.034,0,0,0,20.345,1.556c10.932-.132,21.8-1.721,30.021-4.726.33-.132.661-.261.991-.4a31.127,31.127,0,0,0,8.686-4.855,11.535,11.535,0,0,0,1.123-1.12c9.743-11.4,13.442-59.482,13.442-59.482l12.154,62.715s2.114-48.249.43-62.751C740.4,190.212,696.342,173.666,700.669,155.831Z" transform="translate(-610.362 -87.287)"/></g><g transform="translate(695.206 312.213)"><path class="i" d="M624.351,130.718c-9.968,23.073.667,50.617,5.463,56.308a102,102,0,0,1-1.978-10.44C625.851,161.314,625.983,145.927,624.351,130.718Z" transform="translate(-620.229 -130.718)"/></g><g transform="translate(713.021 324.4)"><path class="i" d="M627.892,134.408c-6.688,10.347,2.246,22.128,15.843,8.5-1.126-.7-8.24.063-9.089-.826C631.066,138.328,631.132,138.272,627.892,134.408Z" transform="translate(-625.623 -134.408)"/></g><g transform="translate(709.659 178.681)"><path class="i" d="M667.87,148.923c4.36-17.838,10.7-23.482,1.85-33.162-7-7.659.925-18.888.925-18.888-4.327-1.816-15.027-5.383-16.117-6.473-1.222-1.222-3.861,7.841-5.974,12.068-1.849,3.732-8.194,8.9-11.1,12.042H649.97c14.9,0,14.862,23.119,0,23.119,0,0-17.831-.139-17.831,1.377,0,.793,19.318,7.54,21.431,12.1,1.387,3.1-7.794,9.409-6.837,12.448,2.378,7.4,7.167,9.152,11.031,15.559,10.473,17.412,8.57,50.254,8.57,50.254l13.35-17.012s4.875,21.236-19.337,35.309c-19.6,11.391-30.791,39.943-35.742,40.831a171.186,171.186,0,0,0,20.345,1.556c13.013.1,22.723-1.783,30.021-4.726.33-.132.661-.261.991-.4a38.4,38.4,0,0,0,9.809-5.975c9.743-11.4,13.442-59.482,13.442-59.482l12.154,62.715s2.114-48.249.43-62.751C707.6,183.3,663.544,166.758,667.87,148.923Z" transform="translate(-624.605 -90.287)"/></g><g transform="translate(762.104 178.912)"><path class="b" d="M660.088,91.3c-5.238,20.86-17.679,53.751-18.964,57.929-3.405,11.038,7.534,20.523,15.242,16.656,16.233-8.135,8.59-50.264,12.914-69.525C670.6,90.489,660.616,89.2,660.088,91.3Z" transform="translate(-640.484 -90.357)"/></g><g transform="translate(630.54 77.466)"><path class="b" d="M608.793,60.332c-1.225-1.78-10.744-.116-7.458,4.924,10.78,16.537,18.34,58.682,36.389,60.634,8.577.925,15.509-11.784,8.465-20.936C643.524,101.49,620.993,78.048,608.793,60.332Z" transform="translate(-600.649 -59.641)"/></g><g transform="translate(619.097 51.9)"><path class="b" d="M612.211,61.782c-.565-1.126-2.854,1.083-1.506,4.525.756,1.308,1.239,2.176,1.239,2.176a8.214,8.214,0,0,1-1.239-2.176c-2.612-4.508-8.683-14.5-11.17-14.406-3.56.126,7.107,11.236,5.9,13.894,0,0-3.1-7.926-6.7-.961-2.824,5.469-1.932,9.66,3.765,12.583,6.529,3.352,5.7,4.809,8.151,7.758l7.414-4.908s-2.269-2.444-.518-6.731C619.826,67.955,614.886,67.123,612.211,61.782Z" transform="translate(-597.185 -51.9)"/><path class="b" d="M601.278,56.262a8.219,8.219,0,0,0,1.239,2.176S602.034,57.57,601.278,56.262Z" transform="translate(-587.758 -41.855)"/></g><g transform="translate(718.269 128.189)"><g transform="translate(1.892)"><path class="j" d="M633.934,75.352c-6.741,1.681-6.628,8.326-5.684,13.647.122.687.67,1.139,1.024.846a22.671,22.671,0,0,1,16.9-5.44c.459.036.641-.654.34-1.285C644.173,78.252,640.656,73.675,633.934,75.352Z" transform="translate(-627.785 -74.999)"/></g><g transform="translate(11.539 9.288)"><path class="j" d="M638.114,78.372c-2.953,1.417-11.517,6.417-5.05,13.881s17.94-.185,16.53-7.659S640.419,77.262,638.114,78.372Z" transform="translate(-630.706 -77.811)"/></g><g transform="translate(3.93 11.697)"><path class="b" d="M634.866,83.3c-2.787,4.812-2.127,6.328-2.127,6.328a2.424,2.424,0,0,0-2.722-.773c-1.552.684-2.193,5.958-.987,7.035a1.9,1.9,0,0,0,2.4.182c0,6.288,12.831,9.109,15.077,8.158,2.3-.974,3.352-3.428,3.729-7.755s2.276-12.428-1.8-15.992S637.653,78.489,634.866,83.3Z" transform="translate(-628.402 -78.541)"/></g><g transform="translate(0 5.155)"><path class="j" d="M644.924,76.57c-3.293-.185-8.96,2.054-11.853,3.9-9.71,6.2-5.75,21.619.37,21.725.548.01.756-1.493.756-1.493s-1.764,0-2.177-.41c-1.242-1.225-.836-6.328,1.024-6.876a2.381,2.381,0,0,1,2.748,1.281c9.294,1.529,13.175-3.425,16.926-8.207C655.427,83.037,651.549,76.934,644.924,76.57Z" transform="translate(-627.212 -76.56)"/></g><g transform="translate(6.576 6.822)"><path class="k" d="M643.088,77.122a10.841,10.841,0,0,0-6.206,1.314,20.867,20.867,0,0,0-2.579,1.7,23.145,23.145,0,0,0-2.127,2.134A16.5,16.5,0,0,0,629.2,87.41a55.734,55.734,0,0,0,4.789-3.141,41.227,41.227,0,0,1,4.485-2.771,14.461,14.461,0,0,1,4.63-1.694,11.092,11.092,0,0,1,5.261.439A6.884,6.884,0,0,0,643.088,77.122Z" transform="translate(-629.203 -77.065)"/></g><g transform="translate(20.608 29.497)"><path class="k" d="M635.031,83.93c-1.225,0-2.837,4.439,0,4.439S636.256,83.93,635.031,83.93Z" transform="translate(-633.452 -83.93)"/></g></g><g transform="translate(759.956 94.141)"><g transform="translate(10.885 33.677)"><path class="d" d="M650.443,77.5a3.984,3.984,0,0,0-5.106-2.368c-2.064.76-2.645,2.873-1.889,4.934l18.2,49.58c.756,2.064,2.566,3.3,4.63,2.54a3.976,3.976,0,0,0,2.361-5.106Zm12.187,51.1-1.48-4.029c-1.11-3.022,3.58-4.736,4.69-1.717l1.476,4.023C668.426,129.891,663.736,131.609,662.629,128.593Z" transform="translate(-643.13 -74.886)"/></g><g transform="translate(0 4.403)"><path class="l" d="M644.368,92.593c-4.194,3.488-5.79,10.086-3.458,16.431,2.563,6.992,8.95,11.16,14.912,10.166l44.293-1.371L677.9,66.023Z" transform="translate(-639.834 -66.023)"/></g><g transform="translate(0 24.339)"><path class="m" d="M655.835,98.633c-6.926-8.032-7.154-17.954-3.091-26.574l-8.376,6.635c-4.194,3.488-5.79,10.086-3.458,16.431,2.563,6.992,8.95,11.16,14.912,10.166l8.26-.258A27.075,27.075,0,0,1,655.835,98.633Z" transform="translate(-639.834 -72.059)"/></g><g transform="translate(29.082)"><path class="n" d="M663.255,65.926c-12.372,4.541-17.983,20.269-12.53,35.124s19.9,23.221,32.277,18.677S700.988,99.458,695.536,84.6,675.63,61.385,663.255,65.926Z" transform="translate(-648.64 -64.69)"/></g><g transform="translate(31.028 2.238)"><path class="d" d="M662.685,66.506c-11.391,4.181-16.556,18.657-11.536,32.33s18.323,21.372,29.714,17.194S697.416,97.373,692.4,83.7,674.076,62.324,662.685,66.506Z" transform="translate(-649.229 -65.367)"/></g><g transform="translate(31.058 25.548)"><path class="f" d="M649.238,72.795a30.98,30.98,0,0,0,1.906,9.8,29.881,29.881,0,0,0,2.715,5.578,3.49,3.49,0,0,0,.518-.159,8.034,8.034,0,0,0-5.139-15.219Z" transform="translate(-649.238 -72.425)"/></g></g><g transform="translate(780.137 165.897)"><path class="b" d="M646.193,87.241c1.354,1.443,1.582,7.563,1.582,7.563,2.679-1.387,3.075-1.569,2.913-5.013S644.684,85.62,646.193,87.241Z" transform="translate(-645.945 -86.416)"/></g><g transform="translate(843.673 87.941)"><path class="o" d="M687.71,63.072l-21.768,14a1.653,1.653,0,0,0,1.787,2.781l21.768-14a1.653,1.653,0,0,0-1.787-2.781Z" transform="translate(-665.182 -62.812)"/></g><g transform="translate(846.247 131.613)"><path class="o" d="M695.377,83.062,668.021,76.09a1.651,1.651,0,0,0-.816,3.2l27.356,6.969a1.6,1.6,0,0,0,.41.053,1.65,1.65,0,0,0,.406-3.25Z" transform="translate(-665.961 -76.035)"/></g><g transform="translate(846.881 107.712)"><path class="o" d="M682.741,68.856l-15.351,4A1.65,1.65,0,0,0,667.8,76.1a1.664,1.664,0,0,0,.42-.053l15.351-4a1.65,1.65,0,1,0-.832-3.194Z" transform="translate(-666.154 -68.799)"/></g><g transform="translate(848.328 121.167)"><path class="o" d="M691.882,72.874l-23.71,1a1.652,1.652,0,0,0,.069,3.3h.069l23.71-1a1.653,1.653,0,0,0-.139-3.3Z" transform="translate(-666.591 -72.873)"/></g><ellipse class="p" cx="72.614" cy="11.386" rx="72.614" ry="11.386" transform="translate(555.668 578.93)"/></g></svg>