<svg xmlns="http://www.w3.org/2000/svg" width="272.262" height="576.833" viewBox="0 0 272.262 576.833"><defs><style>.a{fill:#f0f0f0;}.b{fill:#36117f;}.c{fill:#ea7180;}.d{fill:#4d3382;}.e{fill:#7743e7;}.f{fill:#ffd32a;}.g{fill:#ffa800;}.h{fill:#37136e;}.i{fill:#7f5ef0;}.j{fill:#d85d75;}.k{fill:#b1a5ff;}.l{fill:#a387ff;}.m{fill:#fff;}.n{fill:#4ccfd8;}.o{fill:#725ae5;}.p{fill:#2c135d;}.q{fill:#c8e4e9;}</style></defs><g transform="translate(-681.957 -63.041)"><ellipse class="a" cx="133.307" cy="30.594" rx="133.307" ry="30.594" transform="translate(681.957 578.686)"/><g transform="translate(731.345 417.729)"><path class="b" d="M790.734,175.418c-2.21,5.872-21.407,8.023-42.873,4.806s-37.576-7.929-35.365-13.8,31.92-15.795,53.39-12.57S792.948,169.546,790.734,175.418Z" transform="translate(-712.292 -153.224)"/></g><g transform="translate(744.724 407.507)"><path class="c" d="M719.87,162.822c14.017-25.277,52.824-3.426,52.824-3.426L748.88,339.628s-9.687,2.281-15.523-.857C735.673,310.457,704.764,190.073,719.87,162.822Z" transform="translate(-715.694 -150.625)"/></g><g transform="translate(758.161 589.195)"><g transform="translate(0 15.96)"><path class="d" d="M721.881,201.441s-4.094,1.546-2.328,4.244,12.629,3.3,12.629,3.3,2.91-2.458,5.416-2.336,6.285,3.709,9.687,3.685,14.749-1.628,17.817-4.849-.869-4.6-.869-4.6Z" transform="translate(-719.111 -200.879)"/></g><g transform="translate(1.382)"><path class="e" d="M721.767,201.214a10.977,10.977,0,0,0-.916,12.129s12.813,4.539,17.415,4.605,19.043,1.483,25.321-3.508c0,0,1.982-4.83-7.253-5.243s-16.806-12.377-16.806-12.377-3.964,4.928-8.578,6.753S721.767,201.214,721.767,201.214Z" transform="translate(-719.462 -196.821)"/></g></g><g transform="translate(716.863 263.107)"><path class="f" d="M723.2,282.041c-13.1-49.056-16.365-83.8-13.766-98.222,5.982-33.175,28.412-57.579,50.488-66.53,17.887-7.248,56.67-4.869,54.208,27.539-1.184,15.582,2.513,67.47-12.307,145.311C801.664,272.492,739.845,264.964,723.2,282.041Z" transform="translate(-708.61 -113.91)"/></g><g transform="translate(743.195 263.107)"><path class="g" d="M740.286,117.289A75.906,75.906,0,0,0,715.52,134.2c6.525,16.188,9.058,44.659,2.12,63.443-7.512,20.345,5.408,44.4,6.541,47.77,2.482,7.394,13.939,20.062,14.54,27.023,21.286.932,43.373,7.107,43.467,17.7,14.82-77.841,11.123-129.729,12.307-145.311C796.956,112.42,758.173,110.041,740.286,117.289Z" transform="translate(-715.305 -113.91)"/></g><g transform="translate(914.181 287.788)"><path class="c" d="M777.578,121.774c4.9-2.533,7.909,5.14,11.248,6.493,1.668.676-2.906,2.218-7.142-.846a83.4,83.4,0,0,0,8.766,8c4.122,3.28-1.959,8.657-4.271,12.409-.932,1.51-1.5,3.264-3.276,2.729-3.229-.975-6.879-2.883-10.611-8.118-6.812-9.553-7.642-7.7-12.3-11.138-4.736-3.5,5.958-11.115,5.958-11.115S772.678,124.3,777.578,121.774Z" transform="translate(-758.78 -120.185)"/></g><g transform="translate(813.097 88.473)"><path class="h" d="M737.119,69.507s-7.256,4.845-2.32,20.805c0,0,9.309-2.47,9.3-8.57S737.119,69.507,737.119,69.507Z" transform="translate(-733.079 -69.507)"/></g><g transform="translate(800.659 141.425)"><path class="i" d="M789.551,101.379c5.554,25.891,23.909,68.143,24.121,86.411s-20.53,21.812-28.322,12.46C759.319,168.994,740.842,115.526,731,96.4,720.9,76.79,784.71,78.831,789.551,101.379Z" transform="translate(-729.916 -82.971)"/></g><g transform="translate(853.205 232.184)"><path class="i" d="M818.708,163.551c-2.132-3.17-34.689-41.241-37.226-44.781-12.33-17.2-35.168-11.976-35.168-11.976-16.664,34.036,40.273,57.693,48.859,64.823.275.228,2.568.393,2.855.586.747.492-1.967.83-1.6,1.557.716,1.447,3.327.562,4.346,1.534C804.353,175.137,813.112,167.393,818.708,163.551Z" transform="translate(-743.277 -106.047)"/></g><g transform="translate(851.238 388.388)"><path class="b" d="M812.927,151.232c3,5.168-10.19,18.442-29.466,29.647s-37.336,16.113-40.336,10.949,13.864-27.936,33.139-39.145S809.922,146.072,812.927,151.232Z" transform="translate(-742.776 -145.764)"/></g><g transform="translate(835.17 391.845)"><path class="j" d="M769.6,163.264c16.255-17.6,46.2-28.278,52.772,5.1,5.109,25.958-71.536,172.913-71.536,172.913s-10.694-5.868-12.149-9.16C755.036,292.533,752.079,182.233,769.6,163.264Z" transform="translate(-738.691 -146.643)"/></g><g transform="translate(743.891 280.708)"><g transform="translate(0 0)"><path class="f" d="M823.35,272.392C773.716,248.81,745,230.4,735.421,219.478c-22.033-25.139-24.223-54.79-14.261-74.235,8.074-15.763,53.9-40.27,78.046-17.809,11.614,10.8,42.445,44.073,93.526,103.539C878.42,219.675,822.56,251.052,823.35,272.392Z" transform="translate(-715.483 -118.385)"/></g><g transform="translate(0.046 0)"><path class="g" d="M799.172,127.435c-24.148-22.461-69.971,2.045-78.046,17.809a54.248,54.248,0,0,0-5.632,23.948c.267-.016,44.442-16.09,59.588-6.061,9.309,6.171,2.312,16.636,13.939,19.012,28.341,5.8,50.228,32.368,52.355,43.931,1.377,7.5-.456,16.259-4.145,24.07,17.332-15.016,45.823-26.78,55.466-19.169C841.616,171.512,810.786,138.239,799.172,127.435Z" transform="translate(-715.494 -118.385)"/></g><g transform="translate(10.711 33.702)"><path class="e" d="M813.164,232.011q-2.053-.8-4.267-1.691c-.621-.248-1.258-.515-1.9-.779-1.38-.574-2.792-1.164-4.247-1.8-.618-.267-1.251-.551-1.876-.826-1.388-.614-2.792-1.247-4.232-1.911-.649-.3-1.31-.617-1.966-.928q-2.077-.979-4.193-2.025c-.6-.3-1.2-.6-1.805-.9q-2.065-1.044-4.157-2.155c-.59-.311-1.176-.621-1.77-.94-1.377-.743-2.761-1.514-4.149-2.3-.578-.326-1.152-.653-1.73-.987-1.377-.8-2.761-1.616-4.138-2.458-.562-.342-1.121-.7-1.683-1.046q-2.106-1.3-4.2-2.682c-.523-.342-1.038-.688-1.561-1.038q-2.089-1.41-4.157-2.887c-.507-.362-1.018-.72-1.526-1.089q-2.071-1.516-4.106-3.107c-.5-.382-.979-.775-1.471-1.168q-2.047-1.634-4.047-3.339l-.37-.311c-.4-.342-.724-.7-1.105-1.046-1.333-1.2-2.615-2.4-3.831-3.622-.48-.48-.967-.96-1.428-1.443-1.282-1.349-2.47-2.71-3.614-4.082-.436-.523-.9-1.042-1.314-1.565-1.188-1.491-2.289-2.989-3.331-4.491-.405-.586-.8-1.164-1.184-1.746-1.121-1.707-2.191-3.41-3.146-5.1-.338-.606-.61-1.2-.928-1.793q-1.5-2.82-2.726-5.581c-.283-.641-.555-1.274-.818-1.915-.853-2.061-1.62-4.086-2.273-6.069-.224-.673-.456-1.349-.661-2.014-.7-2.293-1.255-4.484-1.727-6.6-.177-.795-.37-1.609-.519-2.376-.484-2.47-.814-4.731-1.058-6.824-.1-.877-.2-1.742-.271-2.541-.267-3.127-.311-5.6-.291-7.284.024-1.5.087-2.419.095-2.478l-.311-.031-.861-.079c0,.031-.028.37-.051.846-.031.6-.055,1.514-.051,2.729,0,1.837.094,4.295.381,7.292.079.794.185,1.648.291,2.513.263,2.1.641,4.389,1.14,6.839.157.775.335,1.565.519,2.368.5,2.136,1.054,4.334,1.778,6.639.2.645.468,1.318.692,1.974.672,2,1.455,4.035,2.332,6.108.267.633.527,1.266.814,1.908q1.245,2.761,2.765,5.573c.326.606.614,1.207.964,1.817.968,1.7,2.029,3.394,3.162,5.089.381.574.794,1.141,1.2,1.715,1.062,1.514,2.155,3.024,3.359,4.523.425.531.912,1.046,1.353,1.573,1.156,1.369,2.332,2.741,3.618,4.09.456.476.964.94,1.436,1.416,1.223,1.223,2.493,2.431,3.835,3.626.346.311.641.633.995.94.157.134.326.26.484.393,1.329,1.137,2.706,2.214,4.074,3.3.488.389.964.8,1.455,1.184,1.361,1.058,2.737,2.069,4.126,3.083.5.362,1.011.728,1.514,1.093,1.011.72,2,1.483,3.02,2.179.37.252.751.484,1.121.732.519.35,1.042.684,1.565,1.03,1.392.916,2.789,1.829,4.189,2.7.562.35,1.124.68,1.683,1.027,1.384.842,2.761,1.679,4.137,2.474.578.338,1.148.649,1.727.975,1.388.787,2.773,1.573,4.149,2.317.59.322,1.176.617,1.762.932,1.4.739,2.785,1.471,4.157,2.167.606.307,1.2.594,1.8.893,1.4.692,2.793,1.377,4.161,2.025.653.311,1.29.606,1.939.9q2.142,1,4.208,1.915c.637.283,1.262.559,1.888.83,1.447.629,2.851,1.231,4.232,1.8.633.26,1.282.539,1.9.787,1.475.606,2.887,1.16,4.252,1.691.661.252,1.3.5,1.931.739,1.872.712,3.595,1.341,5.2,1.915.228-.334.44-.669.684-1-1.561-.555-3.26-1.176-5.082-1.864Q814.159,232.395,813.164,232.011Z" transform="translate(-718.206 -126.954)"/></g></g><g transform="translate(704.061 132.065)"><path class="k" d="M857.03,267.687c-10.764-.928-33.772-20.75-83.811-1.5-15.791,6.073-52.58,34.358-67.863,33.446,12.054-52.918,35.074-164.9,48.572-190.525,7.941-15.146,26.068-24.892,42.22-27.385,37.579-5.813,54.885,12.436,59.64,17.836C870.7,116.5,848.7,237.694,857.03,267.687Z" transform="translate(-705.355 -80.591)"/></g><g transform="translate(710.322 142.261)"><path class="l" d="M852.852,94.848c-2.462-5.211-9.184-11.547-11.575-11.626-22.272-.7-36.5,8-57.9,16.338-16.44,6.415-18.827,32.856-6.828,39.243,10.316,5.494,34.107,6.34,43.085,12.393,14.06,9.482-24.388,14.859-5.7,28.907,11.449,8.6-11.98,13.573-9.53,16.794s22.021,3.819,24.522,7.732c3.768,5.892,3.728,6.458,1.1,12.259-10.481,23.177-73.885,14.749-123.086,74.3,17.435-4.645,47.675-27.252,61.6-32.6,50.039-19.248,73.047.574,83.811,1.5C844.4,231.412,865.044,120.613,852.852,94.848Z" transform="translate(-706.947 -83.183)"/></g><g transform="translate(791.809 102.191)"><path class="c" d="M752.318,74.883s-5.892,25.462-24.652,29.725c0,0,8.649,6.977,29.253,7.256,7.89.106,16.011-3.013,16.011-3.013a19.872,19.872,0,0,1-10.922-12.283c-3.976-12.18,3.2-23.574,3.2-23.574Z" transform="translate(-727.666 -72.995)"/></g><g transform="translate(812.633 86.308)"><path class="c" d="M737.052,86.775s-.786,3.268,1.943,9.447,11.193,12.857,13.718,11.079c11.528-8.114,16.16-23.818,13.883-29.627s-17.006-11.8-21.265-6.922a32.111,32.111,0,0,0-5.617,8.361s-.161-1.628-2.257-1.636-5.3,3.614-4.311,6.485A4.169,4.169,0,0,0,737.052,86.775Z" transform="translate(-732.961 -68.957)"/></g><g transform="translate(759.522 63.04)"><g transform="translate(0 79.191)"><path class="k" d="M733.491,85.289c8.287-2.69,71.541-3.5,89.038,1.746s15.307,24.809,3.961,29.21-74.18,18.21-87.941,15.413C716.937,127.27,711.553,92.4,733.491,85.289Z" transform="translate(-719.456 -83.176)"/></g><g transform="translate(27.316 79.259)"><path class="m" d="M742.618,83.193c-5.963.094-11.536.271-16.216.539a71.4,71.4,0,0,1,9.014,23.657,72.963,72.963,0,0,1,.46,23.637c4.432-.531,9.337-1.262,14.434-2.12C754.652,118.684,751.644,99.574,742.618,83.193Z" transform="translate(-726.402 -83.193)"/></g><g transform="translate(155.098)"><path class="c" d="M760.858,81.3c-2.973-4.645,4.389-8.35,5.427-11.8.519-1.719,2.478,2.69-.181,7.189,0,0,6.953-6.741,10.651-12.4,2.883-4.409,5.3,4.082,9.25,6.033,1.593.791,3.488,2.568,3.119,4.385-.669,3.3-2.234,7.111-7.1,11.315C773.145,93.692,771.19,100.8,771.19,100.8c-6.635,2.151-12.3-4.118-12.3-4.118S763.832,85.956,760.858,81.3Z" transform="translate(-758.892 -63.04)"/></g><g transform="translate(87.179 27.855)"><path class="k" d="M751.881,154.694c-6.033-1.99-18.253-14.544-2.6-28.8,12.747-11.606,49.642-41.855,60.769-55.773,5.651.444,15.036,5.6,16.491,9.887C810.168,120.249,771.542,161.171,751.881,154.694Z" transform="translate(-741.623 -70.123)"/></g></g><g transform="translate(816.064 78.101)"><path class="h" d="M744.114,78.91s14.8,13.022,23.975,9.954,5.349-11.445-1.117-9.911c0,0-7.949-13.8-17.049-11.905s-8.6,6.619-8.6,6.619c-6.576-4.232-8.641,5.4-6.906,14.973C736.59,100.62,744.114,78.91,744.114,78.91Z" transform="translate(-733.833 -66.87)"/></g><g transform="translate(827.021 113.601)"><path class="m" d="M747.191,78.657s-6.061.307-10.572-2.761c0,0,.688,6.265,3.669,7.182S747.191,78.657,747.191,78.657Z" transform="translate(-736.619 -75.896)"/></g><g transform="translate(833.41 239.527)"><path class="m" d="M835.185,187.71H745c-4.515,0-7.477-3.666-6.607-8.181l12.176-63.435a10.39,10.39,0,0,1,9.754-8.181h90.183c4.519,0,7.477,3.662,6.607,8.181l-12.18,63.435A10.386,10.386,0,0,1,835.185,187.71Z" transform="translate(-738.244 -107.914)"/><g transform="translate(1.786)"><path class="n" d="M835.639,187.71H745.46c-4.519,0-7.48-3.666-6.611-8.181l12.18-63.435a10.385,10.385,0,0,1,9.75-8.181h90.183c4.519,0,7.477,3.662,6.607,8.181l-12.177,63.435A10.394,10.394,0,0,1,835.639,187.71Z" transform="translate(-738.697 -107.914)"/></g><g transform="translate(107.27 4.519)"><path class="o" d="M773.085,112.866a4.756,4.756,0,0,1-4.511,3.7,3.012,3.012,0,0,1-2.977-3.8,4.763,4.763,0,0,1,4.515-3.709A3.015,3.015,0,0,1,773.085,112.866Z" transform="translate(-765.518 -109.063)"/><g transform="translate(0.735 0.724)"><path class="p" d="M771.817,112.315a3.85,3.85,0,0,1-3.642,3,2.437,2.437,0,0,1-2.407-3.068,3.851,3.851,0,0,1,3.646-3A2.434,2.434,0,0,1,771.817,112.315Z" transform="translate(-765.705 -109.247)"/></g><g transform="translate(0.817 6.788)"><path class="o" d="M769.66,112.764a2.479,2.479,0,0,1-2.348,1.927,1.568,1.568,0,0,1-1.546-1.978,2.475,2.475,0,0,1,2.348-1.923A1.565,1.565,0,0,1,769.66,112.764Z" transform="translate(-765.726 -110.789)"/></g><g transform="translate(1.74 7.693)"><path class="p" d="M768.066,112.077a1.33,1.33,0,0,1-1.254,1.034.842.842,0,0,1-.83-1.062,1.327,1.327,0,0,1,1.255-1.03A.838.838,0,0,1,768.066,112.077Z" transform="translate(-765.96 -111.019)"/></g><g transform="translate(2.419 1.982)"><path class="m" d="M767.793,110.027a.982.982,0,0,1-.59,1.113.721.721,0,0,1-1.038-.374.98.98,0,0,1,.59-1.113A.717.717,0,0,1,767.793,110.027Z" transform="translate(-766.133 -109.567)"/></g><g transform="translate(3.4 3.667)"><path class="m" d="M766.447,110.615a.378.378,0,0,1,.09-.511.369.369,0,0,1,.515-.008.378.378,0,0,1-.091.511A.361.361,0,0,1,766.447,110.615Z" transform="translate(-766.382 -109.995)"/></g></g><g transform="translate(39.043 71.179)"><path class="q" d="M780.922,129.642H749.671a1.458,1.458,0,0,1-1.467-1.817h0a2.31,2.31,0,0,1,2.167-1.813h31.252a1.456,1.456,0,0,1,1.467,1.813h0A2.31,2.31,0,0,1,780.922,129.642Z" transform="translate(-748.17 -126.012)"/></g></g><g transform="translate(934.266 298.882)"><path class="c" d="M778.682,125c-1.148-2.151-4.133-2.3-6.269-1.672-4.023,1.172-2.6,5.675-4.31,9.266-1.746,3.654-4.786,5.483-4.122,7.913s3.253,5.538,6.686,2.9S780.318,128.056,778.682,125Z" transform="translate(-763.887 -123.006)"/></g><g transform="translate(821.818 572.94)"><g transform="translate(0 7.209)"><path class="d" d="M740.015,195.076s-3.957-1.876-4.668,1.27,6.395,11.378,6.395,11.378,3.787.385,5.439,2.273,1.7,7.1,4.078,9.53,11.414,9.482,15.865,9.451,2.706-3.823,2.706-3.823Z" transform="translate(-735.296 -194.521)"/></g><g transform="translate(4.719)"><path class="e" d="M745.86,192.688a10.974,10.974,0,0,0-9.364,7.764s5.636,12.369,8.779,15.728,12.156,14.733,20.113,15.783c0,0,4.845-1.927-1.266-8.857s-2.769-20.691-2.769-20.691-6.3.57-10.811-1.479S745.86,192.688,745.86,192.688Z" transform="translate(-736.496 -192.688)"/></g></g></g></svg>