<svg xmlns="http://www.w3.org/2000/svg" width="529.054" height="507.957" viewBox="0 0 529.054 507.957"><defs><style>.a{fill:#f0f0f0;}.b{fill:#42375b;}.c{fill:#4ccfd8;}.d{fill:#231b3d;}.e{fill:#c6e2e7;}.f{fill:#c9e5ea;}.g{fill:#d3485c;}.h{fill:#1dafb2;}.i{fill:#ea7180;}.j{fill:#da0032;}.k{fill:#ffac00;}.l{fill:#ff8a00;}.m{fill:#e6f6f7;}.n{fill:#a387ff;}.o{fill:#7f6ced;}.p{fill:#00c7ff;}.q{fill:#fff;}.r{fill:#1d0453;}.s{fill:#b3a7ff;}</style></defs><g transform="translate(-416.662 -79.771)"><ellipse class="a" cx="264.527" cy="29.497" rx="264.527" ry="29.497" transform="translate(416.662 528.734)"/><g transform="translate(416.663 79.771)"><g transform="translate(32.59 215.771)"><path class="b" d="M437.215,132.392l-5.378,253.693h-7.226l2.227-253.693Z" transform="translate(-424.611 -132.392)"/></g><g transform="translate(268.785 215.771)"><path class="b" d="M494.816,132.392l-5.378,253.693h-7.226l2.226-253.693Z" transform="translate(-482.212 -132.392)"/></g><g transform="translate(204.867 29.281)"><g transform="translate(160.632 19.439)"><g transform="translate(3.829)"><path class="c" d="M514.234,107.523a3.413,3.413,0,0,1-2.087-.107,6.3,6.3,0,0,1-2.583-1.874,12.4,12.4,0,0,1-2.682-9.665,6.261,6.261,0,0,1,1.243-2.936,3.447,3.447,0,0,1,1.738-1.173c2.674-.746,5.827,2.177,7.037,6.524S516.916,106.777,514.234,107.523Z" transform="translate(-506.731 -91.653)"/></g><g transform="translate(0 0.116)"><path class="d" d="M517.13,107.435l-3.822,1.058c-2.682.75-5.835-2.173-7.036-6.528s-.025-8.48,2.657-9.226l3.83-1.058a3.447,3.447,0,0,0-1.739,1.173,6.261,6.261,0,0,0-1.243,2.936,12.4,12.4,0,0,0,2.682,9.665,6.3,6.3,0,0,0,2.583,1.874A3.413,3.413,0,0,0,517.13,107.435Z" transform="translate(-505.798 -91.681)"/></g></g><g transform="translate(61.142 22.835)"><g transform="translate(137.427 274.633)"><path class="d" d="M545.053,184.662h3.28v-5.749a8.136,8.136,0,0,0-8.127-8.127H523.176a4.854,4.854,0,0,1-4.847-4.847v-6.483h-3.281v6.483a8.136,8.136,0,0,0,8.127,8.127h17.029a4.854,4.854,0,0,1,4.847,4.847Z" transform="translate(-515.049 -159.456)"/><g transform="translate(27.412 20.978)"><path class="e" d="M521.734,168.8a4.232,4.232,0,1,0,4.232-4.228A4.232,4.232,0,0,0,521.734,168.8Z" transform="translate(-521.734 -164.572)"/></g></g><g transform="translate(71.72)"><path class="d" d="M667.1,92.481h-83.38A22.912,22.912,0,0,0,561,112.459l-29.27,193.32c-.18,12.416-5.417,25.358-14.8,36.683l-17.9,26.6h98.241a53.5,53.5,0,0,0,39.976-17.948l9.193-10.341c9.153-10.288,14.82-22.1,16.255-33.788l27.15-188.809A22.914,22.914,0,0,0,667.1,92.481Z" transform="translate(-499.025 -92.481)"/></g><g transform="translate(53.763)"><path class="b" d="M666.86,92.481H583.484a22.913,22.913,0,0,0-22.725,19.978l-29.266,193.32c-.18,12.416-5.421,25.358-14.8,36.683l-22.049,26.6,116.947-7.52c12.183,0,14.081,2.309,22.18-6.8L646.2,340.777c9.152-10.288,14.819-22.1,16.254-33.788l27.154-188.809A22.919,22.919,0,0,0,666.86,92.481Z" transform="translate(-494.646 -92.481)"/></g><g transform="translate(184.23 384.872)"><g transform="translate(7.557)"><path class="d" d="M528.306,218.726H541.92c4.174,0,7.561-7.246,7.561-16.193s-3.387-16.193-7.561-16.193H528.306Z" transform="translate(-528.306 -186.34)"/></g><path class="b" d="M534.02,186.34c4.174,0,7.561,7.25,7.561,16.193s-3.387,16.193-7.561,16.193-7.557-7.246-7.557-16.193S529.846,186.34,534.02,186.34Z" transform="translate(-526.463 -186.34)"/><g transform="translate(4.416 4.839)"><path class="d" d="M527.54,198.878c0,.861.041,1.722.082,2.542.328,5.048,1.6,8.816,3.075,8.816,1.312,0,2.378-2.87,2.87-6.93a36.966,36.966,0,0,0,.246-4.429,32.768,32.768,0,0,0-.615-6.762c-.574-2.792-1.476-4.6-2.5-4.6-.779,0-1.517,1.066-2.05,2.788A28.812,28.812,0,0,0,527.54,198.878Z" transform="translate(-527.54 -187.52)"/></g></g><g transform="translate(37.87 276.577)"><path class="f" d="M490.77,279.379l2.583,10.128L569.3,264.043l72.333,22.922,5.946,1.886a36.978,36.978,0,0,0,.246-4.429,32.767,32.767,0,0,0-.615-6.762l-4.552-1.808-64.378-24.845.041-91.077H560.274l.041,91.077Z" transform="translate(-490.77 -159.93)"/></g><g transform="translate(110.385 369.67)"><g transform="translate(0 0)"><rect class="f" width="12.017" height="32.388" transform="translate(12.017 32.388) rotate(180)"/></g></g><g transform="translate(0 249.575)"><path class="b" d="M483.709,172.65l.131.185H663.764c.3-.611.591-1.218.873-1.829a12.45,12.45,0,0,0-11.3-17.661H494.079C484.16,153.345,478.034,164.515,483.709,172.65Z" transform="translate(-481.535 -153.345)"/><g transform="translate(2.306 19.49)"><path class="d" d="M482.1,158.1H662.02l-.037.074a13.632,13.632,0,0,1-12.289,7.447H488.15A70.169,70.169,0,0,1,482.1,158.1Z" transform="translate(-482.097 -158.098)"/></g></g><g transform="translate(23.497 384.872)"><g transform="translate(7.561)"><path class="d" d="M489.109,218.726h13.614c4.178,0,7.561-7.246,7.561-16.193s-3.383-16.193-7.561-16.193H489.109Z" transform="translate(-489.109 -186.34)"/></g><path class="b" d="M494.826,186.34c4.174,0,7.557,7.25,7.557,16.193s-3.383,16.193-7.557,16.193-7.561-7.246-7.561-16.193S490.652,186.34,494.826,186.34Z" transform="translate(-487.265 -186.34)"/><g transform="translate(4.437 4.83)"><path class="d" d="M491.472,187.518c1.726,0,3.125,5.089,3.125,11.363s-1.4,11.367-3.125,11.367-3.125-5.089-3.125-11.367S489.745,187.518,491.472,187.518Z" transform="translate(-488.347 -187.518)"/></g></g><g transform="translate(107.344 384.871)"><g transform="translate(0 0)"><path class="d" d="M1.205,0H18.62a1.206,1.206,0,0,1,1.206,1.206V31.182a1.206,1.206,0,0,1-1.206,1.206H1.206A1.206,1.206,0,0,1,0,31.182V1.205A1.205,1.205,0,0,1,1.205,0Z" transform="translate(19.826 32.388) rotate(180)"/></g></g></g><g transform="translate(0 231.827)"><g transform="translate(0.502)"><path class="g" d="M476.192,337.986c4.253-2.743,12.335-16.812,14.02-18.559,13.7-14.217,16.82-156.111,40.075-171.886,14.885-10.1,40.173-1.132,38.939,22.77-1.575,30.492-60.36,120.31-61.324,140.251-.107,2.235,3.908,5.536,2.526,10.969-1.115,4.383-5.327,5.142-6.959,6.987-15.664,17.731-36.462,15.611-36.716,13.843S474.007,339.392,476.192,337.986Z" transform="translate(-466.747 -143.448)"/></g><g transform="translate(0 174.794)"><path class="b" d="M471.184,209.423a9.265,9.265,0,0,0,4.023.217c4.732-.746,9.895-3.207,13.958-5.716,3.957-2.444,6.278-10.428,9.96-13.085,3.075-2.222,8.718-4.654,12.4-4.765.463,1.181,4.789,10.12-6.922,13.565-4.465,1.312-14.676,13.068-19.883,14.975-4.261,1.558-12.01,3.563-16.066.533a4.623,4.623,0,0,1-1.829-5.15C467.075,209.136,468.781,210.3,471.184,209.423Z" transform="translate(-466.624 -186.075)"/></g><g transform="translate(0.209 170.98)"><path class="h" d="M473.244,209.289c.217.775.951,1.378,2.407,1.144a25.93,25.93,0,0,0,11.97-4.547c3.83-2.657,8.271-11.6,11.949-14.253,3.079-2.223,7.422-6.372,11.1-6.487.463,1.185,6.089,11.842-5.626,15.287-4.465,1.312-14.676,13.068-19.879,14.971-4.26,1.558-13.073,3.063-17.165.09-.537-.394-1.6-1.652-1.267-2.846C466.975,211.782,470.842,210.166,473.244,209.289Z" transform="translate(-466.675 -185.145)"/></g></g><g transform="translate(19.28 180.847)"><g transform="translate(0 0.729)"><path class="i" d="M629.685,208.2c-21.257-.443-121.843-13.815-147.644-21.249-12.129-3.494-19.149-27.293,8.136-40.69,27.31-13.4,116.267-19.2,142.112-11.875C648.937,139.106,650.943,208.647,629.685,208.2Z" transform="translate(-471.326 -131.193)"/></g><g transform="translate(75.352)"><path class="c" d="M489.7,133.687c31.714-4.236,70.074-3.149,85.611,1.255,16.648,4.716,18.653,74.257-2.6,73.814-10.01-.209-47.078-4.7-73.322-8.246C507.523,174.286,501.167,146.645,489.7,133.687Z" transform="translate(-489.702 -131.016)"/></g><g transform="translate(85.038 21.341)"><path class="h" d="M492.708,137.778c9.854-1.341,62.562-2.924,79.12.5a17.442,17.442,0,0,0,7.254.037c4.511,22.04.869,54.6-13.7,54.3-10.01-.209-47.078-4.7-73.322-8.246A83.048,83.048,0,0,0,492.708,137.778Z" transform="translate(-492.064 -136.22)"/></g></g><g transform="translate(54.916 197.338)"><g transform="translate(0 0)"><path class="g" d="M627.4,208.887c-21.089,2.715-107.528,4.338-134.145.812-12.515-1.652-22.988-24.152,2.013-41.44,25.021-17.308,112.133-36.228,138.778-32.821C683.721,141.79,680.978,201.986,627.4,208.887Z" transform="translate(-480.016 -135.037)"/></g><g transform="translate(51.3)"><path class="c" d="M492.527,151.05c7.135,5.987,14.622.258,22.655,21.528,2.981,7.906,4.867,30.114,14.7,38.947,26.723.693,72.489-.148,82.413-1.415,38-4.871,29.512-75.073-3.867-75.073C592.3,135.037,534.381,136.366,492.527,151.05Z" transform="translate(-492.527 -135.037)"/></g><g transform="translate(78.196)"><path class="h" d="M588.088,135.037c-7.525,0-24.181.3-44.04,2.1a12.906,12.906,0,0,1,1.078,1.05c5.421,6.389,11.834,10.325,10.009,19.924-1.5,7.91-8.029,14.13-14.594,18.108-9.013,5.454-19.166,7.188-29.151,9.96-4.158,1.152-8.23,2.366-12.306,3.461,2.1,8.279,5.1,17.07,10.456,21.88,26.723.693,72.489-.144,82.413-1.415C629.959,205.238,621.467,135.037,588.088,135.037Z" transform="translate(-499.086 -135.037)"/></g></g><g transform="translate(19.279 199.757)"><path class="i" d="M496.808,343.36c2.887-4.158,5-20.24,5.892-22.5,7.254-18.366-43.929-150.748-28.437-174.191,9.915-15.008,36.712-16.353,44.675,6.216,10.161,28.79-9.968,134.235-3.26,153.036.75,2.108,5.72,3.629,6.512,9.177.639,4.482-2.965,6.786-3.769,9.111-7.73,22.364-27.765,28.326-28.671,26.793S495.323,345.5,496.808,343.36Z" transform="translate(-471.326 -135.627)"/><g transform="translate(18.061 176.163)"><path class="b" d="M479.543,215.55a9.322,9.322,0,0,0,3.8-1.337c4.092-2.5,7.93-6.733,10.731-10.608,2.727-3.768,1.829-12.031,4.219-15.89,2-3.223,6.29-7.623,9.653-9.128.877.91,8.287,7.533-1.234,15.18-3.625,2.911-8.587,17.673-12.675,21.417-3.346,3.063-9.747,7.873-14.651,6.614a4.618,4.618,0,0,1-3.654-4.064C475.635,216.846,477.657,217.268,479.543,215.55Z" transform="translate(-475.73 -178.588)"/></g><g transform="translate(18.032 173.408)"><path class="c" d="M480,214.7c1.263-.143,9.218-3.58,12.154-9.206,2.854-5.478,3.539-14,5.929-17.854,2-3.227,5.113-8.222,8.476-9.722.877.914,9.464,8.119-.057,15.771-3.625,2.916-8.586,17.673-12.675,21.413-3.346,3.067-10.915,7.82-15.836,6.626-.648-.16-2.1-.923-2.259-2.149C475.62,218.684,478.109,216.424,480,214.7Z" transform="translate(-475.723 -177.916)"/></g></g><g transform="translate(225.574 34.03)"><path class="j" d="M521.635,99.061c9.554,3.153,18.67,8.759,24.082,17.452a32.21,32.21,0,0,1,4.8,14.417A39.954,39.954,0,0,1,548.58,146.3a40.5,40.5,0,0,0,2.96-15.43,33.766,33.766,0,0,0-4.047-15.381c-5.13-9.612-14.516-16.283-24.456-20.281Z" transform="translate(-521.635 -95.211)"/></g><g transform="translate(117.263 40.763)"><path class="j" d="M495.221,170.183a92.037,92.037,0,0,0,9.735-6.983c2.977-2.6,5.827-5.888,6.516-10.063.89-4.129-.873-8.316-2.079-11.9a31.018,31.018,0,0,1-1.533-11.449,27.079,27.079,0,0,1,10.76-19.412c5.979-4.822,13.392-7.668,20.88-9.554l-1.041-3.969c-7.807,2.333-15.553,5.663-21.815,11.166a29.645,29.645,0,0,0-10.83,21.671,32.73,32.73,0,0,0,2.124,12.043c.709,1.935,1.538,3.727,2.059,5.556a13.49,13.49,0,0,1,.463,5.683c-.451,3.859-3.014,7.159-5.848,9.845A92.119,92.119,0,0,1,495.221,170.183Z" transform="translate(-495.221 -96.853)"/></g><g transform="translate(130.275)"><path class="j" d="M620.5,212.691s-75.3,20.482-113.691,1.575c3.215-7.787,7.414-20.675.271-29.483-11.99-14.774-13.511-38,7.939-49.321,26.99-14.237,20.527-26.621,21.458-33.5C537.9,91.455,547.538,85.05,558.072,87.4c24.271,5.417,12.835,28.876,30.483,32.636,23.713,5.056,32.132,23.619,27.1,41.969-1.411,5.138.545,9.013,3.789,12.835C635.662,193.981,620.5,212.691,620.5,212.691Z" transform="translate(-498.394 -86.912)"/></g><g transform="translate(112.34 67.541)"><path class="i" d="M554.222,130.142c-9.353,25.177-20.835,34.567-35.65,51.634-12.765,14.7-31.533,1.493-21.9-13.4,14.873-22.992,28.687-50.506,43.236-63.226C548.088,98,560.3,113.8,554.222,130.142Z" transform="translate(-494.021 -103.383)"/></g><g transform="translate(42.088 126.549)"><path class="i" d="M569.552,139.578c-24.771,18.12-78.722,9.353-87.44,11.65-7.369,1.94-5.54-10.1-2.969-11.039,23.34-8.546,68.524-19.806,73.646-21.9C563.59,113.867,569.552,139.578,569.552,139.578Z" transform="translate(-476.888 -117.774)"/></g><g transform="translate(16.712 146.186)"><path class="i" d="M483.585,123.45c8.053,4.174,19.063.537,19.063.537l2.063,11.354s-6.331,1.435-8.595,6.065-10.128-.07-12.392.262c-1.882.275,2.157-4.826,7.861-3.047-2.673-1.054-5.667-2.419-11.1-1.611-4.863.726-6.167-5.081-9.124-8.181a2.371,2.371,0,0,1,.935-3.875C475.249,123.889,479.165,121.166,483.585,123.45Z" transform="translate(-470.7 -122.563)"/></g><g transform="translate(161.54 27.961)"><path class="i" d="M536.08,119.245c-3.342-11.465-1.4-25.514-1.4-25.514L523.34,94.953s5.023,13.679,4.027,25.719a6.712,6.712,0,0,1-5.191,5.86c-4.785,1.152-12.3,3.637-16.156,8.48,0,0,8.886,27.679,28.281,25.591s25.829-31.418,25.829-31.418c-4.794-3.9-12.646-4.736-17.571-4.847A6.94,6.94,0,0,1,536.08,119.245Z" transform="translate(-506.019 -93.731)"/></g><g transform="translate(179.251 80.24)"><path class="g" d="M518.461,121.185l-2.1-14.7-6.019,13.579Z" transform="translate(-510.338 -106.48)"/></g><g transform="translate(133.292 56.073)"><path class="k" d="M499.13,225.831s23.2,30.619,113.646,35.646c-2.747-42.4-22.955-70.041-24.71-92.352-1.767-22.364,6.659-32.64-4.15-42.071-8.976-7.824-1.177-20.663-1.177-20.663-4.945-1.46-9.337-2.493-9.337-2.493s.086-8.632-12.416,1.981c-5.638,4.835-13.356,3.026-17.866-.041-9.886-6.819-8.689,2.284-8.689,2.284s-4.068,1.919-8.6,4.4c0,0,10.333,10.883,3.264,20.408-8.586,11.584,1.144,16.759,7.648,35.687C543.207,187.548,514.573,220.02,499.13,225.831Zm39.939-97.671c.841-3.76,4.654-8.168,3.793-11.842a27.934,27.934,0,0,0,15.234,1.05,24.079,24.079,0,0,0,8.935-4.019,25.928,25.928,0,0,0,3.035,13.019c-7.562,1.689-18.4,7.155-20.445,12.654C547.086,133.876,545.036,129.476,539.069,128.16Z" transform="translate(-499.13 -100.587)"/></g><g transform="translate(158.004 96.624)"><path class="l" d="M505.241,176.8c8.2,4.01,16,8.5,24.944,10.469,8.574,1.882,25.641-2.944,30.369,5.4,2.395,4.228.8,10.731-2.083,14.91-7.033,10.2-20.064,12.388-32.2,12.314,16.644,5.044,38.742,9.308,67.823,10.924-2.747-42.4-22.955-70.041-24.71-92.352-.984-12.416,1.173-21.1,1.44-27.986-4.1,7.43-13.577,16.718-22.524,16.964-4.892.139-26.4-1.456-26.965-1.353,3.978,3.321,18.346,3.33,20.8,8.529,2.108,4.478-.75,10.292.541,15.311a16.134,16.134,0,0,1,1.886,3.855,12.968,12.968,0,0,1,.074,6.9c.025.221.078.455.094.681.66,7.766-7.094,14.352-14.352,14.352a13.433,13.433,0,0,1-9.009-3.4C516.944,172.328,503.994,176.2,505.241,176.8Z" transform="translate(-505.156 -110.476)"/></g><g transform="translate(171.614 16.396)"><path class="i" d="M519.762,90.912a41.5,41.5,0,0,0-7.639,1.607c-6.249,2.592-2.719,13.47-2.046,18.588s8.837,9.017,11.7,8.418,8.767-7.459,7.328-12.412S526.524,90.773,519.762,90.912Z" transform="translate(-508.476 -90.911)"/></g><g transform="translate(181.121 13.492)"><path class="j" d="M511.553,93.579c.726.435,2.78.828,1.6,2.985s3.313,3.043,4.326-.078a1.717,1.717,0,0,1-2.378.6c-1.427-.906,2.907-2.846.685-5.782S508.99,92.054,511.553,93.579Z" transform="translate(-510.794 -90.202)"/></g><g transform="translate(170.844 13.757)"><path class="j" d="M514.8,100.3c.127.2,2.817,1.956,2.108,4.994a2.5,2.5,0,0,1-2.046,1.812c-2.616.549-4.064-1.657-4.318-1.87.164.107,2.046,1.165,2.907.361a1.564,1.564,0,0,0,.107-2.346c-1.218-1.267-5.171-2.112-5.269-7.762-.082-4.6,7.164-7.356,8.484-3.137C517.716,95.372,512.344,96.488,514.8,100.3Z" transform="translate(-508.288 -90.267)"/></g><g transform="translate(196.103 61.836)"><path class="i" d="M550.545,122.392c1.419,26.822-3.391,40.952-10.206,62.5-5.876,18.555-28.556,10.264-25.633-7.233,4.515-27.01,6.475-54.111,14.778-71.567C534.147,96.292,549.627,104.981,550.545,122.392Z" transform="translate(-514.448 -101.992)"/></g><g transform="translate(121.539 130.238)"><path class="i" d="M590.47,141.762c-26.477,15.521-84.323,8.812-90.856,4.884s-1.976-10.67.751-10.928c24.751-2.321,69.705-15.184,75.011-16.755C586.566,115.658,590.47,141.762,590.47,141.762Z" transform="translate(-496.264 -118.673)"/></g><g transform="translate(102.812 143.668)"><path class="i" d="M505.188,143.741c6.729-6.089,18.3-4.609,18.3-4.609l-.9-12.273s-6.487.221-9.854-3.674-9.776,2.649-12.051,2.9c-1.89.213,3.317,4.117,8.377.939-2.317,1.7-4.863,3.785-10.325,4.392-4.892.537-4.671,6.483-6.742,10.235a2.369,2.369,0,0,0,1.891,3.506C497.02,145.443,501.5,147.075,505.188,143.741Z" transform="translate(-491.697 -121.949)"/></g><g transform="translate(192.075 175.506)"><g transform="translate(17.376)"><path class="d" d="M536.23,129.713h67.335l-.447,6.758-63.48-.2c-7.057,0-15.328,6.68-10.817,21.3l23.4,88.674h-6.987L518.454,153.39A18.5,18.5,0,0,1,536.23,129.713Z" transform="translate(-517.703 -129.713)"/></g><path class="b" d="M531.99,129.713h17.378a18.5,18.5,0,0,0-17.776,23.676l26.781,92.852H542.09L514.218,153.39A18.491,18.491,0,0,1,531.99,129.713Z" transform="translate(-513.466 -129.713)"/></g><g transform="translate(169.782 5.206)"><path class="m" d="M536.052,100.329l-4.01,2.567c-.767-5.6-11.756-14.713-24.013-9.886C515.213,86.875,529.413,84.062,536.052,100.329Z" transform="translate(-508.029 -88.182)"/></g><g transform="translate(191.792 16.797)"><g transform="translate(3.829)"><path class="c" d="M521.833,106.884a3.458,3.458,0,0,1-2.091-.111,6.369,6.369,0,0,1-2.583-1.878,12.407,12.407,0,0,1-2.678-9.661,6.221,6.221,0,0,1,1.243-2.936,3.405,3.405,0,0,1,1.739-1.173c2.673-.75,5.823,2.173,7.033,6.528S524.515,106.134,521.833,106.884Z" transform="translate(-514.33 -91.008)"/></g><g transform="translate(8.401 2.719)"><path class="d" d="M519.844,100.986a1.836,1.836,0,0,1-.943.016c-.094-.016-.185-.049-.279-.074a3.312,3.312,0,0,1-.881-.5,3.959,3.959,0,0,1-.636-.6,7.262,7.262,0,0,1-1.57-5.675,4.017,4.017,0,0,1,.234-.853,3,3,0,0,1,.492-.865,1.8,1.8,0,0,1,.172-.176,1.9,1.9,0,0,1,.853-.517c1.567-.439,3.416,1.283,4.125,3.834S521.419,100.548,519.844,100.986Z" transform="translate(-515.445 -91.671)"/></g><g transform="translate(0 0.117)"><path class="d" d="M524.729,106.8l-3.826,1.058c-2.678.746-5.831-2.181-7.032-6.528s-.025-8.484,2.653-9.23l3.834-1.058a3.405,3.405,0,0,0-1.739,1.173,6.221,6.221,0,0,0-1.243,2.936,12.407,12.407,0,0,0,2.678,9.661,6.369,6.369,0,0,0,2.583,1.878A3.458,3.458,0,0,0,524.729,106.8Z" transform="translate(-513.396 -91.037)"/></g><g transform="translate(6.594 2.787)"><path class="h" d="M521.211,100.935l-.369.111-1.435.418a1.931,1.931,0,0,1-1.222-.066,3.7,3.7,0,0,1-1.517-1.1,6.9,6.9,0,0,1-1.386-2.669,7.6,7.6,0,0,1-.275-1.739v-.016a6.12,6.12,0,0,1,.09-1.247,3.582,3.582,0,0,1,.73-1.718,1.981,1.981,0,0,1,1.021-.693l1.8-.529a1.9,1.9,0,0,0-.853.517,1.794,1.794,0,0,0-.172.176,3,3,0,0,0-.492.865l-.012.029a4.271,4.271,0,0,0-.221.824,7.261,7.261,0,0,0,1.57,5.675,3.961,3.961,0,0,0,.636.6,3.312,3.312,0,0,0,.882.5c.094.025.185.057.279.074a2.264,2.264,0,0,0,.594.045A1.633,1.633,0,0,0,521.211,100.935Z" transform="translate(-515.005 -91.688)"/></g></g></g><g transform="translate(129.981 215.771)"><path class="n" d="M458.811,132.392,455.6,386.084h-7.234l.06-253.693Z" transform="translate(-448.362 -132.392)"/><g transform="translate(260.774)"><path class="n" d="M524.571,386.084h-7.234l-5.38-253.693h10.388Z" transform="translate(-511.957 -132.392)"/></g></g><g transform="translate(70.213 66.998)"><g transform="translate(26.722)"><rect class="d" width="106.426" height="122.095"/></g><rect class="o" width="39.393" height="122.095"/><g transform="translate(5.298 60.822)"><path class="n" d="M436.144,113.075a1.066,1.066,0,1,1,0-2.132H462.47a1.066,1.066,0,1,1,0,2.132Z" transform="translate(-435.078 -110.943)"/></g><g transform="translate(5.298 50.879)"><path class="n" d="M436.144,110.646a1.064,1.064,0,1,1,0-2.128H462.47a1.064,1.064,0,1,1,0,2.128Z" transform="translate(-435.078 -108.518)"/></g><g transform="translate(5.298 40.935)"><path class="n" d="M436.144,108.217a1.062,1.062,0,1,1,0-2.124H462.47a1.062,1.062,0,1,1,0,2.124Z" transform="translate(-435.078 -106.093)"/></g><g transform="translate(5.298 30.987)"><path class="n" d="M436.144,105.791a1.062,1.062,0,1,1,0-2.124H462.47a1.062,1.062,0,1,1,0,2.124Z" transform="translate(-435.078 -103.667)"/></g><g transform="translate(5.298 65.796)"><path class="n" d="M436.144,114.288a1.066,1.066,0,1,1,0-2.132H462.47a1.066,1.066,0,1,1,0,2.132Z" transform="translate(-435.078 -112.156)"/></g><g transform="translate(5.298 55.844)"><path class="n" d="M436.144,111.861a1.063,1.063,0,0,1-1.066-1.062,1.075,1.075,0,0,1,1.066-1.07H462.47a1.075,1.075,0,0,1,1.066,1.07,1.063,1.063,0,0,1-1.066,1.062Z" transform="translate(-435.078 -109.729)"/></g><g transform="translate(5.298 45.905)"><path class="n" d="M436.144,109.429a1.062,1.062,0,1,1,0-2.124H462.47a1.062,1.062,0,1,1,0,2.124Z" transform="translate(-435.078 -107.305)"/></g><g transform="translate(5.298 35.957)"><path class="n" d="M436.144,107a1.062,1.062,0,1,1,0-2.124H462.47a1.062,1.062,0,1,1,0,2.124Z" transform="translate(-435.078 -104.879)"/></g><g transform="translate(15.049 98.326)"><path class="b" d="M445.35,120.089a1.064,1.064,0,0,1,0,2.128h-6.827a1.064,1.064,0,1,1,0-2.128Z" transform="translate(-437.456 -120.089)"/></g><g transform="translate(15.049 92.417)"><path class="b" d="M445.35,118.648a1.064,1.064,0,0,1,0,2.128h-6.827a1.064,1.064,0,1,1,0-2.128Z" transform="translate(-437.456 -118.648)"/></g><g transform="translate(112.699 60.277)"><path class="p" d="M468.061,111.93a1.15,1.15,0,0,1-1.119,1.095h-.75c-1.693,0-3.33.053-4.921.176.4-.775.8-1.538,1.218-2.288,1.206-.066,2.432-.1,3.691-.1h.783A1.122,1.122,0,0,1,468.061,111.93Z" transform="translate(-461.27 -110.81)"/></g><g transform="translate(13.294 105.826)"><path class="q" d="M443.261,121.918h0a6.233,6.233,0,0,1,6.233,6.233h0a6.233,6.233,0,0,1-6.233,6.233h0a6.233,6.233,0,0,1-6.233-6.233h0A6.233,6.233,0,0,1,443.261,121.918Z" transform="translate(-437.028 -121.918)"/></g><g transform="translate(29.721 21.162)"><path class="b" d="M441.034,103.342a2.067,2.067,0,1,1,2.067,2.067A2.069,2.069,0,0,1,441.034,103.342Z" transform="translate(-441.034 -101.271)"/></g><g transform="translate(22.135 21.162)"><path class="b" d="M439.184,103.342a2.069,2.069,0,1,1,2.071,2.067A2.07,2.07,0,0,1,439.184,103.342Z" transform="translate(-439.184 -101.271)"/></g><g transform="translate(14.553 21.162)"><path class="b" d="M437.335,103.342a2.069,2.069,0,1,1,2.071,2.067A2.07,2.07,0,0,1,437.335,103.342Z" transform="translate(-437.335 -101.271)"/></g><g transform="translate(6.971 21.162)"><path class="b" d="M435.486,103.342a2.067,2.067,0,1,1,2.067,2.067A2.067,2.067,0,0,1,435.486,103.342Z" transform="translate(-435.486 -101.271)"/></g></g><g transform="translate(133.46)"><g transform="translate(14.197 4.028)"><path class="r" d="M2.405,0H109.625a2.405,2.405,0,0,1,2.405,2.405V140.984a2.406,2.406,0,0,1-2.406,2.406H2.405A2.405,2.405,0,0,1,0,140.985V2.405A2.405,2.405,0,0,1,2.405,0Z"/></g><g transform="translate(4.206)"><path class="b" d="M2.744,0H116.728a2.744,2.744,0,0,1,2.744,2.744V148.7a2.745,2.745,0,0,1-2.745,2.745H2.744A2.744,2.744,0,0,1,0,148.7V2.744A2.744,2.744,0,0,1,2.744,0Z"/></g><g transform="translate(0 91.426)"><path class="f" d="M502.312,175.966c-7.307-17.928,1.136-50.687,4.268-55.037a5.413,5.413,0,0,0,1.025-3.182V107.56a5.444,5.444,0,0,0-8.148-4.748l-.078.045A36.819,36.819,0,0,0,495.1,105.9c-9.714,7.93-11.24,31.394-11.285,43.995-.131,37.3-34.6,50.232-34.6,50.232h94.152C531.155,189.7,508.565,191.306,502.312,175.966Z" transform="translate(-449.21 -102.067)"/></g></g><g transform="translate(0 189.127)"><g transform="translate(9.833 0.358)"><path class="s" d="M5.1,0H411.716a5.1,5.1,0,0,1,5.1,5.1V26.429a0,0,0,0,1,0,0H0a0,0,0,0,1,0,0V5.1A5.1,5.1,0,0,1,5.1,0Z" transform="translate(416.817 26.429) rotate(180)"/></g><g transform="translate(101.704 0.358)"><path class="d" d="M5.1,0H319.845a5.1,5.1,0,0,1,5.1,5.1V26.429a0,0,0,0,1,0,0H0a0,0,0,0,1,0,0V5.1A5.1,5.1,0,0,1,5.1,0Z" transform="translate(324.945 26.429) rotate(180)"/></g><path class="n" d="M854.785,133.357v-2.7a4.76,4.76,0,0,0-4.761-4.761h-428.6a4.767,4.767,0,0,0-4.761,4.761v2.7Z" transform="translate(-416.663 -125.894)"/><g transform="translate(90.212)"><path class="o" d="M786.573,133.357v-2.7a4.76,4.76,0,0,0-4.761-4.761H443.424a4.767,4.767,0,0,0-4.761,4.761v2.7Z" transform="translate(-438.663 -125.894)"/></g></g><g transform="translate(237.339 181.615)"><path class="f" d="M637.15,131.541H474.543a7.477,7.477,0,0,1,7.471-7.479h147.66a7.48,7.48,0,0,1,7.475,7.479Z" transform="translate(-474.543 -124.062)"/></g></g><g transform="translate(594.245 120.828)"><path class="o" d="M472.706,114.494h-6.4l2.842-17.066a2.72,2.72,0,0,1,2.7-2.276h16.943l-.816,5.019h5.441l1.73-10.387h-23.3a8.064,8.064,0,0,0-7.963,6.754l-3.908,23.3h11.847Z" transform="translate(-459.97 -89.784)"/><path class="o" d="M474.507,108.767l-4.3-6.479-.968-1.534-.246,1.415-1.091,6.553h-3.957l2.6-15.361h3.067l4.675,7.151.693,1.21.172-1.062,1.238-7.246h3.957l-2.6,15.352Z" transform="translate(-447.649 -78.693)"/></g></g></svg>