<svg xmlns="http://www.w3.org/2000/svg" width="492.533" height="310.962" viewBox="0 0 492.533 310.962"><defs><style>.a{fill:#f0f0f0;}.b{fill:#42375b;}.c{fill:#231b3d;}.d{fill:#a387ff;}.e{fill:#7f6ced;}.f{fill:#1dafb2;}.g{fill:#ea7180;}.h{fill:#c8e4e9;}.i{fill:#ff5675;}.j{fill:#d3485c;}.k{fill:#ff8a00;}.l{fill:#ffac00;}.m{fill:#fff;}.n{fill:#a7d7de;}.o{fill:#725ae5;}.p{fill:#ff8585;}.q{fill:#c7e3e8;}.r{fill:#4ccfd8;}.s{fill:#693ed6;}.t{fill:#00c951;}.u{fill:#693ed8;}.v{fill:#da0032;}.w{fill:#b4002c;}</style></defs><g transform="translate(-1058.428 -640.252)"><ellipse class="a" cx="244.801" cy="22.255" rx="244.801" ry="22.255" transform="translate(1061.359 906.704)"/><g transform="translate(1058.428 640.252)"><g transform="translate(0.002 19.85)"><g transform="translate(142.447 191.784)"><path class="b" d="M566.249,342.131l24.44,75.049h6.281l-16.512-75.049Z" transform="translate(-566.249 -342.131)"/></g><g transform="translate(85.027 191.784)"><path class="c" d="M573.749,342.131l-24.44,75.049h-6.281l16.512-75.049Z" transform="translate(-543.028 -342.131)"/></g><g transform="translate(89.272 191.784)"><path class="b" d="M544.745,342.131l24.44,75.049h6.281l-16.512-75.049Z" transform="translate(-544.745 -342.131)"/></g><g transform="translate(31.852 179.52)"><path class="c" d="M552.246,349.436,527.8,424.485h-6.281l19.211-87.314Z" transform="translate(-521.524 -337.171)"/></g><path class="d" d="M670.294,347.414c23.454,17.383,62.288,25.311,38.214,73.349-21.735,43.367-72.248,45.335-113.251,42.67-39.462-3.937-73.059-18.719-84.629-70.824-6.993-31.488,4.584-80.957,33.248-106.469,26.1-23.224,39.49-27.123,63.794-14.436C638.987,288.054,645.144,328.819,670.294,347.414Z" transform="translate(-508.642 -264.572)"/><g transform="translate(14.182 7.153)"><path class="e" d="M539.563,288.872c-9.676,9.577-33.439,39.331-22.257,63.611,7.7,16.711,25.009,4.975,40.892,16.337S555.47,418.9,577.636,434.3c37.116,25.845,85.047,11.194,110.509-14.522,10.326-10.432,11.382-25.059,10.435-34.1-3.336-30.892-25.531-20.442-50.778-43.478-9.978-9.117-20.264-41.745-37.383-60.777C589.174,257.792,561.85,266.791,539.563,288.872Z" transform="translate(-514.378 -267.464)"/></g></g><g transform="translate(49.141)"><g transform="translate(49.482 45.145)"><path class="f" d="M573.9,278.747c3.759,3.981,21.275,39.687,23.014,51.042s-9.96,15.383-15.519,10.123-30.345-37.222-32.469-45.793C545.591,280.664,563.944,268.2,573.9,278.747Z" transform="translate(-548.526 -274.801)"/></g><g transform="translate(78.181 92.796)"><path class="g" d="M583.02,300.126c8.776,10,16.323,22.41,26.352,26.473,0,0,1.783,6.563-3.348,6.572s-53.157-13.914-44.952-37.638C561.072,295.534,574.247,290.121,583.02,300.126Z" transform="translate(-560.132 -294.072)"/></g><g transform="translate(76.864 91.5)"><path class="f" d="M588.711,306.726c-1.528-1.852-3.405-4.7-5.21-6.758-8.773-10-22.739-5.329-22.739-5.329-4.144,11.98,3.269,21.758,14.735,28.985C581.715,320.914,586.319,313.6,588.711,306.726Z" transform="translate(-559.599 -293.548)"/></g><g transform="translate(121.305 122.765)"><path class="g" d="M588.223,306.811c2.685-2.2,5.536,2.127,7.767,2.522,1.113.2-1.5,1.746-4.5.415a57.545,57.545,0,0,0,8.524,5.739c2.965,1.479-2.159,3.61-3.089,6.219-.376,1.053-.5,2.206-1.659,2.109a12.21,12.21,0,0,1-7.586-3.605c-5.438-4.985-5.71-3.734-9.023-5.242-3.37-1.531,2.211-7.611,2.211-7.611S585.54,309.007,588.223,306.811Z" transform="translate(-577.571 -306.191)"/></g><g transform="translate(29.953 7.294)"><path class="h" d="M555.556,260.938c-.282.45-.561.9-.8,1.377a15.692,15.692,0,0,0-1.506,4.06c-3.1-1-13.029-3.393-12.606-5.9C540.96,258.582,550.49,259.813,555.556,260.938Z" transform="translate(-540.628 -259.494)"/></g><g transform="translate(29.99 7.71)"><path class="i" d="M555.158,261.548c-.282.453-.564.9-.806,1.377a13.544,13.544,0,0,0-1.268,3.818c-3.1-1-12.712-4.248-12.435-6.258C540.913,258.583,550.092,260.423,555.158,261.548Z" transform="translate(-540.643 -259.662)"/></g><g transform="translate(126.817 163.44)"><path class="b" d="M603.681,323.064c3.388,1.615,1.246,13.185-4.787,25.838s-13.672,21.6-17.062,19.987-2.705-19.423,3.328-32.076S600.291,321.444,603.681,323.064Z" transform="translate(-579.8 -322.641)"/></g><g transform="translate(124.364 165.421)"><path class="j" d="M578.921,342.9c2.347-14.876,13.872-27.848,28.941-12.673,13.373,13.464,12.255,80.938,22.015,104.134,1.459,3.462-5.967,5.531-7.878,4.317C617.513,424.779,576.391,358.935,578.921,342.9Z" transform="translate(-578.809 -323.442)"/></g><g transform="translate(167.237 261.848)"><g transform="translate(0 0.082)"><path class="h" d="M596.588,381.506c1.437,1.14,1.9,5.039,6.545,5.136,0,0,6.271-6.578,7.591-8.939s6.093-9.443,5.262-14.09c0,0-2.747-3.163-6.2,1.038a27.077,27.077,0,0,1-10.326,7.238,7.654,7.654,0,0,0-3.1,4.567A9.7,9.7,0,0,0,596.588,381.506Z" transform="translate(-596.147 -362.471)"/></g><g transform="translate(5.033)"><path class="b" d="M598.182,383.81c0,2.183,1.973,4.71,4.654,3.8,2.8-.945,3.85-6.239,3.85-6.239a5.808,5.808,0,0,1,.3-3.457c.764-1.259,3.677-2.216,4.614-3.984s5.5-8.125,3.806-10.447c-2.01-2.752-5.947.759-6.459,1.219C599.987,372.757,598.182,379.455,598.182,383.81Z" transform="translate(-598.182 -362.438)"/></g><g transform="translate(6.674 0.593)"><path class="c" d="M598.846,384.691c-.035.917,1.335,3.271,3.264,2.473,2.73-1.128,5.237-5.616,5.237-5.616a5.822,5.822,0,0,1,.3-3.454c.764-1.261,3.677-2.218,4.614-3.986s3.951-8.113,2.47-10.578c-1.345-2.248-3.986.616-4.5,1.073a44.056,44.056,0,0,0-6.315,6.921c-.811,1.123-.588,2.95-1.172,4.011-.72,1.3-2.2,1.81-2.626,2.99A20.242,20.242,0,0,0,598.846,384.691Z" transform="translate(-598.846 -362.678)"/></g></g><g transform="translate(30.703 143.373)"><path class="k" d="M639.158,380.519c-37.536-1.639-68.082-2.683-76.932-4.96-20.351-5.24-20.405-21.2-21.209-29.772C539.974,334.7,548.3,311.71,568.8,314.811c9.859,1.489,44.517,7.441,92.124,20.2C649.487,334.222,638.48,355.584,639.158,380.519Z" transform="translate(-540.931 -314.526)"/></g><g transform="translate(96.068 158.412)"><path class="b" d="M591.246,321.029c3.39,1.615,1.246,13.185-4.787,25.84s-13.672,21.6-17.062,19.985-2.705-19.421,3.328-32.074S587.856,319.412,591.246,321.029Z" transform="translate(-567.365 -320.607)"/></g><g transform="translate(97.307 160.536)"><path class="g" d="M568.491,338c4.931-14.233,18.56-24.975,30.721-7.384,10.793,15.61-.8,81.076,4.725,105.63.823,3.665-6.847,4.394-8.516,2.863C593.453,424.638,563.179,353.339,568.491,338Z" transform="translate(-567.867 -321.466)"/></g><g transform="translate(41.7 13.185)"><path class="b" d="M550.147,270.045s-1.2-4.983-.789-7.745c0,0-2.376-2-3.768,2.685S550.147,270.045,550.147,270.045Z" transform="translate(-545.378 -261.876)"/></g><g transform="translate(0 138.74)"><path class="l" d="M626.8,378.644c-37.534-1.637-55.567,1.036-64.415-1.244-20.353-5.24-32-19.856-33.723-33.488-1.4-11.046,7.282-34.077,27.784-30.976,9.859,1.491,44.225,7,91.83,19.757C636.836,331.9,626.122,353.709,626.8,378.644Z" transform="translate(-528.514 -312.652)"/></g><g transform="translate(9.475 140.093)"><path class="m" d="M621.371,369.689c-.067.806-.139,1.644-.171,2.485L558.052,367.6c-12.188-2.144-24.923-11.3-25.682-24.673-.161-2.745.519-6.469,1.254-10.423,1.081-5.979,2.3-12.623.584-16.191l.017-.017a4.606,4.606,0,0,0-.927-1.345l1.748-1.751a7.228,7.228,0,0,1,1.241,1.662c2.277,4.266,1,11.278-.25,18.1-.68,3.793-1.36,7.379-1.2,9.844.687,12.082,12.408,20.4,23.652,22.366Z" transform="translate(-532.346 -313.199)"/></g><g transform="translate(16.107 141.804)"><path class="m" d="M618.223,361.607c-.139.8-.242,1.607-.366,2.431l-61.205-4.382c-10.23-1.8-20.937-9.518-21.607-20.778a42.42,42.42,0,0,1,1.061-8.761c1.029-5.648,2.2-12.067-.218-14.475l1.748-1.751c3.341,3.336,2.1,10.106.9,16.664a40.281,40.281,0,0,0-1.011,8.182c.584,9.985,10.292,16.849,19.559,18.486Z" transform="translate(-535.028 -313.891)"/></g><g transform="translate(1.074 36.93)"><path class="b" d="M630.8,385.453c-9.132,6.063-32.175-5.8-63.119,5.24-9.209,3.284-27.4,8.108-38.731,3.7,2.74-27.724,2.4-81.875,6.689-99.627,2.542-10.608,10.316-16.488,17.979-19.782,22-9.453,41.411,3,45.3,4.706C613.242,285.979,617.856,356.628,630.8,385.453Z" transform="translate(-528.949 -271.479)"/></g><g transform="translate(76.864 106.152)"><path class="m" d="M612.629,342.13h-50.1a2.857,2.857,0,0,1-2.888-3.427l5.625-35.8a4.166,4.166,0,0,1,3.964-3.427h50.1a2.857,2.857,0,0,1,2.888,3.427l-5.628,35.8A4.163,4.163,0,0,1,612.629,342.13Z" transform="translate(-559.599 -299.473)"/><g transform="translate(0.954)"><path class="n" d="M613.016,342.13h-50.1a2.857,2.857,0,0,1-2.888-3.427l5.625-35.8a4.168,4.168,0,0,1,3.966-3.427h50.1a2.857,2.857,0,0,1,2.888,3.427l-5.628,35.8A4.161,4.161,0,0,1,613.016,342.13Z" transform="translate(-559.985 -299.473)"/></g><g transform="translate(55.42 2.171)"><path class="h" d="M585.129,307.571H583a.966.966,0,0,1-.977-1.16l.814-4.9a1.41,1.41,0,0,1,1.343-1.16h2.127a.968.968,0,0,1,.979,1.16l-.816,4.9A1.406,1.406,0,0,1,585.129,307.571Z" transform="translate(-582.011 -300.351)"/></g><g transform="translate(56.53 3.407)"><path class="o" d="M585.813,302.537a2.026,2.026,0,0,1-1.946,1.647,1.389,1.389,0,0,1-1.382-1.686,2.024,2.024,0,0,1,1.948-1.647A1.39,1.39,0,0,1,585.813,302.537Z" transform="translate(-582.46 -300.851)"/><g transform="translate(0.324 0.321)"><path class="c" d="M585.3,302.341a1.635,1.635,0,0,1-1.57,1.333,1.126,1.126,0,0,1-1.118-1.363,1.638,1.638,0,0,1,1.575-1.33A1.12,1.12,0,0,1,585.3,302.341Z" transform="translate(-582.591 -300.981)"/></g><g transform="translate(0.434 3.014)"><path class="o" d="M584.379,302.945a1.055,1.055,0,0,1-1.011.858.725.725,0,0,1-.72-.88,1.053,1.053,0,0,1,1.014-.853A.719.719,0,0,1,584.379,302.945Z" transform="translate(-582.636 -302.07)"/></g><g transform="translate(0.843 3.417)"><path class="c" d="M583.733,302.7a.559.559,0,0,1-.542.46.385.385,0,0,1-.383-.47.564.564,0,0,1,.542-.457A.384.384,0,0,1,583.733,302.7Z" transform="translate(-582.801 -302.233)"/></g><g transform="translate(1.053 0.88)"><path class="m" d="M583.615,301.41a.425.425,0,0,1-.245.495.328.328,0,0,1-.467-.166.423.423,0,0,1,.242-.495A.332.332,0,0,1,583.615,301.41Z" transform="translate(-582.886 -301.207)"/></g><g transform="translate(1.505 1.628)"><path class="m" d="M583.1,301.785a.161.161,0,0,1,.032-.225.159.159,0,0,1,.228,0,.161.161,0,0,1-.032.225A.158.158,0,0,1,583.1,301.785Z" transform="translate(-583.069 -301.509)"/></g></g><g transform="translate(21.014 38.05)"><path class="h" d="M585.634,316.8H568.925a.809.809,0,0,1-.816-.972h0a1.176,1.176,0,0,1,1.123-.969h16.706a.808.808,0,0,1,.818.969h0A1.178,1.178,0,0,1,585.634,316.8Z" transform="translate(-568.097 -314.861)"/></g></g><g transform="translate(8.117 48.411)"><path class="f" d="M564.318,291.577c2.107,11.914.376,31.423-17.428,31.423-12.68,0-15.094-15.378-15.094-27.613s7.149-19.265,15.643-19.265S562.333,280.373,564.318,291.577Z" transform="translate(-531.797 -276.122)"/></g><g transform="translate(31.232 17.628)"><path class="g" d="M555.915,265.171s-3.086,16.137-14.77,19.268a203.734,203.734,0,0,1,24.124,15.234c2.174,1.662,4.419-13.659,4.419-13.659a12.5,12.5,0,0,1-7.161-7.453c-2.789-7.557,1.442-14.888,1.442-14.888Z" transform="translate(-541.145 -263.673)"/></g><g transform="translate(43.034 7.276)"><path class="g" d="M548.752,271.559s-.272,2.1,1.845,5.779,7.858,7.29,9.317,6.009c6.667-5.838,8.514-15.969,6.7-19.448s-11.419-6.241-13.758-2.908a20.267,20.267,0,0,0-2.95,5.6,1.264,1.264,0,0,0-1.523-.873c-1.311.134-3.071,2.614-2.26,4.345A2.619,2.619,0,0,0,548.752,271.559Z" transform="translate(-545.918 -259.487)"/></g><g transform="translate(55.356 4.631)"><path class="b" d="M555.718,265.9a3.222,3.222,0,0,0-2.055-1.474,3.59,3.59,0,0,1-.376-.148c-.077-.035-.136-.079-.213-.116-.055-.022-.109-.04-.166-.062-2.609-1.864-2.451-4.369-.811-5.121,6.335-2.91,11.34,6.239,9.49,10.4a7.674,7.674,0,0,0,.252,6.7c-3.714-1.741-2.035-3.892-2.215-7.576A2.689,2.689,0,0,0,555.718,265.9Z" transform="translate(-550.901 -258.417)"/></g><g transform="translate(38.314 2.51)"><path class="b" d="M565.868,267.163s-2.962-3.229-4.631-.435-6.644,6.291-7.787,3.84c-1.5-3.212-3.558-1.751-4.382.287s-4.055,1.088-5.059-.551c0,0,2.72-.6,3.586-5.059.564-2.915,5.292-10.282,13.256-6.743C567.2,261.322,565.868,267.163,565.868,267.163Z" transform="translate(-544.009 -257.559)"/></g><g transform="translate(50.462 15.072)"><path class="m" d="M549.021,264.256l0,.022A3.5,3.5,0,0,0,555.8,266l.052-.218a.143.143,0,0,0,0-.1,2.113,2.113,0,0,0-1.627-2.366l-2.648-.623A2.124,2.124,0,0,0,549.021,264.256Zm.289.069a1.851,1.851,0,0,1,2.2-1.338l2.646.621a1.822,1.822,0,0,1,1.385,2.1l-.027.121a3.19,3.19,0,0,1-6.2-1.486Z" transform="translate(-548.922 -262.639)"/><g transform="translate(8.491 2.002)"><path class="m" d="M552.443,265.034l-.04.168.025.005a3.486,3.486,0,0,0,6.807,1.5l.03-.121a2.123,2.123,0,0,0-1.6-2.46l-2.648-.623a2.126,2.126,0,0,0-2.512,1.39A.307.307,0,0,0,552.443,265.034Zm.307.1a1.835,1.835,0,0,1,2.2-1.338l2.646.623a1.857,1.857,0,0,1,1.385,2.1l-.027.119a3.19,3.19,0,0,1-6.2-1.484Z" transform="translate(-552.356 -263.449)"/></g><g transform="translate(6.714 3.008)"><path class="m" d="M553.548,264.645a2.42,2.42,0,0,0-1.844-.435l-.067-.3a2.713,2.713,0,0,1,2.107.495Z" transform="translate(-551.637 -263.856)"/></g></g><g transform="translate(41.598)"><path class="p" d="M545.337,265.545a164.942,164.942,0,0,1,17.586,3.2c5.188,1.4,7.26,3.479,7.26,3.479a12.426,12.426,0,0,0-8.192-14.51C550.52,253.319,546.328,262.476,545.337,265.545Zm19.132-2.5c4.342,2.008,3.071,5.685,3.071,5.685a13.041,13.041,0,0,0-3.054-1.38,46.548,46.548,0,0,0-7.121-1.481C557.827,264.63,559.82,260.926,564.468,263.047Z" transform="translate(-545.337 -256.544)"/></g><g transform="translate(58.865 4.376)"><path class="b" d="M552.32,259.956l.767,1.34c2.082-1.5,1.573-2.982,1.573-2.982A2.406,2.406,0,0,1,552.32,259.956Z" transform="translate(-552.32 -258.314)"/></g><g transform="translate(62.181 11.436)"><path class="b" d="M553.992,261.169s.685.7-.331,1.293c0,0,1.4-.176,1.187-1.254Z" transform="translate(-553.661 -261.169)"/></g><g transform="translate(60.203 4.631)"><path class="b" d="M552.861,260.158l1.35,1.948c2.656-1.6,1.639-3.689,1.639-3.689C554.936,261.179,552.861,260.158,552.861,260.158Z" transform="translate(-552.861 -258.417)"/></g><g transform="translate(44.98 0.715)"><g transform="translate(10.876 0.024)"><path class="q" d="M551.1,256.848l.358.027-.357-.031Z" transform="translate(-551.103 -256.843)"/></g><g transform="translate(9.162)"><path class="q" d="M550.41,256.867l0,.034.731-.046v-.022Z" transform="translate(-550.41 -256.833)"/></g><g transform="translate(7.454 0.142)"><path class="q" d="M549.719,257.019l.013.061.718-.14-.007-.048Z" transform="translate(-549.719 -256.891)"/></g><g transform="translate(5.795 0.514)"><path class="q" d="M549.049,257.278l.031.085.694-.249-.023-.072Z" transform="translate(-549.049 -257.041)"/></g><g transform="translate(4.234 1.149)"><path class="q" d="M548.417,257.658l.061.1.639-.367-.047-.092Z" transform="translate(-548.417 -257.298)"/></g><g transform="translate(2.845 2.074)"><path class="q" d="M547.855,258.157l.1.1.552-.488-.081-.1Z" transform="translate(-547.855 -257.672)"/></g><g transform="translate(1.702 3.284)"><path class="q" d="M547.393,258.758l.141.1.437-.592-.123-.1Z" transform="translate(-547.393 -258.161)"/></g><g transform="translate(0.856 4.723)"><path class="q" d="M547.051,259.415l.183.077.31-.662-.164-.087Z" transform="translate(-547.051 -258.743)"/></g><g transform="translate(0.287 6.327)"><path class="q" d="M546.821,260.112l.219.055.2-.71-.2-.065Z" transform="translate(-546.821 -259.392)"/></g><g transform="translate(0 8.142)"><path class="q" d="M546.7,260.5l.244.031.051-.367-.238-.039Z" transform="translate(-546.705 -260.126)"/></g></g><g transform="translate(121.901 272.29)"><g transform="translate(0 7.844)"><path class="b" d="M606.013,369.833l-26.565,1.877s-2.515,1.115-1.308,2.745,8.046,1.617,8.046,1.617,1.738-1.647,3.314-1.659,4.08,2.1,6.214,1.963,9.2-1.553,11.011-3.687S606.013,369.833,606.013,369.833Z" transform="translate(-577.812 -369.833)"/></g><g transform="translate(0.557)"><path class="h" d="M601.243,372.5c-5.811.072-12.428-5.841-12.428-5.841a7.585,7.585,0,0,1-3.707,3.222c-2.829,1.311-5.85-1.15-5.85-1.15a6.905,6.905,0,0,0-.141,7.648s8.207,2.386,11.1,2.265,12.008.245,15.769-3.118C605.983,375.528,607.054,372.43,601.243,372.5Z" transform="translate(-578.038 -366.661)"/></g></g><g transform="translate(8.844 48.41)"><path class="r" d="M532.81,286.632c-2.562,8.452,2.386,48.6,4.473,55.958s14.2,9.883,18.516-.759,7.527-50.286,6.335-55.634C558.972,272.045,536.828,273.365,532.81,286.632Z" transform="translate(-532.091 -276.122)"/></g><g transform="translate(13.509 105.762)"><path class="g" d="M556.592,303.1c-10.465-8.219-22.418-.475-22.418-.475-3.7,24.826,46.062,29.68,51.106,28.726s2.082-7.079,2.082-7.079C576.759,322.123,567.056,311.315,556.592,303.1Z" transform="translate(-533.978 -299.315)"/></g><g transform="translate(61.671 127.022)"><path class="g" d="M575.962,315.227a57.506,57.506,0,0,1-9.434-4.073c3.2.757,5.48-1.246,4.35-1.236-2.265.022-5.865-3.7-8.1-1.051s-7.131,1.892-7.131,1.892-4.369,7-.774,7.888c3.534.873,3.571-.408,9.832,3.491a12.2,12.2,0,0,0,8.121,2.146c1.16-.116,1.068-1.273,1.244-2.379C574.5,319.173,579.149,316.134,575.962,315.227Z" transform="translate(-553.455 -307.913)"/></g><g transform="translate(13.151 104.341)"><path class="r" d="M556.417,302.208c-10.467-8.217-22.561.747-22.561.747-.811,20.447,20.23,25.6,30.932,27.373,2.512-1.35,7.171-11.946,6.859-15.5C566.807,311.172,564.938,308.9,556.417,302.208Z" transform="translate(-533.833 -298.741)"/></g></g><g transform="translate(0 19.867)"><path class="d" d="M566.651,373.063c-15.878-11.347-33.209.373-40.9-16.342-11.177-24.26,12.586-54.032,22.255-63.6,11.886-11.768,25.2-19.817,38.256-21.2a9.567,9.567,0,0,1,.564-7.218c-13.388-1.177-25.252,5.663-42.951,21.416-28.657,25.519-40.232,75-33.256,106.476,11.57,52.1,45.177,66.888,84.642,70.817,7.126.467,14.547.737,22.044.715a12.014,12.014,0,0,1,.569-1.592c1.607-3.665,3.425-7.225,5.279-10.771a74.744,74.744,0,0,1-37.066-13.224C563.931,423.136,582.526,384.44,566.651,373.063Z" transform="translate(-508.641 -264.579)"/></g><g transform="translate(149.355 2.324)"><path class="s" d="M611.39,257.484h-36.4a5.951,5.951,0,0,0-5.952,5.949v22.059a5.951,5.951,0,0,0,5.952,5.949H594.7l-6.288,11.434,19.117-11.434h3.86a5.951,5.951,0,0,0,5.952-5.949V263.433A5.951,5.951,0,0,0,611.39,257.484Z" transform="translate(-569.042 -257.484)"/><g transform="translate(11.343 14.211)"><path class="m" d="M576.124,263.231a2.493,2.493,0,1,0,2.493,2.493A2.494,2.494,0,0,0,576.124,263.231Z" transform="translate(-573.629 -263.231)"/><g transform="translate(10.314)"><path class="m" d="M580.295,263.231a2.493,2.493,0,1,0,2.493,2.493A2.494,2.494,0,0,0,580.295,263.231Z" transform="translate(-577.8 -263.231)"/></g><g transform="translate(20.628)"><path class="m" d="M584.466,263.231a2.493,2.493,0,1,0,2.492,2.493A2.494,2.494,0,0,0,584.466,263.231Z" transform="translate(-581.971 -263.231)"/></g></g></g></g><g transform="translate(1307.423 653.407)"><g transform="translate(76.906)"><path class="t" d="M690.109,294.865c1.689-2.49,4.008-7.178,4.008-11.345,0-11.961-12.017-21.656-26.839-21.656s-26.839,9.7-26.839,21.656c0,7.947,5.588,14.357,13.229,18.642,11.81,6.624,38.614,7.9,38.614,7.9-7.836-4.733-6.679-9.96-4.414-12.658C688.591,296.544,689.634,295.565,690.109,294.865Z" transform="translate(-640.439 -261.864)"/><g transform="translate(15.61 19.725)"><path class="m" d="M648.938,269.841a2.187,2.187,0,1,0,2.186,2.186A2.187,2.187,0,0,0,648.938,269.841Z" transform="translate(-646.752 -269.841)"/><g transform="translate(9.04)"><path class="m" d="M652.6,269.841a2.187,2.187,0,1,0,2.186,2.186A2.187,2.187,0,0,0,652.6,269.841Z" transform="translate(-650.408 -269.841)"/></g><g transform="translate(18.086)"><path class="m" d="M656.249,269.841a2.187,2.187,0,1,0,2.188,2.186A2.185,2.185,0,0,0,656.249,269.841Z" transform="translate(-654.066 -269.841)"/></g></g></g><g transform="translate(78.631 22.435)"><g transform="translate(43.249)"><path class="b" d="M759.977,270.937H709.7a13.821,13.821,0,0,0-13.7,12.047L678.347,399.561c-.109,7.487-3.266,15.289-8.924,22.121l-10.8,16.041h61.314a27.645,27.645,0,0,0,20.657-9.275l6.921-7.784c5.517-6.2,8.937-13.323,9.8-20.375l16.372-113.857A13.816,13.816,0,0,0,759.977,270.937Z" transform="translate(-658.627 -270.937)"/></g><g transform="translate(32.421)"><path class="c" d="M758.1,270.937H707.82a13.817,13.817,0,0,0-13.7,12.047L676.468,399.561c-.109,7.487-3.269,15.289-8.924,22.121l-13.3,16.041h76.22l15.17-17.059c5.519-6.2,8.936-13.323,9.8-20.375l16.372-113.857A13.815,13.815,0,0,0,758.1,270.937Z" transform="translate(-654.248 -270.937)"/></g><g transform="translate(111.094 232.086)"><g transform="translate(4.56)"><path class="u" d="M696.118,364.8h-8.21V384.33h8.21c2.517,0,4.557-4.374,4.557-9.767S698.635,364.8,696.118,364.8Z" transform="translate(-687.908 -364.795)"/></g><path class="b" d="M690.624,364.8c-2.517,0-4.56,4.374-4.56,9.767s2.042,9.767,4.56,9.767,4.56-4.374,4.56-9.767S693.141,364.8,690.624,364.8Z" transform="translate(-686.064 -364.795)"/><g transform="translate(2.675 2.913)"><path class="c" d="M689.03,365.973c-1.041,0-1.884,3.069-1.884,6.854s.843,6.854,1.884,6.854,1.884-3.069,1.884-6.854S690.071,365.973,689.03,365.973Z" transform="translate(-687.146 -365.973)"/></g></g><g transform="translate(0 150.498)"><path class="b" d="M749.681,331.8H648.7a7.477,7.477,0,0,0-6.251,11.642l.079.114H755.971c.183-.368.356-.734.527-1.1A7.51,7.51,0,0,0,749.681,331.8Z" transform="translate(-641.137 -331.8)"/></g><g transform="translate(22.834 166.786)"><path class="c" d="M702.371,338.387H691.493l.028,54.924-41.15,14.626,1.553,6.117,44.656-12.9L743.1,413.231V406.39l-40.754-13.079Z" transform="translate(-650.371 -338.387)"/></g><g transform="translate(65.573 222.92)"><rect class="c" width="7.248" height="19.533"/></g><g transform="translate(1.39 162.254)"><path class="b" d="M645.346,341.086h104a5.723,5.723,0,0,0,5.03-3.039c.267-.5.522-1,.764-1.494H641.7A42.811,42.811,0,0,0,645.346,341.086Z" transform="translate(-641.699 -336.554)"/></g><g transform="translate(14.17 232.086)"><g transform="translate(4.56)"><path class="u" d="M656.92,364.8h-8.209V384.33h8.209c2.517,0,4.56-4.374,4.56-9.767S659.438,364.8,656.92,364.8Z" transform="translate(-648.711 -364.795)"/></g><path class="b" d="M651.427,364.8c-2.517,0-4.56,4.374-4.56,9.767s2.042,9.767,4.56,9.767,4.557-4.374,4.557-9.767S653.944,364.8,651.427,364.8Z" transform="translate(-646.867 -364.795)"/><g transform="translate(2.675 2.913)"><path class="c" d="M649.833,365.973c-1.041,0-1.884,3.069-1.884,6.854s.843,6.854,1.884,6.854,1.882-3.069,1.882-6.854S650.874,365.973,649.833,365.973Z" transform="translate(-647.949 -365.973)"/></g></g><g transform="translate(63.22 232.087)"><rect class="u" width="11.956" height="19.533" rx="1.206"/></g><g transform="translate(82.872 165.609)"><path class="b" d="M689.821,344.743H679.549a2.923,2.923,0,0,1-2.923-2.92v-3.912h-1.976v3.912a4.908,4.908,0,0,0,4.9,4.9h10.272a2.922,2.922,0,0,1,2.92,2.918v3.469h1.978v-3.469A4.906,4.906,0,0,0,689.821,344.743Z" transform="translate(-674.651 -337.911)"/><g transform="translate(16.53 12.653)"><path class="e" d="M683.885,343.028a2.551,2.551,0,1,0,2.552,2.552A2.55,2.55,0,0,0,683.885,343.028Z" transform="translate(-681.336 -343.028)"/></g></g></g><g transform="translate(0 4.749)"><g transform="translate(152.437 39.145)"><path class="g" d="M673.666,283.534c-3.039,11.251-2.792,27.237-2.549,43.75.156,10.695,15.222,12.675,16.7,1.031,1.714-13.521,2.841-24.023-.9-39.781C684.484,278.3,675.372,277.211,673.666,283.534Z" transform="translate(-670.984 -279.615)"/></g><g transform="translate(112.528 79.695)"><path class="g" d="M698.346,296.4c-3,1.461-28.053,13.875-41.955,19.478-1.531.616-3.074,7.275,1.446,6.447,7.228-1.33,37.2-1.815,51.139-12.559C708.976,309.763,704.671,293.321,698.346,296.4Z" transform="translate(-654.845 -296.014)"/></g><g transform="translate(99.746 97.64)"><path class="g" d="M657.146,304.683c-2.8-1.068-4.963.833-6.661,1.679a1.426,1.426,0,0,0-.294,2.381c1.986,1.657,3.163,5.044,6.029,4.278a11.214,11.214,0,0,1,6.763.205c-3.541-.675-5.611,2.656-4.5,2.362,1.335-.354,6.37,1.921,7.408-1.006s4.733-4.223,4.733-4.223l-2.183-7.087S662.26,306.631,657.146,304.683Z" transform="translate(-649.676 -303.271)"/></g><g transform="translate(182.411 9.258)"><path class="l" d="M693.726,285.954c-2.554-3-.381-13.148-4.214-16.886-4.293-4.191-5.855,1.506-5.855,1.506s-2.935,15.413,4.743,21.664c5.485,4.466,11.244-3.825,11.244-3.825S696.958,289.752,693.726,285.954Z" transform="translate(-683.106 -267.529)"/></g><g transform="translate(165.376 19.35)"><path class="l" d="M678.034,271.61c.618,5.949,2.1,11.619-1.818,12.594,0,0,5.863,2.238,9.09-1.338,1.8-1.991-.037-8.8-.037-8.8Z" transform="translate(-676.217 -271.61)"/></g><g transform="translate(84.114 99.504)"><path class="j" d="M728.354,304.32c-19.08-2.233-56.826,8.578-85,20.1l7.7,37.289s96.568,15.131,100.71-28.755C753.824,311.085,740.945,305.791,728.354,304.32Z" transform="translate(-643.354 -304.025)"/></g><g transform="translate(0 120.364)"><g transform="translate(0.37)"><path class="j" d="M693.731,312.558c-21.74,3.583-58.832,81.415-69.474,104.7-.945,2-7.164,15.207-8.373,22.611-.272,1.669-.821,10.232-2.384,13.4-.8,1.63-4.693,5.6-3.909,6.565a5.608,5.608,0,0,1,.984,1.573l7.344-4.592a11.348,11.348,0,0,0,4.641-5.665c1.4-3.768,3.719-9.332,5.559-10.366l4.122,6.6,3.014-1.884s-4.312-9.218-6.145-11.792c-2.235-3.135.569-5.358,2.179-6.654,7.037-5.665,83.047-74.62,84.493-86.922C717.684,323.957,701.854,311.217,693.731,312.558Z" transform="translate(-609.487 -312.461)"/></g><g transform="translate(0 120)"><path class="r" d="M628.555,360.99c-2.164,1.39-4.367,2.814-5.413,5.25-1.249,2.91-1.288,6.1-2.779,8.981a28.338,28.338,0,0,1-6.305,8.439,8.351,8.351,0,0,1-2.886,1.4c-1.122,1.385-2.75,2.8-1.192,4.409a4.938,4.938,0,0,0,.816.465l7.952-4.97a9.293,9.293,0,0,0,3.818-4.706c1.367-3.749,3.835-9.859,5.774-10.947l4.342,6.946,3.012-1.882a77.648,77.648,0,0,1-3.914-10.343A5.37,5.37,0,0,0,628.555,360.99Z" transform="translate(-609.337 -360.99)"/></g></g><g transform="translate(90.566 113.406)"><path class="g" d="M731.4,310.225c-19.025-2.661-56.025,3.939-85.433,18.177l6.852,37.45s100.27,6.649,101.335-26.471C754.855,317.428,743.95,311.981,731.4,310.225Z" transform="translate(-645.963 -309.647)"/></g><g transform="translate(20.463 130.718)"><g transform="translate(0.65)"><path class="g" d="M687.677,317.132c-15.455,5.608-30.259,49.111-39.032,80.208h0s-9.194,33.2-14.854,42.445c-.885,1.444-4.189,6.7-7.223,8.519-1.558.932-6.714,3.435-6.714,3.435l-1.978,3.5h8.66a11.365,11.365,0,0,0,6.939-2.349c3.182-2.455,8.1-5.942,10.208-5.843v7.779h3.553s1.585-9.414,1.392-12.567c-.109-1.768-1.031-5.447-1.031-7.008,0-8.195,68.176-74.983,66.818-95.067C713.311,323.942,695.414,314.326,687.677,317.132Z" transform="translate(-617.876 -316.648)"/></g><g transform="translate(0 123.454)"><path class="r" d="M641.287,368.159c-2.6,1.808-4.322,4.488-7.116,6.142a27.216,27.216,0,0,1-9.817,3.143,6.55,6.55,0,0,1-2.807-.2l-1.906.937a3.638,3.638,0,0,0-2.028,3.262v.27H627.64a9.339,9.339,0,0,0,5.746-1.978c3.148-2.458,8.467-6.318,10.682-6.214v8.192h3.553a77.586,77.586,0,0,1,2.161-10.845,5.382,5.382,0,0,0-1.122-4.29C646.089,366.6,643.465,366.648,641.287,368.159Z" transform="translate(-617.613 -366.574)"/></g></g><g transform="translate(161.337 4.556)"><path class="l" d="M681.792,265.711c-2.2-.349-7.277.064-7.208,7.636s11.333,10.519,14.871,2.685S684.607,266.159,681.792,265.711Z" transform="translate(-674.584 -265.627)"/></g><g transform="translate(161.088 9.719)"><path class="l" d="M675.9,277.324a6.982,6.982,0,0,1-.415-3.014,20.26,20.26,0,0,1,1.419-6l-1.79-.591a21.558,21.558,0,0,0-.571,6.622,7.664,7.664,0,0,0,.937,3.2,3.876,3.876,0,0,0,2.606,1.867A3.627,3.627,0,0,1,675.9,277.324Z" transform="translate(-674.483 -267.715)"/></g><g transform="translate(154.041 15.393)"><path class="g" d="M711.862,289.746c-9.673-1.177-11.29-10.143-10.343-17.8-5.267-1.291-8.613-4.278-8.434,1.434s.408,8.754-2.473,12.752c-1.169,1.627-3.7,3.887-6.572,3.828-8.071-.163-15.4,10.534-11.167,15.373,7.5,8.576,39.054,7.394,50.424,1.568C723.3,306.9,722.722,291.068,711.862,289.746Z" transform="translate(-671.633 -270.01)"/></g><g transform="translate(78.981 35.359)"><path class="v" d="M760.15,278.883c-10.185-3.818-24.473,8.454-28.674,3.7-2.515-2.846-2.584-4.488-3.479-4.5-1.039-.01-5.264,5.749-7.327,8.313-3.655,4.535-4.718,10.6,1.053,15.877,3.66,3.346-1.587,20.7-6.414,28.11-16.35,25.111-58.421,18.068-74.031,34.777,0,0,18.113-7.364,31.809,11.417,9.76,13.38,11.874,39.223,11.874,39.223,33.488,3.16,59.155-3.991,71.121-15.094,14.181-13.16,9.973-47.034,5.054-65.214C755.33,314.033,780.211,286.4,760.15,278.883Z" transform="translate(-641.278 -278.084)"/></g><g transform="translate(78.981 49.661)"><path class="w" d="M705.673,345.864c3.709-5.3,11.689-16.612,14.537-22.9,3.875-8.546,4.9-14.923,9.424-23.216a19.028,19.028,0,0,1,5.744-6.434c-9.092-.265-17.2-2.433-17.65-9.446-.571,3.172.547,6.738,4,9.888,3.66,3.346-1.59,20.7-6.414,28.11-16.35,25.111-58.421,18.068-74.031,34.777,0,0,18.113-7.364,31.809,11.417,7.094,9.728,10.138,26,11.278,34.178,3.919-14.515,9.152-31.851-1.053-43.768-2.925-3.415-3.474-5.151,6.647-5.151,3.249,0,57.827,9.478,57.827.618C747.786,342.3,702.906,349.818,705.673,345.864Z" transform="translate(-641.278 -283.868)"/></g><g transform="translate(69.432 65.163)"><g transform="translate(0.947)"><path class="u" d="M708.751,293.975a4.363,4.363,0,0,0-4.238-3.838H641.255a3.39,3.39,0,0,0-3.435,3.838l4.152,39.645a4.365,4.365,0,0,0,4.238,3.833h63.258a3.391,3.391,0,0,0,3.435-3.833Z" transform="translate(-637.799 -290.137)"/></g><g transform="translate(38.307 47.336)"><path class="u" d="M652.915,309.28c0,.064-.007.124-.007.186a4.169,4.169,0,0,0,4.169,4.169h66.334a4.169,4.169,0,0,0,4.169-4.169c0-.062-.007-.121-.01-.186Z" transform="translate(-652.908 -309.28)"/></g><path class="b" d="M708.368,293.975a4.361,4.361,0,0,0-4.238-3.838H640.872a3.391,3.391,0,0,0-3.435,3.838l4.152,39.645a4.365,4.365,0,0,0,4.238,3.833h63.258a3.39,3.39,0,0,0,3.435-3.833Z" transform="translate(-637.416 -290.137)"/><g transform="translate(5.123 47.336)"><path class="c" d="M639.5,309.28c0,.064-.008.124-.008.186a4.169,4.169,0,0,0,4.169,4.169H706.3a4.169,4.169,0,0,0,4.169-4.169c0-.062-.007-.121-.007-.186Z" transform="translate(-639.488 -309.28)"/></g><g transform="translate(33.062 28.471)"><path class="m" d="M659.461,303.815a5.537,5.537,0,0,0-2.087-2.164,2.5,2.5,0,0,1-2.413,1.407,3.186,3.186,0,0,1-2.663-1.35,4.085,4.085,0,0,0-1.511,2.042,3.5,3.5,0,0,1,.425,3.858,5.525,5.525,0,0,0,1.9,1.993,2.5,2.5,0,0,1,2.389-1.362,3.2,3.2,0,0,1,2.722,1.422,4.124,4.124,0,0,0,1.654-2.253A3.531,3.531,0,0,1,659.461,303.815Z" transform="translate(-650.787 -301.651)"/></g></g><g transform="translate(164.87 5.386)"><path class="g" d="M694.455,271.478a2.1,2.1,0,0,0-2.077,1.32s-.71-.888-3.346-4.75-7.423-1.714-11.4,1.239.47,10.057,1.859,13.573,2.858,5.742,5.039,5.539,7.171-4.147,7.171-4.147a9.008,9.008,0,0,0,3.373-6.4,1.655,1.655,0,0,0,1.958-.752C697.766,275.9,695.922,271.661,694.455,271.478Z" transform="translate(-676.013 -265.963)"/></g><g transform="translate(163.548)"><path class="l" d="M691.763,263.966c-2.871-.821-7.972,1.442-10.143.784-5.531-1.664-7.866,6.916-4.745,9.122,4.317,3.059,8.786,6.221,16.157,2.636A2.069,2.069,0,0,1,695,274.755c1.686,0,3.3,4.154,2.564,5.48-.245.44-1.56.49-1.711.883-.3.791.546,1.2,1,1.058C701.934,280.566,701.4,266.716,691.763,263.966Z" transform="translate(-675.478 -263.784)"/></g><g transform="translate(157.586 109.751)"><g transform="translate(10.478)"><path class="b" d="M677.756,322.447l16.152,55.99h4.211l-14.11-53.473c-2.72-8.815,2.265-12.843,6.523-12.843l38.281.124.27-4.075H688.476A11.154,11.154,0,0,0,677.756,322.447Z" transform="translate(-677.304 -308.169)"/></g><path class="c" d="M694.716,308.169H684.239a11.152,11.152,0,0,0-10.719,14.278l16.81,55.99h9.819L684,322.447A11.154,11.154,0,0,1,694.716,308.169Z" transform="translate(-673.067 -308.169)"/></g><g transform="translate(132.031 37.441)"><g transform="translate(52.722)"><path class="g" d="M694.191,281.4c-5.007,10.524-7.268,26.9-9.992,43.189-1.763,10.549,12.994,15.516,16.535,4.327,4.112-12.992,7.013-21.515,6.159-37.689C706.337,280.729,697,275.486,694.191,281.4Z" transform="translate(-684.053 -278.926)"/></g><g transform="translate(10.531 38.965)"><path class="g" d="M713.412,294.939c-3.106,1.229-29.522,13.931-44.257,16.669-1.625.3-3.994,4.6.141,6.6s39.24,2.9,54.3-7.853C723.595,310.356,719.953,292.35,713.412,294.939Z" transform="translate(-666.991 -294.684)"/></g><g transform="translate(0 54.031)"><path class="g" d="M674.164,301.366c-2.257-2.132-5.7,2.186-7.052,2.478-1.122.24,2.24,2.267,5.084.052a11.251,11.251,0,0,1-5.93,3.264c-2.9.623-2.4,4.176-3.417,6.553A1.429,1.429,0,0,0,664.2,315.7c1.9-.022,4.686.685,6.694-1.543,3.665-4.063,10.7-3.885,10.7-3.885l-1.286-7.3S676.421,303.5,674.164,301.366Z" transform="translate(-662.732 -300.777)"/></g></g></g></g></g></svg>