<svg xmlns="http://www.w3.org/2000/svg" width="492.321" height="305.839" viewBox="0 0 492.321 305.839"><defs><style>.a{fill:#f0f0f0;}.b{fill:#42375b;}.c{fill:#fff;}.d{fill:#7661e0;}.d,.e,.f,.g,.h,.i{fill-rule:evenodd;}.e{fill:#a589ff;}.f{fill:#d0401f;}.g{fill:#ff8b5d;}.h{fill:#b3a7ff;}.i{fill:#7f6cea;}.j{fill:#a9d9e0;}.k{fill:#cae6eb;}.l{fill:#ea7180;}.m{fill:#ffb243;}.n{fill:#231b3d;}.o{fill:#4841b7;}.p{fill:#36107f;}.q{fill:#ffc549;}.r{fill:#a7c9ca;}.s{fill:#693ed4;}.t{fill:#d3485c;}.u{fill:#c8e4e9;}.v{fill:#693ed6;}.w{fill:#e6f6f7;}.x{fill:#a7d7de;}</style></defs><g transform="translate(-132.627 -640.251)"><ellipse class="a" cx="244.801" cy="22.255" rx="244.801" ry="22.255" transform="translate(135.346 901.581)"/><g transform="translate(393.612 646.723)"><path class="b" d="M293.187,294.64c1.815-2.676,4.31-7.72,4.31-12.2,0-12.863-12.92-23.283-28.857-23.283s-28.857,10.42-28.857,23.283c0,8.543,6.009,15.435,14.223,20.042,12.7,7.124,41.517,8.491,41.517,8.491-8.425-5.089-7.181-10.707-4.745-13.61C291.552,296.445,292.675,295.391,293.187,294.64Z" transform="translate(-239.783 -259.161)"/><g transform="translate(16.782 21.205)"><g transform="translate(0 0.001)"><path class="c" d="M248.922,267.737a2.349,2.349,0,1,0,2.349,2.349A2.352,2.352,0,0,0,248.922,267.737Z" transform="translate(-246.57 -267.737)"/></g><g transform="translate(9.723 0.001)"><path class="c" d="M252.854,267.737a2.349,2.349,0,1,0,2.349,2.349A2.35,2.35,0,0,0,252.854,267.737Z" transform="translate(-250.502 -267.737)"/></g><g transform="translate(19.446)"><circle class="c" cx="2.35" cy="2.35" r="2.35"/></g></g></g><g transform="translate(132.627 653.337)"><g transform="translate(0 97.99)"><path class="d" d="M330.37,301.464H317.129c-4.856,0-9.656,5.9-10.667,13.115l-18.827,72.676H184.165l-18.818-72.676c-1.011-7.213-5.816-13.115-10.675-13.115H141.421c-4.859,0-8.007,5.9-6.993,13.115l9.29,87.735c1.5,7.213,8.632,13.113,15.845,13.113H312.235c7.211,0,14.342-5.9,15.845-13.113l9.28-87.735C338.372,307.366,335.227,301.464,330.37,301.464Z" transform="translate(-134.238 -301.464)"/></g><g transform="translate(23.153)"><path class="d" d="M276.231,295.1c-3.519-18.1-19.577-33.263-43.5-33.263H204.959c-23.929,0-39.984,15.168-43.505,33.263l-1.491,111.278c-3.519,18.1-30.489,33.261-6.56,33.261H268.251c23.926,0,25.934-15.165,22.413-33.261Z" transform="translate(-143.601 -261.836)"/></g><g transform="translate(39.541 4.416)"><path class="e" d="M267.778,294.123c-3.227-16.592-17.955-30.5-39.9-30.5H206.5c-21.946,0-36.673,13.909-39.9,30.5l-1.367,105.136c-3.229,16.6-27.964,30.506-6.019,30.506H260.459c21.945,0,23.788-13.909,20.558-30.506Z" transform="translate(-150.229 -263.622)"/></g><g transform="translate(30.189 209.324)"><g transform="translate(117.442)"><path class="f" d="M196.964,401.932h8.464l3.022-55.443H193.942Z" transform="translate(-193.942 -346.489)"/></g><path class="f" d="M149.469,401.932h8.464l3.022-55.443H146.447Z" transform="translate(-146.447 -346.489)"/></g><g transform="translate(164.985 97.99)"><path class="d" d="M208.378,372.944h30.909v-71.48H200.96Z" transform="translate(-200.96 -301.464)"/></g><g transform="translate(62.647 209.324)"><g transform="translate(117.442)"><path class="g" d="M210.091,401.932h8.463l3.022-55.443H207.068Z" transform="translate(-207.068 -346.489)"/></g><path class="g" d="M162.6,401.932h8.463l3.023-55.443H159.573Z" transform="translate(-159.573 -346.489)"/></g><g transform="translate(14.906 97.99)"><path class="h" d="M336.4,301.464H323.159c-4.856,0-9.658,5.9-10.667,13.115l-18.83,72.676H190.195l-18.817-72.676c-1.011-7.213-5.816-13.115-10.677-13.115H147.451c-4.859,0-8.007,5.9-7,13.115l9.293,87.735c1.5,7.213,8.632,13.113,15.843,13.113H318.263c7.213,0,14.344-5.9,15.845-13.113l9.283-87.735C344.4,307.366,341.257,301.464,336.4,301.464Z" transform="translate(-140.267 -301.464)"/></g><g transform="translate(179.505 108.778)"><path class="i" d="M225.138,309.65l-.114.814-18.192,70.56h20.39l7.453-74.37a8.272,8.272,0,0,0,.077-.826h-8.135A8.565,8.565,0,0,0,225.138,309.65Z" transform="translate(-206.832 -305.827)"/></g><g transform="translate(25.701 108.778)"><path class="i" d="M154.266,309.65a8.52,8.52,0,0,0-1.481-3.823h-8.153a8.289,8.289,0,0,0,.077.826l7.46,74.37h20.393l-18.182-70.56Z" transform="translate(-144.632 -305.827)"/></g><g transform="translate(56.88 158.814)"><rect class="j" width="93.621" height="25.326" rx="4.731"/></g><g transform="translate(87.789 158.814)"><rect class="k" width="93.621" height="25.326" rx="4.731"/></g></g><g transform="translate(411.674 653.337)"><g transform="translate(14.907 97.99)"><path class="d" d="M444.3,301.464H431.047c-4.856,0-9.661,5.9-10.672,13.115l-18.818,72.676H303.033l-18.827-72.676c-1.014-7.213-5.813-13.115-10.667-13.115H260.294c-4.857,0-8,5.9-6.988,13.115l9.28,87.735c1.5,7.213,8.632,13.113,15.845,13.113H426.155c7.213,0,14.344-5.9,15.848-13.113l9.29-87.735C452.307,307.366,449.159,301.464,444.3,301.464Z" transform="translate(-253.116 -301.464)"/></g><g transform="translate(46.648)"><path class="d" d="M391.574,295.1C388.052,277,372,261.836,348.068,261.836H325.245c-23.929,0-39.987,15.168-43.505,33.263L267.306,406.377c-3.521,18.1-1.513,33.261,22.415,33.261h109.9c23.929,0-3.039-15.165-6.56-33.261Z" transform="translate(-265.953 -261.836)"/></g><g transform="translate(46.649 4.416)"><path class="e" d="M376.662,294.123c-3.229-16.592-17.955-30.5-39.9-30.5H320.334c-21.946,0-36.673,13.909-39.9,30.5L267.194,399.259c-3.229,16.6-1.387,30.506,20.558,30.506h96.293c21.948,0-2.787-13.909-6.016-30.506Z" transform="translate(-265.953 -263.622)"/></g><g transform="translate(56.08 209.324)"><path class="f" d="M272.789,401.932h8.464l3.022-55.443H269.767Z" transform="translate(-269.767 -346.489)"/><g transform="translate(112.496)"><path class="f" d="M318.283,401.932h8.464l3.022-55.443H315.261Z" transform="translate(-315.261 -346.489)"/></g></g><g transform="translate(14.907 97.99)"><path class="d" d="M253.116,372.944h30.909l7.418-71.48H253.116Z" transform="translate(-253.116 -301.464)"/></g><g transform="translate(23.622 209.324)"><path class="g" d="M259.662,401.932h8.463l3.023-55.443H256.64Z" transform="translate(-256.64 -346.489)"/><g transform="translate(112.495)"><path class="g" d="M305.158,401.932h8.462l3.023-55.443H302.134Z" transform="translate(-302.134 -346.489)"/></g></g><g transform="translate(0 97.99)"><path class="h" d="M438.271,301.464H425.02c-4.859,0-9.663,5.9-10.675,13.115l-18.817,72.676H297l-18.827-72.676c-1.011-7.213-5.811-13.115-10.667-13.115H254.265c-4.854,0-8,5.9-6.988,13.115l9.28,87.735c1.5,7.213,8.632,13.113,15.845,13.113H420.128c7.213,0,14.342-5.9,15.845-13.113l9.29-87.735C446.278,307.366,443.13,301.464,438.271,301.464Z" transform="translate(-247.087 -301.464)"/></g><g transform="translate(10.795 108.778)"><path class="i" d="M261.067,309.65a8.594,8.594,0,0,0-1.479-3.823h-8.135a7.611,7.611,0,0,0,.077.826l7.453,74.37h20.39l-18.192-70.56Z" transform="translate(-251.453 -305.827)"/></g><g transform="translate(159.641 108.778)"><path class="i" d="M329.946,309.65l-.114.814-18.184,70.56h20.4l7.46-74.37a8.29,8.29,0,0,0,.077-.826h-8.153A8.491,8.491,0,0,0,329.946,309.65Z" transform="translate(-311.648 -305.827)"/></g><g transform="translate(67.718 158.814)"><rect class="j" width="88.676" height="25.326" rx="4.731"/></g><g transform="translate(36.809 158.814)"><rect class="k" width="88.676" height="25.326" rx="4.731"/></g></g><g transform="translate(194.365 640.251)"><g transform="translate(130.798 91.078)"><path class="l" d="M219.558,293.4c-2.537.1-3.818,1.076-5.883,3.932a7.818,7.818,0,0,0-1.536,5.447c.339,3.355,5.168,3.306,7,3.531.915.114-.967-1.662-3.516-2.52a23.727,23.727,0,0,1,7.1.633c2.611.722,2.146-3.815,3.14-6.392a3.111,3.111,0,0,0-.87-3.111C223.653,293.734,222.924,293.269,219.558,293.4Z" transform="translate(-212.101 -293.377)"/></g><g transform="translate(128.103 90.193)"><path class="c" d="M218.116,293.793c-1.81.027-3.781-.747-5.391-.774a10.747,10.747,0,0,0,2.077,14q2.259-.768,4.533-1.662C215.819,302.6,214.852,298.044,218.116,293.793Z" transform="translate(-211.012 -293.019)"/></g><g transform="translate(73.15 87.123)"><path class="m" d="M246.217,294.392c-14.117.653-29.947-1.442-39.853-2.5-13.232-1.417-17.576,11-17.576,11,6.607,18.479,35.746,16.706,59.709,6.394A10.589,10.589,0,0,1,246.217,294.392Z" transform="translate(-188.788 -291.777)"/></g><g transform="translate(24.028 119.964)"><path class="n" d="M285.924,330.049c-38.461-19.918-78.052-24.433-89.023-24.96-17.888-.861-27.336,16.8-27.922,27.487-.433,7.853,1.006,24.614,28.355,33.379,8.338,2.671,68.408,7.515,90.48,1.934C297.054,365.552,312.877,344,285.924,330.049Z" transform="translate(-168.922 -305.059)"/></g><g transform="translate(148.85 241.31)"><path class="l" d="M219.4,380.724c.383,1.924,9.119,4.122,8.857-.188s8.857-23.024,8.857-23.024l-15.608-3.38Z" transform="translate(-219.402 -354.132)"/></g><g transform="translate(146.641 272.13)"><path class="b" d="M245.018,366.6l-24.908.737s-2.394.947-1.328,2.52,7.46,1.818,7.46,1.818a5.805,5.805,0,0,1,3.163-1.424c1.474.044,3.731,2.119,5.732,2.072s8.1-1.105,9.871-3.029S245.018,366.6,245.018,366.6Z" transform="translate(-218.508 -366.596)"/></g><g transform="translate(147.653 261.902)"><path class="o" d="M240.342,370.645c-3.974-.114-7.517-2.522-9.424-4.033-.2-.158,1.165-3.855.633-4.137-.43-.228-1.4,2.186-2.277,2.789-2,1.387-7.082,1.845-9.738.072,1.724,1.689-1.991,4.73-.03,8.088,0,0,7.581,2.544,10.289,2.542s11.216.692,14.861-2.307C244.657,373.659,245.777,370.8,240.342,370.645Z" transform="translate(-218.918 -362.46)"/></g><g transform="translate(111.696 150.594)"><path class="b" d="M204.427,334.016c-1.526,22.383,31.96,103.355,31.96,103.355s11.32.527,27.527-7.586c0,0-7.952-78.418-15.984-104.666C242.8,308.351,205.2,322.646,204.427,334.016Z" transform="translate(-204.377 -317.446)"/></g><g transform="translate(111.696 152.101)"><path class="n" d="M240.03,413.268c-2.727-5.259-6.224-9.985-7.534-15.875-2.7-12.124,8.38-25.412.45-35.776-6.662-8.7-8.81-12.594-4.9-24.23,4.533-13.5-1.639-17.613-3.217-19.332-10.242,2.854-20.009,9.327-20.4,15.064-1.526,22.383,31.96,103.355,31.96,103.355A41.515,41.515,0,0,0,246,435.342c-.01-.1-.04-.181-.044-.282A54.4,54.4,0,0,0,240.03,413.268Z" transform="translate(-204.377 -318.055)"/></g><g transform="translate(46.489)"><path class="p" d="M188.921,256.561c-8.19-.386-10.915,5.7-10.915,10.895s2.8,8.739,5.655,7.656,14.876-1.424,15.727-6.563A10.736,10.736,0,0,0,188.921,256.561Z" transform="translate(-178.006 -256.544)"/></g><g transform="translate(0.485 119.964)"><path class="b" d="M278.93,332.885c-38.461-19.92-80.579-27.269-91.551-27.8-17.888-.861-27.334,16.8-27.922,27.487-.433,7.853,1.006,24.614,28.355,33.379,8.338,2.671,68.408,7.515,90.48,1.934C287.533,365.552,305.88,346.844,278.93,332.885Z" transform="translate(-159.401 -305.059)"/></g><g transform="translate(0.485 119.964)"><path class="n" d="M228.694,335.689c9.043-.1,19.389-13.224,27.92-12.927-31.174-12.364-60.369-17.247-69.234-17.673-17.888-.861-27.334,16.8-27.922,27.487-.433,7.853,1.006,24.614,28.355,33.379,5.645,1.808,34.989,4.607,60.209,4.5a16.378,16.378,0,0,1,1.743-8.724c-.163-.007-.324-.01-.49-.022-15.872-1.091-57.427-5.591-44.63-18.983C210.166,336.94,221.36,335.768,228.694,335.689Z" transform="translate(-159.401 -305.059)"/></g><g transform="translate(85.486 241.31)"><path class="l" d="M193.777,380.724c.383,1.924,9.117,4.122,8.857-.188s8.857-23.024,8.857-23.024l-15.608-3.38Z" transform="translate(-193.777 -354.132)"/></g><g transform="translate(83.274 272.13)"><path class="b" d="M219.392,366.6l-24.908.737s-2.394.947-1.328,2.52,7.46,1.818,7.46,1.818a5.805,5.805,0,0,1,3.163-1.424c1.474.044,3.734,2.119,5.734,2.072s8.1-1.105,9.871-3.029S219.392,366.6,219.392,366.6Z" transform="translate(-192.882 -366.596)"/></g><g transform="translate(84.288 261.902)"><path class="o" d="M214.715,370.645c-3.974-.114-7.517-2.522-9.424-4.033-.2-.158,1.167-3.855.633-4.137-.43-.228-1.4,2.186-2.275,2.789-2,1.387-7.084,1.845-9.74.072,1.726,1.689-1.988,4.73-.03,8.088,0,0,7.581,2.544,10.292,2.542s11.214.692,14.861-2.307C219.032,373.659,220.15,370.8,214.715,370.645Z" transform="translate(-193.293 -362.46)"/></g><g transform="translate(80.333 150.746)"><path class="b" d="M201.656,323.993c-9.963,20.1-9.963,107.725-9.963,107.725s10.259,4.812,28.335,3.509c0,0,22.621-75.505,25.229-102.829C246.922,314.94,206.715,313.783,201.656,323.993Z" transform="translate(-191.693 -317.507)"/></g><g transform="translate(80.333 176.249)"><path class="n" d="M203.552,342.63c-.477-1.8-1.543-12.965-6.756-14.809-5.1,32.724-5.1,88.707-5.1,88.707s4.641,2.164,13.15,3.195a15.6,15.6,0,0,1-3.064-12.218c1.32-8.781-6.13-18.533,5.151-25.759,4.98-3.187-3.749-9.268-5.549-15.029C200.009,362.335,203.978,344.228,203.552,342.63Z" transform="translate(-191.693 -327.821)"/></g><g transform="translate(0 34.457)"><path class="q" d="M224.633,271.842c-18.476-3.909-38.377,1.805-39.143,2.08C153.443,285.64,159.7,394.566,159.7,394.566a17.593,17.593,0,0,0,8.951,1.283h.025c7.789-.593,17.853-4.3,28.535-9,10.015-4.4,20.6-9.718,30.341-14.169,9.767-4.476,18.694-8.111,25.469-9.221,0,0-4.617-40.545-7.262-55.234C243.928,298.137,239.783,275.049,224.633,271.842Z" transform="translate(-159.206 -270.479)"/></g><g transform="translate(0 34.191)"><path class="m" d="M174.98,349.026c-.1-39.737-7.715-67.58,18.916-73.144,2.918-.618,8.976-1.83,15.133-2.967a17.2,17.2,0,0,1-1.212-2.544c-4.995.443-10.064,1.16-14.836,2.025-1.756.322-3.462.668-5.094,1.014a18.67,18.67,0,0,0-2.4.67C153.443,285.8,159.7,394.725,159.7,394.725a17.593,17.593,0,0,0,8.951,1.283h.025a37.673,37.673,0,0,0,12.537-14.317c4.673-8.655,16.815-2.893,16,5.316,10.015-4.4,20.6-9.718,30.341-14.169-10.064-2.2-14.54-8.061-21.81-9.94C190.954,359.016,175.005,353.8,174.98,349.026Z" transform="translate(-159.206 -270.371)"/></g><g transform="translate(37.448 14.876)"><path class="l" d="M193.944,266.143l-9.522-3.583a27.717,27.717,0,0,1-3.427,13.954c-2.992,5.25-6.644,6.632-6.644,6.632l20.264,10.848c4.706-3.069,5.888-11.283,5.888-11.283C187.426,281.135,193.944,266.143,193.944,266.143Z" transform="translate(-174.35 -262.56)"/></g><g transform="translate(46.841 4.014)"><path class="l" d="M185.271,259.161a9.059,9.059,0,0,0-3.558,6.073s-.2-1.471-1.506-1.513c-2.406-.079-2.381,3.546-1.545,5.255s1.993,1.244,1.993,1.244-.235,2.1,1.929,5.724,8.622,7.463,9.846,5.957c5.984-7.374,7.666-16.33,5.808-19.76S188.481,256.92,185.271,259.161Z" transform="translate(-178.149 -258.167)"/></g><g transform="translate(14.019 99.382)"><path class="l" d="M187.652,301.527c-9.7-9.1-22.292-2.438-22.292-2.438-5.865,24.4,43.28,33.607,48.389,33.1s2.643-7.858,2.643-7.858C206.017,321.262,197.352,310.634,187.652,301.527Z" transform="translate(-164.875 -296.735)"/></g><g transform="translate(12.763 42.247)"><path class="q" d="M166.382,282.8c-3.291,8.195-1.884,48.614-.453,56.136s13.279,11.09,18.511.865,11.911-49.43,11.192-54.86C193.726,270.565,171.55,269.935,166.382,282.8Z" transform="translate(-164.367 -273.629)"/><g transform="translate(1.108 56.047)"><path class="q" d="M165.448,299.737c-4.587,19.082,16.429,31.179,42.126,35.669a10.588,10.588,0,0,1,6.246-13.711c-12.171-7.183-19.933-15.232-27.64-21.542C175.88,291.723,165.448,299.737,165.448,299.737Z" transform="translate(-164.815 -296.295)"/></g><g transform="translate(37.498 78.213)"><path class="c" d="M180.161,321.05q2.823.638,5.739,1.155a10.588,10.588,0,0,1,6.246-13.711c-1.892-1.118-3.613-2.186-5.262-3.234A13.032,13.032,0,0,0,180.161,321.05Z" transform="translate(-179.532 -305.259)"/></g></g><g transform="translate(41.734 97.547)"><g transform="translate(38.661)"><path class="c" d="M266.79,295.993H200.528a4.566,4.566,0,0,0-4.439,4.018l-4.35,41.53a3.55,3.55,0,0,0,3.6,4.016H261.6a4.572,4.572,0,0,0,4.439-4.016l4.35-41.53A3.552,3.552,0,0,0,266.79,295.993Z" transform="translate(-191.718 -295.993)"/></g><g transform="translate(0 49.583)"><path class="c" d="M176.093,316.045c0,.069-.01.128-.01.193a4.369,4.369,0,0,0,4.369,4.369h69.481a4.369,4.369,0,0,0,4.369-4.369c0-.064-.007-.124-.01-.193Z" transform="translate(-176.083 -316.045)"/></g><g transform="translate(39.653)"><path class="k" d="M267.191,295.993H200.929a4.568,4.568,0,0,0-4.439,4.018l-4.35,41.53a3.551,3.551,0,0,0,3.6,4.016H262a4.57,4.57,0,0,0,4.439-4.016l4.35-41.53A3.551,3.551,0,0,0,267.191,295.993Z" transform="translate(-192.119 -295.993)"/></g><g transform="translate(38.624 49.583)"><path class="k" d="M191.713,316.045c0,.069-.01.128-.01.193a4.369,4.369,0,0,0,4.367,4.369h65.622a4.368,4.368,0,0,0,4.367-4.369c0-.064-.007-.124-.01-.193Z" transform="translate(-191.703 -316.045)"/></g><g transform="translate(74.19 20.766)"><path class="r" d="M214.026,304.45a3.33,3.33,0,0,1-2.787,1.417,2.624,2.624,0,0,1-2.532-1.476,5.856,5.856,0,0,0-2.186,2.268,3.7,3.7,0,0,1-.435,3.763,4.317,4.317,0,0,0,1.733,2.361,3.346,3.346,0,0,1,2.851-1.491,2.621,2.621,0,0,1,2.5,1.429,5.808,5.808,0,0,0,1.993-2.089,3.658,3.658,0,0,1,.445-4.038A4.306,4.306,0,0,0,214.026,304.45Z" transform="translate(-206.086 -304.391)"/></g></g><g transform="translate(50.314 2.773)"><path class="p" d="M179.553,265.058s2.357-2.705,8.076-1.048c5.487,1.588,6.8-4.307,6.8-4.307C181.135,252.978,179.553,265.058,179.553,265.058Z" transform="translate(-179.553 -257.666)"/></g><g transform="translate(35.381 35.075)"><path class="c" d="M173.514,271.593a35.516,35.516,0,0,0,9.871,14.77l5.492-5.564,6.968,1.165-20.264-10.848C173.541,270.022,173.514,271.593,173.514,271.593Z" transform="translate(-173.514 -270.729)"/></g><g transform="translate(57.725 34.744)"><path class="c" d="M188.425,270.877c-1.7,9.268-5.875,11.278-5.875,11.278l4.147-1.545,3.457,3.64s3.872-4.948.129-12.989C189.714,270.034,188.425,270.877,188.425,270.877Z" transform="translate(-182.55 -270.595)"/></g><g transform="translate(57.99 124.543)"><path class="l" d="M205.215,315.191a57.629,57.629,0,0,1-9.038-4.886c3.118,1.034,5.566-.762,4.441-.851-2.26-.176-5.517-4.2-7.977-1.758s-7.27,1.259-7.27,1.259-4.965,6.592-1.464,7.789c3.445,1.18,3.593-.091,9.488,4.342a12.2,12.2,0,0,0,7.9,2.851c1.167-.015,1.177-1.174,1.449-2.26C203.415,318.991,208.311,316.373,205.215,315.191Z" transform="translate(-182.657 -306.91)"/></g></g><g transform="translate(372.543 650.136)"><g transform="translate(17.702 110.73)"><path class="l" d="M304.5,305.552c-23.184,6.076-52.323,105.69-64.442,111.345-6.308,2.943,7.656,8.135,8.1,6.689,3.986-12.92,78.517-74.622,79-94.545C327.521,313.994,311.858,303.624,304.5,305.552Z" transform="translate(-238.421 -305.322)"/></g><g transform="translate(0 220.142)"><g transform="translate(0 1.417)"><path class="b" d="M232.7,350.142s-2.161.015-1.18,2.784,6.815,6.553,8.86,7.483,5.292-.213,6.837.391,2.636,2.863,2.636,2.863,6.713,2.564,8.506,1.412-.262-3.185-.262-3.185Z" transform="translate(-231.263 -350.142)"/></g><g transform="translate(0.758)"><path class="s" d="M254.185,354.119a7.979,7.979,0,0,1-2.443-4.55s-8.7,3.341-14.386,1.105-5.786,1.207-5.786,1.207c2.441,4.706,11.535,7.742,14.33,8.941s11.746,1.911,11.746,1.911a7.259,7.259,0,0,0,2.715-7.567S256.472,356.458,254.185,354.119Z" transform="translate(-231.569 -349.569)"/></g></g><g transform="translate(85.09 109.538)"><path class="t" d="M339.3,304.969c-17.71,1.32-50.075,17.752-73.631,33.147l13.523,32.5s76.049-4.2,86.373-43.753C370.7,307.209,350.991,304.1,339.3,304.969Z" transform="translate(-265.674 -304.84)"/></g><g transform="translate(22.833 142.402)"><path class="t" d="M303.476,318.417c-23.011,6.7-49.437,107.067-61.4,113.051-6.224,3.113,7.873,7.923,8.281,6.466,3.635-13.021,76.462-76.727,76.4-96.654C326.72,326.228,310.783,316.288,303.476,318.417Z" transform="translate(-240.496 -318.13)"/></g><g transform="translate(10.221 261.316)"><path class="b" d="M264.166,366.22l-27.969.9s-1.926.982.2,3.014,9.028,2.8,11.273,2.715,4.634-2.564,6.283-2.72,3.642,1.38,3.642,1.38,7.151-.72,8.237-2.552S264.166,366.22,264.166,366.22Z" transform="translate(-235.396 -366.22)"/></g><g transform="translate(10.663 252.199)"><path class="s" d="M256.942,365.5a7.993,7.993,0,0,1-4.223-2.97s-6.278,6.892-12.361,7.438-4.631,3.677-4.631,3.677c4.3,3.111,13.786,1.746,16.82,1.563S263.9,371.65,263.9,371.65a7.25,7.25,0,0,0-.969-7.977S260.038,366.569,256.942,365.5Z" transform="translate(-235.575 -362.533)"/></g><g transform="translate(132.997)"><path class="b" d="M330.228,282.709c-1.471-7.675-3.044-17.527-16.241-15.081s-11.011-8.306-19.07-6.971c-8.682,1.437-5.764,9.646-6.934,11.792-8.12,14.933,2.339,15.741,10.4,21.367,15.682,10.944-.465,16.36,13.024,25.771,7.554,5.272,34.057,3.195,35.6-14.433C348.162,292,332.8,296.133,330.228,282.709Z" transform="translate(-285.048 -260.541)"/></g><g transform="translate(133.899 7.709)"><path class="u" d="M293.994,263.659a40.729,40.729,0,0,0-5.48.994c-2.292.878-3.014,3.054-3.1,5.475a.413.413,0,0,0,.589.393,25.255,25.255,0,0,1,12.406-2.25.415.415,0,0,0,.413-.576C297.886,265.459,296.447,263.674,293.994,263.659Z" transform="translate(-285.413 -263.659)"/></g><g transform="translate(106.106 42.964)"><path class="l" d="M305.194,278.288c-9.5,5.079-17.361,18.049-28.33,28.669-7.1,6.877,1.138,19.821,9.916,13.444,7.552-5.487,28.147-23.318,30.61-27.252C319.456,289.841,310.532,275.435,305.194,278.288Z" transform="translate(-274.173 -277.917)"/></g><g transform="translate(129.36 17.32)"><path class="b" d="M288.982,267.561c-2.057.089-6.582,1.4-5.119,8.249s12.208,7.435,13.966-.312S291.613,267.448,288.982,267.561Z" transform="translate(-283.577 -267.546)"/></g><g transform="translate(129.511 23.198)"><path class="b" d="M286.13,278.479a6.446,6.446,0,0,1-.932-2.648,18.665,18.665,0,0,1,.178-5.7l-1.728-.205a19.911,19.911,0,0,0,.7,6.1,7.127,7.127,0,0,0,1.439,2.727,3.589,3.589,0,0,0,2.705,1.209A3.355,3.355,0,0,1,286.13,278.479Z" transform="translate(-283.638 -269.923)"/></g><g transform="translate(130.309 25.793)"><path class="l" d="M320.249,289.134c-3.355-1.852-10.277-.695-12.534-3.941C304.8,281,305,275.18,304.693,271.174c-5.01-.2-7.218-1.17-6,3.974s1.466,8.885-.079,11.362c-.977,1.568-3.452,1.179-6.066,1.657-7.339,1.34-11.251,10.215-6.523,13.818,8.378,6.385,22.173,3.721,31.908,3.044C322.531,304.707,327.509,293.135,320.249,289.134Z" transform="translate(-283.961 -270.972)"/></g><g transform="translate(79.878 91.191)"><path class="v" d="M362.537,297.42c-3.39,1.016-19.74,9.211-40.536,3.378-1.756,8.677-44.712,4.98-58.436,18.234,18.793-2.794,14.2,26.73,21.228,43.176.148.344.319.717.47,1.061.3.618,4.968,6.258,5.883,6.676a5.369,5.369,0,0,0,.865.371c19.757,6.973,4.08,12.883,10.979,25.716,4.527,8.457,23.516,21.142,37.239,19.09-7.616-24.95,33.036-39.984,36.967-60.533,3.734-19.535-6.9-39.811-12.265-51.43C363.895,300.882,363.054,298.953,362.537,297.42Z" transform="translate(-263.566 -297.42)"/></g><g transform="translate(94.724 92.104)"><path class="b" d="M357.337,338.683c3.811-6.8,5.334-21.429,5.334-21.429-2.285-5.643-6.807-15.482-8.645-19.465-8.435,14.725-15.5,14.569-33.656,26.471-11,7.213,23.553,13.978,14.505,32.141-13.051,26.206-22.307,39.269-23.961,29.052-1.432-8.754,3.091-25.076,10.9-35.237-2.594,1.061-24.8,17.21-40.133,1.432-3.338-3.437-10.583-18.175-12.116-18.6,2.151,9.646,3.214,20.994,6.382,28.612.148.344,1.9,6.038,7.218,8.108,19.527,7.6,4.08,12.883,10.979,25.716,4.528,8.457,23.516,21.142,37.239,19.09-7.616-24.95,33.036-39.984,36.967-60.533,1.887-9.871.1-19.925-2.814-28.963C365.542,325.083,355.512,341.935,357.337,338.683Z" transform="translate(-269.57 -297.789)"/></g><g transform="translate(131.159 42.016)"><path class="w" d="M311.865,277.83c-6,13-16.933,13.3-19.013,6.741-.821-2.589.428-6.481.428-6.481a5.5,5.5,0,0,0-2.235.183c-1.313.87-.267,6.434-4.735,12.094-3.336,4.226-2.725,10.2,3.479,13.912,3.932,2.354,1.306,25.917,1.362,26.233,4.08,1.7,26.619,6.1,41.176-2.891-16.97-26.181-13.81-47.749-14.616-48.513A5.869,5.869,0,0,0,311.865,277.83Z" transform="translate(-284.304 -277.533)"/></g><g transform="translate(131.84 42.768)"><path class="x" d="M316.191,277.837c-5.935,8.528-4.154,17.579-4.5,18.615-2.834,8.412-14.431,6.625-15.816,6.706-4.369.252-8.093-1.78-11.293-4.535a11.25,11.25,0,0,0,4.8,5.208c.252.151,3.885,3.949,5.667,4.481,6.634,1.971,15.133-1.412,17.018-1.241,3.536.317-3.051,4.426-.527,7.045,4.149,4.305-2.866,13.63,3.042,18.269,6-.537,12.168-2.018,17.339-5.21-16.97-26.181-13.81-47.749-14.616-48.513A5.7,5.7,0,0,0,316.191,277.837Z" transform="translate(-284.58 -277.837)"/></g><g transform="translate(148.786 88.674)"><path class="l" d="M291.455,296.582a.5.5,0,0,0,.072-.18l-.094.166Z" transform="translate(-291.433 -296.402)"/></g><g transform="translate(132.726 16.902)"><path class="l" d="M301.51,270.755a1.946,1.946,0,0,0-1.637,1.58s-.806-.67-3.909-3.682-7.042-.183-10.1,3.227,2.282,9.023,4.189,11.951,3.647,4.671,5.586,4.087,5.732-5.081,5.732-5.081a8.323,8.323,0,0,0,1.872-6.422,1.532,1.532,0,0,0,1.637-1.041C305.325,274.153,302.87,270.654,301.51,270.755Z" transform="translate(-284.938 -267.377)"/></g><g transform="translate(130.5 11.202)"><path class="b" d="M297.7,265.082c-2.752-.213-6.953,2.777-9.045,2.586-5.314-.49-5.846,7.715-2.614,9.137,4.478,1.971,9.109,4.016,15.123-.6a1.913,1.913,0,0,1,1.461-1.951c1.528-.316,3.751,3.153,3.333,4.488-.138.448-1.32.732-1.385,1.118a.753.753,0,0,0,1.1.774C309.982,278.242,306.943,265.8,297.7,265.082Z" transform="translate(-284.038 -265.072)"/></g><g transform="translate(149.619 43.992)"><path class="l" d="M304.994,280.332c-5.546,9.233-8.937,22.519-12.9,37.262-2.567,9.552,10.816,15.148,15.074,5.168,4.945-11.587,7.735-17.485,8.395-32.442C315.993,280.609,308.115,275.142,304.994,280.332Z" transform="translate(-291.77 -278.332)"/></g><g transform="translate(111.541 78.021)"><path class="l" d="M317.018,292.42c-2.782,1.335-26.307,14.782-39.717,18.271-1.479.383-1.536,8.2,2.386,6.56,5.524-2.31,34.552-.376,47.734-11.283C327.421,305.968,322.878,289.6,317.018,292.42Z" transform="translate(-276.371 -292.094)"/></g><g transform="translate(95.868 94.178)"><path class="l" d="M284.742,300.752c-1.273-.794-1.953-1.078-5.284-1.063-3.3.02-3.039-1.085-4.095-1.061-1.147.032-1.1,3.407,2.985,3.492,3.158.067-3.919,3.417-7.861,4.975-.626.25-1.063,1.743,1.931,1.872s.717,1.471,6.486,1.37,12.28-3.786,12.28-3.786l-1.672-6.066S286.02,301.541,284.742,300.752Z" transform="translate(-270.032 -298.628)"/></g><g transform="translate(58.775 96.982)"><path class="l" d="M261.832,302.331c-2.955-.519-4.716,1.756-6.226,2.906a1.429,1.429,0,0,0,.163,2.4c2.26,1.249,4.058,4.354,6.726,3.059a11.242,11.242,0,0,1,6.681-1.076c-3.6,0-5.007,3.669-3.974,3.17,1.241-.6,6.617.682,7.082-2.389s3.85-5.042,3.85-5.042l-2.975-5.593S267.221,303.278,261.832,302.331Z" transform="translate(-255.032 -299.762)"/></g><g transform="translate(74.984 70.814)"><path class="l" d="M295.817,289.945c-2.359,1.986-23.647,19.651-33.728,26.367-1.288.858-.1,7.223,3.563,5.067,6.283-3.7,33.209-7.416,43.258-21.263C308.911,300.115,300.793,285.756,295.817,289.945Z" transform="translate(-261.587 -289.179)"/></g></g></g></svg>