<svg xmlns="http://www.w3.org/2000/svg" width="25.027" height="23.921" viewBox="0 0 25.027 23.921"><defs><style>.a{fill:#fff;}</style></defs><path class="a" d="M25.027,24.627V15.374c0-4.958-2.647-7.266-6.175-7.266a5.323,5.323,0,0,0-4.835,2.666V8.487H8.651c.071,1.515,0,16.14,0,16.14h5.365V15.614a3.656,3.656,0,0,1,.177-1.308,2.935,2.935,0,0,1,2.751-1.962c1.942,0,2.718,1.48,2.718,3.649v8.635h5.364ZM3,6.284A2.8,2.8,0,1,0,3.035.707a2.8,2.8,0,1,0-.07,5.577ZM5.682,24.627V8.487H.318v16.14Z" transform="translate(0 -0.707)"/></svg>