<svg xmlns="http://www.w3.org/2000/svg" width="18.477" height="14.668" viewBox="0 0 18.477 14.668"><defs><style>.a{fill:#fff;fill-rule:evenodd;}</style></defs><path class="a" d="M2.191,5.992a.715.715,0,0,0-.233-.6L.233,3.31V3H5.59l4.14,9.08L13.37,3h5.106v.31L17,4.724a.432.432,0,0,0-.164.414V15.53a.432.432,0,0,0,.164.413l1.44,1.414v.31H11.2v-.31l1.493-1.449c.146-.146.146-.189.146-.413V7.1L8.686,17.634h-.56L3.295,7.1v7.063a.975.975,0,0,0,.267.81L5.5,17.323v.311H0v-.311l1.941-2.354a.938.938,0,0,0,.25-.81V5.992Z" transform="translate(0 -3)"/></svg>