<svg xmlns="http://www.w3.org/2000/svg" width="23.729" height="24.218" viewBox="0 0 23.729 24.218"><defs><style>.a{fill:#fff;}</style></defs><path class="a" d="M140.109,138.375H151.54a11.456,11.456,0,0,1,.189,2.018,12.772,12.772,0,0,1-1.435,6.11,10.359,10.359,0,0,1-4.091,4.2,12.092,12.092,0,0,1-6.094,1.514,11.9,11.9,0,0,1-4.714-.954,11.868,11.868,0,0,1-6.441-6.441,12.126,12.126,0,0,1,0-9.429,11.868,11.868,0,0,1,6.441-6.441,11.9,11.9,0,0,1,4.714-.954,11.474,11.474,0,0,1,8.12,3.169l-3.3,3.169a6.665,6.665,0,0,0-4.825-1.876,7.234,7.234,0,0,0-3.76,1.025,7.712,7.712,0,0,0,0,13.244,7.235,7.235,0,0,0,3.76,1.025,8.038,8.038,0,0,0,2.523-.378,6.362,6.362,0,0,0,1.892-.946,6.847,6.847,0,0,0,1.293-1.293,6.024,6.024,0,0,0,.812-1.372,5.792,5.792,0,0,0,.355-1.23h-6.874Z" transform="translate(-128 -128)"/></svg>