<svg xmlns="http://www.w3.org/2000/svg" width="15.998" height="14.997" viewBox="0 0 15.998 14.997"><defs><style>.a{fill:#fff;}</style></defs><path class="a" d="M12.568,15V9.583c0-1.36-.5-2.288-1.738-2.288a1.871,1.871,0,0,0-1.758,1.23,2.218,2.218,0,0,0-.113.821V15H5.53s.046-9.17,0-10.119H8.96V6.309a3.415,3.415,0,0,1,3.09-1.668C14.305,4.641,16,6.087,16,9.2V15ZM.2,15V4.878H3.631V15ZM1.895,3.5A1.759,1.759,0,0,1,0,1.748,1.774,1.774,0,0,1,1.939,0,1.766,1.766,0,0,1,3.856,1.748,1.774,1.774,0,0,1,1.917,3.5Z"/></svg>