<svg xmlns="http://www.w3.org/2000/svg" width="137.073" height="33.652" viewBox="0 0 137.073 33.652"><defs><style>.a{fill:#fff;}</style></defs><path class="a" d="M178.123,300.7H191.99v2.582h-5.46v14.553h-2.993V303.282H178.1l.023-2.582Zm13.273,4.729h2.559v2.4H194a3.014,3.014,0,0,1,.48-.982,3.8,3.8,0,0,1,.845-.868,3.739,3.739,0,0,1,1.1-.64,3.192,3.192,0,0,1,1.211-.251c.32,0,.548.023.663.023a2,2,0,0,0,.366.046v2.627a4.632,4.632,0,0,0-.594-.091,5.2,5.2,0,0,0-.594-.046,3.171,3.171,0,0,0-1.3.274,3.3,3.3,0,0,0-1.074.8,4.333,4.333,0,0,0-.731,1.325,5.59,5.59,0,0,0-.274,1.828v5.894H191.35l.046-12.337Zm19.83,12.405h-2.7V316.1h-.046a3.827,3.827,0,0,1-1.508,1.508,3.98,3.98,0,0,1-2.033.571,4.524,4.524,0,0,1-3.541-1.211,5.3,5.3,0,0,1-1.1-3.655v-7.882h2.741v7.608a3.242,3.242,0,0,0,.64,2.307,2.255,2.255,0,0,0,1.759.685,3.37,3.37,0,0,0,1.439-.274,2.482,2.482,0,0,0,.937-.708,2.779,2.779,0,0,0,.525-1.074,5.072,5.072,0,0,0,.16-1.348v-7.2h2.741v12.405Zm4.66-3.975a2.156,2.156,0,0,0,.914,1.691,3.6,3.6,0,0,0,1.9.48,6.274,6.274,0,0,0,.868-.069,3.827,3.827,0,0,0,.914-.228,1.608,1.608,0,0,0,.708-.5,1.17,1.17,0,0,0,.251-.845,1.229,1.229,0,0,0-.388-.868,3.236,3.236,0,0,0-.914-.548,7.928,7.928,0,0,0-1.279-.343c-.48-.091-.96-.206-1.462-.32s-1.005-.251-1.485-.411a4.256,4.256,0,0,1-1.279-.663,2.849,2.849,0,0,1-.891-1.051,3.284,3.284,0,0,1-.343-1.576,2.7,2.7,0,0,1,.5-1.691,3.643,3.643,0,0,1,1.257-1.1,5.7,5.7,0,0,1,1.691-.594,9.676,9.676,0,0,1,1.759-.16,7.861,7.861,0,0,1,1.828.206,4.62,4.62,0,0,1,1.576.663,3.619,3.619,0,0,1,1.165,1.188,4.115,4.115,0,0,1,.594,1.759h-2.856a1.759,1.759,0,0,0-.891-1.325,3.679,3.679,0,0,0-1.622-.343c-.183,0-.434.023-.685.046a4.034,4.034,0,0,0-.754.183,1.786,1.786,0,0,0-.594.388.914.914,0,0,0-.251.662,1,1,0,0,0,.343.8,3.106,3.106,0,0,0,.914.525,7.928,7.928,0,0,0,1.279.343c.48.091.982.206,1.485.32s.982.251,1.462.411a4,4,0,0,1,1.279.663,3.3,3.3,0,0,1,.914,1.028,3.158,3.158,0,0,1,.343,1.531,3.33,3.33,0,0,1-.5,1.873,4.272,4.272,0,0,1-1.3,1.257,6.457,6.457,0,0,1-1.782.708,9.572,9.572,0,0,1-1.942.228,8.182,8.182,0,0,1-2.17-.274,5.526,5.526,0,0,1-1.736-.8,3.835,3.835,0,0,1-1.142-1.348,4.4,4.4,0,0,1-.457-1.919h2.764v.023Zm9.024-8.43h2.079v-3.747h2.741v3.724H232.2v2.033h-2.467v6.625a7.03,7.03,0,0,0,.046.754,1.583,1.583,0,0,0,.16.525.892.892,0,0,0,.388.32,2.037,2.037,0,0,0,.731.114,4.779,4.779,0,0,0,.571-.023,4.946,4.946,0,0,0,.571-.091v2.125c-.3.046-.594.069-.891.091a5.674,5.674,0,0,1-.891.046,5.906,5.906,0,0,1-1.736-.206,2.494,2.494,0,0,1-1.028-.594,2.123,2.123,0,0,1-.5-.982,7.793,7.793,0,0,1-.16-1.371v-7.311h-2.079v-2.079h0Zm9.207,0H236.7v1.691h.046a3.393,3.393,0,0,1,1.6-1.553,5.179,5.179,0,0,1,2.239-.48,5.63,5.63,0,0,1,2.559.525,4.8,4.8,0,0,1,1.8,1.416,5.907,5.907,0,0,1,1.074,2.1,9.229,9.229,0,0,1,.046,4.98,6.721,6.721,0,0,1-.982,2.079,4.861,4.861,0,0,1-1.668,1.439,4.931,4.931,0,0,1-2.376.548,6.975,6.975,0,0,1-1.188-.114,5.058,5.058,0,0,1-1.142-.343,4.1,4.1,0,0,1-1.005-.617,3.481,3.481,0,0,1-.777-.868h-.046v6.191H234.14v-17Zm9.572,6.214a5.566,5.566,0,0,0-.228-1.622,4.137,4.137,0,0,0-.663-1.394,3.653,3.653,0,0,0-1.074-.982,2.922,2.922,0,0,0-1.485-.366,3.034,3.034,0,0,0-2.6,1.188,5.411,5.411,0,0,0-.868,3.2A5.916,5.916,0,0,0,237,313.4a3.867,3.867,0,0,0,.685,1.371,3.265,3.265,0,0,0,1.1.914,3.1,3.1,0,0,0,1.485.343,3.04,3.04,0,0,0,1.576-.388,3.681,3.681,0,0,0,1.074-.982,4.02,4.02,0,0,0,.594-1.394,7.845,7.845,0,0,0,.183-1.622Zm4.82-10.943h2.741v2.582H248.51Zm0,4.729h2.741v12.405H248.51V305.429ZM253.7,300.7h2.741v17.134H253.7V300.7Zm11.1,17.477a6.528,6.528,0,0,1-2.65-.5,6.016,6.016,0,0,1-1.965-1.348,5.869,5.869,0,0,1-1.211-2.079,8.123,8.123,0,0,1-.434-2.627,7.421,7.421,0,0,1,.434-2.6,6.076,6.076,0,0,1,1.211-2.079,5.48,5.48,0,0,1,1.965-1.348,6.935,6.935,0,0,1,2.65-.5,6.529,6.529,0,0,1,2.65.5,5.686,5.686,0,0,1,1.965,1.348,5.867,5.867,0,0,1,1.211,2.079,7.981,7.981,0,0,1,.434,2.6,7.459,7.459,0,0,1-.434,2.627,6.466,6.466,0,0,1-1.211,2.079,5.48,5.48,0,0,1-1.965,1.348,6.85,6.85,0,0,1-2.65.5Zm0-2.17a3.16,3.16,0,0,0,1.576-.388,3.308,3.308,0,0,0,1.1-1.005,4.306,4.306,0,0,0,.64-1.394,6.233,6.233,0,0,0,0-3.176,4.1,4.1,0,0,0-.64-1.394,3.472,3.472,0,0,0-1.1-.982,3.222,3.222,0,0,0-1.576-.388,3.159,3.159,0,0,0-1.576.388,3.5,3.5,0,0,0-1.1.982,4.1,4.1,0,0,0-.64,1.394,6.233,6.233,0,0,0,0,3.176,4.1,4.1,0,0,0,.64,1.394,3.543,3.543,0,0,0,1.1,1.005,2.992,2.992,0,0,0,1.576.388Zm7.082-10.578h2.079v-3.747H276.7v3.724h2.467v2.033H276.7v6.625a7.026,7.026,0,0,0,.046.754,1.583,1.583,0,0,0,.16.525.893.893,0,0,0,.388.32,2.037,2.037,0,0,0,.731.114,4.779,4.779,0,0,0,.571-.023,4.945,4.945,0,0,0,.571-.091v2.125c-.3.046-.594.069-.891.091a5.672,5.672,0,0,1-.891.046,5.906,5.906,0,0,1-1.736-.206,2.494,2.494,0,0,1-1.028-.594,2.124,2.124,0,0,1-.5-.982,7.8,7.8,0,0,1-.16-1.371v-7.311h-2.079v-2.079h0Z" transform="translate(-142.095 -288.775)"/><path class="a" d="M53.329,260.425H40.787L36.926,248.5l-3.884,11.925L20.5,260.4l10.143,7.379L26.76,279.707,36.9,272.328l10.143,7.379-3.861-11.925Zm-9.275,10.052-7.128,1.85,6.26-4.546Z" transform="translate(-20.5 -248.5)"/></svg>