<svg xmlns="http://www.w3.org/2000/svg" width="16.998" height="13.999" viewBox="0 0 16.998 13.999"><defs><style>.a{fill:#fff;}</style></defs><path class="a" d="M137,203.658a6.922,6.922,0,0,1-2,.557,3.537,3.537,0,0,0,1.533-1.955,6.914,6.914,0,0,1-2.215.857A3.459,3.459,0,0,0,131.77,202a3.511,3.511,0,0,0-3.487,3.534,3.6,3.6,0,0,0,.09.805,9.856,9.856,0,0,1-7.187-3.692,3.57,3.57,0,0,0,1.079,4.718,3.441,3.441,0,0,1-1.579-.442v.044a3.525,3.525,0,0,0,2.8,3.466,3.457,3.457,0,0,1-.919.124,3.4,3.4,0,0,1-.656-.064,3.5,3.5,0,0,0,3.257,2.454,6.94,6.94,0,0,1-4.331,1.513,7.081,7.081,0,0,1-.832-.049A9.779,9.779,0,0,0,125.348,216a9.926,9.926,0,0,0,9.922-10.055c0-.154,0-.305-.01-.457a7.137,7.137,0,0,0,1.74-1.829Z" transform="translate(-120.002 -202.001)"/></svg>