<svg xmlns="http://www.w3.org/2000/svg" width="23.224" height="18.437" viewBox="0 0 23.224 18.437"><defs><style>.a{fill:#42375b;fill-rule:evenodd;}</style></defs><path class="a" d="M2.754,6.761A.9.9,0,0,0,2.461,6L.293,3.39V3H7.026l5.2,11.414L16.806,3h6.419v.39L21.37,5.168a.543.543,0,0,0-.206.521V18.75a.542.542,0,0,0,.206.52l1.811,1.778v.39H14.073v-.39l1.876-1.821c.184-.184.184-.238.184-.52V8.149L10.918,21.394h-.7L4.142,8.149v8.877a1.225,1.225,0,0,0,.336,1.018L6.917,21v.391H0V21L2.44,18.044a1.179,1.179,0,0,0,.314-1.018V6.761Z" transform="translate(0 -3)"/></svg>