<svg xmlns="http://www.w3.org/2000/svg" width="20.109" height="18.85" viewBox="0 0 20.109 18.85"><defs><style>.a{fill:#42375b;}</style></defs><path class="a" d="M15.8,18.85v-6.8c0-1.709-.623-2.876-2.184-2.876A2.352,2.352,0,0,0,11.4,10.716a2.788,2.788,0,0,0-.143,1.032v7.1H6.95s.058-11.526,0-12.719h4.311v1.8a4.293,4.293,0,0,1,3.884-2.1c2.836,0,4.964,1.817,4.964,5.724V18.85Zm-15.542,0V6.131H4.563V18.85ZM2.381,4.395A2.211,2.211,0,0,1,0,2.2,2.23,2.23,0,0,1,2.438,0a2.22,2.22,0,0,1,2.41,2.2,2.229,2.229,0,0,1-2.438,2.2Z"/></svg>