<svg xmlns="http://www.w3.org/2000/svg" width="21.365" height="17.596" viewBox="0 0 21.365 17.596"><defs><style>.a{fill:#42375b;}</style></defs><path class="a" d="M141.367,204.084a8.7,8.7,0,0,1-2.518.7,4.445,4.445,0,0,0,1.927-2.457,8.691,8.691,0,0,1-2.784,1.077,4.348,4.348,0,0,0-3.2-1.4,4.413,4.413,0,0,0-4.383,4.442,4.526,4.526,0,0,0,.114,1.012,12.389,12.389,0,0,1-9.034-4.641,4.487,4.487,0,0,0,1.357,5.93,4.325,4.325,0,0,1-1.985-.556v.056a4.431,4.431,0,0,0,3.516,4.356,4.345,4.345,0,0,1-1.155.156,4.28,4.28,0,0,1-.825-.08,4.4,4.4,0,0,0,4.094,3.085,8.723,8.723,0,0,1-5.444,1.9A8.9,8.9,0,0,1,120,217.6a12.291,12.291,0,0,0,6.72,2c8.062,0,12.471-6.769,12.471-12.639,0-.193,0-.384-.013-.574a8.971,8.971,0,0,0,2.187-2.3Z" transform="translate(-120.002 -202.001)"/></svg>