<svg xmlns="http://www.w3.org/2000/svg" width="125.814" height="151.54" viewBox="0 0 125.814 151.54"><defs><style>.a{fill:#4ccfd8;}.b{fill:#ff527c;}.c{fill:#eca182;}.d{fill:#fbcbab;}.e{fill:#db9172;}.f{fill:#1d2247;}.g{fill:#29235c;}.h{fill:#373f85;}</style></defs><g transform="translate(-269.069 -201.359)"><circle class="a" cx="62.907" cy="62.907" r="62.907" transform="translate(269.069 227.083)"/><path class="b" d="M430.327,454.536a62.911,62.911,0,0,1-97.08.005c.509-9.593,3.079-17.918,11.5-23.312,4.211-2.7,10.1-4.505,16.628-5.631a122.145,122.145,0,0,1,20.409-1.585c13.481,0,28.61,1.817,37.042,7.216C427.242,436.623,429.818,444.943,430.327,454.536Z" transform="translate(-49.808 -124.531)"/><path class="c" d="M483.467,342.331c0-3.513,1.964-7.788,4.386-7.788s4.905.677,4.905,4.19a24.368,24.368,0,0,1-1.509,7.142c-.8,1.789-2.14,2.818-3.4,2.818C485.431,348.692,483.467,345.845,483.467,342.331Z" transform="translate(-133.902 -74.445)"/><path class="d" d="M415.849,271.65h0c-17.088,0-21.75,14.729-21.75,32.9,0,12.05,3.766,20.634,10.794,25.586,4.944,3.484,6.98,4.48,10.957,4.48h0c3.977,0,6.013-1,10.957-4.48,7.027-4.952,10.794-13.536,10.794-25.586C437.6,286.379,432.938,271.65,415.849,271.65Z" transform="translate(-83.874 -39.237)"/><path class="d" d="M391.738,342.331c0-3.513-1.964-7.788-4.387-7.788s-4.9.677-4.9,4.19a24.368,24.368,0,0,0,1.509,7.142c.8,1.789,2.14,2.818,3.4,2.818C389.774,348.692,391.738,345.845,391.738,342.331Z" transform="translate(-77.351 -74.445)"/><path class="d" d="M433.885,411.109v-8.454h-20.3v8.454a2.934,2.934,0,0,1-1.638,2.645c-2.278,1.1-3.762,3.012-3.762,6.383,0,7.946,5.913,16.206,15.549,16.206,9.984,0,15.549-8.26,15.549-16.206,0-3.371-1.484-5.278-3.762-6.383A2.934,2.934,0,0,1,433.885,411.109Z" transform="translate(-91.76 -112.574)"/><path class="e" d="M440.749,405.794v7c-3.356,2.185-5.314,2.863-8.591,2.863-3.973,0-6.01-1-10.957-4.482-.254-.181-.5-.362-.747-.549v-4.828c4.375,3.022,6.4,3.916,10.148,3.916S436.379,408.816,440.749,405.794Z" transform="translate(-98.627 -114.332)"/><ellipse class="f" cx="17.435" cy="14.819" rx="17.435" ry="14.819" transform="translate(314.541 201.359)"/><path class="g" d="M492.621,352.182q.067-.976.1-1.987C492.723,350.829,492.688,351.486,492.621,352.182Z" transform="translate(-139.027 -83.207)"/><path class="h" d="M410.6,217.341c0,5.909,4.07,11.008,9.955,13.385-9.265-.345-16.651-6.837-16.651-14.806,0-8.184,7.8-14.817,17.432-14.817a19.97,19.97,0,0,1,7.482,1.432C416.363,200.361,410.6,209.152,410.6,217.341Z" transform="translate(-89.364 0.255)"/><path class="c" d="M442.379,271.65c-.3,0-.594.015-.89.025,15.069.51,19.222,15.027,19.222,32.872,0,12.05-3.47,20.634-9.945,25.586-4.2,3.214-6.127,4.309-9.276,4.46.287.013.581.021.889.021,3.977,0,6.013-1,10.957-4.481,7.027-4.952,10.794-13.536,10.794-25.586C464.13,286.379,459.467,271.65,442.379,271.65Z" transform="translate(-110.403 -39.237)"/><path class="e" d="M437.6,314.8c0,.345-.006.684-.011,1.019,0,.192-.006.379-.017.566-.045-8.156-5.96-11.246-20.482-15.3a26.337,26.337,0,0,1-11.863-6.978s-13.159,9.95-10.221,30.1c-.005-.006-.011-.011-.011-.017a40.691,40.691,0,0,1-.736-5.292c0,.006,0,.006.006.011-.051-.623-.091-1.251-.119-1.89-.028-.725-.045-1.466-.045-2.219,0-.283,0-.566.006-.849.334-17.528,10.952-23.98,10.952-23.98s5.269,6.554,10.793,8.2C425.609,301.076,437.6,305.038,437.6,314.8Z" transform="translate(-83.872 -49.494)"/><path class="f" d="M385.993,290.488c0-18.168,10.959-24.831,10.959-24.831s5.268,6.555,10.792,8.2c9.759,2.905,21.751,6.869,21.751,16.632,0,1.264-.051,2.48-.133,3.667,3.926-4.943,6.005-13.426,6.005-19.349,0-14.338-5-28.269-27.623-28.269-26.238,0-28.125,14.823-28.125,30.816a27.5,27.5,0,0,0,6.534,17.242C386.049,293.273,385.993,291.907,385.993,290.488Z" transform="translate(-75.768 -25.179)"/><path class="h" d="M396.81,255.614c5.984-2.01,35.415-3.284,22.842-7.4a38.237,38.237,0,0,0-11.908-1.675c-26.238,0-28.125,14.823-28.125,30.816a27.5,27.5,0,0,0,6.534,17.242C381.458,275.777,390.348,257.784,396.81,255.614Z" transform="translate(-75.768 -25.179)"/></g></svg>