<svg xmlns="http://www.w3.org/2000/svg" xmlns:xlink="http://www.w3.org/1999/xlink" width="827.017" height="545.3" viewBox="0 0 827.017 545.3"><defs><style>.a,.b,.e{fill:#fff;}.a{opacity:0.155;}.b,.c,.l,.n{opacity:0.1;}.d,.j,.n{fill:#00d857;}.f{fill:#4d455f;}.g{fill:#fa5959;}.g,.h,.i{opacity:0.8;}.h{fill:#fed253;}.i{fill:#8ccf4d;}.j,.p{opacity:0.2;}.k{fill:none;stroke:#3f3d56;stroke-miterlimit:10;}.m{fill:#46455b;}.o{fill:#a8a8a8;}.q{fill:url(#c);}.r{fill:#65617d;}.s{fill:#776a91;}.t{fill:#3f3d56;}.u{opacity:0.05;}.v{fill:#8a80a0;}.w{fill:#ee8e9e;}.x{fill:#e3e8f4;}.y{fill:#e6e8ec;}.z{fill:#565387;}.aa{filter:url(#a);}</style><filter id="a" x="101.645" y="0" width="666.819" height="522.751" filterUnits="userSpaceOnUse"><feOffset dx="20" dy="30" input="SourceAlpha"/><feGaussianBlur stdDeviation="15" result="b"/><feFlood flood-color="#42375b" flood-opacity="0.071"/><feComposite operator="in" in2="b"/><feComposite in="SourceGraphic"/></filter><linearGradient id="c" x1="0.5" y1="1" x2="0.5" gradientUnits="objectBoundingBox"><stop offset="0" stop-color="gray" stop-opacity="0.251"/><stop offset="0.54" stop-color="gray" stop-opacity="0.122"/><stop offset="1" stop-color="gray" stop-opacity="0.102"/></linearGradient></defs><g transform="translate(-8972.001 -3096.5)"><path class="a" d="M518.169,205.239c-53.008.4-103.94-11.575-152.639-24.927s-97-28.366-148.938-34.494c-33.43-3.948-71.476-3.327-97.751,11.988-25.286,14.73-32.771,38.877-36.465,61.159-2.78,16.768-4.136,34.359,5.649,49.614,6.758,10.586,18.431,19.277,26.672,29.362,28.665,35.086,10.886,80.242-17.539,116.512-13.329,17.015-28.92,33.34-39.035,51.307s-14.37,38.285-4.338,55.892c9.95,17.442,32.621,29.969,57.008,38.548,49.546,17.307,107.3,20.753,163.525,21.847,124.476,2.435,249.274-4.967,373.735-12.362,46.055-2.742,92.319-5.5,137.467-12.849,25.069-4.083,50.887-10.07,68.734-22.934,22.664-16.333,27.482-42.788,11.238-61.684C838.244,440.533,765.847,435,746.367,400.644c-10.721-18.91-1.176-40.735,12.737-59.129,29.924-39.439,81.178-74.922,82.415-118.842.824-30.156-25.474-59.4-64.943-72.248-41.395-13.486-97.991-9.583-127.255,16.191C619.179,193.154,564.98,204.887,518.169,205.239Z" transform="translate(8923.936 3005.682)"/><ellipse class="b" cx="143.851" cy="32.217" rx="143.851" ry="32.217" transform="translate(9454.063 3577.367)"/><g class="c" transform="translate(9434.306 3131.572)"><path class="d" d="M673.12,122.89c0,116.954,73.371,211.588,164.08,211.588" transform="translate(-673.12 -122.89)"/></g><g class="aa" transform="matrix(1, 0, 0, 1, 8972, 3096.5)"><path class="e" d="M801.929,119.468v388.4c0,11.553-11.148,20.978-24.9,20.978H250.007c-13.756,0-24.9-9.4-24.9-20.978v-388.4c0-11.575,11.141-23.368,24.9-23.368l526.951,1.281C790.691,97.381,801.929,107.893,801.929,119.468Z" transform="translate(-98.46 -81.1)"/></g><path class="f" d="M801.927,120.505v18.684H225.11V120.505c0-13.476,10.511-24.4,23.481-24.405H778.4C791.387,96.083,801.923,107.013,801.927,120.505Z" transform="translate(8873.536 3013.781)"/><circle class="g" cx="8.301" cy="8.301" r="8.301" transform="translate(9118.283 3123.93)"/><circle class="h" cx="8.301" cy="8.301" r="8.301" transform="translate(9142.431 3123.93)"/><circle class="i" cx="8.301" cy="8.301" r="8.301" transform="translate(9166.578 3123.93)"/><rect class="j" width="52.453" height="24.889" rx="8.57" transform="translate(9308.421 3239.392)"/><rect class="j" width="52.453" height="24.889" rx="8.57" transform="translate(9414.691 3239.392)"/><path class="k" d="M491.81,203.062l52.506,68.561L598.4,202.74" transform="translate(8842.691 3060.657)"/><rect class="l" width="80.189" height="38.053" rx="8.57" transform="translate(9346.909 3330.086)"/><line class="k" x1="0.682" y1="24.237" transform="translate(9334.18 3215.155)"/><path class="k" d="M654.052,139.93l-30.823,23.054L590.81,139.93" transform="translate(8817.865 3076.409)"/><rect class="j" width="52.453" height="24.889" rx="8.57" transform="translate(9308.129 3191.442)"/><rect class="j" width="52.453" height="24.889" rx="8.57" transform="translate(9445.687 3191.442)"/><rect class="j" width="52.453" height="24.889" rx="8.57" transform="translate(9382.452 3191.442)"/><line class="k" y2="51.173" transform="translate(9386.805 3382.5)"/><path class="k" d="M609.53,558.59Z" transform="translate(8777.133 2899.418)"/><path class="k" d="M462.42,485.429l74.173-22.949,74.473,22.784" transform="translate(8850.063 2995.521)"/><rect class="j" width="52.453" height="24.889" rx="8.57" transform="translate(9360.582 3433.673)"/><rect class="j" width="52.453" height="24.889" rx="8.57" transform="translate(9614.396 3284.293) rotate(90)"/><rect class="j" width="52.453" height="24.889" rx="8.57" transform="translate(9589.507 3418.884) rotate(-90)"/><rect class="j" width="52.453" height="24.889" rx="8.57" transform="translate(9434.905 3480.612)"/><rect class="j" width="52.453" height="24.889" rx="8.57" transform="translate(9338.713 3505.509) rotate(180)"/><rect class="j" width="52.453" height="24.889" rx="8.57" transform="translate(9414.339 3505.509) rotate(180)"/><line class="k" x2="23.346" y2="40.825" transform="translate(9566.154 3351.588)"/><line class="k" x2="24.507" transform="translate(9516.788 3351.086)"/><line class="k" x2="66.891" y2="1.97" transform="translate(9425.473 3349.116)"/><line class="k" x1="23.233" y2="40.893" transform="translate(9566.267 3310.516)"/><rect class="j" width="52.453" height="24.889" rx="8.57" transform="translate(9517.252 3324.706) rotate(90)"/><rect class="j" width="52.453" height="24.889" rx="8.57" transform="translate(9566.154 3325.358) rotate(90)"/><rect class="j" width="52.453" height="24.889" rx="8.57" transform="translate(9184.508 3284.286) rotate(90)"/><rect class="j" width="52.453" height="24.889" rx="8.57" transform="translate(9159.618 3418.884) rotate(-90)"/><line class="k" x1="23.353" y2="40.825" transform="translate(9184.508 3351.588)"/><line class="k" x1="24.5" transform="translate(9232.72 3351.086)"/><line class="k" x1="66.891" y2="1.97" transform="translate(9281.651 3349.116)"/><line class="k" x2="23.233" y2="40.893" transform="translate(9184.508 3310.516)"/><rect class="j" width="52.453" height="24.889" rx="8.57" transform="translate(9281.651 3324.714) rotate(90)"/><rect class="j" width="52.453" height="24.889" rx="8.57" transform="translate(9232.75 3325.358) rotate(90)"/><path class="m" d="M156.12,598c0,37.641,23.616,68.1,52.8,68.1" transform="translate(8890.838 2889.535)"/><path class="d" d="M226.59,665.839c0-38.068,26.358-68.869,58.926-68.869" transform="translate(8873.165 2889.793)"/><path class="d" d="M181.66,602.55c0,35.753,15.059,64.688,33.663,64.688" transform="translate(8884.433 2888.394)"/><path class="m" d="M226.59,659.436c0-48.64,30.463-88,68.1-88" transform="translate(8873.165 2896.196)"/><ellipse class="n" cx="13.126" cy="2.218" rx="13.126" ry="2.218" transform="translate(9084.336 3564.203)"/><path class="o" d="M211.77,688.176s7.492-.232,9.74-1.836,11.516-3.529,12.077-.952,11.238,12.819,2.795,12.887-19.645-1.319-21.892-2.69S211.77,688.176,211.77,688.176Z" transform="translate(8876.882 2867.935)"/><path class="p" d="M236.539,698.728c-8.451.067-19.637-1.311-21.892-2.69-1.716-1.041-2.4-4.788-2.63-6.518h-.247s.472,6.039,2.727,7.41,13.441,2.757,21.892,2.69c2.442,0,3.282-.892,3.237-2.173C239.289,698.234,238.36,698.713,236.539,698.728Z" transform="translate(8876.882 2866.584)"/><path class="q" d="M947.879,689.2l-20.731-30.059s-.39-7.44-1.746-9.185-.292-5.6-.292-5.6,1.453-2.128.195-2.315-.195-4.93-.195-4.93l-.1-7.545s1.161-7.245.195-8.991a2.862,2.862,0,0,1,.1-3.094s1.161-4.158,0-5.245-.877-7.537-.584-12.654-2.03-8.024-2.03-8.8-7.657-8.316-7.657-8.991-4.84-3.476-7.747-4.256-4.36-1.349-4.263-1.738-4.555-1.933-4.555-1.933-4.068-.285-5.619-2.315-6.293-2.622-6.421-2.637a2.615,2.615,0,0,0-.09-.4l-.09-.435c.367-.614.7-1.244,1.011-1.9l.27-.592a8.241,8.241,0,0,0,4.765-1.5,6.518,6.518,0,0,0,2.323-4.638,10.189,10.189,0,0,0-1.131-5.147c-.854-1.746-2.1-3.544-1.671-5.432.187-.817.674-1.5.929-2.33a6.136,6.136,0,0,0-.7-4.578c-.749-1.4-1.753-2.637-2.57-4a15.532,15.532,0,0,1-2.045-5.649,8.9,8.9,0,0,0-.749-3.079,5.708,5.708,0,0,0-1.7-1.716,16.97,16.97,0,0,0-10.414-3.154c-2.637.09-5.245.8-7.882.479a29.161,29.161,0,0,1-4.608-1.206c-3.244-.959-7-1.356-9.822.5s-3.956,5.514-5.874,8.376c-1.7,2.532-4.181,4.653-5.469,7.335a.246.246,0,0,1,.037-.157,9.251,9.251,0,0,0-.749,1.955,13.9,13.9,0,0,0,.427,6.406,4.522,4.522,0,0,0,1.566,2.862c.937.614,2.248.472,3.387.667-.045.187-.09.367-.127.554a22.1,22.1,0,0,0,15.359,25.811v.584a14.77,14.77,0,0,1-.1,1.663h0s-9.74-2-12.355-.652-7.754,2.42-8.526,3.192-2.712.195-4.458,4.735-1.933,9.185-4.166,11.306-3.386,3.581-3.484,5.125.285,1.933-.584,2.42-2.128,2.51-1.746,3.282a2.749,2.749,0,0,1-1.064,2.9,3.229,3.229,0,0,0-1.356,2.9s-.584,2.128-1.94,2.607-2.248,3.679-2.248,3.679l-4.39,5.05-8.713-9.635a3.671,3.671,0,0,0-5.177-.262l-4.2,3.9a8.421,8.421,0,0,0-4.278,2.547,11.241,11.241,0,0,0-2.248,3.3l-2.338,2.113a3.6,3.6,0,0,0-1.206,2.577,3.634,3.634,0,0,0,.607,3.986l5.574,6.174v.052a9.74,9.74,0,0,0-5.394,2.2c-8.331,7.342-8.429,14.108-7.17,17.232S791.659,675.9,791.659,675.9s6.136,7.979,14.984,12.22h0l-.06.068c-.18.187-.352.39-.524.607l-.142.187-.135.187-.157.232-.12.187-.172.277a1.5,1.5,0,0,1-.1.187c-.067.12-.135.247-.195.375l-.067.127c-.082.165-.157.345-.24.524a.867.867,0,0,0-.075.195c-.022.06-.1.255-.15.39l-.09.247c-.045.12-.082.247-.127.375s-.052.18-.082.277l-.112.42-.067.262c-.06.225-.1.457-.157.7l-.045.277a4.254,4.254,0,0,1-.082.495c-.022.172-.037.232-.052.352a1.989,1.989,0,0,1-.06.479c-.06.165,0,.247-.037.367a2.718,2.718,0,0,0,0,.554v.337a8.016,8.016,0,0,1-.037.937c-.195,11.306.465,12.947.465,12.947a6.276,6.276,0,0,0,5.147,3.859,6.688,6.688,0,0,0,1.656-.09c5.035-.869,16.857-2.9,21.023-2.12,2.5.465,7.14-.225,10.437-.847l.877-.172.6,1.926,1.918-.524,1.626.937,1.026.592c1.91,6.481,9.672,4.271,9.672,4.271l1.843,1.064,18.731.479a37.858,37.858,0,0,0,6.623,3.184,6.659,6.659,0,0,0,.937.2,43.055,43.055,0,0,0,5.207.1c1.438,0,2.547-.1,2.547-.1s-.195-5.072-.464-10.759a155.186,155.186,0,0,0,17.315-1.416c9.935-1.753,14.093-10.864,15.629-15.719a45.431,45.431,0,0,1,.974,5.994,43.9,43.9,0,0,0,1.551,5.245,17.731,17.731,0,0,0,2.135,3.866c7.365-2.51,2.907-6.279,1.356-7.919s1.064-3,1.064-3,2.038-1.356,1.843-2.615-.292-2.607,6.293-2.51S947.879,689.2,947.879,689.2ZM845.58,627.49c.082.554,1,6.5,1.836,8.069a10.766,10.766,0,0,1,.217,3.184c-3.9-.307-7.972-.48-7.972-.48a.929.929,0,0,1,.21.5l-.614-.142c-.285-.067-.584-.135-.892-.217l7.193-10.931Zm-14.235,22.664,6.743,1.071.569.09a22.7,22.7,0,0,0-.352,3.192c0,.1.15.217.367.36a8.756,8.756,0,0,0-.127,1.6c.1.539,3.267,1.693,6.893,2.652-.052.195-.1.375-.15.554h0c-3.2-1.686-8.241-2.472-8.826-3.746s-17.689-7.215-17.689-7.215-.629-.337-1.708-.854l4.5.854,1.244-.127a67.367,67.367,0,0,0,8.526,1.573Z" transform="translate(8734.569 2908.385)"/><path class="r" d="M934.037,738.347s-2.69,16.221-16.326,18.626-59.144,1.918-59.144,1.918-26.021-3.746-35.431-25.728-15.456-30.718-7.395-31.115S867.3,716.74,869.8,716.934,936.434,683.519,934.037,738.347Z" transform="translate(8726.362 2863.444)"/><path class="s" d="M934.037,738.347s-2.69,16.221-16.326,18.626-59.144,1.918-59.144,1.918-26.021-3.746-35.431-25.728-15.456-30.718-7.395-31.115S867.3,716.74,869.8,716.934,936.434,683.519,934.037,738.347Z" transform="translate(8726.362 2863.444)"/><path class="t" d="M811.836,766.365a6.234,6.234,0,0,0,5.095,3.836,6.573,6.573,0,0,0,1.641-.09c5-.869,16.708-2.885,20.836-2.113,2.487.457,7.08-.225,10.354-.839,2.173-.412,3.746-.794,3.746-.794s-3.836-12.737-4.323-13.156-17.277-10.489-17.277-10.489l-13.329-.929h0a7.035,7.035,0,0,0-4.5,2.652c-1.4,1.7-2.607,4.5-2.69,9.066C811.161,764.731,811.836,766.365,811.836,766.365Z" transform="translate(8726.522 2853.476)"/><path class="u" d="M811.835,766.375a6.234,6.234,0,0,0,5.095,3.836,55.385,55.385,0,0,1-3.611-5.245l.067-9.313a16.4,16.4,0,0,1,5.245-13.823h-.053s-7.005.479-7.2,11.718S811.835,766.375,811.835,766.375Z" transform="translate(8726.522 2853.466)"/><path class="l" d="M886.412,737.667l12.385-9.695,19.48-19.2s-2.105-.1-5.282-.24c-.749.5-3,2.083-3.087,4.008-.09,2.353-5.245.165-7.957,1.5s-15.809,18.191-18.116,18.071-4.128-1.169-5.087.464l-.067.1Z" transform="translate(8709.636 2861.816)"/><path class="l" d="M815,744.435c.442.21.892.42,1.341.614,9.41,4.031,21.031,12.482,21.892,14.018.532.937,7.267,5.027,12.467,8.092,2.173-.412,3.746-.794,3.746-.794s-3.836-12.737-4.323-13.156-17.277-10.489-17.277-10.489L819.5,741.79h0a7.036,7.036,0,0,0-4.5,2.645Z" transform="translate(8725.605 2853.476)"/><path class="v" d="M779.9,702.09c1.251,3.072,11.718,14.88,11.718,14.88s6.623,8.646,16.033,12.677,21.023,12.482,21.892,14.018c.554.989,8.054,5.507,13.336,8.609l1.184.689,2.622,1.5,1.386.8s3.214-2.585,6.421-5.185,6.3-5.14,6.353-5.245c.09-.285,1.341-3.551,1.049-3.746-.15-.1-.809-1.431-2.015-3a13.674,13.674,0,0,0-4.892-4.046,13.881,13.881,0,0,1-6.338-6.608s-.42-.3-1.056-.7a12.8,12.8,0,0,0-4.323-1.925c-2.113-.262-6.046-4.585-6.046-4.585a11.873,11.873,0,0,1-3.746-3.933c-1.056-2.2-15.9-12.332-17.277-13.284l36.1,23.188,8.639,5.552,12.392-9.695,19.48-19.2s-2.622-.127-6.428-.292c-9.478-.412-26.3-1.056-28.426-.577a16.072,16.072,0,0,1-5.245.345s-4.8.217-7.964-1.453-8.167-2.457-8.743-3.694-17.569-7.2-17.569-7.2-23.136-12.287-31.4-4.99S778.653,699.018,779.9,702.09Z" transform="translate(8734.554 2868.302)"/><path class="w" d="M879.67,605.012l3,9.882,3.844,22.282,14.108.959,4.091-6.743,4.076-6.743s2.54-8.991,4.368-17.712c1.611-7.7,2.667-15.179.914-15.988-1.558-.749-2.585-3.319-3.252-6.106-.082-.345-.165-.7-.232-1.041a55.333,55.333,0,0,1-.937-7.162S880.075,575.1,884.173,587.3a19.342,19.342,0,0,1,1.116,6.481,16.312,16.312,0,0,1-.1,1.648A13.823,13.823,0,0,1,879.67,605.012Z" transform="translate(8709.388 2894.907)"/><path class="x" d="M871.46,609.672l1.064,16.8,2.4,14.31,2.69,6.623,2.4,36.247s23.151,2.675,28.785-.045a2.5,2.5,0,0,0,1.019-.8c6.8-10.264,4.57-40.009,4.57-40.009l2.592-19.2-1.731-9.965-4.173-.45-3.214-.337s-.749.892-1.776,2.248c-2.847,3.746-8.084,11.148-7.732,14.235.48,4.226-.577,8.541-2.248,9.215s-3,1.828-3.259.674a5.436,5.436,0,0,1-.292-3.072c.285-1.633-1.251-6.631-1.251-6.631s-2.592-5.851-2.4-8.354-.285-5.372-1.056-6.046-1.821-1.341-.959-4.413-3.784-9.028-3.784-9.028Z" transform="translate(8711.446 2888.615)"/><path class="l" d="M912.267,648.03l.966,28.71,5.544,3.072a2.547,2.547,0,0,0,1.019-.794c6.8-10.272,4.57-40.016,4.57-40.016l2.592-19.2-1.731-9.965-4.173-.449c1.611-7.7,2.667-15.179.914-15.988-1.558-.749-2.585-3.319-3.252-6.106h0l-3,20.311s.247,1.836.337,3.746a10.682,10.682,0,0,1-.24,3.574c-.674,1.731-.195,4.8-.195,4.8-1.731,3.049-2.6,8.7-3,14.153C912.058,641.114,912.267,648.03,912.267,648.03Z" transform="translate(8701.223 2892.221)"/><path class="t" d="M918.98,586.68s4.84.6,6.376,2.622,5.567,2.3,5.567,2.3,4.608,1.5,4.5,1.918,1.341.966,4.218,1.731,7.687,3.551,7.687,4.226,7.62,8.159,7.62,8.931,2.308,3.649,2.015,8.736-.577,11.523.577,12.579,0,5.185,0,5.185a2.832,2.832,0,0,0-.1,3.072c.959,1.731-.187,8.931-.187,8.931l.09,7.492s-1.056,4.705.195,4.9-.195,2.308-.195,2.308-1.056,3.836.292,5.567,1.731,9.118,1.731,9.118l20.544,29.864s.292,5.469-6.241,5.379-6.436,1.244-6.241,2.495-1.821,2.592-1.821,2.592-2.592,1.341-1.056,3S970.5,725,963.2,727.5a17.8,17.8,0,0,1-2.113-3.844,43.463,43.463,0,0,1-1.536-5.185s-.674-7.3-2.015-8.241-1.154-5.567-1.154-5.567,1.926-3.746-.749-5.282-41.672-23.143-41.672-23.143l-.974-28.748s-.674-21.218,3.357-28.328c0,0-.479-3.072.195-4.8s-.1-7.3-.1-7.3Z" transform="translate(8701.044 2892.374)"/><path class="l" d="M875.69,601.688s-9.657-1.993-12.25-.644-7.68,2.4-8.451,3.169-2.682.187-4.413,4.705-1.918,9.118-4.128,11.238-3.364,3.551-3.461,5.087.292,1.918-.569,2.405-2.113,2.495-1.731,3.259,19.967,17.667,19.967,17.667.966,6.436,1.828,8.069-.959,24.1-2.877,25.638,12.962,1.394,12.962,1.394.667-14.745,1.244-15.509-.382-16.483-.382-16.483-.1-13.441,1.154-16.992,1.109-15.359,1.109-15.359,1.1-7.088,2.442-8.743S875.69,601.688,875.69,601.688Z" transform="translate(8719.182 2888.889)"/><path class="t" d="M875.27,601.3s-9.65-1.985-12.242-.644-7.657,2.39-8.421,3.139-2.69.195-4.42,4.705-1.918,9.125-4.128,11.238-3.357,3.551-3.454,5.087.285,1.918-.577,2.4-2.113,2.495-1.731,3.267,19.989,17.7,19.989,17.7.959,6.428,1.828,8.062-.966,24.1-2.885,25.638,12.962,1.394,12.962,1.394.674-14.737,1.251-15.509-.39-16.483-.39-16.483-.09-13.441,1.154-16.992,1.064-15.4,1.064-15.4,1.1-7.088,2.443-8.736S875.27,601.3,875.27,601.3Z" transform="translate(8719.279 2888.986)"/><path class="l" d="M885.558,587.231a19.345,19.345,0,0,1,1.116,6.481,22,22,0,0,0,25.264-9.98,55.344,55.344,0,0,1-.936-7.163S881.43,575.033,885.558,587.231Z" transform="translate(8708.011 2894.925)"/><path class="w" d="M866.21,563.208a21.99,21.99,0,1,0,.479-4.57A21.989,21.989,0,0,0,866.21,563.208Z" transform="translate(8712.763 2903.776)"/><path class="t" d="M840.923,638.49l-5.245,1.633A2.719,2.719,0,0,1,834.622,643a3.214,3.214,0,0,0-1.341,2.884s-.577,2.113-1.918,2.592-2.21,3.649-2.21,3.649l-4.42,5.087s-1.626,1.341-1.341,2.015-1.731.862-1.731.862l1,17.1,9.126,1.723,5.664-.577,4.608-1.723,4.031-2.405,1.828-4.705,8.062-12.287Z" transform="translate(8723.936 2879.381)"/><path class="w" d="M815.531,665.612s-11.718-16.9-20.454-7.777,3.551,23.908,6.436,23.428,16.61-1.251,16.61-1.251Z" transform="translate(8731.376 2875.208)"/><rect class="t" width="61.309" height="47.606" rx="1.54" transform="translate(9521.312 3506.388) rotate(27.04)"/><rect class="d" width="51.532" height="38.832" transform="translate(9523.748 3512.452) rotate(27.04)"/><circle class="y" cx="0.847" cy="0.847" r="0.847" transform="translate(9512.337 3527.97)"/><circle class="y" cx="1.394" cy="1.394" r="1.394" transform="translate(9561.472 3552.875)"/><path class="w" d="M813.28,671.867c-.09,12.677,26.118,15.359,26.118,15.359l6.7,1.064,3,.479,1.251-12.392s-1.371-.2-3.087-.6c-2.54-.592-5.829-1.618-6.518-3.049C839.593,670.331,813.377,659.19,813.28,671.867Z" transform="translate(8726.037 2872.504)"/><path class="l" d="M866.85,558.656a2.555,2.555,0,0,1,1.611.749c.749.787.749,2.18,1.746,2.66a1.933,1.933,0,0,0,1.146.135c2.555-.36,4.031-3.244,6.481-4.038a6.5,6.5,0,0,1,4.293.375,3.131,3.131,0,0,1,1.424.906c.824,1.064.247,2.63.629,3.911.524,1.783,2.652,2.495,4.5,2.727s3.918.36,5.155,1.753a4.7,4.7,0,0,1,.914,3.746,2.93,2.93,0,0,0,0,1.371c.51,1.446,3,1.229,3.649.09.48-.824.337-1.5,1.453-1.738a4.735,4.735,0,0,1,2.353.4,17.292,17.292,0,0,0,6.076.929,21.99,21.99,0,1,0-41.409-13.921Z" transform="translate(8712.603 2903.758)"/><path class="t" d="M892.919,568.374a3,3,0,0,1,0-1.379A4.7,4.7,0,0,0,892,563.25c-1.236-1.394-3.312-1.5-5.155-1.753s-3.971-.944-4.5-2.727c-.382-1.281.195-2.847-.629-3.9a3.1,3.1,0,0,0-1.424-.914,6.5,6.5,0,0,0-4.293-.375c-2.45.794-3.926,3.679-6.481,4.038a1.933,1.933,0,0,1-1.146-.135c-.966-.479-1-1.873-1.746-2.66-1.169-1.236-3.379-.435-4.81-1.356a4.451,4.451,0,0,1-1.551-2.84,13.842,13.842,0,0,1-.42-6.368c.832-3.574,4.023-5.994,6.061-9.073,1.9-2.84,3-6.436,5.821-8.324s6.518-1.453,9.74-.494a28.391,28.391,0,0,0,4.563,1.191c2.592.322,5.2-.382,7.814-.472a16.828,16.828,0,0,1,10.317,3.132,5.724,5.724,0,0,1,1.686,1.708,8.61,8.61,0,0,1,.749,3.057,15.6,15.6,0,0,0,2.03,5.619c.8,1.349,1.821,2.57,2.547,3.971a6.128,6.128,0,0,1,.689,4.548c-.247.787-.749,1.5-.922,2.315-.427,1.873.809,3.664,1.656,5.394a10.151,10.151,0,0,1,1.124,5.117,6.45,6.45,0,0,1-2.308,4.6,8.241,8.241,0,0,1-4.862,1.5,17.232,17.232,0,0,1-6.2-.952,4.735,4.735,0,0,0-2.353-.4c-1.116.225-.974.914-1.453,1.738C895.915,569.6,893.428,569.813,892.919,568.374Z" transform="translate(8714.413 2907.705)"/><path class="l" d="M885.349,738.42l12.392-9.695,19.48-19.2s-2.622-.127-6.428-.292a4.219,4.219,0,0,0-1.364,2.622c-.09,2.345-5.245.165-7.957,1.5s-15.831,18.184-18.139,18.079-4.128-1.169-5.087.464l-.067.1a2.757,2.757,0,0,1-1.5.869Z" transform="translate(8710.138 2861.641)"/><path class="v" d="M854.93,735.525l6.226,19.869.974,3.117,3-.809,6.533-1.8,29.1-7.994a25.188,25.188,0,0,0,10.489-2.795,31.8,31.8,0,0,1,18.086-3.941c3.844.36,8.122-1.3,11.673-7.859,0,0,8.062-23.81-12.295-30.628s-21.323,3.626-21.323,3.626l-.277.172c-.749.5-3,2.083-3.087,4.008-.09,2.353-5.245.165-7.957,1.5s-15.884,18.191-18.191,18.071-4.128-1.169-5.087.464l-.067.1c-.712.982-2.855,1.206-4.263,1.251h-1.334l-.18.052-1.5.442Z" transform="translate(8715.592 2863.861)"/><path class="l" d="M857.08,691.592l3,.479,1.251-12.392s-1.371-.2-3.087-.6C858.691,680.8,857.664,687.486,857.08,691.592Z" transform="translate(8715.053 2869.202)"/><path class="l" d="M935.743,618.431s8.931-2.592,6.743,22.761-18.731,41.38-18.731,41.38-19.008,8.354-27.556,7.013a148.574,148.574,0,0,0-14.782-1.633,21.73,21.73,0,0,0-8.646-2.308c-4.8-.187-14.88-3.169-15.074-4.128s2.5-15.074,1.349-16.131c0,0,13.441.554,14.782,1.5s3.267.277,4.705,0,5.859-4.113,14.595-.749c0,0,3,.285,4.128-.479a4.137,4.137,0,0,1,3-.195,8.608,8.608,0,0,0,2.09-1.056c.285-.382,2.592,0,2.592,0a1.019,1.019,0,0,0,1.438-.674,6.248,6.248,0,0,1,1.341-2.113s2.592-14.595,7.492-20.064a3.14,3.14,0,0,0,1.056-2.787C915.881,637.229,924.22,615.359,935.743,618.431Z" transform="translate(8714.9 2884.485)"/><path class="t" d="M935.423,615.831s8.931-2.592,6.743,22.761-18.731,41.38-18.731,41.38-19.015,8.354-27.556,7.013-14.82-1.633-14.82-1.633a21.728,21.728,0,0,0-8.639-2.308c-4.8-.187-14.88-3.169-15.074-4.128s2.495-15.074,1.341-16.131c0,0,13.441.554,14.79,1.5s3.267.27,4.705,0,5.859-4.121,14.595-.749c0,0,3,.285,4.128-.479a4.137,4.137,0,0,1,3-.195,8.457,8.457,0,0,0,2.083-1.056c.285-.382,2.592,0,2.592,0a1.019,1.019,0,0,0,1.439-.674,6.435,6.435,0,0,1,1.349-2.113s2.592-14.595,7.492-20.064a3.12,3.12,0,0,0,1.056-2.787C915.524,634.629,923.9,612.759,935.423,615.831Z" transform="translate(8714.988 2885.137)"/><path class="l" d="M869,742.93l12.677,15.344c.052-.045.082-.075.082-.09.1-.285,1.341-3.551,1.056-3.746s-2.495-5-6.915-7.013a13.1,13.1,0,0,1-5.424-4.945Z" transform="translate(8712.063 2853.303)"/><path class="l" d="M869.138,772.849l1.386.8s3.214-2.585,6.421-5.185,6.3-5.14,6.353-5.245c.09-.285,1.341-3.551,1.049-3.746-.15-.1-.809-1.431-2.015-3-8.6-2.412-3.124,3.559-2.4,3.828,0,0-10.489-2.4-11.044,8.991A13.484,13.484,0,0,0,869.138,772.849Z" transform="translate(8712.098 2849.936)"/><path class="t" d="M880.045,777.709l1.828,1.056,18.528.479a37.457,37.457,0,0,0,6.563,3.154,5.75,5.75,0,0,0,.929.21,43.854,43.854,0,0,0,5.162.1c1.424,0,2.517-.1,2.517-.1s-.877-23.376-1.5-25.833c-.315-1.176-1.873-.914-3.4-.33a22.489,22.489,0,0,0-3.319,1.678s-7.875.749-9.126,1.446-4.8-.39-7.005,0-6.144-2.6-6.144-2.6c-10.759-3.551-4.705,3.072-3.941,3.357,0,0-10.489-2.4-11.036,8.991S880.045,777.709,880.045,777.709Z" transform="translate(8711.792 2849.931)"/><path class="z" d="M919.137,768.659c.2,4.84,3.971,10.849,6.219,14.025,1.424,0,2.517-.1,2.517-.1s-.877-23.376-1.5-25.833c-.315-1.176-1.873-.914-3.4-.33C921.077,759.908,918.972,764.763,919.137,768.659Z" transform="translate(8699.492 2849.93)"/><path class="l" d="M919.137,768.659c.2,4.84,3.971,10.849,6.219,14.025,1.424,0,2.517-.1,2.517-.1s-.877-23.376-1.5-25.833c-.315-1.176-1.873-.914-3.4-.33C921.077,759.908,918.972,764.763,919.137,768.659Z" transform="translate(8699.492 2849.93)"/><path class="u" d="M914.806,769.3c1.274,4.668,1.259,9.9,3.3,13.074a5.743,5.743,0,0,0,.929.21,43.869,43.869,0,0,0,5.162.1c1.423,0,2.517-.1,2.517-.1s-.877-23.376-1.5-25.833c-.315-1.176-1.873-.914-3.4-.33a22.483,22.483,0,0,0-3.319,1.678S913.172,763.325,914.806,769.3Z" transform="translate(8700.654 2849.93)"/><path class="l" d="M829.58,710.55s9.208,3,17.007,13.606Z" transform="translate(8721.949 2861.31)"/><g class="c" transform="translate(9574.026 3450.051)"><path d="M929.285,556.77a.306.306,0,0,1-.052.21,8.139,8.139,0,0,1-.322.8,6.078,6.078,0,0,1,.375-1.011Z" transform="translate(-876.987 -550.177)"/><path d="M859.827,549.911a8.994,8.994,0,0,1,.749-1.94c-.052.165-.1.33-.142.5a13.8,13.8,0,0,0,.427,6.361,4.45,4.45,0,0,0,1.551,2.847c1.431.914,3.641.12,4.81,1.356.749.749.749,2.18,1.746,2.66a1.933,1.933,0,0,0,1.146.135c2.547-.36,4.031-3.244,6.481-4.038a6.5,6.5,0,0,1,4.293.375,3.124,3.124,0,0,1,1.423.914c.817,1.057.247,2.622.622,3.9.532,1.783,2.66,2.487,4.5,2.727s3.918.36,5.155,1.753a4.7,4.7,0,0,1,.914,3.746,2.833,2.833,0,0,0,0,1.371c.509,1.439,3,1.229,3.649.09.479-.824.33-1.5,1.453-1.746a4.825,4.825,0,0,1,2.353.412,17.426,17.426,0,0,0,6.2.929,8.24,8.24,0,0,0,4.862-1.5,5.649,5.649,0,0,0,1.5-1.813,6.151,6.151,0,0,1-2.075,3.252,8.241,8.241,0,0,1-4.862,1.5,17.233,17.233,0,0,1-6.219-.989,4.735,4.735,0,0,0-2.353-.4c-1.116.225-.974.914-1.453,1.738-.652,1.139-3.139,1.356-3.649-.082a3,3,0,0,1,0-1.379,4.7,4.7,0,0,0-.914-3.746c-1.236-1.394-3.312-1.5-5.155-1.753s-3.971-.944-4.5-2.727c-.382-1.281.195-2.847-.629-3.9a3.14,3.14,0,0,0-1.424-.914,6.5,6.5,0,0,0-4.293-.375c-2.45.794-3.933,3.679-6.481,4.038a1.934,1.934,0,0,1-1.146-.135c-.966-.479-1-1.873-1.746-2.66-1.169-1.236-3.379-.435-4.81-1.356a4.451,4.451,0,0,1-1.551-2.84A13.442,13.442,0,0,1,859.827,549.911Z" transform="translate(-859.608 -547.97)"/></g><path class="l" d="M928.818,651.584c-1.761,2.375-3.746,4.57-5.327,7.08a13.322,13.322,0,0,0-2.33,8.384c1.611-1.648,2.345-3.933,3.364-5.994,1.716-3.506,4.286-6.481,6.458-9.74.412-.614,3.064-4.173,1.723-4.345C931.6,646.842,929.417,650.775,928.818,651.584Z" transform="translate(8698.997 2877.255)"/><circle class="d" cx="45" cy="45" r="45" transform="translate(9342 3303)"/><g transform="translate(9363.751 3328.432)"><path class="e" d="M16.42,31.887H8.162L11.828,9.92A3.507,3.507,0,0,1,15.3,6.987h21.84l-1.084,6.472h7.014L45.305.1h-30A10.394,10.394,0,0,0,5.037,8.772L0,38.805H15.272Z" transform="translate(0 -0.1)"/><path class="e" d="M79.446,79.095l-5.579-8.353-1.243-1.977-.287,1.817L70.9,79.031H65.8L69.18,59.2h3.953l5.994,9.246.925,1.562.223-1.371L81.837,59.3h5.1l-3.348,19.8Z" transform="translate(-44.821 -40.357)"/></g></g></svg>