<svg xmlns="http://www.w3.org/2000/svg" xmlns:xlink="http://www.w3.org/1999/xlink" width="906.372" height="766.94" viewBox="0 0 906.372 766.94"><defs><style>.a{fill:#8a81f7;}.b{fill:url(#a);}.c{fill:url(#b);}.d{fill:#60a0bc;}.e{fill:url(#c);}.f{fill:#f9c2c5;}.g{fill:#b14862;}.h{fill:#f44785;}.i{fill:#3a3aaa;}.j{fill:#d85d7b;}.k{fill:#af7272;}.l{fill:#00d857;}.m{fill:#008b38;}.n{fill:#42375b;}.o{fill:#ffd124;}</style><linearGradient id="a" x1="0.953" y1="-0.108" x2="0.145" y2="0.902" gradientUnits="objectBoundingBox"><stop offset="0" stop-color="#dbcbff"/><stop offset="0.239" stop-color="#badaff"/><stop offset="0.679" stop-color="#a2eaf0"/><stop offset="0.829" stop-color="#a1fffd"/><stop offset="1" stop-color="#42375b"/></linearGradient><linearGradient id="b" x1="0.5" y1="0.131" x2="0.5" y2="0.9" gradientUnits="objectBoundingBox"><stop offset="0" stop-color="#6f8ad3"/><stop offset="0.244" stop-color="#4174b9"/><stop offset="0.693" stop-color="#76c5f7"/><stop offset="1" stop-color="#76daf8"/></linearGradient><linearGradient id="c" x1="0.752" y1="0.273" x2="0.259" y2="0.758" gradientUnits="objectBoundingBox"><stop offset="0" stop-color="#66d894"/><stop offset="0.571" stop-color="#009a82" stop-opacity="0.627"/><stop offset="1" stop-color="#007e5c" stop-opacity="0"/></linearGradient></defs><g transform="translate(-132.065 -171.524)"><g transform="translate(571.229 420.418)"><path class="a" d="M434.664,467.037l-2.435-1.623,4.872-7.3,2.435,1.624Zm9.744-14.6-2.435-1.624,4.872-7.3,2.435,1.624Zm9.744-14.6-2.435-1.623,4.872-7.3,2.435,1.623Zm9.744-14.6-2.435-1.624,4.872-7.3,2.435,1.624Zm9.744-14.6L471.205,407l4.872-7.3,2.435,1.622Zm9.746-14.6-2.435-1.622,4.872-7.3,2.434,1.624Zm9.746-14.6-2.436-1.624,4.874-7.3L498,372.108Zm9.744-14.6-2.435-1.623,4.872-7.3,2.435,1.624Zm9.744-14.6-2.435-1.624,4.872-7.3,2.435,1.624Z" transform="translate(-432.229 -341.275)"/></g><g transform="translate(306.288 338.787)"><rect class="a" width="147.139" height="2.926" transform="translate(0 32.192) rotate(-12.638)"/></g><g transform="translate(569.62 284.225)"><path class="a" d="M431.771,276.068l-.642-2.855,8.563-1.925.644,2.854Zm17.13-3.849-.642-2.854,8.563-1.927.644,2.856Zm17.13-3.851-.642-2.854,8.563-1.924.644,2.854Zm17.13-3.849-.642-2.855,8.563-1.925.644,2.854Zm17.13-3.851-.642-2.854,8.565-1.924.642,2.854Zm17.13-3.848-.642-2.856,8.565-1.924.642,2.855Zm17.13-3.851-.642-2.854,8.563-1.925.644,2.854Z" transform="translate(-431.129 -248.189)"/></g><path class="b" d="M506.662,517.762l-144.106-83.2L228.631,357.242,683.123,249.483Z" transform="translate(44.718 36.636)"/><path class="c" d="M650.581,249.483,298.9,416.6l42.187,107.666,3.27-81.761Z" transform="translate(77.259 36.636)"/><path class="d" d="M384.615,412.7l-53.609-31.291-3.27,81.761Z" transform="translate(90.611 97.729)"/><g transform="translate(132.065 481.744)"><path class="a" d="M952.655,839.911l-2.458-1.586c1.576-2.445,3.14-4.936,4.645-7.406l2.5,1.523C955.822,834.933,954.246,837.447,952.655,839.911Zm9.175-15.058-2.537-1.457q1.929-3.358,3.728-6.672l.515-.963,2.584,1.378-.527.977Q963.775,821.464,961.83,824.853Zm8.212-15.674-2.666-1.209c1.2-2.635,2.318-5.331,3.334-8.017l2.737,1.037C972.408,803.733,971.262,806.49,970.042,809.179Zm6.274-16.588-2.8-.854c.847-2.772,1.6-5.592,2.253-8.378l2.849.663C977.959,786.871,977.182,789.755,976.315,792.59ZM278.8,780.732l-1.685,0,.015-2.926,1.666,0q3.54,0,7.074-.073l.06,2.926Q282.367,780.731,278.8,780.732Zm-10.5-.158c-2.973-.094-5.936-.225-8.808-.392l.168-2.92c2.847.164,5.785.294,8.73.386Zm26.441-.2-.129-2.923c2.89-.129,5.826-.293,8.73-.49l.2,2.92C300.613,780.081,297.652,780.246,294.741,780.377Zm-44.049-.834c-2.957-.256-5.911-.56-8.78-.9l.345-2.906c2.838.336,5.762.637,8.688.893Zm61.637-.364-.269-2.914c2.891-.263,5.817-.568,8.7-.9l.338,2.906C318.191,778.6,315.241,778.912,312.328,779.178Zm-79.164-1.726c-2.945-.451-5.874-.956-8.708-1.5l.552-2.875c2.8.539,5.691,1.034,8.6,1.481Zm96.666-.3-.4-2.9q4.374-.6,8.66-1.254l.442,2.891Q334.227,776.553,329.83,777.156Zm650.5-1.849-2.89-.461c.456-2.876.808-5.772,1.043-8.6l2.914.243C981.154,769.389,980.794,772.357,980.326,775.307Zm-633.1-.821-.492-2.884q4.348-.74,8.613-1.539l.54,2.875Q351.594,773.746,347.223,774.486Zm-131.414-.372c-2.925-.688-5.805-1.434-8.562-2.218l.8-2.815c2.713.771,5.551,1.507,8.433,2.184Zm148.708-2.868-.585-2.866q4.315-.884,8.558-1.824l.634,2.857Q368.856,770.357,364.516,771.247Zm-165.723-1.993c-2.847-.976-5.64-2.026-8.3-3.122l1.115-2.705c2.6,1.072,5.339,2.1,8.13,3.059Zm182.9-1.816-.679-2.846q4.279-1.023,8.493-2.1l.727,2.835Q386,766.409,381.7,767.438Zm17.046-4.361-.77-2.824q4.238-1.159,8.426-2.364l.812,2.812Q403,761.913,398.742,763.077Zm-216.337-.615c-2.713-1.352-5.336-2.793-7.794-4.287l1.517-2.5c2.389,1.45,4.942,2.851,7.582,4.17ZM415.644,758.2l-.852-2.8q4.207-1.275,8.373-2.609l.89,2.79Q419.868,756.916,415.644,758.2Zm566.138-.6h-2.926v-.363c0-2.787-.111-5.574-.334-8.285l2.919-.237c.225,2.789.341,5.656.341,8.522Zm-814.565-4.406a77.658,77.658,0,0,1-6.834-5.76l2.015-2.123a74.6,74.6,0,0,0,6.577,5.542Zm265.2-.338-.923-2.777q4.159-1.383,8.3-2.813l.954,2.767Q436.6,751.462,432.421,752.853Zm16.623-5.74-.983-2.755q4.122-1.468,8.231-2.982l1.008,2.748Q453.177,745.638,449.044,747.113Zm16.482-6.05-1.03-2.737q4.086-1.541,8.179-3.109l1.049,2.732Q469.622,739.522,465.526,741.064ZM154.3,740.85a88.328,88.328,0,0,1-5.245-7.213l2.449-1.6a85.976,85.976,0,0,0,5.072,6.976Zm823.141-.481c-.49-2.844-1.118-5.682-1.864-8.432l2.822-.768c.773,2.838,1.419,5.767,1.925,8.7Zm-495.528-5.59-1.064-2.727q4.071-1.587,8.164-3.2l1.075,2.723Q485.986,733.188,481.914,734.778Zm16.337-6.445-1.084-2.717,8.149-3.252,1.086,2.718Zm-353.7-2.392c-1.355-2.6-2.619-5.312-3.756-8.075l2.707-1.115c1.1,2.683,2.329,5.317,3.643,7.835Zm828.353-2.212q-.452-1.194-.945-2.376c-.773-1.86-1.621-3.716-2.524-5.523l2.619-1.306c.931,1.865,1.808,3.785,2.607,5.7q.509,1.227.979,2.464ZM514.55,721.818l-1.089-2.717,8.149-3.263,1.086,2.718Zm16.294-6.517-1.083-2.717q4.051-1.615,8.16-3.239l1.074,2.72Q534.891,713.689,530.844,715.3ZM137.77,709.5c-.876-2.765-1.663-5.652-2.342-8.577l2.853-.66c.66,2.85,1.426,5.661,2.278,8.354Zm409.388-.65-1.068-2.723q4.06-1.593,8.183-3.189l1.056,2.729Q551.209,707.264,547.157,708.852Zm418.056-.544c-1.513-2.414-3.169-4.8-4.925-7.09l2.324-1.78c1.811,2.364,3.52,4.824,5.081,7.315Zm-401.7-5.785-1.043-2.735q4.073-1.554,8.215-3.112l1.03,2.737Q567.579,700.97,563.512,702.523Zm16.417-6.171-1.017-2.743q4.115-1.523,8.246-3.024l1,2.749Q584.035,694.832,579.929,696.352Zm374.8-1.749c-1.924-2.094-3.982-4.152-6.119-6.119l1.982-2.151c2.195,2.019,4.312,4.136,6.29,6.288ZM133.737,692.21c-.454-2.872-.819-5.835-1.089-8.809l2.914-.262c.263,2.909.62,5.807,1.064,8.615ZM596.4,690.362l-.982-2.755q4.135-1.475,8.285-2.926l.963,2.764Q600.53,688.889,596.4,690.362Zm16.553-5.782-.947-2.768q4.159-1.422,8.329-2.809l.923,2.777Q617.1,683.162,612.956,684.58Zm329.06-1.706c-2.221-1.748-4.579-3.47-7.005-5.116l1.643-2.421c2.483,1.684,4.9,3.447,7.172,5.238Zm-312.423-3.83-.9-2.783q4.183-1.356,8.379-2.673l.873,2.793Q633.76,677.691,629.593,679.044Zm-497.468-4.5q-.059-2.144-.06-4.249,0-2.333.069-4.615l2.926.089q-.068,2.234-.069,4.524,0,2.065.06,4.167Zm514.194-.754-.849-2.8q4.207-1.277,8.427-2.514l.821,2.809Q650.514,672.519,646.319,673.793Zm281.349-.669c-2.445-1.435-5.011-2.84-7.626-4.174l1.329-2.607c2.666,1.361,5.283,2.793,7.779,4.258Zm-264.525-4.256-.792-2.818q4.236-1.191,8.48-2.336l.762,2.827Q667.362,667.681,663.143,668.868Zm249.044-3.661c-2.619-1.159-5.326-2.279-8.049-3.327l1.051-2.733c2.77,1.068,5.522,2.206,8.183,3.385Zm-232.118-.9-.729-2.835q4.264-1.1,8.539-2.135l.692,2.844Q684.314,663.217,680.069,664.309Zm17.03-4.145-.654-2.853q4.291-.985,8.591-1.911l.614,2.86Q701.372,659.182,697.1,660.164Zm198.837-1.226c-2.733-.909-5.536-1.775-8.329-2.574l.806-2.814c2.831.811,5.674,1.687,8.446,2.609Zm-760.363-1.846-2.914-.257c.259-2.951.607-5.914,1.033-8.8l2.894.426C136.169,651.29,135.828,654.2,135.573,657.091Zm578.656-.615-.575-2.869q4.319-.865,8.647-1.664l.531,2.877Q718.527,655.615,714.229,656.477Zm164.945-2.341c-2.793-.676-5.659-1.314-8.515-1.892l.579-2.869c2.894.587,5.8,1.232,8.625,1.917ZM731.457,653.3l-.486-2.885q4.348-.731,8.7-1.391l.439,2.893Q735.779,652.572,731.457,653.3Zm17.317-2.623-.388-2.9q4.367-.586,8.739-1.092l.338,2.906Q753.116,650.1,748.774,650.674Zm113.3,0c-2.85-.468-5.754-.894-8.638-1.263l.372-2.9c2.917.375,5.858.8,8.741,1.279Zm-95.912-2.01-.282-2.912q4.383-.426,8.773-.768l.228,2.917Q770.524,648.235,766.166,648.66Zm78.591-.231c-2.89-.288-5.82-.546-8.708-.764l.219-2.917c2.913.219,5.867.478,8.78.77ZM783.613,647.3l-.17-2.92q4.4-.257,8.8-.42l.108,2.925Q787.982,647.049,783.613,647.3Zm43.71-.192c-2.9-.151-5.841-.269-8.738-.35l.083-2.926c2.92.082,5.882.2,8.8.353Zm-26.229-.457-.045-2.926q3.217-.05,6.439-.051l2.37.007-.017,2.926-2.353-.007Q804.29,646.6,801.094,646.654ZM138.1,639.891l-2.869-.576c.579-2.878,1.22-5.776,1.9-8.61l2.844.686C139.307,634.19,138.674,637.05,138.1,639.891Zm4.083-16.934-2.814-.795c.792-2.8,1.652-5.646,2.559-8.448l2.783.9C143.821,617.382,142.971,620.188,142.187,622.958Zm5.358-16.565-2.749-1c.99-2.717,2.057-5.484,3.17-8.223l2.711,1.1C149.577,600.975,148.523,603.708,147.544,606.393Zm6.558-16.138-2.669-1.2c1.188-2.652,2.449-5.34,3.747-7.987l2.626,1.289C156.525,584.975,155.278,587.632,154.1,590.255Zm7.68-15.671L159.2,573.21c1.367-2.568,2.8-5.166,4.274-7.728l2.538,1.457C164.554,569.472,163.134,572.046,161.782,574.584Zm8.7-15.156-2.489-1.538c1.545-2.5,3.143-5.01,4.748-7.45l2.443,1.608C173.592,554.465,172.009,556.948,170.478,559.428ZM180.1,544.8l-2.4-1.677c1.664-2.378,3.4-4.79,5.169-7.171l2.35,1.744C183.469,540.061,181.745,542.45,180.1,544.8Zm10.432-14.072-2.3-1.8c1.789-2.284,3.652-4.6,5.538-6.89l2.258,1.864C194.154,526.171,192.306,528.468,190.531,530.733Zm11.155-13.525-2.211-1.918c1.924-2.219,3.9-4.443,5.863-6.609l2.167,1.965C205.553,512.8,203.6,515,201.686,517.208Zm11.784-12.991-2.123-2.015q3.035-3.2,6.146-6.343l2.081,2.057Q216.483,501.04,213.469,504.217ZM225.8,491.744l-2.038-2.1q3.167-3.072,6.394-6.086l2,2.138Q228.951,488.694,225.8,491.744Zm12.818-11.978-1.956-2.174q3.272-2.947,6.609-5.845l1.918,2.209Q241.879,476.836,238.623,479.766Zm13.239-11.5-1.883-2.241q3.373-2.835,6.8-5.614l1.846,2.268Q255.218,465.444,251.862,468.262Zm13.6-11.065-1.811-2.3q3.457-2.724,6.958-5.4l1.778,2.326Q268.908,454.485,265.466,457.2Zm13.921-10.641-1.744-2.35q3.538-2.623,7.1-5.2l1.712,2.373Q282.908,443.945,279.387,446.556Zm14.2-10.252-1.681-2.4q3.6-2.526,7.225-5.005l1.652,2.416Q297.172,433.788,293.589,436.3Zm14.449-9.882-1.624-2.435q3.658-2.438,7.333-4.828l1.595,2.452Q311.684,423.993,308.039,426.422Zm14.659-9.538-1.568-2.471q3.711-2.352,7.427-4.663l1.544,2.487Q326.394,414.535,322.7,416.884Zm14.871-9.235-1.517-2.5q3.768-2.289,7.541-4.528l1.494,2.515Q341.328,405.37,337.568,407.649Zm15.078-8.954-1.472-2.53q3.812-2.219,7.621-4.391l1.448,2.544Q356.452,396.481,352.646,398.7Zm15.234-8.689-1.428-2.555q3.856-2.153,7.691-4.26l1.409,2.566Q371.725,387.855,367.88,390.006Z" transform="translate(-132.065 -383.191)"/></g><g transform="translate(696.17 475.546)"><g transform="translate(160.445)"><path class="a" d="M636.408,392.413l-2.855-.649,1.845-8.111-8.111-1.843.649-2.855,10.966,2.492Z" transform="translate(-627.287 -378.955)"/></g><g transform="translate(0 2.175)"><g transform="translate(0 0)"><rect class="a" width="191.903" height="2.925" transform="translate(0 89.997) rotate(-27.967)"/></g></g></g><g transform="translate(686.514 555.582)"><g transform="translate(0 0)"><path class="a" d="M512.377,488.957l-1.352-2.6,7.788-4.053,1.35,2.594Zm15.573-8.108-1.352-2.6,7.786-4.053,1.352,2.594Zm15.571-8.108-1.35-2.6,7.786-4.053,1.352,2.594Zm15.573-8.108-1.352-2.6,7.787-4.053,1.352,2.594Zm15.572-8.108-1.35-2.6,7.787-4.053,1.352,2.594Zm15.573-8.108-1.352-2.6,7.786-4.053,1.352,2.594Zm15.572-8.108-1.35-2.6,7.786-4.053,1.352,2.594Z" transform="translate(-511.025 -433.658)"/></g></g><g transform="translate(225.045 673.868)"><path class="e" d="M278.938,161.1,309.5,178.75,134.563,271.685l48.553,28.032,174.938-92.935,30.565,17.646,21.009-75.454Z" transform="translate(-134.563 -148.975)"/></g><g transform="translate(225.045 171.524)"><path class="e" d="M278.938,161.1,309.5,178.75,134.563,271.685l48.553,28.032,174.938-92.935,30.565,17.646,21.009-75.454Z" transform="translate(-134.563 -148.975)"/></g><g transform="translate(763.373 236.296)"><path class="e" d="M278.938,161.1,309.5,178.75,134.563,271.685l48.553,28.032,174.938-92.935,30.565,17.646,21.009-75.454Z" transform="translate(-134.563 -148.975)"/></g><g transform="translate(490.354 301.175)"><g transform="translate(0)"><path class="f" d="M401.753,274.45l-3.713,16.415-5.548-6.074,3.819-7.957Z" transform="translate(-369.755 -252.978)"/><path class="f" d="M399.387,280.45l1.6-3.508a19.386,19.386,0,0,0,0-2.993c-.057-.187-.6-.348-1.134-1.089a1.107,1.107,0,0,0-1.059-.369,9.19,9.19,0,0,1-1.22-.225,4.181,4.181,0,0,0-1.159.755c-.083.113-1,.562-1.036.936-.039.458.452,1.02.707,1.4.2.3.372.3.534.216.208-.11.241-.455.006-1.1a1.691,1.691,0,0,1-.006,1.1c-.282.79-1.87,1.131-2.287,1.784a2.981,2.981,0,0,0-.118,2.436Z" transform="translate(-369.057 -253.99)"/><path class="g" d="M405.967,287.219a3.083,3.083,0,0,1-1.245,2.039c-21.118,12.951-22.909,10.755-25.733,5.924-1.668-2.853-.557-5.867,4.915-8.543,7.068-3.454,10.572-3.958,13.456-5.544.917-.5,2.337-1.015,5.247,1.089C404.311,283.417,406.011,285.905,405.967,287.219Z" transform="translate(-376.338 -250.106)"/><path class="h" d="M387.673,317.136c-.636-.189-1.27-.475-1.443-1.144-1.331-5.163-5.326-16.228-6.037-19.781-.727-3.627-.336-11.713,3.285-11.769,4.6-.07,4.887,6.281,6.18,9.494,2.023,5.023,5.56,15.46,5.77,20.063.047,1.045-.06,1.842-3.377,3.217A6.42,6.42,0,0,1,387.673,317.136Z" transform="translate(-375.59 -248.351)"/><g transform="translate(0 76.153)"><path class="i" d="M377.128,329.9l3.9,23.139a1.042,1.042,0,0,1,.01.287l-.524,4.973a1.161,1.161,0,0,0-.006.159c.029.584.49,9.217.49,9.217L405.993,352v-19a1.025,1.025,0,0,0-.013-.162L403.7,317.507a1.059,1.059,0,0,0-.79-.863l-22.129-4.789a1.059,1.059,0,0,0-1.293.825l-2.519,12.928a1.067,1.067,0,0,0-.019.246l.161,3.915C377.116,329.813,377.12,329.857,377.128,329.9Z" transform="translate(-376.951 -311.824)"/></g><path class="h" d="M394.243,289.4l-7.372-.159-4.4-2.872,2.65,15.679Z" transform="translate(-374.398 -247.46)"/><path class="j" d="M403.09,294.182c-2.565-1.769-16.245-9.757-16.245-9.757-1.887-1.122-6.692,1.11-7.389,2.018-2.12,2.758-2.164,6.408-2.1,9.832.1,5.907,2.132,11.217,1.92,20.214-.073,3.162-1.116,6.49-.42,8.167.634,1.523,2.432,2.838,4.445,3.908,2.092,1.112,10.325,4.048,13.816,4.255,1.858.108,6.635-1.295,6.771-3.15.5-6.814.54-15.924.54-15.924l.966-13.582S404.735,295.316,403.09,294.182Z" transform="translate(-376.772 -248.501)"/><path class="f" d="M385.98,283.679,389.3,288.6l3.148-.211,3.037-.405.187-.868-.338-.512.547-5.038-.867-2.44.3-3.7-7.843,1.134-2.176.848-.776.963Z" transform="translate(-373.444 -252.528)"/><path class="f" d="M383.558,286.371c-1.489.884-.623,2.838,1.937,4.366s5.842,2.048,7.331,1.166.623-2.838-1.937-4.364S385.047,285.488,383.558,286.371Z" transform="translate(-374.23 -247.656)"/><g transform="translate(8.665 31.207)"><path class="f" d="M392.832,294.127c-1.479.9-4.784.385-7.358-1.15a5.428,5.428,0,0,1-2.6-2.737l1.984-8.357c.525-1.432,7.508-.749,7.393.9a88.77,88.77,0,0,0,.582,11.339Z" transform="translate(-382.874 -281.103)"/></g><g transform="translate(6.792 19.366)"><path class="k" d="M382.119,276.537c-1.235,2.473-.269,10.7,2.644,11.989,2.421,1.074,6.04,1.422,6.758.146,2.541-4.508,2.77-11.329.55-13.239C387.716,271.681,384.152,272.47,382.119,276.537Z" transform="translate(-381.594 -273.01)"/></g><path class="k" d="M388.843,288.059a55.105,55.105,0,0,1-2.076-6.325c-.467-2.975,1.141-5.931,3.007-6.468.806-.233,1.525,2.989,1.525,2.989l.828,2.62C392,281.951,390.015,287.333,388.843,288.059Z" transform="translate(-372.444 -252.605)"/><path class="f" d="M389.622,280.458c2.149,2.316,1.664-.5,1.45-1.16s-.629-1.342-1.091-.947C388.965,279.222,389.275,280.085,389.622,280.458Z" transform="translate(-371.238 -251.225)"/><path class="k" d="M395,278.856a27.462,27.462,0,0,1-5.9,1.055,4.789,4.789,0,0,1-4.5-2.012c-.772-1.116.616-5.882,3.75-5.113a19.669,19.669,0,0,0,5.4.748l.309-.846a15.7,15.7,0,0,1,1.763,1.4A3.328,3.328,0,0,1,395,278.856Z" transform="translate(-373.507 -253.794)"/><g transform="translate(22.439)"><path class="l" d="M421.832,264.735c.161,1.895-.973,2.852-2.534,2.136a6.21,6.21,0,0,1-3.116-4.724c-.161-1.895.973-2.852,2.533-2.136A6.208,6.208,0,0,1,421.832,264.735Z" transform="translate(-381.23 -259.774)"/><path class="l" d="M417.41,269.775l5.045-2.994-4.128-6.9-4.978,2.926Z" transform="translate(-382.535 -259.726)"/><path class="m" d="M418.474,266.688c.161,1.895-.973,2.852-2.534,2.136a6.21,6.21,0,0,1-3.116-4.724c-.161-1.895.973-2.852,2.533-2.136A6.212,6.212,0,0,1,418.474,266.688Z" transform="translate(-382.785 -258.869)"/><path class="l" d="M417.477,266.24c.127,1.5-.771,2.259-2.007,1.693a4.928,4.928,0,0,1-2.47-3.744c-.127-1.5.771-2.259,2.007-1.693A4.922,4.922,0,0,1,417.477,266.24Z" transform="translate(-382.702 -258.6)"/><path class="l" d="M409.712,273.945l10.232-6.085-3.271-5.469-10.179,6.031Z" transform="translate(-385.709 -258.562)"/><path class="m" d="M410.555,270.325c.127,1.5-.771,2.259-2.007,1.693a4.919,4.919,0,0,1-2.47-3.743c-.127-1.5.771-2.259,2.007-1.693A4.923,4.923,0,0,1,410.555,270.325Z" transform="translate(-385.908 -256.708)"/><path class="l" d="M409.75,269.952c.1,1.127-.579,1.7-1.507,1.27a3.691,3.691,0,0,1-1.854-2.811c-.1-1.127.578-1.7,1.507-1.27A3.691,3.691,0,0,1,409.75,269.952Z" transform="translate(-385.762 -256.427)"/><path class="l" d="M402.386,277l9.926-5.835-2.456-4.106-9.886,5.8Z" transform="translate(-388.73 -256.399)"/><path class="m" d="M403.018,273.885c.1,1.127-.578,1.7-1.507,1.27a3.7,3.7,0,0,1-1.854-2.811c-.1-1.127.579-1.7,1.507-1.27A3.691,3.691,0,0,1,403.018,273.885Z" transform="translate(-388.879 -254.606)"/><path class="l" d="M402.092,273.4c.06.715-.367,1.077-.957.808a2.345,2.345,0,0,1-1.176-1.783c-.061-.715.367-1.077.955-.806A2.344,2.344,0,0,1,402.092,273.4Z" transform="translate(-388.738 -254.33)"/><path class="l" d="M394.025,280.772l11.265-6.6-1.558-2.606-11.239,6.573Z" transform="translate(-392.194 -254.312)"/><path class="m" d="M394.426,277.876c.061.715-.367,1.077-.955.806a2.34,2.34,0,0,1-1.176-1.782c-.061-.715.367-1.077.955-.808A2.345,2.345,0,0,1,394.426,277.876Z" transform="translate(-392.288 -252.258)"/><path class="n" d="M393.648,277.364c.028.319-.164.48-.427.36a1.049,1.049,0,0,1-.525-.8c-.028-.319.164-.48.427-.36A1.046,1.046,0,0,1,393.648,277.364Z" transform="translate(-392.1 -252.016)"/></g><path class="f" d="M408.339,274.78l1.075,19.358-7.267-2.4,1.216-16.019Z" transform="translate(-365.284 -252.825)"/><path class="f" d="M409.039,277.33l-.37-3.956a19.446,19.446,0,0,0-.925-2.849c-.111-.159-.677-.146-1.415-.685a12.891,12.891,0,0,0-2.995-.568,9.005,9.005,0,0,0-2.54,1.326,2.131,2.131,0,0,0-.157.66s.157-.29,1-.086c.906.218,2.174,2.284,1.573,4.063-.4,1.185.849,3.033.849,3.033Z" transform="translate(-365.983 -255.375)"/><path class="j" d="M415.007,288.766a3.3,3.3,0,0,1-.555,2.325c-15.239,20.625-19.463,16.874-21.958,13.238-1.2-1.748-1.1-6.47,3.34-10.54,2.335-2.143,8.3-6.116,10.552-8.514.717-.762,1.466-.753,4.884.353A5.411,5.411,0,0,1,415.007,288.766Z" transform="translate(-370.056 -248.211)"/><path class="f" d="M399.38,271.528a2.474,2.474,0,0,1,1.694,1.175,10.382,10.382,0,0,0-.278,1.547c0,.554-.454.56-.639.686-.256.174-.792.171-1.28.666a5.179,5.179,0,0,1-1.573.307,1.526,1.526,0,0,1-.822-.514,1.852,1.852,0,0,1-.2-.954c-.015-.363.121-.462.3-.489.233-.034.462.225.653.887a1.694,1.694,0,0,0-.653-.887c-.694-.473-.77.732-1.491.449C393.927,273.944,398.089,271.527,399.38,271.528Z" transform="translate(-368.645 -254.331)"/></g></g><g transform="translate(163.438 462.164)"><g transform="translate(15.258)"><rect class="o" width="2.926" height="9.947"/></g><g transform="translate(15.258 23.495)"><rect class="o" width="2.926" height="9.949"/></g><g transform="translate(0 15.258)"><rect class="o" width="9.947" height="2.926"/></g><g transform="translate(23.495 15.258)"><rect class="o" width="9.949" height="2.926"/></g></g><g transform="translate(719.409 656.754)"><g transform="translate(15.258 0)"><rect class="o" width="2.926" height="9.947"/></g><g transform="translate(15.258 23.495)"><rect class="o" width="2.926" height="9.949"/></g><g transform="translate(0 15.258)"><rect class="o" width="9.947" height="2.926"/></g><g transform="translate(23.495 15.258)"><rect class="o" width="9.949" height="2.926"/></g></g><g transform="translate(738.429 406.567)"><g transform="translate(10.869)"><rect class="o" width="2.926" height="7.337"/></g><g transform="translate(10.869 17.328)"><rect class="o" width="2.926" height="7.337"/></g><g transform="translate(0 10.869)"><rect class="o" width="7.337" height="2.926"/></g><g transform="translate(17.328 10.869)"><rect class="o" width="7.337" height="2.926"/></g></g><g transform="translate(835.052 629.15)"><path class="a" d="M628.241,515.326a15.692,15.692,0,1,1,15.693-15.691A15.709,15.709,0,0,1,628.241,515.326Zm0-28.458a12.766,12.766,0,1,0,12.767,12.767A12.78,12.78,0,0,0,628.241,486.867Z" transform="translate(-612.549 -483.941)"/></g><g transform="translate(821.482 842.359)"><path class="a" d="M614.247,651.613A10.973,10.973,0,1,1,625.22,640.64,10.987,10.987,0,0,1,614.247,651.613Zm0-19.02a8.047,8.047,0,1,0,8.047,8.047A8.057,8.057,0,0,0,614.247,632.593Z" transform="translate(-603.274 -629.667)"/></g><g transform="translate(314.855 598.024)"><path class="o" d="M267.973,484.613a10.973,10.973,0,1,1,10.973-10.973A10.986,10.986,0,0,1,267.973,484.613Zm0-19.02a8.047,8.047,0,1,0,8.047,8.047A8.057,8.057,0,0,0,267.973,465.593Z" transform="translate(-257 -462.667)"/></g></g></svg>