<svg xmlns="http://www.w3.org/2000/svg" width="55.515" height="55.517" viewBox="0 0 55.515 55.517"><defs><style>.a{fill:#fff;}.b{fill:#54ab3d;}.c{fill:#2f2a4a;}</style></defs><g transform="translate(6.568 0.637)"><path class="a" d="M920.834,526.822v-8.777h-8.776l-6.206-6.206-6.206,6.206h-8.778v8.777l-6.205,6.207,6.205,6.206v8.776h8.778l6.206,6.206,6.206-6.206h8.776v-8.776l6.207-6.206Zm-14.981,19.284-13.561-13.561,3.934-5.812h19.253l3.934,5.812Z" transform="translate(-884.663 -511.84)"/></g><g transform="translate(15.891 36.808)"><path class="b" d="M914.9,565.678l-7.627-2.543-7.627,2.543V553.539h-4.239v18.073l11.866-4.238,11.866,4.238V553.539H914.9Z" transform="translate(-895.411 -553.539)"/></g><path class="c" d="M904.264,529.742h5.875l1.1,4.541h-8.071Zm-6.351,0h5.043l-1.1,4.541h-7.018Zm-2.739,5.812h6.737l3.74,10.478ZM907.2,546.589l-3.941-11.035h7.881Zm1.55-.558,3.74-10.478h6.735Zm3.793-11.748-1.1-4.541h5.044l3.073,4.541Z" transform="translate(-879.444 -513.576)"/><path class="c" d="M921.374,526.462v-8.514a.635.635,0,0,0-.635-.635h-8.515l-6.02-6.021a.634.634,0,0,0-.9,0l-6.019,6.021h-8.516a.635.635,0,0,0-.635.635v8.514l-6.02,6.02a.637.637,0,0,0,0,.9l6.02,6.02v8.513a.636.636,0,0,0,.635.637h2.482v17.436a.636.636,0,0,0,.851.6l11.651-4.162,11.65,4.162a.655.655,0,0,0,.215.036.635.635,0,0,0,.636-.635V548.551h2.482a.636.636,0,0,0,.635-.637V539.4l6.02-6.02a.637.637,0,0,0,0-.9Zm-4.389,38.622-11.016-3.935a.621.621,0,0,0-.213-.037.614.614,0,0,0-.213.037l-11.018,3.935V548.551h2.967v11.5a.637.637,0,0,0,.837.6l7.428-2.476,7.427,2.476a.637.637,0,0,0,.837-.6v-11.5h2.965Zm-18.221-5.914v-10.62h.524l6.019,6.019a.633.633,0,0,0,.9,0l6.02-6.019h.523v10.62l-6.79-2.264a.65.65,0,0,0-.4,0Zm21.525-20.483a.637.637,0,0,0-.187.449v8.142h-8.141a.635.635,0,0,0-.449.186l-5.756,5.756L900,547.465a.633.633,0,0,0-.449-.186h-8.14v-8.142a.641.641,0,0,0-.186-.449l-5.757-5.756,5.757-5.756a.642.642,0,0,0,.186-.45v-8.141h8.14A.639.639,0,0,0,900,518.4l5.757-5.757,5.756,5.757a.642.642,0,0,0,.449.186H920.1v8.141a.639.639,0,0,0,.187.45l5.756,5.756Z" transform="translate(-877.998 -511.106)"/><path class="c" d="M885.353,571.18h-6.991V555.717a.636.636,0,0,0-1.272,0v16.1a.635.635,0,0,0,.635.635h7.627a.635.635,0,1,0,0-1.271Z" transform="translate(-877.091 -516.936)"/><path class="c" d="M877.726,550.12a.636.636,0,0,0,.637-.635v-4.52a.636.636,0,1,0-1.272,0v4.52A.635.635,0,0,0,877.726,550.12Z" transform="translate(-877.091 -515.51)"/><path class="c" d="M940.261,536.511a.637.637,0,0,0-.637.636v4.52a.636.636,0,0,0,1.272,0v-4.52A.636.636,0,0,0,940.261,536.511Z" transform="translate(-885.381 -514.474)"/><path class="c" d="M939.44,511.106h-5.368a.636.636,0,1,0,0,1.272H938.8v16.741a.636.636,0,0,0,1.272,0V511.743A.637.637,0,0,0,939.44,511.106Z" transform="translate(-884.56 -511.106)"/><path class="c" d="M908.994,524.238a.635.635,0,0,0,.635-.635V521.06a.635.635,0,0,0-1.271,0V523.6A.636.636,0,0,0,908.994,524.238Z" transform="translate(-881.236 -512.341)"/><path class="c" d="M905.4,525.691a.635.635,0,0,0,.9-.9l-1.8-1.8a.635.635,0,0,0-.9.9Z" transform="translate(-880.58 -512.657)"/><path class="c" d="M911.865,525.877a.641.641,0,0,0,.45-.186l1.8-1.8a.635.635,0,0,0-.9-.9l-1.8,1.8a.635.635,0,0,0,.449,1.085Z" transform="translate(-881.617 -512.657)"/></svg>