<svg xmlns="http://www.w3.org/2000/svg" width="1275.815" height="665.792" viewBox="0 0 1275.815 665.792"><defs><style>.a{fill:#fff;}.b{fill:#abf5c9;}</style></defs><g transform="translate(-386.931 -4373.951)"><g transform="translate(0 70)"><path class="a" d="M372.364,255.493a43.3,43.3,0,0,0-2.831-10.834,4.9,4.9,0,0,0-2.493-3.071,5.135,5.135,0,0,0-2.473-.028l-12.7,1.944a4.861,4.861,0,0,0-2.9,1.126c-1.655,1.74-.025,4.541-.077,6.942-.057,2.7-2.454,4.889-5.056,5.615a19.108,19.108,0,0,1-8.032-.1l-17.761-2.76a29.292,29.292,0,0,0,13.436-8.967c2.337-2.769,3.581-7.938.2-9.25a8.3,8.3,0,0,0-3.085-.247c-8.046.062-14.379-6.656-21.913-9.486a24.226,24.226,0,0,0-27.267,8.128l9.462.456a4.2,4.2,0,0,1,2.52.672c2.074,1.7-.5,4.976-.212,7.643.379,3.467,4.981,4.206,8.451,4.557s7.87,3.168,6.2,6.23c-17.435,6.005-35.178-11.741-53.49-9.556-4.634.553-9.011,2.374-13.535,3.518-27.641,6.994-56.216-11.665-84.452-7.714a107.278,107.278,0,0,0-18.435,4.862c-3.843,1.262-7.851,2.625-10.644,5.552s-3.854,7.932-1.21,10.992a61.823,61.823,0,0,1-21.677-2.061,12.147,12.147,0,0,1,6.243,10.7,128.657,128.657,0,0,0-32.949,10.046,55.511,55.511,0,0,0,6.82,9.085L68.1,298.751c4.869,1.226,7.386,7.866,4.555,12.013,5.048-2.245,8.177-8.056,13.577-9.234,3.537-.772,7.136.675,10.49,2.034s7.043,2.677,10.517,1.657,6.035-5.523,3.828-8.393a179.7,179.7,0,0,1,45.65-7.132,5.717,5.717,0,0,1,3.456.656c2.013,1.4,1.483,4.412,1.375,6.859s1.8,5.663,3.985,4.56c-2.573,2.231-.373,6.432,2.1,8.778s5.445,5.585,3.932,8.636c-.394.8-1.063,1.434-1.443,2.238-1.119,2.374.659,5.139,2.756,6.714s4.668,2.677,6.126,4.859.795,6-1.811,6.3l-7.407-9.4a19.281,19.281,0,0,0-5,9.482c7.855,6.421,9.036,19.49,2.46,27.215-3.361,3.948-8.139,6.348-12.31,9.426s-8.03,7.465-8.02,12.649c.018,8.957-.714,17.277,2.642,25.582a394.231,394.231,0,0,0,21.4,44.636c2.117,3.785,4.852,7.934,9.139,8.585q-8.128-19.787-14.633-40.19c2.824.011,6.089.235,7.745,2.523,1.371,1.9,1.077,4.473,1.5,6.772a20.956,20.956,0,0,0,2.676,6.29l25.875,46.092c2.146,3.822,4.606,7.923,8.7,9.47,2.622.99,5.654.8,8.066,2.228,1.891,1.116,3.164,3.1,5.092,4.149,5.451,2.974,13.031-2.729,18.125.821,1.457,1.016,2.384,2.628,3.726,3.79,4.7,4.075,12.422,1.349,17.853,4.388,3.5,1.959,5.315,5.877,7.181,9.426,4.677,8.893,12.244,17.6,22.266,18.313,3.148.223,6.364-.374,9.441.326s6.107,3.386,5.612,6.5c-.846,5.344,1.794,11.2,1.084,16.56-1.291,9.771-15.151,14.065-16.341,23.849-.261,2.142.147,4.353-.363,6.45-.626,2.57-2.555,4.662-3.241,7.216-1.3,4.84,2.168,9.658,5.979,12.914s8.354,6.066,10.436,10.624c2.2,4.819,1.121,10.436,1.837,15.686,1.563,11.459,11.46,19.954,21.647,25.432,3.1,1.669,6.435,3.284,8.444,6.179,2.622,3.779,2.36,8.76,3.236,13.276,2.143,11.058,11.452,20.169,11.717,31.43.188,8-4.261,15.264-6.919,22.817a53.208,53.208,0,0,0,4.346,44.129c1.988,3.357,4.366,6.523,5.772,10.162,2.51,6.494,1.695,13.876,4.009,20.443,3.06,8.682,11.466,15.853,10.662,25.023,3.817,7.925,12.243,11.819,20.718,14.179l15.188,4.227c2.907.81,5.947,1.626,8.908,1.04s5.787-3.046,5.712-6.063c-7.448-1.68-15.136-3.467-21.275-8s-10.344-12.621-8.015-19.892c1.079-3.371,3.377-7.264,1.192-10.051-1.25-1.594-3.538-2.011-4.949-3.467-2.2-2.27-1.444-6.083.137-8.821s3.87-5.183,4.507-8.279a8.639,8.639,0,0,0-4.048-8.988,21.5,21.5,0,0,0,7.517-4.824c1.977-2.258,2.89-5.738,1.335-8.3,4.617.586,10.07.873,13.1-2.661,2.42-2.821,2.254-7.038,1.3-10.63s-2.574-7.082-2.624-10.8a196.794,196.794,0,0,0,31.924-1.082,20.707,20.707,0,0,0-9.706-12.156c4.8-.812,9.169-6.557,10.686-11.18s1.13-9.662.193-14.437a7.745,7.745,0,0,1-.144-3.783c.54-1.721,2.231-2.773,3.8-3.672l23.816-13.677a13.886,13.886,0,0,0,3.809-2.812c2.5-2.931,2.126-7.356.847-10.986s-3.324-7.047-3.817-10.864c-1.472-11.417,10.751-19.609,14.876-30.358,1.618-4.217,1.948-8.8,2.262-13.31.336-4.84.361-10.463-3.355-13.583-3.564-2.989-9.13-2.323-12.859-5.1-3.417-2.55-4.6-7.5-8.331-9.562-3.391-1.87-7.643-.68-11.415-1.56-6.641-1.549-10.819-9.2-17.6-9.911-3.827-.4-8.157,1.471-11.294-.758-2.763-1.963-2.874-5.911-3.4-9.259a25.859,25.859,0,0,0-20.871-20.938c-3.945-.633-8.239-.393-11.6-2.561-3.4-2.195-4.956-6.3-7.627-9.346-4.3-4.9-11.078-6.641-17.426-8.133l-25.821-6.071c-4.583-1.077-10.492-1.648-12.951,2.366a18.536,18.536,0,0,0-1.532,4.819,14.921,14.921,0,0,1-14.033,10.562,16.6,16.6,0,0,0-9.786-7.571c-2.618-.729-5.421-.811-7.918-1.884a11.122,11.122,0,0,1-5.116-14.874q.138-.281.291-.555a13.846,13.846,0,0,0-2.366-16.653c-4.391-3.943-10.743-4.895-16.632-4.5-1.541-3.365,1.036-7.161,3.815-9.606s6.152-4.849,6.757-8.5c.952-5.743-6.377-10.106-11.941-8.394s-9.117,7.118-11.464,12.446c-1.347,3.056-2.492,6.276-4.617,8.853s-5.546,4.424-8.783,3.6c-4.581-1.171-6.351-6.616-7.365-11.235-1.361-6.2-2.729-12.481-2.444-18.82s2.421-12.846,7.1-17.138c7.617-6.992,19.3-6.307,29.581-5.192-2.429-2.736-1.828-7.347.769-9.922a11.281,11.281,0,0,1,10.226-2.512,14.092,14.092,0,0,1,7.922,4.736c2.921,3.561,3.752,8.37,5.96,12.412s7.172,7.491,11.236,5.323c3.511-1.874,4.067-6.74,3.193-10.623s-2.729-7.655-2.411-11.621c.6-7.566,8.448-12.122,15.37-15.239s14.848-7.307,15.945-14.819a13.525,13.525,0,0,1,.821-4.306,8.451,8.451,0,0,1,3.1-2.915c20.2-13.351,40.74-26.865,63.831-34.16,1.2-.38,1.342.042,2.566-.256,1.714-.99.578-3.73-1.064-4.834s-3.839-1.949-4.256-3.883c-.306-1.423.531-2.819.749-4.257.535-3.535-3.693-6.8-6.977-5.386-1.855-2.455,1.816-5.31,4.784-6.127a129.885,129.885,0,0,1,27.287-4.458,4.923,4.923,0,0,1,3.105.528c1.55,1.074,1.352,3.537.253,5.07s-2.807,2.494-4.176,3.791a11.4,11.4,0,0,0-2.957,11.465c4.818,2.45,10.055,4.973,15.391,4.11s10.071-6.859,7.563-11.646c-2.335-4.459-9.351-5.465-10.557-10.352-1.413-5.722,6.686-10.81,4.863-16.414-.8-2.455-3.246-3.9-5.124-5.671a15.39,15.39,0,0,1-3.367-17.065,19.417,19.417,0,0,1-17.028-5.328c-4.072-4.111-7.322-10.595-13.106-10.411-5.306.169-9.878,6.36-14.841,4.471-1.221-.465-2.508-1.41-3.691-.856a3.051,3.051,0,0,0-1.378,2.285c-1.26,6.029.909,12.9-2.377,18.11-3.576,5.67-11.848,6.456-16.183,11.568-2.353,2.775-3.265,6.515-5.428,9.441s-6.754,4.786-9.35,2.236a12.889,12.889,0,0,0-3.5-15.671,34.418,34.418,0,0,0-7.734-3.761,45.887,45.887,0,0,1-8.638-4.815,8.493,8.493,0,0,1-3.172-3.394,7.725,7.725,0,0,1,.217-5.365,21.942,21.942,0,0,1,17.461-14.473c3.456-.471,7.48-.3,9.766-2.938,1.211-1.394,1.846-3.5,3.6-4.067a5.311,5.311,0,0,1,3.326.411l12.9,4.541a9.053,9.053,0,0,0,4.6.759,3.117,3.117,0,0,0,2.695-3.274c-.413-2.142-3.71-3.171-3.409-5.331a3.551,3.551,0,0,1,1.079-1.815A46.125,46.125,0,0,1,414.3,250.684c1.629,2.675-.947,5.841-3.089,8.124s-3.865,6.363-1.274,8.119a7.106,7.106,0,0,0,3.435.774,29.984,29.984,0,0,1,9.143,2.773q6.688,2.911,13.117,6.368c-.378-2.827-.739-5.8.331-8.447s4.116-4.716,6.777-3.687c2.563.992,3.877,4.386,6.608,4.7,3.642.414,5.08-4.966,3.557-8.3s-4.533-6.129-4.785-9.787c-.169-2.467.769-5.528-1.2-7.021a5.374,5.374,0,0,0-2.326-.816l-49.215-9.056c-2.923-.538-7.145-.126-7.274,2.843-.072,1.657,1.408,3.3.753,4.82-.7,1.626-3,1.477-4.673,2.052-2.6.893-3.9,3.977-3.652,6.713a18.651,18.651,0,0,0,3.083,7.564C380.412,257.078,375.565,256.832,372.364,255.493Z" transform="translate(318.836 4109.537)"/><path class="a" d="M282.375,216.206a15.937,15.937,0,0,0-17.507,5.243c-.81,1.067-1.491,2.537-.812,3.692.973,1.657,3.451,1,5.279.411a13.275,13.275,0,0,1,8.336-.2c1.716.589,3.251,1.629,4.974,2.2a5.013,5.013,0,0,0,5.107-.747c1.182-1.206,1.257-3.081,1.259-4.771a3.837,3.837,0,0,0-.978-3.153,5.016,5.016,0,0,0-2.26-.669,7.79,7.79,0,0,1-4.558-2.663" transform="translate(369.557 4107.047)"/><path class="a" d="M293.52,212.117a4.055,4.055,0,0,0-3.919,5.71,16.432,16.432,0,0,0,6.552.427,5.6,5.6,0,0,0,4.58-4.2,10.548,10.548,0,0,1-7.465-1.425" transform="translate(376.158 4106.195)"/><path class="a" d="M343.381,206.669a75.406,75.406,0,0,0-16.8,5.707,12.625,12.625,0,0,1,8.061,12.679,6.6,6.6,0,0,0,.077,3.134c.617,1.5,2.405,2.058,3.977,2.442a26.25,26.25,0,0,0,8.722,1.113,8.885,8.885,0,0,0,7.22-4.412,31.706,31.706,0,0,1,1.5-3.548c3.769-5.738,14.962,1.2,19.006-4.347,1.425-1.953,1.294-4.895,3.153-6.442a7.073,7.073,0,0,1,3.24-1.237,227.438,227.438,0,0,1,24.616-3.506c3.915-.341,9.017-1.747,9.05-5.676a68.185,68.185,0,0,0-43.494,5.85c-4.848,2.429-11.261,7.538-15.931,4.318-1.748-1.205-1.662-4.451-4.069-5.807C349.25,205.551,345.993,206.113,343.381,206.669Z" transform="translate(385.836 4103.392)"/><path class="a" d="M378.725,215.839l6.922,1.331a8.97,8.97,0,0,0-9.358,8.564,9.111,9.111,0,0,0,.024,1.157c6.482,2.165,13.55.058,20.379.345s14.773,5.166,13.608,11.9c-.353,2.036-1.53,4.071-.918,6.045.429,1.384,1.65,2.365,2.338,3.639,1.434,2.656.288,6.014-1.525,8.428s-4.247,4.339-5.838,6.9c-3.956,6.38-1.709,14.628.647,21.755a19.176,19.176,0,0,0,3.688,7.365c3.492,3.712,9.182,4.036,14.278,4.11,3.708.054,7.957-.13,10.3-3,3.062-3.751.92-9.605,2.936-14.009,1.831-4,6.5-5.714,10.722-6.931,7.744-2.229,15.634-4.124,22.954-7.491,9.09-4.181,17.586-10.7,27.576-11.235,2.8-.151,5.675.18,8.375-.588s5.265-3.1,5.06-5.9c-.174-2.393-2.2-4.149-3.779-5.952s-2.823-4.576-1.37-6.484l26.186-4.891c-1.856-5.059-3.3-11.722.963-15.015,1.54-1.187,3.6-1.662,4.911-3.1,2.233-2.448,1.109-6.665-1.468-8.746s-6.064-2.565-9.366-2.84c-11.483-.954-23.031-.324-34.536.307l-67.467,3.7c-4.528.248-9.755-.131-13.907,1.413-3.516,1.308-6.015,3.708-10.035,4.551C393.609,212.726,385.441,211.672,378.725,215.839Z" transform="translate(398.718 4103.24)"/><path class="a" d="M477.287,257.218a2.793,2.793,0,0,0-2.015.457,2.55,2.55,0,0,0-.656,1.554,10.267,10.267,0,0,0,1.491,7.345,7.193,7.193,0,0,0,6.583,3.156c3.117-.4,5.414-3.056,8.279-4.354,4.417-2,23.173-5.112,10.2-12.122-4.471-2.416-7.36-.283-10.885,1.307A24.763,24.763,0,0,1,477.287,257.218Z" transform="translate(424.167 4116.576)"/><path class="a" d="M567.773,210.5a7.4,7.4,0,0,0-3.6,3.137,3.165,3.165,0,0,0,1.187,4.2,4.714,4.714,0,0,0,1.767.281l6.16.184c2.618.078,5.887.636,6.59,3.158.522,1.872-.646,4.279.764,5.616a3.954,3.954,0,0,0,2.1.817,14.282,14.282,0,0,0,6.207.2c4.483-1.2,2.127-3.939,3.538-6.374,2.161-3.727,1.787-1.471,5.592-3.608,2.81-1.577,6.443-4.439,4.1-8.459C598.087,202.659,573.793,207.493,567.773,210.5Z" transform="translate(447.324 4104.625)"/><path class="a" d="M669.181,206.931l-3.577.477c-8.066,1.077-16.178,2.163-23.946,4.585a39.829,39.829,0,0,0,10.487,2.574,32.228,32.228,0,0,1,5.875.835c3.431,1.022,6.889,3.659,10.2,2.308,2.055-.837,2.726-2.978,4.429-4.113,1.176-.783,5.635-2.05,6.134-2.841C682.816,204.366,672.278,206.518,669.181,206.931Z" transform="translate(467.503 4104.676)"/><path class="a" d="M679.376,220.385a67.122,67.122,0,0,0-13.2,9.667c-1.681,1.58-3.4,3.545-3.245,5.846.2,3.06,3.461,4.834,6.285,6.029l11.435,4.842c1.388-1.956.117-4.654-1.316-6.576s-3.138-4.145-2.5-6.457c.723-2.638,3.94-3.537,6.638-3.992,4.395-.74,16.252-.681,14.828-7.766C696.617,213.632,683.788,217.918,679.376,220.385Z" transform="translate(473.015 4107.479)"/><path class="a" d="M674.324,604.671c-1.088,3.152-1.193,6.865.691,9.617,2.113,3.088,6.341,4.238,10,3.455a18.015,18.015,0,0,0,9.284-5.97,31.971,31.971,0,0,0,5.342-8.19A63.9,63.9,0,0,0,703.6,589.1l3.551-18.641c.793-4.167.762-16.939-6.9-12.777-2.092,1.136-6.934,10.113-9.127,12.657-3.951,4.589-4.474,9.039-6.554,14.6C681.968,591.9,676.732,597.7,674.324,604.671Z" transform="translate(475.768 4195.553)"/><path class="a" d="M997.6,671.3a55.861,55.861,0,0,1-7.276-3.464,61.326,61.326,0,0,0-3.689,20.1l17.145-9.7c2.579-1.459,5.5-3.488,5.447-6.451a2.037,2.037,0,0,0-.948-1.855,2.3,2.3,0,0,0-1.2-.141c-2.542.212-4.86,1.463-7.259,2.332s-5.2,1.33-7.4.039" transform="translate(556.922 4224.318)"/><path class="a" d="M1072.889,676.395a37.138,37.138,0,0,0-5.5,1.973c-3.934,2-6.611,5.8-10.152,8.44-3.389,2.523-7.467,3.909-11.47,5.256-1.179,1.041-.637,3.138.641,4.052a7.957,7.957,0,0,0,4.528,1.019c4.16.091,8.542.131,12.186-1.878a38.523,38.523,0,0,0,5.737-4.553c4.26-3.555,9.376-5.9,14.439-8.166a16.579,16.579,0,0,0,5.033-3.009c3.182-3.135,3.406-7.972-1.182-9.039C1083.443,669.628,1076.418,675.253,1072.889,676.395Z" transform="translate(572.079 4224.983)"/><path class="a" d="M1056.785,531.824a19.888,19.888,0,0,1-7.1.419c-3.939-.725-7.005-3.693-10.184-6.127a44.919,44.919,0,0,0-26.249-9.172c-8.641-.162-17.363,2.178-25.85.545.554,3.084,3.193,5.4,6.009,6.772s5.924,2.066,8.754,3.414a20.9,20.9,0,0,1,10.123,10.531c.91,2.128,1.485,4.443,2.865,6.3,2.822,3.8,8.17,4.63,12.889,4.319,6.152-.4,12.579-2.175,18.3.118,4.378,1.754,7.514,5.587,11.171,8.568s8.807,5.192,13,3.042a21.5,21.5,0,0,1-14.876-20.689c4.118.378,15.979.232,15.341-6.766C1070.447,527.168,1060.321,531.184,1056.785,531.824Z" transform="translate(557.12 4185.205)"/><path class="a" d="M1025.037,571.253c.73-4.011,4.73-7.551,3.484-11.432-.861-2.685-3.974-4.011-6.792-4.076s-5.587.773-8.405.852a40.753,40.753,0,0,0-5.5.078c-5.593.919-9.041,6.782-14.313,8.867-3.206,1.268-6.806,1.025-10.14,1.9-7.568,1.989-12.356,9.141-17.646,14.906a62.97,62.97,0,0,1-31.964,18.64c-4.3,1-8.928,1.634-12.348,4.429-4.529,3.7-5.644,10.045-6.652,15.807a260.988,260.988,0,0,1-12.709,46.653l17.97,2.294c3.416.437,6.956.864,10.248-.149a29.769,29.769,0,0,0,6.741-3.59,67.293,67.293,0,0,1,26.291-9.491c4.706-.646,9.639-.764,14.055.985s8.2,5.716,8.575,10.451a11.038,11.038,0,0,1,11.033,2.683,19.17,19.17,0,0,1,5.267,10.516c.473,2.458.947,5.4,3.228,6.434,1.861.842,4-.064,6.032-.227,6.909-.554,12.641,7.5,19.432,6.115,7.283-1.487,9.07-12.394,16.176-14.579,4.08-1.254,9.8.271,11.757-3.524,1.723-3.346-1.714-7.206-1.359-10.953.436-4.612,5.877-6.57,10.071-8.539,14.461-6.785,21.323-26.248,14.316-40.6-4.152-8.5-12.321-15.2-13.83-24.543-1.161-7.189,1.672-15.571-2.91-21.229-2.332-2.879-6.28-4.468-7.667-7.9-.873-2.162-.521-4.615-.992-6.9s-2.462-4.673-4.717-4.081c-6.547,1.719-8.635,21.942-12.14,26.855C1034.3,585.376,1023.358,580.455,1025.037,571.253Z" transform="translate(534.996 4194.024)"/><path class="a" d="M905.54,534.991c-2.236-.627-4.679-1.245-6.822-.349s-3.4,4.045-1.676,5.606c13.46-.525,27-1.045,40.345.782,15.375,2.107,30.591,7.322,46.034,5.789a234.291,234.291,0,0,0-26.854-6.232L941.449,537.7a116.755,116.755,0,0,0-12.276-1.9C920.549,535.09,914.021,537.37,905.54,534.991Z" transform="translate(533.49 4189.678)"/><path class="a" d="M916.98,500.94c-1.118-.093-2.5-.173-3.08.787-.552.918.081,2.131-.217,3.161-.406,1.407-2.248,1.765-3.7,1.574s-3.02-.65-4.305.049a3.65,3.65,0,0,0-1.411,4.145,10.667,10.667,0,0,0,2.489,3.966,40.534,40.534,0,0,0,6.456,6.477c4.626,3.414,10.893,5.06,13.806,10.016a6.651,6.651,0,0,0,1.845,2.482c1.4.886,3.222.213,4.728-.476l5.279-2.411a6.006,6.006,0,0,0,2.468-1.679c1.2-1.637.465-3.963-.548-5.726s-2.308-3.587-2.09-5.608c.388-3.6,5.021-4.981,6.926-8.064,1.92-3.108.67-7.112.891-10.759.259-4.265,2.939-9.813-1.373-13-3.664-2.709-7.166-.205-9.8,2.784C929.8,494.965,927.178,501.793,916.98,500.94Z" transform="translate(535.525 4176.854)"/><path class="a" d="M939.971,449.554c1.8,3.452,5.559,5.51,7.525,8.871,2.129,3.642,1.887,8.349,4.2,11.878,2.37,3.623,7.141,5.545,8.471,9.666,1.452,4.5-1.841,9.964.783,13.894a5.832,5.832,0,0,0,8.175,1.1q.2-.151.381-.317a6.274,6.274,0,0,0-.259-8.755c-1.554-1.418-3.786-2.03-5.083-3.686A7.723,7.723,0,0,1,962.845,479a20.987,20.987,0,0,1,.33-10.06,4.475,4.475,0,0,0,.253-2.632c-.584-1.7-2.884-1.818-4.5-2.607-3.666-1.789-3.577-6.963-2.936-10.992-.427,2.682-9.98-1.88-10.98-3.4-1.988-3.018-.907-8.841-1.3-12.175C939.424,439.206,937.769,445.335,939.971,449.554Z" transform="translate(544.573 4164.521)"/><path class="a" d="M865.123,489.818c-1.764-1.973-4.42-4.038-6.785-2.848-1.8.908-2.3,3.4-1.593,5.3a11.665,11.665,0,0,0,3.847,4.586c4.927,4.062,10.232,7.73,14.53,12.453,7.692,8.452,11.766,19.857,20.132,27.645a11.279,11.279,0,0,0,6.339,3.43c2.437.227,5.173-1.333,5.454-3.764.23-2-1.166-3.8-2.531-5.281-3.249-3.533-6.806-6.787-9.873-10.48a8.8,8.8,0,0,1-2.525-5.271c-.015-1.99,1.8-4.07,3.725-3.577-2.343-.6-4.081-4.5-7.52-5.237-2.875-.613-3.57,1.166-6.99-.3C874.809,503.671,869.691,494.933,865.123,489.818Z" transform="translate(523.174 4177.347)"/><path class="a" d="M992.18,336.987a54.045,54.045,0,0,1-5.512-1.969c-4.844-1.453-11.252,2.107-10.606,7.122.428,3.333,3.53,5.579,5.243,8.471,2.54,4.286,1.862,9.724.527,14.525A11.363,11.363,0,0,1,980,369.268a14,14,0,0,1-4.34,3.122,58.04,58.04,0,0,0-16.987,14.432,4.163,4.163,0,0,0-1.026,1.933c-.23,1.694,1.471,2.928,2.434,4.34,2.137,3.137.592,7.359.8,11.15a3.154,3.154,0,0,0,1.328,2.765c1.288.655,2.816-.457,3.514-1.723,2.317-4.2.572-10.939,4.92-12.964.822-.383,1.819-.544,2.367-1.267.871-1.146.031-2.843.472-4.213.662-2.056,3.476-2.149,5.635-2.058a31.994,31.994,0,0,0,10.985-1.463,7.314,7.314,0,0,0,3.636-2.105c1.3-1.622,1.185-3.929.924-5.991a81.2,81.2,0,0,0-9.594-29.275c3.819.487,7.975.91,11.27-1.08,1.846-1.114,4.06-4.447,3.144-6.717C998.04,334.567,995.425,337.586,992.18,336.987Z" transform="translate(549.402 4137.967)"/><path class="a" d="M628.525,386.951c.457,2.452.905,5.033.1,7.394s-3.331,4.333-5.717,3.61c-1.852-.562-2.921-2.424-4.237-3.844-7.313-7.9-23.814-3.324-28.332-13.092-1.843-3.987-.591-8.763-1.848-12.971A11.545,11.545,0,0,0,576.8,360.1a24.027,24.027,0,0,0-6.728,2.008,169.657,169.657,0,0,1-44.578,11.149,36.683,36.683,0,0,0-8.565,1.559c-6.281,2.277-10.572,8.1-13.626,14.041s-5.309,12.374-9.4,17.653c-4.3,5.548-10.334,9.434-15.959,13.636a16.284,16.284,0,0,0-5.263,5.517c-1.22,2.5-1.151,5.416-1.056,8.2l1.15,33.8c.149,4.348.334,8.851,2.279,12.742,2.43,4.858,7.23,8.04,10.561,12.333a24.153,24.153,0,0,1,5.01,15.425c-.07,2.238-.292,4.884,1.451,6.29a6.371,6.371,0,0,0,3.564,1.025l45.724,3.742c8.043.659,16.956,1.741,22.207,7.869,2.478,2.892,4.469,7.052,8.265,7.361,1.628.133,3.212-.535,4.842-.665,4.109-.325,7.718,2.794,10,6.229a27.633,27.633,0,0,1,4.439,17.73c-.374,3.919-1.589,7.728-1.851,11.655-1,14.944,11.673,27.928,11.918,42.9.143,8.808-4.037,17.038-8.114,24.848,6.579,9.968,1.191,23.241,3.812,34.894,2.484,11.056,11.7,19.71,14,30.806,1.051,5.08,1.112,11.331,5.591,13.947a12.734,12.734,0,0,0,6.327,1.267,83.407,83.407,0,0,0,37.984-8.647c5.539-2.749,11.28-6.851,12.247-12.958.779-4.925-1.718-10.434.823-14.724,3-5.056,10.67-4.655,15.078-8.542,7.151-6.307,1.575-18.334,4.471-27.418,2.605-8.165,11.569-12.5,16.013-19.83a35.251,35.251,0,0,0,3.721-10.085,143.846,143.846,0,0,0,3.785-25.72,154.381,154.381,0,0,1,1.163-15.755c4.791-29.764,34.218-49.7,43.771-78.289.912-2.73,1.341-6.368-1.089-7.913a6.949,6.949,0,0,0-4.626-.484l-21.078,2.657c-2.618.33-5.393.638-7.8-.45s-4.128-4.129-2.852-6.438c3.58-6.485-3.784-14.678-7.055-21.325a314.747,314.747,0,0,0-31.335-50.817,5.155,5.155,0,0,1-1.374-2.982l5.982.2c-2.02-7.247-5.352-15.176-12.392-17.825-3.966-1.495-8.36-.977-12.592-.747C653.519,390.636,640.523,388.807,628.525,386.951Z" transform="translate(423.418 4144.549)"/><path class="a" d="M657.658,261.848c3.172,3.368,6.727,6.939,11.316,7.527,8.107,1.036,13.935-7.346,17.646-14.628a7.148,7.148,0,0,0,7.458,6.612,14.7,14.7,0,0,0,5.61-2.194,110.522,110.522,0,0,1,52.356-13.534,5.654,5.654,0,0,1,4.318-6.215c3.722-.738,7.074,2.479,8.87,5.821s2.914,7.216,5.766,9.719,8.375,2.392,9.5-1.23c1.082-3.478-2.541-6.445-5.552-8.495s-6.183-5.846-4.155-8.872c15.379-3.4,30.853-6.821,46.59-7.5a19.531,19.531,0,0,0,7.842-1.351c2.4-1.179,4.306-3.852,3.662-6.446a17.758,17.758,0,0,1-18.533-6.99c21.836-1.8,45.06-3.338,64.412,6.937,2.322,4.985-9.513,9.132-6.346,13.628,1.01,1.434,3.033,1.6,4.787,1.636,13.447.249,26.972.494,40.268-1.536,4.859-.742,9.766-1.789,14.645-1.187,8.126,1,15.075,6.423,23.068,8.191,3.254.719,6.9.743,9.644-1.148s3.922-6.2,1.675-8.662c7.526-7.376,20.017-5.548,29.946-2.016s19.336,9.226,29.846,10.013c7.535.564,15.176-1.462,22.623-.174,4.679.81,9.035,2.891,13.608,4.17,8.649,2.419,17.8,1.908,26.781,2.025a187.636,187.636,0,0,1,66.871,13.287,19.882,19.882,0,0,1,7.434,4.392c1.981,2.122,2.991,5.418,1.66,8l-22-3.215c2.073,4.08,7.436,4.776,11.791,6.184s8.871,6.217,6.253,9.972c-4.718-1.5-8.994,3.216-11.378,7.556s-5.289,9.54-10.235,9.8c-4.427.237-9.784-3.533-12.67-.167a86.47,86.47,0,0,1,10.182,16.278c2.851,5.941,4.882,13.427,1.027,18.772a4.862,4.862,0,0,1-2.6,2.017c-3.147.8-5.193-3.054-7.451-5.388-2.844-2.941-7.146-3.774-11-5.154s-7.912-4.092-8.213-8.173c-.188-2.539,1.153-4.9,2.141-7.245a27.916,27.916,0,0,0,2.121-12.521c-.215-3.444-1.181-7.026-3.656-9.433s-6.744-3.171-9.4-.966c-1.239,1.027-2.233,2.673-3.842,2.735-2.843.108-5.025-4.848-7.313-3.157a7.772,7.772,0,0,1-1.055,5.2c-6.826,5.937-17.311,3.425-26.112,5.523a49.005,49.005,0,0,0-11.912,5.2,7.663,7.663,0,0,0-3.4,2.858c-1.1,2.134.112,4.868,2.049,6.287a16.245,16.245,0,0,0,6.754,2.306c10.728,2.032,21.611,5.178,30.082,12.068s14.024,18.281,11.343,28.865L1071.62,337.62q1.205,12.73,1.369,25.533a11.474,11.474,0,0,1-.671,4.911c-1.509,3.332-5.6,4.453-9.177,5.188a7.191,7.191,0,0,0-5.722,8.405,7.115,7.115,0,0,0,.2.806c1.272,4.148,4.445,7.383,7.351,10.6s5.765,6.885,6.145,11.207-2.88,9.195-7.209,8.894c-3.281-.228-5.715-3.166-7.116-6.141s-2.232-6.294-4.335-8.822c-6.365-7.656-20.662-4.376-26.364-12.537a12.893,12.893,0,0,0-2.667,12.272c2.653-1.661,6.285-.118,8.278,2.294s2.933,5.508,4.5,8.218c2.112,3.657,5.474,6.9,5.768,11.112a36.238,36.238,0,0,0,.081,4.779c.524,2.552,2.681,4.386,4.177,6.519,3.48,4.965,3.309,11.785,1.065,17.419s-6.275,10.339-10.266,14.9c-6.974,7.971-14.089,15.895-22.356,22.514-2.358,1.889-4.876,3.746-6.345,6.387s-1.545,6.346.713,8.356c-1.616.081-4.512.875-6.127.956a142.614,142.614,0,0,1-.37-19.489c-6.374-3.061-13.238,5.136-12.416,12.16s5.9,12.66,9.52,18.737c2.646,4.444,4.611,9.625,3.727,14.72s-5.431,9.8-10.582,9.347c-8.195-.715-11.622-12.479-19.737-13.825a3.307,3.307,0,0,0-2.136.212c-1.2.661-1.414,2.273-1.482,3.645-.332,6.735-.62,13.739,2.01,19.949,3.847,9.084,13.784,16.715,11.7,26.358-11.228-5.219-17.067-17.813-19.718-29.909s-3.093-24.795-7.845-36.231c-3.609,4.625-11.193.8-14.49-4.05-3.125-4.6-5.049-9.92-8.082-14.582s-7.677-8.836-13.233-9.093c-5.825-.268-10.876,3.728-15.318,7.5-3.653,3.105-7.4,6.333-9.538,10.625-3.108,6.247-2.294,13.612-2.444,20.587-.162,7.541-1.76,15.5-6.9,21.017s-14.627,7.443-20.3,2.468c-2.959-2.6-4.392-6.479-5.669-10.2a499.57,499.57,0,0,1-15.347-54.789c-.952,4.232-4.668,9.686-8.218,7.194a7.374,7.374,0,0,1-1.894-2.44c-6.621-11.222-18.883-17.952-31.272-21.989s-25.423-5.918-37.675-10.354a95.324,95.324,0,0,1-19.544-9.735,15.37,15.37,0,0,0-.939,15.724c2.717,4.811,8.867,7.6,14.132,5.914,2.72-.87,5.018-2.758,7.716-3.691s6.322-.475,7.5,2.126c1.13,2.489-.578,5.5.268,8.1,1.291,3.958,7.261,4.262,9.348,7.865,1.554,2.681.276,6.239-1.942,8.4s-5.178,3.348-7.885,4.854c-8.784,4.884-15.031,13.223-22.708,19.71S732.65,519.462,723.5,515.3c2.181-11.043-10.974-19.15-13.394-30.144-.8-3.619-.384-7.462-1.521-10.988-1.647-5.106-6.176-8.617-9.892-12.485a49,49,0,0,1-13.438-35.648c.2-4.543,1.035-9.161,0-13.589s-4.7-8.715-9.245-8.515c-10.377.458-23.45,1.23-28.895-7.616-1.943-3.157-2.788-7.782.021-10.2,1.982-1.706,4.907-1.545,7.51-1.289l23.381,2.3c5.469.538,11.379.982,16.072-1.877s6.727-10.448,2.381-13.811c-3.176-2.457-8.864-2.325-9.786-6.232-.768-3.254,2.833-6.947.888-9.666-1.394-1.951-4.531-1.409-6.431.053s-3.279,3.6-5.406,4.706c-3.731,1.942-8.19.094-12.2-1.162s-9.4-1.362-11.343,2.366c-2.177,4.169,1.932,9.633-.229,13.811-2.857,5.524-12.533,2.379-16.545,7.131-4.6,5.452,3.133,13.582,1.58,20.546a12.789,12.789,0,0,1-12.6-.708,12.239,12.239,0,0,1-5.29-11.4c.384-3.134,2.017-6.333.923-9.293-.885-2.394-3.288-3.819-5.522-5.053L591.8,363.985c-2.109,3.914.558,8.765,3.893,11.7s7.512,5.153,9.7,9.021a11.842,11.842,0,0,1-4.455,15.612,2.737,2.737,0,0,1-2.253.393,3.14,3.14,0,0,1-1.461-1.964c-4.009-10.259-10.028-20.374-19.651-25.733s-23.45-4.257-29.76,4.77c-1.5,2.144-2.5,4.589-3.81,6.856-6.937,12.044-21.809,17.748-35.7,17.376a7.1,7.1,0,0,1-3.895-.915c-2.246-1.551-2.144-4.842-1.8-7.549l1.458-11.49c.293-2.307.718-4.857,2.544-6.3,2.574-2.03,6.287-.749,9.565-.8a12.121,12.121,0,0,0,11-8.492,13.662,13.662,0,0,0-3.8-13.585c-1.5-1.412-3.519-3.183-2.726-5.086a4.208,4.208,0,0,1,2.949-1.986c5.888-1.71,12.11-2.158,17.9-4.176s11.4-6.145,12.776-12.121c.421-1.832.612-4.05,2.257-4.959a6.8,6.8,0,0,1,2.608-.533,12.688,12.688,0,0,0,10.884-13.228c2.775-1.939,6.662-.514,9.347,1.549s5.054,4.787,8.321,5.677c6.087,1.656,11.97-3.734,18.279-3.759,2.653-.01,5.4.928,7.9.029,2.53-.912,4.041-3.431,5.982-5.291s5.349-3,7.142-.991l-1.526-11.31a22.231,22.231,0,0,0,18.095-3.273l-19.734-6.667a4.289,4.289,0,0,1-1.845-.986c-1.435-1.545-.01-3.953,1.157-5.709,2.79-4.2,3.259-11.121-1.331-13.213-3.133-1.428-6.728.286-9.735,1.962l-14.4,8.031c-.457,2.739,2.891,4.29,4.965,6.134a8.325,8.325,0,0,1-5.428,14.546,10.371,10.371,0,0,1,1.852,8.794l-9.691.7a4.2,4.2,0,0,1-3.143-.615c-1.036-.92-.9-2.534-1.136-3.9-.581-3.3-3.807-5.6-7.1-6.2s-6.662.166-9.924.915a5.919,5.919,0,0,1-4.265-.1A4.258,4.258,0,0,1,562.1,295c-1.429-3.467-.093-7.541,2.2-10.505s5.44-5.131,8.263-7.6a48.158,48.158,0,0,0,14.318-22.21c5.335-2.235,10.858-5.272,16.193-7.507a49.553,49.553,0,0,1,26.633-5.16l18.067.345c5.349.1,10.843.233,15.789,2.272s9.293,6.451,9.634,11.79a3.62,3.62,0,0,1-1.158,3.308,4.26,4.26,0,0,1-2.284.515C664.773,260.429,662.647,261.671,657.658,261.848Z" transform="translate(431.412 4106.365)"/><path class="a" d="M514.443,297.943a5.289,5.289,0,0,0,1.44-5.318,9.89,9.89,0,0,0-10.238,1.934,17.272,17.272,0,0,0-2.744,3.626c-2.374,3.873-4.474,8.5-3.1,12.83a3.644,3.644,0,0,0,1.667,2.28,4.369,4.369,0,0,0,1.944.3,65.022,65.022,0,0,0,7.825-.481c1.594-.2,3.446-.645,4.062-2.128.81-1.951-1.151-4.157-.579-6.189a6.765,6.765,0,0,1,1.67-2.391,3.161,3.161,0,0,0,.985-2.653c-.23-.954-1.691-1.495-2.216-.666" transform="translate(430.621 4126.892)"/><path class="a" d="M524.134,282.863a21.9,21.9,0,0,0-7.091-.446,3.106,3.106,0,0,0-1.511.344,2.519,2.519,0,0,0-.931,1.347,6.7,6.7,0,0,0,3.9,8.209,8.4,8.4,0,0,1,2.418.972c2.006,1.555.728,4.736,1.107,7.245.427,2.818,3.154,5.183,2.654,7.99-.394,2.21-2.755,3.96-2.375,6.174.4,2.317,3.339,3.013,5.683,3.2a7.149,7.149,0,0,0,4.027-.462,6.233,6.233,0,0,0,2.541-3.679,23.585,23.585,0,0,0,1.187-8.88,8.416,8.416,0,0,0-1-3.919,21.819,21.819,0,0,0-2.34-2.68C527.911,293.054,532.641,285.261,524.134,282.863Z" transform="translate(434.492 4124.39)"/><circle class="a" cx="15.07" cy="15.07" r="15.07" transform="translate(691.828 4749.501)"/><circle class="a" cx="15.07" cy="15.07" r="15.07" transform="translate(1534.197 4801.467)"/></g><g transform="translate(-117 -80)"><path class="b" d="M16.43,0A16.43,16.43,0,1,1,0,16.43,16.43,16.43,0,0,1,16.43,0Z" transform="translate(1271.57 4492.57)"/><g transform="translate(1279.512 4501.855)"><path class="a" d="M5.995,11.705H2.98l1.339-8.02A1.28,1.28,0,0,1,5.587,2.614h7.974l-.4,2.363h2.561L16.541.1H5.587A3.8,3.8,0,0,0,1.839,3.266L0,14.231H5.576Z" transform="translate(0 -0.1)"/><path class="a" d="M70.782,66.464l-2.037-3.05-.454-.722-.1.664-.524,3.085H65.8l1.234-7.24h1.443l2.188,3.376.338.57.081-.5.57-3.411h1.862L72.3,66.464Z" transform="translate(-58.141 -52.32)"/></g></g><g transform="translate(-97 -33)"><path class="b" d="M16.43,0A16.43,16.43,0,1,1,0,16.43,16.43,16.43,0,0,1,16.43,0Z" transform="translate(1271.57 4492.57)"/><g transform="translate(1279.512 4501.855)"><path class="a" d="M5.995,11.705H2.98l1.339-8.02A1.28,1.28,0,0,1,5.587,2.614h7.974l-.4,2.363h2.561L16.541.1H5.587A3.8,3.8,0,0,0,1.839,3.266L0,14.231H5.576Z" transform="translate(0 -0.1)"/><path class="a" d="M70.782,66.464l-2.037-3.05-.454-.722-.1.664-.524,3.085H65.8l1.234-7.24h1.443l2.188,3.376.338.57.081-.5.57-3.411h1.862L72.3,66.464Z" transform="translate(-58.141 -52.32)"/></g></g><g transform="translate(-335 -33)"><path class="b" d="M16.43,0A16.43,16.43,0,1,1,0,16.43,16.43,16.43,0,0,1,16.43,0Z" transform="translate(1271.57 4492.57)"/><g transform="translate(1279.512 4501.855)"><path class="a" d="M5.995,11.705H2.98l1.339-8.02A1.28,1.28,0,0,1,5.587,2.614h7.974l-.4,2.363h2.561L16.541.1H5.587A3.8,3.8,0,0,0,1.839,3.266L0,14.231H5.576Z" transform="translate(0 -0.1)"/><path class="a" d="M70.782,66.464l-2.037-3.05-.454-.722-.1.664-.524,3.085H65.8l1.234-7.24h1.443l2.188,3.376.338.57.081-.5.57-3.411h1.862L72.3,66.464Z" transform="translate(-58.141 -52.32)"/></g></g><g transform="translate(-124 203)"><path class="b" d="M16.43,0A16.43,16.43,0,1,1,0,16.43,16.43,16.43,0,0,1,16.43,0Z" transform="translate(1271.57 4492.57)"/><g transform="translate(1279.512 4501.855)"><path class="a" d="M5.995,11.705H2.98l1.339-8.02A1.28,1.28,0,0,1,5.587,2.614h7.974l-.4,2.363h2.561L16.541.1H5.587A3.8,3.8,0,0,0,1.839,3.266L0,14.231H5.576Z" transform="translate(0 -0.1)"/><path class="a" d="M70.782,66.464l-2.037-3.05-.454-.722-.1.664-.524,3.085H65.8l1.234-7.24h1.443l2.188,3.376.338.57.081-.5.57-3.411h1.862L72.3,66.464Z" transform="translate(-58.141 -52.32)"/></g></g></g></svg>