<svg xmlns="http://www.w3.org/2000/svg" xmlns:xlink="http://www.w3.org/1999/xlink" width="174" height="174" viewBox="0 0 174 174"><defs><style>.a{fill:#fff;stroke:#ebebeb;}.b{fill:#395698;}.c{stroke:none;}.d{fill:none;}.e{filter:url(#a);}</style><filter id="a" x="0" y="0" width="174" height="174" filterUnits="userSpaceOnUse"><feOffset dx="6" dy="12" input="SourceAlpha"/><feGaussianBlur stdDeviation="10" result="b"/><feFlood flood-color="#382a57" flood-opacity="0.071"/><feComposite operator="in" in2="b"/><feComposite in="SourceGraphic"/></filter></defs><g transform="translate(24.047 17.506)"><g class="e" transform="matrix(1, 0, 0, 1, -24.05, -17.51)"><g class="a" transform="translate(24 18)"><circle class="c" cx="57" cy="57" r="57"/><circle class="d" cx="57" cy="57" r="56.5"/></g></g><path class="b" d="M59.276,30.06A29.851,29.851,0,0,0,29.638,0,29.851,29.851,0,0,0,0,30.06,29.941,29.941,0,0,0,25.007,59.754V38.749H17.482V30.06h7.525V23.437c0-7.534,4.425-11.7,11.195-11.7a44.961,44.961,0,0,1,6.635.587v7.4H39.1c-3.682,0-4.83,2.317-4.83,4.694V30.06h8.22l-1.314,8.689H34.269V59.754A29.94,29.94,0,0,0,59.276,30.06Z" transform="translate(27.27 27.534)"/></g></svg>