<svg xmlns="http://www.w3.org/2000/svg" xmlns:xlink="http://www.w3.org/1999/xlink" width="174" height="174" viewBox="0 0 174 174"><defs><style>.a{fill:#fff;stroke:#ebebeb;}.b{fill:#c63d2d;}.c{stroke:none;}.d{fill:none;}.e{filter:url(#a);}</style><filter id="a" x="0" y="0" width="174" height="174" filterUnits="userSpaceOnUse"><feOffset dx="6" dy="12" input="SourceAlpha"/><feGaussianBlur stdDeviation="10" result="b"/><feFlood flood-color="#382a57" flood-opacity="0.071"/><feComposite operator="in" in2="b"/><feComposite in="SourceGraphic"/></filter></defs><g transform="translate(23.784 18.324)"><g class="e" transform="matrix(1, 0, 0, 1, -23.78, -18.32)"><g class="a" transform="translate(24 18)"><circle class="c" cx="57" cy="57" r="57"/><circle class="d" cx="57" cy="57" r="56.5"/></g></g><path class="b" d="M49.18,26.067c0,14.219-9.766,24.338-24.187,24.338a24.921,24.921,0,1,1,0-49.842,24.073,24.073,0,0,1,16.76,6.522l-6.8,6.522C26.051,5.044,9.5,11.476,9.5,25.484A15.632,15.632,0,0,0,24.993,41.22c9.9,0,13.605-7.074,14.19-10.742H24.993V21.906H48.787A21.787,21.787,0,0,1,49.18,26.067Z" transform="translate(32.479 31.601)"/></g></svg>