<svg xmlns="http://www.w3.org/2000/svg" xmlns:xlink="http://www.w3.org/1999/xlink" width="174" height="174" viewBox="0 0 174 174"><defs><style>.a{fill:#fff;stroke:#ebebeb;}.b{fill:#4775b3;}.c{stroke:none;}.d{fill:none;}.e{filter:url(#a);}</style><filter id="a" x="0" y="0" width="174" height="174" filterUnits="userSpaceOnUse"><feOffset dx="6" dy="12" input="SourceAlpha"/><feGaussianBlur stdDeviation="10" result="b"/><feFlood flood-color="#382a57" flood-opacity="0.071"/><feComposite operator="in" in2="b"/><feComposite in="SourceGraphic"/></filter></defs><g transform="translate(-1088 -1603)"><g transform="translate(41 12)"><g class="e" transform="matrix(1, 0, 0, 1, 1047, 1591)"><g class="a" transform="translate(24 18)"><circle class="c" cx="57" cy="57" r="57"/><circle class="d" cx="57" cy="57" r="56.5"/></g></g><path class="b" d="M45.16,1.928H11.169a8.623,8.623,0,0,0-8.6,8.6V44.518a8.623,8.623,0,0,0,8.6,8.6H45.16a8.623,8.623,0,0,0,8.6-8.6V10.526a8.623,8.623,0,0,0-8.6-8.6ZM21.766,43.518h-6.4V21.123h6.4Zm-3.2-25.594a3.2,3.2,0,1,1,3.2-3.2A3.2,3.2,0,0,1,18.567,17.924ZM44.161,43.518h-6.4v-12.8a3.2,3.2,0,1,0-6.4,0v12.8h-6.4V21.123h6.4V25.1c1.32-1.813,3.337-3.973,5.6-3.973,3.976,0,7.2,3.581,7.2,8Z" transform="translate(1100.169 1638.811)"/></g></g></svg>