<svg xmlns="http://www.w3.org/2000/svg" xmlns:xlink="http://www.w3.org/1999/xlink" width="174" height="174" viewBox="0 0 174 174"><defs><style>.a{fill:#fff;stroke:#ebebeb;}.b{fill:#382a57;}.c{fill:#00b67a;}.d{stroke:none;}.e{fill:none;}.f{filter:url(#a);}</style><filter id="a" x="0" y="0" width="174" height="174" filterUnits="userSpaceOnUse"><feOffset dx="6" dy="12" input="SourceAlpha"/><feGaussianBlur stdDeviation="10" result="b"/><feFlood flood-color="#382a57" flood-opacity="0.071"/><feComposite operator="in" in2="b"/><feComposite in="SourceGraphic"/></filter></defs><g transform="translate(-979 -1733.079)"><g class="f" transform="matrix(1, 0, 0, 1, 979, 1733.08)"><g class="a" transform="translate(24 18)"><circle class="d" cx="57" cy="57" r="57"/><circle class="e" cx="57" cy="57" r="56.5"/></g></g><g transform="translate(1016.586 1772.779)"><path class="b" d="M178.12,300.7h11.9v2.216h-4.686v12.491h-2.569V302.916H178.1l.02-2.216Zm11.393,4.059h2.2v2.059h.039a2.587,2.587,0,0,1,.412-.843,3.261,3.261,0,0,1,.726-.745,3.211,3.211,0,0,1,.941-.549,2.741,2.741,0,0,1,1.039-.216c.275,0,.471.02.569.02a1.717,1.717,0,0,0,.314.039v2.255a3.967,3.967,0,0,0-.51-.078,4.458,4.458,0,0,0-.51-.039,2.721,2.721,0,0,0-1.118.235,2.833,2.833,0,0,0-.922.686,3.717,3.717,0,0,0-.627,1.137,4.8,4.8,0,0,0-.235,1.569v5.059h-2.353l.039-10.589Zm17.02,10.647h-2.314v-1.49h-.039a3.285,3.285,0,0,1-1.294,1.294,3.416,3.416,0,0,1-1.745.49,3.883,3.883,0,0,1-3.039-1.039,4.546,4.546,0,0,1-.941-3.137v-6.765h2.353v6.53a2.783,2.783,0,0,0,.549,1.98,1.936,1.936,0,0,0,1.51.588,2.892,2.892,0,0,0,1.235-.235,2.131,2.131,0,0,0,.8-.608,2.386,2.386,0,0,0,.451-.922,4.355,4.355,0,0,0,.137-1.157v-6.177h2.353v10.647Zm4-3.412a1.851,1.851,0,0,0,.784,1.451,3.088,3.088,0,0,0,1.627.412,5.393,5.393,0,0,0,.745-.059,3.288,3.288,0,0,0,.784-.2,1.38,1.38,0,0,0,.608-.431,1,1,0,0,0,.216-.726,1.055,1.055,0,0,0-.333-.745,2.778,2.778,0,0,0-.784-.471,6.8,6.8,0,0,0-1.1-.294c-.412-.078-.824-.177-1.255-.275s-.863-.216-1.275-.353a3.653,3.653,0,0,1-1.1-.569,2.445,2.445,0,0,1-.765-.9,2.818,2.818,0,0,1-.294-1.353,2.319,2.319,0,0,1,.431-1.451,3.126,3.126,0,0,1,1.078-.941,4.891,4.891,0,0,1,1.451-.51,8.3,8.3,0,0,1,1.51-.137,6.745,6.745,0,0,1,1.569.176,3.965,3.965,0,0,1,1.353.569,3.1,3.1,0,0,1,1,1.02,3.532,3.532,0,0,1,.51,1.51h-2.451a1.509,1.509,0,0,0-.765-1.137,3.157,3.157,0,0,0-1.392-.294c-.157,0-.373.02-.588.039a3.473,3.473,0,0,0-.647.157,1.533,1.533,0,0,0-.51.333.784.784,0,0,0-.216.569.862.862,0,0,0,.294.686,2.665,2.665,0,0,0,.784.451,6.808,6.808,0,0,0,1.1.294c.412.078.843.177,1.275.275s.843.216,1.255.353a3.436,3.436,0,0,1,1.1.569,2.828,2.828,0,0,1,.784.882,2.71,2.71,0,0,1,.294,1.314,2.858,2.858,0,0,1-.431,1.608,3.667,3.667,0,0,1-1.118,1.078,5.546,5.546,0,0,1-1.529.608,8.219,8.219,0,0,1-1.667.2,7.023,7.023,0,0,1-1.863-.235,4.745,4.745,0,0,1-1.49-.686,3.292,3.292,0,0,1-.98-1.157,3.778,3.778,0,0,1-.392-1.647h2.373v.02Zm7.745-7.236h1.784v-3.216h2.353v3.2h2.118v1.745h-2.118v5.686a6.032,6.032,0,0,0,.039.647,1.358,1.358,0,0,0,.137.451.766.766,0,0,0,.333.275,1.749,1.749,0,0,0,.627.1,4.108,4.108,0,0,0,.49-.02,4.249,4.249,0,0,0,.49-.078v1.824c-.255.039-.51.059-.765.078a4.872,4.872,0,0,1-.765.039,5.068,5.068,0,0,1-1.49-.176,2.14,2.14,0,0,1-.882-.51,1.823,1.823,0,0,1-.431-.843,6.69,6.69,0,0,1-.137-1.177V306.5h-1.784V304.72h0Zm7.9,0H228.4v1.451h.039a2.912,2.912,0,0,1,1.373-1.333,4.445,4.445,0,0,1,1.922-.412,4.832,4.832,0,0,1,2.2.451,4.121,4.121,0,0,1,1.549,1.216,5.071,5.071,0,0,1,.922,1.8,7.921,7.921,0,0,1,.039,4.275,5.768,5.768,0,0,1-.843,1.784,4.172,4.172,0,0,1-1.431,1.235,4.232,4.232,0,0,1-2.039.471,5.983,5.983,0,0,1-1.02-.1,4.335,4.335,0,0,1-.98-.294,3.518,3.518,0,0,1-.863-.529,2.99,2.99,0,0,1-.667-.745h-.039v5.314H226.2V304.759Zm8.216,5.334a4.779,4.779,0,0,0-.2-1.392,3.551,3.551,0,0,0-.569-1.2,3.136,3.136,0,0,0-.922-.843,2.508,2.508,0,0,0-1.275-.314,2.6,2.6,0,0,0-2.235,1.02,4.644,4.644,0,0,0-.745,2.745,5.076,5.076,0,0,0,.2,1.49,3.319,3.319,0,0,0,.588,1.177,2.8,2.8,0,0,0,.941.784,2.659,2.659,0,0,0,1.275.294,2.609,2.609,0,0,0,1.353-.333,3.159,3.159,0,0,0,.922-.843,3.451,3.451,0,0,0,.51-1.2,6.736,6.736,0,0,0,.157-1.392Zm4.137-9.393h2.353v2.216h-2.353Zm0,4.059h2.353v10.647h-2.353V304.759Zm4.451-4.059h2.353v14.706h-2.353V300.7Zm9.53,15a5.6,5.6,0,0,1-2.275-.431,5.164,5.164,0,0,1-1.686-1.157,5.037,5.037,0,0,1-1.039-1.784,6.971,6.971,0,0,1-.373-2.255,6.37,6.37,0,0,1,.373-2.235,5.215,5.215,0,0,1,1.039-1.784,4.7,4.7,0,0,1,1.686-1.157,5.953,5.953,0,0,1,2.275-.431,5.6,5.6,0,0,1,2.275.431,4.88,4.88,0,0,1,1.686,1.157,5.037,5.037,0,0,1,1.039,1.784,6.851,6.851,0,0,1,.373,2.235,6.4,6.4,0,0,1-.373,2.255,5.549,5.549,0,0,1-1.039,1.784,4.7,4.7,0,0,1-1.686,1.157,5.879,5.879,0,0,1-2.275.431Zm0-1.863a2.712,2.712,0,0,0,1.353-.333,2.838,2.838,0,0,0,.941-.863,3.7,3.7,0,0,0,.549-1.2,5.349,5.349,0,0,0,0-2.726,3.516,3.516,0,0,0-.549-1.2,2.98,2.98,0,0,0-.941-.843,2.765,2.765,0,0,0-1.353-.333,2.711,2.711,0,0,0-1.353.333,3,3,0,0,0-.941.843,3.515,3.515,0,0,0-.549,1.2,5.349,5.349,0,0,0,0,2.726,3.515,3.515,0,0,0,.549,1.2,3.041,3.041,0,0,0,.941.863,2.568,2.568,0,0,0,1.353.333Zm6.079-9.079h1.784v-3.216h2.353v3.2h2.118v1.745H262.73v5.686a6.028,6.028,0,0,0,.039.647,1.357,1.357,0,0,0,.137.451.766.766,0,0,0,.333.275,1.749,1.749,0,0,0,.627.1,4.109,4.109,0,0,0,.49-.02,4.25,4.25,0,0,0,.49-.078v1.824c-.255.039-.51.059-.765.078a4.872,4.872,0,0,1-.765.039,5.067,5.067,0,0,1-1.49-.176,2.14,2.14,0,0,1-.882-.51,1.822,1.822,0,0,1-.431-.843,6.692,6.692,0,0,1-.137-1.177V306.5h-1.784V304.72h0Z" transform="translate(-178.1 -252.529)"/><path class="c" d="M66.464,265.2H48.9L43.5,248.5,38.06,265.2l-17.56-.032L34.7,275.5l-5.438,16.7,14.2-10.332,14.2,10.332-5.406-16.7ZM53.478,279.271l-9.98,2.591,8.764-6.365Z" transform="translate(0.426 -248.5)"/></g></g></svg>