<svg xmlns="http://www.w3.org/2000/svg" width="128.574" height="128.574" viewBox="0 0 128.574 128.574"><defs><style>.a{fill:#fff;}.b{fill:none;stroke:#fff;stroke-width:1.113px;}.c{fill:#4ccfd8;}.d{fill:#00d857;}.e{fill:#43375b;}</style></defs><ellipse class="a" cx="64.287" cy="64.287" rx="64.287" ry="64.287"/><ellipse class="b" cx="63.341" cy="63.341" rx="63.341" ry="63.341" transform="translate(0.945 0.945)"/><g transform="translate(25.115 25.05)"><g transform="translate(37.537 15.231)"><rect class="a" width="4.809" height="4.809"/></g><g transform="translate(42.346 9.608)"><path class="a" d="M699.729,287.982h2.806a2.811,2.811,0,0,1,2.812,2.811h0a2.812,2.812,0,0,1-2.812,2.812h-8.706Z" transform="translate(-693.829 -287.982)"/></g><g transform="translate(0 9.608)"><path class="a" d="M668.895,294.3H698.48l6.316-6.314h10.467v3.466a2.157,2.157,0,0,1-2.157,2.157h-4.09a1.89,1.89,0,0,0-1.89,1.89h0a5.461,5.461,0,0,1-1.6,3.864h0a5.458,5.458,0,0,1-3.864,1.6h-1.022l.868,13.454-3.031-3.03h-29.58Z" transform="translate(-668.895 -287.982)"/></g><g transform="translate(18.544 34.991)"><path class="a" d="M717.789,302.931c4.864,10.1,12.211,19.927,13.614,23.76,2.813,7.668-.613,16.037-8.6,20.514a14.029,14.029,0,0,1-6.754,2.028H696.135a14.028,14.028,0,0,1-6.754-2.028c-7.982-4.479-11.408-12.848-8.6-20.514,1.4-3.806,8.645-13.519,13.509-23.541l.109-.222Z" transform="translate(-679.814 -302.928)"/></g><g transform="translate(42.346 15.202)"><path class="a" d="M701.162,291.276h0a7.333,7.333,0,0,1,7.333,7.333v5.348a7.333,7.333,0,0,1-7.333,7.333h0a7.333,7.333,0,0,1-7.333-7.333v-5.348A7.333,7.333,0,0,1,701.162,291.276Z" transform="translate(-693.829 -291.276)"/></g><g transform="translate(0 19.82)"><rect class="c" width="29.585" height="13.189"/></g><g transform="translate(23.458 16.096)"><rect class="a" width="2.156" height="16.912"/></g><g transform="translate(17.462 16.096)"><rect class="a" width="2.156" height="16.912"/></g><g transform="translate(46.368 9.608)"><path class="d" d="M696.2,287.982h1.343a2.812,2.812,0,0,1,2.812,2.811h0a2.813,2.813,0,0,1-2.812,2.812H696.2Z" transform="translate(-696.197 -287.982)"/></g><g transform="translate(34.598 1.082)"><path class="d" d="M700.811,285.746a4.15,4.15,0,0,1-3.832,0l-4.923-2.568a1.908,1.908,0,0,0-2.6,2.531l2.836,5.779h8.743l3.232-7.547Z" transform="translate(-689.267 -282.961)"/></g><g transform="translate(18.539 19.82)"><path class="d" d="M726.233,332.929c-2.138-5.827-18.009-25.526-18.009-38.934h-9.431c0,13.412-15.871,33.106-18.011,38.934-2.812,7.67.615,16.039,8.6,20.516a14.052,14.052,0,0,0,6.754,2.026H710.88a14.056,14.056,0,0,0,6.754-2.026C725.62,348.968,729.045,340.6,726.233,332.929Z" transform="translate(-679.811 -293.995)"/></g><g transform="translate(23.459 19.82)"><g transform="translate(18.948)"><path class="a" d="M696.018,295.136l-2.153-.127c.02-.345.032-.684.032-1.014h2.155C696.052,294.367,696.041,294.751,696.018,295.136Z" transform="translate(-693.865 -293.995)"/></g><g transform="translate(0 3.088)"><path class="a" d="M696.607,354.749a16.876,16.876,0,0,1-2.2-.825l.893-1.963a14.447,14.447,0,0,0,1.916.722Zm-4.249-1.9a22.6,22.6,0,0,1-1.924-1.277l1.282-1.732a20.425,20.425,0,0,0,1.741,1.153ZM688.65,350.1a20.231,20.231,0,0,1-1.608-1.674l1.639-1.4a18.07,18.07,0,0,0,1.439,1.493Zm-3.016-3.531a18.285,18.285,0,0,1-1.165-2.026l1.934-.951a16.035,16.035,0,0,0,1.028,1.785Zm-2.057-4.192a17.068,17.068,0,0,1-.589-2.269l2.12-.394a14.824,14.824,0,0,0,.515,1.985Zm-.856-4.606c-.009-.233-.014-.467-.014-.7,0-.549.027-1.106.081-1.653l2.147.216a13.977,13.977,0,0,0-.073,1.437c0,.2,0,.4.014.606Zm2.563-4.151-2.094-.515a17.3,17.3,0,0,1,.554-1.814c.051-.139.11-.284.175-.44l1.985.839c-.051.122-.1.238-.138.345a15.1,15.1,0,0,0-.484,1.585Zm1.557-3.794-1.885-1.044c.309-.56.678-1.194,1.124-1.936l1.848,1.109c-.433.722-.79,1.335-1.087,1.872Zm2.228-3.738-1.832-1.134q.558-.9,1.167-1.873l1.829,1.143q-.606.968-1.163,1.861Zm2.332-3.735-1.831-1.141q.568-.909,1.156-1.866l1.836,1.134q-.591.958-1.163,1.873Zm2.315-3.765-1.846-1.114c.392-.649.769-1.281,1.121-1.88l1.86,1.094c-.358.6-.74,1.247-1.136,1.9Zm2.245-3.82-1.873-1.068c.368-.649.727-1.291,1.063-1.906l1.892,1.036c-.343.627-.707,1.279-1.084,1.938Zm2.131-3.9-1.914-1c.343-.662.673-1.309.982-1.941l1.936.946c-.318.65-.656,1.32-1.005,1.99Zm1.96-4-1.963-.893c.306-.674.6-1.342.864-1.985l1.992.825c-.278.666-.579,1.359-.9,2.055Zm1.71-4.144-2.024-.742c.253-.691.486-1.376.689-2.033l2.06.64c-.216.693-.458,1.411-.725,2.136ZM703.1,298.4l-2.1-.511c.173-.712.316-1.408.423-2.072l2.13.345c-.119.72-.272,1.474-.459,2.238Z" transform="translate(-682.708 -295.813)"/></g><g transform="translate(16.207 60.347)"><path class="a" d="M693.442,331.738a11.623,11.623,0,0,1-1.191-.065l.229-2.145a9.1,9.1,0,0,0,.961.053Z" transform="translate(-692.251 -329.528)"/></g></g><g transform="translate(28.829 19.82)"><path class="c" d="M686.626,293.995h7.936c.216,4.732-1.843,10.21-4.7,15.8l-4-3.02Z" transform="translate(-685.87 -293.995)"/></g><g transform="translate(42.346 19.82)"><rect class="c" width="14.173" height="15.175"/></g><g transform="translate(17.469 34.526)"><path class="e" d="M708.441,350.5H696.568a15.046,15.046,0,0,1-7.279-2.165,19.793,19.793,0,0,1-8.813-9.587,16.749,16.749,0,0,1-.267-12.24,61.574,61.574,0,0,1,4.878-8.563,165.97,165.97,0,0,0,8.673-15.074l.107-.221,1.941.938-.109.224a167.279,167.279,0,0,1-8.786,15.276,63.15,63.15,0,0,0-4.681,8.162c-2.666,7.269.593,14.986,8.11,19.2a12.947,12.947,0,0,0,6.226,1.89h11.87Z" transform="translate(-679.181 -302.654)"/></g><g transform="translate(42.919 34.523)"><path class="e" d="M706.032,350.506H694.166v-2.157h11.866a12.93,12.93,0,0,0,6.226-1.892c7.517-4.217,10.778-11.934,8.111-19.2a63.456,63.456,0,0,0-4.682-8.16,165.365,165.365,0,0,1-8.894-15.5l1.943-.936a163.512,163.512,0,0,0,8.78,15.3,61.846,61.846,0,0,1,4.878,8.561,16.748,16.748,0,0,1-.267,12.24,19.8,19.8,0,0,1-8.816,9.592A15.046,15.046,0,0,1,706.032,350.506Z" transform="translate(-694.166 -302.652)"/></g><g transform="translate(0 31.931)"><path class="e" d="M700.749,306l-2.714-2.716h-29.14v-2.155h30.033l3.346,3.346Z" transform="translate(-668.895 -301.126)"/></g><g transform="translate(0 8.53)"><path class="e" d="M701.668,302.479h-1.024v-2.157h1.024a4.385,4.385,0,0,0,4.385-4.385h0a2.97,2.97,0,0,1,2.967-2.967h4.086a1.081,1.081,0,0,0,1.078-1.078V289.5h-8.943l-6.314,6.316H668.895v-2.155h29.138l6.316-6.316h11.992v4.545a3.237,3.237,0,0,1-3.234,3.234h-4.091a.812.812,0,0,0-.81.812,6.543,6.543,0,0,1-6.544,6.542Z" transform="translate(-668.895 -287.347)"/></g><g transform="translate(34.598 1.078)"><path class="a" d="M705.734,283.18l-4.923,2.568a4.149,4.149,0,0,1-3.832,0l-4.923-2.568a1.908,1.908,0,0,0-2.6,2.531l2.836,5.779h13.2l2.836-5.779a1.907,1.907,0,0,0-2.6-2.531Z" transform="translate(-689.267 -282.959)"/></g><g transform="translate(33.517)"><path class="e" d="M706.613,293.011H692.067l-3.13-6.384A2.986,2.986,0,0,1,693,282.667l4.923,2.568a3.066,3.066,0,0,0,2.836,0l4.923-2.568a2.986,2.986,0,0,1,4.066,3.961Zm-13.2-2.157h11.854l2.539-5.176a.83.83,0,0,0-1.129-1.1l-.5-.954.5.954-4.923,2.568a5.216,5.216,0,0,1-4.828,0L692,284.577a.83.83,0,0,0-1.128,1.1Z" transform="translate(-688.63 -282.325)"/></g><g transform="translate(42.346 8.53)"><path class="e" d="M702.535,295.125h-8.706V292.97h8.706a1.734,1.734,0,1,0,0-3.468h-2.806v-2.155h2.806a3.889,3.889,0,1,1,.007,7.778Z" transform="translate(-693.829 -287.347)"/></g><g transform="translate(41.268 14.121)"><path class="e" d="M706.782,312.814H696.428a3.237,3.237,0,0,1-3.234-3.234v-15.7a3.238,3.238,0,0,1,3.234-3.239h10.355a3.239,3.239,0,0,1,3.235,3.235v15.7A3.238,3.238,0,0,1,706.782,312.814ZM696.428,292.8a1.08,1.08,0,0,0-1.077,1.078v15.7a1.079,1.079,0,0,0,1.077,1.078h10.355a1.08,1.08,0,0,0,1.078-1.078v-15.7a1.081,1.081,0,0,0-1.078-1.078Z" transform="translate(-693.194 -290.639)"/></g><g transform="translate(38.637 46.434)"><path class="a" d="M704.114,327.968a6.678,6.678,0,0,1-3.638,1.824v1.192A1.618,1.618,0,0,1,700,332.2a1.862,1.862,0,0,1-2.459,0,1.617,1.617,0,0,1-.472-1.216v-1.1a10.9,10.9,0,0,1-4.623-1.581,1.626,1.626,0,0,1-.62-.608,1.893,1.893,0,0,1-.183-.9,1.976,1.976,0,0,1,.426-1.265,1.258,1.258,0,0,1,1.009-.535,1.848,1.848,0,0,1,.584.1,4.382,4.382,0,0,1,.757.365,9.013,9.013,0,0,0,1.994.827,7.638,7.638,0,0,0,1.972.243,3.667,3.667,0,0,0,1.958-.426,1.413,1.413,0,0,0,.669-1.277,1.036,1.036,0,0,0-.4-.839,3.047,3.047,0,0,0-1-.523q-.6-.2-1.739-.487a23.151,23.151,0,0,1-2.994-.937,5.17,5.17,0,0,1-2.019-1.483,4.083,4.083,0,0,1-.851-2.714,4.747,4.747,0,0,1,1.364-3.381,6.667,6.667,0,0,1,3.6-1.9v-1.216a1.6,1.6,0,0,1,.487-1.206,1.829,1.829,0,0,1,2.446-.012,1.62,1.62,0,0,1,.472,1.218v1.143a10.328,10.328,0,0,1,3.942,1.532,1.807,1.807,0,0,1,.62.645,1.855,1.855,0,0,1,.182.864,1.937,1.937,0,0,1-.436,1.265,1.3,1.3,0,0,1-1.022.535,1.618,1.618,0,0,1-.56-.1,6.9,6.9,0,0,1-.778-.365q-.171-.094-.756-.4a6.28,6.28,0,0,0-1.253-.487,5.371,5.371,0,0,0-1.423-.182,3.04,3.04,0,0,0-1.776.472,1.475,1.475,0,0,0-.681,1.277,1.245,1.245,0,0,0,.778,1.167,11.9,11.9,0,0,0,2.459.78,20.358,20.358,0,0,1,2.955.876,4.944,4.944,0,0,1,2,1.483,4.2,4.2,0,0,1,.839,2.75A4.63,4.63,0,0,1,704.114,327.968Z" transform="translate(-691.645 -309.665)"/></g><g transform="translate(2.209 23.856)"><g transform="translate(0 4.313)"><rect class="e" width="2.156" height="2.156"/></g><g transform="translate(4.313 4.313)"><rect class="e" width="2.156" height="2.156"/></g><g transform="translate(8.625 4.313)"><rect class="e" width="2.156" height="2.156"/></g><rect class="e" width="2.156" height="2.156"/><g transform="translate(4.313)"><rect class="e" width="2.156" height="2.156"/></g></g><g transform="translate(42.346 19.839)"><rect class="e" width="8.177" height="2.156"/></g><g transform="translate(42.346 24.583)"><rect class="e" width="9.535" height="2.156"/></g><g transform="translate(42.346 29.326)"><rect class="e" width="8.177" height="2.156"/></g><g transform="translate(52.264 19.839)"><rect class="e" width="2.48" height="2.156"/></g></g></svg>