<svg xmlns="http://www.w3.org/2000/svg" width="128.574" height="128.574" viewBox="0 0 128.574 128.574"><defs><style>.a{fill:#fff;}.b{fill:none;stroke:#fff;stroke-width:1.113px;}.c{fill:#4ccfd8;}.d{fill:#43375b;}.e{fill:#00d857;}</style></defs><ellipse class="a" cx="64.287" cy="64.287" rx="64.287" ry="64.287"/><ellipse class="b" cx="63.341" cy="63.341" rx="63.341" ry="63.341" transform="translate(0.945 0.945)"/><g transform="translate(24.342 30.959)"><g transform="translate(18.167 7.969)"><path class="c" d="M459.587,236.409H410.412a2.368,2.368,0,0,0-2.369,2.369h0v28.063a2.368,2.368,0,0,0,2.369,2.369h27.557a2.368,2.368,0,0,1,1.853.893l8.081,10.148a.817.817,0,0,0,1.457-.509V271.58a2.369,2.369,0,0,1,2.369-2.369h7.858a2.368,2.368,0,0,0,2.369-2.369h0V238.778a2.368,2.368,0,0,0-2.369-2.369Z" transform="translate(-408.043 -236.409)"/></g><g transform="translate(18.167 7.969)"><path class="a" d="M459.587,236.409H410.412a2.368,2.368,0,0,0-2.369,2.369h0v1.875a2.369,2.369,0,0,1,2.364-2.374h49.18a2.369,2.369,0,0,1,2.369,2.369h0v-1.875A2.368,2.368,0,0,0,459.587,236.409Z" transform="translate(-408.043 -236.409)"/></g><g transform="translate(17.226 7.028)"><path class="d" d="M448.921,281.888a1.736,1.736,0,0,1-1.364-.661l-8.079-10.149a1.426,1.426,0,0,0-1.121-.538H410.8a3.311,3.311,0,0,1-3.31-3.31V239.165a3.311,3.311,0,0,1,3.31-3.31h49.175a3.309,3.309,0,0,1,3.308,3.31v28.06a3.308,3.308,0,0,1-3.308,3.308h-7.858a1.433,1.433,0,0,0-1.432,1.433v8.162a1.739,1.739,0,0,1-1.177,1.658A1.765,1.765,0,0,1,448.921,281.888ZM410.8,237.728a1.434,1.434,0,0,0-1.433,1.432v28.065a1.435,1.435,0,0,0,1.433,1.432h27.557a3.287,3.287,0,0,1,2.587,1.247l7.867,9.879v-7.819a3.308,3.308,0,0,1,3.308-3.308h7.858a1.434,1.434,0,0,0,1.432-1.432V239.165a1.434,1.434,0,0,0-1.43-1.437H410.8Z" transform="translate(-407.489 -235.855)"/></g><g transform="translate(37.064 13.668)"><rect class="a" width="28.832" height="4.128"/></g><g transform="translate(24.043 12.299)"><path class="a" d="M414.529,245.481l-3.026-3.026,1.369-1.367,1.661,1.661,3.789-3.789,1.367,1.367Z" transform="translate(-411.503 -238.959)"/></g><g transform="translate(37.064 22.388)"><rect class="a" width="28.832" height="4.128"/></g><g transform="translate(24.043 21.019)"><path class="a" d="M414.529,250.615,411.5,247.59l1.369-1.369,1.661,1.663,3.789-3.791,1.367,1.369Z" transform="translate(-411.503 -244.093)"/></g><g transform="translate(37.064 31.108)"><rect class="a" width="28.832" height="4.128"/></g><g transform="translate(24.043 29.739)"><path class="a" d="M414.529,255.75l-3.026-3.025,1.369-1.369,1.661,1.661,3.789-3.789,1.367,1.369Z" transform="translate(-411.503 -249.228)"/></g><g transform="translate(10.767)"><g transform="translate(0 31.878)"><rect class="d" width="1.876" height="0.938"/></g><g transform="translate(0.001 3.641)"><path class="d" d="M405.561,260.333h-1.875v-1.77h1.875Zm0-3.529h-1.875v-1.765h1.875Zm0-3.529h-1.875V251.51h1.875Zm0-3.531h-1.875v-1.768h1.875Zm0-3.529h-1.875v-1.766h1.875Zm0-3.531h-1.875v-1.765h1.875Zm0-3.529h-1.875v-1.768h1.875Zm0-3.531h-1.875v-1.763h1.875Z" transform="translate(-403.686 -233.861)"/></g><g transform="translate(0 0)"><rect class="d" width="1.876" height="1.876"/></g><g transform="translate(3.801)"><path class="d" d="M454.376,233.594h-1.938v-1.877h1.938Zm-3.876,0h-1.938v-1.877H450.5Zm-3.877,0h-1.936v-1.877h1.936Zm-3.876,0h-1.938v-1.877h1.938Zm-3.876,0h-1.938v-1.877h1.938Zm-3.877,0h-1.938v-1.877h1.938Zm-3.876,0h-1.938v-1.877h1.938Zm-3.876,0H425.31v-1.877h1.938Zm-3.877,0H421.43v-1.877h1.936Zm-3.876,0h-1.938v-1.877h1.938Zm-3.876,0h-1.938v-1.877h1.938Zm-3.877,0H409.8v-1.877h1.938Zm-3.876,0h-1.938v-1.877h1.938Z" transform="translate(-405.924 -231.717)"/></g><g transform="translate(54.191 0)"><rect class="d" width="1.876" height="1.876"/></g><g transform="translate(54.191 3.474)"><rect class="d" width="1.876" height="1.598"/></g><g transform="translate(54.191 6.669)"><rect class="d" width="1.876" height="0.938"/></g></g><g transform="translate(10.767 40.771)"><g transform="translate(54.191)"><rect class="d" width="1.876" height="0.938"/></g><g transform="translate(54.193 3.035)"><path class="d" d="M437.468,268h-1.873v-2.1h1.875Zm0-4.195h-1.873v-2.1h1.875Zm0-4.2h-1.873v-2.1h1.875Z" transform="translate(-435.595 -257.511)"/></g><g transform="translate(54.191 15.623)"><rect class="d" width="1.876" height="1.876"/></g><g transform="translate(3.801 15.623)"><path class="d" d="M454.376,266.8h-1.938v-1.875h1.938Zm-3.876,0h-1.938v-1.875H450.5Zm-3.877,0h-1.936v-1.875h1.936Zm-3.876,0h-1.938v-1.875h1.938Zm-3.876,0h-1.938v-1.875h1.938Zm-3.877,0h-1.938v-1.875h1.938Zm-3.876,0h-1.938v-1.875h1.938Zm-3.876,0H425.31v-1.875h1.938Zm-3.877,0H421.43v-1.875h1.936Zm-3.876,0h-1.938v-1.875h1.938Zm-3.876,0h-1.938v-1.875h1.938Zm-3.877,0H409.8v-1.875h1.936Zm-3.876,0h-1.938v-1.875h1.938Z" transform="translate(-405.924 -264.923)"/></g><g transform="translate(0 15.623)"><rect class="d" width="1.876" height="1.876"/></g><g transform="translate(0 12.458)"><rect class="d" width="1.876" height="1.582"/></g><g transform="translate(0 9.939)"><rect class="d" width="1.876" height="0.938"/></g></g><g transform="translate(31.529 46.91)"><g transform="translate(0.944 0.93)"><path class="e" d="M425.92,262.1a6.944,6.944,0,0,0-1.157.112l-1.719-1.968a.826.826,0,0,0-1.039-.168l-1.719,1.017a.828.828,0,0,0-.355,1l.9,2.459a6.656,6.656,0,0,0-1.135,2.016l-2.563.5a.824.824,0,0,0-.667.82l.02,2a.827.827,0,0,0,.684.8l2.575.447a6.665,6.665,0,0,0,1.18,1.985l-.851,2.474a.827.827,0,0,0,.379.988l1.739.978a.826.826,0,0,0,1.041-.188l1.675-2.006a6.781,6.781,0,0,0,2.313-.026l1.719,1.968a.828.828,0,0,0,1.041.168l1.719-1.017a.827.827,0,0,0,.353-1l-.9-2.459a6.594,6.594,0,0,0,1.134-2.014l2.565-.5a.826.826,0,0,0,.667-.82l-.022-2a.827.827,0,0,0-.684-.807l-2.575-.447a6.625,6.625,0,0,0-1.179-1.985l.851-2.474a.827.827,0,0,0-.379-.988l-1.741-.978a.824.824,0,0,0-1.039.189l-1.675,2.006A6.8,6.8,0,0,0,425.92,262.1Zm3.412,6.642a3.339,3.339,0,1,1-3.376-3.3h0a3.339,3.339,0,0,1,3.373,3.3Z" transform="translate(-416.467 -259.886)"/></g><g transform="translate(7.129 6.485)"><circle class="a" cx="3.339" cy="3.339" r="3.339"/></g><path class="d" d="M422.983,278.994a1.747,1.747,0,0,1-.863-.228l-1.741-.98a1.763,1.763,0,0,1-.8-2.108l.679-1.985a7.616,7.616,0,0,1-.793-1.337l-2.069-.36a1.761,1.761,0,0,1-1.461-1.719l-.022-2a1.766,1.766,0,0,1,1.423-1.751l2.062-.4a7.507,7.507,0,0,1,.763-1.352l-.724-1.973a1.767,1.767,0,0,1,.758-2.126l1.719-1.017a1.765,1.765,0,0,1,2.227.358l1.382,1.585c.258-.029.516-.046.776-.049s.518.009.776.032l1.347-1.613a1.765,1.765,0,0,1,2.22-.406l1.741.98a1.763,1.763,0,0,1,.8,2.108l-.679,1.985a7.5,7.5,0,0,1,.791,1.337l2.069.358a1.766,1.766,0,0,1,1.462,1.719l.022,2a1.766,1.766,0,0,1-1.425,1.751l-2.06.4a7.631,7.631,0,0,1-.763,1.354l.723,1.973a1.764,1.764,0,0,1-.757,2.125l-1.719,1.017a1.766,1.766,0,0,1-2.228-.358l-1.383-1.583c-.256.029-.516.044-.776.048a7.424,7.424,0,0,1-.776-.031l-1.347,1.612A1.77,1.77,0,0,1,422.983,278.994Zm-1.607-2.8,1.579.888,1.96-2.345.526.085a5.827,5.827,0,0,0,1.992-.019l.525-.093,2.011,2.3,1.559-.924-1.053-2.872.34-.414a5.691,5.691,0,0,0,.977-1.732l.178-.5,3-.589-.02-1.812-3.011-.523-.188-.5a5.7,5.7,0,0,0-1.016-1.71l-.348-.408.99-2.894-1.579-.888-1.96,2.345-.528-.087a5.933,5.933,0,0,0-1-.075,5.737,5.737,0,0,0-.994.1l-.526.093-2.009-2.3-1.561.924,1.053,2.872-.34.414a5.7,5.7,0,0,0-.977,1.731l-.178.506-3,.588.019,1.812,3.011.525.19.5a5.7,5.7,0,0,0,1.014,1.71l.348.406Zm5-2.76a4.276,4.276,0,1,1,4.278-4.322h0a4.277,4.277,0,0,1-4.229,4.322Zm0-6.678h-.027a2.4,2.4,0,1,0,2.427,2.374h0A2.4,2.4,0,0,0,426.374,266.761Z" transform="translate(-415.911 -259.338)"/></g><g transform="translate(0 31.886)"><g transform="translate(0.937 0.934)"><path class="a" d="M397.9,264.612A13.573,13.573,0,1,1,416.6,277.179l-11.666,5.7a.709.709,0,0,1-1-.824l1.442-5.311A13.573,13.573,0,0,1,397.9,264.612Z" transform="translate(-397.898 -251.042)"/></g><path class="d" d="M405.007,284.275a1.652,1.652,0,0,1-1.641-1.663,1.588,1.588,0,0,1,.056-.418l1.245-4.591a14.509,14.509,0,1,1,12.705.817l-11.637,5.686A1.666,1.666,0,0,1,405.007,284.275Zm6.848-31.913a12.636,12.636,0,0,0-5.666,23.93l.684.345L405.36,282.2l11.241-5.491.029-.012a12.566,12.566,0,0,0,7.857-11.912,12.724,12.724,0,0,0-12.449-12.423Z" transform="translate(-397.346 -250.492)"/></g><g transform="translate(9.923 39.523)"><g transform="translate(2.615 10.999)"><rect class="e" width="3.167" height="2.773"/></g><path class="e" d="M410.947,256.08A4.841,4.841,0,0,0,407.622,255a5.021,5.021,0,0,0-3.19.971,3.353,3.353,0,0,0-1.235,2.846v.042l.1.275h3v-.265a1.2,1.2,0,0,1,.379-.954,1.406,1.406,0,0,1,.951-.331,1.353,1.353,0,0,1,1.044.379,1.546,1.546,0,0,1,.363,1.107,2.19,2.19,0,0,1-.34,1.2,4.457,4.457,0,0,1-.953,1.051,6.381,6.381,0,0,0-1.513,1.486,3.853,3.853,0,0,0-.413,1.977v.268h3.144v-.267a2.972,2.972,0,0,1,.151-1.07,1.888,1.888,0,0,1,.623-.729,6.263,6.263,0,0,0,1.736-1.686,3.919,3.919,0,0,0,.715-2.257A3.781,3.781,0,0,0,410.947,256.08Z" transform="translate(-403.189 -254.989)"/></g><g transform="translate(10.767 13.587)"><rect class="d" width="1.876" height="19.229"/></g><g transform="translate(64.958 40.771)"><rect class="d" width="1.876" height="12.524"/></g></g></svg>