<svg xmlns="http://www.w3.org/2000/svg" width="128.574" height="128.574" viewBox="0 0 128.574 128.574"><defs><style>.a{fill:#fff;}.b{fill:none;stroke:#fff;stroke-width:1.113px;}.c{fill:#00d857;}.d{fill:#43375b;}.e{fill:#4ccfd8;}</style></defs><ellipse class="a" cx="64.287" cy="64.287" rx="64.287" ry="64.287"/><ellipse class="b" cx="63.341" cy="63.341" rx="63.341" ry="63.341" transform="translate(0.945 0.945)"/><g transform="translate(22.214 27.416)"><g transform="translate(6.039 35.071)"><path class="a" d="M133.555,310.981l16.649-9.613,16.65,9.613v19.227L150.2,339.82l-16.649-9.613Z" transform="translate(-133.555 -301.368)"/></g><g transform="translate(45.915 35.071)"><path class="a" d="M157.034,310.981l16.649-9.613,16.649,9.613v19.227l-16.649,9.613-16.649-9.613Z" transform="translate(-157.034 -301.368)"/></g><g transform="translate(25.591 1.208)"><path class="a" d="M145.067,291.042l16.652-9.613,16.65,9.613v19.225l-16.65,9.616L145.07,310.27Z" transform="translate(-145.067 -281.429)"/></g><g transform="translate(30.748 7.665)"><g transform="translate(1.044 15.429)"><path class="c" d="M164.449,294.316l-5.284,5.285-5.283-5.285a7.085,7.085,0,0,0-5.163,6.817v3.719l10.446,6.031,10.446-6.031v-3.716A7.087,7.087,0,0,0,164.449,294.316Z" transform="translate(-148.719 -294.316)"/></g><g transform="translate(0 14.116)"><path class="d" d="M171.086,305.391H169v-3.546a6.056,6.056,0,0,0-5.907-6.206c-.042,0-.087,0-.129,0H156.23a6.042,6.042,0,0,0-6.036,6.036v3.716H148.1v-3.716a8.135,8.135,0,0,1,8.132-8.13h6.727a8.01,8.01,0,0,1,5.754,2.407,8.342,8.342,0,0,1,2.373,5.892Z" transform="translate(-148.104 -293.543)"/></g><g transform="translate(5.289)"><path class="d" d="M157.42,297.636a6.2,6.2,0,1,1,6.2-6.2h0A6.211,6.211,0,0,1,157.42,297.636Zm0-10.316a4.112,4.112,0,1,0,4.112,4.112h0a4.116,4.116,0,0,0-4.112-4.11Z" transform="translate(-151.218 -285.231)"/></g><g transform="translate(10.346 23.501)"><rect class="d" width="2.29" height="2.29"/></g><g transform="translate(4.378 24.268)"><rect class="d" width="2.09" height="4.223"/></g><g transform="translate(16.514 24.268)"><rect class="d" width="2.09" height="4.223"/></g></g><g transform="translate(11.199 41.524)"><g transform="translate(1.044 15.431)"><path class="e" d="M152.936,314.254h0a5.546,5.546,0,0,1-10.567,0h0a7.082,7.082,0,0,0-5.161,6.815v3.719l10.445,6.031,10.446-6.031v-3.718A7.083,7.083,0,0,0,152.936,314.254Z" transform="translate(-137.208 -314.254)"/></g><g transform="translate(0 14.116)"><path class="d" d="M159.573,325.328h-2.089v-3.544a6.061,6.061,0,0,0-5.909-6.207l-.129,0H144.72a6.043,6.043,0,0,0-6.038,6.036v3.718h-2.089V321.61a8.135,8.135,0,0,1,8.13-8.13h6.729a8,8,0,0,1,5.752,2.408,8.337,8.337,0,0,1,2.374,5.89Z" transform="translate(-136.593 -313.48)"/></g><g transform="translate(5.289)"><path class="d" d="M145.908,317.573a6.2,6.2,0,1,1,6.2-6.2h0A6.211,6.211,0,0,1,145.908,317.573Zm0-10.314a4.112,4.112,0,1,0,4.112,4.112h0a4.117,4.117,0,0,0-4.112-4.112Z" transform="translate(-139.707 -305.168)"/></g><g transform="translate(16.512 24.268)"><rect class="d" width="2.09" height="4.223"/></g><g transform="translate(4.376 24.268)"><rect class="d" width="2.09" height="4.223"/></g></g><g transform="translate(52.119 56.955)"><path class="e" d="M176.415,314.254l-5.284,5.284-5.284-5.284a7.08,7.08,0,0,0-5.161,6.815v3.719l10.445,6.031,10.446-6.031v-3.718A7.083,7.083,0,0,0,176.415,314.254Z" transform="translate(-160.687 -314.254)"/></g><g transform="translate(61.518 60.037)"><rect class="a" width="2.09" height="13.063"/></g><g transform="translate(51.072 55.641)"><path class="d" d="M183.053,325.328h-2.089v-3.544a6.061,6.061,0,0,0-5.908-6.207l-.129,0H168.2a6.042,6.042,0,0,0-6.036,6.036v3.718h-2.091V321.61a8.137,8.137,0,0,1,8.132-8.13h6.727a8,8,0,0,1,5.754,2.408,8.328,8.328,0,0,1,2.373,5.89Z" transform="translate(-160.071 -313.48)"/></g><g transform="translate(56.361 41.524)"><path class="d" d="M169.387,317.573a6.2,6.2,0,1,1,6.2-6.2h0A6.211,6.211,0,0,1,169.387,317.573Zm0-10.314a4.112,4.112,0,1,0,4.112,4.112h0a4.117,4.117,0,0,0-4.112-4.112Z" transform="translate(-163.185 -305.168)"/></g><g transform="translate(55.45 65.792)"><rect class="d" width="2.09" height="4.223"/></g><g transform="translate(67.586 65.792)"><rect class="d" width="2.09" height="4.223"/></g><g transform="translate(24.546)"><path class="d" d="M162.144,321.58l-17.692-10.21V290.935l17.692-10.217,17.695,10.217v20.434Zm-15.6-11.42,15.6,9.01,15.6-9.01V292.141l-15.6-9.01-15.6,9.01Z" transform="translate(-144.452 -280.718)"/></g><g transform="translate(4.993 33.863)"><path class="d" d="M150.634,341.522l-17.695-10.215V310.874l17.695-10.217,17.695,10.217v20.431ZM135.03,330.1l15.6,9.01,15.6-9.01V312.08l-15.6-9.01-15.6,9.01Z" transform="translate(-132.939 -300.657)"/></g><g transform="translate(44.868 33.863)"><path class="d" d="M174.113,341.522l-17.695-10.215V310.874l17.695-10.217,17.695,10.217v20.431Zm-15.6-11.423,15.6,9.01,15.6-9.01V312.08l-15.6-9.01-15.6,9.01Z" transform="translate(-156.418 -300.657)"/></g><g transform="translate(52.86 4.824)"><circle class="e" cx="5.684" cy="5.684" r="5.684"/></g><g transform="translate(73.112 39.658)"><circle class="c" cx="5.684" cy="5.684" r="5.684"/></g><g transform="translate(0 39.658)"><circle class="c" cx="5.684" cy="5.684" r="5.684"/></g><g transform="translate(76.625 42.759)"><path class="a" d="M176.306,310.746a2.157,2.157,0,0,1-.878-.9,3.166,3.166,0,0,1,0-2.736,2.166,2.166,0,0,1,.878-.9,2.917,2.917,0,0,1,2.919.165.574.574,0,0,1,.173.189.548.548,0,0,1,.054.258.581.581,0,0,1-.124.379.38.38,0,0,1-.3.153.543.543,0,0,1-.189-.032,1.18,1.18,0,0,1-.2-.1,2.02,2.02,0,0,0-.474-.216,1.658,1.658,0,0,0-.457-.065,1.154,1.154,0,0,0-.946.379,2.336,2.336,0,0,0,0,2.328,1.153,1.153,0,0,0,.946.379,1.325,1.325,0,0,0,.414-.068c.132-.046.3-.115.515-.211.1-.053.173-.088.221-.107a.45.45,0,0,1,.172-.029.377.377,0,0,1,.3.155.566.566,0,0,1,.126.377.484.484,0,0,1-.229.443,2.913,2.913,0,0,1-2.918.165Z" transform="translate(-175.117 -305.895)"/></g><g transform="translate(3.536 42.82)"><path class="a" d="M136.14,308.81a1.276,1.276,0,0,1,.236.783,1.234,1.234,0,0,1-.217.724,1.412,1.412,0,0,1-.622.482,2.4,2.4,0,0,1-.946.172h-1.9a.548.548,0,0,1-.606-.482.5.5,0,0,1,0-.124v-3.823a.548.548,0,0,1,.482-.606.5.5,0,0,1,.124,0h1.829a2.044,2.044,0,0,1,1.262.353,1.137,1.137,0,0,1,.472.955,1.148,1.148,0,0,1-.786,1.114A1.271,1.271,0,0,1,136.14,308.81Zm-2.778-.9h.936a1,1,0,0,0,.543-.114.407.407,0,0,0,.17-.365.437.437,0,0,0-.17-.386.949.949,0,0,0-.543-.121h-.936Zm1.625,1.94a.586.586,0,0,0,0-.822.963.963,0,0,0-.56-.124h-1.065v1.072h1.065A.952.952,0,0,0,134.987,309.853Z" transform="translate(-132.081 -305.931)"/></g><g transform="translate(55.913 7.952)"><path class="a" d="M168.181,289.941a.512.512,0,0,1-.19.4.631.631,0,0,1-.431.165.551.551,0,0,1-.3-.085.577.577,0,0,1-.214-.258l-.321-.722h-2.315l-.329.722a.555.555,0,0,1-.521.343.667.667,0,0,1-.44-.165.5.5,0,0,1-.2-.4.627.627,0,0,1,.065-.265l1.887-3.876a.657.657,0,0,1,.275-.3.834.834,0,0,1,.8,0,.664.664,0,0,1,.279.3l1.887,3.876A.628.628,0,0,1,168.181,289.941Zm-3.329-1.486h1.432l-.715-1.593Z" transform="translate(-162.921 -285.4)"/></g><g transform="translate(17.666 62.998)"><rect class="a" width="10.046" height="2.09"/></g><g transform="translate(17.666 67.108)"><rect class="a" width="10.046" height="2.09"/></g></g></svg>