<svg xmlns="http://www.w3.org/2000/svg" xmlns:xlink="http://www.w3.org/1999/xlink" width="404.914" height="403.288" viewBox="0 0 404.914 403.288"><defs><style>.a{fill:url(#a);}.b{fill:#fff;font-size:18px;font-family:Gibbs-Bold, Gibbs;font-weight:700;}.c{filter:url(#b);}</style><linearGradient id="a" x1="-0.375" y1="0.529" x2="1.139" y2="0.552" gradientUnits="objectBoundingBox"><stop offset="0" stop-color="#c169db"/><stop offset="1" stop-color="#d84166"/></linearGradient><filter id="b" x="0" y="0" width="404.914" height="403.288" filterUnits="userSpaceOnUse"><feOffset dx="15" dy="50" input="SourceAlpha"/><feGaussianBlur stdDeviation="25" result="c"/><feFlood flood-color="#4d3c6d" flood-opacity="0.149"/><feComposite operator="in" in2="c"/><feComposite in="SourceGraphic"/></filter></defs><g transform="translate(60 25)"><g class="c" transform="matrix(1, 0, 0, 1, -60, -25)"><path class="a" d="M93.02,0c51.457.2,92.792,43.885,93,99,.771,28.96-12.083,48.569-33.073,57.731-20.581,10.024-49.3,9.6-70.8,18.394-21.823,8.114-40.491,6.672-55.893-8.241C11.22,152.752-.546,125.149.02,99,.008,44.3,41.658,0,93.02,0Z" transform="translate(60 129.04) rotate(-34)"/></g><text class="b" transform="translate(129.451 122.632)"><tspan x="-13.833" y="0">3D </tspan><tspan x="-54.792" y="21">Professionals</tspan></text></g></svg>