<svg xmlns="http://www.w3.org/2000/svg" xmlns:xlink="http://www.w3.org/1999/xlink" width="305.947" height="307.328" viewBox="0 0 305.947 307.328"><defs><style>.a{fill:url(#a);}.b{fill:#fff;font-size:18px;font-family:Gibbs-Bold, Gibbs;font-weight:700;}.c{filter:url(#b);}</style><linearGradient id="a" x1="-0.375" y1="0.529" x2="1.139" y2="0.552" gradientUnits="objectBoundingBox"><stop offset="0" stop-color="#c169db"/><stop offset="1" stop-color="#d84166"/></linearGradient><filter id="b" x="0" y="0" width="305.947" height="307.328" filterUnits="userSpaceOnUse"><feOffset dx="15" dy="50" input="SourceAlpha"/><feGaussianBlur stdDeviation="25" result="c"/><feFlood flood-color="#4d3c6d" flood-opacity="0.149"/><feComposite operator="in" in2="c"/><feComposite in="SourceGraphic"/></filter></defs><g transform="translate(60 25)"><g class="c" transform="matrix(1, 0, 0, 1, -60, -25)"><path class="a" d="M58.273,0c32.236.125,58.13,27.492,58.261,62.019.483,18.143-7.569,30.427-20.719,36.167C82.921,104.465,64.93,104.2,51.46,109.708c-13.671,5.083-25.366,4.18-35.015-5.163C7.029,95.693-.342,78.4.012,62.019.005,27.752,26.1,0,58.273,0Z" transform="translate(157.67 25) rotate(60)"/></g><text class="b" transform="translate(79.967 74.113)"><tspan x="-43.938" y="0">Marketing </tspan><tspan x="-31.257" y="21">Experts</tspan></text></g></svg>