<svg xmlns="http://www.w3.org/2000/svg" xmlns:xlink="http://www.w3.org/1999/xlink" width="317.965" height="297.922" viewBox="0 0 317.965 297.922"><defs><style>.a{fill:url(#a);}.b{fill:#fff;font-size:18px;font-family:Gibbs-Bold, Gibbs;font-weight:700;}.c{filter:url(#b);}</style><linearGradient id="a" y1="0.5" x2="1" y2="0.5" gradientUnits="objectBoundingBox"><stop offset="0" stop-color="#544cf9"/><stop offset="0.72" stop-color="#9f76fb"/><stop offset="1" stop-color="#9f76fb"/></linearGradient><filter id="b" x="0" y="0" width="317.965" height="297.922" filterUnits="userSpaceOnUse"><feOffset dx="15" dy="50" input="SourceAlpha"/><feGaussianBlur stdDeviation="25" result="c"/><feFlood flood-color="#4d3c6d" flood-opacity="0.161"/><feComposite operator="in" in2="c"/><feComposite in="SourceGraphic"/></filter></defs><g transform="translate(60 25)"><g class="c" transform="matrix(1, 0, 0, 1, -60, -25)"><path class="a" d="M69.993,0c38.719.117,69.821,25.952,69.978,58.545.58,17.126-9.092,28.722-24.886,34.141-15.487,5.927-37.1,5.678-53.275,10.877-16.421,4.8-30.467,3.946-42.057-4.873C8.443,90.332-.411,74.009.015,58.545.006,26.2,31.345,0,69.993,0Z" transform="translate(191.55 172.92) rotate(-160)"/></g><text class="b" transform="translate(81.748 77.931)"><tspan x="-50.463" y="0">Copywriters</tspan></text></g></svg>