<svg xmlns="http://www.w3.org/2000/svg" width="200" height="76.654" viewBox="0 0 200 76.654"><defs><style>.a{fill:#b2b2b2;}</style></defs><g transform="translate(-20.7 -206.6)"><path class="a" d="M182.94,219.931l-3,6.532h5.966Zm-38.894-.1a3.015,3.015,0,0,0-3.033-3.166h-4.133V223.1h3.833A3.132,3.132,0,0,0,144.046,219.831Zm-60.39.1-2.966,6.532h5.966Zm137.044-13.3H62.993V206.6l-10.2,27.729L20.7,234.1l26.362,18.73L36.931,283.254l26.5-18.8,25.8,17.33-7.165-21.263H211Zm-28,21.263h.033a9.166,9.166,0,0,0,6.566,2.666c2.433,0,3.866-1.133,3.866-2.466a2.327,2.327,0,0,0-.967-1.966,16.051,16.051,0,0,0-3.566-1.8c-3.466-1.466-5.366-3.033-5.366-5.932a4.537,4.537,0,0,1,1.933-3.866,7.824,7.824,0,0,1,4.866-1.466,8.791,8.791,0,0,1,4.9,1.366v3.633a7.073,7.073,0,0,0-4.8-1.766c-2.066,0-3.233.833-3.233,2.066-.133.667.5,1.233.967,1.666a12.5,12.5,0,0,0,1.466.8l.967.433c.467.2.767.333.933.4a12.5,12.5,0,0,1,4.2,2.666,5.22,5.22,0,0,1,1.3,3.7,5.079,5.079,0,0,1-1.933,4.066,8.118,8.118,0,0,1-5.366,1.6,11.432,11.432,0,0,1-6.766-2.033Zm-9.765-15.431,10,21h-3.866l-1.8-3.866h-8.7l-1.8,3.866h-3.833Zm-24.3,3.6a10.7,10.7,0,0,1,7.632-2.966,9.242,9.242,0,0,1,6.266,2.066V219a8.6,8.6,0,0,0-6.266-2.666,6.908,6.908,0,0,0-5.1,2.033,7.328,7.328,0,0,0,0,10.132,7.013,7.013,0,0,0,5.1,2,8.369,8.369,0,0,0,6.266-2.666v3.833a9.552,9.552,0,0,1-6.266,2.1,10.784,10.784,0,0,1-7.632-2.933,10.341,10.341,0,0,1,0-14.764Zm-8.565-2.633h3.633v20.03h-3.633Zm-16.8,0h7.832a6.467,6.467,0,0,1,4.633,1.833,6.208,6.208,0,0,1-1.733,10.165l4.9,7.965h-4.066l-4.333-7.1h-3.6v7.132h-3.633Zm-15.1,0h12.864v3.233h-9.232v4.766h8.665v3.233h-8.665V230.2h9.465v3.233h-13.1Zm-13.1,11.731,10.332-12.4v20.7h-3.566V222.131l-6.766,8.132-6.732-8.132v11.331H94.788l-.033-20.7Zm-21.363-12.7,9.965,21H89.822l-1.8-3.866h-8.7l-1.8,3.866h-3.8Zm123.146,43.593-131.545.2,5.232,14.4L63.393,258.391,45.729,271.522l7.232-20.6L34.7,238.728l22.13.333.067-.167,7.965-23,6.666,22.1,138.277.033Z" transform="translate(0 0)"/><path class="a" d="M129.425,318.587a.227.227,0,0,1-.06.12,5.276,5.276,0,0,1-.42-.689c-.21-.39-.51-.929-.929-1.588A1.45,1.45,0,0,0,127,315.68c-.659-.12-1.409.24-2.518,1.109-.779.629-.27,1.349.39,2.278l.12.18c.839,1.139,1.439,1.918,1.858,2.368a4.488,4.488,0,0,1,.33.39,9.7,9.7,0,0,0,1.079,1.139,1.705,1.705,0,0,0,1.049.48.27.27,0,0,0,.15-.03,1.289,1.289,0,0,0,.929-.689c4.466-7.043,5.844-9.171,10.46-13.517.33-.3.24-.539.18-.659-.36-.629-2.488-.629-4.106-.21C134.041,309.236,129.875,317.628,129.425,318.587Z" transform="translate(-68.568 -66.774)"/><path class="a" d="M213.5,321.446a2.789,2.789,0,0,0,.9-2.158,2.426,2.426,0,0,0-2.038-2.547,2.036,2.036,0,0,0,1.289-2.038,2.318,2.318,0,0,0-.839-1.858,2.943,2.943,0,0,0-2.068-.749H206.7v10.19h4.615A2.844,2.844,0,0,0,213.5,321.446Zm-4.586-5.275v-2.128h1.5a1.072,1.072,0,0,1,.27,2.128h-1.768Zm0,4.2v-2.458h1.918a1.216,1.216,0,0,1,1.319,1.2,1.23,1.23,0,0,1-1.289,1.229h-.03Z" transform="translate(-123.731 -69.719)"/><path class="a" d="M242.773,320.252h-4.8v-2.188h4.406v-1.978h-4.406v-1.918h4.705V312.1H235.7v10.19h7.073Z" transform="translate(-143.05 -69.725)"/><path class="a" d="M269.833,319.157a2.766,2.766,0,0,0-.6-1.858,6,6,0,0,0-2.068-1.289l-.659-.24-.659-.27-.509-.24c-.39-.24-.51-.45-.51-.749,0-.48.51-.779,1.469-.779a4.049,4.049,0,0,1,2.637.869v-2.218a5.429,5.429,0,0,0-2.727-.689,4.247,4.247,0,0,0-2.608.779,2.431,2.431,0,0,0-1.049,2.1c0,1.5,1.019,2.4,2.757,3.027a11.13,11.13,0,0,1,1.828.779.864.864,0,0,1,.48.779c0,.6-.659,1.019-1.768,1.019a5.016,5.016,0,0,1-3.447-1.229v2.368a7.012,7.012,0,0,0,3.537.929C268.454,322.214,269.833,320.956,269.833,319.157Z" transform="translate(-160.797 -69.43)"/><path class="a" d="M288.987,322.29h2.248v-8.122h2.7V312.1H286.2v2.068h2.787Z" transform="translate(-176.614 -69.725)"/><path class="a" d="M333.79,312.1h-2.4l-2.847,5.994L325.7,312.1h-2.4l5.245,10.7Z" transform="translate(-201.121 -69.688)"/><path class="a" d="M351.3,320.889l.779-1.618h4.256l.779,1.618h2.4L354.2,310.1l-5.3,10.789Zm2.907-6.2,1.289,2.667h-2.577Z" transform="translate(-218.127 -68.361)"/><path class="a" d="M392.834,320.252h-3.986V312.1H386.6v10.19h6.234Z" transform="translate(-243.513 -69.725)"/><path class="a" d="M410.029,321.461a4.414,4.414,0,0,0,3.117,1.109,4.339,4.339,0,0,0,3.087-1.109,4.048,4.048,0,0,0,1.229-3.177V312.2h-2.248v5.844c0,1.648-.689,2.488-2.1,2.488s-2.1-.839-2.1-2.488V312.2H408.8v6.084A4.006,4.006,0,0,0,410.029,321.461Z" transform="translate(-258.096 -69.778)"/><path class="a" d="M449.373,320.252h-4.8v-2.188h4.406v-1.978h-4.406v-1.918h4.705V312.1H442.3v10.19h7.073Z" transform="translate(-280.511 -69.725)"/><rect class="a" width="2.248" height="10.19" transform="translate(176.706 242.375)"/><path class="a" d="M503.218,315.625l6.863,6.174V311.19h-2.218v5.784L501,310.8v10.58h2.218Z" transform="translate(-316.205 -68.808)"/><path class="a" d="M538.518,315.625l6.863,6.174V311.19h-2.218v5.784L536.3,310.8v10.58h2.218Z" transform="translate(-340.925 -68.808)"/></g></svg>