<svg xmlns="http://www.w3.org/2000/svg" width="140" height="39.902" viewBox="0 0 140 39.902"><defs><style>.a{fill:#b2b2b2;}</style></defs><g transform="translate(-14.705 -11.112)"><path class="a" d="M165.853,24.6s.16-3.179-4.111-3.4h-4.11v7.418h3.5S165.853,28.549,165.853,24.6Zm-2.826,8.542h-5.4v7.836h5.4s5.4.257,5.4-4.078C168.422,36.9,168.583,33.109,163.027,33.141ZM141.414,11.112v39.9h42.343v-39.9Zm32.275,26.2c0,8.125-9.634,8.093-9.634,8.093H152.526V16.731h10.059c9.064.835,8.5,7.675,8.5,7.675a6.369,6.369,0,0,1-3.661,5.748C173.914,31.793,173.689,37.316,173.689,37.316Z" transform="translate(-77.88)"/><path class="a" d="M36.335,33.141h-5.4v7.836h5.4s5.4.257,5.4-4.078C41.73,36.9,41.89,33.109,36.335,33.141ZM39.16,24.6s.161-3.179-4.11-3.4H30.94v7.418h3.5S39.16,28.549,39.16,24.6ZM14.7,11.112v39.9H57.048v-39.9ZM47,37.316c0,8.125-9.634,8.093-9.634,8.093H25.833V16.731H35.893c9.064.835,8.5,7.675,8.5,7.675a6.37,6.37,0,0,1-3.661,5.748C47.221,31.793,47,37.316,47,37.316Z"/><path class="a" d="M268.122,11.112v39.9h42.343v-39.9Zm33.961,32.017A22.865,22.865,0,0,1,283.3,44.317a14.525,14.525,0,0,1-8.8-13.255s-.353-10.445,10.951-13.913c0,0,3.019-1.156,8.446-.642a30.7,30.7,0,0,1,7.932,2.28v5.3a24.163,24.163,0,0,0-10.886-3.244s-10.661-.208-11.143,10.221c0,0-.385,9.593,11.015,10.139,0,0,4.785.578,11.272-3.565Z" transform="translate(-155.76)"/></g></svg>