<svg xmlns="http://www.w3.org/2000/svg" width="209.888" height="58.62" viewBox="0 0 209.888 58.62"><defs><style>.a{fill:#b2b2b2;}</style></defs><g transform="translate(-533.904 -269.142)"><g transform="translate(615.128 284.231)"><path class="a" d="M607.089,308.493a11.344,11.344,0,0,1-6.976-2.287h-.19l-1.64,2.249h-.267V285.2c-.457-.3-1.411-.8-2.287-1.259v-.229l6.709-3.087h.3l-.114,13.533.076.038a7.389,7.389,0,0,1,6.328-4.46c4.613,0,7.2,4.384,7.2,9.073C616.238,304.262,612.464,308.493,607.089,308.493Zm-.8-15.592c-2.44,0-3.546,1.64-3.584,2.287-.038.61-.076,2.059-.076,3.127,0,.876.038,2.1.076,3.049.114,2.478,1.563,6.519,4.232,6.519,2.592,0,4.232-3.393,4.232-8.12C611.168,296.1,609.681,292.9,606.289,292.9Z" transform="translate(-595.729 -280.627)"/><path class="a" d="M621.55,306.317c-5.718,0-9.111-4.422-9.111-9.8,0-4.307,3.2-8.957,8.578-8.957,4.193,0,7.471,1.982,7.738,6.366H617.166c-.038.419-.038.8-.038,1.143,0,4.422,2.4,7.777,6.328,7.777,2.287,0,4.727-1.22,5.337-3.127l.382.078C628.678,302.162,626.505,306.317,621.55,306.317Zm-.838-18.108c-2.211,0-3.432,3.774-3.508,5.184,1.792,0,2.554-.075,4.46-.152a3.258,3.258,0,0,0,1.259-.267,1.734,1.734,0,0,0,.5-1.373C623.418,289.964,622.466,288.21,620.712,288.21Z" transform="translate(-590.486 -278.451)"/><path class="a" d="M636.593,306.072h-9.207v-.406c2.068-.243,3.082-.688,3.082-4.786v-8.274c0-1.541-.325-3.69-2.96-3.69v-.406l5.678-.771h.121l.406,2.881a6.745,6.745,0,0,1,5.8-2.8c2.555,0,4.786.851,5.6,2.878a7.087,7.087,0,0,1,6-2.878c3.043,0,5.963,1.256,5.963,4.5v9.817c0,3.366,1.622,3.325,2.961,3.527v.406h-9.37v-.445c1.419-.122,3.082-.2,3.082-3.571,0-3.569,0-5.961-.041-8.476-.039-3.082-1.055-4.948-3.853-4.948a4.065,4.065,0,0,0-4.137,3.651,27.292,27.292,0,0,0-.325,4.987c0,1.988,0,3.326.041,4.869.081,3.284,1.5,3.284,2.839,3.527v.406h-9.287v-.445c1.378-.122,3-.2,3.041-3.571.041-1.864.041-3.121.041-4.38v-4.1c0-3-1.014-4.948-3.813-4.948-1.826,0-3.61.974-4.219,3.772a24.9,24.9,0,0,0-.365,5.314c0,1.54.041,3.568.081,4.948.041,2.433,1.339,2.758,2.839,3Z" transform="translate(-585.796 -278.396)"/><path class="a" d="M663.173,306.651a9.42,9.42,0,1,1,0-18.82,9.434,9.434,0,0,1,9.815,9.409C672.988,302.838,667.755,306.651,663.173,306.651Zm5.962-9.411c0-4.907-2.515-8.84-5.962-8.84-4.219,0-6,4.176-6,8.8,0,4.866,2.515,8.842,6,8.842C667.512,306.042,669.135,301.459,669.135,297.24Z" transform="translate(-577.66 -278.367)"/><path class="a" d="M669.624,306.1v-.406c2.068-.243,3-.527,3-3.893V293.81c0-1.784-.08-4.866-2.392-4.866h-.771v-.406l5.8-.892h.122l.527,3.731c.851-1.622,2.149-3.488,5.07-3.488,2.312,0,3,1.379,3,2.028a1.5,1.5,0,0,1-1.461,1.662c-.973,0-1.339-.608-1.784-1.217-.406-.568-.812-1.176-1.622-1.176-1.339,0-2.433,1.419-2.88,3.2a26.807,26.807,0,0,0-.406,5.355c0,1.54.041,3.487.081,4.866.041,2.555,1.582,3,3.043,3.082v.406Z" transform="translate(-572.594 -278.425)"/><path class="a" d="M697.626,301.581c-.162,2.068-2.271,5.07-7.1,5.07-6.206,0-9.492-3.975-9.492-9.125,0-4.868,3.083-9.694,9.208-9.694,4.623,0,7.1,3.082,7.34,6.409H685.053a19.926,19.926,0,0,0-.163,2.8c0,6.694,4.178,8.356,6.733,8.356,3.327,0,5.07-1.866,5.517-3.935Zm-3.488-7.99c-.081-2.637-1.5-5.231-4.056-5.231-2.677,0-4.3,1.946-4.948,5.231Z" transform="translate(-568.962 -278.367)"/></g><path class="a" d="M567.765,327.757h33.823l-33.841-58.615L533.9,327.757h33.823c.007,0,.012.005.02.005S567.758,327.757,567.765,327.757ZM551.535,300.5l4.73,8.191a21.7,21.7,0,0,0-8.306,9.672,19.738,19.738,0,0,1-5.6-1.979Zm41.48,15.689a16.247,16.247,0,0,1-5.468,2.2,21.723,21.723,0,0,0-8.316-9.7l4.727-8.186Zm-34.489-6.866a19.691,19.691,0,0,1,5.715-1.992,21.537,21.537,0,0,0,2.568,4.38,20.092,20.092,0,0,1-4.613,3.969Zm2.237,7.16a19.755,19.755,0,0,1-9.11,2.235c-.677,0-1.344-.035-2-.1a19.969,19.969,0,0,1,7.446-8.483Zm1.743-16.775a21.611,21.611,0,0,0,1.14,6.056,21.409,21.409,0,0,0-5.958,2.109l-4.714-8.165Zm20.011,0-4.711,8.161a21.354,21.354,0,0,0-5.771-2.076,21.515,21.515,0,0,0,1.151-6.085Zm-12.133,5.833a19.821,19.821,0,0,0-5.088-.029,19.99,19.99,0,0,1-1.146-5.8h7.391A19.962,19.962,0,0,1,570.385,305.545Zm-.637,1.565a19.954,19.954,0,0,1-1.9,3.271,19.919,19.919,0,0,1-1.906-3.282c.6-.053,1.2-.091,1.806-.091C568.422,307.009,569.089,307.044,569.748,307.11Zm-1.9,5.888a21.848,21.848,0,0,0,4.694,4l-4.794,8.306-4.739-8.208A21.8,21.8,0,0,0,567.847,313Zm1.038-1.282a21.55,21.55,0,0,0,2.555-4.351,19.7,19.7,0,0,1,5.53,1.958l-3.616,6.264A20.051,20.051,0,0,1,568.884,311.716Zm9.514-1.586a20,20,0,0,1,7.448,8.5c-.6.054-1.2.091-1.805.091a19.754,19.754,0,0,1-9.263-2.318Zm-5.2-12.06a21.443,21.443,0,0,0-4.312-12.2,19.965,19.965,0,0,1,4.414-3.822l9.253,16.027Zm-1.641,0h-7.418a19.821,19.821,0,0,1,3.709-10.869A19.82,19.82,0,0,1,571.555,298.07Zm-9.058,0H552.94l9.308-16.123a20.034,20.034,0,0,1,4.56,3.918A21.441,21.441,0,0,0,562.5,298.07Zm-10.844,22.295a21.312,21.312,0,0,0,9.924-2.467l4.744,8.218H547.852a19.973,19.973,0,0,1,1.161-5.929A21.574,21.574,0,0,0,551.653,320.365Zm22.309-2.549a21.307,21.307,0,0,0,10.079,2.549,21.842,21.842,0,0,0,2.449-.148,20.027,20.027,0,0,1,1.151,5.9h-18.47Zm15.322,8.3a21.55,21.55,0,0,0-1.146-6.152l-.005-.016a17.682,17.682,0,0,0,5.674-2.379l4.936,8.547Zm-16.8-45.487a21.668,21.668,0,0,0-4.636,3.956,21.706,21.706,0,0,0-4.781-4.05l4.681-8.107Zm-30.937,37.177a21.236,21.236,0,0,0,5.817,2.128,21.6,21.6,0,0,0-1.156,6.181h-9.459Z"/></g></svg>