<svg xmlns="http://www.w3.org/2000/svg" width="209.442" height="36.645" viewBox="0 0 209.442 36.645"><defs><style>.a{fill:#b2b2b2;}</style></defs><g transform="translate(0 0)"><path class="a" d="M375.871,412.107c0-1.022.954-1.738,2.25-1.738a4.963,4.963,0,0,1,2.553.817l1.38-2.752a9.252,9.252,0,0,0-4.41-1.133c-3.749,0-6,2.352-6,4.943,0,4.772,7.6,5.147,7.6,8.317,0,1.125-.989,1.977-2.557,1.977a7.7,7.7,0,0,1-4.772-2.079l-1.5,2.863a10.33,10.33,0,0,0,6.477,2.25c3.92,0,6.443-2.147,6.443-5.216C383.337,415.107,375.871,414.971,375.871,412.107Z" transform="translate(-297.546 -397.108)"/><path class="a" d="M260.818,390.155h4.023v26.317a14.094,14.094,0,0,1-7.534,2.147c-4.84,0-9.476-3.034-9.476-8.9,0-5.522,3.715-9.306,9-9.306a6.905,6.905,0,0,1,3.988,1.159Zm0,15.135a5.512,5.512,0,0,0-3.885-1.534c-2.966,0-4.875,2.421-4.875,5.965a5.305,5.305,0,0,0,5.249,5.556,6.555,6.555,0,0,0,3.511-.886Z" transform="translate(-247.832 -390.155)"/><path class="a" d="M295.731,423.3c-1.33,1.228-4.329,2.318-7.6,2.318-5.624,0-8.01-3.2-8.01-6.1,0-3,2.522-5.624,6.749-5.624a7.769,7.769,0,0,1,5.011,1.534v-2.011c0-1.636-.886-2.659-3.784-2.659a12.481,12.481,0,0,0-4.806.989l-1.228-2.931a14.75,14.75,0,0,1,6.477-1.4c5.693,0,7.193,2.693,7.193,6.852Zm-3.852-4.806a6.509,6.509,0,0,0-4.091-1.466c-2.284,0-3.476,1.329-3.476,2.659s1.192,2.727,3.851,2.727a7.647,7.647,0,0,0,3.716-.92Z" transform="translate(-260.926 -397.155)"/><path class="a" d="M312.6,421.433V407.525h-3.239v-3.272H312.6v-5.9h4.022v5.9h4.227v3.272h-4.227v13.907Z" transform="translate(-272.786 -393.481)"/><path class="a" d="M346.494,423.335a11.761,11.761,0,0,1-7.261,2.284c-5.693,0-9.51-3.545-9.51-9,0-5.317,3.613-9.2,9-9.2,5.59,0,8.385,4.158,8.385,8.931v1.67H333.881c.239,2.216,2.251,4.261,6.034,4.261a8.445,8.445,0,0,0,5.317-1.807Zm-3.579-8.557a4.141,4.141,0,0,0-4.261-4.192,4.587,4.587,0,0,0-4.738,4.192Z" transform="translate(-281.042 -397.155)"/><path class="a" d="M409.112,425.432l-4.432-9.067-4.465,9.067h-1.569l-7.09-17.214h4.261l3.648,9.34a12.1,12.1,0,0,1,.409,1.3,12.689,12.689,0,0,1,.477-1.364l3.989-8.727h.682l4.022,8.794a9.167,9.167,0,0,1,.443,1.261,7.3,7.3,0,0,1,.443-1.3c1.193-3.136,2.591-6.579,3.614-9.306h4.227l-7.091,17.214Z" transform="translate(-306.119 -397.48)"/><path class="a" d="M437.621,397.159a2.5,2.5,0,1,1,2.479,2.511A2.4,2.4,0,0,1,437.621,397.159Zm.467,22.77V402.714h4.022v17.214Z" transform="translate(-324.8 -391.977)"/><path class="a" d="M451.141,433.8V409.359a16.192,16.192,0,0,1,7.636-1.943c4.841,0,9.34,3,9.34,9.067,0,4.738-3.034,9.136-8.42,9.136a8.022,8.022,0,0,1-4.533-1.67V433.8Zm4.023-13.464a5.651,5.651,0,0,0,4.295,1.909c2.386,0,4.432-2.25,4.432-5.727,0-3.272-2.045-5.727-5.454-5.727a6.37,6.37,0,0,0-3.272.819Z" transform="translate(-330.283 -397.155)"/><path class="a" d="M499.281,423.335a11.759,11.759,0,0,1-7.26,2.284c-5.693,0-9.511-3.545-9.511-9,0-5.317,3.614-9.2,9-9.2,5.59,0,8.386,4.158,8.386,8.931v1.67H486.669c.238,2.216,2.25,4.261,6.034,4.261a8.445,8.445,0,0,0,5.317-1.807Zm-3.579-8.557a4.141,4.141,0,0,0-4.261-4.192,4.587,4.587,0,0,0-4.738,4.192Z" transform="translate(-343.004 -397.155)"/><path class="a" d="M516.116,425.107V407.893h4.023v2.659c.374-.818,1.738-3.136,3.749-3.136a5.682,5.682,0,0,1,3.067.852l-1.466,3.75a3.832,3.832,0,0,0-2.283-.818c-1.943,0-3.067,2.182-3.067,4.329v9.578Z" transform="translate(-356.633 -397.155)"/></g><g transform="translate(175.337 4.578)"><path class="a" d="M572.775,412.8c-.107.005-.215.008-.322.008H572.4a9.861,9.861,0,0,1-2.207-.254,7.92,7.92,0,0,1-3.077-1c-.08-.046-.161-.094-.238-.142l-.028-.018c-.092-.058-.183-.117-.271-.178s-.2-.128-.3-.2a12.869,12.869,0,0,1-4.826-6.386c-.018-.053-.036-.107-.053-.16-.118-.284-.234-.568-.333-.858l-.037-.115a9.534,9.534,0,0,0-18.242,3.885c0,11.872,16.252,18.5,16.252,18.5s11.553-5.845,15.382-12.6c.162-.285.31-.573.442-.861.014-.026.024-.05.036-.076s.017-.045.026-.067A6.156,6.156,0,0,1,572.775,412.8Z" transform="translate(-542.786 -397.856)"/></g><g transform="translate(195.178 6.211)"><path class="a" d="M590.016,405.841a7.927,7.927,0,0,0-13.835-2.019.413.413,0,0,0-.018-.05c.006.018.012.036.016.052.038.118.076.234.114.348a12.865,12.865,0,0,0,4.826,6.386c.1.068.2.133.3.2s.178.121.271.178l.028.018c.078.048.158.1.238.142a7.99,7.99,0,0,0,3.979,1.049h.056c.076,0,.152,0,.228-.006a4.434,4.434,0,0,0,4.209-4.43c0-.058,0-.116,0-.172v0A4.381,4.381,0,0,0,590.016,405.841Z" transform="translate(-576.163 -400.604)"/></g></svg>