<svg xmlns="http://www.w3.org/2000/svg" width="236.756" height="61.28" viewBox="0 0 236.756 61.28"><defs><style>.a{fill:#b2b2b2;}</style></defs><g transform="translate(-558.697 -6744.098)"><path class="a" d="M25.438,178.768c.019-.017.038-.035.058-.051.343-.259.467-.537.09-.875a.243.243,0,0,1-.057-.2,5.838,5.838,0,0,1,.4-1.291,1.342,1.342,0,0,1,.736-.432c.262-.088.291-.208.187-.418a1.4,1.4,0,0,1-.058-.962c.241-1.113,1.166-1.3,2.129-1.224a.62.62,0,0,1,.322.19.406.406,0,0,0,.569.031.651.651,0,0,1,1.052.207,1.838,1.838,0,0,1,.235,1.448,4.342,4.342,0,0,0-.123.475c-.011.1.019.28.075.3a.781.781,0,0,0,.4-.009c.071-.016.12-.112.19-.152.219-.127.443-.244.666-.365l.062.072c.009-.089.024-.178.025-.267a15.872,15.872,0,0,1,.317-3.059.277.277,0,0,0-.089-.242c-.138-.075-.262-.238-.465-.111a1.556,1.556,0,0,1-.562.263,1.794,1.794,0,0,1-.589-.109c-.076-.017-.15-.047-.226-.07a5.139,5.139,0,0,1-.8-.251.769.769,0,0,1-.406-.854.827.827,0,0,1,.727-.65,2.381,2.381,0,0,1,.41-.008c.276.012.554.023.828.054a.99.99,0,0,1,.808.586c.125.265.348.313.591.431a1.345,1.345,0,0,0-.516-1.2c-.352-.3-.734-.573-1.111-.848-.431-.315-.46-.5-.123-.914.05-.063.1-.127.2-.26-.259-.1-.479-.183-.7-.259a10.125,10.125,0,0,1-1.284-.437,1.056,1.056,0,0,1-.575-1.148.394.394,0,0,1,.4-.4,1.7,1.7,0,0,0,.354-.034c.084-.024.2-.089.218-.155a.284.284,0,0,0-.11-.248,2.365,2.365,0,0,0-.562-.2,1.812,1.812,0,0,1-1.271-1.3c-.073-.391.08-.606.467-.621.188-.007.283-.07.244-.262-.178-.863.392-1.319,1.008-1.658a2.067,2.067,0,0,1,1.091-.075,1.25,1.25,0,0,1,.978.529.306.306,0,0,0,.466.1c.232-.137.416-.065.586.165a1.852,1.852,0,0,1,0,1.847,1.666,1.666,0,0,0-.283.607.327.327,0,0,0,.111.277c.05.038.181-.01.267-.041.214-.077.423-.167.633-.253l.034.07c.408-.586.856-1.15,1.211-1.768a12.4,12.4,0,0,1,.717-1.355c.136-.183.034-.565-.011-.848s-.163-.542-.232-.815c-.116-.461.045-.683.507-.744a.24.24,0,0,0,.152-.141.743.743,0,0,0-.1-.65,2.308,2.308,0,0,1-.286-1.992c.193-.554.542-.625.962-.21a1.224,1.224,0,0,0,.274.262.388.388,0,0,0,.322,0c.055-.034.068-.195.048-.287-.106-.468-.257-.928-.334-1.4a1.211,1.211,0,0,1,.136-.632.575.575,0,0,1,.8-.291.481.481,0,0,0,.391-.029,2,2,0,0,1,1.643-.291,1.191,1.191,0,0,1,.674.386,4.322,4.322,0,0,0,.493.427.282.282,0,0,0,.239.017,1.894,1.894,0,0,1,2.735,1.526,2.027,2.027,0,0,1-.058.717c-.058.248-.087.458.136.644a.428.428,0,0,1,.112.5,1.427,1.427,0,0,1-1.6.867,3.034,3.034,0,0,0-.6-.025c-.083.007-.158.115-.236.178a.863.863,0,0,0,.177.209,2.746,2.746,0,0,0,.333.122c.477.2.537.535.15.875a2.234,2.234,0,0,1-1.957.559,6.985,6.985,0,0,0-.839-.123c-.307-.017-.367.077-.29.363a.565.565,0,0,1-.459.666c-.151.032-.31.029-.462.063a2.029,2.029,0,0,0-1.2.59,2.012,2.012,0,0,1-.479.309c-.1.062-.243.1-.3.186a10.868,10.868,0,0,0-.771,1.126c-.064.146-.243.261-.26.4-.045.367-.333.572-.49.86a5.338,5.338,0,0,0-.281.73,2.66,2.66,0,0,1-.111.335c-.125.24-.269.449-.128.758.058.127-.048.35-.122.51a.7.7,0,0,0-.024.575,3.173,3.173,0,0,1,.1.638,4.621,4.621,0,0,0,.294,1.624c.275-.159.273-.435.288-.682a3.5,3.5,0,0,0-.052-.736c-.084-.541.135-.763.656-.65a.714.714,0,0,0,.152-.019,6.149,6.149,0,0,0-.171-.754,2.366,2.366,0,0,1-.067-1.48,2.964,2.964,0,0,1,.315-.66.5.5,0,0,1,.545-.282.476.476,0,0,1,.391.405c.045.156.139.3.3.222a.53.53,0,0,0,.214-.33c.029-.106-.035-.233-.034-.351a11.8,11.8,0,0,1,.035-1.2.959.959,0,0,1,.535-.723.4.4,0,0,1,.575.113c.245.312.382.322.642.02a.648.648,0,0,1,.683-.232c.214.047.428.1.637.16A1.843,1.843,0,0,1,41.4,164.6a1.67,1.67,0,0,1-.267.671c-.1.165-.14.252.069.356a.522.522,0,0,1,.15.878,1.43,1.43,0,0,1-1.252.489,5.125,5.125,0,0,0-.764-.024c-.113.009-.218.122-.326.188a1.224,1.224,0,0,0,.245.255c.21.119.483.164.5.479.018.333-.209.507-.447.669a1.826,1.826,0,0,1-1.263.25,1.371,1.371,0,0,0-1.032.2c.021.075.041.142.059.211a.475.475,0,0,1-.307.641,5.685,5.685,0,0,1-.743.177c-.178.041-.359.066-.533.119a.576.576,0,0,0-.438.407.487.487,0,0,1-.152.256c-.338.252-.464.663-.743.961-.1.1-.094.3-.128.453-.039.175-.06.354-.1.527a3.487,3.487,0,0,0-.172.572c-.047.627-.063,1.255-.094,1.883a2.442,2.442,0,0,1-.037.3.81.81,0,0,0-.047.184c.023.295.063.588.083.883.01.144-.027.291-.013.434a5.378,5.378,0,0,0,.106.683c.071.306.164.607.245.911.009.035-.011.084.006.108a3.641,3.641,0,0,1,.488,1.068,2.889,2.889,0,0,0,.532.727,1.461,1.461,0,0,0,.068-1.449,2.56,2.56,0,0,1-.246-.578.486.486,0,0,1,.407-.671c.241-.046.27-.175.168-.346s-.216-.4-.382-.477a2.014,2.014,0,0,1-.637-1.824.41.41,0,0,1,.583-.321c.179.06.343.17.517.247.225.1.351.024.317-.217a.832.832,0,0,0-.207-.457,1.7,1.7,0,0,1-.407-1.7c.086-.41.408-.728.853-.55.174.069.29-.032.391-.17a1.556,1.556,0,0,1,2.233-.2,1.573,1.573,0,0,1,.6,1.157c0,.2.07.337.324.333s.384.175.392.461a1.664,1.664,0,0,1-1.021,1.358,2.05,2.05,0,0,0-.584.284.36.36,0,0,0-.135.314c.042.1.194.161.311.206a.823.823,0,0,0,.272,0,.541.541,0,0,1,.547.809,1.6,1.6,0,0,1-1.055.887c-.144.05-.309.035-.457.074a2.336,2.336,0,0,0-.535.192c-.159.088-.16.227-.018.359.262.243.308.459.073.724a2.624,2.624,0,0,1-.686.524.932.932,0,0,0-.533.584.4.4,0,0,1-.064.15c-.559.706-.3,1.537-.356,2.319a.676.676,0,0,0,.028.141c.227-.269.44-.464.44-.833a.808.808,0,0,1,.628-.906c.051-.011.083-.1.134-.132a5.558,5.558,0,0,1,.769-.5.693.693,0,0,1,.82.215.759.759,0,0,1,.158.817,1.06,1.06,0,0,1-.164.313,8.107,8.107,0,0,1-.721.838,1.1,1.1,0,0,1-1.153.217c-.085.132-.158.257-.241.374a.59.59,0,0,0,.138.9c.394.33.766.684,1.147,1.028.047.042.1.107.151.112a2.02,2.02,0,0,1,.96.546,6.526,6.526,0,0,0,.624.3c.289.159.563.344.852.505a.762.762,0,0,0,.369.122,1.6,1.6,0,0,1,.767.214,7.915,7.915,0,0,0,1.116.332c.246.075.487.166.731.249a1.065,1.065,0,0,0,.15.053c.39.069.78.136,1.164.2a1.208,1.208,0,0,0-.75-1.047,4.458,4.458,0,0,1-.641-.3.422.422,0,0,1-.166-.659c.1-.179.01-.269-.149-.292a5.363,5.363,0,0,0-.788-.076,2.079,2.079,0,0,1-1.727-.791c-.308-.388-.223-.692.257-.842a.785.785,0,0,0,.209-.057,2.588,2.588,0,0,0,.26-.232c-.093-.076-.175-.191-.28-.221-.3-.084-.61-.118-.908-.2a2.931,2.931,0,0,1-.706-.283.546.546,0,0,1,0-.98.391.391,0,0,0,.185-.59,1.337,1.337,0,0,1,.114-1.226.881.881,0,0,1,.818-.615,4.6,4.6,0,0,1,.87-.022,1.168,1.168,0,0,1,.569.32c.141.135.237.178.39.054.071-.058.148-.107.218-.166a.458.458,0,0,1,.75.067,1.74,1.74,0,0,1,.271.727,8.456,8.456,0,0,1,.01,1.064,1.616,1.616,0,0,0,.006.382.371.371,0,0,0,.177.244c.072.023.2-.053.27-.118.107-.1.18-.231.286-.329.3-.277.572-.241.75.124a2.276,2.276,0,0,1,.051,2.23,1.117,1.117,0,0,0-.206.832.592.592,0,0,0,.114-.009c.367-.106.6.054.584.435s-.047.749-.085,1.12a3,3,0,0,0,.175,1.475.932.932,0,0,0,.354-.729c-.018-.394.032-.8.527-.938.065-.018.1-.127.162-.179a4.047,4.047,0,0,1,.608-.5.743.743,0,0,1,.895.1.765.765,0,0,1,.233.87,1.478,1.478,0,0,1-.179.367c-.181.268-.362.537-.568.786a1.051,1.051,0,0,1-.88.369.393.393,0,0,0-.373.188.757.757,0,0,0-.136.871,1.549,1.549,0,0,1,.011.568c.256.061.3.263.31.536.008.374.243.468.672.289.069.411.374.562.729.672.092.028.145.171.237.212a10.535,10.535,0,0,0,1.553.628,2.841,2.841,0,0,1,.737.278,2.538,2.538,0,0,0,.835.214c.492.084.987.145,1.481.218a.237.237,0,0,1,.127.044c.288.291.654.235,1.008.236a.56.56,0,0,1,.27.023,3.342,3.342,0,0,0,1.5.355c.286.034.731-.113.684-.25a.982.982,0,0,0-.429-.511,7.681,7.681,0,0,0-.812-.222,4.668,4.668,0,0,1-.918-.46c-.227-.152-.206-.317-.038-.539.049-.064.113-.183.088-.219a.286.286,0,0,0-.231-.107,5.962,5.962,0,0,0-.689.159,1.672,1.672,0,0,1-1.621-.32c-.457-.387-.4-.763.138-1.01.091-.042.216-.181.2-.242a.374.374,0,0,0-.245-.236,3.053,3.053,0,0,0-.736-.018,1.644,1.644,0,0,1-1.527-.684.61.61,0,0,1,.127-.967.217.217,0,0,0,.08-.321,1.7,1.7,0,0,1,.276-1.892,1.6,1.6,0,0,1,.706-.391c.183-.072.258-.159.238-.356a1.939,1.939,0,0,1,.778-1.643,1.613,1.613,0,0,1,.9-.263,1.115,1.115,0,0,1,1.148.412.422.422,0,0,0,.545.119c.362-.145.481-.11.732.2a1.686,1.686,0,0,1,.322,1.621,3.537,3.537,0,0,0-.154.636c-.011.115.051.313.129.342.11.04.265-.037.4-.077.037-.011.063-.063.093-.1.362-.423.8-.382,1.028.132a2.326,2.326,0,0,1-.112,2.109,3.492,3.492,0,0,0-.288.84c-.041.179.049.3.285.272.453-.045.691.179.663.642-.024.391-.1.778-.166,1.165a2.967,2.967,0,0,0,.452,1.938c.162.289.589.432.9.63.026.016.124-.032.153-.076a3.19,3.19,0,0,0,.356-.576c.117-.286.183-.593.278-.887a3.085,3.085,0,0,0-.006-1.571,3.29,3.29,0,0,1-.078-.706.515.515,0,0,1,.635-.562c.288.036.361-.119.314-.326a3.006,3.006,0,0,0-.29-.784,2.471,2.471,0,0,1-.217-1.856,1.258,1.258,0,0,1,.238-.457.507.507,0,0,1,.826-.013c.054.061.095.153.162.181a.637.637,0,0,0,.4.08c.079-.028.143-.227.132-.341a3.441,3.441,0,0,0-.155-.636,1.688,1.688,0,0,1,.373-1.684.482.482,0,0,1,.654-.148.412.412,0,0,0,.568-.1,1.112,1.112,0,0,1,1.039-.425,1.782,1.782,0,0,1,1.781,1.836.4.4,0,0,0,.29.46,1.634,1.634,0,0,1,.933,2.29.325.325,0,0,0,.084.284.639.639,0,0,1,.108,1,1.644,1.644,0,0,1-1.51.663,2.8,2.8,0,0,0-.71.01c-.107.017-.195.154-.291.237.08.089.141.215.24.257.487.211.567.574.177.943a1.654,1.654,0,0,1-1.679.378,5.178,5.178,0,0,0-.635-.158c-.093-.013-.2.061-.3.1a1.044,1.044,0,0,0,.114.248.345.345,0,0,1-.05.529,2.167,2.167,0,0,1-1.162.509,1.347,1.347,0,0,0-.935.45c-.12.158-.12.277.05.344a1.4,1.4,0,0,0,.564.12,3.352,3.352,0,0,0,1.5-.335c.171-.093.433-.006.648-.037a2.663,2.663,0,0,0,.507-.159,1.534,1.534,0,0,1,.244-.114c.628-.1,1.261-.171,1.888-.279a2.966,2.966,0,0,0,.543-.225c.171-.067.344-.127.519-.186s.326-.092.482-.154c.2-.08.391-.2.6-.263.27-.085.556-.118.723-.394.027-.045.109-.062.169-.08.322-.1.587-.257.642-.627.546.158.671.053.708-.5.01-.135.157-.261.235-.382.048-.267.11-.543.14-.822a.632.632,0,0,0-.074-.344.65.65,0,0,0-.653-.442.8.8,0,0,1-.853-.594c-.019-.071-.112-.117-.158-.183a4.744,4.744,0,0,1-.471-.727.716.716,0,0,1,.227-.866.769.769,0,0,1,.9-.1,2.465,2.465,0,0,1,.422.3q.3.24.594.494a.871.871,0,0,1,.278.771.883.883,0,0,0,.349.777,2.845,2.845,0,0,0,.179-1.467c-.032-.355-.071-.71-.087-1.065-.019-.434.194-.6.611-.486a.794.794,0,0,0,.157-.008,3.32,3.32,0,0,0-.218-.7,2.348,2.348,0,0,1-.093-2.184c.227-.563.589-.624.973-.158.018.021.029.05.051.064.123.089.265.261.37.242.218-.042.185-.275.188-.458.011-.5-.006-1,.054-1.5a1.115,1.115,0,0,1,.34-.567.4.4,0,0,1,.591.008c.061.055.128.1.191.156.184.159.335.179.486-.06a.754.754,0,0,1,.729-.3c.354.017.7.089,1.056.137a.236.236,0,0,1,.078.024,1.764,1.764,0,0,1,.523,1.6c-.176.376-.149.49.17.724a.547.547,0,0,1-.03.967,11.2,11.2,0,0,1-1.45.461c-.052.015-.119,0-.161.028a3.492,3.492,0,0,0-.279.225,1.451,1.451,0,0,0,.261.231c.118.063.267.069.384.133a.4.4,0,0,1,.147.677,1.937,1.937,0,0,1-1.491.859c-.319.015-.64.025-.956.063s-.37.13-.218.413c.133.247-.018.42-.187.536a3.93,3.93,0,0,1-.683.339,1.217,1.217,0,0,0-.754,1.047l1.189-.2c.009,0,.02,0,.027,0,.508-.405,1.171-.278,1.73-.505a.711.711,0,0,0,.195-.1,1.184,1.184,0,0,1,.814-.243c.131,0,.262-.114.391-.182.278-.147.55-.3.83-.447a4.778,4.778,0,0,0,.6-.3c.3-.215.552-.514.959-.545a.133.133,0,0,0,.07-.04c.337-.313.672-.629,1.011-.94.073-.067.158-.12.237-.182a.574.574,0,0,0,.124-.881,1.106,1.106,0,0,0-.248-.3,4.683,4.683,0,0,1-.867-.131c-.166-.056-.286-.253-.424-.388a1.958,1.958,0,0,1-.162-.177,5.194,5.194,0,0,1-.572-.753.694.694,0,0,1,.163-.832.734.734,0,0,1,.8-.206,1.875,1.875,0,0,1,.416.2c.26.171.515.352.761.545a.941.941,0,0,1,.361.824c-.025.366.224.542.447.836.013-.192.026-.315.028-.438a2.978,2.978,0,0,1-.011-.328,2.972,2.972,0,0,0-.487-2.016,1.548,1.548,0,0,0-.4-.388c-.21-.158-.463-.265-.654-.442a.53.53,0,0,1-.011-.873c.14-.145.1-.288-.055-.356a2.42,2.42,0,0,0-.649-.185,1.768,1.768,0,0,1-1.278-.758.671.671,0,0,1-.093-.747.6.6,0,0,1,.646-.257,1.038,1.038,0,0,0,.246-.006c.252-.045.352-.3.155-.46a2.108,2.108,0,0,0-.669-.346,1.688,1.688,0,0,1-1-1.379c.019-.283.145-.437.417-.438.225,0,.293-.119.3-.3a1.694,1.694,0,0,1,.837-1.369,1.157,1.157,0,0,1,.578-.179,5.133,5.133,0,0,1,.706.074.808.808,0,0,1,.683.438.373.373,0,0,0,.5.2.54.54,0,0,1,.712.385,1.7,1.7,0,0,1-.27,1.8,1.14,1.14,0,0,0-.277.515c-.055.266.09.352.338.237.14-.066.27-.158.413-.214.384-.149.655,0,.675.4a1.784,1.784,0,0,1-.717,1.755.975.975,0,0,0-.282.361c-.152.286-.119.343.188.43a.5.5,0,0,1,.355.664,2.554,2.554,0,0,1-.246.577,1.49,1.49,0,0,0,.065,1.457,2.928,2.928,0,0,0,.562-.777,2.484,2.484,0,0,1,.449-.97c.029-.033,0-.109.016-.161a6.509,6.509,0,0,1,.247-.881,1.3,1.3,0,0,0,.112-.74,2.486,2.486,0,0,1,.027-.535c0-.009.007-.018.007-.026-.006-.3-.008-.607-.019-.91q-.017-.516-.045-1.032c-.016-.3-.029-.6-.061-.9a2.268,2.268,0,0,0-.123-.641,1.459,1.459,0,0,1-.171-.842.27.27,0,0,0-.039-.184c-.2-.285-.411-.564-.619-.844a2.122,2.122,0,0,1-.353-.48.785.785,0,0,0-.663-.494c-.258-.058-.524-.077-.783-.135-.58-.131-.709-.358-.539-.933a.89.89,0,0,0-.7-.231c-.246-.007-.493.028-.74.025a1.531,1.531,0,0,1-1.125-.489.483.483,0,0,1,.172-.853.234.234,0,0,0,.05-.02c.117-.1.233-.2.348-.3a1.5,1.5,0,0,0-.434-.2,3.423,3.423,0,0,0-.654.032,1.45,1.45,0,0,1-1.139-.365c-.415-.378-.379-.755.1-1.039a.924.924,0,0,0,.115-.095.756.756,0,0,0-.084-.168,1.286,1.286,0,0,1-.2-1.338,1.987,1.987,0,0,1,2.087-1.414.824.824,0,0,1,.432.244c.291.276.4.283.653-.018a.388.388,0,0,1,.6-.108,1.126,1.126,0,0,1,.569,1c.015.336-.02.674-.033,1.011a1.054,1.054,0,0,0-.01.352.372.372,0,0,0,.223.229c.08.011.183-.1.265-.17.03-.025.032-.084.049-.126a.465.465,0,0,1,.839-.143,2.14,2.14,0,0,1,.386,1.988c-.064.265-.138.529-.2.795a1.025,1.025,0,0,0,0,.219.955.955,0,0,0,.163-.009c.425-.106.671.13.628.576a7.345,7.345,0,0,0-.037,1.06,1.492,1.492,0,0,0,.185.455l.094-.011a5.167,5.167,0,0,0,.185-.7c.045-.359.039-.723.071-1.084a1.468,1.468,0,0,1,.109-.474.578.578,0,0,0-.021-.572.712.712,0,0,1-.06-.753.305.305,0,0,0-.024-.2,8.248,8.248,0,0,0-.322-.891c-.139-.292-.333-.559-.494-.841-.069-.121-.118-.254-.175-.382-.037-.082-.069-.167-.113-.246-.021-.038-.082-.06-.092-.1-.1-.391-.457-.614-.622-.96a1.09,1.09,0,0,0-.572-.559,1.379,1.379,0,0,1-.478-.309,2.061,2.061,0,0,0-1.347-.591c-.248-.036-.514-.041-.652-.28a.738.738,0,0,1-.092-.451c.037-.248.011-.341-.247-.343a2.792,2.792,0,0,0-.65.077,2.324,2.324,0,0,1-2.052-.39,2.08,2.08,0,0,1-.209-.177c-.3-.31-.26-.593.127-.784.138-.068.3-.1.431-.17.068-.037.159-.144.145-.192a.292.292,0,0,0-.192-.183,3.093,3.093,0,0,0-.6.016,1.7,1.7,0,0,1-1.268-.319.758.758,0,0,1-.152-1.167.618.618,0,0,0,.043-.46,1.9,1.9,0,0,1,1.557-2.471,1.67,1.67,0,0,1,1.11.163.269.269,0,0,0,.238-.011,3.49,3.49,0,0,0,.475-.407,1.843,1.843,0,0,1,2.19-.2.509.509,0,0,0,.618.1c.291-.158.619.024.762.375a1.807,1.807,0,0,1,.025,1.211c-.07.245-.183.478-.246.725a.959.959,0,0,0,.042.341,1.135,1.135,0,0,0,.373-.066c.123-.07.2-.21.313-.3.355-.3.639-.235.818.19a2.34,2.34,0,0,1-.216,2.076,1.4,1.4,0,0,0-.153.508c-.016.19.039.34.312.314s.468.3.4.623c-.052.249-.143.49-.207.738a4.323,4.323,0,0,0-.12.589.942.942,0,0,0,.273.8,2.412,2.412,0,0,1,.327.612,4,4,0,0,0,.216.462c.378.565.769,1.122,1.092,1.589.312.127.543.208.763.314s.4.028.364-.222a1.2,1.2,0,0,0-.217-.547,1.691,1.691,0,0,1-.145-1.789c.146-.373.378-.449.736-.278a.258.258,0,0,0,.355-.093,1.873,1.873,0,0,1,1.886-.59,1.344,1.344,0,0,1,.611.336,3.689,3.689,0,0,1,.47.532.761.761,0,0,1,.171.686c-.081.4-.055.414.327.457.25.028.369.172.374.451a1.78,1.78,0,0,1-1.09,1.423,3.418,3.418,0,0,0-.6.168c-.116.057-.183.214-.272.326a2.943,2.943,0,0,0,.336.167,1.193,1.193,0,0,0,.272.028.387.387,0,0,1,.378.391,1.038,1.038,0,0,1-.5,1.1,5.486,5.486,0,0,1-1.137.438,1.657,1.657,0,0,0-.878.36c.088.113.169.209.242.312a.453.453,0,0,1-.117.744c-.4.3-.817.588-1.2.912a1.352,1.352,0,0,0-.52,1.194.969.969,0,0,0,.6-.416.885.885,0,0,1,1.071-.545c.085.024.194-.054.291-.055a4.322,4.322,0,0,1,.865.02.7.7,0,0,1,.548.62.745.745,0,0,1-.316.769,1.76,1.76,0,0,1-.464.228,5.672,5.672,0,0,0-.848.249.825.825,0,0,1-.889-.2c-.22-.18-.368-.027-.539.054-.188.089-.078.228-.062.356.076.6.157,1.191.221,1.789.05.476.08.954.11,1.335.278.153.51.275.736.407.071.041.12.136.191.15a.644.644,0,0,0,.378,0c.061-.028.092-.2.079-.3a8.541,8.541,0,0,1-.159-1.047,1.337,1.337,0,0,1,.556-1.165.531.531,0,0,1,.7.023c.278.222.394.2.671-.009a.881.881,0,0,1,.47-.176,3.185,3.185,0,0,1,.812.093,1.561,1.561,0,0,1,1.094,2.059c-.123.349-.123.349.218.475a1.7,1.7,0,0,1,1.082,1.713.879.879,0,0,1-.2.406c-.145.186-.167.333.042.484a2.038,2.038,0,0,1,.248.248v.329a2.045,2.045,0,0,1-2.315,1.053.657.657,0,0,0-.669.131c-.175.186-.146.348.089.437a.558.558,0,0,1,.431.533.649.649,0,0,1-.391.634,2.381,2.381,0,0,1-2.212.067,2.343,2.343,0,0,0-.706-.175c-.186-.017-.313.1-.255.32a.453.453,0,0,1-.241.531,1.122,1.122,0,0,1-.973.08,5.338,5.338,0,0,0-1.068-.193.787.787,0,0,0-.741.391c-.125.2-.227.407-.339.611a4.656,4.656,0,0,1,.56.29.436.436,0,0,0,.426.059,1.027,1.027,0,0,1,.967.131c.257.195.5.407.739.625a1.551,1.551,0,0,1,.288.361.754.754,0,0,1-.042.854.735.735,0,0,1-.818.316,3.849,3.849,0,0,1-.693-.312c-.088-.045-.159-.158-.245-.166-.529-.05-.709-.433-.771-.858-.05-.335-.3-.345-.5-.453s-.32-.017-.452.119-.295.273-.448.4a3.272,3.272,0,0,0-.652.559,1.432,1.432,0,0,1-.625.5.7.7,0,0,0-.24.166,1.855,1.855,0,0,1-.887.567.638.638,0,0,0-.288.179,1.222,1.222,0,0,1-.716.423,2.246,2.246,0,0,0-.355.124c-.3.121-.6.25-.9.367-.092.036-.225.011-.288.07-.513.477-1.215.4-1.813.624-.646.241-1.321.406-1.981.613a.427.427,0,0,0-.19.16c-.111.155-.211.32-.31.484a.441.441,0,0,0-.07.168c-.024.214-.038.43-.058.664a1.721,1.721,0,0,0,1.668-.287c.228-.21.463-.416.679-.638a.7.7,0,0,1,1.123,0,.408.408,0,0,0,.492.118,1.087,1.087,0,0,0,.6-.572c.129-.253.243-.512.381-.759a1.411,1.411,0,0,1,1.006-.735c.306-.057.546.114.529.387-.015.23.032.4.271.464a.415.415,0,0,0,.5-.289,4.108,4.108,0,0,0,.178-.516,1.341,1.341,0,0,1,1.421-1.008c.189.009.343.085.359.269.029.335.239.384.5.351a1.777,1.777,0,0,1,1.3.46,1.109,1.109,0,0,1,.525,1.261c-.133.533-.141,1.109-.647,1.488-.455.34-.446.356-.037.776a.742.742,0,0,1,.179.205c.069.183.2.4.149.559-.2.618-.319,1.314-1.113,1.513-.231.058-.281.223-.154.445a.364.364,0,0,1-.179.55,1.281,1.281,0,0,1-.493.139,2.236,2.236,0,0,1-1.774-.638,2.9,2.9,0,0,0-.659-.474c-.095-.051-.256.021-.386.037a3.144,3.144,0,0,0,.064.325c.026.086.082.163.112.249a.5.5,0,0,1-.312.663,1.213,1.213,0,0,1-.512.043,2.338,2.338,0,0,1-2.044-1.473,1.489,1.489,0,0,0-.366-.5c-.2-.194-.348-.155-.451.107a.329.329,0,0,1-.4.244,2.513,2.513,0,0,1-.807-.29c-.368-.25-.677-.584-1.027-.861-.211-.166-.445-.4-.683-.417a9.077,9.077,0,0,0-1.432.092c-.015,0-.029.02-.041.033a1.955,1.955,0,0,1-.95.5,5.364,5.364,0,0,0-.744.381c-.214.1-.443.157-.665.238a5.64,5.64,0,0,1-1.222.434c-.548.063-1.068.241-1.622.3a18.686,18.686,0,0,0-2.391.538,1.458,1.458,0,0,0,1.881.4,2.086,2.086,0,0,1,.337-.181,8.635,8.635,0,0,1,1.08-.269c.181-.028.4.03.406.3.006.377.152.493.5.321a3.437,3.437,0,0,0,.86-.574,2.067,2.067,0,0,1,1.9-.513.53.53,0,0,1,.372.828,1.434,1.434,0,0,0-.14.2,3.058,3.058,0,0,0-.095.346c.126.019.267.085.376.051a6.839,6.839,0,0,0,.884-.36,1.992,1.992,0,0,1,1.573-.053c.38.131.459.339.293.7-.132.289-.084.393.2.535a.781.781,0,0,1,.356.271,1.919,1.919,0,0,1,.108,1.908,1.763,1.763,0,0,1-1.686,1.016.29.29,0,0,0-.222.151.615.615,0,0,1-.67.487A1.422,1.422,0,0,1,69.4,199.1c-.14-.256-.265-.521-.4-.779a.3.3,0,0,0-.411-.163c-.092.048-.144.2-.175.322a.73.73,0,0,0,.018.3c.05.3-.106.532-.4.505a1.829,1.829,0,0,1-.712-.237,3.1,3.1,0,0,1-1.276-1.725.392.392,0,0,0-.661-.188.574.574,0,0,1-.83.023,8.509,8.509,0,0,1-1.71-1.533,2.476,2.476,0,0,0-1.338-.757,8.118,8.118,0,0,0-1.107-.166,3.146,3.146,0,0,0-.626.067c.382.379.733.732,1.09,1.081a4.29,4.29,0,0,0,.335.281c.169.135.346.26.509.4.283.244.52.616.844.722.715.232.94.966,1.521,1.31.006,0,.009.016.015.023a7.964,7.964,0,0,0,.883.92,4.107,4.107,0,0,1,1.544,2.509,1.543,1.543,0,0,1-.106,1.033,4.3,4.3,0,0,1-2.578-1.659.331.331,0,0,0-.114-.114,1.106,1.106,0,0,1-.551-.781.919.919,0,0,0-.368-.518,3.334,3.334,0,0,1-.419-.513,1.068,1.068,0,0,0-.3-.313.58.58,0,0,1-.357-.378c-.061-.2-.137-.4-.389-.442-.055-.011-.1-.075-.149-.116-.372-.314-.817-.56-.978-1.068a.037.037,0,0,0-.018-.02c-.421-.1-.631-.46-.924-.726a5.086,5.086,0,0,0-.913-.544c-.239.149-.486.286-.714.451-.164.119-.3.282-.45.416-.109.1-.231.175-.345.265a3.235,3.235,0,0,0-.4.33c-.145.157-.241.361-.395.507-.389.369-.975.536-1.126,1.15-.019.079-.2.11-.288.183a.761.761,0,0,0-.259.284,1.187,1.187,0,0,1-.443.568,1.119,1.119,0,0,0-.337.466,1.3,1.3,0,0,1-.573.8.247.247,0,0,0-.1.093,3.692,3.692,0,0,1-1.677,1.36,6.855,6.855,0,0,1-.986.348,4.566,4.566,0,0,1-.054-.9,4.02,4.02,0,0,1,1.33-2.482c.538-.481,1.064-.976,1.594-1.466a.262.262,0,0,0,.05-.1,1.575,1.575,0,0,1,.89-.808,1.222,1.222,0,0,0,.309-.21c.312-.281.609-.579.925-.855.556-.485,1.122-.958,1.7-1.448a.7.7,0,0,0-.2-.068c-.451.023-.9.028-1.351.087a2.566,2.566,0,0,0-1.63.876,7.715,7.715,0,0,1-1.634,1.453.572.572,0,0,1-.829-.025.4.4,0,0,0-.662.192c-.093.228-.2.453-.3.675a2.581,2.581,0,0,1-1.261,1.209.966.966,0,0,1-.423.084.4.4,0,0,1-.4-.514,2.389,2.389,0,0,0,.019-.382c0-.185-.125-.295-.281-.249a.716.716,0,0,0-.357.28c-.149.227-.245.489-.384.723a1.419,1.419,0,0,1-1.4.678.546.546,0,0,1-.568-.461c-.028-.149-.1-.172-.241-.186a2.071,2.071,0,0,1-.816-.158,1.861,1.861,0,0,1-.775-2.73.656.656,0,0,1,.3-.264c.388-.191.412-.232.249-.615-.128-.3-.064-.5.243-.613a3.574,3.574,0,0,1,.717-.163,1.866,1.866,0,0,1,1.053.239,5.7,5.7,0,0,0,.761.3.964.964,0,0,0,.376-.053,2.8,2.8,0,0,0-.1-.346,2.012,2.012,0,0,0-.153-.226.518.518,0,0,1,.333-.788,4.265,4.265,0,0,1,.927-.034,1.823,1.823,0,0,1,.965.479,6.161,6.161,0,0,0,1,.649c.288.142.421,0,.43-.314a.382.382,0,0,1,.186-.283.654.654,0,0,1,.426-.031,11.1,11.1,0,0,1,1.246.467,1.411,1.411,0,0,0,1.78-.4,7.355,7.355,0,0,0-.916-.308c-.814-.164-1.642-.257-2.45-.46-.175-.045-.369-.02-.541-.074-.248-.079-.477-.215-.723-.3a3.461,3.461,0,0,1-1.5-.609.578.578,0,0,0-.226-.094,2.417,2.417,0,0,1-.74-.254,1.723,1.723,0,0,0-1.081-.411.281.281,0,0,1-.081-.015,1.34,1.34,0,0,0-1.483.425,9.648,9.648,0,0,1-1,.853,1.116,1.116,0,0,1-.869.262.454.454,0,0,1-.289-.2c-.183-.322-.317-.364-.563-.076a3.67,3.67,0,0,0-.422.7,2.463,2.463,0,0,1-2.21,1.216.545.545,0,0,1-.48-.821c.038-.083.078-.165.12-.246.111-.212,0-.3-.19-.29a.981.981,0,0,0-.429.145,2.57,2.57,0,0,0-.438.371,2.17,2.17,0,0,1-1.778.619,1.316,1.316,0,0,1-.532-.183.349.349,0,0,1-.138-.457c.129-.37.123-.447-.257-.541a.945.945,0,0,1-.651-.6,6.414,6.414,0,0,1-.315-.785.515.515,0,0,1,.009-.365,3.837,3.837,0,0,1,.441-.614c.213-.251.216-.373-.045-.547a1.313,1.313,0,0,1-.626-.89c-.065-.386-.136-.772-.176-1.161a.5.5,0,0,1,.114-.343,2.029,2.029,0,0,1,1.8-.905c.243.027.4-.052.427-.331.02-.2.17-.282.372-.29a1.351,1.351,0,0,1,1.426,1.042,2.247,2.247,0,0,0,.309.657.449.449,0,0,0,.408.08.435.435,0,0,0,.208-.327c.026-.4.214-.563.6-.475a1.408,1.408,0,0,1,.949.727c.136.248.25.507.38.759a1.085,1.085,0,0,0,.6.568.407.407,0,0,0,.49-.126.692.692,0,0,1,1.105-.008c.224.227.462.441.7.657a1.717,1.717,0,0,0,1.666.281,2.32,2.32,0,0,0-.07-.635,6.515,6.515,0,0,0-.463-.808c-.007-.012-.032-.015-.05-.021a16.452,16.452,0,0,0-2.5-.759c-.788-.116-1.413-.622-2.187-.713-.107-.012-.2-.119-.3-.177a1.335,1.335,0,0,0-.263-.128,15.542,15.542,0,0,1-1.891-1.064c-.006-.006-.012-.014-.019-.019-.159-.114-.326-.219-.477-.343s-.314-.284-.468-.43c-.053-.05-.091-.114-.146-.161-.335-.278-.684-.54-1-.833a.361.361,0,0,0-.46-.084c-.19.1-.441.1-.468.421a.994.994,0,0,1-.518.825q-.364.2-.741.371a2.136,2.136,0,0,1-.461.167.8.8,0,0,1-.955-.68,1.013,1.013,0,0,1,.473-.932c.149-.119.374-.176.469-.322.322-.5.764-.447,1.236-.344a.336.336,0,0,0,.2.006c.227-.113.446-.242.689-.377-.063-.127-.132-.264-.2-.4a.967.967,0,0,0-1.067-.594,5.384,5.384,0,0,0-.9.2,1.065,1.065,0,0,1-.969-.107.437.437,0,0,1-.217-.492c.064-.251-.076-.365-.286-.343a2.5,2.5,0,0,0-.7.19,2.356,2.356,0,0,1-2.256-.124.615.615,0,0,1-.313-.623.555.555,0,0,1,.357-.475,1.4,1.4,0,0,0,.274-.248c-.116-.116-.214-.287-.352-.335a1.706,1.706,0,0,0-.541,0,5.087,5.087,0,0,1-.818,0,2.117,2.117,0,0,1-1.388-1.063Zm7.174-.666-.1,0a3.982,3.982,0,0,0,.084.609c.02.069.164.1.251.153l.038-.063Zm51.208.745c.395-.067.49-.354.291-.766Z" transform="translate(533.259 6602.31)"/><path class="a" d="M142.408,166.917a5.476,5.476,0,0,1-.124-1.243v-1.408a5.177,5.177,0,0,0-.455-2.277,2.685,2.685,0,0,0-1.573-1.242,3.185,3.185,0,0,0,1.573-1.366,4.06,4.06,0,0,0,.538-2.153,4.373,4.373,0,0,0-.994-3.106,3.86,3.86,0,0,0-2.94-1.035h-4.1v15.032h1.2v-6.833h3.148a2.081,2.081,0,0,1,1.781.787,3.46,3.46,0,0,1,.621,2.195v1.366a7.584,7.584,0,0,0,.083,1.409,1.826,1.826,0,0,0,.414,1.035h1.242v-.248A2.056,2.056,0,0,1,142.408,166.917Zm-4.141-6.709h-2.734v-6.046h2.858a2.515,2.515,0,0,1,2.07.787,3.4,3.4,0,0,1,.663,2.277,3.164,3.164,0,0,1-.663,2.195A2.679,2.679,0,0,1,138.268,160.208Z" transform="translate(501.778 6602.338)"/><path class="a" d="M153.6,163.052H149.05v4.679h5.259v1.077h-6.46v-12.05h6.46v1.077H149.05v4.141H153.6Z" transform="translate(499.236 6601.647)"/><path class="a" d="M165.044,157.793a3.022,3.022,0,0,0-2.484-1.035h-3.644v12.05h1.2v-4.514h2.4a3.108,3.108,0,0,0,2.526-1.035,4.729,4.729,0,0,0,0-5.466Zm-.87,4.679a1.9,1.9,0,0,1-1.615.745h-2.443v-5.383h2.443a1.737,1.737,0,0,1,1.615.787,3.266,3.266,0,0,1,.538,1.946A3.136,3.136,0,0,1,164.175,162.472Z" transform="translate(497.154 6601.647)"/><path class="a" d="M178.259,156.758v7.95a4.391,4.391,0,0,1-1.077,3.148,4.211,4.211,0,0,1-5.715,0,4.392,4.392,0,0,1-1.077-3.148v-7.95h1.2v7.95a3.51,3.51,0,0,0,.745,2.361,2.455,2.455,0,0,0,1.988.828,2.59,2.59,0,0,0,1.988-.828,3.365,3.365,0,0,0,.745-2.361v-7.95Z" transform="translate(494.996 6601.647)"/><path class="a" d="M189.672,163.632a2.068,2.068,0,0,0-1.366-.994V162.6a2.464,2.464,0,0,0,1.159-.994,3.178,3.178,0,0,0,.414-1.656,2.977,2.977,0,0,0-.911-2.4,3.852,3.852,0,0,0-2.609-.787h-3.064v12.05h3.561a3.416,3.416,0,0,0,2.443-.828,3.237,3.237,0,0,0,.87-2.485A3.288,3.288,0,0,0,189.672,163.632Zm-5.135-5.714H186.4a2.565,2.565,0,0,1,1.739.5,1.96,1.96,0,0,1,.538,1.573,2.232,2.232,0,0,1-.58,1.656,2.369,2.369,0,0,1-1.739.538h-1.822Zm3.934,9.276a2.06,2.06,0,0,1-1.532.58h-2.4v-4.556h2.4a1.937,1.937,0,0,1,1.532.621,2.882,2.882,0,0,1,0,3.355Z" transform="translate(492.569 6601.647)"/><path class="a" d="M196.073,167.732h4.514v1.077h-5.714v-12.05h1.2Z" transform="translate(490.392 6601.647)"/><rect class="a" width="1.201" height="12.05" transform="translate(693.131 6758.406)"/><path class="a" d="M216.75,164.836a4.824,4.824,0,0,1-1.035,3.065,3.521,3.521,0,0,1-2.65,1.035,3.235,3.235,0,0,1-2.734-1.408,6.123,6.123,0,0,1-1.077-3.728v-2.112a6.121,6.121,0,0,1,1.077-3.727,3.235,3.235,0,0,1,2.734-1.408,3.374,3.374,0,0,1,2.65,1.035,4.6,4.6,0,0,1,1.035,3.064h-1.242a4.022,4.022,0,0,0-.663-2.277,2.169,2.169,0,0,0-1.781-.745,2.1,2.1,0,0,0-1.864,1.118,5.614,5.614,0,0,0-.7,2.94v2.153a5.619,5.619,0,0,0,.7,2.941,2.143,2.143,0,0,0,1.864,1.118,2.275,2.275,0,0,0,1.781-.7,3.685,3.685,0,0,0,.663-2.32h1.242Z" transform="translate(487.687 6601.686)"/><path class="a" d="M233.325,157.911a3.645,3.645,0,0,0-5.756,0,6.165,6.165,0,0,0-1.077,3.768v2.112a6,6,0,0,0,1.077,3.769,3.5,3.5,0,0,0,2.9,1.366,3.42,3.42,0,0,0,2.857-1.366,6.17,6.17,0,0,0,1.077-3.769v-2.112A6,6,0,0,0,233.325,157.911Zm-.166,5.921a5.432,5.432,0,0,1-.7,3.024,2.506,2.506,0,0,1-4.058,0,5.191,5.191,0,0,1-.7-3.024v-2.153a5.526,5.526,0,0,1,.7-3.023,2.274,2.274,0,0,1,2.029-1.035,2.321,2.321,0,0,1,2.029,1.035,5.187,5.187,0,0,1,.7,3.023Z" transform="translate(484.444 6601.695)"/><path class="a" d="M245.2,163.3h-4.555v5.507h-1.2v-12.05h6.46v1.077h-5.259v4.348H245.2Z" transform="translate(482.008 6601.647)"/><path class="a" d="M262.517,160.82h-5.549v6.211h6.377v1.077h-7.578V153.035H263.3v1.118h-6.336v5.59h5.549Z" transform="translate(478.938 6602.348)"/><path class="a" d="M273.25,165.747a1.754,1.754,0,0,0-.538-1.408,5.98,5.98,0,0,0-2.029-1.035,6.933,6.933,0,0,1-2.567-1.325,2.889,2.889,0,0,1-.787-2.236,2.947,2.947,0,0,1,.952-2.36,3.621,3.621,0,0,1,2.567-.828,3.537,3.537,0,0,1,2.609.952,3.7,3.7,0,0,1,.911,2.733h-1.2a2.863,2.863,0,0,0-.58-1.863,2.153,2.153,0,0,0-1.7-.7,2.376,2.376,0,0,0-1.739.58,2.2,2.2,0,0,0-.58,1.532,1.883,1.883,0,0,0,.5,1.408,5.177,5.177,0,0,0,2.07,1.035,7.294,7.294,0,0,1,2.567,1.325,3.372,3.372,0,0,1-.207,4.556,4.787,4.787,0,0,1-5.383,0,3.418,3.418,0,0,1-1.077-2.817h1.2a2.573,2.573,0,0,0,.7,1.988,2.663,2.663,0,0,0,1.781.622,2.863,2.863,0,0,0,1.863-.58A2.1,2.1,0,0,0,273.25,165.747Z" transform="translate(476.818 6601.686)"/><path class="a" d="M285.557,157.835h-3.064v10.973h-1.2V157.835H278.31v-1.077h7.247Z" transform="translate(474.698 6601.647)"/><path class="a" d="M297.5,163.791v-2.112a5.753,5.753,0,0,0-1.077-3.768,3.35,3.35,0,0,0-2.857-1.408,3.456,3.456,0,0,0-2.857,1.408,6.165,6.165,0,0,0-1.077,3.768v2.112a6,6,0,0,0,1.077,3.769,3.5,3.5,0,0,0,2.9,1.366,3.42,3.42,0,0,0,2.857-1.366,6.169,6.169,0,0,0,1.077-3.769Zm-1.159.041a5.432,5.432,0,0,1-.7,3.024,2.274,2.274,0,0,1-2.029,1.035,2.321,2.321,0,0,1-2.029-1.035,5.191,5.191,0,0,1-.7-3.024v-2.153a5.525,5.525,0,0,1,.7-3.023,2.274,2.274,0,0,1,2.029-1.035,2.321,2.321,0,0,1,2.029,1.035,5.526,5.526,0,0,1,.7,3.023Z" transform="translate(472.569 6601.695)"/><path class="a" d="M310.372,168.808h-1.2l-5.342-9.731h-.041v9.731h-1.2v-12.05h1.2l5.342,9.731h.041v-9.731h1.2Z" transform="translate(470.132 6601.647)"/><rect class="a" width="1.201" height="12.05" transform="translate(783.444 6758.406)"/><path class="a" d="M324.744,156.758h-1.16l-3.81,12.05h1.284l.952-3.106h4.307l.994,3.106h1.242Zm-2.4,7.867,1.823-6,1.822,6Z" transform="translate(466.9 6601.647)"/><g transform="translate(635.346 6778.437)"><path class="a" d="M141.955,191.58h-2.616v-2.258h5.031v7.133a7.942,7.942,0,0,1-5.009,1.744,5.131,5.131,0,0,1-4.461-2.113q-1.509-2.113-1.509-6.227a10.959,10.959,0,0,1,1.5-6.284,5.007,5.007,0,0,1,4.383-2.146,4.709,4.709,0,0,1,3.355,1.174,6.217,6.217,0,0,1,1.677,3.544l-2.5.357a4.6,4.6,0,0,0-.928-2.146,2.178,2.178,0,0,0-1.689-.671,2.523,2.523,0,0,0-2.393,1.465,10.608,10.608,0,0,0-.76,4.64,9.859,9.859,0,0,0,.839,4.673,2.828,2.828,0,0,0,2.649,1.476,4.689,4.689,0,0,0,2.437-.649Z" transform="translate(-133.391 -181.429)"/><path class="a" d="M153.748,199.17a3.758,3.758,0,0,1-3.265-1.565,9.829,9.829,0,0,1,.045-9.19,3.9,3.9,0,0,1,3.355-1.587,3.757,3.757,0,0,1,3.264,1.565,9.832,9.832,0,0,1-.044,9.19A3.9,3.9,0,0,1,153.748,199.17Zm.045-1.878a1.594,1.594,0,0,0,1.543-1.007,11.913,11.913,0,0,0,.011-6.585,1.558,1.558,0,0,0-1.509-1,1.592,1.592,0,0,0-1.543,1.007,11.922,11.922,0,0,0-.011,6.585A1.557,1.557,0,0,0,153.792,197.292Z" transform="translate(-136.395 -182.444)"/><path class="a" d="M164.479,198.9l-3.354-11.628h2.459l2.192,9.28,2.213-9.28h2.348L166.984,198.9Z" transform="translate(-138.607 -182.527)"/><path class="a" d="M181.656,195.436a4.4,4.4,0,0,1-1.242,2.784,3.916,3.916,0,0,1-2.783.95,3.778,3.778,0,0,1-3.276-1.5,7.8,7.8,0,0,1-1.084-4.561,8,8,0,0,1,1.15-4.651,3.772,3.772,0,0,1,3.277-1.632,3.436,3.436,0,0,1,3.007,1.453,7.392,7.392,0,0,1,1.017,4.249v1.051H175.64a5.914,5.914,0,0,0,.548,2.784,1.672,1.672,0,0,0,1.51,1.017,1.456,1.456,0,0,0,1.173-.459,2.871,2.871,0,0,0,.525-1.487Zm-2.214-3.443a5.731,5.731,0,0,0-.447-2.571,1.453,1.453,0,0,0-1.364-.85,1.5,1.5,0,0,0-1.4.816,6.207,6.207,0,0,0-.548,2.605Z" transform="translate(-140.892 -182.444)"/><path class="a" d="M186.159,198.849V187.221h2.325v1.543a4,4,0,0,1,1.129-1.3,2.311,2.311,0,0,1,1.353-.447,2.423,2.423,0,0,1,.761.111l-.291,2.169a3.628,3.628,0,0,0-.827-.09,1.841,1.841,0,0,0-.983.291,2.417,2.417,0,0,0-.783.794,2.013,2.013,0,0,0-.313,1.085v7.469Z" transform="translate(-143.316 -182.481)"/><path class="a" d="M200.86,198.813V190.4q0-1.632-1.409-1.632a2.155,2.155,0,0,0-1.531.626,1.945,1.945,0,0,0-.659,1.453v7.961H194.89V187.184h2.325v1.342a4.08,4.08,0,0,1,1.353-1.252,3.383,3.383,0,0,1,1.689-.447,2.774,2.774,0,0,1,2.169.894,3.478,3.478,0,0,1,.805,2.415v8.676Z" transform="translate(-144.958 -182.444)"/><path class="a" d="M219.235,198.813v-8.632a1.641,1.641,0,0,0-.291-1.051,1.032,1.032,0,0,0-.849-.357,1.749,1.749,0,0,0-1.331.626,2.089,2.089,0,0,0-.57,1.453v7.961h-2.371v-8.632a1.636,1.636,0,0,0-.291-1.051,1.032,1.032,0,0,0-.849-.357,1.749,1.749,0,0,0-1.331.626,2.089,2.089,0,0,0-.57,1.453v7.961h-2.371V187.184h2.325v1.342a3.715,3.715,0,0,1,1.219-1.252,2.873,2.873,0,0,1,1.532-.447,2.388,2.388,0,0,1,1.5.447,2.95,2.95,0,0,1,.917,1.409,4.29,4.29,0,0,1,1.353-1.364,3.076,3.076,0,0,1,1.643-.492,2.455,2.455,0,0,1,1.979.861,3.51,3.51,0,0,1,.726,2.337v8.788Z" transform="translate(-147.501 -182.444)"/><path class="a" d="M235.69,195.436a4.4,4.4,0,0,1-1.241,2.784,3.918,3.918,0,0,1-2.784.95,3.775,3.775,0,0,1-3.275-1.5,7.794,7.794,0,0,1-1.085-4.561,8,8,0,0,1,1.151-4.651,3.77,3.77,0,0,1,3.276-1.632,3.435,3.435,0,0,1,3.007,1.453,7.392,7.392,0,0,1,1.017,4.249v1.051h-6.082a5.915,5.915,0,0,0,.547,2.784,1.673,1.673,0,0,0,1.51,1.017,1.456,1.456,0,0,0,1.173-.459,2.877,2.877,0,0,0,.526-1.487Zm-2.214-3.443a5.72,5.72,0,0,0-.447-2.571,1.453,1.453,0,0,0-1.364-.85,1.5,1.5,0,0,0-1.4.816,6.219,6.219,0,0,0-.548,2.605Z" transform="translate(-151.055 -182.444)"/><path class="a" d="M246.164,198.813V190.4q0-1.632-1.409-1.632a2.155,2.155,0,0,0-1.531.626,1.946,1.946,0,0,0-.66,1.453v7.961h-2.371V187.184h2.326v1.342a4.072,4.072,0,0,1,1.353-1.252,3.381,3.381,0,0,1,1.689-.447,2.775,2.775,0,0,1,2.169.894,3.478,3.478,0,0,1,.805,2.415v8.676Z" transform="translate(-153.479 -182.444)"/><path class="a" d="M258.606,198.014a5.947,5.947,0,0,1-2.035.4,2.529,2.529,0,0,1-2.035-.838,3.562,3.562,0,0,1-.715-2.381v-6.82h-1.454v-1.834h1.454v-3.13h2.37v3.13h2.147v1.834H256.19v6.842a1.474,1.474,0,0,0,.268.939.919.919,0,0,0,.761.335,3.1,3.1,0,0,0,1.051-.2Z" transform="translate(-155.768 -181.802)"/></g><g transform="translate(571.918 6744.098)"><path class="a" d="M58.637,176.886a.256.256,0,0,1,.038.113.259.259,0,0,1-.038.113l-.094.188a.643.643,0,0,0-.113.283c-.434-.4-.509-.83-.227-1.15l.076-.094a.161.161,0,0,0,.057-.113.121.121,0,0,0,0-.113l-.151-.528a.121.121,0,0,1,0,.113c-.019.037-.019.076-.057.113l-.264.321c-.528.6-.339,1.3.4,2.017a.717.717,0,0,0,.49.773,1.644,1.644,0,0,1,.15-1.263l.019-.056a.242.242,0,0,0,.019-.113.263.263,0,0,0-.038-.114Z" transform="translate(-44.701 -145.991)"/><path class="a" d="M61.826,160.691c.019.509-.208.66-.434.66a.76.76,0,0,1-.359-.094c-.17-.076-.037-.227,0-.264a.5.5,0,0,0,.151-.415.041.041,0,0,0-.037-.038h-.6c-.019,0-.038,0-.038.038a.5.5,0,0,0,.151.415c.037.037.151.17-.019.264a.515.515,0,0,1-.339.094c-.245,0-.472-.132-.452-.66-.905-.076-.867-.7-.83-1.15a.923.923,0,0,0,.472,1.508.12.12,0,0,1,.094.114.5.5,0,0,0,.358.508,3.181,3.181,0,0,0,.132.848c-.245.49-.056.848.132.924s.434-.019.641-.019.452.094.641.019.377-.415.132-.924a3.068,3.068,0,0,0,.132-.848.53.53,0,0,0,.358-.508c0-.076.037-.095.094-.114a.917.917,0,0,0,.452-1.508C62.693,159.975,62.73,160.615,61.826,160.691Zm-1.32,1.206c.038-.094.076-.151.094-.207.038-.038.038-.076.076-.076.019,0,.038.019.057.019h.188a.07.07,0,0,0,.057-.019c.037,0,.056.037.076.076.019.056.056.113.094.207l.207-.245a4.245,4.245,0,0,1-.057.679,1.288,1.288,0,0,0-.471-.037,2,2,0,0,0-.471.037,4.074,4.074,0,0,1-.057-.679Zm.321,1.225c-.227,0-.528.151-.566-.17-.019-.264.283-.358.566-.358s.585.094.566.358C61.373,163.292,61.072,163.141,60.826,163.122Z" transform="translate(-44.929 -142.974)"/><path class="a" d="M59.686,172.87h.17a.247.247,0,0,0-.057.188.3.3,0,1,0,.6,0,.338.338,0,0,0-.076-.188h.188a.155.155,0,0,1,.151.094.627.627,0,0,0,0-.264.179.179,0,0,0-.17-.151h-.81a.464.464,0,0,1-.359-.17C59.327,172.607,59.5,172.87,59.686,172.87Z" transform="translate(-45.032 -145.389)"/><path class="a" d="M61.982,171.184l.32.415a.434.434,0,0,0,.321.151H62.9c-.075,0-.094-.057-.188-.151l-.339-.434a.273.273,0,0,0-.244-.132h-.321A.431.431,0,0,1,61.982,171.184Z" transform="translate(-45.5 -145.135)"/><path class="a" d="M59.706,171.208l.321.415a.4.4,0,0,0,.321.15h.283c-.094-.019-.113-.076-.188-.17l-.339-.434a.332.332,0,0,0-.245-.113h-.321A.422.422,0,0,1,59.706,171.208Z" transform="translate(-45.072 -145.14)"/><path class="a" d="M60.856,171.153l.32.49a.3.3,0,0,0,.283.17h.378a.488.488,0,0,1-.208-.188l-.414-.585a.382.382,0,0,0-.339-.17h-.339A.512.512,0,0,1,60.856,171.153Z" transform="translate(-45.26 -145.104)"/><path class="a" d="M58.637,163.735a.187.187,0,0,1,0,.227l-.094.188a.721.721,0,0,0-.113.245c-.434-.4-.509-.83-.227-1.15l.076-.094a.161.161,0,0,0,.057-.113.121.121,0,0,0,0-.113l-.151-.528a.121.121,0,0,1,0,.113c-.019.037-.019.076-.057.113l-.264.321c-.528.6-.339,1.319.4,2.017a.725.725,0,0,0,.49.792,1.642,1.642,0,0,1,.15-1.263l.019-.057a.24.24,0,0,0,.019-.113.256.256,0,0,0-.038-.113Z" transform="translate(-44.701 -143.511)"/><path class="a" d="M61.982,158.043l.32.415a.434.434,0,0,0,.321.151H62.9c-.075,0-.094-.076-.188-.151l-.339-.434a.274.274,0,0,0-.244-.132h-.321A.657.657,0,0,1,61.982,158.043Z" transform="translate(-45.5 -142.664)"/><path class="a" d="M62.989,159.239a.393.393,0,0,1-.358.17h-.792c-.075,0-.132.057-.17.151a.621.621,0,0,0,0,.264.156.156,0,0,1,.151-.094h.188a.219.219,0,0,0-.075.188.3.3,0,0,0,.6,0,.335.335,0,0,0-.076-.188h.17C62.819,159.729,62.989,159.466,62.989,159.239Z" transform="translate(-45.47 -142.917)"/><path class="a" d="M59.706,158.065l.321.415a.4.4,0,0,0,.321.151h.283c-.094-.019-.113-.076-.188-.17l-.339-.434a.278.278,0,0,0-.245-.114h-.321A.659.659,0,0,1,59.706,158.065Z" transform="translate(-45.072 -142.667)"/><path class="a" d="M59.686,159.729h.17a.226.226,0,0,0-.057.188.3.3,0,0,0,.6,0,.335.335,0,0,0-.076-.188h.188a.155.155,0,0,1,.151.094.627.627,0,0,0,0-.264.179.179,0,0,0-.17-.151h-.81a.467.467,0,0,1-.359-.17C59.327,159.484,59.5,159.729,59.686,159.729Z" transform="translate(-45.032 -142.917)"/><path class="a" d="M60.856,158.012l.32.49a.3.3,0,0,0,.283.17h.378a.491.491,0,0,1-.208-.189l-.414-.584a.345.345,0,0,0-.339-.17h-.339A.509.509,0,0,1,60.856,158.012Z" transform="translate(-45.26 -142.633)"/><path class="a" d="M61.826,173.832c.019.528-.208.659-.434.659a.76.76,0,0,1-.359-.094c-.17-.094-.037-.227,0-.264a.5.5,0,0,0,.151-.415.04.04,0,0,0-.037-.037h-.6c-.019,0-.038,0-.038.037a.5.5,0,0,0,.151.415c.037.037.151.17-.019.264a.51.51,0,0,1-.339.094c-.245,0-.472-.132-.452-.659-.905-.076-.867-.7-.83-1.15a.924.924,0,0,0,.472,1.509.119.119,0,0,1,.094.113.488.488,0,0,0,.358.509,3.186,3.186,0,0,0,.132.848c-.245.49-.056.848.132.923s.434-.019.641-.019.452.094.641.019.377-.414.132-.923a3.072,3.072,0,0,0,.132-.848.531.531,0,0,0,.358-.509c0-.076.037-.094.094-.113a.918.918,0,0,0,.452-1.509C62.693,173.116,62.73,173.757,61.826,173.832Zm-1.32,1.207c.038-.1.076-.151.094-.208.038-.037.038-.076.076-.076.019,0,.038.019.057.019h.188c.019,0,.038-.019.057-.019.037,0,.056.038.076.076.019.057.056.113.094.208l.207-.245a4.253,4.253,0,0,1-.057.679,3.461,3.461,0,0,0-.471-.057,1.981,1.981,0,0,0-.471.057,4.081,4.081,0,0,1-.057-.679Zm.321,1.244c-.227,0-.528.151-.566-.17-.019-.264.283-.358.566-.358s.585.094.566.358C61.373,176.434,61.072,176.283,60.826,176.283Z" transform="translate(-44.929 -145.445)"/><path class="a" d="M62.989,172.4a.5.5,0,0,1-.358.17h-.792c-.075,0-.132.056-.17.15a.622.622,0,0,0,0,.264.156.156,0,0,1,.151-.094h.188a.221.221,0,0,0-.075.188.3.3,0,1,0,.6,0,.34.34,0,0,0-.076-.188h.17C62.819,172.894,62.989,172.63,62.989,172.4Z" transform="translate(-45.47 -145.393)"/><path class="a" d="M58.637,150.607a.256.256,0,0,1,.038.113.259.259,0,0,1-.038.113l-.094.188a.636.636,0,0,0-.113.3c-.434-.4-.509-.83-.227-1.15l.076-.094a.163.163,0,0,0,.057-.114.121.121,0,0,0,0-.113l-.151-.528a.121.121,0,0,1,0,.113.238.238,0,0,1-.057.094l-.264.321c-.528.6-.339,1.319.4,2.017a.716.716,0,0,0,.49.773,1.642,1.642,0,0,1,.15-1.263l.019-.057a.242.242,0,0,0,.019-.113.263.263,0,0,0-.038-.114Z" transform="translate(-44.701 -141.052)"/><path class="a" d="M80.692,146.645a8.311,8.311,0,0,0-2.1-2.292,10.556,10.556,0,0,1-2.716-3.09c-.114-.207-.223-.417-.314-.586-.694.092-1.359.234-2.029.257a12.018,12.018,0,0,1-4.168-.828c-.787-.26-1.578-.512-2.38-.721-.491-.127-1.005-.168-1.509-.248H64.216c-.247.054-.5.1-.74.165a6.106,6.106,0,0,0-1.884.846.339.339,0,0,1-.3.02,5.721,5.721,0,0,0-2.6-1,.246.246,0,0,1-.071-.036H57.358c-.07.017-.139.036-.209.049-.762.143-1.536.238-2.281.439-.87.235-1.707.592-2.574.845a8.5,8.5,0,0,1-3.646.421c-.45-.066-.895-.162-1.353-.245-.019.034-.045.071-.065.112a9.735,9.735,0,0,1-2.4,3.1c-.517.45-1.05.883-1.548,1.353a5.1,5.1,0,0,0-1.479,2.27,1.7,1.7,0,0,0,1.081,2.161,1.161,1.161,0,0,0,1.336-.362,1.537,1.537,0,0,0,.329-1,4.689,4.689,0,0,1,.906.814,8.692,8.692,0,0,1,1.812,4.63,20.437,20.437,0,0,1-.39,5.589,11.252,11.252,0,0,1-3.883,6.983.589.589,0,0,0-.172.294c-.127.458-.246.917-.349,1.381a1.06,1.06,0,0,0-.006.455,18.814,18.814,0,0,0,1.181,3.5,12.694,12.694,0,0,0,3.175,4.45,10.882,10.882,0,0,0,4.725,2.32c1.259.3,2.523.59,3.789.87a12.211,12.211,0,0,1,5.986,3.142.717.717,0,0,0,.118.074l.27-.247a10.922,10.922,0,0,1,3.951-2.4q1.22-.4,2.47-.719c1.247-.314,2.511-.565,3.756-.887a10.372,10.372,0,0,0,6.469-4.983,18.777,18.777,0,0,0,1.935-4.725,1.986,1.986,0,0,0,0-1.2c-.111-.328-.168-.673-.27-1a.865.865,0,0,0-.2-.337c-.522-.536-1.1-1.024-1.571-1.6a11.084,11.084,0,0,1-1.894-3.913,18.727,18.727,0,0,1-.715-7.5,8.206,8.206,0,0,1,1.863-4.29,6.229,6.229,0,0,1,.779-.7.293.293,0,0,1,.055.186,1.177,1.177,0,0,0,1.19,1.263,1.689,1.689,0,0,0,1.533-1.209A2.373,2.373,0,0,0,80.692,146.645Zm-18-2.856a4.589,4.589,0,0,1,1.055.151,3.249,3.249,0,0,0,.886.113,3.485,3.485,0,0,0,.792-.094,2.992,2.992,0,0,1-1.866,1.018v-.038a.527.527,0,0,0-.528-.528.663.663,0,0,0-.208.038h.038a.459.459,0,0,1,.452.452.465.465,0,0,1-.339.434,1.351,1.351,0,0,1-.4.056h-.17a.33.33,0,0,0,.076-.188.274.274,0,0,0-.264-.283.282.282,0,0,0-.264.227.324.324,0,0,0,0,.188c.076.32.452.509.961.509,1.791,0,3.771-1.131,5.957-1.49a.652.652,0,0,0,.019.189,5.333,5.333,0,0,0-1.414,1c-1.659.339-3.6,1.319-5.26,1a1.475,1.475,0,0,1-1.263-1.358A1.589,1.589,0,0,1,62.69,143.789Zm5.523,26.391a.865.865,0,0,0-.66.887l.076.339a.122.122,0,0,1,0,.114.25.25,0,0,1-.057.094l-.434.452a.415.415,0,0,0,.057-.094c0-.037.019-.076,0-.113l-.151-.717a.121.121,0,0,1,0-.113c0-.037.019-.057.057-.094l-.4.4a.427.427,0,0,0-.057.094c0,.037-.019.076,0,.113l.151.716a.122.122,0,0,1,0,.114.1.1,0,0,1-.056.094l-.434.452a.416.416,0,0,0,.056-.094c0-.038.019-.076,0-.114l-.151-.716a.121.121,0,0,1,0-.113c0-.038.019-.057.057-.094l-.4.4a.4.4,0,0,0-.057.094v.114l.151.716a.121.121,0,0,1,0,.113c0,.038-.019.057-.057.094l-.49.509a.155.155,0,0,0,.057-.094c0-.037.019-.076,0-.113l-.113-.585a1.8,1.8,0,0,1-.585.49.877.877,0,0,1-.867.773c-.057,0-.094-.019-.151-.019a.378.378,0,0,0,.076-.245.442.442,0,0,0-.321-.415.958.958,0,0,1,.038.227.681.681,0,0,1-.679.7.474.474,0,0,1-.227-.038.55.55,0,0,0-.17-.037.5.5,0,0,0-.49.377,1.219,1.219,0,0,1-.076-.4.969.969,0,0,1,.585-.867.9.9,0,0,0-.792.716,1.332,1.332,0,0,0-.679.415.467.467,0,0,1-.094-.283.527.527,0,0,1,.359-.49,1.086,1.086,0,0,1,.716-.66h-.094a.854.854,0,0,0-.83.622,1.565,1.565,0,0,0-.641.378.431.431,0,0,1-.076-.264c0-.264.207-.472.377-.453a1.072,1.072,0,0,1,1.037-.943,1.484,1.484,0,0,1,.283.038l.716.207a.972.972,0,0,0,1.112-.622.774.774,0,0,0,.414-.339,1.581,1.581,0,0,1-.358.132,1.431,1.431,0,0,1-.565,0c.339-.264.283-.961.9-1.49a2.973,2.973,0,0,1,1.527-.546c.754-.113.735-.339.66-.565a1.3,1.3,0,0,1,.735-.208c.585,0,1.055.321,1.055.716A.524.524,0,0,1,68.213,170.18Zm5.561,2.262a2.013,2.013,0,0,0-.3-.283h-.056a2.708,2.708,0,0,1,.056,1.15.512.512,0,0,1,.208.434.572.572,0,0,1-.4.547,1.538,1.538,0,0,1-.546.076.544.544,0,0,0-.528.434.468.468,0,0,1-.17-.358V174.4a.532.532,0,0,1,.226-.961h-.094a.666.666,0,0,0-.641.886.832.832,0,0,0-.471.038.962.962,0,0,0-.529.434.4.4,0,0,1-.132-.283.327.327,0,0,1,.076-.226V174.2a.872.872,0,0,1,.754-.848c-.057,0-.132-.019-.189-.019a.786.786,0,0,0-.773.753,1.365,1.365,0,0,0-.546.378.431.431,0,0,1-.076-.264.532.532,0,0,1,.245-.453v-.113a.861.861,0,0,1,.848-.867,3.032,3.032,0,0,0,.829.019.421.421,0,0,0,.189-.509.563.563,0,0,0-.057-.188c-.207.019-.434.038-.622.038a.929.929,0,0,1-.773.4H70.23a.24.24,0,0,0,.019-.113.441.441,0,0,0-.321-.415c-1.15-.32-1.583-1.112-1.281-1.961a1.1,1.1,0,0,0,.037-.244c0-.509-.546-.924-1.225-.924-1.395,0-3.525,1.828-5.844,2.526a.267.267,0,0,0-.188.264.291.291,0,0,0,.283.283.234.234,0,0,0,.114-.02l-.6.264a.234.234,0,0,1-.114.02.271.271,0,0,1-.113-.038l-.848-.528a.853.853,0,0,0-.037-.434c.622-.585.943-1.358.415-1.961l-.264-.32c-.038-.038-.038-.076-.057-.114a.121.121,0,0,1,0-.113l-.151.528a.121.121,0,0,0,0,.113.423.423,0,0,1,.057.1l.076.094c.264.32.17.7-.264,1.093-.057-.113-.076-.17-.132-.264l-.094-.188a.24.24,0,0,1-.019-.113.272.272,0,0,1,.037-.114l-.264.49a.272.272,0,0,0-.037.113.243.243,0,0,0,.019.114l.019.056a1.581,1.581,0,0,1,.132,1.206l.773.49a.265.265,0,0,0,.113.037.24.24,0,0,0,.113-.019l-.716.3a.24.24,0,0,1-.113.019.262.262,0,0,1-.114-.038l-.716-.452c.245-.283-.037-.773-.076-1.055v-.076a.24.24,0,0,1,.019-.113.387.387,0,0,0,.057-.094l-.4.415a.185.185,0,0,0-.075.094.231.231,0,0,0-.019.113l.019.094a.7.7,0,0,1-.151.83l.792.49a.259.259,0,0,0,.113.038.244.244,0,0,0,.114-.019l-.679.3a.243.243,0,0,1-.114.019.273.273,0,0,1-.113-.037l-.377-.227a.31.31,0,0,1-.076-.094.27.27,0,0,1-.038-.113v-1.112h-.377v1l-.264-.169a.294.294,0,0,1-.113-.076c-.378-.321-.17-.66-.151-.83l.019-.094a.24.24,0,0,0-.019-.113.182.182,0,0,0-.076-.094l-.4-.415a.4.4,0,0,1,.056.094.24.24,0,0,1,.019.113l-.019.076a5.706,5.706,0,0,0-.17.754.932.932,0,0,0,.453.9l-.472.7a.32.32,0,0,1-.094.076.27.27,0,0,1-.113.038h-.773a.27.27,0,0,0,.113-.038.186.186,0,0,0,.094-.076l.415-.622.057-.057c.019-.019.037-.019.075-.019h-.508a.113.113,0,0,0-.076.019l-.057.057-.415.622a.31.31,0,0,1-.094.076.27.27,0,0,1-.113.038h-.641a.394.394,0,0,0,.076-.208.311.311,0,1,0-.622,0v.019a.376.376,0,0,1,.151.227.626.626,0,0,1-.452.641.776.776,0,0,1-.623.415.774.774,0,0,0,.094-.358.493.493,0,0,1-.414-.339c-.076-.245.132-.509.434-.641h-.076a.587.587,0,0,0-.585.585.647.647,0,0,0,.094.339.888.888,0,0,1-.226.019,1.052,1.052,0,0,1-.339-.057.836.836,0,0,0-.679.452.428.428,0,0,1-.114-.3.471.471,0,0,1,.3-.452.327.327,0,0,1-.019-.132.748.748,0,0,1,.584-.735h-.094a.756.756,0,0,0-.753.753v.114a.512.512,0,0,0-.132.15,1.468,1.468,0,0,1-.3-.132.443.443,0,0,0-.434.358.467.467,0,0,1,.15-.754.888.888,0,0,1,.623-.98.988.988,0,0,1,.735,0,.773.773,0,0,0-.528-.208.694.694,0,0,0-.283.057.719.719,0,0,1,.509-.358,1.278,1.278,0,0,1,.678.076,1.239,1.239,0,0,0,1.207-.094c.623-.378,1.188-.736,1.734-1.037l-.565.132a.121.121,0,0,1-.113,0c-.038,0-.057-.019-.094-.056l-.509-.49a.426.426,0,0,0,.094.057c.037,0,.076.019.113,0l.452-.095a.122.122,0,0,1,.114,0c.037.019.056.038.094.057l-.378-.358c-.019-.037-.056-.037-.094-.057-.037,0-.076-.019-.113,0l-.472.094a.116.116,0,0,1-.113,0c-.037,0-.056-.019-.094-.056l-.509-.49a.415.415,0,0,0,.094.057H53l.452-.094a.116.116,0,0,1,.113,0,.246.246,0,0,1,.094.056l-.4-.358a.436.436,0,0,0-.094-.056h-.114l-.452.094a.121.121,0,0,1-.113,0c-.019-.019-.057-.019-.094-.057l-.566-.528a.446.446,0,0,0,.094.057c.038,0,.076.019.113,0l.245-.057a.306.306,0,0,0,.245-.3.33.33,0,0,0-.321-.32.322.322,0,0,0-.188.056.772.772,0,0,1-.415.132.724.724,0,0,1-.678-.452.456.456,0,0,1-.434-.453.242.242,0,0,1,.019-.113.4.4,0,0,0,.245.094.208.208,0,0,0,.094-.019v-.038a.337.337,0,0,1,.339-.339.3.3,0,0,1,.226.075.141.141,0,0,0,.094.038.151.151,0,0,0,0-.3h-.056a.647.647,0,0,1-.66-.132.777.777,0,0,1,0-1.037.525.525,0,0,0-.434-.227.493.493,0,0,1,.415-.226.5.5,0,0,1,.4.188.673.673,0,0,1,.7.132.561.561,0,0,1,.189.359.243.243,0,0,0,.019-.114.587.587,0,0,0-.585-.585h-.019a.676.676,0,0,1,.207-.264.4.4,0,0,0-.358-.358.516.516,0,0,1,.358-.151.506.506,0,0,1,.49.415.665.665,0,0,1,.452.66.42.42,0,0,1-.019.151.443.443,0,0,0,.151-.339.467.467,0,0,0-.094-.283.51.51,0,0,0,.113-.32.52.52,0,0,0-.094-.3.647.647,0,0,1,.509.622v.076c.4.339.32.83,0,1.3a.549.549,0,0,0-.019.736,4.765,4.765,0,0,0,1.168.98,1.035,1.035,0,0,0-.094,1.075,1.42,1.42,0,0,1,.7-1.094c.132-.094.188-.188.17-.3l-.094-.547a.122.122,0,0,1,0,.114c0,.037-.019.056-.057.094l-.207.188a2.123,2.123,0,0,1,.377-1.527,1.966,1.966,0,0,1-.076-1.188.657.657,0,0,0,.321.509.409.409,0,0,1,.17.6c.227-.094.509-.509.339-.735-.188-.245-.7-.132-.754-.566a1.456,1.456,0,0,1,.773,0,.962.962,0,0,1,.773-.339,1.23,1.23,0,0,1,.98-.283,1.252,1.252,0,0,1,.981.283.962.962,0,0,1,.773.339,1.282,1.282,0,0,1,.773,0c-.057.434-.566.321-.754.566-.17.226.132.622.339.735a.409.409,0,0,1,.17-.6.657.657,0,0,0,.321-.509,1.972,1.972,0,0,1-.076,1.188,2.038,2.038,0,0,1,.377,1.527l-.207-.188a.4.4,0,0,1-.057-.094v-.114l-.094.547c-.019.113.037.207.17.3a1.5,1.5,0,0,1,.7,1.094,1.039,1.039,0,0,0-.094-1.075c-.019-.037-.076-.076-.132-.151a7.106,7.106,0,0,0,1.49.227c2.092.057,4.072-.754,5.278-.924a7.065,7.065,0,0,1,2.959.3c.358.094.867.057.867-.4a.377.377,0,0,0-.754,0,.17.17,0,0,0,.019.094h-.094a.524.524,0,0,1-.226-1h-.076a.467.467,0,0,0-.472.471.313.313,0,0,0,.019.132.323.323,0,0,1-.189.056.338.338,0,0,1-.339-.339.59.59,0,0,1,.359-.49h-.019a.655.655,0,0,0-.659.66v.075a5.63,5.63,0,0,0-1.395.189,4.405,4.405,0,0,1,1.545-1.206,1.114,1.114,0,0,1-.037-.245.91.91,0,0,1,.961-.848,1.024,1.024,0,0,1,.415.094.416.416,0,0,0-.264.4.423.423,0,0,0,.358.414c1.207.189,2.036,1,1.847,1.829a1.8,1.8,0,0,1-1.7,1.225l.434.622a.335.335,0,0,0,.094.076.269.269,0,0,0,.113.037h.641a.24.24,0,0,1,.113.019.194.194,0,0,1,.094.076l.377.547a.31.31,0,0,0-.094-.076.27.27,0,0,0-.113-.038h-.792c-.038.019-.076,0-.113-.019a.187.187,0,0,1-.095-.076l.339.509a.189.189,0,0,0,.094.076.274.274,0,0,0,.114.038h.792a.24.24,0,0,1,.113.019.182.182,0,0,1,.094.076l.378.546a.346.346,0,0,0-.094-.076c-.038,0-.076-.019-.114-.019H72.3a.256.256,0,0,1-.113-.038.185.185,0,0,1-.094-.075l.3.452a.349.349,0,0,0,.094.076c.038,0,.076.019.113.019h.6a.6.6,0,0,1,.6.6A.479.479,0,0,1,73.774,172.442Zm-9.822-11.1a1.431,1.431,0,0,1-.565,0c.339-.264.283-.961.9-1.489a2.81,2.81,0,0,1,1.527-.547c.754-.113.735-.339.66-.565a1.3,1.3,0,0,1,.735-.208c.585,0,1.055.321,1.055.717a.527.527,0,0,1-.056.245.864.864,0,0,0-.66.886l.076.358a.121.121,0,0,1,0,.113.238.238,0,0,1-.057.094l-.434.453a.434.434,0,0,0,.057-.094c0-.038.019-.076,0-.114l-.151-.716a.121.121,0,0,1,0-.113c0-.038.019-.057.057-.094l-.4.4a.447.447,0,0,0-.057.094c0,.038-.019.076,0,.114l.151.716a.121.121,0,0,1,0,.113.172.172,0,0,1-.056.094l-.434.452a.4.4,0,0,0,.056-.094c0-.037.019-.075,0-.113l-.151-.716a.122.122,0,0,1,0-.114c0-.037.019-.056.057-.094l-.4.4a.388.388,0,0,0-.057.094v.113l.151.717a.121.121,0,0,1,0,.113.1.1,0,0,1-.057.094l-.49.509a.158.158,0,0,0,.057-.094c0-.038.019-.076,0-.113l-.113-.585a1.8,1.8,0,0,1-.585.49.877.877,0,0,1-.867.773.42.42,0,0,1-.151-.019.378.378,0,0,0,.076-.245.441.441,0,0,0-.321-.414.945.945,0,0,1,.038.226.68.68,0,0,1-.679.7.957.957,0,0,1-.227-.037.551.551,0,0,0-.17-.038.5.5,0,0,0-.49.378,1.224,1.224,0,0,1-.076-.4.971.971,0,0,1,.585-.867.9.9,0,0,0-.792.716,1.338,1.338,0,0,0-.679.415.466.466,0,0,1-.094-.283.527.527,0,0,1,.359-.49,1.087,1.087,0,0,1,.716-.659h-.094a.972.972,0,0,0-.887.641,1.568,1.568,0,0,0-.641.377.431.431,0,0,1-.076-.264.51.51,0,0,1,.434-.509,1.072,1.072,0,0,1,1.037-.942,1.484,1.484,0,0,1,.283.037l.716.207a.972.972,0,0,0,1.112-.622.682.682,0,0,0,.414-.321A1,1,0,0,1,63.952,161.339Zm-.9,4.392a.688.688,0,0,0-.208.037h.038a.45.45,0,0,1,.113.886,1.323,1.323,0,0,1-.4.057h-.17a.338.338,0,0,0,.076-.188.274.274,0,0,0-.265-.283.265.265,0,0,0-.264.226.324.324,0,0,0,0,.188c.057.321.453.509.981.509,1.79,0,3.77-1.131,5.957-1.489a.583.583,0,0,0,.019.188,5.785,5.785,0,0,0-1.414,1c-1.66.339-3.62,1.338-5.279,1a1.473,1.473,0,0,1-1.263-1.357,1.589,1.589,0,0,1,1.734-1.395,4.654,4.654,0,0,1,1.055.17,3.285,3.285,0,0,0,.886.113,3.539,3.539,0,0,0,.792-.094,3.074,3.074,0,0,1-1.867,1v-.037A.54.54,0,0,0,63.048,165.732Zm10.726-3.959a1.194,1.194,0,0,0-.3-.264h-.056a2.708,2.708,0,0,1,.056,1.15.535.535,0,0,1,.208.434.572.572,0,0,1-.4.547,2.131,2.131,0,0,1-.546.075.545.545,0,0,0-.528.434.465.465,0,0,1-.17-.358v-.037a.532.532,0,0,1,.226-.961h-.094a.675.675,0,0,0-.678.679.813.813,0,0,0,.037.207.838.838,0,0,0-.471.037.965.965,0,0,0-.529.434.4.4,0,0,1-.132-.283.326.326,0,0,1,.076-.226v-.095a.87.87,0,0,1,.754-.848.626.626,0,0,0-.189-.019.786.786,0,0,0-.773.754,1.365,1.365,0,0,0-.546.378.432.432,0,0,1-.076-.265.507.507,0,0,1,.245-.452v-.113a.861.861,0,0,1,.848-.867,2.44,2.44,0,0,0,.829.019.421.421,0,0,0,.189-.509.558.558,0,0,0-.057-.188c-.207.019-.434.037-.622.037a.929.929,0,0,1-.773.4H70.23a.24.24,0,0,0,.019-.113.441.441,0,0,0-.321-.415c-1.15-.3-1.583-1.094-1.281-1.941a1.115,1.115,0,0,0,.037-.245c0-.509-.546-.924-1.225-.924-1.395,0-3.525,1.828-5.844,2.526a.251.251,0,0,0-.188.264.291.291,0,0,0,.283.283.234.234,0,0,0,.114-.02l-.6.264a.234.234,0,0,1-.114.019.27.27,0,0,1-.113-.038L60.144,161a.853.853,0,0,0-.037-.434c.622-.585.943-1.358.415-1.961l-.264-.32c-.038-.038-.038-.076-.057-.114a.121.121,0,0,1,0-.113l-.151.528a.121.121,0,0,0,0,.113c.019.038.038.057.057.1l.076.094c.264.32.17.7-.264,1.093-.057-.113-.076-.17-.132-.264l-.094-.188a.24.24,0,0,1-.019-.113.272.272,0,0,1,.037-.114l-.264.472a.269.269,0,0,0-.037.113.238.238,0,0,0,.019.113l.019.057a1.581,1.581,0,0,1,.132,1.207l.773.49a.265.265,0,0,0,.113.037.24.24,0,0,0,.113-.019l-.716.3a.231.231,0,0,1-.113.019.274.274,0,0,1-.114-.038l-.716-.452c.245-.283-.037-.773-.076-1.055v-.076a.24.24,0,0,1,.019-.113.4.4,0,0,0,.057-.094l-.4.414a.192.192,0,0,0-.075.094.234.234,0,0,0-.019.114l.019.094a.7.7,0,0,1-.151.829l.792.509a.259.259,0,0,0,.113.038.244.244,0,0,0,.114-.019l-.679.3a.244.244,0,0,1-.114.019.272.272,0,0,1-.113-.037l-.377-.227a.311.311,0,0,1-.076-.094.27.27,0,0,1-.038-.113v-1.112h-.377v1l-.264-.17a.285.285,0,0,1-.113-.075c-.378-.321-.17-.66-.151-.83l.019-.094a.238.238,0,0,0-.019-.113.311.311,0,0,0-.076-.094l-.4-.415a.4.4,0,0,1,.056.094.24.24,0,0,1,.019.113l-.019.076a5.706,5.706,0,0,0-.17.754.932.932,0,0,0,.453.9l-.472.7a.321.321,0,0,1-.094.076.27.27,0,0,1-.113.038h-.773a.27.27,0,0,0,.113-.038.186.186,0,0,0,.094-.076l.415-.622c.019-.037.037-.037.057-.057s.037-.019.075-.019h-.508a.113.113,0,0,0-.076.019l-.057.057-.415.622a.311.311,0,0,1-.094.076.27.27,0,0,1-.113.038h-.641a.394.394,0,0,0,.076-.208.311.311,0,1,0-.622,0v.019a.376.376,0,0,1,.151.227.623.623,0,0,1-.452.66.777.777,0,0,1-.623.414.774.774,0,0,0,.094-.358.493.493,0,0,1-.414-.339c-.076-.244.132-.508.434-.641h-.076a.587.587,0,0,0-.585.585.631.631,0,0,0,.094.32.888.888,0,0,1-.226.019,1.074,1.074,0,0,1-.339-.057.836.836,0,0,0-.679.452.428.428,0,0,1-.114-.3.471.471,0,0,1,.3-.452.327.327,0,0,1-.019-.132.748.748,0,0,1,.584-.735h-.094a.756.756,0,0,0-.753.753v.114a.512.512,0,0,0-.132.15,1.469,1.469,0,0,1-.3-.132.442.442,0,0,0-.434.358.455.455,0,0,1-.132-.321A.439.439,0,0,1,50.3,163a.888.888,0,0,1,.623-.98.988.988,0,0,1,.735,0,.773.773,0,0,0-.528-.208.694.694,0,0,0-.283.057.719.719,0,0,1,.509-.358,1.27,1.27,0,0,1,.678.076,1.289,1.289,0,0,0,1.207-.094c.623-.378,1.188-.736,1.734-1.037l-.565.132a.121.121,0,0,1-.113,0c-.038,0-.057-.019-.094-.056l-.509-.49a.426.426,0,0,0,.094.057c.037,0,.076.019.113,0l.452-.094a.118.118,0,0,1,.114,0c.037,0,.056.037.094.056l-.378-.377a.4.4,0,0,0-.094-.057c-.037,0-.076-.019-.113,0l-.472.094a.121.121,0,0,1-.113,0c-.037,0-.056-.019-.094-.056l-.509-.49a.447.447,0,0,0,.094.057H53l.452-.095a.121.121,0,0,1,.113,0c.038,0,.057.019.094.057l-.4-.377a.435.435,0,0,0-.094-.057c-.038,0-.076-.019-.114,0l-.452.094a.121.121,0,0,1-.113,0,.169.169,0,0,1-.094-.056l-.566-.529a.388.388,0,0,0,.094.057c.038,0,.076.019.113,0l.245-.057a.344.344,0,0,0,.245-.32.331.331,0,0,0-.321-.321.317.317,0,0,0-.188.057.771.771,0,0,1-.415.132.724.724,0,0,1-.678-.452.442.442,0,0,1-.434-.452.243.243,0,0,1,.019-.114.4.4,0,0,0,.245.1.2.2,0,0,0,.094-.019v-.037a.338.338,0,0,1,.339-.339.3.3,0,0,1,.226.076.145.145,0,0,0,.094.037.151.151,0,1,0,0-.3c-.019,0-.037.019-.056.019a.648.648,0,0,1-.66-.132.777.777,0,0,1,0-1.037.527.527,0,0,0-.434-.226.492.492,0,0,1,.415-.227.5.5,0,0,1,.4.188.668.668,0,0,1,.7.114.559.559,0,0,1,.189.358.243.243,0,0,0,.019-.114.587.587,0,0,0-.585-.584h-.019a.676.676,0,0,1,.207-.264.4.4,0,0,0-.358-.358.512.512,0,0,1,.358-.151.505.505,0,0,1,.49.415.664.664,0,0,1,.452.659.42.42,0,0,1-.019.151.442.442,0,0,0,.151-.339.467.467,0,0,0-.094-.283.443.443,0,0,0,.113-.321.517.517,0,0,0-.094-.3.645.645,0,0,1,.509.622v.076c.4.339.32.829,0,1.3a.548.548,0,0,0-.019.735,4.762,4.762,0,0,0,1.168.981,1.033,1.033,0,0,0-.094,1.074,1.453,1.453,0,0,1,.7-1.094c.132-.094.188-.188.17-.3l-.094-.546a.121.121,0,0,1,0,.113c0,.037-.019.057-.057.094l-.207.207a2.121,2.121,0,0,1,.377-1.526,1.967,1.967,0,0,1-.076-1.188.626.626,0,0,0,.321.509.406.406,0,0,1,.17.6c.227-.094.509-.509.339-.736-.188-.245-.7-.132-.754-.565a1.447,1.447,0,0,1,.773,0,.96.96,0,0,1,.773-.339,1.224,1.224,0,0,1,.98-.283,1.246,1.246,0,0,1,.981.283.96.96,0,0,1,.773.339,1.269,1.269,0,0,1,.773,0c-.057.434-.566.32-.754.565-.17.227.132.622.339.736a.411.411,0,0,1,.17-.6.626.626,0,0,0,.321-.509,1.973,1.973,0,0,1-.076,1.188,2.036,2.036,0,0,1,.377,1.526l-.207-.207a.388.388,0,0,1-.057-.094v-.113l-.094.546c-.019.113.037.207.17.3a1.5,1.5,0,0,1,.7,1.094,1.038,1.038,0,0,0-.094-1.074c-.019-.038-.076-.076-.132-.151a7.156,7.156,0,0,0,1.49.226c2.092.057,4.072-.753,5.278-.923a7.064,7.064,0,0,1,2.959.3c.358.094.867.057.867-.4a.377.377,0,1,0-.754,0,.172.172,0,0,0,.019.094h-.094a.524.524,0,0,1-.226-1h-.076a.468.468,0,0,0-.472.472.309.309,0,0,0,.019.132.318.318,0,0,1-.189.057.338.338,0,0,1-.339-.339.592.592,0,0,1,.359-.509h-.019a.655.655,0,0,0-.659.66v.076a5.629,5.629,0,0,0-1.395.188,4.405,4.405,0,0,1,1.545-1.207,1.114,1.114,0,0,1-.037-.245.91.91,0,0,1,.961-.848,1.037,1.037,0,0,1,.415.094.417.417,0,0,0-.264.4.425.425,0,0,0,.358.415c1.207.188,2.036,1,1.847,1.828a1.8,1.8,0,0,1-1.7,1.225l.434.622a.321.321,0,0,0,.094.076.269.269,0,0,0,.113.037h.641a.27.27,0,0,1,.113.038.186.186,0,0,1,.094.076l.377.546a.323.323,0,0,0-.094-.076.24.24,0,0,0-.113-.019h-.792a.265.265,0,0,1-.113-.037.2.2,0,0,1-.095-.076l.339.509a.192.192,0,0,0,.094.075.262.262,0,0,0,.114.038h.792a.268.268,0,0,1,.113.037.191.191,0,0,1,.094.076l.378.546a.342.342,0,0,0-.094-.075.263.263,0,0,0-.114-.038H72.3a.125.125,0,0,1-.113-.019.182.182,0,0,1-.094-.076l.3.452a.321.321,0,0,0,.094.076c.038,0,.076.019.113.019h.6a.6.6,0,0,1,.6.6A.483.483,0,0,1,73.774,161.773Zm-9.822-11.066a1.431,1.431,0,0,1-.565,0c.339-.264.283-.961.9-1.489a2.81,2.81,0,0,1,1.527-.547c.754-.113.735-.339.66-.565a1.3,1.3,0,0,1,.735-.208c.585,0,1.055.321,1.055.717a.527.527,0,0,1-.056.245.863.863,0,0,0-.66.886l.076.339a.121.121,0,0,1,0,.113.238.238,0,0,1-.057.094l-.434.452a.4.4,0,0,0,.057-.094c0-.037.019-.076,0-.113l-.151-.716a.122.122,0,0,1,0-.114c0-.037.019-.056.057-.094l-.4.4a.447.447,0,0,0-.057.094c0,.037-.019.076,0,.113l.151.717a.121.121,0,0,1,0,.113c0,.037-.019.057-.056.094l-.434.452a.4.4,0,0,0,.056-.094c0-.037.019-.076,0-.113l-.151-.716a.122.122,0,0,1,0-.114.178.178,0,0,1,.057-.094l-.4.4a.155.155,0,0,0-.057.094v.113l.151.716a.122.122,0,0,1,0,.114c0,.037-.019.056-.057.094l-.49.509c.019-.019.057-.057.057-.094s.019-.076,0-.114l-.113-.584a1.8,1.8,0,0,1-.585.49.877.877,0,0,1-.867.773.42.42,0,0,1-.151-.019.378.378,0,0,0,.076-.245.442.442,0,0,0-.321-.415.958.958,0,0,1,.038.227.681.681,0,0,1-.679.7.483.483,0,0,1-.227-.037.529.529,0,0,0-.17-.038.5.5,0,0,0-.49.377,1.448,1.448,0,0,1-.076-.4.975.975,0,0,1,.585-.886.9.9,0,0,0-.792.716,1.332,1.332,0,0,0-.679.415.467.467,0,0,1-.094-.283.527.527,0,0,1,.359-.49,1.086,1.086,0,0,1,.716-.66h-.094a.957.957,0,0,0-.887.679,1.568,1.568,0,0,0-.641.377.431.431,0,0,1-.076-.264.51.51,0,0,1,.434-.509,1.072,1.072,0,0,1,1.037-.942,1.484,1.484,0,0,1,.283.037l.716.207a.86.86,0,0,0,.528-.037.9.9,0,0,0,.585-.585.682.682,0,0,0,.414-.321A1.543,1.543,0,0,1,63.952,150.707Zm-.9,4.354a.687.687,0,0,0-.208.038h.038a.458.458,0,0,1,.452.452.465.465,0,0,1-.339.434,1.349,1.349,0,0,1-.4.057h-.17a.34.34,0,0,0,.076-.188.266.266,0,0,0-.529-.057.324.324,0,0,0,0,.188c.057.321.453.509.981.528,1.79,0,3.77-1.131,5.957-1.489a.646.646,0,0,0,.019.188,5.784,5.784,0,0,0-1.414,1c-1.66.358-3.62,1.338-5.279,1a1.474,1.474,0,0,1-1.263-1.357,1.589,1.589,0,0,1,1.734-1.4,4.589,4.589,0,0,1,1.055.151,3.253,3.253,0,0,0,.886.113,3.491,3.491,0,0,0,.792-.094,3.074,3.074,0,0,1-1.867,1v-.038A.527.527,0,0,0,63.048,155.062ZM73.774,151.1a1.341,1.341,0,0,0-.3-.283h-.056a2.711,2.711,0,0,1,.056,1.15.535.535,0,0,1,.208.434.59.59,0,0,1-.4.546,2.127,2.127,0,0,1-.546.076.544.544,0,0,0-.528.434.468.468,0,0,1-.17-.358v-.038a.532.532,0,0,1,.226-.961h-.094a.666.666,0,0,0-.641.886.832.832,0,0,0-.471.038.962.962,0,0,0-.529.434.4.4,0,0,1-.132-.283.329.329,0,0,1,.076-.227v-.094a.872.872,0,0,1,.754-.848.652.652,0,0,0-.189-.019.786.786,0,0,0-.773.754,1.355,1.355,0,0,0-.546.377.431.431,0,0,1-.076-.264.53.53,0,0,1,.245-.452v-.114a.861.861,0,0,1,.848-.867,2.42,2.42,0,0,0,.829.019.42.42,0,0,0,.189-.508.562.562,0,0,0-.057-.189c-.207.019-.434.038-.622.038a.929.929,0,0,1-.773.4H70.23a.238.238,0,0,0,.019-.113.441.441,0,0,0-.321-.415c-1.15-.32-1.583-1.112-1.281-1.96a1.115,1.115,0,0,0,.037-.245c0-.509-.546-.924-1.225-.924-1.395,0-3.525,1.828-5.844,2.526a.252.252,0,0,0-.188.264.291.291,0,0,0,.283.283.234.234,0,0,0,.114-.019l-.6.265a.243.243,0,0,1-.114.019.259.259,0,0,1-.113-.038l-.848-.528a.853.853,0,0,0-.037-.434c.622-.585.943-1.358.415-1.961l-.264-.32c-.038-.038-.038-.076-.057-.114a.121.121,0,0,1,0-.113l-.151.528a.122.122,0,0,0,0,.114l.057.113.076.094c.264.321.17.7-.264,1.094-.057-.114-.076-.17-.132-.264l-.094-.189a.24.24,0,0,1-.019-.113.269.269,0,0,1,.037-.113l-.264.49a.272.272,0,0,0-.037.114.24.24,0,0,0,.019.113l.019.057a1.581,1.581,0,0,1,.132,1.206l.773.49a.256.256,0,0,0,.113.038.24.24,0,0,0,.113-.019l-.716.3a.24.24,0,0,1-.113.019.272.272,0,0,1-.114-.037l-.716-.452c.245-.264-.037-.773-.076-1.056V149.8a.242.242,0,0,1,.019-.113.373.373,0,0,0,.057-.094l-.4.415a.188.188,0,0,0-.075.094.231.231,0,0,0-.019.113l.019.094a.7.7,0,0,1-.151.83l.792.49a.269.269,0,0,0,.113.037.243.243,0,0,0,.114-.019l-.679.3a.234.234,0,0,1-.114.019.274.274,0,0,1-.113-.038l-.377-.226a.323.323,0,0,1-.076-.1.267.267,0,0,1-.038-.113v-1.112h-.377v1l-.264-.17a.285.285,0,0,1-.113-.076c-.378-.321-.17-.66-.151-.83l.019-.094a.24.24,0,0,0-.019-.113.186.186,0,0,0-.076-.094l-.4-.415a.416.416,0,0,1,.056.094.242.242,0,0,1,.019.113l-.019.076a5.737,5.737,0,0,0-.17.754.946.946,0,0,0,.453.924l-.472.7a.349.349,0,0,1-.094.076.268.268,0,0,1-.113.037h-.773a.268.268,0,0,0,.113-.037.194.194,0,0,0,.094-.076l.415-.622.057-.057c.019-.019.037-.019.075-.019h-.508a.113.113,0,0,0-.076.019l-.057.057-.415.622a.337.337,0,0,1-.094.076.268.268,0,0,1-.113.037h-.641a.391.391,0,0,0,.076-.207.311.311,0,1,0-.622,0v.019a.376.376,0,0,1,.151.227.634.634,0,0,1-.452.659.776.776,0,0,1-.623.415.776.776,0,0,0,.094-.358.494.494,0,0,1-.414-.339c-.076-.245.132-.509.434-.641h-.076a.587.587,0,0,0-.585.584.647.647,0,0,0,.094.339.925.925,0,0,1-.226.019,1.074,1.074,0,0,1-.339-.056.836.836,0,0,0-.679.452.428.428,0,0,1-.114-.3.473.473,0,0,1,.3-.453.322.322,0,0,1-.019-.132.749.749,0,0,1,.584-.736h-.094a.756.756,0,0,0-.753.754v.113a.515.515,0,0,0-.132.151.838.838,0,0,1-.3-.113.443.443,0,0,0-.434.358.455.455,0,0,1-.132-.321.44.44,0,0,1,.283-.434.888.888,0,0,1,.623-.98.988.988,0,0,1,.735,0,.773.773,0,0,0-.528-.208.694.694,0,0,0-.283.057.719.719,0,0,1,.509-.358,1.278,1.278,0,0,1,.678.076,1.289,1.289,0,0,0,1.207-.094c.623-.378,1.188-.736,1.734-1.037l-.565.113a.121.121,0,0,1-.113,0c-.038,0-.057-.019-.094-.057l-.509-.49a.4.4,0,0,0,.094.056H53.9l.452-.094a.122.122,0,0,1,.114,0c.037,0,.056.038.094.057l-.378-.377a.372.372,0,0,0-.094-.057.121.121,0,0,0-.113,0l-.472.094a.121.121,0,0,1-.113,0c-.037,0-.056-.037-.094-.057l-.509-.49a.417.417,0,0,0,.094.056H53l.452-.094a.121.121,0,0,1,.113,0c.038,0,.057.019.094.057l-.4-.377a.4.4,0,0,0-.094-.057c-.038,0-.076-.019-.114,0l-.452.094a.121.121,0,0,1-.113,0,.167.167,0,0,1-.094-.057l-.566-.528a.415.415,0,0,0,.094.057c.038,0,.076.019.113,0l.245-.057a.305.305,0,0,0,.245-.3.331.331,0,0,0-.321-.321.317.317,0,0,0-.188.057.771.771,0,0,1-.415.132.724.724,0,0,1-.678-.452.455.455,0,0,1-.434-.452.243.243,0,0,1,.019-.114.4.4,0,0,0,.245.094.208.208,0,0,0,.094-.019V146.2a.338.338,0,0,1,.339-.339.3.3,0,0,1,.226.076.145.145,0,0,0,.094.037.151.151,0,1,0,0-.3h-.056a.648.648,0,0,1-.66-.132.777.777,0,0,1,0-1.037.5.5,0,0,0-.434-.245.493.493,0,0,1,.415-.226.5.5,0,0,1,.4.188.717.717,0,0,1,.7.132.563.563,0,0,1,.189.359.243.243,0,0,0,.019-.114.587.587,0,0,0-.585-.584h-.019a.672.672,0,0,1,.207-.265.4.4,0,0,0-.358-.358.515.515,0,0,1,.358-.15.505.505,0,0,1,.49.414.665.665,0,0,1,.452.66.42.42,0,0,1-.019.151.443.443,0,0,0,.151-.339.465.465,0,0,0-.094-.283.444.444,0,0,0,.113-.321.522.522,0,0,0-.094-.3.647.647,0,0,1,.509.623v.075c.4.339.32.83,0,1.3a.548.548,0,0,0-.019.735,4.765,4.765,0,0,0,1.168.98,1.035,1.035,0,0,0-.094,1.075,1.451,1.451,0,0,1,.7-1.094c.132-.094.188-.188.17-.3l-.094-.547a.122.122,0,0,1,0,.114c0,.037-.019.056-.057.094l-.207.188a2.124,2.124,0,0,1,.377-1.527,1.966,1.966,0,0,1-.076-1.188.624.624,0,0,0,.321.509.409.409,0,0,1,.17.6c.227-.094.509-.509.339-.735-.188-.245-.7-.132-.754-.566a1.689,1.689,0,0,1,.773,0,.962.962,0,0,1,.773-.339,1.23,1.23,0,0,1,.98-.283,1.252,1.252,0,0,1,.981.283.962.962,0,0,1,.773.339,1.282,1.282,0,0,1,.773,0c-.057.434-.566.321-.754.566-.17.226.132.622.339.735a.411.411,0,0,1,.17-.6.624.624,0,0,0,.321-.509,1.972,1.972,0,0,1-.076,1.188,2.039,2.039,0,0,1,.377,1.527l-.207-.188a.4.4,0,0,1-.057-.094v-.114l-.094.547c-.019.113.037.207.17.3a1.5,1.5,0,0,1,.7,1.094,1.039,1.039,0,0,0-.094-1.075c-.019-.037-.076-.076-.132-.15a7.157,7.157,0,0,0,1.49.226c2.092.057,4.072-.754,5.278-.924a7.065,7.065,0,0,1,2.959.3c.358.094.867.057.867-.4a.377.377,0,0,0-.754,0,.17.17,0,0,0,.019.094h-.094a.524.524,0,0,1-.226-1h-.076a.467.467,0,0,0-.472.471.313.313,0,0,0,.019.132.324.324,0,0,1-.189.057.338.338,0,0,1-.339-.339.59.59,0,0,1,.359-.49h-.019a.656.656,0,0,0-.659.66v.075a5.629,5.629,0,0,0-1.395.189,4.405,4.405,0,0,1,1.545-1.207,1.114,1.114,0,0,1-.037-.245.91.91,0,0,1,.961-.848,1.024,1.024,0,0,1,.415.094.436.436,0,0,0-.264.4.425.425,0,0,0,.358.415c1.207.188,2.036,1,1.847,1.828a1.8,1.8,0,0,1-1.7,1.225l.434.622a.321.321,0,0,0,.094.076.269.269,0,0,0,.113.037h.641a.231.231,0,0,1,.113.019.189.189,0,0,1,.094.075l.377.547a.31.31,0,0,0-.094-.076.27.27,0,0,0-.113-.038h-.792a.265.265,0,0,1-.113-.037.188.188,0,0,1-.095-.076l.339.509a.193.193,0,0,0,.094.076.14.14,0,0,0,.114.037h.792a.271.271,0,0,1,.113.038.182.182,0,0,1,.094.076l.378.546a.346.346,0,0,0-.094-.076.272.272,0,0,0-.114-.037H72.3a.267.267,0,0,1-.113-.038.182.182,0,0,1-.094-.076l.3.453a.349.349,0,0,0,.094.076.273.273,0,0,0,.113.037h.6a.6.6,0,0,1,.6.6A.483.483,0,0,1,73.774,151.1Z" transform="translate(-41.721 -139.136)"/><path class="a" d="M62.989,146.1a.437.437,0,0,1-.358.17h-.792c-.075,0-.132.057-.17.151a.621.621,0,0,0,0,.264.156.156,0,0,1,.151-.094h.188a.22.22,0,0,0-.075.188.3.3,0,1,0,.6,0,.338.338,0,0,0-.076-.188h.17C62.819,146.587,62.989,146.324,62.989,146.1Z" transform="translate(-45.47 -140.445)"/><path class="a" d="M61.826,147.549c.019.528-.208.659-.434.659a.617.617,0,0,1-.359-.076c-.17-.075-.037-.226,0-.264a.5.5,0,0,0,.151-.414.04.04,0,0,0-.037-.038h-.6a.041.041,0,0,0-.038.038.5.5,0,0,0,.151.414c.037.038.151.17-.019.264a.718.718,0,0,1-.339.076c-.245,0-.472-.132-.452-.659-.905-.076-.867-.7-.83-1.15a.909.909,0,0,0,.472,1.49.119.119,0,0,1,.094.113.5.5,0,0,0,.358.509,3.191,3.191,0,0,0,.132.848c-.245.508-.056.867.132.942s.434-.019.641-.019.452.094.641.019.377-.434.132-.942a3.192,3.192,0,0,0,.132-.848.531.531,0,0,0,.358-.509.118.118,0,0,1,.094-.113.9.9,0,0,0,.452-1.49C62.693,146.833,62.73,147.474,61.826,147.549Zm-1.32,1.207c.038-.1.076-.151.094-.208.038-.037.038-.076.076-.076.019,0,.038.019.057.019h.188c.019,0,.038-.019.057-.019.037,0,.056.038.076.076.019.057.056.113.094.208l.207-.245a4.252,4.252,0,0,1-.057.679,1.288,1.288,0,0,0-.471-.038,1.96,1.96,0,0,0-.471.038,4.081,4.081,0,0,1-.057-.679Zm.321,1.225c-.227,0-.528.15-.566-.17-.019-.264.283-.358.566-.358s.585.094.566.358C61.373,150.151,61.072,149.981,60.826,149.981Z" transform="translate(-44.929 -140.502)"/><path class="a" d="M61.982,144.9l.32.414a.434.434,0,0,0,.321.151H62.9c-.075-.019-.094-.076-.188-.151l-.339-.434a.273.273,0,0,0-.244-.132h-.321A.642.642,0,0,1,61.982,144.9Z" transform="translate(-45.5 -140.192)"/><path class="a" d="M60.856,144.848l.32.49a.3.3,0,0,0,.283.17h.378a.488.488,0,0,1-.208-.188l-.414-.585a.429.429,0,0,0-.339-.17h-.339A.512.512,0,0,1,60.856,144.848Z" transform="translate(-45.26 -140.157)"/><path class="a" d="M59.686,146.587h.17a.227.227,0,0,0-.057.188.3.3,0,1,0,.6,0,.338.338,0,0,0-.076-.188h.188a.155.155,0,0,1,.151.094.627.627,0,0,0,0-.264.179.179,0,0,0-.17-.151h-.81a.464.464,0,0,1-.359-.17C59.327,146.342,59.5,146.587,59.686,146.587Z" transform="translate(-45.032 -140.445)"/><path class="a" d="M59.706,144.924l.321.415a.4.4,0,0,0,.321.15h.283c-.094-.019-.113-.076-.188-.17l-.339-.434a.24.24,0,0,0-.245-.113h-.321A.63.63,0,0,1,59.706,144.924Z" transform="translate(-45.072 -140.195)"/></g></g></svg>