<svg xmlns="http://www.w3.org/2000/svg" width="188.238" height="54.479" viewBox="0 0 188.238 54.479"><defs><style>.a{fill:#b2b2b2;}</style></defs><g transform="translate(596.426 -5.837)"><path class="a" d="M50.707,5.885V32.21l-4.317-8.97L31.485,29.993l3.346,6.971,4.344-1.882a2.9,2.9,0,0,1-.006,2.122,6.545,6.545,0,0,1-5.386,4.557,6.643,6.643,0,0,1-6.422-2.254,16.233,16.233,0,0,1-4.39-9.99,7.213,7.213,0,0,1,1.891-5.384c1.191-1.342,2.811-1.527,4.479-1.542a5.962,5.962,0,0,1,4.351,1.773.589.589,0,0,0,.767.179c3.155-1.449,6.32-2.876,9.481-4.312a3.625,3.625,0,0,0,.358-.22,15.824,15.824,0,0,0-5.243-4.848,16.969,16.969,0,0,0-6.23-1.85,20.833,20.833,0,0,0-8.748.619,17.227,17.227,0,0,0-8.169,5.493c-.447.527-.881,1.065-1.434,1.734V17.171c0-2.821,0-5.642,0-8.463,0-.741-.019-1.483-.072-2.222-.036-.511.156-.651.654-.649,3.542.018,7.084.009,10.626.009q12.09,0,24.179,0C50.126,5.848,50.4,5.871,50.707,5.885Z" transform="translate(-533.088)"/><path class="a" d="M15.415,285.009c.84,1.159,1.62,2.4,2.558,3.5a16.732,16.732,0,0,0,10.722,6.13,18.142,18.142,0,0,0,9.022-1.264,18.613,18.613,0,0,0,5.588-3.216,10.485,10.485,0,0,0,3.276-4.972c.06-.2.135-.39.244-.706l1.922,2.879,2.891-1.29V303.5H15.415Z" transform="translate(-533.98 -243.185)"/><path class="a" d="M540.316,158.815H538.46c-1.654,0-3.309-.016-4.963.011a.929.929,0,0,1-.909-.5q-3.508-5.485-7.052-10.947c-.137-.213-.277-.425-.521-.8v12.2H517.54V135.121h.709c1.951,0,3.9.02,5.853-.013a1.079,1.079,0,0,1,1.051.6q3.654,5.731,7.348,11.436c.088.136.186.265.371.527v-12.5h7.443Z" transform="translate(-972.206 -112.82)"/><path class="a" d="M-194.338,146.891V158.8h-7.456V135.187c.192-.011.395-.032.6-.032,2.014,0,4.028.009,6.042-.01a.892.892,0,0,1,.864.481q3.642,5.7,7.317,11.375a1.33,1.33,0,0,0,.453.468V135.2h7.442v23.648h-3.9c-.975,0-1.951-.023-2.926.011a.869.869,0,0,1-.861-.478q-3.547-5.533-7.124-11.048c-.1-.158-.209-.314-.313-.471Z" transform="translate(-344.412 -112.852)"/><path class="a" d="M-400.008,135.379h7.708v.758q0,6.839,0,13.677c0,.4.057.8.081,1.2a2.866,2.866,0,0,0,2.732,2.687,5.506,5.506,0,0,0,1.9-.029c1.7-.336,2.553-1.555,2.556-3.568q.011-6.966,0-13.931v-.781h7.705c.015.185.04.349.04.512,0,4.856.02,9.712-.014,14.567a8.6,8.6,0,0,1-1.451,5.17,9.3,9.3,0,0,1-5.955,3.673,18.481,18.481,0,0,1-9.04-.282,8.36,8.36,0,0,1-6.278-8.205c-.076-5.045-.022-10.093-.022-15.14C-400.043,135.607-400.025,135.526-400.008,135.379Z" transform="translate(-171.376 -113.057)"/><path class="a" d="M360.861,159.167H341.21V135.546h19.163v5.56H348.729v3.283h9.842v5.376H348.73v3.71h12.131Z" transform="translate(-818.315 -113.203)"/><path class="a" d="M-583.362,135.505h9.344c.011.241.028.447.028.653,0,4.813.021,9.627-.007,14.441a8.428,8.428,0,0,1-2.764,6.7,9.821,9.821,0,0,1-4.86,2.185,19.352,19.352,0,0,1-8.189-.2,10.347,10.347,0,0,1-3.828-1.921,6.783,6.783,0,0,1-2.583-4.91c-.115-1.173-.139-2.355-.206-3.581h8.25c.062,1.079.087,2.134.19,3.181a2.1,2.1,0,0,0,2.459,1.913,2.073,2.073,0,0,0,2.139-2.065c.043-1.886.024-3.774.025-5.661q0-4.994,0-9.988Z" transform="translate(0 -113.167)"/><path class="a" d="M734.153,135.515v6.2h-6.941v17.4h-7.734V141.75h-6.995v-6.235Z" transform="translate(-1142.341 -113.176)"/></g></svg>