<svg xmlns="http://www.w3.org/2000/svg" width="17.291" height="17.29" viewBox="0 0 17.291 17.29"><defs><style>.a{fill:#00d857;}</style></defs><path class="a" d="M9.227.563A8.353,8.353,0,0,0,.563,8.949a8.2,8.2,0,0,0,2.722,6.2c.291.262.231.413.281,2.03a.694.694,0,0,0,.972.613C6.381,16.982,6.4,16.918,6.718,17c5.344,1.471,11.136-1.949,11.136-8.054A8.321,8.321,0,0,0,9.227.563Zm5.2,6.454-2.545,4.029a1.3,1.3,0,0,1-1.879.346L7.981,9.876a.523.523,0,0,0-.628,0L4.621,11.948a.411.411,0,0,1-.6-.546L6.57,7.373a1.3,1.3,0,0,1,1.879-.346l2.024,1.515a.523.523,0,0,0,.628,0l2.733-2.07a.41.41,0,0,1,.6.545Z" transform="translate(-0.563 -0.563)"/></svg>