<svg xmlns="http://www.w3.org/2000/svg" xmlns:xlink="http://www.w3.org/1999/xlink" width="83.273" height="94.567" viewBox="0 0 83.273 94.567"><defs><style>.a{fill:#00d857;stroke:#fff;}.b{fill:#fff;}.c{filter:url(#a);}</style><filter id="a" x="0" y="0" width="83.273" height="94.567" filterUnits="userSpaceOnUse"><feOffset input="SourceAlpha"/><feGaussianBlur stdDeviation="7.5" result="b"/><feFlood flood-opacity="0.149"/><feComposite operator="in" in2="b"/><feComposite in="SourceGraphic"/></filter></defs><g transform="translate(23 23)"><g class="c" transform="matrix(1, 0, 0, 1, -23, -23)"><path class="a" d="M264.735,58.493c0,10.293,18.636,29.709,18.636,29.709s18.637-19.416,18.637-29.709a18.636,18.636,0,0,0-37.273,0Z" transform="translate(-241.73 -16.86)"/></g><g transform="translate(8.51 10.342)"><path class="b" d="M285,69.167h-3.693l1.644-9.821a1.571,1.571,0,0,1,1.554-1.316h9.76l-.483,2.89h3.131l1-5.977H284.5a4.65,4.65,0,0,0-4.6,3.895l-2.245,13.419h6.824Z" transform="translate(-277.659 -54.941)"/><g transform="translate(9.383 8.441)"><path class="b" d="M294.483,73.479,292,69.753l-.554-.886-.13.809-.639,3.779h-2.279l1.5-8.857h1.768l2.689,4.126.408.7.1-.609.707-4.178h2.279l-1.5,8.845Z" transform="translate(-288.395 -64.599)"/></g></g></g></svg>