<svg xmlns="http://www.w3.org/2000/svg" width="17.599" height="17.849" viewBox="0 0 17.599 17.849"><defs><style>.a{fill:#00d857;}</style></defs><path class="a" d="M0,4.873A4.694,4.694,0,0,1,1.428,1.428,4.694,4.694,0,0,1,4.873,0,4.783,4.783,0,0,1,7.461.75,7.5,7.5,0,0,1,8.889.625a8.1,8.1,0,0,1,5.944,2.463A8.079,8.079,0,0,1,17.3,9.014a8.7,8.7,0,0,1-.2,1.8,4.986,4.986,0,0,1,.5,2.16,4.875,4.875,0,0,1-4.873,4.873,4.888,4.888,0,0,1-2.3-.571,8.776,8.776,0,0,1-1.535.143,8.079,8.079,0,0,1-5.926-2.463A8.1,8.1,0,0,1,.5,9.014,8.9,8.9,0,0,1,.66,7.336,4.9,4.9,0,0,1,0,4.873Zm3.945,6.533a2.705,2.705,0,0,0,.535,1.517q1.267,1.856,4.391,1.856a7.458,7.458,0,0,0,1.722-.2,6,6,0,0,0,1.562-.607,3.211,3.211,0,0,0,1.178-1.133,3.145,3.145,0,0,0,.446-1.687,2.865,2.865,0,0,0-.527-1.749,3.038,3.038,0,0,0-1.312-1.035,15.85,15.85,0,0,0-1.7-.58q-.919-.259-1.7-.411A4.083,4.083,0,0,1,7.22,6.916a.915.915,0,0,1-.527-.794.93.93,0,0,1,.651-.875,3.282,3.282,0,0,1,1.33-.286,2.719,2.719,0,0,1,1.178.223,1.678,1.678,0,0,1,.678.535,5.783,5.783,0,0,1,.375.625,1.652,1.652,0,0,0,.437.535,1.087,1.087,0,0,0,.705.223,1.209,1.209,0,0,0,.848-.339,1.079,1.079,0,0,0,.366-.821,1.969,1.969,0,0,0-.268-.964,3.125,3.125,0,0,0-1.7-1.428,6.8,6.8,0,0,0-2.463-.446,7.735,7.735,0,0,0-1.589.161,6.091,6.091,0,0,0-1.481.518A2.951,2.951,0,0,0,4.614,4.792a2.7,2.7,0,0,0-.437,1.544,2.588,2.588,0,0,0,.714,1.9A3.92,3.92,0,0,0,6.622,9.255q1.017.295,2.044.509a6.471,6.471,0,0,1,1.74.6,1.162,1.162,0,0,1,.714,1.044,1.116,1.116,0,0,1-.411.875,2.184,2.184,0,0,1-.9.482,4.072,4.072,0,0,1-1.008.125A3.131,3.131,0,0,1,7.648,12.7a1.509,1.509,0,0,1-.687-.482,6.6,6.6,0,0,1-.4-.625q-.187-.33-.321-.625a1.169,1.169,0,0,0-.4-.482,1.123,1.123,0,0,0-.66-.187,1.314,1.314,0,0,0-.866.3.992.992,0,0,0-.366.8Z"/></svg>