<svg xmlns="http://www.w3.org/2000/svg" width="17.725" height="17.725" viewBox="0 0 17.725 17.725"><defs><style>.a{fill:#00d857;}</style></defs><path class="a" d="M11.273,2.25a8.668,8.668,0,0,0-8.7,8.634A8.545,8.545,0,0,0,3.82,15.343L2.25,19.975l4.818-1.53a8.716,8.716,0,0,0,12.907-7.56A8.668,8.668,0,0,0,11.273,2.25ZM15.6,14.163a2.248,2.248,0,0,1-1.539.992c-.408.022-.42.316-2.644-.65a9.079,9.079,0,0,1-3.668-3.469,4.267,4.267,0,0,1-.821-2.313,2.466,2.466,0,0,1,.847-1.809.852.852,0,0,1,.6-.254c.175,0,.289-.005.418,0s.324-.027.493.421.571,1.549.623,1.661a.4.4,0,0,1,0,.387,1.511,1.511,0,0,1-.236.359c-.116.125-.244.279-.348.374s-.236.22-.115.446a6.659,6.659,0,0,0,1.178,1.572,6.071,6.071,0,0,0,1.745,1.16c.218.119.348.106.484-.037s.579-.623.736-.838.3-.173.5-.092,1.272.655,1.491.774.364.179.416.273A1.827,1.827,0,0,1,15.6,14.163Z" transform="translate(-2.25 -2.25)"/></svg>